%TF.GenerationSoftware,KiCad,Pcbnew,8.0.4*%
%TF.CreationDate,2025-11-09T23:28:19-03:00*%
%TF.ProjectId,sfp_moduloIC,7366705f-6d6f-4647-956c-6f49432e6b69,v2.0*%
%TF.SameCoordinates,Original*%
%TF.FileFunction,Copper,L2,Inr*%
%TF.FilePolarity,Positive*%
%FSLAX46Y46*%
G04 Gerber Fmt 4.6, Leading zero omitted, Abs format (unit mm)*
G04 Created by KiCad (PCBNEW 8.0.4) date 2025-11-09 23:28:19*
%MOMM*%
%LPD*%
G01*
G04 APERTURE LIST*
%TA.AperFunction,ComponentPad*%
%ADD10R,2.600000X2.600000*%
%TD*%
%TA.AperFunction,ComponentPad*%
%ADD11C,2.600000*%
%TD*%
%TA.AperFunction,ComponentPad*%
%ADD12C,1.600000*%
%TD*%
%TA.AperFunction,ComponentPad*%
%ADD13C,1.400000*%
%TD*%
%TA.AperFunction,ComponentPad*%
%ADD14O,1.400000X1.400000*%
%TD*%
%TA.AperFunction,ComponentPad*%
%ADD15C,6.400000*%
%TD*%
%TA.AperFunction,ComponentPad*%
%ADD16R,1.700000X1.700000*%
%TD*%
%TA.AperFunction,ComponentPad*%
%ADD17O,1.700000X1.700000*%
%TD*%
%TA.AperFunction,WasherPad*%
%ADD18C,2.000000*%
%TD*%
%TA.AperFunction,ComponentPad*%
%ADD19R,2.000000X2.000000*%
%TD*%
%TA.AperFunction,ComponentPad*%
%ADD20C,1.500000*%
%TD*%
%TA.AperFunction,ComponentPad*%
%ADD21R,1.700000X2.000000*%
%TD*%
%TA.AperFunction,ComponentPad*%
%ADD22O,1.700000X2.000000*%
%TD*%
%TA.AperFunction,ViaPad*%
%ADD23C,0.600000*%
%TD*%
%TA.AperFunction,ViaPad*%
%ADD24C,0.450000*%
%TD*%
G04 APERTURE END LIST*
D10*
%TO.N,/IN*%
%TO.C,J8*%
X119910536Y-113816266D03*
D11*
%TO.N,GND*%
X119910536Y-108816266D03*
%TD*%
D12*
%TO.N,/L*%
%TO.C,C11*%
X123019536Y-123938266D03*
%TO.N,/N*%
X118019536Y-123938266D03*
%TD*%
D13*
%TO.N,/L*%
%TO.C,RV1*%
X123059536Y-119688266D03*
D14*
%TO.N,/N*%
X117979536Y-119688266D03*
%TD*%
D15*
%TO.N,GND*%
%TO.C,H1*%
X120355536Y-55941266D03*
%TD*%
D16*
%TO.N,/CS3*%
%TO.C,J1*%
X156210001Y-73940000D03*
D17*
%TO.N,/MOSI*%
X158750001Y-73940000D03*
%TO.N,/MISO*%
X161290001Y-73940000D03*
%TO.N,/SCK*%
X163830001Y-73940000D03*
%TO.N,GND*%
X166370001Y-73940000D03*
%TD*%
D16*
%TO.N,+3V3*%
%TO.C,J4*%
X171990001Y-77775000D03*
D17*
%TO.N,Net-(J4-Pin_2)*%
X171990001Y-75235000D03*
%TO.N,GND*%
X171990001Y-72695000D03*
%TD*%
D18*
%TO.N,*%
%TO.C,J6*%
X139815001Y-66070000D03*
X139815001Y-56470000D03*
D19*
%TO.N,GND*%
X170715001Y-68395000D03*
X170715001Y-59820000D03*
X165715001Y-54145000D03*
X160715001Y-68395000D03*
X155715001Y-54145000D03*
X150715001Y-68395000D03*
X150715001Y-62720000D03*
X150715001Y-57320000D03*
D20*
X147915001Y-68395000D03*
X147915001Y-54145000D03*
D19*
X145715001Y-54145000D03*
D20*
X143215001Y-68395000D03*
X143215001Y-54145000D03*
D19*
X140715001Y-68395000D03*
D20*
X138215001Y-68395000D03*
X138215001Y-54145000D03*
D19*
X135715001Y-54145000D03*
D20*
X133615001Y-66070000D03*
X133615001Y-61270000D03*
X133615001Y-56470000D03*
%TD*%
D16*
%TO.N,/SWCLK*%
%TO.C,J3*%
X118305536Y-103696266D03*
D17*
%TO.N,/SWDIO*%
X118305536Y-101156266D03*
%TO.N,GND*%
X118305536Y-98616266D03*
%TD*%
D16*
%TO.N,/TX1*%
%TO.C,J2*%
X118350001Y-89026266D03*
D17*
%TO.N,/RX1*%
X118350001Y-91566266D03*
%TO.N,GND*%
X118350001Y-94106266D03*
%TD*%
D15*
%TO.N,GND*%
%TO.C,H2*%
X170370001Y-130455732D03*
%TD*%
D16*
%TO.N,/CTRL*%
%TO.C,J5*%
X172010001Y-85035000D03*
D17*
%TO.N,GND*%
X172010001Y-82495000D03*
%TD*%
D15*
%TO.N,GND*%
%TO.C,H3*%
X120200000Y-130445731D03*
%TD*%
D21*
%TO.N,/L*%
%TO.C,PS1*%
X161963036Y-123573766D03*
D22*
%TO.N,/N*%
X161963036Y-117573766D03*
%TO.N,GND*%
X128363036Y-129573766D03*
%TO.N,+3V3*%
X128363036Y-111573766D03*
%TD*%
D10*
%TO.N,/N*%
%TO.C,J7*%
X170700536Y-113161600D03*
D11*
%TO.N,unconnected-(J7-Pin_2-Pad2)*%
X170700536Y-118161600D03*
%TO.N,/L*%
X170700536Y-123161600D03*
%TD*%
D23*
%TO.N,GND*%
X141592801Y-84532000D03*
D24*
X130505536Y-82496266D03*
D23*
X123106536Y-77372266D03*
X141694401Y-60351200D03*
X156426401Y-78994800D03*
X138745536Y-70496266D03*
D24*
X119725536Y-79616266D03*
D23*
X143726401Y-97943200D03*
X148430536Y-104916266D03*
D24*
X118425536Y-77486266D03*
X136290001Y-96660000D03*
D23*
X154050001Y-95708000D03*
D24*
X165190001Y-75840000D03*
D23*
X136835536Y-76820000D03*
X126109536Y-80378266D03*
X145656801Y-77064400D03*
X127345536Y-69766266D03*
X126109536Y-77358266D03*
X167196001Y-81839600D03*
X125840001Y-55160000D03*
X123109536Y-80368266D03*
X132042401Y-80417200D03*
X146105536Y-99966266D03*
X147185536Y-78696266D03*
X126810001Y-86290000D03*
D24*
X141470001Y-74630000D03*
D23*
X121069601Y-74372000D03*
X139115536Y-51896266D03*
X145905536Y-79466266D03*
X161455601Y-81738000D03*
%TO.N,+3V3*%
X166955536Y-106741266D03*
X142659601Y-80569600D03*
X148850001Y-94560000D03*
X143116801Y-81433200D03*
X147993601Y-80366400D03*
X130853536Y-112678266D03*
X136949536Y-112678266D03*
X121460001Y-81320000D03*
D24*
X124125536Y-75476266D03*
D23*
X144082001Y-99766266D03*
X137965536Y-109376266D03*
X136004801Y-70308000D03*
X145060001Y-81210000D03*
X137965536Y-113694266D03*
X136949536Y-110392266D03*
X132885536Y-110392266D03*
X127580001Y-66262500D03*
X142820001Y-77740000D03*
X132885536Y-113694266D03*
X147665001Y-99835000D03*
D24*
X134380001Y-96530000D03*
X128240001Y-90100000D03*
D23*
X134917536Y-110392266D03*
D24*
X121015536Y-78486266D03*
D23*
X130853536Y-110392266D03*
X134917536Y-113694266D03*
X133901536Y-112678266D03*
X130853536Y-109376266D03*
X136949536Y-109376266D03*
X130853536Y-113694266D03*
D24*
X128030001Y-79115000D03*
D23*
X132885536Y-112678266D03*
D24*
X135350001Y-73720000D03*
D23*
X129837536Y-112678266D03*
X134917536Y-112678266D03*
X135933536Y-113694266D03*
X128821536Y-109376266D03*
X134917536Y-109376266D03*
X132885536Y-109376266D03*
X141491201Y-73559200D03*
X131869536Y-110392266D03*
X126789536Y-109376266D03*
X127805536Y-109376266D03*
D24*
X125662040Y-82805001D03*
D23*
X131869536Y-109376266D03*
X135933536Y-110392266D03*
X125840001Y-56630000D03*
X133901536Y-110392266D03*
X137965536Y-110392266D03*
X135933536Y-109376266D03*
D24*
X157735901Y-82855901D03*
X117350001Y-76870000D03*
D23*
X143828001Y-87884800D03*
X128821536Y-113694266D03*
X146876001Y-89307200D03*
X146790001Y-81120000D03*
X137965536Y-112678266D03*
X131869536Y-112678266D03*
X129837536Y-113694266D03*
X136949536Y-113694266D03*
X133901536Y-113694266D03*
X127805536Y-113694266D03*
X129837536Y-110392266D03*
X126789536Y-113694266D03*
X143550001Y-94860000D03*
X129837536Y-109376266D03*
X131660001Y-66682500D03*
X133901536Y-109376266D03*
X135141201Y-100940400D03*
X123040901Y-85610901D03*
D24*
X163685901Y-82835901D03*
D23*
X126789536Y-112678266D03*
X144031201Y-89815200D03*
X142770001Y-79070000D03*
X116555536Y-67616266D03*
X135933536Y-112678266D03*
X126789536Y-110392266D03*
X131869536Y-113694266D03*
D24*
X132935536Y-77206266D03*
%TO.N,/OUT*%
X148580001Y-99846266D03*
X125730001Y-101050000D03*
%TO.N,/RC*%
X135360001Y-77730000D03*
X135340001Y-80300000D03*
%TO.N,/RST3*%
X130610901Y-81340901D03*
X139952136Y-96082866D03*
%TO.N,+1V0*%
X125595536Y-74415000D03*
X122877096Y-82705001D03*
X128995001Y-80600000D03*
X127455536Y-74415000D03*
D23*
X117610001Y-81930000D03*
D24*
X122150001Y-76266266D03*
X123705536Y-74404999D03*
%TO.N,/RESET*%
X146130001Y-102716266D03*
X137205536Y-99166266D03*
%TO.N,/RST1*%
X153530901Y-75670901D03*
X154325001Y-90060000D03*
%TO.N,Net-(D6-K)*%
X123524636Y-84015366D03*
X136590001Y-88486266D03*
X132745536Y-82900000D03*
%TO.N,Net-(D7-K)*%
X123777950Y-84531563D03*
X135120001Y-88576266D03*
X132740902Y-83790900D03*
%TO.N,Net-(D8-K)*%
X133670001Y-88557500D03*
X124075536Y-85056266D03*
X132710901Y-84780901D03*
%TO.N,Net-(D9-K)*%
X124640001Y-85230000D03*
X132745536Y-85730000D03*
X132210001Y-88527500D03*
%TO.N,Net-(D10-K)*%
X130750001Y-88537500D03*
X132775536Y-86690000D03*
X125157283Y-85481093D03*
%TO.N,/TX1*%
X141025536Y-93135000D03*
X146305536Y-94296266D03*
%TO.N,/RX1*%
X145610001Y-94240000D03*
X140665536Y-93610000D03*
%TO.N,/SWDIO*%
X140255536Y-94085000D03*
X144190901Y-94310901D03*
%TO.N,/CTRL*%
X142545536Y-62936266D03*
X138950901Y-96420901D03*
X145550001Y-63080000D03*
%TO.N,/SDA*%
X142334635Y-62335365D03*
X138005536Y-97146266D03*
X138224635Y-72915365D03*
%TO.N,/SCL*%
X142235001Y-63420000D03*
X138557139Y-96884663D03*
X138899811Y-72866266D03*
%TO.N,/LOS*%
X168130001Y-70115000D03*
X145641753Y-59150000D03*
%TO.N,/FAULT*%
X168325901Y-71495901D03*
X145460001Y-63870000D03*
%TO.N,/INT1*%
X153060902Y-76170900D03*
X153925001Y-91130000D03*
%TO.N,/CS1*%
X152250001Y-99516266D03*
X151240001Y-77920000D03*
%TO.N,/CS2*%
X153425536Y-102060000D03*
X142790001Y-95090000D03*
%TO.N,/RST2*%
X170790001Y-98326266D03*
X146527702Y-91194100D03*
X147630001Y-94376266D03*
%TO.N,/MOSI*%
X152610901Y-76600901D03*
X153555901Y-98075901D03*
%TO.N,/SCK*%
X151715902Y-77565900D03*
X157645901Y-96395901D03*
X152765536Y-99035000D03*
%TO.N,/MISO*%
X157550001Y-98150000D03*
X153135902Y-98545900D03*
X152135901Y-77095901D03*
%TO.N,/INT2*%
X148082135Y-95322865D03*
X170759636Y-96100366D03*
D23*
%TO.N,/VccR*%
X131160001Y-56560000D03*
X137460001Y-60640000D03*
%TO.N,/VccT*%
X137510001Y-62120000D03*
X131650001Y-68560000D03*
D24*
%TO.N,/CS3*%
X149365536Y-92760000D03*
%TO.N,Net-(J4-Pin_2)*%
X145625536Y-59830000D03*
%TD*%
%TA.AperFunction,Conductor*%
%TO.N,+3V3*%
G36*
X138923575Y-108960951D02*
G01*
X138969330Y-109013755D01*
X138980536Y-109065266D01*
X138980536Y-114242266D01*
X138960851Y-114309305D01*
X138908047Y-114355060D01*
X138856536Y-114366266D01*
X126304536Y-114366266D01*
X126237497Y-114346581D01*
X126191742Y-114293777D01*
X126180536Y-114242266D01*
X126180536Y-111317519D01*
X127013036Y-111317519D01*
X127013036Y-111323766D01*
X127930024Y-111323766D01*
X127897111Y-111380773D01*
X127863036Y-111507940D01*
X127863036Y-111639592D01*
X127897111Y-111766759D01*
X127930024Y-111823766D01*
X127013036Y-111823766D01*
X127013036Y-111830012D01*
X127046278Y-112039893D01*
X127046278Y-112039896D01*
X127111940Y-112241983D01*
X127208415Y-112431323D01*
X127333308Y-112603225D01*
X127333312Y-112603230D01*
X127483571Y-112753489D01*
X127483576Y-112753493D01*
X127655478Y-112878386D01*
X127844818Y-112974861D01*
X128046907Y-113040523D01*
X128113036Y-113050997D01*
X128113036Y-112006778D01*
X128170043Y-112039691D01*
X128297210Y-112073766D01*
X128428862Y-112073766D01*
X128556029Y-112039691D01*
X128613036Y-112006778D01*
X128613036Y-113050996D01*
X128679162Y-113040523D01*
X128679165Y-113040523D01*
X128881253Y-112974861D01*
X129070593Y-112878386D01*
X129242495Y-112753493D01*
X129242500Y-112753489D01*
X129392759Y-112603230D01*
X129392763Y-112603225D01*
X129517656Y-112431323D01*
X129614131Y-112241983D01*
X129679793Y-112039896D01*
X129679793Y-112039893D01*
X129713036Y-111830012D01*
X129713036Y-111823766D01*
X128796048Y-111823766D01*
X128828961Y-111766759D01*
X128863036Y-111639592D01*
X128863036Y-111507940D01*
X128828961Y-111380773D01*
X128796048Y-111323766D01*
X129713036Y-111323766D01*
X129713036Y-111317519D01*
X129679793Y-111107638D01*
X129679793Y-111107635D01*
X129614131Y-110905548D01*
X129517656Y-110716208D01*
X129392763Y-110544306D01*
X129392759Y-110544301D01*
X129242500Y-110394042D01*
X129242495Y-110394038D01*
X129070593Y-110269145D01*
X128881251Y-110172669D01*
X128679160Y-110107007D01*
X128613036Y-110096534D01*
X128613036Y-111140754D01*
X128556029Y-111107841D01*
X128428862Y-111073766D01*
X128297210Y-111073766D01*
X128170043Y-111107841D01*
X128113036Y-111140754D01*
X128113036Y-110096534D01*
X128113035Y-110096534D01*
X128046911Y-110107007D01*
X127844820Y-110172669D01*
X127655478Y-110269145D01*
X127483576Y-110394038D01*
X127483571Y-110394042D01*
X127333312Y-110544301D01*
X127333308Y-110544306D01*
X127208415Y-110716208D01*
X127111940Y-110905548D01*
X127046278Y-111107635D01*
X127046278Y-111107638D01*
X127013036Y-111317519D01*
X126180536Y-111317519D01*
X126180536Y-109065266D01*
X126200221Y-108998227D01*
X126253025Y-108952472D01*
X126304536Y-108941266D01*
X138856536Y-108941266D01*
X138923575Y-108960951D01*
G37*
%TD.AperFunction*%
%TD*%
%TA.AperFunction,Conductor*%
%TO.N,GND*%
G36*
X175162540Y-51111451D02*
G01*
X175208295Y-51164255D01*
X175219501Y-51215766D01*
X175219501Y-110017266D01*
X175199816Y-110084305D01*
X175147012Y-110130060D01*
X175095501Y-110141266D01*
X166205536Y-110141266D01*
X166205536Y-111650904D01*
X166185851Y-111717943D01*
X166169217Y-111738585D01*
X163585855Y-114321947D01*
X163524532Y-114355432D01*
X163498174Y-114358266D01*
X158813536Y-114358266D01*
X158805536Y-114366266D01*
X158805536Y-116534266D01*
X158785851Y-116601305D01*
X158733047Y-116647060D01*
X158681536Y-116658266D01*
X119279535Y-116658266D01*
X117855855Y-118081947D01*
X117794532Y-118115432D01*
X117768174Y-118118266D01*
X116747536Y-118118266D01*
X116739536Y-118126266D01*
X116739536Y-123674219D01*
X116735312Y-123706309D01*
X116733902Y-123711570D01*
X116733900Y-123711579D01*
X116714068Y-123938265D01*
X116714068Y-123938267D01*
X116733900Y-124164952D01*
X116733902Y-124164963D01*
X116735311Y-124170220D01*
X116739536Y-124202313D01*
X116739536Y-126446266D01*
X124259536Y-126446266D01*
X124259536Y-125342266D01*
X124279221Y-125275227D01*
X124332025Y-125229472D01*
X124383536Y-125218266D01*
X158675536Y-125218266D01*
X158742575Y-125237951D01*
X158788330Y-125290755D01*
X158799536Y-125342266D01*
X158799536Y-126760266D01*
X158805536Y-126766266D01*
X164805536Y-126766266D01*
X164805536Y-125332266D01*
X164825221Y-125265227D01*
X164878025Y-125219472D01*
X164929536Y-125208266D01*
X166075536Y-125208266D01*
X166142575Y-125227951D01*
X166188330Y-125280755D01*
X166199536Y-125332266D01*
X166199536Y-126168266D01*
X175095501Y-126168266D01*
X175162540Y-126187951D01*
X175208295Y-126240755D01*
X175219501Y-126292266D01*
X175219501Y-130453024D01*
X175219383Y-130458434D01*
X175201281Y-130872983D01*
X175200338Y-130883759D01*
X175146528Y-131292461D01*
X175144650Y-131303114D01*
X175055423Y-131705583D01*
X175052623Y-131716032D01*
X174928659Y-132109188D01*
X174924959Y-132119353D01*
X174767201Y-132500208D01*
X174762629Y-132510012D01*
X174572282Y-132875663D01*
X174566873Y-132885032D01*
X174345374Y-133232712D01*
X174339169Y-133241573D01*
X174088216Y-133568618D01*
X174081263Y-133576904D01*
X173802767Y-133880828D01*
X173795118Y-133888478D01*
X173491176Y-134166987D01*
X173482889Y-134173940D01*
X173155848Y-134424886D01*
X173146987Y-134431091D01*
X172799302Y-134652590D01*
X172789934Y-134657998D01*
X172424282Y-134848344D01*
X172414477Y-134852916D01*
X172033625Y-135010669D01*
X172023460Y-135014369D01*
X171630306Y-135138329D01*
X171619858Y-135141129D01*
X171217383Y-135230356D01*
X171206729Y-135232234D01*
X170798030Y-135286040D01*
X170787254Y-135286983D01*
X170714344Y-135290166D01*
X170371985Y-135305114D01*
X170366593Y-135305232D01*
X120372707Y-135305232D01*
X120367298Y-135305114D01*
X119952744Y-135287014D01*
X119941968Y-135286071D01*
X119533263Y-135232264D01*
X119522610Y-135230386D01*
X119120138Y-135141161D01*
X119109689Y-135138361D01*
X118716530Y-135014399D01*
X118706374Y-135010702D01*
X118325507Y-134852943D01*
X118315706Y-134848373D01*
X117950051Y-134658025D01*
X117940683Y-134652617D01*
X117592995Y-134431117D01*
X117584134Y-134424912D01*
X117257091Y-134173964D01*
X117248804Y-134167011D01*
X116944865Y-133888505D01*
X116937216Y-133880856D01*
X116658713Y-133576926D01*
X116651759Y-133568639D01*
X116563184Y-133453207D01*
X116400791Y-133241573D01*
X116394591Y-133232716D01*
X116173101Y-132885049D01*
X116167694Y-132875684D01*
X115977342Y-132510025D01*
X115972770Y-132500221D01*
X115815011Y-132119364D01*
X115811311Y-132109199D01*
X115791299Y-132045731D01*
X115687345Y-131716032D01*
X115684548Y-131705591D01*
X115595319Y-131303120D01*
X115593442Y-131292480D01*
X115539628Y-130883743D01*
X115538688Y-130873007D01*
X115520617Y-130459151D01*
X115520500Y-130453828D01*
X115520500Y-130445730D01*
X116494922Y-130445730D01*
X116494922Y-130445731D01*
X116515219Y-130833018D01*
X116575886Y-131216054D01*
X116575887Y-131216061D01*
X116676262Y-131590667D01*
X116815244Y-131952725D01*
X116991310Y-132298274D01*
X117202531Y-132623524D01*
X117411095Y-132881081D01*
X117411096Y-132881081D01*
X118905748Y-131386429D01*
X118979588Y-131488061D01*
X119157670Y-131666143D01*
X119259300Y-131739982D01*
X117764648Y-133234634D01*
X117764649Y-133234635D01*
X118022206Y-133443199D01*
X118347456Y-133654420D01*
X118693005Y-133830486D01*
X119055063Y-133969468D01*
X119429669Y-134069843D01*
X119429676Y-134069844D01*
X119812712Y-134130511D01*
X120199999Y-134150809D01*
X120200001Y-134150809D01*
X120587287Y-134130511D01*
X120970323Y-134069844D01*
X120970330Y-134069843D01*
X121344936Y-133969468D01*
X121706994Y-133830486D01*
X122052543Y-133654420D01*
X122377783Y-133443207D01*
X122377785Y-133443206D01*
X122635349Y-133234633D01*
X121140698Y-131739982D01*
X121242330Y-131666143D01*
X121420412Y-131488061D01*
X121494251Y-131386429D01*
X122988902Y-132881080D01*
X123197475Y-132623516D01*
X123197476Y-132623514D01*
X123408689Y-132298274D01*
X123584755Y-131952725D01*
X123723737Y-131590667D01*
X123824112Y-131216061D01*
X123824113Y-131216054D01*
X123884780Y-130833018D01*
X123905078Y-130445731D01*
X123905078Y-130445730D01*
X123884780Y-130058443D01*
X123824113Y-129675407D01*
X123824112Y-129675400D01*
X123728218Y-129317519D01*
X127013036Y-129317519D01*
X127013036Y-129323766D01*
X127930024Y-129323766D01*
X127897111Y-129380773D01*
X127863036Y-129507940D01*
X127863036Y-129639592D01*
X127897111Y-129766759D01*
X127930024Y-129823766D01*
X127013036Y-129823766D01*
X127013036Y-129830012D01*
X127046278Y-130039893D01*
X127046278Y-130039896D01*
X127111940Y-130241983D01*
X127208415Y-130431323D01*
X127333308Y-130603225D01*
X127333312Y-130603230D01*
X127483571Y-130753489D01*
X127483576Y-130753493D01*
X127655478Y-130878386D01*
X127844818Y-130974861D01*
X128046907Y-131040523D01*
X128113036Y-131050997D01*
X128113036Y-130006778D01*
X128170043Y-130039691D01*
X128297210Y-130073766D01*
X128428862Y-130073766D01*
X128556029Y-130039691D01*
X128613036Y-130006778D01*
X128613036Y-131050996D01*
X128679162Y-131040523D01*
X128679165Y-131040523D01*
X128881253Y-130974861D01*
X129070593Y-130878386D01*
X129242495Y-130753493D01*
X129242500Y-130753489D01*
X129392759Y-130603230D01*
X129392763Y-130603225D01*
X129499923Y-130455731D01*
X166664923Y-130455731D01*
X166664923Y-130455732D01*
X166685220Y-130843019D01*
X166745887Y-131226055D01*
X166745888Y-131226062D01*
X166846263Y-131600668D01*
X166985245Y-131962726D01*
X167161311Y-132308275D01*
X167372532Y-132633525D01*
X167581096Y-132891082D01*
X167581097Y-132891082D01*
X169075749Y-131396430D01*
X169149589Y-131498062D01*
X169327671Y-131676144D01*
X169429301Y-131749983D01*
X167934649Y-133244635D01*
X167934650Y-133244636D01*
X168192207Y-133453200D01*
X168517457Y-133664421D01*
X168863006Y-133840487D01*
X169225064Y-133979469D01*
X169599670Y-134079844D01*
X169599677Y-134079845D01*
X169982713Y-134140512D01*
X170370000Y-134160810D01*
X170370002Y-134160810D01*
X170757288Y-134140512D01*
X171140324Y-134079845D01*
X171140331Y-134079844D01*
X171514937Y-133979469D01*
X171876995Y-133840487D01*
X172222544Y-133664421D01*
X172547784Y-133453208D01*
X172547786Y-133453207D01*
X172805350Y-133244634D01*
X171310699Y-131749983D01*
X171412331Y-131676144D01*
X171590413Y-131498062D01*
X171664252Y-131396430D01*
X173158903Y-132891081D01*
X173367476Y-132633517D01*
X173367477Y-132633515D01*
X173578690Y-132308275D01*
X173754756Y-131962726D01*
X173893738Y-131600668D01*
X173994113Y-131226062D01*
X173994114Y-131226055D01*
X174054781Y-130843019D01*
X174075079Y-130455732D01*
X174075079Y-130455731D01*
X174054781Y-130068444D01*
X173994114Y-129685408D01*
X173994113Y-129685401D01*
X173893738Y-129310795D01*
X173754756Y-128948737D01*
X173578690Y-128603188D01*
X173367469Y-128277938D01*
X173158905Y-128020381D01*
X173158904Y-128020380D01*
X171664252Y-129515032D01*
X171590413Y-129413402D01*
X171412331Y-129235320D01*
X171310699Y-129161480D01*
X172805351Y-127666828D01*
X172805351Y-127666827D01*
X172547794Y-127458263D01*
X172222544Y-127247042D01*
X171876995Y-127070976D01*
X171514937Y-126931994D01*
X171140331Y-126831619D01*
X171140324Y-126831618D01*
X170757288Y-126770951D01*
X170370002Y-126750654D01*
X170370000Y-126750654D01*
X169982713Y-126770951D01*
X169599677Y-126831618D01*
X169599670Y-126831619D01*
X169225064Y-126931994D01*
X168863006Y-127070976D01*
X168517457Y-127247042D01*
X168192207Y-127458263D01*
X167934649Y-127666827D01*
X167934649Y-127666828D01*
X169429302Y-129161480D01*
X169327671Y-129235320D01*
X169149589Y-129413402D01*
X169075749Y-129515032D01*
X167581097Y-128020380D01*
X167581096Y-128020380D01*
X167372532Y-128277938D01*
X167161311Y-128603188D01*
X166985245Y-128948737D01*
X166846263Y-129310795D01*
X166745888Y-129685401D01*
X166745887Y-129685408D01*
X166685220Y-130068444D01*
X166664923Y-130455731D01*
X129499923Y-130455731D01*
X129517656Y-130431323D01*
X129614131Y-130241983D01*
X129679793Y-130039896D01*
X129679793Y-130039893D01*
X129713036Y-129830012D01*
X129713036Y-129823766D01*
X128796048Y-129823766D01*
X128828961Y-129766759D01*
X128863036Y-129639592D01*
X128863036Y-129507940D01*
X128828961Y-129380773D01*
X128796048Y-129323766D01*
X129713036Y-129323766D01*
X129713036Y-129317519D01*
X129679793Y-129107638D01*
X129679793Y-129107635D01*
X129614131Y-128905548D01*
X129517656Y-128716208D01*
X129392763Y-128544306D01*
X129392759Y-128544301D01*
X129242500Y-128394042D01*
X129242495Y-128394038D01*
X129070593Y-128269145D01*
X128881251Y-128172669D01*
X128679160Y-128107007D01*
X128613036Y-128096534D01*
X128613036Y-129140754D01*
X128556029Y-129107841D01*
X128428862Y-129073766D01*
X128297210Y-129073766D01*
X128170043Y-129107841D01*
X128113036Y-129140754D01*
X128113036Y-128096534D01*
X128113035Y-128096534D01*
X128046911Y-128107007D01*
X127844820Y-128172669D01*
X127655478Y-128269145D01*
X127483576Y-128394038D01*
X127483571Y-128394042D01*
X127333312Y-128544301D01*
X127333308Y-128544306D01*
X127208415Y-128716208D01*
X127111940Y-128905548D01*
X127046278Y-129107635D01*
X127046278Y-129107638D01*
X127013036Y-129317519D01*
X123728218Y-129317519D01*
X123723737Y-129300794D01*
X123584755Y-128938736D01*
X123408689Y-128593187D01*
X123197468Y-128267937D01*
X122988904Y-128010380D01*
X122988903Y-128010379D01*
X121494251Y-129505031D01*
X121420412Y-129403401D01*
X121242330Y-129225319D01*
X121140698Y-129151479D01*
X122635350Y-127656827D01*
X122635350Y-127656826D01*
X122377793Y-127448262D01*
X122052543Y-127237041D01*
X121706994Y-127060975D01*
X121344936Y-126921993D01*
X120970330Y-126821618D01*
X120970323Y-126821617D01*
X120587287Y-126760950D01*
X120200001Y-126740653D01*
X120199999Y-126740653D01*
X119812712Y-126760950D01*
X119429676Y-126821617D01*
X119429669Y-126821618D01*
X119055063Y-126921993D01*
X118693005Y-127060975D01*
X118347456Y-127237041D01*
X118022206Y-127448262D01*
X117764648Y-127656826D01*
X117764648Y-127656827D01*
X119259301Y-129151479D01*
X119157670Y-129225319D01*
X118979588Y-129403401D01*
X118905748Y-129505031D01*
X117411096Y-128010379D01*
X117411095Y-128010379D01*
X117202531Y-128267937D01*
X116991310Y-128593187D01*
X116815244Y-128938736D01*
X116676262Y-129300794D01*
X116575887Y-129675400D01*
X116575886Y-129675407D01*
X116515219Y-130058443D01*
X116494922Y-130445730D01*
X115520500Y-130445730D01*
X115520500Y-130421380D01*
X115520500Y-130407002D01*
X115520491Y-130406926D01*
X115520428Y-130081064D01*
X115517009Y-112468401D01*
X118110036Y-112468401D01*
X118110036Y-115164136D01*
X118110037Y-115164142D01*
X118116444Y-115223749D01*
X118166738Y-115358594D01*
X118166742Y-115358601D01*
X118252988Y-115473810D01*
X118252991Y-115473813D01*
X118368200Y-115560059D01*
X118368207Y-115560063D01*
X118503053Y-115610357D01*
X118503052Y-115610357D01*
X118509980Y-115611101D01*
X118562663Y-115616766D01*
X121258408Y-115616765D01*
X121318019Y-115610357D01*
X121452867Y-115560062D01*
X121568082Y-115473812D01*
X121654332Y-115358597D01*
X121704627Y-115223749D01*
X121711036Y-115164139D01*
X121711035Y-112468394D01*
X121704627Y-112408783D01*
X121654332Y-112273935D01*
X121654331Y-112273934D01*
X121654329Y-112273930D01*
X121568083Y-112158721D01*
X121568080Y-112158718D01*
X121452871Y-112072472D01*
X121452864Y-112072468D01*
X121318018Y-112022174D01*
X121318019Y-112022174D01*
X121258419Y-112015767D01*
X121258417Y-112015766D01*
X121258409Y-112015766D01*
X121258400Y-112015766D01*
X118562665Y-112015766D01*
X118562659Y-112015767D01*
X118503052Y-112022174D01*
X118368207Y-112072468D01*
X118368200Y-112072472D01*
X118252991Y-112158718D01*
X118252988Y-112158721D01*
X118166742Y-112273930D01*
X118166738Y-112273937D01*
X118116444Y-112408783D01*
X118110037Y-112468382D01*
X118110037Y-112468389D01*
X118110036Y-112468401D01*
X115517009Y-112468401D01*
X115516300Y-108816261D01*
X118105489Y-108816261D01*
X118105489Y-108816270D01*
X118125649Y-109085292D01*
X118125649Y-109085294D01*
X118185678Y-109348299D01*
X118185684Y-109348318D01*
X118284245Y-109599447D01*
X118284244Y-109599447D01*
X118419138Y-109833088D01*
X118472830Y-109900417D01*
X119309493Y-109063753D01*
X119334514Y-109124156D01*
X119405648Y-109230617D01*
X119496185Y-109321154D01*
X119602646Y-109392288D01*
X119663046Y-109417307D01*
X118825384Y-110254968D01*
X119008019Y-110379486D01*
X119008021Y-110379487D01*
X119251075Y-110496535D01*
X119251073Y-110496535D01*
X119508873Y-110576056D01*
X119508879Y-110576058D01*
X119775637Y-110616265D01*
X119775646Y-110616266D01*
X120045426Y-110616266D01*
X120045434Y-110616265D01*
X120312192Y-110576058D01*
X120312198Y-110576056D01*
X120569997Y-110496535D01*
X120813057Y-110379484D01*
X120995686Y-110254968D01*
X120158024Y-109417307D01*
X120218426Y-109392288D01*
X120324887Y-109321154D01*
X120415424Y-109230617D01*
X120486558Y-109124156D01*
X120511577Y-109063754D01*
X121348239Y-109900417D01*
X121348240Y-109900416D01*
X121401929Y-109833094D01*
X121401936Y-109833083D01*
X121536826Y-109599447D01*
X121635387Y-109348318D01*
X121635393Y-109348299D01*
X121695422Y-109085294D01*
X121695422Y-109085292D01*
X121696923Y-109065266D01*
X125675036Y-109065266D01*
X125675036Y-114242266D01*
X125675037Y-114242275D01*
X125686588Y-114349716D01*
X125686590Y-114349728D01*
X125697796Y-114401238D01*
X125731919Y-114503763D01*
X125731922Y-114503769D01*
X125809707Y-114624803D01*
X125809715Y-114624814D01*
X125855459Y-114677606D01*
X125855462Y-114677609D01*
X125855466Y-114677613D01*
X125964200Y-114771833D01*
X125964203Y-114771834D01*
X125964204Y-114771835D01*
X126058461Y-114814882D01*
X126095077Y-114831604D01*
X126162116Y-114851289D01*
X126162120Y-114851290D01*
X126304536Y-114871766D01*
X126304539Y-114871766D01*
X138856526Y-114871766D01*
X138856536Y-114871766D01*
X138963992Y-114860213D01*
X139015503Y-114849007D01*
X139049733Y-114837613D01*
X139118033Y-114814882D01*
X139118037Y-114814879D01*
X139118040Y-114814879D01*
X139239079Y-114737091D01*
X139291883Y-114691336D01*
X139386103Y-114582602D01*
X139445874Y-114451725D01*
X139465559Y-114384686D01*
X139465560Y-114384682D01*
X139486036Y-114242266D01*
X139486036Y-109065266D01*
X139474483Y-108957810D01*
X139463277Y-108906299D01*
X139454619Y-108880285D01*
X139429152Y-108803768D01*
X139429149Y-108803762D01*
X139351364Y-108682728D01*
X139351361Y-108682723D01*
X139351356Y-108682717D01*
X139305612Y-108629925D01*
X139305608Y-108629922D01*
X139305606Y-108629919D01*
X139196872Y-108535699D01*
X139196869Y-108535697D01*
X139196867Y-108535696D01*
X139066001Y-108475930D01*
X139065996Y-108475928D01*
X139065995Y-108475928D01*
X138998956Y-108456243D01*
X138998958Y-108456243D01*
X138998953Y-108456242D01*
X138936883Y-108447318D01*
X138856536Y-108435766D01*
X126304536Y-108435766D01*
X126304527Y-108435766D01*
X126304526Y-108435767D01*
X126197085Y-108447318D01*
X126197073Y-108447320D01*
X126145563Y-108458526D01*
X126043038Y-108492649D01*
X126043032Y-108492652D01*
X125921998Y-108570437D01*
X125921987Y-108570445D01*
X125869195Y-108616189D01*
X125774969Y-108724930D01*
X125774966Y-108724934D01*
X125715200Y-108855800D01*
X125695512Y-108922848D01*
X125690485Y-108957815D01*
X125675036Y-109065266D01*
X121696923Y-109065266D01*
X121715583Y-108816270D01*
X121715583Y-108816261D01*
X121695422Y-108547239D01*
X121695422Y-108547237D01*
X121635393Y-108284232D01*
X121635387Y-108284213D01*
X121536826Y-108033084D01*
X121536827Y-108033084D01*
X121401933Y-107799443D01*
X121348240Y-107732113D01*
X120511577Y-108568776D01*
X120486558Y-108508376D01*
X120415424Y-108401915D01*
X120324887Y-108311378D01*
X120218426Y-108240244D01*
X120158024Y-108215224D01*
X120995686Y-107377562D01*
X120813053Y-107253045D01*
X120813052Y-107253044D01*
X120569996Y-107135996D01*
X120569998Y-107135996D01*
X120312198Y-107056475D01*
X120312192Y-107056473D01*
X120045434Y-107016266D01*
X119775637Y-107016266D01*
X119508879Y-107056473D01*
X119508873Y-107056475D01*
X119251074Y-107135996D01*
X119008021Y-107253044D01*
X119008012Y-107253049D01*
X118825384Y-107377562D01*
X119663047Y-108215224D01*
X119602646Y-108240244D01*
X119496185Y-108311378D01*
X119405648Y-108401915D01*
X119334514Y-108508376D01*
X119309494Y-108568777D01*
X118472831Y-107732114D01*
X118419136Y-107799446D01*
X118284245Y-108033084D01*
X118185684Y-108284213D01*
X118185678Y-108284232D01*
X118125649Y-108547237D01*
X118125649Y-108547239D01*
X118105489Y-108816261D01*
X115516300Y-108816261D01*
X115515897Y-106741262D01*
X166149971Y-106741262D01*
X166149971Y-106741269D01*
X166170166Y-106920515D01*
X166170167Y-106920520D01*
X166229747Y-107090789D01*
X166258153Y-107135996D01*
X166325720Y-107243528D01*
X166453274Y-107371082D01*
X166606014Y-107467055D01*
X166776281Y-107526634D01*
X166776286Y-107526635D01*
X166955532Y-107546831D01*
X166955536Y-107546831D01*
X166955540Y-107546831D01*
X167134785Y-107526635D01*
X167134788Y-107526634D01*
X167134791Y-107526634D01*
X167305058Y-107467055D01*
X167457798Y-107371082D01*
X167585352Y-107243528D01*
X167681325Y-107090788D01*
X167740904Y-106920521D01*
X167761101Y-106741266D01*
X167740904Y-106562011D01*
X167681325Y-106391744D01*
X167585352Y-106239004D01*
X167457798Y-106111450D01*
X167305059Y-106015477D01*
X167134790Y-105955897D01*
X167134785Y-105955896D01*
X166955540Y-105935701D01*
X166955532Y-105935701D01*
X166776286Y-105955896D01*
X166776281Y-105955897D01*
X166606012Y-106015477D01*
X166453273Y-106111450D01*
X166325720Y-106239003D01*
X166229747Y-106391742D01*
X166170167Y-106562011D01*
X166170166Y-106562016D01*
X166149971Y-106741262D01*
X115515897Y-106741262D01*
X115514813Y-101156265D01*
X116949877Y-101156265D01*
X116949877Y-101156266D01*
X116970472Y-101391669D01*
X116970474Y-101391679D01*
X117031630Y-101619921D01*
X117031632Y-101619925D01*
X117031633Y-101619929D01*
X117072603Y-101707789D01*
X117131501Y-101834096D01*
X117131503Y-101834100D01*
X117237988Y-101986175D01*
X117267037Y-102027662D01*
X117267042Y-102027668D01*
X117388966Y-102149592D01*
X117422451Y-102210915D01*
X117417467Y-102280607D01*
X117375595Y-102336540D01*
X117344619Y-102353455D01*
X117213205Y-102402469D01*
X117213200Y-102402472D01*
X117097991Y-102488718D01*
X117097988Y-102488721D01*
X117011742Y-102603930D01*
X117011738Y-102603937D01*
X116961444Y-102738783D01*
X116955037Y-102798382D01*
X116955037Y-102798389D01*
X116955036Y-102798401D01*
X116955036Y-104594136D01*
X116955037Y-104594142D01*
X116961444Y-104653749D01*
X117011738Y-104788594D01*
X117011742Y-104788601D01*
X117097988Y-104903810D01*
X117097991Y-104903813D01*
X117213200Y-104990059D01*
X117213207Y-104990063D01*
X117348053Y-105040357D01*
X117348052Y-105040357D01*
X117354980Y-105041101D01*
X117407663Y-105046766D01*
X119203408Y-105046765D01*
X119263019Y-105040357D01*
X119397867Y-104990062D01*
X119513082Y-104903812D01*
X119599332Y-104788597D01*
X119649627Y-104653749D01*
X119656036Y-104594139D01*
X119656035Y-102798394D01*
X119649627Y-102738783D01*
X119641227Y-102716262D01*
X145399910Y-102716262D01*
X145399910Y-102716269D01*
X145418213Y-102878721D01*
X145472211Y-103033040D01*
X145472212Y-103033041D01*
X145559193Y-103171470D01*
X145674797Y-103287074D01*
X145813226Y-103374055D01*
X145967540Y-103428052D01*
X145967543Y-103428052D01*
X145967545Y-103428053D01*
X146129997Y-103446357D01*
X146130001Y-103446357D01*
X146130005Y-103446357D01*
X146292456Y-103428053D01*
X146292457Y-103428052D01*
X146292462Y-103428052D01*
X146446776Y-103374055D01*
X146585205Y-103287074D01*
X146700809Y-103171470D01*
X146787790Y-103033041D01*
X146841787Y-102878727D01*
X146850838Y-102798401D01*
X146860092Y-102716269D01*
X146860092Y-102716262D01*
X146841788Y-102553810D01*
X146841787Y-102553808D01*
X146841787Y-102553805D01*
X146787790Y-102399491D01*
X146700809Y-102261062D01*
X146585205Y-102145458D01*
X146449200Y-102060000D01*
X146449194Y-102059996D01*
X152695445Y-102059996D01*
X152695445Y-102060003D01*
X152713748Y-102222455D01*
X152767746Y-102376774D01*
X152838086Y-102488718D01*
X152854728Y-102515204D01*
X152970332Y-102630808D01*
X153108761Y-102717789D01*
X153263075Y-102771786D01*
X153263078Y-102771786D01*
X153263080Y-102771787D01*
X153425532Y-102790091D01*
X153425536Y-102790091D01*
X153425540Y-102790091D01*
X153587991Y-102771787D01*
X153587992Y-102771786D01*
X153587997Y-102771786D01*
X153742311Y-102717789D01*
X153880740Y-102630808D01*
X153996344Y-102515204D01*
X154083325Y-102376775D01*
X154137322Y-102222461D01*
X154142349Y-102177846D01*
X154155627Y-102060003D01*
X154155627Y-102059996D01*
X154137323Y-101897544D01*
X154137322Y-101897542D01*
X154137322Y-101897539D01*
X154083325Y-101743225D01*
X153996344Y-101604796D01*
X153880740Y-101489192D01*
X153806688Y-101442662D01*
X153742310Y-101402210D01*
X153587991Y-101348212D01*
X153425540Y-101329909D01*
X153425532Y-101329909D01*
X153263080Y-101348212D01*
X153108761Y-101402210D01*
X152970331Y-101489192D01*
X152854728Y-101604795D01*
X152767746Y-101743225D01*
X152713748Y-101897544D01*
X152695445Y-102059996D01*
X146449194Y-102059996D01*
X146446775Y-102058476D01*
X146292456Y-102004478D01*
X146130005Y-101986175D01*
X146129997Y-101986175D01*
X145967545Y-102004478D01*
X145813226Y-102058476D01*
X145674796Y-102145458D01*
X145559193Y-102261061D01*
X145472211Y-102399491D01*
X145418213Y-102553810D01*
X145399910Y-102716262D01*
X119641227Y-102716262D01*
X119599333Y-102603937D01*
X119599329Y-102603930D01*
X119513083Y-102488721D01*
X119513080Y-102488718D01*
X119397871Y-102402472D01*
X119397864Y-102402468D01*
X119266453Y-102353455D01*
X119210519Y-102311584D01*
X119186102Y-102246119D01*
X119200954Y-102177846D01*
X119222099Y-102149598D01*
X119344031Y-102027667D01*
X119479571Y-101834096D01*
X119579439Y-101619929D01*
X119640599Y-101391674D01*
X119661195Y-101156266D01*
X119651897Y-101049996D01*
X124999910Y-101049996D01*
X124999910Y-101050003D01*
X125018213Y-101212455D01*
X125072211Y-101366774D01*
X125072212Y-101366775D01*
X125159193Y-101505204D01*
X125274797Y-101620808D01*
X125413226Y-101707789D01*
X125567540Y-101761786D01*
X125567543Y-101761786D01*
X125567545Y-101761787D01*
X125729997Y-101780091D01*
X125730001Y-101780091D01*
X125730005Y-101780091D01*
X125892456Y-101761787D01*
X125892457Y-101761786D01*
X125892462Y-101761786D01*
X126046776Y-101707789D01*
X126185205Y-101620808D01*
X126300809Y-101505204D01*
X126387790Y-101366775D01*
X126441787Y-101212461D01*
X126452244Y-101119654D01*
X126460092Y-101050003D01*
X126460092Y-101049996D01*
X126447743Y-100940396D01*
X134335636Y-100940396D01*
X134335636Y-100940403D01*
X134355831Y-101119649D01*
X134355832Y-101119654D01*
X134415412Y-101289923D01*
X134452038Y-101348212D01*
X134511385Y-101442662D01*
X134638939Y-101570216D01*
X134791679Y-101666189D01*
X134910565Y-101707789D01*
X134961946Y-101725768D01*
X134961951Y-101725769D01*
X135141197Y-101745965D01*
X135141201Y-101745965D01*
X135141205Y-101745965D01*
X135320450Y-101725769D01*
X135320453Y-101725768D01*
X135320456Y-101725768D01*
X135490723Y-101666189D01*
X135643463Y-101570216D01*
X135771017Y-101442662D01*
X135866990Y-101289922D01*
X135926569Y-101119655D01*
X135946766Y-100940400D01*
X135944564Y-100920858D01*
X135926570Y-100761150D01*
X135926569Y-100761145D01*
X135916799Y-100733225D01*
X135866990Y-100590878D01*
X135771017Y-100438138D01*
X135643463Y-100310584D01*
X135628958Y-100301470D01*
X135490724Y-100214611D01*
X135320455Y-100155031D01*
X135320450Y-100155030D01*
X135141205Y-100134835D01*
X135141197Y-100134835D01*
X134961951Y-100155030D01*
X134961946Y-100155031D01*
X134791677Y-100214611D01*
X134638938Y-100310584D01*
X134511385Y-100438137D01*
X134415412Y-100590876D01*
X134355832Y-100761145D01*
X134355831Y-100761150D01*
X134335636Y-100940396D01*
X126447743Y-100940396D01*
X126441788Y-100887544D01*
X126441787Y-100887542D01*
X126441787Y-100887539D01*
X126387790Y-100733225D01*
X126300809Y-100594796D01*
X126185205Y-100479192D01*
X126119867Y-100438137D01*
X126046775Y-100392210D01*
X125892456Y-100338212D01*
X125730005Y-100319909D01*
X125729997Y-100319909D01*
X125567545Y-100338212D01*
X125413226Y-100392210D01*
X125274796Y-100479192D01*
X125159193Y-100594795D01*
X125072211Y-100733225D01*
X125018213Y-100887544D01*
X124999910Y-101049996D01*
X119651897Y-101049996D01*
X119640599Y-100920858D01*
X119594162Y-100747551D01*
X119579441Y-100692610D01*
X119579440Y-100692609D01*
X119579439Y-100692603D01*
X119479571Y-100478437D01*
X119451354Y-100438138D01*
X119344030Y-100284863D01*
X119176938Y-100117772D01*
X119176937Y-100117771D01*
X118990941Y-99987535D01*
X118947317Y-99932958D01*
X118940124Y-99863459D01*
X118971646Y-99801105D01*
X118990941Y-99784385D01*
X119176618Y-99654371D01*
X119343641Y-99487348D01*
X119479136Y-99293844D01*
X119538628Y-99166262D01*
X136475445Y-99166262D01*
X136475445Y-99166269D01*
X136493748Y-99328721D01*
X136547746Y-99483040D01*
X136613076Y-99587011D01*
X136634728Y-99621470D01*
X136750332Y-99737074D01*
X136888761Y-99824055D01*
X137043075Y-99878052D01*
X137043078Y-99878052D01*
X137043080Y-99878053D01*
X137205532Y-99896357D01*
X137205536Y-99896357D01*
X137205540Y-99896357D01*
X137367991Y-99878053D01*
X137367992Y-99878052D01*
X137367997Y-99878052D01*
X137522311Y-99824055D01*
X137614288Y-99766262D01*
X143276436Y-99766262D01*
X143276436Y-99766269D01*
X143296631Y-99945515D01*
X143296632Y-99945520D01*
X143356212Y-100115789D01*
X143426752Y-100228052D01*
X143452185Y-100268528D01*
X143579739Y-100396082D01*
X143613146Y-100417073D01*
X143712007Y-100479192D01*
X143732479Y-100492055D01*
X143902746Y-100551634D01*
X143902751Y-100551635D01*
X144081997Y-100571831D01*
X144082001Y-100571831D01*
X144082005Y-100571831D01*
X144261250Y-100551635D01*
X144261253Y-100551634D01*
X144261256Y-100551634D01*
X144431523Y-100492055D01*
X144584263Y-100396082D01*
X144711817Y-100268528D01*
X144807790Y-100115788D01*
X144867369Y-99945521D01*
X144867370Y-99945515D01*
X144879822Y-99834996D01*
X146859436Y-99834996D01*
X146859436Y-99835003D01*
X146879631Y-100014249D01*
X146879632Y-100014254D01*
X146939212Y-100184523D01*
X147002260Y-100284863D01*
X147035185Y-100337262D01*
X147162739Y-100464816D01*
X147253081Y-100521582D01*
X147311124Y-100558053D01*
X147315479Y-100560789D01*
X147485746Y-100620368D01*
X147485751Y-100620369D01*
X147664997Y-100640565D01*
X147665001Y-100640565D01*
X147665005Y-100640565D01*
X147844250Y-100620369D01*
X147844253Y-100620368D01*
X147844256Y-100620368D01*
X148014523Y-100560789D01*
X148018878Y-100558053D01*
X148033798Y-100548677D01*
X148118049Y-100495739D01*
X148185282Y-100476739D01*
X148249992Y-100495740D01*
X148263224Y-100504054D01*
X148263226Y-100504055D01*
X148417540Y-100558052D01*
X148417543Y-100558052D01*
X148417545Y-100558053D01*
X148579997Y-100576357D01*
X148580001Y-100576357D01*
X148580005Y-100576357D01*
X148742456Y-100558053D01*
X148742457Y-100558052D01*
X148742462Y-100558052D01*
X148896776Y-100504055D01*
X149035205Y-100417074D01*
X149150809Y-100301470D01*
X149237790Y-100163041D01*
X149291787Y-100008727D01*
X149294175Y-99987535D01*
X149310092Y-99846269D01*
X149310092Y-99846262D01*
X149291788Y-99683810D01*
X149291787Y-99683808D01*
X149291787Y-99683805D01*
X149237790Y-99529491D01*
X149229478Y-99516262D01*
X151519910Y-99516262D01*
X151519910Y-99516269D01*
X151538213Y-99678721D01*
X151592211Y-99833040D01*
X151611325Y-99863459D01*
X151679193Y-99971470D01*
X151794797Y-100087074D01*
X151933226Y-100174055D01*
X152087540Y-100228052D01*
X152087543Y-100228052D01*
X152087545Y-100228053D01*
X152249997Y-100246357D01*
X152250001Y-100246357D01*
X152250005Y-100246357D01*
X152412456Y-100228053D01*
X152412457Y-100228052D01*
X152412462Y-100228052D01*
X152566776Y-100174055D01*
X152705205Y-100087074D01*
X152820809Y-99971470D01*
X152907790Y-99833041D01*
X152919640Y-99799175D01*
X152960360Y-99742398D01*
X152995726Y-99723085D01*
X153082311Y-99692789D01*
X153220740Y-99605808D01*
X153336344Y-99490204D01*
X153423325Y-99351775D01*
X153467144Y-99226547D01*
X153507865Y-99169773D01*
X153518205Y-99162514D01*
X153591106Y-99116708D01*
X153706710Y-99001104D01*
X153793691Y-98862675D01*
X153814999Y-98801777D01*
X153855719Y-98745001D01*
X153867114Y-98737929D01*
X153866779Y-98737395D01*
X153872674Y-98733690D01*
X153872676Y-98733690D01*
X154011105Y-98646709D01*
X154126709Y-98531105D01*
X154213690Y-98392676D01*
X154267687Y-98238362D01*
X154277643Y-98150000D01*
X154277643Y-98149996D01*
X156819910Y-98149996D01*
X156819910Y-98150003D01*
X156838213Y-98312455D01*
X156892211Y-98466774D01*
X156918415Y-98508477D01*
X156979193Y-98605204D01*
X157094797Y-98720808D01*
X157233226Y-98807789D01*
X157387540Y-98861786D01*
X157387543Y-98861786D01*
X157387545Y-98861787D01*
X157549997Y-98880091D01*
X157550001Y-98880091D01*
X157550005Y-98880091D01*
X157712456Y-98861787D01*
X157712457Y-98861786D01*
X157712462Y-98861786D01*
X157866776Y-98807789D01*
X158005205Y-98720808D01*
X158120809Y-98605204D01*
X158207790Y-98466775D01*
X158256958Y-98326262D01*
X170059910Y-98326262D01*
X170059910Y-98326269D01*
X170078213Y-98488721D01*
X170078214Y-98488726D01*
X170078215Y-98488727D01*
X170085126Y-98508477D01*
X170132211Y-98643040D01*
X170179453Y-98718225D01*
X170219193Y-98781470D01*
X170334797Y-98897074D01*
X170473226Y-98984055D01*
X170627540Y-99038052D01*
X170627543Y-99038052D01*
X170627545Y-99038053D01*
X170789997Y-99056357D01*
X170790001Y-99056357D01*
X170790005Y-99056357D01*
X170952456Y-99038053D01*
X170952457Y-99038052D01*
X170952462Y-99038052D01*
X171106776Y-98984055D01*
X171245205Y-98897074D01*
X171360809Y-98781470D01*
X171447790Y-98643041D01*
X171501787Y-98488727D01*
X171501788Y-98488721D01*
X171520092Y-98326269D01*
X171520092Y-98326262D01*
X171501788Y-98163810D01*
X171501787Y-98163808D01*
X171501787Y-98163805D01*
X171447790Y-98009491D01*
X171360809Y-97871062D01*
X171245205Y-97755458D01*
X171228857Y-97745186D01*
X171106775Y-97668476D01*
X170952456Y-97614478D01*
X170790005Y-97596175D01*
X170789997Y-97596175D01*
X170627545Y-97614478D01*
X170473226Y-97668476D01*
X170334796Y-97755458D01*
X170219193Y-97871061D01*
X170132211Y-98009491D01*
X170078213Y-98163810D01*
X170059910Y-98326262D01*
X158256958Y-98326262D01*
X158261787Y-98312461D01*
X158280092Y-98150000D01*
X158276291Y-98116266D01*
X158261788Y-97987544D01*
X158261787Y-97987542D01*
X158261787Y-97987539D01*
X158207790Y-97833225D01*
X158120809Y-97694796D01*
X158005205Y-97579192D01*
X157887278Y-97505093D01*
X157866775Y-97492210D01*
X157712456Y-97438212D01*
X157550005Y-97419909D01*
X157549997Y-97419909D01*
X157387545Y-97438212D01*
X157233226Y-97492210D01*
X157094796Y-97579192D01*
X156979193Y-97694795D01*
X156892211Y-97833225D01*
X156838213Y-97987544D01*
X156819910Y-98149996D01*
X154277643Y-98149996D01*
X154285992Y-98075904D01*
X154285992Y-98075897D01*
X154267688Y-97913445D01*
X154267687Y-97913443D01*
X154267687Y-97913440D01*
X154213690Y-97759126D01*
X154126709Y-97620697D01*
X154011105Y-97505093D01*
X153872675Y-97418111D01*
X153718356Y-97364113D01*
X153555905Y-97345810D01*
X153555897Y-97345810D01*
X153393445Y-97364113D01*
X153239126Y-97418111D01*
X153100696Y-97505093D01*
X152985093Y-97620696D01*
X152898113Y-97759123D01*
X152898112Y-97759124D01*
X152876801Y-97820027D01*
X152836078Y-97876803D01*
X152824692Y-97883881D01*
X152825023Y-97884407D01*
X152819129Y-97888110D01*
X152819127Y-97888111D01*
X152748210Y-97932670D01*
X152680697Y-97975092D01*
X152565094Y-98090695D01*
X152478110Y-98229127D01*
X152434293Y-98354350D01*
X152393571Y-98411126D01*
X152383226Y-98418387D01*
X152310336Y-98464188D01*
X152310329Y-98464194D01*
X152194728Y-98579795D01*
X152107748Y-98718222D01*
X152095895Y-98752095D01*
X152055172Y-98808870D01*
X152019810Y-98828179D01*
X151933224Y-98858477D01*
X151933223Y-98858478D01*
X151794796Y-98945458D01*
X151679193Y-99061061D01*
X151592211Y-99199491D01*
X151538213Y-99353810D01*
X151519910Y-99516262D01*
X149229478Y-99516262D01*
X149150809Y-99391062D01*
X149035205Y-99275458D01*
X149016975Y-99264003D01*
X148896775Y-99188476D01*
X148742456Y-99134478D01*
X148580005Y-99116175D01*
X148579997Y-99116175D01*
X148417545Y-99134478D01*
X148263230Y-99188475D01*
X148256959Y-99191496D01*
X148255748Y-99188983D01*
X148200592Y-99204525D01*
X148135978Y-99185526D01*
X148014524Y-99109211D01*
X147844255Y-99049631D01*
X147844250Y-99049630D01*
X147665005Y-99029435D01*
X147664997Y-99029435D01*
X147485751Y-99049630D01*
X147485746Y-99049631D01*
X147315477Y-99109211D01*
X147162738Y-99205184D01*
X147035185Y-99332737D01*
X146939212Y-99485476D01*
X146879632Y-99655745D01*
X146879631Y-99655750D01*
X146859436Y-99834996D01*
X144879822Y-99834996D01*
X144887566Y-99766269D01*
X144887566Y-99766262D01*
X144867370Y-99587016D01*
X144867369Y-99587011D01*
X144807789Y-99416742D01*
X144752481Y-99328721D01*
X144711817Y-99264004D01*
X144584263Y-99136450D01*
X144552842Y-99116707D01*
X144431524Y-99040477D01*
X144261255Y-98980897D01*
X144261250Y-98980896D01*
X144082005Y-98960701D01*
X144081997Y-98960701D01*
X143902751Y-98980896D01*
X143902746Y-98980897D01*
X143732477Y-99040477D01*
X143579738Y-99136450D01*
X143452185Y-99264003D01*
X143356212Y-99416742D01*
X143296632Y-99587011D01*
X143296631Y-99587016D01*
X143276436Y-99766262D01*
X137614288Y-99766262D01*
X137660740Y-99737074D01*
X137776344Y-99621470D01*
X137863325Y-99483041D01*
X137917322Y-99328727D01*
X137917323Y-99328721D01*
X137935627Y-99166269D01*
X137935627Y-99166262D01*
X137917323Y-99003810D01*
X137917322Y-99003808D01*
X137917322Y-99003805D01*
X137863325Y-98849491D01*
X137776344Y-98711062D01*
X137660740Y-98595458D01*
X137589095Y-98550440D01*
X137522310Y-98508476D01*
X137367991Y-98454478D01*
X137205540Y-98436175D01*
X137205532Y-98436175D01*
X137043080Y-98454478D01*
X136888761Y-98508476D01*
X136750331Y-98595458D01*
X136634728Y-98711061D01*
X136547746Y-98849491D01*
X136493748Y-99003810D01*
X136475445Y-99166262D01*
X119538628Y-99166262D01*
X119578965Y-99079758D01*
X119578968Y-99079752D01*
X119636172Y-98866266D01*
X118738548Y-98866266D01*
X118771461Y-98809259D01*
X118805536Y-98682092D01*
X118805536Y-98550440D01*
X118771461Y-98423273D01*
X118738548Y-98366266D01*
X119636172Y-98366266D01*
X119636171Y-98366265D01*
X119578968Y-98152779D01*
X119578965Y-98152773D01*
X119479136Y-97938688D01*
X119479135Y-97938686D01*
X119343649Y-97745192D01*
X119343644Y-97745186D01*
X119176618Y-97578160D01*
X118983114Y-97442665D01*
X118769028Y-97342836D01*
X118769022Y-97342833D01*
X118555536Y-97285630D01*
X118555536Y-98183254D01*
X118498529Y-98150341D01*
X118371362Y-98116266D01*
X118239710Y-98116266D01*
X118112543Y-98150341D01*
X118055536Y-98183254D01*
X118055536Y-97285630D01*
X118055535Y-97285630D01*
X117842049Y-97342833D01*
X117842043Y-97342836D01*
X117627958Y-97442665D01*
X117627956Y-97442666D01*
X117434462Y-97578152D01*
X117434456Y-97578157D01*
X117267427Y-97745186D01*
X117267422Y-97745192D01*
X117131936Y-97938686D01*
X117131935Y-97938688D01*
X117032106Y-98152773D01*
X117032103Y-98152779D01*
X116974900Y-98366265D01*
X116974900Y-98366266D01*
X117872524Y-98366266D01*
X117839611Y-98423273D01*
X117805536Y-98550440D01*
X117805536Y-98682092D01*
X117839611Y-98809259D01*
X117872524Y-98866266D01*
X116974900Y-98866266D01*
X117032103Y-99079752D01*
X117032106Y-99079758D01*
X117131935Y-99293844D01*
X117267430Y-99487348D01*
X117434453Y-99654371D01*
X117620131Y-99784385D01*
X117663755Y-99838962D01*
X117670948Y-99908461D01*
X117639426Y-99970815D01*
X117620131Y-99987535D01*
X117434130Y-100117774D01*
X117267041Y-100284863D01*
X117131501Y-100478435D01*
X117131500Y-100478437D01*
X117031634Y-100692601D01*
X117031630Y-100692610D01*
X116970474Y-100920852D01*
X116970472Y-100920862D01*
X116949877Y-101156265D01*
X115514813Y-101156265D01*
X115513915Y-96529996D01*
X133649910Y-96529996D01*
X133649910Y-96530003D01*
X133668213Y-96692455D01*
X133722211Y-96846774D01*
X133740641Y-96876105D01*
X133809193Y-96985204D01*
X133924797Y-97100808D01*
X134063226Y-97187789D01*
X134217540Y-97241786D01*
X134217543Y-97241786D01*
X134217545Y-97241787D01*
X134379997Y-97260091D01*
X134380001Y-97260091D01*
X134380005Y-97260091D01*
X134542456Y-97241787D01*
X134542457Y-97241786D01*
X134542462Y-97241786D01*
X134696776Y-97187789D01*
X134762866Y-97146262D01*
X137275445Y-97146262D01*
X137275445Y-97146269D01*
X137293748Y-97308721D01*
X137347746Y-97463040D01*
X137374170Y-97505093D01*
X137434728Y-97601470D01*
X137550332Y-97717074D01*
X137688761Y-97804055D01*
X137843075Y-97858052D01*
X137843078Y-97858052D01*
X137843080Y-97858053D01*
X138005532Y-97876357D01*
X138005536Y-97876357D01*
X138005540Y-97876357D01*
X138167991Y-97858053D01*
X138167992Y-97858052D01*
X138167997Y-97858052D01*
X138322311Y-97804055D01*
X138460740Y-97717074D01*
X138533130Y-97644682D01*
X138594452Y-97611197D01*
X138606897Y-97609147D01*
X138719600Y-97596449D01*
X138873914Y-97542452D01*
X139012343Y-97455471D01*
X139127947Y-97339867D01*
X139214928Y-97201438D01*
X139240787Y-97127533D01*
X139281508Y-97070759D01*
X139291843Y-97063504D01*
X139406105Y-96991709D01*
X139521709Y-96876105D01*
X139559352Y-96816195D01*
X139611685Y-96769906D01*
X139680739Y-96759257D01*
X139705292Y-96765125D01*
X139789675Y-96794652D01*
X139789681Y-96794652D01*
X139789682Y-96794653D01*
X139952132Y-96812957D01*
X139952136Y-96812957D01*
X139952140Y-96812957D01*
X140114591Y-96794653D01*
X140114592Y-96794652D01*
X140114597Y-96794652D01*
X140268911Y-96740655D01*
X140407340Y-96653674D01*
X140522944Y-96538070D01*
X140609925Y-96399641D01*
X140611235Y-96395897D01*
X156915810Y-96395897D01*
X156915810Y-96395904D01*
X156934113Y-96558356D01*
X156988111Y-96712675D01*
X157005692Y-96740655D01*
X157075093Y-96851105D01*
X157190697Y-96966709D01*
X157329126Y-97053690D01*
X157483440Y-97107687D01*
X157483443Y-97107687D01*
X157483445Y-97107688D01*
X157645897Y-97125992D01*
X157645901Y-97125992D01*
X157645905Y-97125992D01*
X157808356Y-97107688D01*
X157808357Y-97107687D01*
X157808362Y-97107687D01*
X157962676Y-97053690D01*
X158101105Y-96966709D01*
X158216709Y-96851105D01*
X158303690Y-96712676D01*
X158357687Y-96558362D01*
X158358002Y-96555570D01*
X158375992Y-96395904D01*
X158375992Y-96395897D01*
X158357688Y-96233445D01*
X158357687Y-96233443D01*
X158357687Y-96233440D01*
X158311121Y-96100362D01*
X170029545Y-96100362D01*
X170029545Y-96100369D01*
X170047848Y-96262821D01*
X170101846Y-96417140D01*
X170172759Y-96529996D01*
X170188828Y-96555570D01*
X170304432Y-96671174D01*
X170442861Y-96758155D01*
X170597175Y-96812152D01*
X170597178Y-96812152D01*
X170597180Y-96812153D01*
X170759632Y-96830457D01*
X170759636Y-96830457D01*
X170759640Y-96830457D01*
X170922091Y-96812153D01*
X170922092Y-96812152D01*
X170922097Y-96812152D01*
X171076411Y-96758155D01*
X171214840Y-96671174D01*
X171330444Y-96555570D01*
X171417425Y-96417141D01*
X171471422Y-96262827D01*
X171473394Y-96245327D01*
X171489727Y-96100369D01*
X171489727Y-96100362D01*
X171471423Y-95937910D01*
X171471422Y-95937908D01*
X171471422Y-95937905D01*
X171417425Y-95783591D01*
X171330444Y-95645162D01*
X171214840Y-95529558D01*
X171144447Y-95485327D01*
X171076410Y-95442576D01*
X170922091Y-95388578D01*
X170759640Y-95370275D01*
X170759632Y-95370275D01*
X170597180Y-95388578D01*
X170442861Y-95442576D01*
X170304431Y-95529558D01*
X170188828Y-95645161D01*
X170101846Y-95783591D01*
X170047848Y-95937910D01*
X170029545Y-96100362D01*
X158311121Y-96100362D01*
X158303690Y-96079126D01*
X158216709Y-95940697D01*
X158101105Y-95825093D01*
X158025180Y-95777386D01*
X157962675Y-95738111D01*
X157808356Y-95684113D01*
X157645905Y-95665810D01*
X157645897Y-95665810D01*
X157483445Y-95684113D01*
X157329126Y-95738111D01*
X157190696Y-95825093D01*
X157075093Y-95940696D01*
X156988111Y-96079126D01*
X156934113Y-96233445D01*
X156915810Y-96395897D01*
X140611235Y-96395897D01*
X140663922Y-96245327D01*
X140663923Y-96245321D01*
X140682227Y-96082869D01*
X140682227Y-96082862D01*
X140663923Y-95920410D01*
X140663922Y-95920408D01*
X140663922Y-95920405D01*
X140609925Y-95766091D01*
X140522944Y-95627662D01*
X140407340Y-95512058D01*
X140364798Y-95485327D01*
X140268910Y-95425076D01*
X140114591Y-95371078D01*
X139952140Y-95352775D01*
X139952132Y-95352775D01*
X139789680Y-95371078D01*
X139635361Y-95425076D01*
X139496931Y-95512058D01*
X139381328Y-95627661D01*
X139381326Y-95627664D01*
X139343684Y-95687570D01*
X139291349Y-95733861D01*
X139222295Y-95744508D01*
X139197737Y-95738639D01*
X139113356Y-95709113D01*
X138950905Y-95690810D01*
X138950897Y-95690810D01*
X138788445Y-95709113D01*
X138634126Y-95763111D01*
X138495696Y-95850093D01*
X138380093Y-95965696D01*
X138293113Y-96104123D01*
X138293112Y-96104124D01*
X138267251Y-96178030D01*
X138226529Y-96234806D01*
X138216183Y-96242067D01*
X138101935Y-96313854D01*
X138029543Y-96386246D01*
X137968219Y-96419730D01*
X137955746Y-96421784D01*
X137843080Y-96434478D01*
X137688761Y-96488476D01*
X137550331Y-96575458D01*
X137434728Y-96691061D01*
X137347746Y-96829491D01*
X137293748Y-96983810D01*
X137275445Y-97146262D01*
X134762866Y-97146262D01*
X134835205Y-97100808D01*
X134950809Y-96985204D01*
X135037790Y-96846775D01*
X135091787Y-96692461D01*
X135091945Y-96691061D01*
X135110092Y-96530003D01*
X135110092Y-96529996D01*
X135091788Y-96367544D01*
X135091787Y-96367542D01*
X135091787Y-96367539D01*
X135037790Y-96213225D01*
X134950809Y-96074796D01*
X134835205Y-95959192D01*
X134696775Y-95872210D01*
X134542456Y-95818212D01*
X134380005Y-95799909D01*
X134379997Y-95799909D01*
X134217545Y-95818212D01*
X134063226Y-95872210D01*
X133924796Y-95959192D01*
X133809193Y-96074795D01*
X133722211Y-96213225D01*
X133668213Y-96367544D01*
X133649910Y-96529996D01*
X115513915Y-96529996D01*
X115512951Y-91566265D01*
X116994342Y-91566265D01*
X116994342Y-91566266D01*
X117014937Y-91801669D01*
X117014939Y-91801679D01*
X117076095Y-92029921D01*
X117076097Y-92029925D01*
X117076098Y-92029929D01*
X117109804Y-92102211D01*
X117175966Y-92244096D01*
X117175968Y-92244100D01*
X117284282Y-92398787D01*
X117301384Y-92423212D01*
X117311502Y-92437661D01*
X117311507Y-92437668D01*
X117478598Y-92604759D01*
X117478604Y-92604764D01*
X117664595Y-92734996D01*
X117708220Y-92789573D01*
X117715414Y-92859071D01*
X117683891Y-92921426D01*
X117664596Y-92938146D01*
X117478923Y-93068156D01*
X117478921Y-93068157D01*
X117311892Y-93235186D01*
X117311887Y-93235192D01*
X117176401Y-93428686D01*
X117176400Y-93428688D01*
X117076571Y-93642773D01*
X117076568Y-93642779D01*
X117019365Y-93856265D01*
X117019365Y-93856266D01*
X117916989Y-93856266D01*
X117884076Y-93913273D01*
X117850001Y-94040440D01*
X117850001Y-94172092D01*
X117884076Y-94299259D01*
X117916989Y-94356266D01*
X117019365Y-94356266D01*
X117076568Y-94569752D01*
X117076571Y-94569758D01*
X117176400Y-94783844D01*
X117311895Y-94977348D01*
X117478918Y-95144371D01*
X117672422Y-95279866D01*
X117886508Y-95379695D01*
X117886517Y-95379699D01*
X118100001Y-95436900D01*
X118100001Y-94539278D01*
X118157008Y-94572191D01*
X118284175Y-94606266D01*
X118415827Y-94606266D01*
X118542994Y-94572191D01*
X118600001Y-94539278D01*
X118600001Y-95436899D01*
X118813484Y-95379699D01*
X118813493Y-95379695D01*
X119027579Y-95279866D01*
X119221083Y-95144371D01*
X119275458Y-95089996D01*
X142059910Y-95089996D01*
X142059910Y-95090003D01*
X142078213Y-95252455D01*
X142132211Y-95406774D01*
X142181573Y-95485333D01*
X142219193Y-95545204D01*
X142334797Y-95660808D01*
X142473226Y-95747789D01*
X142627540Y-95801786D01*
X142627543Y-95801786D01*
X142627545Y-95801787D01*
X142789997Y-95820091D01*
X142790001Y-95820091D01*
X142790005Y-95820091D01*
X142952456Y-95801787D01*
X142952457Y-95801786D01*
X142952462Y-95801786D01*
X143106776Y-95747789D01*
X143208112Y-95684115D01*
X143251102Y-95657103D01*
X143252111Y-95658709D01*
X143308027Y-95635867D01*
X143361636Y-95642180D01*
X143370746Y-95645368D01*
X143370750Y-95645368D01*
X143370754Y-95645369D01*
X143549997Y-95665565D01*
X143550001Y-95665565D01*
X143550005Y-95665565D01*
X143729250Y-95645369D01*
X143729253Y-95645368D01*
X143729256Y-95645368D01*
X143899523Y-95585789D01*
X144052263Y-95489816D01*
X144179817Y-95362262D01*
X144275790Y-95209522D01*
X144282686Y-95189816D01*
X144292977Y-95160404D01*
X144319742Y-95083912D01*
X144360462Y-95027138D01*
X144395826Y-95007828D01*
X144482933Y-94977348D01*
X144507674Y-94968691D01*
X144530967Y-94954055D01*
X144646105Y-94881709D01*
X144761709Y-94766105D01*
X144817733Y-94676942D01*
X144870067Y-94630653D01*
X144939120Y-94620004D01*
X145002968Y-94648380D01*
X145027720Y-94676945D01*
X145039190Y-94695201D01*
X145039193Y-94695204D01*
X145154797Y-94810808D01*
X145293226Y-94897789D01*
X145447540Y-94951786D01*
X145447543Y-94951786D01*
X145447545Y-94951787D01*
X145609997Y-94970091D01*
X145610001Y-94970091D01*
X145610005Y-94970091D01*
X145772458Y-94951787D01*
X145772460Y-94951786D01*
X145772462Y-94951786D01*
X145852708Y-94923705D01*
X145922486Y-94920143D01*
X145959631Y-94935751D01*
X145988761Y-94954055D01*
X146142429Y-95007826D01*
X146143078Y-95008053D01*
X146305532Y-95026357D01*
X146305536Y-95026357D01*
X146305540Y-95026357D01*
X146467991Y-95008053D01*
X146467992Y-95008052D01*
X146467997Y-95008052D01*
X146622311Y-94954055D01*
X146760740Y-94867074D01*
X146847819Y-94779994D01*
X146909138Y-94746512D01*
X146978830Y-94751496D01*
X147034764Y-94793367D01*
X147040490Y-94801705D01*
X147059191Y-94831468D01*
X147059193Y-94831470D01*
X147174797Y-94947074D01*
X147313226Y-95034055D01*
X147313227Y-95034055D01*
X147313908Y-95034483D01*
X147360199Y-95086818D01*
X147370467Y-95153409D01*
X147371128Y-95153484D01*
X147352044Y-95322861D01*
X147352044Y-95322868D01*
X147370347Y-95485320D01*
X147370348Y-95485325D01*
X147370349Y-95485326D01*
X147371920Y-95489815D01*
X147424345Y-95639639D01*
X147456498Y-95690810D01*
X147511327Y-95778069D01*
X147626931Y-95893673D01*
X147765360Y-95980654D01*
X147919674Y-96034651D01*
X147919677Y-96034651D01*
X147919679Y-96034652D01*
X148082131Y-96052956D01*
X148082135Y-96052956D01*
X148082139Y-96052956D01*
X148244590Y-96034652D01*
X148244591Y-96034651D01*
X148244596Y-96034651D01*
X148398910Y-95980654D01*
X148537339Y-95893673D01*
X148652943Y-95778069D01*
X148739924Y-95639640D01*
X148772969Y-95545204D01*
X148793919Y-95485333D01*
X148793919Y-95485330D01*
X148793921Y-95485326D01*
X148795795Y-95468692D01*
X148822858Y-95404280D01*
X148880451Y-95364722D01*
X148905129Y-95359353D01*
X148954246Y-95353819D01*
X149029251Y-95345369D01*
X149029254Y-95345368D01*
X149029256Y-95345368D01*
X149199523Y-95285789D01*
X149352263Y-95189816D01*
X149479817Y-95062262D01*
X149575790Y-94909522D01*
X149635369Y-94739255D01*
X149635370Y-94739249D01*
X149655566Y-94560003D01*
X149655566Y-94559996D01*
X149635370Y-94380750D01*
X149635369Y-94380745D01*
X149630274Y-94366185D01*
X149575790Y-94210478D01*
X149551670Y-94172092D01*
X149519883Y-94121503D01*
X149479817Y-94057738D01*
X149352263Y-93930184D01*
X149340096Y-93922539D01*
X149199524Y-93834211D01*
X149029255Y-93774631D01*
X149029250Y-93774630D01*
X148850005Y-93754435D01*
X148849997Y-93754435D01*
X148670751Y-93774630D01*
X148670746Y-93774631D01*
X148500477Y-93834211D01*
X148346837Y-93930750D01*
X148279600Y-93949750D01*
X148212765Y-93929382D01*
X148193184Y-93913437D01*
X148085205Y-93805458D01*
X147946775Y-93718476D01*
X147792456Y-93664478D01*
X147630005Y-93646175D01*
X147629997Y-93646175D01*
X147467545Y-93664478D01*
X147313226Y-93718476D01*
X147174798Y-93805457D01*
X147087720Y-93892535D01*
X147026396Y-93926019D01*
X146956705Y-93921035D01*
X146900771Y-93879163D01*
X146895045Y-93870825D01*
X146885896Y-93856265D01*
X146876344Y-93841062D01*
X146760740Y-93725458D01*
X146729466Y-93705807D01*
X146622310Y-93638476D01*
X146467991Y-93584478D01*
X146305540Y-93566175D01*
X146305532Y-93566175D01*
X146143076Y-93584479D01*
X146143075Y-93584479D01*
X146062826Y-93612559D01*
X145993048Y-93616120D01*
X145955901Y-93600511D01*
X145926778Y-93582212D01*
X145926775Y-93582210D01*
X145772458Y-93528212D01*
X145610005Y-93509909D01*
X145609997Y-93509909D01*
X145447545Y-93528212D01*
X145293226Y-93582210D01*
X145154796Y-93669192D01*
X145039193Y-93784795D01*
X145039191Y-93784798D01*
X144983168Y-93873957D01*
X144930833Y-93920248D01*
X144861780Y-93930895D01*
X144797931Y-93902520D01*
X144773182Y-93873956D01*
X144761709Y-93855697D01*
X144646105Y-93740093D01*
X144622814Y-93725458D01*
X144507675Y-93653111D01*
X144373798Y-93606266D01*
X144353362Y-93599115D01*
X144353361Y-93599114D01*
X144353356Y-93599113D01*
X144190905Y-93580810D01*
X144190897Y-93580810D01*
X144028445Y-93599113D01*
X143874126Y-93653111D01*
X143735696Y-93740093D01*
X143620093Y-93855696D01*
X143533107Y-93994134D01*
X143531162Y-93998173D01*
X143484334Y-94050028D01*
X143433333Y-94067579D01*
X143370751Y-94074630D01*
X143200479Y-94134210D01*
X143047740Y-94230183D01*
X142947276Y-94330647D01*
X142885953Y-94364131D01*
X142845713Y-94366185D01*
X142790005Y-94359909D01*
X142789997Y-94359909D01*
X142627545Y-94378212D01*
X142473226Y-94432210D01*
X142334796Y-94519192D01*
X142219193Y-94634795D01*
X142132211Y-94773225D01*
X142078213Y-94927544D01*
X142059910Y-95089996D01*
X119275458Y-95089996D01*
X119388106Y-94977348D01*
X119523601Y-94783844D01*
X119623430Y-94569758D01*
X119623433Y-94569752D01*
X119680637Y-94356266D01*
X118783013Y-94356266D01*
X118815926Y-94299259D01*
X118850001Y-94172092D01*
X118850001Y-94084996D01*
X139525445Y-94084996D01*
X139525445Y-94085003D01*
X139543748Y-94247455D01*
X139597746Y-94401774D01*
X139616871Y-94432211D01*
X139684728Y-94540204D01*
X139800332Y-94655808D01*
X139938761Y-94742789D01*
X140093075Y-94796786D01*
X140093078Y-94796786D01*
X140093080Y-94796787D01*
X140255532Y-94815091D01*
X140255536Y-94815091D01*
X140255540Y-94815091D01*
X140417991Y-94796787D01*
X140417992Y-94796786D01*
X140417997Y-94796786D01*
X140572311Y-94742789D01*
X140710740Y-94655808D01*
X140826344Y-94540204D01*
X140913325Y-94401775D01*
X140939649Y-94326544D01*
X140980369Y-94269769D01*
X140990706Y-94262513D01*
X141120740Y-94180808D01*
X141236344Y-94065204D01*
X141323325Y-93926775D01*
X141324806Y-93922544D01*
X141341808Y-93873954D01*
X141363742Y-93811270D01*
X141404461Y-93754496D01*
X141414788Y-93747247D01*
X141480740Y-93705808D01*
X141596344Y-93590204D01*
X141683325Y-93451775D01*
X141737322Y-93297461D01*
X141737323Y-93297455D01*
X141755627Y-93135003D01*
X141755627Y-93134996D01*
X141737323Y-92972544D01*
X141737322Y-92972542D01*
X141737322Y-92972539D01*
X141683325Y-92818225D01*
X141646737Y-92759996D01*
X148635445Y-92759996D01*
X148635445Y-92760003D01*
X148653748Y-92922455D01*
X148707746Y-93076774D01*
X148707747Y-93076775D01*
X148794728Y-93215204D01*
X148910332Y-93330808D01*
X149048761Y-93417789D01*
X149203075Y-93471786D01*
X149203078Y-93471786D01*
X149203080Y-93471787D01*
X149365532Y-93490091D01*
X149365536Y-93490091D01*
X149365540Y-93490091D01*
X149527991Y-93471787D01*
X149527992Y-93471786D01*
X149527997Y-93471786D01*
X149682311Y-93417789D01*
X149820740Y-93330808D01*
X149936344Y-93215204D01*
X150023325Y-93076775D01*
X150077322Y-92922461D01*
X150077323Y-92922455D01*
X150095627Y-92760003D01*
X150095627Y-92759996D01*
X150077323Y-92597544D01*
X150077322Y-92597542D01*
X150077322Y-92597539D01*
X150023325Y-92443225D01*
X149936344Y-92304796D01*
X149820740Y-92189192D01*
X149682310Y-92102210D01*
X149527991Y-92048212D01*
X149365540Y-92029909D01*
X149365532Y-92029909D01*
X149203080Y-92048212D01*
X149048761Y-92102210D01*
X148910331Y-92189192D01*
X148794728Y-92304795D01*
X148707746Y-92443225D01*
X148653748Y-92597544D01*
X148635445Y-92759996D01*
X141646737Y-92759996D01*
X141596344Y-92679796D01*
X141480740Y-92564192D01*
X141342310Y-92477210D01*
X141187991Y-92423212D01*
X141025540Y-92404909D01*
X141025532Y-92404909D01*
X140863080Y-92423212D01*
X140708761Y-92477210D01*
X140570331Y-92564192D01*
X140454728Y-92679795D01*
X140367745Y-92818227D01*
X140327330Y-92933726D01*
X140286609Y-92990502D01*
X140276262Y-92997764D01*
X140210335Y-93039189D01*
X140210333Y-93039190D01*
X140094728Y-93154795D01*
X140007748Y-93293222D01*
X139981421Y-93368457D01*
X139940698Y-93425232D01*
X139930353Y-93432493D01*
X139800333Y-93514190D01*
X139684728Y-93629795D01*
X139597746Y-93768225D01*
X139543748Y-93922544D01*
X139525445Y-94084996D01*
X118850001Y-94084996D01*
X118850001Y-94040440D01*
X118815926Y-93913273D01*
X118783013Y-93856266D01*
X119680637Y-93856266D01*
X119680636Y-93856265D01*
X119623433Y-93642779D01*
X119623430Y-93642773D01*
X119523601Y-93428688D01*
X119523600Y-93428686D01*
X119388114Y-93235192D01*
X119388109Y-93235186D01*
X119221079Y-93068156D01*
X119035406Y-92938145D01*
X118991781Y-92883568D01*
X118984589Y-92814070D01*
X119016111Y-92751715D01*
X119035407Y-92734996D01*
X119114242Y-92679795D01*
X119221402Y-92604761D01*
X119388496Y-92437667D01*
X119524036Y-92244096D01*
X119623904Y-92029929D01*
X119685064Y-91801674D01*
X119705660Y-91566266D01*
X119685064Y-91330858D01*
X119648419Y-91194096D01*
X145797611Y-91194096D01*
X145797611Y-91194103D01*
X145815914Y-91356555D01*
X145869912Y-91510874D01*
X145916617Y-91585204D01*
X145956894Y-91649304D01*
X146072498Y-91764908D01*
X146210927Y-91851889D01*
X146365241Y-91905886D01*
X146365244Y-91905886D01*
X146365246Y-91905887D01*
X146527698Y-91924191D01*
X146527702Y-91924191D01*
X146527706Y-91924191D01*
X146690157Y-91905887D01*
X146690158Y-91905886D01*
X146690163Y-91905886D01*
X146844477Y-91851889D01*
X146982906Y-91764908D01*
X147098510Y-91649304D01*
X147185491Y-91510875D01*
X147239488Y-91356561D01*
X147242385Y-91330852D01*
X147257793Y-91194103D01*
X147257793Y-91194096D01*
X147250571Y-91129996D01*
X153194910Y-91129996D01*
X153194910Y-91130003D01*
X153213213Y-91292455D01*
X153267211Y-91446774D01*
X153267212Y-91446775D01*
X153354193Y-91585204D01*
X153469797Y-91700808D01*
X153608226Y-91787789D01*
X153762540Y-91841786D01*
X153762543Y-91841786D01*
X153762545Y-91841787D01*
X153924997Y-91860091D01*
X153925001Y-91860091D01*
X153925005Y-91860091D01*
X154087456Y-91841787D01*
X154087457Y-91841786D01*
X154087462Y-91841786D01*
X154241776Y-91787789D01*
X154380205Y-91700808D01*
X154495809Y-91585204D01*
X154582790Y-91446775D01*
X154636787Y-91292461D01*
X154636788Y-91292455D01*
X154655092Y-91130003D01*
X154655092Y-91129996D01*
X154636788Y-90967544D01*
X154636787Y-90967542D01*
X154636787Y-90967539D01*
X154598706Y-90858710D01*
X154595145Y-90788931D01*
X154629874Y-90728304D01*
X154649776Y-90712762D01*
X154780205Y-90630808D01*
X154895809Y-90515204D01*
X154982790Y-90376775D01*
X155036787Y-90222461D01*
X155043293Y-90164722D01*
X155055092Y-90060003D01*
X155055092Y-90059996D01*
X155036788Y-89897544D01*
X155036787Y-89897542D01*
X155036787Y-89897539D01*
X154982790Y-89743225D01*
X154895809Y-89604796D01*
X154780205Y-89489192D01*
X154742780Y-89465676D01*
X154641775Y-89402210D01*
X154487456Y-89348212D01*
X154325005Y-89329909D01*
X154324997Y-89329909D01*
X154162545Y-89348212D01*
X154008226Y-89402210D01*
X153869796Y-89489192D01*
X153754193Y-89604795D01*
X153667211Y-89743225D01*
X153613213Y-89897544D01*
X153594910Y-90059996D01*
X153594910Y-90060003D01*
X153613213Y-90222455D01*
X153651296Y-90331290D01*
X153654857Y-90401069D01*
X153620128Y-90461696D01*
X153600227Y-90477236D01*
X153563120Y-90500552D01*
X153469796Y-90559192D01*
X153354193Y-90674795D01*
X153267211Y-90813225D01*
X153213213Y-90967544D01*
X153194910Y-91129996D01*
X147250571Y-91129996D01*
X147239489Y-91031644D01*
X147239488Y-91031642D01*
X147239488Y-91031639D01*
X147185491Y-90877325D01*
X147098510Y-90738896D01*
X146982906Y-90623292D01*
X146857803Y-90544684D01*
X146844476Y-90536310D01*
X146690157Y-90482312D01*
X146527706Y-90464009D01*
X146527698Y-90464009D01*
X146365246Y-90482312D01*
X146210927Y-90536310D01*
X146072497Y-90623292D01*
X145956894Y-90738895D01*
X145869912Y-90877325D01*
X145815914Y-91031644D01*
X145797611Y-91194096D01*
X119648419Y-91194096D01*
X119623904Y-91102603D01*
X119524036Y-90888437D01*
X119516255Y-90877325D01*
X119388497Y-90694866D01*
X119364438Y-90670807D01*
X119266568Y-90572937D01*
X119233085Y-90511617D01*
X119238069Y-90441925D01*
X119279940Y-90385991D01*
X119310916Y-90369076D01*
X119442332Y-90320062D01*
X119557547Y-90233812D01*
X119643797Y-90118597D01*
X119650735Y-90099996D01*
X127509910Y-90099996D01*
X127509910Y-90100003D01*
X127528213Y-90262455D01*
X127582211Y-90416774D01*
X127623392Y-90482312D01*
X127669193Y-90555204D01*
X127784797Y-90670808D01*
X127923226Y-90757789D01*
X128077540Y-90811786D01*
X128077543Y-90811786D01*
X128077545Y-90811787D01*
X128239997Y-90830091D01*
X128240001Y-90830091D01*
X128240005Y-90830091D01*
X128402456Y-90811787D01*
X128402457Y-90811786D01*
X128402462Y-90811786D01*
X128556776Y-90757789D01*
X128695205Y-90670808D01*
X128810809Y-90555204D01*
X128897790Y-90416775D01*
X128951787Y-90262461D01*
X128955015Y-90233812D01*
X128970092Y-90100003D01*
X128970092Y-90099996D01*
X128951788Y-89937544D01*
X128951787Y-89937542D01*
X128951787Y-89937539D01*
X128908977Y-89815196D01*
X143225636Y-89815196D01*
X143225636Y-89815203D01*
X143245831Y-89994449D01*
X143245832Y-89994454D01*
X143305412Y-90164723D01*
X143401385Y-90317462D01*
X143528939Y-90445016D01*
X143619281Y-90501782D01*
X143660642Y-90527771D01*
X143681679Y-90540989D01*
X143772987Y-90572939D01*
X143851946Y-90600568D01*
X143851951Y-90600569D01*
X144031197Y-90620765D01*
X144031201Y-90620765D01*
X144031205Y-90620765D01*
X144210450Y-90600569D01*
X144210453Y-90600568D01*
X144210456Y-90600568D01*
X144380723Y-90540989D01*
X144533463Y-90445016D01*
X144661017Y-90317462D01*
X144756990Y-90164722D01*
X144816569Y-89994455D01*
X144816570Y-89994449D01*
X144836766Y-89815203D01*
X144836766Y-89815196D01*
X144816570Y-89635950D01*
X144816569Y-89635945D01*
X144805669Y-89604795D01*
X144756990Y-89465678D01*
X144661017Y-89312938D01*
X144655275Y-89307196D01*
X146070436Y-89307196D01*
X146070436Y-89307203D01*
X146090631Y-89486449D01*
X146090632Y-89486454D01*
X146150212Y-89656723D01*
X146204565Y-89743225D01*
X146246185Y-89809462D01*
X146373739Y-89937016D01*
X146526479Y-90032989D01*
X146603661Y-90059996D01*
X146696746Y-90092568D01*
X146696751Y-90092569D01*
X146875997Y-90112765D01*
X146876001Y-90112765D01*
X146876005Y-90112765D01*
X147055250Y-90092569D01*
X147055253Y-90092568D01*
X147055256Y-90092568D01*
X147225523Y-90032989D01*
X147378263Y-89937016D01*
X147505817Y-89809462D01*
X147601790Y-89656722D01*
X147661369Y-89486455D01*
X147663710Y-89465678D01*
X147681566Y-89307203D01*
X147681566Y-89307196D01*
X147661370Y-89127950D01*
X147661369Y-89127945D01*
X147621044Y-89012702D01*
X147601790Y-88957678D01*
X147593062Y-88943788D01*
X147536964Y-88854508D01*
X147505817Y-88804938D01*
X147378263Y-88677384D01*
X147332646Y-88648721D01*
X147225524Y-88581411D01*
X147055255Y-88521831D01*
X147055250Y-88521830D01*
X146876005Y-88501635D01*
X146875997Y-88501635D01*
X146696751Y-88521830D01*
X146696746Y-88521831D01*
X146526477Y-88581411D01*
X146373738Y-88677384D01*
X146246185Y-88804937D01*
X146150212Y-88957676D01*
X146090632Y-89127945D01*
X146090631Y-89127950D01*
X146070436Y-89307196D01*
X144655275Y-89307196D01*
X144533463Y-89185384D01*
X144472493Y-89147074D01*
X144380724Y-89089411D01*
X144210455Y-89029831D01*
X144210450Y-89029830D01*
X144031205Y-89009635D01*
X144031197Y-89009635D01*
X143851951Y-89029830D01*
X143851946Y-89029831D01*
X143681677Y-89089411D01*
X143528938Y-89185384D01*
X143401385Y-89312937D01*
X143305412Y-89465676D01*
X143245832Y-89635945D01*
X143245831Y-89635950D01*
X143225636Y-89815196D01*
X128908977Y-89815196D01*
X128897790Y-89783225D01*
X128810809Y-89644796D01*
X128695205Y-89529192D01*
X128627180Y-89486449D01*
X128556775Y-89442210D01*
X128402456Y-89388212D01*
X128240005Y-89369909D01*
X128239997Y-89369909D01*
X128077545Y-89388212D01*
X127923226Y-89442210D01*
X127784796Y-89529192D01*
X127669193Y-89644795D01*
X127582211Y-89783225D01*
X127528213Y-89937544D01*
X127509910Y-90099996D01*
X119650735Y-90099996D01*
X119694092Y-89983749D01*
X119700501Y-89924139D01*
X119700500Y-88537496D01*
X130019910Y-88537496D01*
X130019910Y-88537503D01*
X130038213Y-88699955D01*
X130092211Y-88854274D01*
X130157183Y-88957676D01*
X130179193Y-88992704D01*
X130294797Y-89108308D01*
X130433226Y-89195289D01*
X130587540Y-89249286D01*
X130587543Y-89249286D01*
X130587545Y-89249287D01*
X130749997Y-89267591D01*
X130750001Y-89267591D01*
X130750005Y-89267591D01*
X130912456Y-89249287D01*
X130912457Y-89249286D01*
X130912462Y-89249286D01*
X131066776Y-89195289D01*
X131205205Y-89108308D01*
X131320809Y-88992704D01*
X131378149Y-88901447D01*
X131430482Y-88855157D01*
X131499536Y-88844508D01*
X131563384Y-88872883D01*
X131588135Y-88901447D01*
X131639191Y-88982702D01*
X131639193Y-88982704D01*
X131754797Y-89098308D01*
X131893226Y-89185289D01*
X132047540Y-89239286D01*
X132047543Y-89239286D01*
X132047545Y-89239287D01*
X132209997Y-89257591D01*
X132210001Y-89257591D01*
X132210005Y-89257591D01*
X132372456Y-89239287D01*
X132372457Y-89239286D01*
X132372462Y-89239286D01*
X132526776Y-89185289D01*
X132665205Y-89098308D01*
X132780809Y-88982704D01*
X132825582Y-88911447D01*
X132877915Y-88865157D01*
X132946968Y-88854508D01*
X133010817Y-88882883D01*
X133035568Y-88911447D01*
X133099191Y-89012702D01*
X133099193Y-89012704D01*
X133214797Y-89128308D01*
X133353226Y-89215289D01*
X133507540Y-89269286D01*
X133507543Y-89269286D01*
X133507545Y-89269287D01*
X133669997Y-89287591D01*
X133670001Y-89287591D01*
X133670005Y-89287591D01*
X133832456Y-89269287D01*
X133832457Y-89269286D01*
X133832462Y-89269286D01*
X133986776Y-89215289D01*
X134125205Y-89128308D01*
X134240809Y-89012704D01*
X134284111Y-88943788D01*
X134336446Y-88897498D01*
X134405499Y-88886850D01*
X134469348Y-88915225D01*
X134494098Y-88943788D01*
X134549191Y-89031468D01*
X134549193Y-89031470D01*
X134664797Y-89147074D01*
X134803226Y-89234055D01*
X134957540Y-89288052D01*
X134957543Y-89288052D01*
X134957545Y-89288053D01*
X135119997Y-89306357D01*
X135120001Y-89306357D01*
X135120005Y-89306357D01*
X135282456Y-89288053D01*
X135282457Y-89288052D01*
X135282462Y-89288052D01*
X135436776Y-89234055D01*
X135575205Y-89147074D01*
X135690809Y-89031470D01*
X135777790Y-88893041D01*
X135777790Y-88893038D01*
X135778282Y-88892257D01*
X135830617Y-88845966D01*
X135899670Y-88835318D01*
X135963519Y-88863693D01*
X135988269Y-88892256D01*
X136000328Y-88911447D01*
X136019193Y-88941470D01*
X136134797Y-89057074D01*
X136273226Y-89144055D01*
X136427540Y-89198052D01*
X136427543Y-89198052D01*
X136427545Y-89198053D01*
X136589997Y-89216357D01*
X136590001Y-89216357D01*
X136590005Y-89216357D01*
X136752456Y-89198053D01*
X136752457Y-89198052D01*
X136752462Y-89198052D01*
X136906776Y-89144055D01*
X137045205Y-89057074D01*
X137160809Y-88941470D01*
X137247790Y-88803041D01*
X137301787Y-88648727D01*
X137306084Y-88610589D01*
X137320092Y-88486269D01*
X137320092Y-88486262D01*
X137301788Y-88323810D01*
X137301787Y-88323808D01*
X137301787Y-88323805D01*
X137247790Y-88169491D01*
X137160809Y-88031062D01*
X137045205Y-87915458D01*
X136996407Y-87884796D01*
X143022436Y-87884796D01*
X143022436Y-87884803D01*
X143042631Y-88064049D01*
X143042632Y-88064054D01*
X143102212Y-88234323D01*
X143158438Y-88323805D01*
X143198185Y-88387062D01*
X143325739Y-88514616D01*
X143416081Y-88571382D01*
X143432042Y-88581411D01*
X143478479Y-88610589D01*
X143587454Y-88648721D01*
X143648746Y-88670168D01*
X143648751Y-88670169D01*
X143827997Y-88690365D01*
X143828001Y-88690365D01*
X143828005Y-88690365D01*
X144007250Y-88670169D01*
X144007253Y-88670168D01*
X144007256Y-88670168D01*
X144177523Y-88610589D01*
X144330263Y-88514616D01*
X144457817Y-88387062D01*
X144553790Y-88234322D01*
X144613369Y-88064055D01*
X144613370Y-88064049D01*
X144633566Y-87884803D01*
X144633566Y-87884796D01*
X144613370Y-87705550D01*
X144613369Y-87705545D01*
X144553789Y-87535276D01*
X144457816Y-87382537D01*
X144330263Y-87254984D01*
X144177524Y-87159011D01*
X144007255Y-87099431D01*
X144007250Y-87099430D01*
X143828005Y-87079235D01*
X143827997Y-87079235D01*
X143648751Y-87099430D01*
X143648746Y-87099431D01*
X143478477Y-87159011D01*
X143325738Y-87254984D01*
X143198185Y-87382537D01*
X143102212Y-87535276D01*
X143042632Y-87705545D01*
X143042631Y-87705550D01*
X143022436Y-87884796D01*
X136996407Y-87884796D01*
X136988313Y-87879710D01*
X136906775Y-87828476D01*
X136752456Y-87774478D01*
X136590005Y-87756175D01*
X136589997Y-87756175D01*
X136427545Y-87774478D01*
X136273226Y-87828476D01*
X136134796Y-87915458D01*
X136019191Y-88031063D01*
X135931718Y-88170275D01*
X135879383Y-88216566D01*
X135810330Y-88227213D01*
X135746482Y-88198838D01*
X135721731Y-88170274D01*
X135695420Y-88128401D01*
X135690809Y-88121062D01*
X135575205Y-88005458D01*
X135545339Y-87986692D01*
X135436775Y-87918476D01*
X135282456Y-87864478D01*
X135120005Y-87846175D01*
X135119997Y-87846175D01*
X134957545Y-87864478D01*
X134803226Y-87918476D01*
X134664796Y-88005458D01*
X134549194Y-88121060D01*
X134505889Y-88189978D01*
X134453553Y-88236268D01*
X134384500Y-88246915D01*
X134320652Y-88218539D01*
X134295902Y-88189976D01*
X134285582Y-88173552D01*
X134240809Y-88102296D01*
X134125205Y-87986692D01*
X134093375Y-87966692D01*
X133986775Y-87899710D01*
X133832456Y-87845712D01*
X133670005Y-87827409D01*
X133669997Y-87827409D01*
X133507545Y-87845712D01*
X133353226Y-87899710D01*
X133214796Y-87986692D01*
X133099191Y-88102297D01*
X133054419Y-88173552D01*
X133002084Y-88219842D01*
X132933031Y-88230490D01*
X132869183Y-88202115D01*
X132844432Y-88173551D01*
X132811450Y-88121061D01*
X132780809Y-88072296D01*
X132665205Y-87956692D01*
X132628980Y-87933930D01*
X132526775Y-87869710D01*
X132381055Y-87818721D01*
X132372462Y-87815714D01*
X132372461Y-87815713D01*
X132372456Y-87815712D01*
X132210005Y-87797409D01*
X132209997Y-87797409D01*
X132047545Y-87815712D01*
X131893226Y-87869710D01*
X131754796Y-87956692D01*
X131639191Y-88072297D01*
X131581852Y-88163552D01*
X131529517Y-88209842D01*
X131460464Y-88220490D01*
X131396616Y-88192115D01*
X131371865Y-88163551D01*
X131345166Y-88121060D01*
X131320809Y-88082296D01*
X131205205Y-87966692D01*
X131098606Y-87899711D01*
X131066775Y-87879710D01*
X130912456Y-87825712D01*
X130750005Y-87807409D01*
X130749997Y-87807409D01*
X130587545Y-87825712D01*
X130433226Y-87879710D01*
X130294796Y-87966692D01*
X130179193Y-88082295D01*
X130092211Y-88220725D01*
X130038213Y-88375044D01*
X130019910Y-88537496D01*
X119700500Y-88537496D01*
X119700500Y-88128394D01*
X119694092Y-88068783D01*
X119692328Y-88064054D01*
X119643798Y-87933937D01*
X119643794Y-87933930D01*
X119557548Y-87818721D01*
X119557545Y-87818718D01*
X119442336Y-87732472D01*
X119442329Y-87732468D01*
X119307483Y-87682174D01*
X119307484Y-87682174D01*
X119247884Y-87675767D01*
X119247882Y-87675766D01*
X119247874Y-87675766D01*
X119247865Y-87675766D01*
X117452130Y-87675766D01*
X117452124Y-87675767D01*
X117392517Y-87682174D01*
X117257672Y-87732468D01*
X117257665Y-87732472D01*
X117142456Y-87818718D01*
X117142453Y-87818721D01*
X117056207Y-87933930D01*
X117056203Y-87933937D01*
X117005909Y-88068783D01*
X117000289Y-88121060D01*
X116999502Y-88128389D01*
X116999501Y-88128401D01*
X116999501Y-89924136D01*
X116999502Y-89924142D01*
X117005909Y-89983749D01*
X117056203Y-90118594D01*
X117056207Y-90118601D01*
X117142453Y-90233810D01*
X117142456Y-90233813D01*
X117257665Y-90320059D01*
X117257672Y-90320063D01*
X117389082Y-90369076D01*
X117445016Y-90410947D01*
X117469433Y-90476411D01*
X117454581Y-90544684D01*
X117433431Y-90572939D01*
X117311504Y-90694866D01*
X117175966Y-90888435D01*
X117175965Y-90888437D01*
X117076099Y-91102601D01*
X117076095Y-91102610D01*
X117014939Y-91330852D01*
X117014937Y-91330862D01*
X116994342Y-91566265D01*
X115512951Y-91566265D01*
X115511080Y-81929996D01*
X116804436Y-81929996D01*
X116804436Y-81930003D01*
X116824631Y-82109249D01*
X116824632Y-82109254D01*
X116884212Y-82279523D01*
X116952515Y-82388226D01*
X116980185Y-82432262D01*
X117107739Y-82559816D01*
X117260479Y-82655789D01*
X117430746Y-82715368D01*
X117430751Y-82715369D01*
X117609997Y-82735565D01*
X117610001Y-82735565D01*
X117610005Y-82735565D01*
X117789250Y-82715369D01*
X117789253Y-82715368D01*
X117789256Y-82715368D01*
X117818895Y-82704997D01*
X122147005Y-82704997D01*
X122147005Y-82705004D01*
X122165308Y-82867456D01*
X122219306Y-83021775D01*
X122244871Y-83062461D01*
X122306288Y-83160205D01*
X122421892Y-83275809D01*
X122560321Y-83362790D01*
X122714635Y-83416787D01*
X122714639Y-83416787D01*
X122714641Y-83416788D01*
X122778107Y-83423938D01*
X122826039Y-83429339D01*
X122890454Y-83456405D01*
X122930009Y-83513999D01*
X122932148Y-83583836D01*
X122917151Y-83618530D01*
X122866847Y-83698588D01*
X122812848Y-83852910D01*
X122794545Y-84015362D01*
X122794545Y-84015369D01*
X122812848Y-84177821D01*
X122866846Y-84332140D01*
X122953828Y-84470570D01*
X123021372Y-84538114D01*
X123054857Y-84599437D01*
X123056911Y-84611912D01*
X123064347Y-84677909D01*
X123052293Y-84746730D01*
X123004943Y-84798110D01*
X122955011Y-84815012D01*
X122861650Y-84825531D01*
X122861646Y-84825532D01*
X122691377Y-84885112D01*
X122538638Y-84981085D01*
X122411085Y-85108638D01*
X122315112Y-85261377D01*
X122255532Y-85431646D01*
X122255531Y-85431651D01*
X122235336Y-85610897D01*
X122235336Y-85610904D01*
X122255531Y-85790150D01*
X122255532Y-85790155D01*
X122315112Y-85960424D01*
X122372591Y-86051900D01*
X122411085Y-86113163D01*
X122538639Y-86240717D01*
X122628981Y-86297483D01*
X122678815Y-86328796D01*
X122691379Y-86336690D01*
X122795790Y-86373225D01*
X122861646Y-86396269D01*
X122861651Y-86396270D01*
X123040897Y-86416466D01*
X123040901Y-86416466D01*
X123040905Y-86416466D01*
X123220150Y-86396270D01*
X123220153Y-86396269D01*
X123220156Y-86396269D01*
X123390423Y-86336690D01*
X123543163Y-86240717D01*
X123670717Y-86113163D01*
X123766690Y-85960423D01*
X123804342Y-85852818D01*
X123845064Y-85796043D01*
X123910016Y-85770295D01*
X123935268Y-85770553D01*
X124075533Y-85786357D01*
X124075534Y-85786357D01*
X124075534Y-85786356D01*
X124075536Y-85786357D01*
X124105564Y-85782973D01*
X124174383Y-85795026D01*
X124185421Y-85801200D01*
X124323227Y-85887790D01*
X124477532Y-85941784D01*
X124477538Y-85941785D01*
X124477540Y-85941786D01*
X124477541Y-85941786D01*
X124477545Y-85941787D01*
X124563375Y-85951457D01*
X124627789Y-85978523D01*
X124637174Y-85986996D01*
X124702079Y-86051901D01*
X124840508Y-86138882D01*
X124994822Y-86192879D01*
X124994825Y-86192879D01*
X124994827Y-86192880D01*
X125157279Y-86211184D01*
X125157283Y-86211184D01*
X125157287Y-86211184D01*
X125319738Y-86192880D01*
X125319739Y-86192879D01*
X125319744Y-86192879D01*
X125474058Y-86138882D01*
X125612487Y-86051901D01*
X125728091Y-85936297D01*
X125815072Y-85797868D01*
X125869069Y-85643554D01*
X125872749Y-85610897D01*
X125887374Y-85481096D01*
X125887374Y-85481089D01*
X125869070Y-85318637D01*
X125869069Y-85318635D01*
X125869069Y-85318632D01*
X125815072Y-85164318D01*
X125728091Y-85025889D01*
X125612487Y-84910285D01*
X125572425Y-84885112D01*
X125474057Y-84823303D01*
X125352866Y-84780897D01*
X131980810Y-84780897D01*
X131980810Y-84780904D01*
X131999113Y-84943356D01*
X132053112Y-85097677D01*
X132128112Y-85217037D01*
X132147113Y-85284274D01*
X132128113Y-85348982D01*
X132087746Y-85413224D01*
X132033748Y-85567544D01*
X132015445Y-85729996D01*
X132015445Y-85730003D01*
X132033748Y-85892455D01*
X132087746Y-86046774D01*
X132163855Y-86167900D01*
X132182855Y-86235136D01*
X132163855Y-86299844D01*
X132117746Y-86373225D01*
X132063748Y-86527544D01*
X132045445Y-86689996D01*
X132045445Y-86690003D01*
X132063748Y-86852455D01*
X132117746Y-87006774D01*
X132117747Y-87006775D01*
X132204728Y-87145204D01*
X132320332Y-87260808D01*
X132458761Y-87347789D01*
X132613075Y-87401786D01*
X132613078Y-87401786D01*
X132613080Y-87401787D01*
X132775532Y-87420091D01*
X132775536Y-87420091D01*
X132775540Y-87420091D01*
X132937991Y-87401787D01*
X132937992Y-87401786D01*
X132937997Y-87401786D01*
X133092311Y-87347789D01*
X133230740Y-87260808D01*
X133346344Y-87145204D01*
X133433325Y-87006775D01*
X133487322Y-86852461D01*
X133505627Y-86690000D01*
X133487322Y-86527539D01*
X133433325Y-86373225D01*
X133357215Y-86252098D01*
X133338216Y-86184863D01*
X133357216Y-86120156D01*
X133403325Y-86046775D01*
X133457322Y-85892461D01*
X133457323Y-85892455D01*
X133475627Y-85730003D01*
X133475627Y-85729996D01*
X133457323Y-85567544D01*
X133457322Y-85567542D01*
X133457322Y-85567539D01*
X133403325Y-85413225D01*
X133328323Y-85293861D01*
X133309323Y-85226626D01*
X133328323Y-85161918D01*
X133368690Y-85097676D01*
X133422687Y-84943362D01*
X133426414Y-84910285D01*
X133440992Y-84780904D01*
X133440992Y-84780897D01*
X133422688Y-84618445D01*
X133422687Y-84618443D01*
X133422687Y-84618440D01*
X133368690Y-84464126D01*
X133354594Y-84441693D01*
X133313157Y-84375746D01*
X133294156Y-84308509D01*
X133313156Y-84243802D01*
X133380180Y-84137135D01*
X170659501Y-84137135D01*
X170659501Y-85932870D01*
X170659502Y-85932876D01*
X170665909Y-85992483D01*
X170716203Y-86127328D01*
X170716207Y-86127335D01*
X170802453Y-86242544D01*
X170802456Y-86242547D01*
X170917665Y-86328793D01*
X170917672Y-86328797D01*
X171052518Y-86379091D01*
X171052517Y-86379091D01*
X171059445Y-86379835D01*
X171112128Y-86385500D01*
X172907873Y-86385499D01*
X172967484Y-86379091D01*
X173102332Y-86328796D01*
X173217547Y-86242546D01*
X173303797Y-86127331D01*
X173354092Y-85992483D01*
X173360501Y-85932873D01*
X173360500Y-84137128D01*
X173354092Y-84077517D01*
X173330912Y-84015369D01*
X173303798Y-83942671D01*
X173303794Y-83942664D01*
X173217548Y-83827455D01*
X173217545Y-83827452D01*
X173102336Y-83741206D01*
X173102329Y-83741202D01*
X172970402Y-83691997D01*
X172914468Y-83650126D01*
X172890051Y-83584662D01*
X172904903Y-83516389D01*
X172926054Y-83488133D01*
X173048109Y-83366078D01*
X173183601Y-83172578D01*
X173283430Y-82958492D01*
X173283433Y-82958486D01*
X173340637Y-82745000D01*
X172443013Y-82745000D01*
X172475926Y-82687993D01*
X172510001Y-82560826D01*
X172510001Y-82429174D01*
X172475926Y-82302007D01*
X172443013Y-82245000D01*
X173340637Y-82245000D01*
X173340636Y-82244999D01*
X173283433Y-82031513D01*
X173283430Y-82031507D01*
X173183601Y-81817422D01*
X173183600Y-81817420D01*
X173048114Y-81623926D01*
X173048109Y-81623920D01*
X172881083Y-81456894D01*
X172687579Y-81321399D01*
X172473493Y-81221570D01*
X172473487Y-81221567D01*
X172260001Y-81164364D01*
X172260001Y-82061988D01*
X172202994Y-82029075D01*
X172075827Y-81995000D01*
X171944175Y-81995000D01*
X171817008Y-82029075D01*
X171760001Y-82061988D01*
X171760001Y-81164364D01*
X171760000Y-81164364D01*
X171546514Y-81221567D01*
X171546508Y-81221570D01*
X171332423Y-81321399D01*
X171332421Y-81321400D01*
X171138927Y-81456886D01*
X171138921Y-81456891D01*
X170971892Y-81623920D01*
X170971887Y-81623926D01*
X170836401Y-81817420D01*
X170836400Y-81817422D01*
X170736571Y-82031507D01*
X170736568Y-82031513D01*
X170679365Y-82244999D01*
X170679365Y-82245000D01*
X171576989Y-82245000D01*
X171544076Y-82302007D01*
X171510001Y-82429174D01*
X171510001Y-82560826D01*
X171544076Y-82687993D01*
X171576989Y-82745000D01*
X170679365Y-82745000D01*
X170736568Y-82958486D01*
X170736571Y-82958492D01*
X170836400Y-83172578D01*
X170971895Y-83366082D01*
X171093947Y-83488134D01*
X171127432Y-83549457D01*
X171122448Y-83619149D01*
X171080576Y-83675082D01*
X171049599Y-83691997D01*
X170917672Y-83741202D01*
X170917665Y-83741206D01*
X170802456Y-83827452D01*
X170802453Y-83827455D01*
X170716207Y-83942664D01*
X170716203Y-83942671D01*
X170665909Y-84077517D01*
X170662667Y-84107676D01*
X170659502Y-84137123D01*
X170659501Y-84137135D01*
X133380180Y-84137135D01*
X133398691Y-84107675D01*
X133452688Y-83953361D01*
X133453350Y-83947490D01*
X133470993Y-83790903D01*
X133470993Y-83790896D01*
X133452689Y-83628442D01*
X133424432Y-83547688D01*
X133398691Y-83474125D01*
X133361607Y-83415107D01*
X133342607Y-83347874D01*
X133361606Y-83283168D01*
X133403325Y-83216775D01*
X133457322Y-83062461D01*
X133457322Y-83062459D01*
X133457323Y-83062457D01*
X133475627Y-82900003D01*
X133475627Y-82899996D01*
X133470658Y-82855897D01*
X157005810Y-82855897D01*
X157005810Y-82855904D01*
X157024113Y-83018356D01*
X157078111Y-83172675D01*
X157078112Y-83172676D01*
X157165093Y-83311105D01*
X157280697Y-83426709D01*
X157419126Y-83513690D01*
X157573440Y-83567687D01*
X157573443Y-83567687D01*
X157573445Y-83567688D01*
X157735897Y-83585992D01*
X157735901Y-83585992D01*
X157735905Y-83585992D01*
X157898356Y-83567688D01*
X157898357Y-83567687D01*
X157898362Y-83567687D01*
X158052676Y-83513690D01*
X158191105Y-83426709D01*
X158306709Y-83311105D01*
X158393690Y-83172676D01*
X158447687Y-83018362D01*
X158447688Y-83018356D01*
X158465992Y-82855904D01*
X158465992Y-82855897D01*
X158463739Y-82835897D01*
X162955810Y-82835897D01*
X162955810Y-82835904D01*
X162974113Y-82998356D01*
X163028111Y-83152675D01*
X163068388Y-83216775D01*
X163115093Y-83291105D01*
X163230697Y-83406709D01*
X163369126Y-83493690D01*
X163523440Y-83547687D01*
X163523443Y-83547687D01*
X163523445Y-83547688D01*
X163685897Y-83565992D01*
X163685901Y-83565992D01*
X163685905Y-83565992D01*
X163848356Y-83547688D01*
X163848357Y-83547687D01*
X163848362Y-83547687D01*
X164002676Y-83493690D01*
X164141105Y-83406709D01*
X164256709Y-83291105D01*
X164343690Y-83152676D01*
X164397687Y-82998362D01*
X164401169Y-82967462D01*
X164415992Y-82835904D01*
X164415992Y-82835897D01*
X164397688Y-82673445D01*
X164397687Y-82673443D01*
X164397687Y-82673440D01*
X164343690Y-82519126D01*
X164256709Y-82380697D01*
X164141105Y-82265093D01*
X164104687Y-82242210D01*
X164002675Y-82178111D01*
X163848356Y-82124113D01*
X163685905Y-82105810D01*
X163685897Y-82105810D01*
X163523445Y-82124113D01*
X163369126Y-82178111D01*
X163230696Y-82265093D01*
X163115093Y-82380696D01*
X163028111Y-82519126D01*
X162974113Y-82673445D01*
X162955810Y-82835897D01*
X158463739Y-82835897D01*
X158447688Y-82693445D01*
X158447687Y-82693443D01*
X158447687Y-82693440D01*
X158393690Y-82539126D01*
X158306709Y-82400697D01*
X158191105Y-82285093D01*
X158134932Y-82249797D01*
X158052675Y-82198111D01*
X157898356Y-82144113D01*
X157735905Y-82125810D01*
X157735897Y-82125810D01*
X157573445Y-82144113D01*
X157419126Y-82198111D01*
X157280696Y-82285093D01*
X157165093Y-82400696D01*
X157078111Y-82539126D01*
X157024113Y-82693445D01*
X157005810Y-82855897D01*
X133470658Y-82855897D01*
X133457323Y-82737544D01*
X133457322Y-82737542D01*
X133457322Y-82737539D01*
X133403325Y-82583225D01*
X133316344Y-82444796D01*
X133200740Y-82329192D01*
X133062310Y-82242210D01*
X132907991Y-82188212D01*
X132745540Y-82169909D01*
X132745532Y-82169909D01*
X132583080Y-82188212D01*
X132428761Y-82242210D01*
X132290331Y-82329192D01*
X132174728Y-82444795D01*
X132087746Y-82583225D01*
X132033748Y-82737544D01*
X132015445Y-82899996D01*
X132015445Y-82900003D01*
X132033748Y-83062455D01*
X132087746Y-83216775D01*
X132124828Y-83275790D01*
X132143828Y-83343027D01*
X132124828Y-83407733D01*
X132083113Y-83474122D01*
X132029114Y-83628444D01*
X132010811Y-83790896D01*
X132010811Y-83790903D01*
X132029114Y-83953355D01*
X132083112Y-84107674D01*
X132138646Y-84196055D01*
X132157646Y-84263291D01*
X132138646Y-84327999D01*
X132053111Y-84464126D01*
X131999113Y-84618445D01*
X131980810Y-84780897D01*
X125352866Y-84780897D01*
X125319738Y-84769305D01*
X125233905Y-84759634D01*
X125169491Y-84732567D01*
X125160108Y-84724095D01*
X125095205Y-84659192D01*
X124956775Y-84572210D01*
X124802456Y-84518212D01*
X124640005Y-84499909D01*
X124639997Y-84499909D01*
X124629385Y-84501104D01*
X124560564Y-84489045D01*
X124509188Y-84441693D01*
X124492289Y-84391764D01*
X124489736Y-84369102D01*
X124489734Y-84369098D01*
X124489734Y-84369094D01*
X124435740Y-84214790D01*
X124423968Y-84196055D01*
X124348758Y-84076359D01*
X124281212Y-84008813D01*
X124247727Y-83947490D01*
X124245675Y-83935033D01*
X124236422Y-83852905D01*
X124236421Y-83852901D01*
X124236420Y-83852897D01*
X124182426Y-83698593D01*
X124182423Y-83698588D01*
X124095444Y-83560162D01*
X123979840Y-83444558D01*
X123951432Y-83426708D01*
X123841410Y-83357576D01*
X123687091Y-83303578D01*
X123575691Y-83291027D01*
X123511277Y-83263961D01*
X123471721Y-83206366D01*
X123469584Y-83136529D01*
X123484581Y-83101834D01*
X123509323Y-83062457D01*
X123534885Y-83021776D01*
X123588882Y-82867462D01*
X123588883Y-82867456D01*
X123595920Y-82804997D01*
X124931949Y-82804997D01*
X124931949Y-82805004D01*
X124950252Y-82967456D01*
X125004250Y-83121775D01*
X125063943Y-83216775D01*
X125091232Y-83260205D01*
X125206836Y-83375809D01*
X125345265Y-83462790D01*
X125499579Y-83516787D01*
X125499582Y-83516787D01*
X125499584Y-83516788D01*
X125662036Y-83535092D01*
X125662040Y-83535092D01*
X125662044Y-83535092D01*
X125824495Y-83516788D01*
X125824496Y-83516787D01*
X125824501Y-83516787D01*
X125978815Y-83462790D01*
X126117244Y-83375809D01*
X126232848Y-83260205D01*
X126319829Y-83121776D01*
X126373826Y-82967462D01*
X126374837Y-82958492D01*
X126392131Y-82805004D01*
X126392131Y-82804997D01*
X126373827Y-82642545D01*
X126373826Y-82642543D01*
X126373826Y-82642540D01*
X126319829Y-82488226D01*
X126232848Y-82349797D01*
X126117244Y-82234193D01*
X126044066Y-82188212D01*
X125978814Y-82147211D01*
X125824495Y-82093213D01*
X125662044Y-82074910D01*
X125662036Y-82074910D01*
X125499584Y-82093213D01*
X125345265Y-82147211D01*
X125206835Y-82234193D01*
X125091232Y-82349796D01*
X125004250Y-82488226D01*
X124950252Y-82642545D01*
X124931949Y-82804997D01*
X123595920Y-82804997D01*
X123607187Y-82705004D01*
X123607187Y-82704997D01*
X123588883Y-82542545D01*
X123588882Y-82542543D01*
X123588882Y-82542540D01*
X123534885Y-82388226D01*
X123447904Y-82249797D01*
X123332300Y-82134193D01*
X123286427Y-82105369D01*
X123193870Y-82047211D01*
X123039551Y-81993213D01*
X122877100Y-81974910D01*
X122877092Y-81974910D01*
X122714640Y-81993213D01*
X122560321Y-82047211D01*
X122421891Y-82134193D01*
X122306288Y-82249796D01*
X122219306Y-82388226D01*
X122165308Y-82542545D01*
X122147005Y-82704997D01*
X117818895Y-82704997D01*
X117959523Y-82655789D01*
X118112263Y-82559816D01*
X118239817Y-82432262D01*
X118335790Y-82279522D01*
X118395369Y-82109255D01*
X118395807Y-82105368D01*
X118415566Y-81930003D01*
X118415566Y-81929996D01*
X118395370Y-81750750D01*
X118395369Y-81750745D01*
X118335789Y-81580476D01*
X118284754Y-81499255D01*
X118239817Y-81427738D01*
X118132075Y-81319996D01*
X120654436Y-81319996D01*
X120654436Y-81320003D01*
X120674631Y-81499249D01*
X120674632Y-81499254D01*
X120734212Y-81669523D01*
X120761067Y-81712262D01*
X120830185Y-81822262D01*
X120957739Y-81949816D01*
X121110479Y-82045789D01*
X121193702Y-82074910D01*
X121280746Y-82105368D01*
X121280751Y-82105369D01*
X121459997Y-82125565D01*
X121460001Y-82125565D01*
X121460005Y-82125565D01*
X121639250Y-82105369D01*
X121639253Y-82105368D01*
X121639256Y-82105368D01*
X121809523Y-82045789D01*
X121962263Y-81949816D01*
X122089817Y-81822262D01*
X122185790Y-81669522D01*
X122245369Y-81499255D01*
X122248719Y-81469522D01*
X122263212Y-81340897D01*
X129880810Y-81340897D01*
X129880810Y-81340904D01*
X129899113Y-81503356D01*
X129953111Y-81657675D01*
X130040093Y-81796105D01*
X130155697Y-81911709D01*
X130294126Y-81998690D01*
X130448440Y-82052687D01*
X130448443Y-82052687D01*
X130448445Y-82052688D01*
X130610897Y-82070992D01*
X130610901Y-82070992D01*
X130610905Y-82070992D01*
X130773356Y-82052688D01*
X130773357Y-82052687D01*
X130773362Y-82052687D01*
X130927676Y-81998690D01*
X131066105Y-81911709D01*
X131181709Y-81796105D01*
X131268690Y-81657676D01*
X131322687Y-81503362D01*
X131323150Y-81499254D01*
X131340992Y-81340904D01*
X131340992Y-81340897D01*
X131322688Y-81178445D01*
X131322687Y-81178443D01*
X131322687Y-81178440D01*
X131268690Y-81024126D01*
X131181709Y-80885697D01*
X131066105Y-80770093D01*
X131032305Y-80748855D01*
X130927675Y-80683111D01*
X130773356Y-80629113D01*
X130610905Y-80610810D01*
X130610897Y-80610810D01*
X130448445Y-80629113D01*
X130294126Y-80683111D01*
X130155696Y-80770093D01*
X130040093Y-80885696D01*
X129953111Y-81024126D01*
X129899113Y-81178445D01*
X129880810Y-81340897D01*
X122263212Y-81340897D01*
X122265566Y-81320003D01*
X122265566Y-81319996D01*
X122245370Y-81140750D01*
X122245369Y-81140745D01*
X122238110Y-81120000D01*
X122185790Y-80970478D01*
X122167107Y-80940745D01*
X122141199Y-80899512D01*
X122089817Y-80817738D01*
X121962263Y-80690184D01*
X121951006Y-80683111D01*
X121818731Y-80599996D01*
X128264910Y-80599996D01*
X128264910Y-80600003D01*
X128283213Y-80762455D01*
X128337211Y-80916774D01*
X128396912Y-81011787D01*
X128424193Y-81055204D01*
X128539797Y-81170808D01*
X128678226Y-81257789D01*
X128832540Y-81311786D01*
X128832543Y-81311786D01*
X128832545Y-81311787D01*
X128994997Y-81330091D01*
X128995001Y-81330091D01*
X128995005Y-81330091D01*
X129157456Y-81311787D01*
X129157457Y-81311786D01*
X129157462Y-81311786D01*
X129311776Y-81257789D01*
X129450205Y-81170808D01*
X129565809Y-81055204D01*
X129652790Y-80916775D01*
X129706787Y-80762461D01*
X129708321Y-80748849D01*
X129725092Y-80600003D01*
X129725092Y-80599996D01*
X129706788Y-80437544D01*
X129706787Y-80437542D01*
X129706787Y-80437539D01*
X129658658Y-80299996D01*
X134609910Y-80299996D01*
X134609910Y-80300003D01*
X134628213Y-80462455D01*
X134682211Y-80616774D01*
X134739367Y-80707737D01*
X134769193Y-80755204D01*
X134884797Y-80870808D01*
X135023226Y-80957789D01*
X135177540Y-81011786D01*
X135177543Y-81011786D01*
X135177545Y-81011787D01*
X135339997Y-81030091D01*
X135340001Y-81030091D01*
X135340005Y-81030091D01*
X135502456Y-81011787D01*
X135502457Y-81011786D01*
X135502462Y-81011786D01*
X135656776Y-80957789D01*
X135795205Y-80870808D01*
X135910809Y-80755204D01*
X135997790Y-80616775D01*
X136014299Y-80569596D01*
X141854036Y-80569596D01*
X141854036Y-80569603D01*
X141874231Y-80748849D01*
X141874232Y-80748854D01*
X141933812Y-80919123D01*
X142019318Y-81055204D01*
X142029785Y-81071862D01*
X142157339Y-81199416D01*
X142250239Y-81257789D01*
X142259688Y-81263726D01*
X142305979Y-81316061D01*
X142316936Y-81382602D01*
X142311236Y-81433195D01*
X142311236Y-81433203D01*
X142331431Y-81612449D01*
X142331432Y-81612454D01*
X142391012Y-81782723D01*
X142468076Y-81905368D01*
X142486985Y-81935462D01*
X142614539Y-82063016D01*
X142767279Y-82158989D01*
X142879086Y-82198112D01*
X142937546Y-82218568D01*
X142937551Y-82218569D01*
X143116797Y-82238765D01*
X143116801Y-82238765D01*
X143116805Y-82238765D01*
X143296050Y-82218569D01*
X143296053Y-82218568D01*
X143296056Y-82218568D01*
X143466323Y-82158989D01*
X143619063Y-82063016D01*
X143746617Y-81935462D01*
X143842590Y-81782722D01*
X143902169Y-81612455D01*
X143908133Y-81559522D01*
X143922366Y-81433203D01*
X143922366Y-81433196D01*
X143902170Y-81253950D01*
X143902169Y-81253945D01*
X143886790Y-81209996D01*
X144254436Y-81209996D01*
X144254436Y-81210003D01*
X144274631Y-81389249D01*
X144274632Y-81389254D01*
X144334212Y-81559523D01*
X144403330Y-81669523D01*
X144430185Y-81712262D01*
X144557739Y-81839816D01*
X144567245Y-81845789D01*
X144709958Y-81935462D01*
X144710479Y-81935789D01*
X144874587Y-81993213D01*
X144880746Y-81995368D01*
X144880751Y-81995369D01*
X145059997Y-82015565D01*
X145060001Y-82015565D01*
X145060005Y-82015565D01*
X145239250Y-81995369D01*
X145239253Y-81995368D01*
X145239256Y-81995368D01*
X145409523Y-81935789D01*
X145562263Y-81839816D01*
X145689817Y-81712262D01*
X145785790Y-81559522D01*
X145823705Y-81451166D01*
X145864427Y-81394391D01*
X145929379Y-81368643D01*
X145997941Y-81382099D01*
X146048344Y-81430486D01*
X146057789Y-81451167D01*
X146064211Y-81469521D01*
X146085471Y-81503356D01*
X146160185Y-81622262D01*
X146287739Y-81749816D01*
X146440479Y-81845789D01*
X146610746Y-81905368D01*
X146610751Y-81905369D01*
X146789997Y-81925565D01*
X146790001Y-81925565D01*
X146790005Y-81925565D01*
X146969250Y-81905369D01*
X146969253Y-81905368D01*
X146969256Y-81905368D01*
X147139523Y-81845789D01*
X147292263Y-81749816D01*
X147419817Y-81622262D01*
X147515790Y-81469522D01*
X147575369Y-81299255D01*
X147583011Y-81231422D01*
X147610076Y-81167013D01*
X147667671Y-81127457D01*
X147737507Y-81125318D01*
X147747187Y-81128268D01*
X147814341Y-81151767D01*
X147814351Y-81151769D01*
X147993597Y-81171965D01*
X147993601Y-81171965D01*
X147993605Y-81171965D01*
X148172850Y-81151769D01*
X148172853Y-81151768D01*
X148172856Y-81151768D01*
X148343123Y-81092189D01*
X148495863Y-80996216D01*
X148623417Y-80868662D01*
X148719390Y-80715922D01*
X148778969Y-80545655D01*
X148780211Y-80534631D01*
X148799166Y-80366403D01*
X148799166Y-80366396D01*
X148778970Y-80187150D01*
X148778969Y-80187145D01*
X148719389Y-80016876D01*
X148638545Y-79888214D01*
X148623417Y-79864138D01*
X148495863Y-79736584D01*
X148484099Y-79729192D01*
X148343124Y-79640611D01*
X148172855Y-79581031D01*
X148172850Y-79581030D01*
X147993605Y-79560835D01*
X147993597Y-79560835D01*
X147814351Y-79581030D01*
X147814346Y-79581031D01*
X147644077Y-79640611D01*
X147491338Y-79736584D01*
X147363785Y-79864137D01*
X147267812Y-80016876D01*
X147208232Y-80187145D01*
X147208231Y-80187149D01*
X147200590Y-80254973D01*
X147173523Y-80319387D01*
X147115929Y-80358942D01*
X147046092Y-80361079D01*
X147036417Y-80358131D01*
X146969261Y-80334633D01*
X146969250Y-80334630D01*
X146790005Y-80314435D01*
X146789997Y-80314435D01*
X146610751Y-80334630D01*
X146610746Y-80334631D01*
X146440477Y-80394211D01*
X146287738Y-80490184D01*
X146160185Y-80617737D01*
X146064209Y-80770480D01*
X146026295Y-80878833D01*
X145985573Y-80935609D01*
X145920620Y-80961356D01*
X145852059Y-80947899D01*
X145801656Y-80899512D01*
X145792213Y-80878836D01*
X145785790Y-80860478D01*
X145689817Y-80707738D01*
X145562263Y-80580184D01*
X145409524Y-80484211D01*
X145239255Y-80424631D01*
X145239250Y-80424630D01*
X145060005Y-80404435D01*
X145059997Y-80404435D01*
X144880751Y-80424630D01*
X144880746Y-80424631D01*
X144710477Y-80484211D01*
X144557738Y-80580184D01*
X144430185Y-80707737D01*
X144334212Y-80860476D01*
X144274632Y-81030745D01*
X144274631Y-81030750D01*
X144254436Y-81209996D01*
X143886790Y-81209996D01*
X143862560Y-81140750D01*
X143842590Y-81083678D01*
X143746617Y-80930938D01*
X143619063Y-80803384D01*
X143566697Y-80770480D01*
X143516713Y-80739073D01*
X143470422Y-80686738D01*
X143459465Y-80620194D01*
X143459851Y-80616775D01*
X143465166Y-80569600D01*
X143462468Y-80545655D01*
X143444970Y-80390350D01*
X143444969Y-80390345D01*
X143433697Y-80358131D01*
X143385390Y-80220078D01*
X143289417Y-80067338D01*
X143167043Y-79944964D01*
X143133558Y-79883641D01*
X143138542Y-79813949D01*
X143180414Y-79758016D01*
X143188743Y-79752294D01*
X143272263Y-79699816D01*
X143399817Y-79572262D01*
X143495790Y-79419522D01*
X143555369Y-79249255D01*
X143570035Y-79119091D01*
X143575566Y-79070003D01*
X143575566Y-79069996D01*
X143555370Y-78890750D01*
X143555369Y-78890745D01*
X143522995Y-78798225D01*
X143495790Y-78720478D01*
X143399817Y-78567738D01*
X143349760Y-78517681D01*
X143316275Y-78456358D01*
X143321259Y-78386666D01*
X143349760Y-78342319D01*
X143399760Y-78292319D01*
X143449817Y-78242262D01*
X143545790Y-78089522D01*
X143605110Y-77919996D01*
X150509910Y-77919996D01*
X150509910Y-77920003D01*
X150528213Y-78082455D01*
X150582211Y-78236774D01*
X150636897Y-78323805D01*
X150669193Y-78375204D01*
X150784797Y-78490808D01*
X150923226Y-78577789D01*
X151077540Y-78631786D01*
X151077543Y-78631786D01*
X151077545Y-78631787D01*
X151239997Y-78650091D01*
X151240001Y-78650091D01*
X151240005Y-78650091D01*
X151402456Y-78631787D01*
X151402457Y-78631786D01*
X151402462Y-78631786D01*
X151556776Y-78577789D01*
X151695205Y-78490808D01*
X151810809Y-78375204D01*
X151847229Y-78317240D01*
X151899561Y-78270951D01*
X151911250Y-78266177D01*
X152032677Y-78223689D01*
X152171106Y-78136708D01*
X152286710Y-78021104D01*
X152373691Y-77882675D01*
X152394999Y-77821777D01*
X152435719Y-77765001D01*
X152447114Y-77757929D01*
X152446779Y-77757395D01*
X152452674Y-77753690D01*
X152452676Y-77753690D01*
X152591105Y-77666709D01*
X152706709Y-77551105D01*
X152793690Y-77412676D01*
X152816672Y-77346995D01*
X152857393Y-77290219D01*
X152892761Y-77270907D01*
X152917613Y-77262211D01*
X152927676Y-77258690D01*
X153066105Y-77171709D01*
X153181709Y-77056105D01*
X153268690Y-76917676D01*
X153269243Y-76916097D01*
X153269874Y-76915216D01*
X153271711Y-76911403D01*
X153272378Y-76911724D01*
X153309963Y-76859320D01*
X153345329Y-76840007D01*
X153377677Y-76828689D01*
X153516106Y-76741708D01*
X153631710Y-76626104D01*
X153718691Y-76487675D01*
X153744364Y-76414303D01*
X153785085Y-76357527D01*
X153820451Y-76338215D01*
X153847676Y-76328690D01*
X153986105Y-76241709D01*
X154101709Y-76126105D01*
X154188690Y-75987676D01*
X154242687Y-75833362D01*
X154247230Y-75793041D01*
X154260992Y-75670904D01*
X154260992Y-75670897D01*
X154242688Y-75508445D01*
X154242687Y-75508443D01*
X154242687Y-75508440D01*
X154188690Y-75354126D01*
X154101709Y-75215697D01*
X153986105Y-75100093D01*
X153942651Y-75072789D01*
X153847675Y-75013111D01*
X153693356Y-74959113D01*
X153530905Y-74940810D01*
X153530897Y-74940810D01*
X153368445Y-74959113D01*
X153214126Y-75013111D01*
X153075696Y-75100093D01*
X152960093Y-75215696D01*
X152873113Y-75354123D01*
X152873112Y-75354124D01*
X152847437Y-75427499D01*
X152806715Y-75484275D01*
X152771353Y-75503584D01*
X152744124Y-75513112D01*
X152605697Y-75600092D01*
X152490094Y-75715695D01*
X152403113Y-75854125D01*
X152403106Y-75854139D01*
X152402552Y-75855724D01*
X152401917Y-75856607D01*
X152400090Y-75860403D01*
X152399424Y-75860082D01*
X152361821Y-75912494D01*
X152326476Y-75931791D01*
X152294128Y-75943111D01*
X152155696Y-76030093D01*
X152040093Y-76145696D01*
X151953113Y-76284123D01*
X151953112Y-76284124D01*
X151930128Y-76349808D01*
X151889405Y-76406584D01*
X151854045Y-76425892D01*
X151819128Y-76438111D01*
X151819123Y-76438113D01*
X151680696Y-76525093D01*
X151565093Y-76640696D01*
X151478113Y-76779123D01*
X151478112Y-76779124D01*
X151456801Y-76840027D01*
X151416078Y-76896803D01*
X151404692Y-76903881D01*
X151405023Y-76904407D01*
X151399129Y-76908110D01*
X151399127Y-76908111D01*
X151357233Y-76934435D01*
X151260697Y-76995092D01*
X151145096Y-77110693D01*
X151145093Y-77110697D01*
X151108672Y-77168660D01*
X151056337Y-77214951D01*
X151044638Y-77219726D01*
X151016552Y-77229554D01*
X150923226Y-77262210D01*
X150784796Y-77349192D01*
X150669193Y-77464795D01*
X150582211Y-77603225D01*
X150528213Y-77757544D01*
X150509910Y-77919996D01*
X143605110Y-77919996D01*
X143605369Y-77919255D01*
X143605370Y-77919249D01*
X143625566Y-77740003D01*
X143625566Y-77739996D01*
X143605370Y-77560750D01*
X143605369Y-77560745D01*
X143571795Y-77464796D01*
X143545790Y-77390478D01*
X143449817Y-77237738D01*
X143322263Y-77110184D01*
X143169524Y-77014211D01*
X142999255Y-76954631D01*
X142999250Y-76954630D01*
X142820005Y-76934435D01*
X142819997Y-76934435D01*
X142640751Y-76954630D01*
X142640746Y-76954631D01*
X142470477Y-77014211D01*
X142317738Y-77110184D01*
X142190185Y-77237737D01*
X142094212Y-77390476D01*
X142034632Y-77560745D01*
X142034631Y-77560750D01*
X142014436Y-77739996D01*
X142014436Y-77740003D01*
X142034631Y-77919249D01*
X142034632Y-77919254D01*
X142094212Y-78089523D01*
X142190185Y-78242262D01*
X142240242Y-78292319D01*
X142273727Y-78353642D01*
X142268743Y-78423334D01*
X142240242Y-78467681D01*
X142140185Y-78567737D01*
X142044212Y-78720476D01*
X141984632Y-78890745D01*
X141984631Y-78890750D01*
X141964436Y-79069996D01*
X141964436Y-79070003D01*
X141984631Y-79249249D01*
X141984632Y-79249254D01*
X142044212Y-79419523D01*
X142140185Y-79572262D01*
X142262558Y-79694635D01*
X142296043Y-79755958D01*
X142291059Y-79825650D01*
X142249187Y-79881583D01*
X142240850Y-79887309D01*
X142157341Y-79939782D01*
X142157338Y-79939784D01*
X142029785Y-80067337D01*
X141933812Y-80220076D01*
X141874232Y-80390345D01*
X141874231Y-80390350D01*
X141854036Y-80569596D01*
X136014299Y-80569596D01*
X136051787Y-80462461D01*
X136051788Y-80462455D01*
X136070092Y-80300003D01*
X136070092Y-80299996D01*
X136051788Y-80137544D01*
X136051787Y-80137542D01*
X136051787Y-80137539D01*
X135997790Y-79983225D01*
X135910809Y-79844796D01*
X135795205Y-79729192D01*
X135726160Y-79685808D01*
X135656775Y-79642210D01*
X135502456Y-79588212D01*
X135340005Y-79569909D01*
X135339997Y-79569909D01*
X135177545Y-79588212D01*
X135023226Y-79642210D01*
X134884796Y-79729192D01*
X134769193Y-79844795D01*
X134682211Y-79983225D01*
X134628213Y-80137544D01*
X134609910Y-80299996D01*
X129658658Y-80299996D01*
X129652790Y-80283225D01*
X129565809Y-80144796D01*
X129450205Y-80029192D01*
X129311775Y-79942210D01*
X129157456Y-79888212D01*
X128995005Y-79869909D01*
X128994997Y-79869909D01*
X128832545Y-79888212D01*
X128678226Y-79942210D01*
X128539796Y-80029192D01*
X128424193Y-80144795D01*
X128337211Y-80283225D01*
X128283213Y-80437544D01*
X128264910Y-80599996D01*
X121818731Y-80599996D01*
X121809524Y-80594211D01*
X121639255Y-80534631D01*
X121639250Y-80534630D01*
X121460005Y-80514435D01*
X121459997Y-80514435D01*
X121280751Y-80534630D01*
X121280746Y-80534631D01*
X121110477Y-80594211D01*
X120957738Y-80690184D01*
X120830185Y-80817737D01*
X120734212Y-80970476D01*
X120674632Y-81140745D01*
X120674631Y-81140750D01*
X120654436Y-81319996D01*
X118132075Y-81319996D01*
X118112263Y-81300184D01*
X118104632Y-81295389D01*
X117959524Y-81204211D01*
X117789255Y-81144631D01*
X117789250Y-81144630D01*
X117610005Y-81124435D01*
X117609997Y-81124435D01*
X117430751Y-81144630D01*
X117430746Y-81144631D01*
X117260477Y-81204211D01*
X117107738Y-81300184D01*
X116980185Y-81427737D01*
X116884212Y-81580476D01*
X116824632Y-81750745D01*
X116824631Y-81750750D01*
X116804436Y-81929996D01*
X115511080Y-81929996D01*
X115510412Y-78486262D01*
X120285445Y-78486262D01*
X120285445Y-78486269D01*
X120303748Y-78648721D01*
X120357746Y-78803040D01*
X120357747Y-78803041D01*
X120444728Y-78941470D01*
X120560332Y-79057074D01*
X120698761Y-79144055D01*
X120853075Y-79198052D01*
X120853078Y-79198052D01*
X120853080Y-79198053D01*
X121015532Y-79216357D01*
X121015536Y-79216357D01*
X121015540Y-79216357D01*
X121177991Y-79198053D01*
X121177992Y-79198052D01*
X121177997Y-79198052D01*
X121332311Y-79144055D01*
X121378558Y-79114996D01*
X127299910Y-79114996D01*
X127299910Y-79115003D01*
X127318213Y-79277455D01*
X127372211Y-79431774D01*
X127372212Y-79431775D01*
X127459193Y-79570204D01*
X127574797Y-79685808D01*
X127713226Y-79772789D01*
X127867540Y-79826786D01*
X127867543Y-79826786D01*
X127867545Y-79826787D01*
X128029997Y-79845091D01*
X128030001Y-79845091D01*
X128030005Y-79845091D01*
X128192456Y-79826787D01*
X128192457Y-79826786D01*
X128192462Y-79826786D01*
X128346776Y-79772789D01*
X128485205Y-79685808D01*
X128600809Y-79570204D01*
X128687790Y-79431775D01*
X128741787Y-79277461D01*
X128750734Y-79198053D01*
X128760092Y-79115003D01*
X128760092Y-79114996D01*
X128741788Y-78952544D01*
X128741787Y-78952542D01*
X128741787Y-78952539D01*
X128687790Y-78798225D01*
X128600809Y-78659796D01*
X128485205Y-78544192D01*
X128443013Y-78517681D01*
X128346775Y-78457210D01*
X128192456Y-78403212D01*
X128030005Y-78384909D01*
X128029997Y-78384909D01*
X127867545Y-78403212D01*
X127713226Y-78457210D01*
X127574796Y-78544192D01*
X127459193Y-78659795D01*
X127372211Y-78798225D01*
X127318213Y-78952544D01*
X127299910Y-79114996D01*
X121378558Y-79114996D01*
X121470740Y-79057074D01*
X121586344Y-78941470D01*
X121673325Y-78803041D01*
X121727322Y-78648727D01*
X121735315Y-78577789D01*
X121745627Y-78486269D01*
X121745627Y-78486262D01*
X121727323Y-78323810D01*
X121727322Y-78323808D01*
X121727322Y-78323805D01*
X121673325Y-78169491D01*
X121586344Y-78031062D01*
X121470740Y-77915458D01*
X121434131Y-77892455D01*
X121332310Y-77828476D01*
X121177991Y-77774478D01*
X121015540Y-77756175D01*
X121015532Y-77756175D01*
X120853080Y-77774478D01*
X120698761Y-77828476D01*
X120560331Y-77915458D01*
X120444728Y-78031061D01*
X120357746Y-78169491D01*
X120303748Y-78323810D01*
X120285445Y-78486262D01*
X115510412Y-78486262D01*
X115510098Y-76869996D01*
X116619910Y-76869996D01*
X116619910Y-76870003D01*
X116638213Y-77032455D01*
X116692211Y-77186774D01*
X116724234Y-77237738D01*
X116779193Y-77325204D01*
X116894797Y-77440808D01*
X117033226Y-77527789D01*
X117187540Y-77581786D01*
X117187543Y-77581786D01*
X117187545Y-77581787D01*
X117349997Y-77600091D01*
X117350001Y-77600091D01*
X117350005Y-77600091D01*
X117512456Y-77581787D01*
X117512457Y-77581786D01*
X117512462Y-77581786D01*
X117666776Y-77527789D01*
X117805205Y-77440808D01*
X117920809Y-77325204D01*
X117995545Y-77206262D01*
X132205445Y-77206262D01*
X132205445Y-77206269D01*
X132223748Y-77368721D01*
X132277746Y-77523040D01*
X132326161Y-77600091D01*
X132364728Y-77661470D01*
X132480332Y-77777074D01*
X132618761Y-77864055D01*
X132773075Y-77918052D01*
X132773078Y-77918052D01*
X132773080Y-77918053D01*
X132935532Y-77936357D01*
X132935536Y-77936357D01*
X132935540Y-77936357D01*
X133097991Y-77918053D01*
X133097992Y-77918052D01*
X133097997Y-77918052D01*
X133252311Y-77864055D01*
X133390740Y-77777074D01*
X133437818Y-77729996D01*
X134629910Y-77729996D01*
X134629910Y-77730003D01*
X134648213Y-77892455D01*
X134702211Y-78046774D01*
X134702212Y-78046775D01*
X134789193Y-78185204D01*
X134904797Y-78300808D01*
X135043226Y-78387789D01*
X135197540Y-78441786D01*
X135197543Y-78441786D01*
X135197545Y-78441787D01*
X135359997Y-78460091D01*
X135360001Y-78460091D01*
X135360005Y-78460091D01*
X135522456Y-78441787D01*
X135522457Y-78441786D01*
X135522462Y-78441786D01*
X135676776Y-78387789D01*
X135815205Y-78300808D01*
X135930809Y-78185204D01*
X136017790Y-78046775D01*
X136071787Y-77892461D01*
X136074988Y-77864055D01*
X136090092Y-77730003D01*
X136090092Y-77729996D01*
X136071788Y-77567544D01*
X136071787Y-77567542D01*
X136071787Y-77567539D01*
X136017790Y-77413225D01*
X135930809Y-77274796D01*
X135815205Y-77159192D01*
X135738026Y-77110697D01*
X135676775Y-77072210D01*
X135522456Y-77018212D01*
X135360005Y-76999909D01*
X135359997Y-76999909D01*
X135197545Y-77018212D01*
X135043226Y-77072210D01*
X134904796Y-77159192D01*
X134789193Y-77274795D01*
X134702211Y-77413225D01*
X134648213Y-77567544D01*
X134629910Y-77729996D01*
X133437818Y-77729996D01*
X133506344Y-77661470D01*
X133593325Y-77523041D01*
X133647322Y-77368727D01*
X133652226Y-77325204D01*
X133665627Y-77206269D01*
X133665627Y-77206262D01*
X133647323Y-77043810D01*
X133647322Y-77043808D01*
X133647322Y-77043805D01*
X133593325Y-76889491D01*
X133506344Y-76751062D01*
X133390740Y-76635458D01*
X133307318Y-76583040D01*
X133252310Y-76548476D01*
X133097991Y-76494478D01*
X132935540Y-76476175D01*
X132935532Y-76476175D01*
X132773080Y-76494478D01*
X132618761Y-76548476D01*
X132480331Y-76635458D01*
X132364728Y-76751061D01*
X132277746Y-76889491D01*
X132223748Y-77043810D01*
X132205445Y-77206262D01*
X117995545Y-77206262D01*
X118007790Y-77186775D01*
X118061787Y-77032461D01*
X118061788Y-77032455D01*
X118080092Y-76870003D01*
X118080092Y-76869996D01*
X118061788Y-76707544D01*
X118061787Y-76707542D01*
X118061787Y-76707539D01*
X118007790Y-76553225D01*
X117920809Y-76414796D01*
X117805205Y-76299192D01*
X117752798Y-76266262D01*
X121419910Y-76266262D01*
X121419910Y-76266269D01*
X121438213Y-76428721D01*
X121492211Y-76583040D01*
X121492212Y-76583041D01*
X121579193Y-76721470D01*
X121694797Y-76837074D01*
X121833226Y-76924055D01*
X121987540Y-76978052D01*
X121987543Y-76978052D01*
X121987545Y-76978053D01*
X122149997Y-76996357D01*
X122150001Y-76996357D01*
X122150005Y-76996357D01*
X122312456Y-76978053D01*
X122312457Y-76978052D01*
X122312462Y-76978052D01*
X122466776Y-76924055D01*
X122605205Y-76837074D01*
X122720809Y-76721470D01*
X122807790Y-76583041D01*
X122861787Y-76428727D01*
X122861788Y-76428721D01*
X122880092Y-76266269D01*
X122880092Y-76266262D01*
X122861788Y-76103810D01*
X122861787Y-76103808D01*
X122861787Y-76103805D01*
X122807790Y-75949491D01*
X122720809Y-75811062D01*
X122605205Y-75695458D01*
X122566117Y-75670897D01*
X122466775Y-75608476D01*
X122312456Y-75554478D01*
X122150005Y-75536175D01*
X122149997Y-75536175D01*
X121987545Y-75554478D01*
X121833226Y-75608476D01*
X121694796Y-75695458D01*
X121579193Y-75811061D01*
X121492211Y-75949491D01*
X121438213Y-76103810D01*
X121419910Y-76266262D01*
X117752798Y-76266262D01*
X117666775Y-76212210D01*
X117512456Y-76158212D01*
X117350005Y-76139909D01*
X117349997Y-76139909D01*
X117187545Y-76158212D01*
X117033226Y-76212210D01*
X116894796Y-76299192D01*
X116779193Y-76414795D01*
X116692211Y-76553225D01*
X116638213Y-76707544D01*
X116619910Y-76869996D01*
X115510098Y-76869996D01*
X115509620Y-74404995D01*
X122975445Y-74404995D01*
X122975445Y-74405002D01*
X122993748Y-74567454D01*
X123047746Y-74721773D01*
X123104064Y-74811402D01*
X123134728Y-74860203D01*
X123250332Y-74975807D01*
X123322353Y-75021061D01*
X123394657Y-75066493D01*
X123393452Y-75068409D01*
X123437335Y-75108030D01*
X123455647Y-75175457D01*
X123448715Y-75213880D01*
X123413748Y-75313810D01*
X123395445Y-75476262D01*
X123395445Y-75476269D01*
X123413748Y-75638721D01*
X123467746Y-75793040D01*
X123543016Y-75912830D01*
X123554728Y-75931470D01*
X123670332Y-76047074D01*
X123808761Y-76134055D01*
X123963075Y-76188052D01*
X123963078Y-76188052D01*
X123963080Y-76188053D01*
X124125532Y-76206357D01*
X124125536Y-76206357D01*
X124125540Y-76206357D01*
X124287991Y-76188053D01*
X124287992Y-76188052D01*
X124287997Y-76188052D01*
X124442311Y-76134055D01*
X124580740Y-76047074D01*
X124696344Y-75931470D01*
X124783325Y-75793041D01*
X124837322Y-75638727D01*
X124837323Y-75638721D01*
X124855627Y-75476269D01*
X124855627Y-75476262D01*
X124837323Y-75313810D01*
X124837322Y-75313808D01*
X124837322Y-75313805D01*
X124783325Y-75159491D01*
X124696344Y-75021062D01*
X124580740Y-74905458D01*
X124524634Y-74870204D01*
X124436415Y-74814772D01*
X124437617Y-74812859D01*
X124393727Y-74773219D01*
X124375424Y-74705789D01*
X124382357Y-74667383D01*
X124396893Y-74625842D01*
X124417322Y-74567460D01*
X124417322Y-74567458D01*
X124417323Y-74567456D01*
X124434501Y-74414996D01*
X124865445Y-74414996D01*
X124865445Y-74415003D01*
X124883748Y-74577455D01*
X124883749Y-74577460D01*
X124883750Y-74577461D01*
X124890915Y-74597939D01*
X124937746Y-74731774D01*
X125018444Y-74860203D01*
X125024728Y-74870204D01*
X125140332Y-74985808D01*
X125278761Y-75072789D01*
X125433075Y-75126786D01*
X125433078Y-75126786D01*
X125433080Y-75126787D01*
X125595532Y-75145091D01*
X125595536Y-75145091D01*
X125595540Y-75145091D01*
X125757991Y-75126787D01*
X125757992Y-75126786D01*
X125757997Y-75126786D01*
X125912311Y-75072789D01*
X126050740Y-74985808D01*
X126166344Y-74870204D01*
X126253325Y-74731775D01*
X126307322Y-74577461D01*
X126308449Y-74567460D01*
X126325627Y-74415003D01*
X126325627Y-74414996D01*
X126725445Y-74414996D01*
X126725445Y-74415003D01*
X126743748Y-74577455D01*
X126743749Y-74577460D01*
X126743750Y-74577461D01*
X126750915Y-74597939D01*
X126797746Y-74731774D01*
X126878444Y-74860203D01*
X126884728Y-74870204D01*
X127000332Y-74985808D01*
X127138761Y-75072789D01*
X127293075Y-75126786D01*
X127293078Y-75126786D01*
X127293080Y-75126787D01*
X127455532Y-75145091D01*
X127455536Y-75145091D01*
X127455540Y-75145091D01*
X127617991Y-75126787D01*
X127617992Y-75126786D01*
X127617997Y-75126786D01*
X127772311Y-75072789D01*
X127910740Y-74985808D01*
X128026344Y-74870204D01*
X128113325Y-74731775D01*
X128167322Y-74577461D01*
X128168449Y-74567460D01*
X128185627Y-74415003D01*
X128185627Y-74414996D01*
X128167323Y-74252544D01*
X128167322Y-74252542D01*
X128167322Y-74252539D01*
X128113325Y-74098225D01*
X128026344Y-73959796D01*
X127910740Y-73844192D01*
X127894824Y-73834191D01*
X127772310Y-73757210D01*
X127665957Y-73719996D01*
X134619910Y-73719996D01*
X134619910Y-73720003D01*
X134638213Y-73882455D01*
X134692211Y-74036774D01*
X134730824Y-74098225D01*
X134779193Y-74175204D01*
X134894797Y-74290808D01*
X135033226Y-74377789D01*
X135187540Y-74431786D01*
X135187543Y-74431786D01*
X135187545Y-74431787D01*
X135349997Y-74450091D01*
X135350001Y-74450091D01*
X135350005Y-74450091D01*
X135512456Y-74431787D01*
X135512457Y-74431786D01*
X135512462Y-74431786D01*
X135666776Y-74377789D01*
X135805205Y-74290808D01*
X135920809Y-74175204D01*
X136007790Y-74036775D01*
X136061787Y-73882461D01*
X136061788Y-73882455D01*
X136080092Y-73720003D01*
X136080092Y-73719996D01*
X136061788Y-73557544D01*
X136061787Y-73557542D01*
X136061787Y-73557539D01*
X136007790Y-73403225D01*
X135920809Y-73264796D01*
X135805205Y-73149192D01*
X135719117Y-73095099D01*
X135666775Y-73062210D01*
X135512456Y-73008212D01*
X135350005Y-72989909D01*
X135349997Y-72989909D01*
X135187545Y-73008212D01*
X135033226Y-73062210D01*
X134894796Y-73149192D01*
X134779193Y-73264795D01*
X134692211Y-73403225D01*
X134638213Y-73557544D01*
X134619910Y-73719996D01*
X127665957Y-73719996D01*
X127617991Y-73703212D01*
X127455540Y-73684909D01*
X127455532Y-73684909D01*
X127293080Y-73703212D01*
X127138761Y-73757210D01*
X127000331Y-73844192D01*
X126884728Y-73959795D01*
X126797746Y-74098225D01*
X126743748Y-74252544D01*
X126725445Y-74414996D01*
X126325627Y-74414996D01*
X126307323Y-74252544D01*
X126307322Y-74252542D01*
X126307322Y-74252539D01*
X126253325Y-74098225D01*
X126166344Y-73959796D01*
X126050740Y-73844192D01*
X126034824Y-73834191D01*
X125912310Y-73757210D01*
X125757991Y-73703212D01*
X125595540Y-73684909D01*
X125595532Y-73684909D01*
X125433080Y-73703212D01*
X125278761Y-73757210D01*
X125140331Y-73844192D01*
X125024728Y-73959795D01*
X124937746Y-74098225D01*
X124883748Y-74252544D01*
X124865445Y-74414996D01*
X124434501Y-74414996D01*
X124435627Y-74405002D01*
X124435627Y-74404995D01*
X124417323Y-74242543D01*
X124417322Y-74242541D01*
X124417322Y-74242538D01*
X124363325Y-74088224D01*
X124276344Y-73949795D01*
X124160740Y-73834191D01*
X124022310Y-73747209D01*
X123867991Y-73693211D01*
X123705540Y-73674908D01*
X123705532Y-73674908D01*
X123543080Y-73693211D01*
X123388761Y-73747209D01*
X123250331Y-73834191D01*
X123134728Y-73949794D01*
X123047746Y-74088224D01*
X122993748Y-74242543D01*
X122975445Y-74404995D01*
X115509620Y-74404995D01*
X115509331Y-72915361D01*
X137494544Y-72915361D01*
X137494544Y-72915368D01*
X137512847Y-73077820D01*
X137566845Y-73232139D01*
X137612886Y-73305412D01*
X137653827Y-73370569D01*
X137769431Y-73486173D01*
X137907860Y-73573154D01*
X138062174Y-73627151D01*
X138062177Y-73627151D01*
X138062179Y-73627152D01*
X138224631Y-73645456D01*
X138224635Y-73645456D01*
X138224639Y-73645456D01*
X138387092Y-73627152D01*
X138387094Y-73627151D01*
X138387096Y-73627151D01*
X138541410Y-73573154D01*
X138555925Y-73564032D01*
X138623158Y-73545031D01*
X138662851Y-73551983D01*
X138737350Y-73578052D01*
X138737354Y-73578052D01*
X138737356Y-73578053D01*
X138737353Y-73578053D01*
X138899807Y-73596357D01*
X138899811Y-73596357D01*
X138899815Y-73596357D01*
X139062266Y-73578053D01*
X139062267Y-73578052D01*
X139062272Y-73578052D01*
X139116159Y-73559196D01*
X140685636Y-73559196D01*
X140685636Y-73559203D01*
X140705831Y-73738449D01*
X140705832Y-73738454D01*
X140765412Y-73908723D01*
X140830112Y-74011692D01*
X140861385Y-74061462D01*
X140988939Y-74189016D01*
X141141679Y-74284989D01*
X141299174Y-74340099D01*
X141311946Y-74344568D01*
X141311951Y-74344569D01*
X141491197Y-74364765D01*
X141491201Y-74364765D01*
X141491205Y-74364765D01*
X141670450Y-74344569D01*
X141670453Y-74344568D01*
X141670456Y-74344568D01*
X141840723Y-74284989D01*
X141993463Y-74189016D01*
X142121017Y-74061462D01*
X142216990Y-73908722D01*
X142276569Y-73738455D01*
X142278648Y-73720003D01*
X142296766Y-73559203D01*
X142296766Y-73559196D01*
X142276570Y-73379950D01*
X142276569Y-73379945D01*
X142250489Y-73305412D01*
X142216990Y-73209678D01*
X142121017Y-73056938D01*
X142106214Y-73042135D01*
X154859501Y-73042135D01*
X154859501Y-74837870D01*
X154859502Y-74837876D01*
X154865909Y-74897483D01*
X154916203Y-75032328D01*
X154916207Y-75032335D01*
X155002453Y-75147544D01*
X155002456Y-75147547D01*
X155117665Y-75233793D01*
X155117672Y-75233797D01*
X155252518Y-75284091D01*
X155252517Y-75284091D01*
X155259445Y-75284835D01*
X155312128Y-75290500D01*
X157107873Y-75290499D01*
X157167484Y-75284091D01*
X157302332Y-75233796D01*
X157417547Y-75147546D01*
X157503797Y-75032331D01*
X157552811Y-74900916D01*
X157594682Y-74844984D01*
X157660146Y-74820566D01*
X157728419Y-74835417D01*
X157756674Y-74856569D01*
X157878600Y-74978495D01*
X157975385Y-75046265D01*
X158072166Y-75114032D01*
X158072168Y-75114033D01*
X158072171Y-75114035D01*
X158286338Y-75213903D01*
X158286344Y-75213904D01*
X158286345Y-75213905D01*
X158293033Y-75215697D01*
X158514593Y-75275063D01*
X158691035Y-75290500D01*
X158750000Y-75295659D01*
X158750001Y-75295659D01*
X158750002Y-75295659D01*
X158808967Y-75290500D01*
X158985409Y-75275063D01*
X159213664Y-75213903D01*
X159427831Y-75114035D01*
X159621402Y-74978495D01*
X159788496Y-74811401D01*
X159918426Y-74625842D01*
X159973003Y-74582217D01*
X160042501Y-74575023D01*
X160104856Y-74606546D01*
X160121576Y-74625842D01*
X160251282Y-74811082D01*
X160251506Y-74811401D01*
X160418600Y-74978495D01*
X160515385Y-75046265D01*
X160612166Y-75114032D01*
X160612168Y-75114033D01*
X160612171Y-75114035D01*
X160826338Y-75213903D01*
X160826344Y-75213904D01*
X160826345Y-75213905D01*
X160833033Y-75215697D01*
X161054593Y-75275063D01*
X161231035Y-75290500D01*
X161290000Y-75295659D01*
X161290001Y-75295659D01*
X161290002Y-75295659D01*
X161348967Y-75290500D01*
X161525409Y-75275063D01*
X161753664Y-75213903D01*
X161967831Y-75114035D01*
X162161402Y-74978495D01*
X162328496Y-74811401D01*
X162458426Y-74625842D01*
X162513003Y-74582217D01*
X162582501Y-74575023D01*
X162644856Y-74606546D01*
X162661576Y-74625842D01*
X162791282Y-74811082D01*
X162791506Y-74811401D01*
X162958600Y-74978495D01*
X163055385Y-75046265D01*
X163152166Y-75114032D01*
X163152168Y-75114033D01*
X163152171Y-75114035D01*
X163366338Y-75213903D01*
X163366344Y-75213904D01*
X163366345Y-75213905D01*
X163373033Y-75215697D01*
X163594593Y-75275063D01*
X163771035Y-75290500D01*
X163830000Y-75295659D01*
X163830001Y-75295659D01*
X163830002Y-75295659D01*
X163888967Y-75290500D01*
X164065409Y-75275063D01*
X164293664Y-75213903D01*
X164507831Y-75114035D01*
X164701402Y-74978495D01*
X164868496Y-74811401D01*
X164998731Y-74625405D01*
X165053308Y-74581781D01*
X165122806Y-74574587D01*
X165185161Y-74606110D01*
X165201880Y-74625405D01*
X165331891Y-74811078D01*
X165498918Y-74978105D01*
X165692422Y-75113600D01*
X165906508Y-75213429D01*
X165906517Y-75213433D01*
X166120001Y-75270634D01*
X166120001Y-74373012D01*
X166177008Y-74405925D01*
X166304175Y-74440000D01*
X166435827Y-74440000D01*
X166562994Y-74405925D01*
X166620001Y-74373012D01*
X166620001Y-75270633D01*
X166752995Y-75234999D01*
X170634342Y-75234999D01*
X170634342Y-75235000D01*
X170654937Y-75470403D01*
X170654939Y-75470413D01*
X170716095Y-75698655D01*
X170716097Y-75698659D01*
X170716098Y-75698663D01*
X170788591Y-75854125D01*
X170815966Y-75912830D01*
X170815968Y-75912834D01*
X170909964Y-76047073D01*
X170951502Y-76106396D01*
X170951507Y-76106402D01*
X171073431Y-76228326D01*
X171106916Y-76289649D01*
X171101932Y-76359341D01*
X171060060Y-76415274D01*
X171029084Y-76432189D01*
X170897670Y-76481203D01*
X170897665Y-76481206D01*
X170782456Y-76567452D01*
X170782453Y-76567455D01*
X170696207Y-76682664D01*
X170696203Y-76682671D01*
X170645909Y-76817517D01*
X170640267Y-76870000D01*
X170639502Y-76877123D01*
X170639501Y-76877135D01*
X170639501Y-78672870D01*
X170639502Y-78672876D01*
X170645909Y-78732483D01*
X170696203Y-78867328D01*
X170696207Y-78867335D01*
X170782453Y-78982544D01*
X170782456Y-78982547D01*
X170897665Y-79068793D01*
X170897672Y-79068797D01*
X171032518Y-79119091D01*
X171032517Y-79119091D01*
X171039445Y-79119835D01*
X171092128Y-79125500D01*
X172887873Y-79125499D01*
X172947484Y-79119091D01*
X173082332Y-79068796D01*
X173197547Y-78982546D01*
X173283797Y-78867331D01*
X173334092Y-78732483D01*
X173340501Y-78672873D01*
X173340500Y-76877128D01*
X173334092Y-76817517D01*
X173319772Y-76779124D01*
X173283798Y-76682671D01*
X173283794Y-76682664D01*
X173197548Y-76567455D01*
X173197545Y-76567452D01*
X173082336Y-76481206D01*
X173082329Y-76481202D01*
X172950918Y-76432189D01*
X172894984Y-76390318D01*
X172870567Y-76324853D01*
X172885419Y-76256580D01*
X172906564Y-76228332D01*
X173028496Y-76106401D01*
X173164036Y-75912830D01*
X173263904Y-75698663D01*
X173325064Y-75470408D01*
X173345660Y-75235000D01*
X173325064Y-74999592D01*
X173263904Y-74771337D01*
X173164036Y-74557171D01*
X173081993Y-74440000D01*
X173028495Y-74363597D01*
X172861403Y-74196506D01*
X172861402Y-74196505D01*
X172675406Y-74066269D01*
X172631782Y-74011692D01*
X172624589Y-73942193D01*
X172656111Y-73879839D01*
X172675406Y-73863119D01*
X172861083Y-73733105D01*
X173028106Y-73566082D01*
X173163601Y-73372578D01*
X173263430Y-73158492D01*
X173263433Y-73158486D01*
X173320637Y-72945000D01*
X172423013Y-72945000D01*
X172455926Y-72887993D01*
X172490001Y-72760826D01*
X172490001Y-72629174D01*
X172455926Y-72502007D01*
X172423013Y-72445000D01*
X173320637Y-72445000D01*
X173320636Y-72444999D01*
X173263433Y-72231513D01*
X173263430Y-72231507D01*
X173163601Y-72017422D01*
X173163600Y-72017420D01*
X173028114Y-71823926D01*
X173028109Y-71823920D01*
X172861083Y-71656894D01*
X172667579Y-71521399D01*
X172453493Y-71421570D01*
X172453487Y-71421567D01*
X172240001Y-71364364D01*
X172240001Y-72261988D01*
X172182994Y-72229075D01*
X172055827Y-72195000D01*
X171924175Y-72195000D01*
X171797008Y-72229075D01*
X171740001Y-72261988D01*
X171740001Y-71364364D01*
X171740000Y-71364364D01*
X171526514Y-71421567D01*
X171526508Y-71421570D01*
X171312423Y-71521399D01*
X171312421Y-71521400D01*
X171118927Y-71656886D01*
X171118921Y-71656891D01*
X170951892Y-71823920D01*
X170951887Y-71823926D01*
X170816401Y-72017420D01*
X170816400Y-72017422D01*
X170716571Y-72231507D01*
X170716568Y-72231513D01*
X170659365Y-72444999D01*
X170659365Y-72445000D01*
X171556989Y-72445000D01*
X171524076Y-72502007D01*
X171490001Y-72629174D01*
X171490001Y-72760826D01*
X171524076Y-72887993D01*
X171556989Y-72945000D01*
X170659365Y-72945000D01*
X170716568Y-73158486D01*
X170716571Y-73158492D01*
X170816400Y-73372578D01*
X170951895Y-73566082D01*
X171118918Y-73733105D01*
X171304596Y-73863119D01*
X171348220Y-73917696D01*
X171355413Y-73987195D01*
X171323891Y-74049549D01*
X171304596Y-74066269D01*
X171118595Y-74196508D01*
X170951506Y-74363597D01*
X170815966Y-74557169D01*
X170815965Y-74557171D01*
X170716099Y-74771335D01*
X170716095Y-74771344D01*
X170654939Y-74999586D01*
X170654937Y-74999596D01*
X170634342Y-75234999D01*
X166752995Y-75234999D01*
X166833484Y-75213433D01*
X166833493Y-75213429D01*
X167047579Y-75113600D01*
X167241083Y-74978105D01*
X167408106Y-74811082D01*
X167543601Y-74617578D01*
X167643430Y-74403492D01*
X167643433Y-74403486D01*
X167700637Y-74190000D01*
X166803013Y-74190000D01*
X166835926Y-74132993D01*
X166870001Y-74005826D01*
X166870001Y-73874174D01*
X166835926Y-73747007D01*
X166803013Y-73690000D01*
X167700637Y-73690000D01*
X167700636Y-73689999D01*
X167643433Y-73476513D01*
X167643430Y-73476507D01*
X167543601Y-73262422D01*
X167543600Y-73262420D01*
X167408114Y-73068926D01*
X167408109Y-73068920D01*
X167241083Y-72901894D01*
X167047579Y-72766399D01*
X166833493Y-72666570D01*
X166833487Y-72666567D01*
X166620001Y-72609364D01*
X166620001Y-73506988D01*
X166562994Y-73474075D01*
X166435827Y-73440000D01*
X166304175Y-73440000D01*
X166177008Y-73474075D01*
X166120001Y-73506988D01*
X166120001Y-72609364D01*
X166120000Y-72609364D01*
X165906514Y-72666567D01*
X165906508Y-72666570D01*
X165692423Y-72766399D01*
X165692421Y-72766400D01*
X165498927Y-72901886D01*
X165498921Y-72901891D01*
X165331892Y-73068920D01*
X165331891Y-73068922D01*
X165201881Y-73254595D01*
X165147304Y-73298219D01*
X165077805Y-73305412D01*
X165015451Y-73273890D01*
X164998731Y-73254594D01*
X164868495Y-73068597D01*
X164701403Y-72901506D01*
X164701396Y-72901501D01*
X164507835Y-72765967D01*
X164507831Y-72765965D01*
X164479822Y-72752904D01*
X164293664Y-72666097D01*
X164293660Y-72666096D01*
X164293656Y-72666094D01*
X164065414Y-72604938D01*
X164065404Y-72604936D01*
X163830002Y-72584341D01*
X163830000Y-72584341D01*
X163594597Y-72604936D01*
X163594587Y-72604938D01*
X163366345Y-72666094D01*
X163366336Y-72666098D01*
X163152172Y-72765964D01*
X163152170Y-72765965D01*
X162958598Y-72901505D01*
X162791506Y-73068597D01*
X162661576Y-73254158D01*
X162606999Y-73297783D01*
X162537501Y-73304977D01*
X162475146Y-73273454D01*
X162458426Y-73254158D01*
X162328495Y-73068597D01*
X162161403Y-72901506D01*
X162161396Y-72901501D01*
X161967835Y-72765967D01*
X161967831Y-72765965D01*
X161939822Y-72752904D01*
X161753664Y-72666097D01*
X161753660Y-72666096D01*
X161753656Y-72666094D01*
X161525414Y-72604938D01*
X161525404Y-72604936D01*
X161290002Y-72584341D01*
X161290000Y-72584341D01*
X161054597Y-72604936D01*
X161054587Y-72604938D01*
X160826345Y-72666094D01*
X160826336Y-72666098D01*
X160612172Y-72765964D01*
X160612170Y-72765965D01*
X160418598Y-72901505D01*
X160251506Y-73068597D01*
X160121576Y-73254158D01*
X160066999Y-73297783D01*
X159997501Y-73304977D01*
X159935146Y-73273454D01*
X159918426Y-73254158D01*
X159788495Y-73068597D01*
X159621403Y-72901506D01*
X159621396Y-72901501D01*
X159427835Y-72765967D01*
X159427831Y-72765965D01*
X159399822Y-72752904D01*
X159213664Y-72666097D01*
X159213660Y-72666096D01*
X159213656Y-72666094D01*
X158985414Y-72604938D01*
X158985404Y-72604936D01*
X158750002Y-72584341D01*
X158750000Y-72584341D01*
X158514597Y-72604936D01*
X158514587Y-72604938D01*
X158286345Y-72666094D01*
X158286336Y-72666098D01*
X158072172Y-72765964D01*
X158072170Y-72765965D01*
X157878601Y-72901503D01*
X157756674Y-73023430D01*
X157695351Y-73056914D01*
X157625659Y-73051930D01*
X157569726Y-73010058D01*
X157552811Y-72979081D01*
X157503798Y-72847671D01*
X157503794Y-72847664D01*
X157417548Y-72732455D01*
X157417545Y-72732452D01*
X157302336Y-72646206D01*
X157302329Y-72646202D01*
X157167483Y-72595908D01*
X157167484Y-72595908D01*
X157107884Y-72589501D01*
X157107882Y-72589500D01*
X157107874Y-72589500D01*
X157107865Y-72589500D01*
X155312130Y-72589500D01*
X155312124Y-72589501D01*
X155252517Y-72595908D01*
X155117672Y-72646202D01*
X155117665Y-72646206D01*
X155002456Y-72732452D01*
X155002453Y-72732455D01*
X154916207Y-72847664D01*
X154916203Y-72847671D01*
X154865909Y-72982517D01*
X154859502Y-73042116D01*
X154859501Y-73042135D01*
X142106214Y-73042135D01*
X141993463Y-72929384D01*
X141949708Y-72901891D01*
X141840724Y-72833411D01*
X141670455Y-72773831D01*
X141670450Y-72773830D01*
X141491205Y-72753635D01*
X141491197Y-72753635D01*
X141311951Y-72773830D01*
X141311946Y-72773831D01*
X141141677Y-72833411D01*
X140988938Y-72929384D01*
X140861385Y-73056937D01*
X140765412Y-73209676D01*
X140705832Y-73379945D01*
X140705831Y-73379950D01*
X140685636Y-73559196D01*
X139116159Y-73559196D01*
X139216586Y-73524055D01*
X139355015Y-73437074D01*
X139470619Y-73321470D01*
X139557600Y-73183041D01*
X139611597Y-73028727D01*
X139612194Y-73023430D01*
X139629902Y-72866269D01*
X139629902Y-72866262D01*
X139611598Y-72703810D01*
X139611597Y-72703808D01*
X139611597Y-72703805D01*
X139557600Y-72549491D01*
X139470619Y-72411062D01*
X139355015Y-72295458D01*
X139354129Y-72294901D01*
X139216585Y-72208476D01*
X139062266Y-72154478D01*
X138899815Y-72136175D01*
X138899807Y-72136175D01*
X138737355Y-72154478D01*
X138583034Y-72208477D01*
X138568515Y-72217600D01*
X138501278Y-72236598D01*
X138461594Y-72229646D01*
X138387091Y-72203577D01*
X138387092Y-72203577D01*
X138224639Y-72185274D01*
X138224631Y-72185274D01*
X138062179Y-72203577D01*
X137907860Y-72257575D01*
X137769430Y-72344557D01*
X137653827Y-72460160D01*
X137566845Y-72598590D01*
X137512847Y-72752909D01*
X137494544Y-72915361D01*
X115509331Y-72915361D01*
X115508824Y-70307996D01*
X135199236Y-70307996D01*
X135199236Y-70308003D01*
X135219431Y-70487249D01*
X135219432Y-70487254D01*
X135279012Y-70657523D01*
X135350321Y-70771010D01*
X135374985Y-70810262D01*
X135502539Y-70937816D01*
X135655279Y-71033789D01*
X135825546Y-71093368D01*
X135825551Y-71093369D01*
X136004797Y-71113565D01*
X136004801Y-71113565D01*
X136004805Y-71113565D01*
X136184050Y-71093369D01*
X136184053Y-71093368D01*
X136184056Y-71093368D01*
X136354323Y-71033789D01*
X136507063Y-70937816D01*
X136634617Y-70810262D01*
X136730590Y-70657522D01*
X136790169Y-70487255D01*
X136810366Y-70308000D01*
X136806925Y-70277461D01*
X136790170Y-70128750D01*
X136790169Y-70128745D01*
X136785358Y-70114996D01*
X167399910Y-70114996D01*
X167399910Y-70115003D01*
X167418213Y-70277455D01*
X167472211Y-70431774D01*
X167559191Y-70570201D01*
X167559193Y-70570204D01*
X167674797Y-70685808D01*
X167810395Y-70771010D01*
X167856686Y-70823345D01*
X167867334Y-70892398D01*
X167838959Y-70956247D01*
X167832105Y-70963685D01*
X167755092Y-71040698D01*
X167668111Y-71179126D01*
X167614113Y-71333445D01*
X167595810Y-71495897D01*
X167595810Y-71495904D01*
X167614113Y-71658356D01*
X167668111Y-71812675D01*
X167668112Y-71812676D01*
X167755093Y-71951105D01*
X167870697Y-72066709D01*
X168009126Y-72153690D01*
X168163440Y-72207687D01*
X168163443Y-72207687D01*
X168163445Y-72207688D01*
X168325897Y-72225992D01*
X168325901Y-72225992D01*
X168325905Y-72225992D01*
X168488356Y-72207688D01*
X168488357Y-72207687D01*
X168488362Y-72207687D01*
X168642676Y-72153690D01*
X168781105Y-72066709D01*
X168896709Y-71951105D01*
X168983690Y-71812676D01*
X169037687Y-71658362D01*
X169037688Y-71658356D01*
X169055992Y-71495904D01*
X169055992Y-71495897D01*
X169037688Y-71333445D01*
X169037687Y-71333443D01*
X169037687Y-71333440D01*
X168983690Y-71179126D01*
X168896709Y-71040697D01*
X168781105Y-70925093D01*
X168645506Y-70839890D01*
X168599215Y-70787555D01*
X168588567Y-70718501D01*
X168616942Y-70654653D01*
X168623773Y-70647239D01*
X168700809Y-70570204D01*
X168787790Y-70431775D01*
X168841787Y-70277461D01*
X168858543Y-70128750D01*
X168860092Y-70115003D01*
X168860092Y-70114996D01*
X168841788Y-69952544D01*
X168841787Y-69952542D01*
X168841787Y-69952539D01*
X168787790Y-69798225D01*
X168700809Y-69659796D01*
X168585205Y-69544192D01*
X168550891Y-69522631D01*
X168446775Y-69457210D01*
X168292456Y-69403212D01*
X168130005Y-69384909D01*
X168129997Y-69384909D01*
X167967545Y-69403212D01*
X167813226Y-69457210D01*
X167674796Y-69544192D01*
X167559193Y-69659795D01*
X167472211Y-69798225D01*
X167418213Y-69952544D01*
X167399910Y-70114996D01*
X136785358Y-70114996D01*
X136730589Y-69958476D01*
X136634616Y-69805737D01*
X136507063Y-69678184D01*
X136354324Y-69582211D01*
X136184055Y-69522631D01*
X136184050Y-69522630D01*
X136004805Y-69502435D01*
X136004797Y-69502435D01*
X135825551Y-69522630D01*
X135825546Y-69522631D01*
X135655277Y-69582211D01*
X135502538Y-69678184D01*
X135374985Y-69805737D01*
X135279012Y-69958476D01*
X135219432Y-70128745D01*
X135219431Y-70128750D01*
X135199236Y-70307996D01*
X115508824Y-70307996D01*
X115508485Y-68559996D01*
X130844436Y-68559996D01*
X130844436Y-68560003D01*
X130864631Y-68739249D01*
X130864632Y-68739254D01*
X130924212Y-68909523D01*
X131020185Y-69062262D01*
X131147739Y-69189816D01*
X131300479Y-69285789D01*
X131439390Y-69334396D01*
X131470746Y-69345368D01*
X131470751Y-69345369D01*
X131649997Y-69365565D01*
X131650001Y-69365565D01*
X131650005Y-69365565D01*
X131829250Y-69345369D01*
X131829253Y-69345368D01*
X131829256Y-69345368D01*
X131999523Y-69285789D01*
X132152263Y-69189816D01*
X132279817Y-69062262D01*
X132375790Y-68909522D01*
X132435369Y-68739255D01*
X132435839Y-68735084D01*
X132455566Y-68560003D01*
X132455566Y-68559996D01*
X132436975Y-68394999D01*
X136960226Y-68394999D01*
X136960226Y-68395000D01*
X136979288Y-68612884D01*
X136979290Y-68612894D01*
X137035895Y-68824150D01*
X137035899Y-68824159D01*
X137128334Y-69022387D01*
X137171875Y-69084571D01*
X137752450Y-68503996D01*
X137772371Y-68578343D01*
X137834906Y-68686657D01*
X137923344Y-68775095D01*
X138031658Y-68837630D01*
X138106001Y-68857550D01*
X137525428Y-69438124D01*
X137587613Y-69481666D01*
X137785841Y-69574101D01*
X137785850Y-69574105D01*
X137997106Y-69630710D01*
X137997116Y-69630712D01*
X138215000Y-69649775D01*
X138215002Y-69649775D01*
X138432885Y-69630712D01*
X138432895Y-69630710D01*
X138644151Y-69574105D01*
X138644160Y-69574101D01*
X138842388Y-69481667D01*
X139020825Y-69356723D01*
X139087031Y-69334396D01*
X139154798Y-69351406D01*
X139202612Y-69402354D01*
X139215238Y-69445041D01*
X139221402Y-69502373D01*
X139221404Y-69502379D01*
X139271646Y-69637086D01*
X139271650Y-69637093D01*
X139357810Y-69752187D01*
X139357813Y-69752190D01*
X139472907Y-69838350D01*
X139472914Y-69838354D01*
X139607621Y-69888596D01*
X139607628Y-69888598D01*
X139667156Y-69894999D01*
X139667173Y-69895000D01*
X140465001Y-69895000D01*
X140465001Y-68741409D01*
X140550957Y-68791037D01*
X140659049Y-68820000D01*
X140770953Y-68820000D01*
X140879045Y-68791037D01*
X140965001Y-68741409D01*
X140965001Y-69895000D01*
X141762829Y-69895000D01*
X141762845Y-69894999D01*
X141822373Y-69888598D01*
X141822380Y-69888596D01*
X141957087Y-69838354D01*
X141957094Y-69838350D01*
X142072188Y-69752190D01*
X142072191Y-69752187D01*
X142158351Y-69637093D01*
X142158355Y-69637086D01*
X142208597Y-69502380D01*
X142214762Y-69445043D01*
X142241500Y-69380492D01*
X142298893Y-69340644D01*
X142368718Y-69338150D01*
X142409176Y-69356723D01*
X142587613Y-69481666D01*
X142785841Y-69574101D01*
X142785850Y-69574105D01*
X142997106Y-69630710D01*
X142997116Y-69630712D01*
X143215000Y-69649775D01*
X143215002Y-69649775D01*
X143432885Y-69630712D01*
X143432895Y-69630710D01*
X143644151Y-69574105D01*
X143644165Y-69574100D01*
X143842384Y-69481669D01*
X143842386Y-69481668D01*
X143904571Y-69438124D01*
X143323997Y-68857550D01*
X143398344Y-68837630D01*
X143506658Y-68775095D01*
X143595096Y-68686657D01*
X143657631Y-68578343D01*
X143677551Y-68503997D01*
X144258125Y-69084570D01*
X144301669Y-69022385D01*
X144301670Y-69022383D01*
X144394101Y-68824164D01*
X144394106Y-68824150D01*
X144450711Y-68612894D01*
X144450713Y-68612884D01*
X144469776Y-68395000D01*
X144469776Y-68394999D01*
X146660226Y-68394999D01*
X146660226Y-68395000D01*
X146679288Y-68612884D01*
X146679290Y-68612894D01*
X146735895Y-68824150D01*
X146735899Y-68824159D01*
X146828334Y-69022387D01*
X146871875Y-69084571D01*
X147452450Y-68503996D01*
X147472371Y-68578343D01*
X147534906Y-68686657D01*
X147623344Y-68775095D01*
X147731658Y-68837630D01*
X147806003Y-68857550D01*
X147225428Y-69438124D01*
X147287613Y-69481666D01*
X147485841Y-69574101D01*
X147485850Y-69574105D01*
X147697106Y-69630710D01*
X147697116Y-69630712D01*
X147915000Y-69649775D01*
X147915002Y-69649775D01*
X148132885Y-69630712D01*
X148132895Y-69630710D01*
X148344151Y-69574105D01*
X148344165Y-69574100D01*
X148542384Y-69481669D01*
X148542386Y-69481668D01*
X148604572Y-69438124D01*
X148023999Y-68857550D01*
X148098344Y-68837630D01*
X148206658Y-68775095D01*
X148295096Y-68686657D01*
X148357631Y-68578343D01*
X148377551Y-68503997D01*
X148958125Y-69084570D01*
X148989427Y-69039869D01*
X149044004Y-68996245D01*
X149113503Y-68989053D01*
X149175857Y-69020576D01*
X149211270Y-69080806D01*
X149215001Y-69110994D01*
X149215001Y-69442844D01*
X149221402Y-69502372D01*
X149221404Y-69502379D01*
X149271646Y-69637086D01*
X149271650Y-69637093D01*
X149357810Y-69752187D01*
X149357813Y-69752190D01*
X149472907Y-69838350D01*
X149472914Y-69838354D01*
X149607621Y-69888596D01*
X149607628Y-69888598D01*
X149667156Y-69894999D01*
X149667173Y-69895000D01*
X150465001Y-69895000D01*
X150465001Y-68856879D01*
X150512359Y-68884222D01*
X150645883Y-68920000D01*
X150784119Y-68920000D01*
X150917643Y-68884222D01*
X150965001Y-68856879D01*
X150965001Y-69895000D01*
X151762829Y-69895000D01*
X151762845Y-69894999D01*
X151822373Y-69888598D01*
X151822380Y-69888596D01*
X151957087Y-69838354D01*
X151957094Y-69838350D01*
X152072188Y-69752190D01*
X152072191Y-69752187D01*
X152158351Y-69637093D01*
X152158355Y-69637086D01*
X152208597Y-69502379D01*
X152208599Y-69502372D01*
X152215000Y-69442844D01*
X152215001Y-69442827D01*
X152215001Y-68645000D01*
X151176881Y-68645000D01*
X151204223Y-68597642D01*
X151240001Y-68464118D01*
X151240001Y-68325882D01*
X151204223Y-68192358D01*
X151176881Y-68145000D01*
X152215001Y-68145000D01*
X152215001Y-67347172D01*
X152215000Y-67347155D01*
X159215001Y-67347155D01*
X159215001Y-68145000D01*
X160253121Y-68145000D01*
X160225779Y-68192358D01*
X160190001Y-68325882D01*
X160190001Y-68464118D01*
X160225779Y-68597642D01*
X160253121Y-68645000D01*
X159215001Y-68645000D01*
X159215001Y-69442844D01*
X159221402Y-69502372D01*
X159221404Y-69502379D01*
X159271646Y-69637086D01*
X159271650Y-69637093D01*
X159357810Y-69752187D01*
X159357813Y-69752190D01*
X159472907Y-69838350D01*
X159472914Y-69838354D01*
X159607621Y-69888596D01*
X159607628Y-69888598D01*
X159667156Y-69894999D01*
X159667173Y-69895000D01*
X160465001Y-69895000D01*
X160465001Y-68856879D01*
X160512359Y-68884222D01*
X160645883Y-68920000D01*
X160784119Y-68920000D01*
X160917643Y-68884222D01*
X160965001Y-68856879D01*
X160965001Y-69895000D01*
X161762829Y-69895000D01*
X161762845Y-69894999D01*
X161822373Y-69888598D01*
X161822380Y-69888596D01*
X161957087Y-69838354D01*
X161957094Y-69838350D01*
X162072188Y-69752190D01*
X162072191Y-69752187D01*
X162158351Y-69637093D01*
X162158355Y-69637086D01*
X162208597Y-69502379D01*
X162208599Y-69502372D01*
X162215000Y-69442844D01*
X162215001Y-69442827D01*
X162215001Y-68645000D01*
X161176881Y-68645000D01*
X161204223Y-68597642D01*
X161240001Y-68464118D01*
X161240001Y-68325882D01*
X161204223Y-68192358D01*
X161176881Y-68145000D01*
X162215001Y-68145000D01*
X162215001Y-67347172D01*
X162215000Y-67347155D01*
X169215001Y-67347155D01*
X169215001Y-68145000D01*
X170253121Y-68145000D01*
X170225779Y-68192358D01*
X170190001Y-68325882D01*
X170190001Y-68464118D01*
X170225779Y-68597642D01*
X170253121Y-68645000D01*
X169215001Y-68645000D01*
X169215001Y-69442844D01*
X169221402Y-69502372D01*
X169221404Y-69502379D01*
X169271646Y-69637086D01*
X169271650Y-69637093D01*
X169357810Y-69752187D01*
X169357813Y-69752190D01*
X169472907Y-69838350D01*
X169472914Y-69838354D01*
X169607621Y-69888596D01*
X169607628Y-69888598D01*
X169667156Y-69894999D01*
X169667173Y-69895000D01*
X170465001Y-69895000D01*
X170465001Y-68856879D01*
X170512359Y-68884222D01*
X170645883Y-68920000D01*
X170784119Y-68920000D01*
X170917643Y-68884222D01*
X170965001Y-68856879D01*
X170965001Y-69895000D01*
X171762829Y-69895000D01*
X171762845Y-69894999D01*
X171822373Y-69888598D01*
X171822380Y-69888596D01*
X171957087Y-69838354D01*
X171957094Y-69838350D01*
X172072188Y-69752190D01*
X172072191Y-69752187D01*
X172158351Y-69637093D01*
X172158355Y-69637086D01*
X172208597Y-69502379D01*
X172208599Y-69502372D01*
X172215000Y-69442844D01*
X172215001Y-69442827D01*
X172215001Y-68645000D01*
X171176881Y-68645000D01*
X171204223Y-68597642D01*
X171240001Y-68464118D01*
X171240001Y-68325882D01*
X171204223Y-68192358D01*
X171176881Y-68145000D01*
X172215001Y-68145000D01*
X172215001Y-67347172D01*
X172215000Y-67347155D01*
X172208599Y-67287627D01*
X172208597Y-67287620D01*
X172158355Y-67152913D01*
X172158351Y-67152906D01*
X172072191Y-67037812D01*
X172072188Y-67037809D01*
X171957094Y-66951649D01*
X171957087Y-66951645D01*
X171822380Y-66901403D01*
X171822373Y-66901401D01*
X171762845Y-66895000D01*
X170965001Y-66895000D01*
X170965001Y-67933120D01*
X170917643Y-67905778D01*
X170784119Y-67870000D01*
X170645883Y-67870000D01*
X170512359Y-67905778D01*
X170465001Y-67933120D01*
X170465001Y-66895000D01*
X169667156Y-66895000D01*
X169607628Y-66901401D01*
X169607621Y-66901403D01*
X169472914Y-66951645D01*
X169472907Y-66951649D01*
X169357813Y-67037809D01*
X169357810Y-67037812D01*
X169271650Y-67152906D01*
X169271646Y-67152913D01*
X169221404Y-67287620D01*
X169221402Y-67287627D01*
X169215001Y-67347155D01*
X162215000Y-67347155D01*
X162208599Y-67287627D01*
X162208597Y-67287620D01*
X162158355Y-67152913D01*
X162158351Y-67152906D01*
X162072191Y-67037812D01*
X162072188Y-67037809D01*
X161957094Y-66951649D01*
X161957087Y-66951645D01*
X161822380Y-66901403D01*
X161822373Y-66901401D01*
X161762845Y-66895000D01*
X160965001Y-66895000D01*
X160965001Y-67933120D01*
X160917643Y-67905778D01*
X160784119Y-67870000D01*
X160645883Y-67870000D01*
X160512359Y-67905778D01*
X160465001Y-67933120D01*
X160465001Y-66895000D01*
X159667156Y-66895000D01*
X159607628Y-66901401D01*
X159607621Y-66901403D01*
X159472914Y-66951645D01*
X159472907Y-66951649D01*
X159357813Y-67037809D01*
X159357810Y-67037812D01*
X159271650Y-67152906D01*
X159271646Y-67152913D01*
X159221404Y-67287620D01*
X159221402Y-67287627D01*
X159215001Y-67347155D01*
X152215000Y-67347155D01*
X152208599Y-67287627D01*
X152208597Y-67287620D01*
X152158355Y-67152913D01*
X152158351Y-67152906D01*
X152072191Y-67037812D01*
X152072188Y-67037809D01*
X151957094Y-66951649D01*
X151957087Y-66951645D01*
X151822380Y-66901403D01*
X151822373Y-66901401D01*
X151762845Y-66895000D01*
X150965001Y-66895000D01*
X150965001Y-67933120D01*
X150917643Y-67905778D01*
X150784119Y-67870000D01*
X150645883Y-67870000D01*
X150512359Y-67905778D01*
X150465001Y-67933120D01*
X150465001Y-66895000D01*
X149667156Y-66895000D01*
X149607628Y-66901401D01*
X149607621Y-66901403D01*
X149472914Y-66951645D01*
X149472907Y-66951649D01*
X149357813Y-67037809D01*
X149357810Y-67037812D01*
X149271650Y-67152906D01*
X149271646Y-67152913D01*
X149221404Y-67287620D01*
X149221402Y-67287627D01*
X149215001Y-67347155D01*
X149215001Y-67679006D01*
X149195316Y-67746045D01*
X149142512Y-67791800D01*
X149073354Y-67801744D01*
X149009798Y-67772719D01*
X148989426Y-67750129D01*
X148958126Y-67705428D01*
X148958125Y-67705427D01*
X148377551Y-68286001D01*
X148357631Y-68211657D01*
X148295096Y-68103343D01*
X148206658Y-68014905D01*
X148098344Y-67952370D01*
X148023998Y-67932449D01*
X148604572Y-67351874D01*
X148542388Y-67308333D01*
X148344160Y-67215898D01*
X148344151Y-67215894D01*
X148132895Y-67159289D01*
X148132885Y-67159287D01*
X147915002Y-67140225D01*
X147915000Y-67140225D01*
X147697116Y-67159287D01*
X147697106Y-67159289D01*
X147485850Y-67215894D01*
X147485841Y-67215898D01*
X147287614Y-67308333D01*
X147225429Y-67351874D01*
X147806004Y-67932449D01*
X147731658Y-67952370D01*
X147623344Y-68014905D01*
X147534906Y-68103343D01*
X147472371Y-68211657D01*
X147452450Y-68286003D01*
X146871875Y-67705428D01*
X146828334Y-67767613D01*
X146735899Y-67965840D01*
X146735895Y-67965849D01*
X146679290Y-68177105D01*
X146679288Y-68177115D01*
X146660226Y-68394999D01*
X144469776Y-68394999D01*
X144450713Y-68177115D01*
X144450711Y-68177105D01*
X144394106Y-67965849D01*
X144394102Y-67965840D01*
X144301668Y-67767614D01*
X144301667Y-67767612D01*
X144258125Y-67705428D01*
X144258125Y-67705427D01*
X143677551Y-68286001D01*
X143657631Y-68211657D01*
X143595096Y-68103343D01*
X143506658Y-68014905D01*
X143398344Y-67952370D01*
X143323998Y-67932449D01*
X143904572Y-67351874D01*
X143842388Y-67308333D01*
X143644160Y-67215898D01*
X143644151Y-67215894D01*
X143432895Y-67159289D01*
X143432885Y-67159287D01*
X143215002Y-67140225D01*
X143215000Y-67140225D01*
X142997116Y-67159287D01*
X142997106Y-67159289D01*
X142785850Y-67215894D01*
X142785841Y-67215898D01*
X142587613Y-67308333D01*
X142587609Y-67308335D01*
X142409175Y-67433276D01*
X142342969Y-67455603D01*
X142275202Y-67438593D01*
X142227389Y-67387645D01*
X142214762Y-67344956D01*
X142208597Y-67287619D01*
X142158355Y-67152913D01*
X142158351Y-67152906D01*
X142072191Y-67037812D01*
X142072188Y-67037809D01*
X141957094Y-66951649D01*
X141957087Y-66951645D01*
X141822380Y-66901403D01*
X141822373Y-66901401D01*
X141762845Y-66895000D01*
X141281425Y-66895000D01*
X141214386Y-66875315D01*
X141168631Y-66822511D01*
X141158687Y-66753353D01*
X141167869Y-66721190D01*
X141239064Y-66558881D01*
X141289008Y-66361657D01*
X141300109Y-66317821D01*
X141304693Y-66262500D01*
X141320644Y-66070005D01*
X141320644Y-66069994D01*
X141300110Y-65822187D01*
X141300108Y-65822175D01*
X141239064Y-65581118D01*
X141139174Y-65353393D01*
X141003167Y-65145217D01*
X140981558Y-65121744D01*
X140834745Y-64962262D01*
X140638510Y-64809526D01*
X140638508Y-64809525D01*
X140638507Y-64809524D01*
X140419812Y-64691172D01*
X140419803Y-64691169D01*
X140184617Y-64610429D01*
X139939336Y-64569500D01*
X139690666Y-64569500D01*
X139445384Y-64610429D01*
X139210198Y-64691169D01*
X139210189Y-64691172D01*
X138991494Y-64809524D01*
X138795258Y-64962261D01*
X138626834Y-65145217D01*
X138490827Y-65353393D01*
X138390937Y-65581118D01*
X138329893Y-65822175D01*
X138329891Y-65822187D01*
X138309358Y-66069994D01*
X138309358Y-66070005D01*
X138329891Y-66317812D01*
X138329893Y-66317824D01*
X138390937Y-66558881D01*
X138462133Y-66721190D01*
X138490828Y-66786607D01*
X138620865Y-66985645D01*
X138641052Y-67052533D01*
X138621872Y-67119719D01*
X138569414Y-67165869D01*
X138500332Y-67176332D01*
X138484964Y-67173240D01*
X138432898Y-67159290D01*
X138432885Y-67159287D01*
X138215002Y-67140225D01*
X138215000Y-67140225D01*
X137997116Y-67159287D01*
X137997106Y-67159289D01*
X137785850Y-67215894D01*
X137785841Y-67215898D01*
X137587614Y-67308333D01*
X137525428Y-67351874D01*
X138106003Y-67932449D01*
X138031658Y-67952370D01*
X137923344Y-68014905D01*
X137834906Y-68103343D01*
X137772371Y-68211657D01*
X137752450Y-68286003D01*
X137171875Y-67705428D01*
X137128334Y-67767613D01*
X137035899Y-67965840D01*
X137035895Y-67965849D01*
X136979290Y-68177105D01*
X136979288Y-68177115D01*
X136960226Y-68394999D01*
X132436975Y-68394999D01*
X132435370Y-68380750D01*
X132435369Y-68380745D01*
X132388248Y-68246081D01*
X132375790Y-68210478D01*
X132370438Y-68201961D01*
X132318014Y-68118528D01*
X132279817Y-68057738D01*
X132152263Y-67930184D01*
X132056481Y-67870000D01*
X131999524Y-67834211D01*
X131829255Y-67774631D01*
X131829250Y-67774630D01*
X131650005Y-67754435D01*
X131649997Y-67754435D01*
X131470751Y-67774630D01*
X131470746Y-67774631D01*
X131300477Y-67834211D01*
X131147738Y-67930184D01*
X131020185Y-68057737D01*
X130924212Y-68210476D01*
X130864632Y-68380745D01*
X130864631Y-68380750D01*
X130844436Y-68559996D01*
X115508485Y-68559996D01*
X115508314Y-67679553D01*
X115526397Y-67617927D01*
X115734152Y-67617927D01*
X115751284Y-67644574D01*
X115755534Y-67665648D01*
X115770166Y-67795516D01*
X115770167Y-67795520D01*
X115829747Y-67965789D01*
X115916179Y-68103343D01*
X115925720Y-68118528D01*
X116053274Y-68246082D01*
X116089748Y-68269000D01*
X116190751Y-68332465D01*
X116206014Y-68342055D01*
X116316584Y-68380745D01*
X116376281Y-68401634D01*
X116376286Y-68401635D01*
X116555532Y-68421831D01*
X116555536Y-68421831D01*
X116555540Y-68421831D01*
X116734785Y-68401635D01*
X116734788Y-68401634D01*
X116734791Y-68401634D01*
X116905058Y-68342055D01*
X117057798Y-68246082D01*
X117185352Y-68118528D01*
X117281325Y-67965788D01*
X117340904Y-67795521D01*
X117340905Y-67795515D01*
X117361101Y-67616269D01*
X117361101Y-67616262D01*
X117340905Y-67437016D01*
X117340904Y-67437011D01*
X117309462Y-67347155D01*
X117281325Y-67266744D01*
X117185352Y-67114004D01*
X117057798Y-66986450D01*
X117002413Y-66951649D01*
X116905059Y-66890477D01*
X116734790Y-66830897D01*
X116734785Y-66830896D01*
X116555540Y-66810701D01*
X116555532Y-66810701D01*
X116376286Y-66830896D01*
X116376281Y-66830897D01*
X116206012Y-66890477D01*
X116053273Y-66986450D01*
X115925720Y-67114003D01*
X115829747Y-67266742D01*
X115770167Y-67437011D01*
X115770166Y-67437016D01*
X115755510Y-67567100D01*
X115734152Y-67617927D01*
X115526397Y-67617927D01*
X115527986Y-67612513D01*
X115528612Y-67611970D01*
X115510150Y-67574611D01*
X115508290Y-67553241D01*
X115508039Y-66262496D01*
X126774436Y-66262496D01*
X126774436Y-66262503D01*
X126794631Y-66441749D01*
X126794632Y-66441754D01*
X126854212Y-66612023D01*
X126898496Y-66682500D01*
X126950185Y-66764762D01*
X127077739Y-66892316D01*
X127230479Y-66988289D01*
X127249044Y-66994785D01*
X127400746Y-67047868D01*
X127400751Y-67047869D01*
X127579997Y-67068065D01*
X127580001Y-67068065D01*
X127580005Y-67068065D01*
X127759250Y-67047869D01*
X127759253Y-67047868D01*
X127759256Y-67047868D01*
X127929523Y-66988289D01*
X128082263Y-66892316D01*
X128209817Y-66764762D01*
X128261508Y-66682496D01*
X130854436Y-66682496D01*
X130854436Y-66682503D01*
X130874631Y-66861749D01*
X130874632Y-66861754D01*
X130934212Y-67032023D01*
X131030185Y-67184762D01*
X131157739Y-67312316D01*
X131310479Y-67408289D01*
X131381888Y-67433276D01*
X131480746Y-67467868D01*
X131480751Y-67467869D01*
X131659997Y-67488065D01*
X131660001Y-67488065D01*
X131660005Y-67488065D01*
X131839250Y-67467869D01*
X131839253Y-67467868D01*
X131839256Y-67467868D01*
X132009523Y-67408289D01*
X132162263Y-67312316D01*
X132289817Y-67184762D01*
X132385790Y-67032022D01*
X132445369Y-66861755D01*
X132445370Y-66861745D01*
X132446662Y-66856085D01*
X132480766Y-66795104D01*
X132542424Y-66762241D01*
X132570869Y-66760577D01*
X133152450Y-66178996D01*
X133172371Y-66253343D01*
X133234906Y-66361657D01*
X133323344Y-66450095D01*
X133431658Y-66512630D01*
X133506003Y-66532550D01*
X132925428Y-67113124D01*
X132987613Y-67156666D01*
X133185841Y-67249101D01*
X133185850Y-67249105D01*
X133397106Y-67305710D01*
X133397116Y-67305712D01*
X133615000Y-67324775D01*
X133615002Y-67324775D01*
X133832885Y-67305712D01*
X133832895Y-67305710D01*
X134044151Y-67249105D01*
X134044165Y-67249100D01*
X134242384Y-67156669D01*
X134242386Y-67156668D01*
X134304572Y-67113124D01*
X133723999Y-66532550D01*
X133798344Y-66512630D01*
X133906658Y-66450095D01*
X133995096Y-66361657D01*
X134057631Y-66253343D01*
X134077551Y-66178997D01*
X134658125Y-66759570D01*
X134701669Y-66697385D01*
X134701670Y-66697383D01*
X134794101Y-66499164D01*
X134794106Y-66499150D01*
X134850711Y-66287894D01*
X134850713Y-66287884D01*
X134869776Y-66070000D01*
X134869776Y-66069999D01*
X134850713Y-65852115D01*
X134850711Y-65852105D01*
X134794106Y-65640849D01*
X134794102Y-65640840D01*
X134701668Y-65442614D01*
X134701667Y-65442612D01*
X134658125Y-65380428D01*
X134658125Y-65380427D01*
X134077551Y-65961001D01*
X134057631Y-65886657D01*
X133995096Y-65778343D01*
X133906658Y-65689905D01*
X133798344Y-65627370D01*
X133723998Y-65607449D01*
X134304572Y-65026874D01*
X134242388Y-64983333D01*
X134044160Y-64890898D01*
X134044151Y-64890894D01*
X133832895Y-64834289D01*
X133832885Y-64834287D01*
X133615002Y-64815225D01*
X133615000Y-64815225D01*
X133397116Y-64834287D01*
X133397106Y-64834289D01*
X133185850Y-64890894D01*
X133185841Y-64890898D01*
X132987614Y-64983333D01*
X132925429Y-65026874D01*
X133506004Y-65607449D01*
X133431658Y-65627370D01*
X133323344Y-65689905D01*
X133234906Y-65778343D01*
X133172371Y-65886657D01*
X133152450Y-65961003D01*
X132571875Y-65380428D01*
X132528334Y-65442613D01*
X132435899Y-65640840D01*
X132435895Y-65640849D01*
X132379290Y-65852105D01*
X132379288Y-65852115D01*
X132368869Y-65971208D01*
X132343416Y-66036276D01*
X132286825Y-66077255D01*
X132217063Y-66081133D01*
X132169558Y-66054701D01*
X132167706Y-66057025D01*
X132162263Y-66052684D01*
X132009524Y-65956711D01*
X131839255Y-65897131D01*
X131839250Y-65897130D01*
X131660005Y-65876935D01*
X131659997Y-65876935D01*
X131480751Y-65897130D01*
X131480746Y-65897131D01*
X131310477Y-65956711D01*
X131157738Y-66052684D01*
X131030185Y-66180237D01*
X130934212Y-66332976D01*
X130874632Y-66503245D01*
X130874631Y-66503250D01*
X130854436Y-66682496D01*
X128261508Y-66682496D01*
X128305790Y-66612022D01*
X128365369Y-66441755D01*
X128377625Y-66332978D01*
X128385566Y-66262503D01*
X128385566Y-66262496D01*
X128365370Y-66083250D01*
X128365369Y-66083245D01*
X128338852Y-66007465D01*
X128305790Y-65912978D01*
X128289251Y-65886657D01*
X128209816Y-65760237D01*
X128082263Y-65632684D01*
X127929524Y-65536711D01*
X127759255Y-65477131D01*
X127759250Y-65477130D01*
X127580005Y-65456935D01*
X127579997Y-65456935D01*
X127400751Y-65477130D01*
X127400746Y-65477131D01*
X127230477Y-65536711D01*
X127077738Y-65632684D01*
X126950185Y-65760237D01*
X126854212Y-65912976D01*
X126794632Y-66083245D01*
X126794631Y-66083250D01*
X126774436Y-66262496D01*
X115508039Y-66262496D01*
X115507487Y-63419996D01*
X141504910Y-63419996D01*
X141504910Y-63420003D01*
X141523213Y-63582455D01*
X141577211Y-63736774D01*
X141577212Y-63736775D01*
X141664193Y-63875204D01*
X141779797Y-63990808D01*
X141918226Y-64077789D01*
X142072540Y-64131786D01*
X142072543Y-64131786D01*
X142072545Y-64131787D01*
X142234997Y-64150091D01*
X142235001Y-64150091D01*
X142235005Y-64150091D01*
X142397456Y-64131787D01*
X142397457Y-64131786D01*
X142397462Y-64131786D01*
X142551776Y-64077789D01*
X142690205Y-63990808D01*
X142805809Y-63875204D01*
X142809081Y-63869996D01*
X144729910Y-63869996D01*
X144729910Y-63870003D01*
X144748213Y-64032455D01*
X144802211Y-64186774D01*
X144889193Y-64325204D01*
X145004797Y-64440808D01*
X145143226Y-64527789D01*
X145297540Y-64581786D01*
X145297543Y-64581786D01*
X145297545Y-64581787D01*
X145459997Y-64600091D01*
X145460001Y-64600091D01*
X145460005Y-64600091D01*
X145622456Y-64581787D01*
X145622457Y-64581786D01*
X145622462Y-64581786D01*
X145776776Y-64527789D01*
X145915205Y-64440808D01*
X146030809Y-64325204D01*
X146117790Y-64186775D01*
X146171787Y-64032461D01*
X146171788Y-64032455D01*
X146190092Y-63870003D01*
X146190092Y-63869996D01*
X146171788Y-63707542D01*
X146171787Y-63707539D01*
X146134541Y-63601098D01*
X146130979Y-63531322D01*
X146146588Y-63494175D01*
X146207790Y-63396775D01*
X146261787Y-63242461D01*
X146273320Y-63140104D01*
X146280092Y-63080003D01*
X146280092Y-63079996D01*
X146261788Y-62917544D01*
X146261787Y-62917542D01*
X146261787Y-62917539D01*
X146207790Y-62763225D01*
X146120809Y-62624796D01*
X146005205Y-62509192D01*
X145942832Y-62470000D01*
X145866775Y-62422210D01*
X145712456Y-62368212D01*
X145550005Y-62349909D01*
X145549997Y-62349909D01*
X145387545Y-62368212D01*
X145233226Y-62422210D01*
X145094796Y-62509192D01*
X144979193Y-62624795D01*
X144892211Y-62763225D01*
X144838213Y-62917544D01*
X144819910Y-63079996D01*
X144819910Y-63080003D01*
X144838213Y-63242453D01*
X144838214Y-63242455D01*
X144838215Y-63242461D01*
X144875460Y-63348901D01*
X144879021Y-63418677D01*
X144863412Y-63455825D01*
X144802211Y-63553225D01*
X144748213Y-63707544D01*
X144729910Y-63869996D01*
X142809081Y-63869996D01*
X142892790Y-63736775D01*
X142946787Y-63582461D01*
X142946787Y-63582459D01*
X142949087Y-63575887D01*
X142950696Y-63576450D01*
X142980508Y-63523136D01*
X142995318Y-63511448D01*
X142995294Y-63511417D01*
X143000734Y-63507077D01*
X143000740Y-63507074D01*
X143116344Y-63391470D01*
X143203325Y-63253041D01*
X143257322Y-63098727D01*
X143259432Y-63080000D01*
X143275627Y-62936269D01*
X143275627Y-62936262D01*
X143257323Y-62773810D01*
X143257322Y-62773808D01*
X143257322Y-62773805D01*
X143203325Y-62619491D01*
X143116344Y-62481062D01*
X143097424Y-62462142D01*
X143063939Y-62400819D01*
X143061885Y-62360575D01*
X143062326Y-62356669D01*
X143064726Y-62335365D01*
X143060657Y-62299255D01*
X143046422Y-62172909D01*
X143046421Y-62172907D01*
X143046421Y-62172904D01*
X142992424Y-62018590D01*
X142905443Y-61880161D01*
X142789839Y-61764557D01*
X142685745Y-61699150D01*
X142651409Y-61677575D01*
X142635919Y-61672155D01*
X149215001Y-61672155D01*
X149215001Y-62470000D01*
X150253121Y-62470000D01*
X150225779Y-62517358D01*
X150190001Y-62650882D01*
X150190001Y-62789118D01*
X150225779Y-62922642D01*
X150253121Y-62970000D01*
X149215001Y-62970000D01*
X149215001Y-63767844D01*
X149221402Y-63827372D01*
X149221404Y-63827379D01*
X149271646Y-63962086D01*
X149271650Y-63962093D01*
X149357810Y-64077187D01*
X149357813Y-64077190D01*
X149472907Y-64163350D01*
X149472914Y-64163354D01*
X149607621Y-64213596D01*
X149607628Y-64213598D01*
X149667156Y-64219999D01*
X149667173Y-64220000D01*
X150465001Y-64220000D01*
X150465001Y-63181879D01*
X150512359Y-63209222D01*
X150645883Y-63245000D01*
X150784119Y-63245000D01*
X150917643Y-63209222D01*
X150965001Y-63181879D01*
X150965001Y-64220000D01*
X151762829Y-64220000D01*
X151762845Y-64219999D01*
X151822373Y-64213598D01*
X151822380Y-64213596D01*
X151957087Y-64163354D01*
X151957094Y-64163350D01*
X152072188Y-64077190D01*
X152072191Y-64077187D01*
X152158351Y-63962093D01*
X152158355Y-63962086D01*
X152208597Y-63827379D01*
X152208599Y-63827372D01*
X152215000Y-63767844D01*
X152215001Y-63767827D01*
X152215001Y-62970000D01*
X151176881Y-62970000D01*
X151204223Y-62922642D01*
X151240001Y-62789118D01*
X151240001Y-62650882D01*
X151204223Y-62517358D01*
X151176881Y-62470000D01*
X152215001Y-62470000D01*
X152215001Y-61672172D01*
X152215000Y-61672155D01*
X152208599Y-61612627D01*
X152208597Y-61612620D01*
X152158355Y-61477913D01*
X152158351Y-61477906D01*
X152072191Y-61362812D01*
X152072188Y-61362809D01*
X151957094Y-61276649D01*
X151957087Y-61276645D01*
X151822380Y-61226403D01*
X151822373Y-61226401D01*
X151762845Y-61220000D01*
X150965001Y-61220000D01*
X150965001Y-62258120D01*
X150917643Y-62230778D01*
X150784119Y-62195000D01*
X150645883Y-62195000D01*
X150512359Y-62230778D01*
X150465001Y-62258120D01*
X150465001Y-61220000D01*
X149667156Y-61220000D01*
X149607628Y-61226401D01*
X149607621Y-61226403D01*
X149472914Y-61276645D01*
X149472907Y-61276649D01*
X149357813Y-61362809D01*
X149357810Y-61362812D01*
X149271650Y-61477906D01*
X149271646Y-61477913D01*
X149221404Y-61612620D01*
X149221402Y-61612627D01*
X149215001Y-61672155D01*
X142635919Y-61672155D01*
X142497090Y-61623577D01*
X142334639Y-61605274D01*
X142334631Y-61605274D01*
X142172179Y-61623577D01*
X142017860Y-61677575D01*
X141879430Y-61764557D01*
X141763827Y-61880160D01*
X141676845Y-62018590D01*
X141622847Y-62172909D01*
X141604544Y-62335361D01*
X141604544Y-62335368D01*
X141622847Y-62497820D01*
X141622848Y-62497825D01*
X141622849Y-62497826D01*
X141626826Y-62509192D01*
X141676846Y-62652141D01*
X141735127Y-62744894D01*
X141738219Y-62749815D01*
X141739999Y-62752647D01*
X141759000Y-62819884D01*
X141738633Y-62886719D01*
X141722688Y-62906301D01*
X141664192Y-62964797D01*
X141577211Y-63103225D01*
X141523213Y-63257544D01*
X141504910Y-63419996D01*
X115507487Y-63419996D01*
X115507070Y-61269999D01*
X132360226Y-61269999D01*
X132360226Y-61270000D01*
X132379288Y-61487884D01*
X132379290Y-61487894D01*
X132435895Y-61699150D01*
X132435899Y-61699159D01*
X132528334Y-61897387D01*
X132571875Y-61959571D01*
X133152450Y-61378996D01*
X133172371Y-61453343D01*
X133234906Y-61561657D01*
X133323344Y-61650095D01*
X133431658Y-61712630D01*
X133506003Y-61732550D01*
X132925428Y-62313124D01*
X132987613Y-62356666D01*
X133185841Y-62449101D01*
X133185850Y-62449105D01*
X133397106Y-62505710D01*
X133397116Y-62505712D01*
X133615000Y-62524775D01*
X133615002Y-62524775D01*
X133832885Y-62505712D01*
X133832895Y-62505710D01*
X134044151Y-62449105D01*
X134044165Y-62449100D01*
X134242384Y-62356669D01*
X134242386Y-62356668D01*
X134304572Y-62313124D01*
X133723999Y-61732550D01*
X133798344Y-61712630D01*
X133906658Y-61650095D01*
X133995096Y-61561657D01*
X134057631Y-61453343D01*
X134077551Y-61378997D01*
X134658125Y-61959570D01*
X134701669Y-61897385D01*
X134701670Y-61897383D01*
X134794101Y-61699164D01*
X134794106Y-61699150D01*
X134850711Y-61487894D01*
X134850713Y-61487884D01*
X134869776Y-61270000D01*
X134869776Y-61269999D01*
X134850713Y-61052115D01*
X134850711Y-61052105D01*
X134794106Y-60840849D01*
X134794102Y-60840840D01*
X134701668Y-60642614D01*
X134701667Y-60642612D01*
X134699835Y-60639996D01*
X136654436Y-60639996D01*
X136654436Y-60640003D01*
X136674631Y-60819249D01*
X136674632Y-60819254D01*
X136734212Y-60989523D01*
X136830185Y-61142262D01*
X136957741Y-61269818D01*
X136992284Y-61291522D01*
X137038576Y-61343856D01*
X137049225Y-61412909D01*
X137020850Y-61476758D01*
X137012380Y-61484977D01*
X137012663Y-61485260D01*
X136880185Y-61617737D01*
X136784212Y-61770476D01*
X136724632Y-61940745D01*
X136724631Y-61940750D01*
X136704436Y-62119996D01*
X136704436Y-62120003D01*
X136724631Y-62299249D01*
X136724632Y-62299254D01*
X136784212Y-62469523D01*
X136878444Y-62619491D01*
X136880185Y-62622262D01*
X137007739Y-62749816D01*
X137070288Y-62789118D01*
X137139700Y-62832733D01*
X137160479Y-62845789D01*
X137277450Y-62886719D01*
X137330746Y-62905368D01*
X137330751Y-62905369D01*
X137509997Y-62925565D01*
X137510001Y-62925565D01*
X137510005Y-62925565D01*
X137689250Y-62905369D01*
X137689253Y-62905368D01*
X137689256Y-62905368D01*
X137859523Y-62845789D01*
X138012263Y-62749816D01*
X138139817Y-62622262D01*
X138235790Y-62469522D01*
X138295369Y-62299255D01*
X138295370Y-62299249D01*
X138315566Y-62120003D01*
X138315566Y-62119996D01*
X138295370Y-61940750D01*
X138295369Y-61940745D01*
X138235789Y-61770476D01*
X138174020Y-61672172D01*
X138139817Y-61617738D01*
X138012263Y-61490184D01*
X137977715Y-61468476D01*
X137931425Y-61416142D01*
X137920777Y-61347089D01*
X137949152Y-61283240D01*
X137957623Y-61275024D01*
X137957339Y-61274740D01*
X138012079Y-61220000D01*
X138089817Y-61142262D01*
X138185790Y-60989522D01*
X138245369Y-60819255D01*
X138248102Y-60795000D01*
X138265566Y-60640003D01*
X138265566Y-60639996D01*
X138245370Y-60460750D01*
X138245369Y-60460745D01*
X138185789Y-60290476D01*
X138095495Y-60146775D01*
X138089817Y-60137738D01*
X137962263Y-60010184D01*
X137934057Y-59992461D01*
X137809524Y-59914211D01*
X137639255Y-59854631D01*
X137639250Y-59854630D01*
X137460005Y-59834435D01*
X137459997Y-59834435D01*
X137280751Y-59854630D01*
X137280746Y-59854631D01*
X137110477Y-59914211D01*
X136957738Y-60010184D01*
X136830185Y-60137737D01*
X136734212Y-60290476D01*
X136674632Y-60460745D01*
X136674631Y-60460750D01*
X136654436Y-60639996D01*
X134699835Y-60639996D01*
X134658125Y-60580428D01*
X134658125Y-60580427D01*
X134077551Y-61161001D01*
X134057631Y-61086657D01*
X133995096Y-60978343D01*
X133906658Y-60889905D01*
X133798344Y-60827370D01*
X133723998Y-60807449D01*
X134304572Y-60226874D01*
X134242388Y-60183333D01*
X134044160Y-60090898D01*
X134044151Y-60090894D01*
X133832895Y-60034289D01*
X133832885Y-60034287D01*
X133615002Y-60015225D01*
X133615000Y-60015225D01*
X133397116Y-60034287D01*
X133397106Y-60034289D01*
X133185850Y-60090894D01*
X133185841Y-60090898D01*
X132987614Y-60183333D01*
X132925429Y-60226874D01*
X133506004Y-60807449D01*
X133431658Y-60827370D01*
X133323344Y-60889905D01*
X133234906Y-60978343D01*
X133172371Y-61086657D01*
X133152450Y-61161003D01*
X132571875Y-60580428D01*
X132528334Y-60642613D01*
X132435899Y-60840840D01*
X132435895Y-60840849D01*
X132379290Y-61052105D01*
X132379288Y-61052115D01*
X132360226Y-61269999D01*
X115507070Y-61269999D01*
X115506790Y-59829996D01*
X144895445Y-59829996D01*
X144895445Y-59830003D01*
X144913748Y-59992455D01*
X144967746Y-60146774D01*
X144967747Y-60146775D01*
X145054728Y-60285204D01*
X145170332Y-60400808D01*
X145308761Y-60487789D01*
X145463075Y-60541786D01*
X145463078Y-60541786D01*
X145463080Y-60541787D01*
X145625532Y-60560091D01*
X145625536Y-60560091D01*
X145625540Y-60560091D01*
X145787991Y-60541787D01*
X145787992Y-60541786D01*
X145787997Y-60541786D01*
X145942311Y-60487789D01*
X146080740Y-60400808D01*
X146196344Y-60285204D01*
X146283325Y-60146775D01*
X146337322Y-59992461D01*
X146352852Y-59854630D01*
X146355627Y-59830003D01*
X146355627Y-59829996D01*
X146337323Y-59667542D01*
X146337322Y-59667539D01*
X146297636Y-59554126D01*
X146294075Y-59484348D01*
X146297637Y-59472217D01*
X146299540Y-59466777D01*
X146299542Y-59466775D01*
X146353539Y-59312461D01*
X146353539Y-59312459D01*
X146353540Y-59312457D01*
X146371844Y-59150003D01*
X146371844Y-59149996D01*
X146353540Y-58987544D01*
X146353539Y-58987542D01*
X146353539Y-58987539D01*
X146299542Y-58833225D01*
X146212561Y-58694796D01*
X146096957Y-58579192D01*
X146069733Y-58562086D01*
X145958527Y-58492210D01*
X145804208Y-58438212D01*
X145641757Y-58419909D01*
X145641749Y-58419909D01*
X145479297Y-58438212D01*
X145324978Y-58492210D01*
X145186548Y-58579192D01*
X145070945Y-58694795D01*
X144983963Y-58833225D01*
X144929965Y-58987544D01*
X144911662Y-59149996D01*
X144911662Y-59150003D01*
X144929965Y-59312455D01*
X144969651Y-59425873D01*
X144973212Y-59495652D01*
X144969651Y-59507781D01*
X144913748Y-59667544D01*
X144895445Y-59829996D01*
X115506790Y-59829996D01*
X115506036Y-55943959D01*
X115506095Y-55941265D01*
X116650458Y-55941265D01*
X116650458Y-55941266D01*
X116670755Y-56328553D01*
X116731422Y-56711589D01*
X116731423Y-56711596D01*
X116831798Y-57086202D01*
X116970780Y-57448260D01*
X117146846Y-57793809D01*
X117358067Y-58119059D01*
X117566631Y-58376616D01*
X117566632Y-58376616D01*
X119061284Y-56881964D01*
X119135124Y-56983596D01*
X119313206Y-57161678D01*
X119414836Y-57235517D01*
X117920184Y-58730169D01*
X117920185Y-58730170D01*
X118177742Y-58938734D01*
X118502992Y-59149955D01*
X118848541Y-59326021D01*
X119210599Y-59465003D01*
X119585205Y-59565378D01*
X119585212Y-59565379D01*
X119968248Y-59626046D01*
X120355535Y-59646344D01*
X120355537Y-59646344D01*
X120742823Y-59626046D01*
X121125859Y-59565379D01*
X121125866Y-59565378D01*
X121500472Y-59465003D01*
X121862530Y-59326021D01*
X122208079Y-59149955D01*
X122533319Y-58938742D01*
X122533321Y-58938741D01*
X122790885Y-58730168D01*
X121296234Y-57235517D01*
X121397866Y-57161678D01*
X121575948Y-56983596D01*
X121649787Y-56881964D01*
X123144438Y-58376615D01*
X123353011Y-58119051D01*
X123353012Y-58119049D01*
X123564225Y-57793809D01*
X123740291Y-57448260D01*
X123879273Y-57086202D01*
X123979648Y-56711596D01*
X123979649Y-56711589D01*
X123992572Y-56629996D01*
X125034436Y-56629996D01*
X125034436Y-56630003D01*
X125054631Y-56809249D01*
X125054632Y-56809254D01*
X125114212Y-56979523D01*
X125200820Y-57117358D01*
X125210185Y-57132262D01*
X125337739Y-57259816D01*
X125379073Y-57285788D01*
X125473895Y-57345369D01*
X125490479Y-57355789D01*
X125585728Y-57389118D01*
X125660746Y-57415368D01*
X125660751Y-57415369D01*
X125839997Y-57435565D01*
X125840001Y-57435565D01*
X125840005Y-57435565D01*
X126019250Y-57415369D01*
X126019253Y-57415368D01*
X126019256Y-57415368D01*
X126189523Y-57355789D01*
X126342263Y-57259816D01*
X126469817Y-57132262D01*
X126565790Y-56979522D01*
X126625369Y-56809255D01*
X126626975Y-56795000D01*
X126645566Y-56630003D01*
X126645566Y-56629996D01*
X126637679Y-56559996D01*
X130354436Y-56559996D01*
X130354436Y-56560003D01*
X130374631Y-56739249D01*
X130374632Y-56739254D01*
X130434212Y-56909523D01*
X130480756Y-56983596D01*
X130530185Y-57062262D01*
X130657739Y-57189816D01*
X130810479Y-57285789D01*
X130980746Y-57345368D01*
X130980751Y-57345369D01*
X131159997Y-57365565D01*
X131160001Y-57365565D01*
X131160005Y-57365565D01*
X131339250Y-57345369D01*
X131339253Y-57345368D01*
X131339256Y-57345368D01*
X131509523Y-57285789D01*
X131662263Y-57189816D01*
X131789817Y-57062262D01*
X131885790Y-56909522D01*
X131945369Y-56739255D01*
X131947785Y-56717812D01*
X131965566Y-56560003D01*
X131965566Y-56559996D01*
X131955426Y-56469999D01*
X132360226Y-56469999D01*
X132360226Y-56470000D01*
X132379288Y-56687884D01*
X132379290Y-56687894D01*
X132435895Y-56899150D01*
X132435899Y-56899159D01*
X132528334Y-57097387D01*
X132571875Y-57159571D01*
X133152450Y-56578996D01*
X133172371Y-56653343D01*
X133234906Y-56761657D01*
X133323344Y-56850095D01*
X133431658Y-56912630D01*
X133506003Y-56932550D01*
X132925428Y-57513124D01*
X132987613Y-57556666D01*
X133185841Y-57649101D01*
X133185850Y-57649105D01*
X133397106Y-57705710D01*
X133397116Y-57705712D01*
X133615000Y-57724775D01*
X133615002Y-57724775D01*
X133832885Y-57705712D01*
X133832895Y-57705710D01*
X134044151Y-57649105D01*
X134044165Y-57649100D01*
X134242384Y-57556669D01*
X134242386Y-57556668D01*
X134304572Y-57513124D01*
X133723999Y-56932550D01*
X133798344Y-56912630D01*
X133906658Y-56850095D01*
X133995096Y-56761657D01*
X134057631Y-56653343D01*
X134077551Y-56578997D01*
X134658125Y-57159570D01*
X134701669Y-57097385D01*
X134701670Y-57097383D01*
X134794101Y-56899164D01*
X134794106Y-56899150D01*
X134850711Y-56687894D01*
X134850713Y-56687884D01*
X134869776Y-56470000D01*
X134869776Y-56469999D01*
X134850713Y-56252115D01*
X134850711Y-56252105D01*
X134794106Y-56040849D01*
X134794102Y-56040840D01*
X134701667Y-55842612D01*
X134701662Y-55842604D01*
X134699924Y-55840121D01*
X134699495Y-55838850D01*
X134698959Y-55837921D01*
X134699145Y-55837813D01*
X134677597Y-55773915D01*
X134694610Y-55706148D01*
X134745559Y-55658336D01*
X134801500Y-55645000D01*
X135465001Y-55645000D01*
X135465001Y-54606879D01*
X135512359Y-54634222D01*
X135645883Y-54670000D01*
X135784119Y-54670000D01*
X135917643Y-54634222D01*
X135965001Y-54606879D01*
X135965001Y-55645000D01*
X136762829Y-55645000D01*
X136762845Y-55644999D01*
X136822373Y-55638598D01*
X136822380Y-55638596D01*
X136957087Y-55588354D01*
X136957094Y-55588350D01*
X137072188Y-55502190D01*
X137072191Y-55502187D01*
X137158351Y-55387093D01*
X137158355Y-55387086D01*
X137208597Y-55252380D01*
X137214762Y-55195043D01*
X137241500Y-55130492D01*
X137298893Y-55090644D01*
X137368718Y-55088150D01*
X137409176Y-55106723D01*
X137587613Y-55231666D01*
X137785841Y-55324101D01*
X137785850Y-55324105D01*
X137997106Y-55380710D01*
X137997116Y-55380712D01*
X138215000Y-55399775D01*
X138215002Y-55399775D01*
X138432885Y-55380712D01*
X138432892Y-55380711D01*
X138484962Y-55366759D01*
X138554812Y-55368422D01*
X138612675Y-55407584D01*
X138640179Y-55471813D01*
X138628593Y-55540715D01*
X138620865Y-55554355D01*
X138490827Y-55753393D01*
X138390937Y-55981118D01*
X138329893Y-56222175D01*
X138329891Y-56222187D01*
X138309358Y-56469994D01*
X138309358Y-56470005D01*
X138329891Y-56717812D01*
X138329893Y-56717824D01*
X138390937Y-56958881D01*
X138490827Y-57186606D01*
X138626834Y-57394782D01*
X138626837Y-57394785D01*
X138795257Y-57577738D01*
X138991492Y-57730474D01*
X138991494Y-57730475D01*
X139137005Y-57809222D01*
X139210191Y-57848828D01*
X139445387Y-57929571D01*
X139690666Y-57970500D01*
X139939336Y-57970500D01*
X140184615Y-57929571D01*
X140419811Y-57848828D01*
X140638510Y-57730474D01*
X140834745Y-57577738D01*
X141003165Y-57394785D01*
X141139174Y-57186607D01*
X141239064Y-56958881D01*
X141300109Y-56717821D01*
X141300625Y-56711596D01*
X141320644Y-56470005D01*
X141320644Y-56469994D01*
X141304250Y-56272155D01*
X149215001Y-56272155D01*
X149215001Y-57070000D01*
X150253121Y-57070000D01*
X150225779Y-57117358D01*
X150190001Y-57250882D01*
X150190001Y-57389118D01*
X150225779Y-57522642D01*
X150253121Y-57570000D01*
X149215001Y-57570000D01*
X149215001Y-58367844D01*
X149221402Y-58427372D01*
X149221404Y-58427379D01*
X149271646Y-58562086D01*
X149271650Y-58562093D01*
X149357810Y-58677187D01*
X149357813Y-58677190D01*
X149472907Y-58763350D01*
X149472914Y-58763354D01*
X149607621Y-58813596D01*
X149607628Y-58813598D01*
X149667156Y-58819999D01*
X149667173Y-58820000D01*
X150465001Y-58820000D01*
X150465001Y-57781879D01*
X150512359Y-57809222D01*
X150645883Y-57845000D01*
X150784119Y-57845000D01*
X150917643Y-57809222D01*
X150965001Y-57781879D01*
X150965001Y-58820000D01*
X151762829Y-58820000D01*
X151762845Y-58819999D01*
X151822373Y-58813598D01*
X151822380Y-58813596D01*
X151933490Y-58772155D01*
X169215001Y-58772155D01*
X169215001Y-59570000D01*
X170253121Y-59570000D01*
X170225779Y-59617358D01*
X170190001Y-59750882D01*
X170190001Y-59889118D01*
X170225779Y-60022642D01*
X170253121Y-60070000D01*
X169215001Y-60070000D01*
X169215001Y-60867844D01*
X169221402Y-60927372D01*
X169221404Y-60927379D01*
X169271646Y-61062086D01*
X169271650Y-61062093D01*
X169357810Y-61177187D01*
X169357813Y-61177190D01*
X169472907Y-61263350D01*
X169472914Y-61263354D01*
X169607621Y-61313596D01*
X169607628Y-61313598D01*
X169667156Y-61319999D01*
X169667173Y-61320000D01*
X170465001Y-61320000D01*
X170465001Y-60281879D01*
X170512359Y-60309222D01*
X170645883Y-60345000D01*
X170784119Y-60345000D01*
X170917643Y-60309222D01*
X170965001Y-60281879D01*
X170965001Y-61320000D01*
X171762829Y-61320000D01*
X171762845Y-61319999D01*
X171822373Y-61313598D01*
X171822380Y-61313596D01*
X171957087Y-61263354D01*
X171957094Y-61263350D01*
X172072188Y-61177190D01*
X172072191Y-61177187D01*
X172158351Y-61062093D01*
X172158355Y-61062086D01*
X172208597Y-60927379D01*
X172208599Y-60927372D01*
X172215000Y-60867844D01*
X172215001Y-60867827D01*
X172215001Y-60070000D01*
X171176881Y-60070000D01*
X171204223Y-60022642D01*
X171240001Y-59889118D01*
X171240001Y-59750882D01*
X171204223Y-59617358D01*
X171176881Y-59570000D01*
X172215001Y-59570000D01*
X172215001Y-58772172D01*
X172215000Y-58772155D01*
X172208599Y-58712627D01*
X172208597Y-58712620D01*
X172158355Y-58577913D01*
X172158351Y-58577906D01*
X172072191Y-58462812D01*
X172072188Y-58462809D01*
X171957094Y-58376649D01*
X171957087Y-58376645D01*
X171822380Y-58326403D01*
X171822373Y-58326401D01*
X171762845Y-58320000D01*
X170965001Y-58320000D01*
X170965001Y-59358120D01*
X170917643Y-59330778D01*
X170784119Y-59295000D01*
X170645883Y-59295000D01*
X170512359Y-59330778D01*
X170465001Y-59358120D01*
X170465001Y-58320000D01*
X169667156Y-58320000D01*
X169607628Y-58326401D01*
X169607621Y-58326403D01*
X169472914Y-58376645D01*
X169472907Y-58376649D01*
X169357813Y-58462809D01*
X169357810Y-58462812D01*
X169271650Y-58577906D01*
X169271646Y-58577913D01*
X169221404Y-58712620D01*
X169221402Y-58712627D01*
X169215001Y-58772155D01*
X151933490Y-58772155D01*
X151957087Y-58763354D01*
X151957094Y-58763350D01*
X152072188Y-58677190D01*
X152072191Y-58677187D01*
X152158351Y-58562093D01*
X152158355Y-58562086D01*
X152208597Y-58427379D01*
X152208599Y-58427372D01*
X152215000Y-58367844D01*
X152215001Y-58367827D01*
X152215001Y-57570000D01*
X151176881Y-57570000D01*
X151204223Y-57522642D01*
X151240001Y-57389118D01*
X151240001Y-57250882D01*
X151204223Y-57117358D01*
X151176881Y-57070000D01*
X152215001Y-57070000D01*
X152215001Y-56272172D01*
X152215000Y-56272155D01*
X152208599Y-56212627D01*
X152208597Y-56212620D01*
X152158355Y-56077913D01*
X152158351Y-56077906D01*
X152072191Y-55962812D01*
X152072188Y-55962809D01*
X151957094Y-55876649D01*
X151957087Y-55876645D01*
X151822380Y-55826403D01*
X151822373Y-55826401D01*
X151762845Y-55820000D01*
X150965001Y-55820000D01*
X150965001Y-56858120D01*
X150917643Y-56830778D01*
X150784119Y-56795000D01*
X150645883Y-56795000D01*
X150512359Y-56830778D01*
X150465001Y-56858120D01*
X150465001Y-55820000D01*
X149667156Y-55820000D01*
X149607628Y-55826401D01*
X149607621Y-55826403D01*
X149472914Y-55876645D01*
X149472907Y-55876649D01*
X149357813Y-55962809D01*
X149357810Y-55962812D01*
X149271650Y-56077906D01*
X149271646Y-56077913D01*
X149221404Y-56212620D01*
X149221402Y-56212627D01*
X149215001Y-56272155D01*
X141304250Y-56272155D01*
X141300110Y-56222187D01*
X141300108Y-56222175D01*
X141239064Y-55981118D01*
X141139174Y-55753393D01*
X141003167Y-55545217D01*
X140963555Y-55502187D01*
X140834745Y-55362262D01*
X140638510Y-55209526D01*
X140638508Y-55209525D01*
X140638507Y-55209524D01*
X140419812Y-55091172D01*
X140419803Y-55091169D01*
X140184617Y-55010429D01*
X139939336Y-54969500D01*
X139690666Y-54969500D01*
X139445384Y-55010429D01*
X139397156Y-55026986D01*
X139327357Y-55030136D01*
X139266936Y-54995050D01*
X139235075Y-54932867D01*
X139241891Y-54863330D01*
X139255319Y-54838581D01*
X139301663Y-54772394D01*
X139301667Y-54772388D01*
X139394102Y-54574159D01*
X139394106Y-54574150D01*
X139450711Y-54362894D01*
X139450713Y-54362884D01*
X139469776Y-54145000D01*
X139469776Y-54144999D01*
X141960226Y-54144999D01*
X141960226Y-54145000D01*
X141979288Y-54362884D01*
X141979290Y-54362894D01*
X142035895Y-54574150D01*
X142035899Y-54574159D01*
X142128334Y-54772387D01*
X142171875Y-54834571D01*
X142752450Y-54253996D01*
X142772371Y-54328343D01*
X142834906Y-54436657D01*
X142923344Y-54525095D01*
X143031658Y-54587630D01*
X143106001Y-54607550D01*
X142525428Y-55188124D01*
X142587613Y-55231666D01*
X142785841Y-55324101D01*
X142785850Y-55324105D01*
X142997106Y-55380710D01*
X142997116Y-55380712D01*
X143215000Y-55399775D01*
X143215002Y-55399775D01*
X143432885Y-55380712D01*
X143432895Y-55380710D01*
X143644151Y-55324105D01*
X143644160Y-55324101D01*
X143842388Y-55231667D01*
X144020825Y-55106723D01*
X144087031Y-55084396D01*
X144154798Y-55101406D01*
X144202612Y-55152354D01*
X144215238Y-55195041D01*
X144221402Y-55252373D01*
X144221404Y-55252379D01*
X144271646Y-55387086D01*
X144271650Y-55387093D01*
X144357810Y-55502187D01*
X144357813Y-55502190D01*
X144472907Y-55588350D01*
X144472914Y-55588354D01*
X144607621Y-55638596D01*
X144607628Y-55638598D01*
X144667156Y-55644999D01*
X144667173Y-55645000D01*
X145465001Y-55645000D01*
X145465001Y-54606879D01*
X145512359Y-54634222D01*
X145645883Y-54670000D01*
X145784119Y-54670000D01*
X145917643Y-54634222D01*
X145965001Y-54606879D01*
X145965001Y-55645000D01*
X146762829Y-55645000D01*
X146762845Y-55644999D01*
X146822373Y-55638598D01*
X146822380Y-55638596D01*
X146957087Y-55588354D01*
X146957094Y-55588350D01*
X147072188Y-55502190D01*
X147072191Y-55502187D01*
X147158351Y-55387093D01*
X147158355Y-55387086D01*
X147179970Y-55329134D01*
X147221841Y-55273200D01*
X147287305Y-55248783D01*
X147348557Y-55260085D01*
X147485841Y-55324101D01*
X147485850Y-55324105D01*
X147697106Y-55380710D01*
X147697116Y-55380712D01*
X147915000Y-55399775D01*
X147915002Y-55399775D01*
X148132885Y-55380712D01*
X148132895Y-55380710D01*
X148344151Y-55324105D01*
X148344165Y-55324100D01*
X148542384Y-55231669D01*
X148542386Y-55231668D01*
X148604571Y-55188124D01*
X148023997Y-54607550D01*
X148098344Y-54587630D01*
X148206658Y-54525095D01*
X148295096Y-54436657D01*
X148357631Y-54328343D01*
X148377551Y-54253997D01*
X148958125Y-54834570D01*
X149001669Y-54772385D01*
X149001670Y-54772383D01*
X149094101Y-54574164D01*
X149094106Y-54574150D01*
X149150711Y-54362894D01*
X149150713Y-54362884D01*
X149169776Y-54145000D01*
X149169776Y-54144999D01*
X149150713Y-53927115D01*
X149150711Y-53927105D01*
X149094106Y-53715849D01*
X149094102Y-53715840D01*
X149001668Y-53517614D01*
X149001667Y-53517612D01*
X148958125Y-53455428D01*
X148958125Y-53455427D01*
X148377551Y-54036001D01*
X148357631Y-53961657D01*
X148295096Y-53853343D01*
X148206658Y-53764905D01*
X148098344Y-53702370D01*
X148023998Y-53682449D01*
X148604572Y-53101874D01*
X148597832Y-53097155D01*
X154215001Y-53097155D01*
X154215001Y-53895000D01*
X155253121Y-53895000D01*
X155225779Y-53942358D01*
X155190001Y-54075882D01*
X155190001Y-54214118D01*
X155225779Y-54347642D01*
X155253121Y-54395000D01*
X154215001Y-54395000D01*
X154215001Y-55192844D01*
X154221402Y-55252372D01*
X154221404Y-55252379D01*
X154271646Y-55387086D01*
X154271650Y-55387093D01*
X154357810Y-55502187D01*
X154357813Y-55502190D01*
X154472907Y-55588350D01*
X154472914Y-55588354D01*
X154607621Y-55638596D01*
X154607628Y-55638598D01*
X154667156Y-55644999D01*
X154667173Y-55645000D01*
X155465001Y-55645000D01*
X155465001Y-54606879D01*
X155512359Y-54634222D01*
X155645883Y-54670000D01*
X155784119Y-54670000D01*
X155917643Y-54634222D01*
X155965001Y-54606879D01*
X155965001Y-55645000D01*
X156762829Y-55645000D01*
X156762845Y-55644999D01*
X156822373Y-55638598D01*
X156822380Y-55638596D01*
X156957087Y-55588354D01*
X156957094Y-55588350D01*
X157072188Y-55502190D01*
X157072191Y-55502187D01*
X157158351Y-55387093D01*
X157158355Y-55387086D01*
X157208597Y-55252379D01*
X157208599Y-55252372D01*
X157215000Y-55192844D01*
X157215001Y-55192827D01*
X157215001Y-54395000D01*
X156176881Y-54395000D01*
X156204223Y-54347642D01*
X156240001Y-54214118D01*
X156240001Y-54075882D01*
X156204223Y-53942358D01*
X156176881Y-53895000D01*
X157215001Y-53895000D01*
X157215001Y-53097172D01*
X157215000Y-53097155D01*
X164215001Y-53097155D01*
X164215001Y-53895000D01*
X165253121Y-53895000D01*
X165225779Y-53942358D01*
X165190001Y-54075882D01*
X165190001Y-54214118D01*
X165225779Y-54347642D01*
X165253121Y-54395000D01*
X164215001Y-54395000D01*
X164215001Y-55192844D01*
X164221402Y-55252372D01*
X164221404Y-55252379D01*
X164271646Y-55387086D01*
X164271650Y-55387093D01*
X164357810Y-55502187D01*
X164357813Y-55502190D01*
X164472907Y-55588350D01*
X164472914Y-55588354D01*
X164607621Y-55638596D01*
X164607628Y-55638598D01*
X164667156Y-55644999D01*
X164667173Y-55645000D01*
X165465001Y-55645000D01*
X165465001Y-54606879D01*
X165512359Y-54634222D01*
X165645883Y-54670000D01*
X165784119Y-54670000D01*
X165917643Y-54634222D01*
X165965001Y-54606879D01*
X165965001Y-55645000D01*
X166762829Y-55645000D01*
X166762845Y-55644999D01*
X166822373Y-55638598D01*
X166822380Y-55638596D01*
X166957087Y-55588354D01*
X166957094Y-55588350D01*
X167072188Y-55502190D01*
X167072191Y-55502187D01*
X167158351Y-55387093D01*
X167158355Y-55387086D01*
X167208597Y-55252379D01*
X167208599Y-55252372D01*
X167215000Y-55192844D01*
X167215001Y-55192827D01*
X167215001Y-54395000D01*
X166176881Y-54395000D01*
X166204223Y-54347642D01*
X166240001Y-54214118D01*
X166240001Y-54075882D01*
X166204223Y-53942358D01*
X166176881Y-53895000D01*
X167215001Y-53895000D01*
X167215001Y-53097172D01*
X167215000Y-53097155D01*
X167208599Y-53037627D01*
X167208597Y-53037620D01*
X167158355Y-52902913D01*
X167158351Y-52902906D01*
X167072191Y-52787812D01*
X167072188Y-52787809D01*
X166957094Y-52701649D01*
X166957087Y-52701645D01*
X166822380Y-52651403D01*
X166822373Y-52651401D01*
X166762845Y-52645000D01*
X165965001Y-52645000D01*
X165965001Y-53683120D01*
X165917643Y-53655778D01*
X165784119Y-53620000D01*
X165645883Y-53620000D01*
X165512359Y-53655778D01*
X165465001Y-53683120D01*
X165465001Y-52645000D01*
X164667156Y-52645000D01*
X164607628Y-52651401D01*
X164607621Y-52651403D01*
X164472914Y-52701645D01*
X164472907Y-52701649D01*
X164357813Y-52787809D01*
X164357810Y-52787812D01*
X164271650Y-52902906D01*
X164271646Y-52902913D01*
X164221404Y-53037620D01*
X164221402Y-53037627D01*
X164215001Y-53097155D01*
X157215000Y-53097155D01*
X157208599Y-53037627D01*
X157208597Y-53037620D01*
X157158355Y-52902913D01*
X157158351Y-52902906D01*
X157072191Y-52787812D01*
X157072188Y-52787809D01*
X156957094Y-52701649D01*
X156957087Y-52701645D01*
X156822380Y-52651403D01*
X156822373Y-52651401D01*
X156762845Y-52645000D01*
X155965001Y-52645000D01*
X155965001Y-53683120D01*
X155917643Y-53655778D01*
X155784119Y-53620000D01*
X155645883Y-53620000D01*
X155512359Y-53655778D01*
X155465001Y-53683120D01*
X155465001Y-52645000D01*
X154667156Y-52645000D01*
X154607628Y-52651401D01*
X154607621Y-52651403D01*
X154472914Y-52701645D01*
X154472907Y-52701649D01*
X154357813Y-52787809D01*
X154357810Y-52787812D01*
X154271650Y-52902906D01*
X154271646Y-52902913D01*
X154221404Y-53037620D01*
X154221402Y-53037627D01*
X154215001Y-53097155D01*
X148597832Y-53097155D01*
X148542388Y-53058333D01*
X148344160Y-52965898D01*
X148344151Y-52965894D01*
X148132895Y-52909289D01*
X148132885Y-52909287D01*
X147915002Y-52890225D01*
X147915000Y-52890225D01*
X147697116Y-52909287D01*
X147697106Y-52909289D01*
X147485850Y-52965894D01*
X147485836Y-52965899D01*
X147348556Y-53029914D01*
X147279479Y-53040406D01*
X147215695Y-53011886D01*
X147179970Y-52960865D01*
X147158355Y-52902913D01*
X147158351Y-52902906D01*
X147072191Y-52787812D01*
X147072188Y-52787809D01*
X146957094Y-52701649D01*
X146957087Y-52701645D01*
X146822380Y-52651403D01*
X146822373Y-52651401D01*
X146762845Y-52645000D01*
X145965001Y-52645000D01*
X145965001Y-53683120D01*
X145917643Y-53655778D01*
X145784119Y-53620000D01*
X145645883Y-53620000D01*
X145512359Y-53655778D01*
X145465001Y-53683120D01*
X145465001Y-52645000D01*
X144667156Y-52645000D01*
X144607628Y-52651401D01*
X144607621Y-52651403D01*
X144472914Y-52701645D01*
X144472907Y-52701649D01*
X144357813Y-52787809D01*
X144357810Y-52787812D01*
X144271650Y-52902906D01*
X144271646Y-52902913D01*
X144221404Y-53037620D01*
X144221402Y-53037626D01*
X144215238Y-53094958D01*
X144188499Y-53159509D01*
X144131106Y-53199356D01*
X144061281Y-53201849D01*
X144020825Y-53183276D01*
X143842388Y-53058333D01*
X143644160Y-52965898D01*
X143644151Y-52965894D01*
X143432895Y-52909289D01*
X143432885Y-52909287D01*
X143215002Y-52890225D01*
X143215000Y-52890225D01*
X142997116Y-52909287D01*
X142997106Y-52909289D01*
X142785850Y-52965894D01*
X142785841Y-52965898D01*
X142587614Y-53058333D01*
X142525428Y-53101874D01*
X143106003Y-53682449D01*
X143031658Y-53702370D01*
X142923344Y-53764905D01*
X142834906Y-53853343D01*
X142772371Y-53961657D01*
X142752450Y-54036003D01*
X142171875Y-53455428D01*
X142128334Y-53517613D01*
X142035899Y-53715840D01*
X142035895Y-53715849D01*
X141979290Y-53927105D01*
X141979288Y-53927115D01*
X141960226Y-54144999D01*
X139469776Y-54144999D01*
X139450713Y-53927115D01*
X139450711Y-53927105D01*
X139394106Y-53715849D01*
X139394102Y-53715840D01*
X139301668Y-53517614D01*
X139301667Y-53517612D01*
X139258125Y-53455428D01*
X139258125Y-53455427D01*
X138677551Y-54036000D01*
X138657631Y-53961657D01*
X138595096Y-53853343D01*
X138506658Y-53764905D01*
X138398344Y-53702370D01*
X138323996Y-53682449D01*
X138904572Y-53101874D01*
X138842388Y-53058333D01*
X138644160Y-52965898D01*
X138644151Y-52965894D01*
X138432895Y-52909289D01*
X138432885Y-52909287D01*
X138215002Y-52890225D01*
X138215000Y-52890225D01*
X137997116Y-52909287D01*
X137997106Y-52909289D01*
X137785850Y-52965894D01*
X137785841Y-52965898D01*
X137587613Y-53058333D01*
X137587609Y-53058335D01*
X137409175Y-53183276D01*
X137342969Y-53205603D01*
X137275202Y-53188593D01*
X137227389Y-53137645D01*
X137214762Y-53094956D01*
X137208597Y-53037619D01*
X137158355Y-52902913D01*
X137158351Y-52902906D01*
X137072191Y-52787812D01*
X137072188Y-52787809D01*
X136957094Y-52701649D01*
X136957087Y-52701645D01*
X136822380Y-52651403D01*
X136822373Y-52651401D01*
X136762845Y-52645000D01*
X135965001Y-52645000D01*
X135965001Y-53683120D01*
X135917643Y-53655778D01*
X135784119Y-53620000D01*
X135645883Y-53620000D01*
X135512359Y-53655778D01*
X135465001Y-53683120D01*
X135465001Y-52645000D01*
X134667156Y-52645000D01*
X134607628Y-52651401D01*
X134607621Y-52651403D01*
X134472914Y-52701645D01*
X134472907Y-52701649D01*
X134357813Y-52787809D01*
X134357810Y-52787812D01*
X134271650Y-52902906D01*
X134271646Y-52902913D01*
X134221404Y-53037620D01*
X134221402Y-53037627D01*
X134215001Y-53097155D01*
X134215001Y-53895000D01*
X135253121Y-53895000D01*
X135225779Y-53942358D01*
X135190001Y-54075882D01*
X135190001Y-54214118D01*
X135225779Y-54347642D01*
X135253121Y-54395000D01*
X134215001Y-54395000D01*
X134215001Y-55175988D01*
X134195316Y-55243027D01*
X134142512Y-55288782D01*
X134073354Y-55298726D01*
X134048587Y-55292508D01*
X134044163Y-55290897D01*
X133832895Y-55234289D01*
X133832885Y-55234287D01*
X133615002Y-55215225D01*
X133615000Y-55215225D01*
X133397116Y-55234287D01*
X133397106Y-55234289D01*
X133185850Y-55290894D01*
X133185841Y-55290898D01*
X132987614Y-55383333D01*
X132925428Y-55426874D01*
X133506003Y-56007449D01*
X133431658Y-56027370D01*
X133323344Y-56089905D01*
X133234906Y-56178343D01*
X133172371Y-56286657D01*
X133152450Y-56361003D01*
X132571875Y-55780428D01*
X132528334Y-55842613D01*
X132435899Y-56040840D01*
X132435895Y-56040849D01*
X132379290Y-56252105D01*
X132379288Y-56252115D01*
X132360226Y-56469999D01*
X131955426Y-56469999D01*
X131945370Y-56380750D01*
X131945369Y-56380745D01*
X131910283Y-56280476D01*
X131885790Y-56210478D01*
X131789817Y-56057738D01*
X131662263Y-55930184D01*
X131632303Y-55911359D01*
X131509524Y-55834211D01*
X131339255Y-55774631D01*
X131339250Y-55774630D01*
X131160005Y-55754435D01*
X131159997Y-55754435D01*
X130980751Y-55774630D01*
X130980746Y-55774631D01*
X130810477Y-55834211D01*
X130657738Y-55930184D01*
X130530185Y-56057737D01*
X130434212Y-56210476D01*
X130374632Y-56380745D01*
X130374631Y-56380750D01*
X130354436Y-56559996D01*
X126637679Y-56559996D01*
X126625370Y-56450750D01*
X126625369Y-56450745D01*
X126582612Y-56328553D01*
X126565790Y-56280478D01*
X126560560Y-56272155D01*
X126469816Y-56127737D01*
X126342263Y-56000184D01*
X126189524Y-55904211D01*
X126019255Y-55844631D01*
X126019250Y-55844630D01*
X125840005Y-55824435D01*
X125839997Y-55824435D01*
X125660751Y-55844630D01*
X125660746Y-55844631D01*
X125490477Y-55904211D01*
X125337738Y-56000184D01*
X125210185Y-56127737D01*
X125114212Y-56280476D01*
X125054632Y-56450745D01*
X125054631Y-56450750D01*
X125034436Y-56629996D01*
X123992572Y-56629996D01*
X124040316Y-56328553D01*
X124060614Y-55941266D01*
X124060614Y-55941265D01*
X124040316Y-55553978D01*
X123979649Y-55170942D01*
X123979648Y-55170935D01*
X123879273Y-54796329D01*
X123740291Y-54434271D01*
X123564225Y-54088722D01*
X123353004Y-53763472D01*
X123144440Y-53505915D01*
X123144439Y-53505914D01*
X121649787Y-55000566D01*
X121575948Y-54898936D01*
X121397866Y-54720854D01*
X121296234Y-54647014D01*
X122790886Y-53152362D01*
X122790886Y-53152361D01*
X122533329Y-52943797D01*
X122208079Y-52732576D01*
X121862530Y-52556510D01*
X121500472Y-52417528D01*
X121125866Y-52317153D01*
X121125859Y-52317152D01*
X120742823Y-52256485D01*
X120355537Y-52236188D01*
X120355535Y-52236188D01*
X119968248Y-52256485D01*
X119585212Y-52317152D01*
X119585205Y-52317153D01*
X119210599Y-52417528D01*
X118848541Y-52556510D01*
X118502992Y-52732576D01*
X118177742Y-52943797D01*
X117920184Y-53152361D01*
X117920184Y-53152362D01*
X119414837Y-54647014D01*
X119313206Y-54720854D01*
X119135124Y-54898936D01*
X119061284Y-55000566D01*
X117566632Y-53505914D01*
X117566631Y-53505914D01*
X117358067Y-53763472D01*
X117146846Y-54088722D01*
X116970780Y-54434271D01*
X116831798Y-54796329D01*
X116731423Y-55170935D01*
X116731422Y-55170942D01*
X116670755Y-55553978D01*
X116650458Y-55941265D01*
X115506095Y-55941265D01*
X115506153Y-55938575D01*
X115524254Y-55523987D01*
X115525194Y-55513256D01*
X115579004Y-55104521D01*
X115580878Y-55093891D01*
X115670112Y-54691390D01*
X115672905Y-54680969D01*
X115796875Y-54287785D01*
X115800561Y-54277657D01*
X115958332Y-53896762D01*
X115962890Y-53886988D01*
X116153250Y-53521313D01*
X116158645Y-53511967D01*
X116380157Y-53164262D01*
X116386343Y-53155427D01*
X116637329Y-52828338D01*
X116644254Y-52820086D01*
X116922776Y-52516132D01*
X116930402Y-52508506D01*
X117234356Y-52229984D01*
X117242608Y-52223059D01*
X117569697Y-51972073D01*
X117578532Y-51965887D01*
X117926237Y-51744375D01*
X117935583Y-51738980D01*
X118301258Y-51548620D01*
X118311032Y-51544062D01*
X118691927Y-51386291D01*
X118702055Y-51382605D01*
X119095239Y-51258635D01*
X119105660Y-51255842D01*
X119508161Y-51166608D01*
X119518791Y-51164734D01*
X119927526Y-51110924D01*
X119938257Y-51109984D01*
X120352833Y-51091883D01*
X120358242Y-51091766D01*
X120389887Y-51091766D01*
X175095501Y-51091766D01*
X175162540Y-51111451D01*
G37*
%TD.AperFunction*%
%TD*%
M02*
