%TF.GenerationSoftware,KiCad,Pcbnew,8.0.4*%
%TF.CreationDate,2025-11-09T23:28:21-03:00*%
%TF.ProjectId,sfp_moduloIC,7366705f-6d6f-4647-956c-6f49432e6b69,v2.0*%
%TF.SameCoordinates,Original*%
%TF.FileFunction,Drillmap*%
%TF.FilePolarity,Positive*%
%FSLAX45Y45*%
G04 Gerber Fmt 4.5, Leading zero omitted, Abs format (unit mm)*
G04 Created by KiCad (PCBNEW 8.0.4) date 2025-11-09 23:28:21*
%MOMM*%
%LPD*%
G01*
G04 APERTURE LIST*
%ADD10C,0.400000*%
%ADD11C,0.200000*%
%ADD12C,0.155000*%
G04 APERTURE END LIST*
D10*
X12037000Y-13545573D02*
G75*
G02*
X11536997Y-13045573I0J500003D01*
G01*
X12037000Y-13545573D02*
X17037000Y-13545573D01*
X11535554Y-5594127D02*
X11537000Y-13045573D01*
X17537000Y-13045573D02*
G75*
G02*
X17037000Y-13545570I-500000J3D01*
G01*
X11535554Y-5594127D02*
G75*
G02*
X12035554Y-5094127I500000J0D01*
G01*
X17537000Y-13045573D02*
X17537000Y-5094127D01*
X12035554Y-5094127D02*
X17537000Y-5094127D01*
D11*
D12*
X13904000Y-5569500D02*
X14059000Y-5724500D01*
X14059000Y-5569500D02*
X13904000Y-5724500D01*
X13904000Y-6529500D02*
X14059000Y-6684500D01*
X14059000Y-6529500D02*
X13904000Y-6684500D01*
D11*
X11776330Y-13877057D02*
X11776330Y-13677057D01*
X11776330Y-13677057D02*
X11823949Y-13677057D01*
X11823949Y-13677057D02*
X11852521Y-13686581D01*
X11852521Y-13686581D02*
X11871568Y-13705628D01*
X11871568Y-13705628D02*
X11881092Y-13724676D01*
X11881092Y-13724676D02*
X11890616Y-13762771D01*
X11890616Y-13762771D02*
X11890616Y-13791343D01*
X11890616Y-13791343D02*
X11881092Y-13829438D01*
X11881092Y-13829438D02*
X11871568Y-13848485D01*
X11871568Y-13848485D02*
X11852521Y-13867533D01*
X11852521Y-13867533D02*
X11823949Y-13877057D01*
X11823949Y-13877057D02*
X11776330Y-13877057D01*
X11976330Y-13877057D02*
X11976330Y-13743724D01*
X11976330Y-13781819D02*
X11985854Y-13762771D01*
X11985854Y-13762771D02*
X11995378Y-13753247D01*
X11995378Y-13753247D02*
X12014426Y-13743724D01*
X12014426Y-13743724D02*
X12033473Y-13743724D01*
X12100140Y-13877057D02*
X12100140Y-13743724D01*
X12100140Y-13677057D02*
X12090616Y-13686581D01*
X12090616Y-13686581D02*
X12100140Y-13696105D01*
X12100140Y-13696105D02*
X12109664Y-13686581D01*
X12109664Y-13686581D02*
X12100140Y-13677057D01*
X12100140Y-13677057D02*
X12100140Y-13696105D01*
X12223949Y-13877057D02*
X12204902Y-13867533D01*
X12204902Y-13867533D02*
X12195378Y-13848485D01*
X12195378Y-13848485D02*
X12195378Y-13677057D01*
X12328711Y-13877057D02*
X12309664Y-13867533D01*
X12309664Y-13867533D02*
X12300140Y-13848485D01*
X12300140Y-13848485D02*
X12300140Y-13677057D01*
X12557283Y-13877057D02*
X12557283Y-13677057D01*
X12557283Y-13677057D02*
X12623949Y-13819914D01*
X12623949Y-13819914D02*
X12690616Y-13677057D01*
X12690616Y-13677057D02*
X12690616Y-13877057D01*
X12871568Y-13877057D02*
X12871568Y-13772295D01*
X12871568Y-13772295D02*
X12862045Y-13753247D01*
X12862045Y-13753247D02*
X12842997Y-13743724D01*
X12842997Y-13743724D02*
X12804902Y-13743724D01*
X12804902Y-13743724D02*
X12785854Y-13753247D01*
X12871568Y-13867533D02*
X12852521Y-13877057D01*
X12852521Y-13877057D02*
X12804902Y-13877057D01*
X12804902Y-13877057D02*
X12785854Y-13867533D01*
X12785854Y-13867533D02*
X12776330Y-13848485D01*
X12776330Y-13848485D02*
X12776330Y-13829438D01*
X12776330Y-13829438D02*
X12785854Y-13810390D01*
X12785854Y-13810390D02*
X12804902Y-13800866D01*
X12804902Y-13800866D02*
X12852521Y-13800866D01*
X12852521Y-13800866D02*
X12871568Y-13791343D01*
X12966807Y-13743724D02*
X12966807Y-13943724D01*
X12966807Y-13753247D02*
X12985854Y-13743724D01*
X12985854Y-13743724D02*
X13023949Y-13743724D01*
X13023949Y-13743724D02*
X13042997Y-13753247D01*
X13042997Y-13753247D02*
X13052521Y-13762771D01*
X13052521Y-13762771D02*
X13062045Y-13781819D01*
X13062045Y-13781819D02*
X13062045Y-13838962D01*
X13062045Y-13838962D02*
X13052521Y-13858009D01*
X13052521Y-13858009D02*
X13042997Y-13867533D01*
X13042997Y-13867533D02*
X13023949Y-13877057D01*
X13023949Y-13877057D02*
X12985854Y-13877057D01*
X12985854Y-13877057D02*
X12966807Y-13867533D01*
X13147759Y-13858009D02*
X13157283Y-13867533D01*
X13157283Y-13867533D02*
X13147759Y-13877057D01*
X13147759Y-13877057D02*
X13138235Y-13867533D01*
X13138235Y-13867533D02*
X13147759Y-13858009D01*
X13147759Y-13858009D02*
X13147759Y-13877057D01*
X13147759Y-13753247D02*
X13157283Y-13762771D01*
X13157283Y-13762771D02*
X13147759Y-13772295D01*
X13147759Y-13772295D02*
X13138235Y-13762771D01*
X13138235Y-13762771D02*
X13147759Y-13753247D01*
X13147759Y-13753247D02*
X13147759Y-13772295D01*
D12*
X11360554Y-14128073D02*
X11515554Y-14283073D01*
X11515554Y-14128073D02*
X11360554Y-14283073D01*
D11*
X11881092Y-14297057D02*
X11766807Y-14297057D01*
X11823949Y-14297057D02*
X11823949Y-14097057D01*
X11823949Y-14097057D02*
X11804902Y-14125628D01*
X11804902Y-14125628D02*
X11785854Y-14144676D01*
X11785854Y-14144676D02*
X11766807Y-14154200D01*
X11966807Y-14278009D02*
X11976330Y-14287533D01*
X11976330Y-14287533D02*
X11966807Y-14297057D01*
X11966807Y-14297057D02*
X11957283Y-14287533D01*
X11957283Y-14287533D02*
X11966807Y-14278009D01*
X11966807Y-14278009D02*
X11966807Y-14297057D01*
X12157283Y-14097057D02*
X12062045Y-14097057D01*
X12062045Y-14097057D02*
X12052521Y-14192295D01*
X12052521Y-14192295D02*
X12062045Y-14182771D01*
X12062045Y-14182771D02*
X12081092Y-14173247D01*
X12081092Y-14173247D02*
X12128711Y-14173247D01*
X12128711Y-14173247D02*
X12147759Y-14182771D01*
X12147759Y-14182771D02*
X12157283Y-14192295D01*
X12157283Y-14192295D02*
X12166807Y-14211343D01*
X12166807Y-14211343D02*
X12166807Y-14258962D01*
X12166807Y-14258962D02*
X12157283Y-14278009D01*
X12157283Y-14278009D02*
X12147759Y-14287533D01*
X12147759Y-14287533D02*
X12128711Y-14297057D01*
X12128711Y-14297057D02*
X12081092Y-14297057D01*
X12081092Y-14297057D02*
X12062045Y-14287533D01*
X12062045Y-14287533D02*
X12052521Y-14278009D01*
X12347759Y-14097057D02*
X12252521Y-14097057D01*
X12252521Y-14097057D02*
X12242997Y-14192295D01*
X12242997Y-14192295D02*
X12252521Y-14182771D01*
X12252521Y-14182771D02*
X12271568Y-14173247D01*
X12271568Y-14173247D02*
X12319188Y-14173247D01*
X12319188Y-14173247D02*
X12338235Y-14182771D01*
X12338235Y-14182771D02*
X12347759Y-14192295D01*
X12347759Y-14192295D02*
X12357283Y-14211343D01*
X12357283Y-14211343D02*
X12357283Y-14258962D01*
X12357283Y-14258962D02*
X12347759Y-14278009D01*
X12347759Y-14278009D02*
X12338235Y-14287533D01*
X12338235Y-14287533D02*
X12319188Y-14297057D01*
X12319188Y-14297057D02*
X12271568Y-14297057D01*
X12271568Y-14297057D02*
X12252521Y-14287533D01*
X12252521Y-14287533D02*
X12242997Y-14278009D01*
X12481092Y-14097057D02*
X12500140Y-14097057D01*
X12500140Y-14097057D02*
X12519188Y-14106581D01*
X12519188Y-14106581D02*
X12528711Y-14116105D01*
X12528711Y-14116105D02*
X12538235Y-14135152D01*
X12538235Y-14135152D02*
X12547759Y-14173247D01*
X12547759Y-14173247D02*
X12547759Y-14220866D01*
X12547759Y-14220866D02*
X12538235Y-14258962D01*
X12538235Y-14258962D02*
X12528711Y-14278009D01*
X12528711Y-14278009D02*
X12519188Y-14287533D01*
X12519188Y-14287533D02*
X12500140Y-14297057D01*
X12500140Y-14297057D02*
X12481092Y-14297057D01*
X12481092Y-14297057D02*
X12462045Y-14287533D01*
X12462045Y-14287533D02*
X12452521Y-14278009D01*
X12452521Y-14278009D02*
X12442997Y-14258962D01*
X12442997Y-14258962D02*
X12433473Y-14220866D01*
X12433473Y-14220866D02*
X12433473Y-14173247D01*
X12433473Y-14173247D02*
X12442997Y-14135152D01*
X12442997Y-14135152D02*
X12452521Y-14116105D01*
X12452521Y-14116105D02*
X12462045Y-14106581D01*
X12462045Y-14106581D02*
X12481092Y-14097057D01*
X12633473Y-14297057D02*
X12633473Y-14163724D01*
X12633473Y-14182771D02*
X12642997Y-14173247D01*
X12642997Y-14173247D02*
X12662045Y-14163724D01*
X12662045Y-14163724D02*
X12690616Y-14163724D01*
X12690616Y-14163724D02*
X12709664Y-14173247D01*
X12709664Y-14173247D02*
X12719188Y-14192295D01*
X12719188Y-14192295D02*
X12719188Y-14297057D01*
X12719188Y-14192295D02*
X12728711Y-14173247D01*
X12728711Y-14173247D02*
X12747759Y-14163724D01*
X12747759Y-14163724D02*
X12776330Y-14163724D01*
X12776330Y-14163724D02*
X12795378Y-14173247D01*
X12795378Y-14173247D02*
X12804902Y-14192295D01*
X12804902Y-14192295D02*
X12804902Y-14297057D01*
X12900140Y-14297057D02*
X12900140Y-14163724D01*
X12900140Y-14182771D02*
X12909664Y-14173247D01*
X12909664Y-14173247D02*
X12928711Y-14163724D01*
X12928711Y-14163724D02*
X12957283Y-14163724D01*
X12957283Y-14163724D02*
X12976330Y-14173247D01*
X12976330Y-14173247D02*
X12985854Y-14192295D01*
X12985854Y-14192295D02*
X12985854Y-14297057D01*
X12985854Y-14192295D02*
X12995378Y-14173247D01*
X12995378Y-14173247D02*
X13014426Y-14163724D01*
X13014426Y-14163724D02*
X13042997Y-14163724D01*
X13042997Y-14163724D02*
X13062045Y-14173247D01*
X13062045Y-14173247D02*
X13071569Y-14192295D01*
X13071569Y-14192295D02*
X13071569Y-14297057D01*
X13462045Y-14087533D02*
X13290616Y-14344676D01*
X13719188Y-14097057D02*
X13738235Y-14097057D01*
X13738235Y-14097057D02*
X13757283Y-14106581D01*
X13757283Y-14106581D02*
X13766807Y-14116105D01*
X13766807Y-14116105D02*
X13776331Y-14135152D01*
X13776331Y-14135152D02*
X13785854Y-14173247D01*
X13785854Y-14173247D02*
X13785854Y-14220866D01*
X13785854Y-14220866D02*
X13776331Y-14258962D01*
X13776331Y-14258962D02*
X13766807Y-14278009D01*
X13766807Y-14278009D02*
X13757283Y-14287533D01*
X13757283Y-14287533D02*
X13738235Y-14297057D01*
X13738235Y-14297057D02*
X13719188Y-14297057D01*
X13719188Y-14297057D02*
X13700140Y-14287533D01*
X13700140Y-14287533D02*
X13690616Y-14278009D01*
X13690616Y-14278009D02*
X13681092Y-14258962D01*
X13681092Y-14258962D02*
X13671569Y-14220866D01*
X13671569Y-14220866D02*
X13671569Y-14173247D01*
X13671569Y-14173247D02*
X13681092Y-14135152D01*
X13681092Y-14135152D02*
X13690616Y-14116105D01*
X13690616Y-14116105D02*
X13700140Y-14106581D01*
X13700140Y-14106581D02*
X13719188Y-14097057D01*
X13871569Y-14278009D02*
X13881092Y-14287533D01*
X13881092Y-14287533D02*
X13871569Y-14297057D01*
X13871569Y-14297057D02*
X13862045Y-14287533D01*
X13862045Y-14287533D02*
X13871569Y-14278009D01*
X13871569Y-14278009D02*
X13871569Y-14297057D01*
X14004902Y-14097057D02*
X14023950Y-14097057D01*
X14023950Y-14097057D02*
X14042997Y-14106581D01*
X14042997Y-14106581D02*
X14052521Y-14116105D01*
X14052521Y-14116105D02*
X14062045Y-14135152D01*
X14062045Y-14135152D02*
X14071569Y-14173247D01*
X14071569Y-14173247D02*
X14071569Y-14220866D01*
X14071569Y-14220866D02*
X14062045Y-14258962D01*
X14062045Y-14258962D02*
X14052521Y-14278009D01*
X14052521Y-14278009D02*
X14042997Y-14287533D01*
X14042997Y-14287533D02*
X14023950Y-14297057D01*
X14023950Y-14297057D02*
X14004902Y-14297057D01*
X14004902Y-14297057D02*
X13985854Y-14287533D01*
X13985854Y-14287533D02*
X13976331Y-14278009D01*
X13976331Y-14278009D02*
X13966807Y-14258962D01*
X13966807Y-14258962D02*
X13957283Y-14220866D01*
X13957283Y-14220866D02*
X13957283Y-14173247D01*
X13957283Y-14173247D02*
X13966807Y-14135152D01*
X13966807Y-14135152D02*
X13976331Y-14116105D01*
X13976331Y-14116105D02*
X13985854Y-14106581D01*
X13985854Y-14106581D02*
X14004902Y-14097057D01*
X14242997Y-14097057D02*
X14204902Y-14097057D01*
X14204902Y-14097057D02*
X14185854Y-14106581D01*
X14185854Y-14106581D02*
X14176331Y-14116105D01*
X14176331Y-14116105D02*
X14157283Y-14144676D01*
X14157283Y-14144676D02*
X14147759Y-14182771D01*
X14147759Y-14182771D02*
X14147759Y-14258962D01*
X14147759Y-14258962D02*
X14157283Y-14278009D01*
X14157283Y-14278009D02*
X14166807Y-14287533D01*
X14166807Y-14287533D02*
X14185854Y-14297057D01*
X14185854Y-14297057D02*
X14223950Y-14297057D01*
X14223950Y-14297057D02*
X14242997Y-14287533D01*
X14242997Y-14287533D02*
X14252521Y-14278009D01*
X14252521Y-14278009D02*
X14262045Y-14258962D01*
X14262045Y-14258962D02*
X14262045Y-14211343D01*
X14262045Y-14211343D02*
X14252521Y-14192295D01*
X14252521Y-14192295D02*
X14242997Y-14182771D01*
X14242997Y-14182771D02*
X14223950Y-14173247D01*
X14223950Y-14173247D02*
X14185854Y-14173247D01*
X14185854Y-14173247D02*
X14166807Y-14182771D01*
X14166807Y-14182771D02*
X14157283Y-14192295D01*
X14157283Y-14192295D02*
X14147759Y-14211343D01*
X14452521Y-14297057D02*
X14338235Y-14297057D01*
X14395378Y-14297057D02*
X14395378Y-14097057D01*
X14395378Y-14097057D02*
X14376331Y-14125628D01*
X14376331Y-14125628D02*
X14357283Y-14144676D01*
X14357283Y-14144676D02*
X14338235Y-14154200D01*
X14576331Y-14097057D02*
X14595378Y-14097057D01*
X14595378Y-14097057D02*
X14614426Y-14106581D01*
X14614426Y-14106581D02*
X14623950Y-14116105D01*
X14623950Y-14116105D02*
X14633473Y-14135152D01*
X14633473Y-14135152D02*
X14642997Y-14173247D01*
X14642997Y-14173247D02*
X14642997Y-14220866D01*
X14642997Y-14220866D02*
X14633473Y-14258962D01*
X14633473Y-14258962D02*
X14623950Y-14278009D01*
X14623950Y-14278009D02*
X14614426Y-14287533D01*
X14614426Y-14287533D02*
X14595378Y-14297057D01*
X14595378Y-14297057D02*
X14576331Y-14297057D01*
X14576331Y-14297057D02*
X14557283Y-14287533D01*
X14557283Y-14287533D02*
X14547759Y-14278009D01*
X14547759Y-14278009D02*
X14538235Y-14258962D01*
X14538235Y-14258962D02*
X14528712Y-14220866D01*
X14528712Y-14220866D02*
X14528712Y-14173247D01*
X14528712Y-14173247D02*
X14538235Y-14135152D01*
X14538235Y-14135152D02*
X14547759Y-14116105D01*
X14547759Y-14116105D02*
X14557283Y-14106581D01*
X14557283Y-14106581D02*
X14576331Y-14097057D01*
X14719188Y-14097057D02*
X14719188Y-14135152D01*
X14795378Y-14097057D02*
X14795378Y-14135152D01*
X15090616Y-14373247D02*
X15081093Y-14363724D01*
X15081093Y-14363724D02*
X15062045Y-14335152D01*
X15062045Y-14335152D02*
X15052521Y-14316105D01*
X15052521Y-14316105D02*
X15042997Y-14287533D01*
X15042997Y-14287533D02*
X15033474Y-14239914D01*
X15033474Y-14239914D02*
X15033474Y-14201819D01*
X15033474Y-14201819D02*
X15042997Y-14154200D01*
X15042997Y-14154200D02*
X15052521Y-14125628D01*
X15052521Y-14125628D02*
X15062045Y-14106581D01*
X15062045Y-14106581D02*
X15081093Y-14078009D01*
X15081093Y-14078009D02*
X15090616Y-14068485D01*
X15157283Y-14116105D02*
X15166807Y-14106581D01*
X15166807Y-14106581D02*
X15185854Y-14097057D01*
X15185854Y-14097057D02*
X15233474Y-14097057D01*
X15233474Y-14097057D02*
X15252521Y-14106581D01*
X15252521Y-14106581D02*
X15262045Y-14116105D01*
X15262045Y-14116105D02*
X15271569Y-14135152D01*
X15271569Y-14135152D02*
X15271569Y-14154200D01*
X15271569Y-14154200D02*
X15262045Y-14182771D01*
X15262045Y-14182771D02*
X15147759Y-14297057D01*
X15147759Y-14297057D02*
X15271569Y-14297057D01*
X15509664Y-14297057D02*
X15509664Y-14097057D01*
X15595378Y-14297057D02*
X15595378Y-14192295D01*
X15595378Y-14192295D02*
X15585855Y-14173247D01*
X15585855Y-14173247D02*
X15566807Y-14163724D01*
X15566807Y-14163724D02*
X15538235Y-14163724D01*
X15538235Y-14163724D02*
X15519188Y-14173247D01*
X15519188Y-14173247D02*
X15509664Y-14182771D01*
X15719188Y-14297057D02*
X15700140Y-14287533D01*
X15700140Y-14287533D02*
X15690616Y-14278009D01*
X15690616Y-14278009D02*
X15681093Y-14258962D01*
X15681093Y-14258962D02*
X15681093Y-14201819D01*
X15681093Y-14201819D02*
X15690616Y-14182771D01*
X15690616Y-14182771D02*
X15700140Y-14173247D01*
X15700140Y-14173247D02*
X15719188Y-14163724D01*
X15719188Y-14163724D02*
X15747759Y-14163724D01*
X15747759Y-14163724D02*
X15766807Y-14173247D01*
X15766807Y-14173247D02*
X15776331Y-14182771D01*
X15776331Y-14182771D02*
X15785855Y-14201819D01*
X15785855Y-14201819D02*
X15785855Y-14258962D01*
X15785855Y-14258962D02*
X15776331Y-14278009D01*
X15776331Y-14278009D02*
X15766807Y-14287533D01*
X15766807Y-14287533D02*
X15747759Y-14297057D01*
X15747759Y-14297057D02*
X15719188Y-14297057D01*
X15900140Y-14297057D02*
X15881093Y-14287533D01*
X15881093Y-14287533D02*
X15871569Y-14268485D01*
X15871569Y-14268485D02*
X15871569Y-14097057D01*
X16052521Y-14287533D02*
X16033474Y-14297057D01*
X16033474Y-14297057D02*
X15995378Y-14297057D01*
X15995378Y-14297057D02*
X15976331Y-14287533D01*
X15976331Y-14287533D02*
X15966807Y-14268485D01*
X15966807Y-14268485D02*
X15966807Y-14192295D01*
X15966807Y-14192295D02*
X15976331Y-14173247D01*
X15976331Y-14173247D02*
X15995378Y-14163724D01*
X15995378Y-14163724D02*
X16033474Y-14163724D01*
X16033474Y-14163724D02*
X16052521Y-14173247D01*
X16052521Y-14173247D02*
X16062045Y-14192295D01*
X16062045Y-14192295D02*
X16062045Y-14211343D01*
X16062045Y-14211343D02*
X15966807Y-14230390D01*
X16138236Y-14287533D02*
X16157283Y-14297057D01*
X16157283Y-14297057D02*
X16195378Y-14297057D01*
X16195378Y-14297057D02*
X16214426Y-14287533D01*
X16214426Y-14287533D02*
X16223950Y-14268485D01*
X16223950Y-14268485D02*
X16223950Y-14258962D01*
X16223950Y-14258962D02*
X16214426Y-14239914D01*
X16214426Y-14239914D02*
X16195378Y-14230390D01*
X16195378Y-14230390D02*
X16166807Y-14230390D01*
X16166807Y-14230390D02*
X16147759Y-14220866D01*
X16147759Y-14220866D02*
X16138236Y-14201819D01*
X16138236Y-14201819D02*
X16138236Y-14192295D01*
X16138236Y-14192295D02*
X16147759Y-14173247D01*
X16147759Y-14173247D02*
X16166807Y-14163724D01*
X16166807Y-14163724D02*
X16195378Y-14163724D01*
X16195378Y-14163724D02*
X16214426Y-14173247D01*
X16290617Y-14373247D02*
X16300140Y-14363724D01*
X16300140Y-14363724D02*
X16319188Y-14335152D01*
X16319188Y-14335152D02*
X16328712Y-14316105D01*
X16328712Y-14316105D02*
X16338236Y-14287533D01*
X16338236Y-14287533D02*
X16347759Y-14239914D01*
X16347759Y-14239914D02*
X16347759Y-14201819D01*
X16347759Y-14201819D02*
X16338236Y-14154200D01*
X16338236Y-14154200D02*
X16328712Y-14125628D01*
X16328712Y-14125628D02*
X16319188Y-14106581D01*
X16319188Y-14106581D02*
X16300140Y-14078009D01*
X16300140Y-14078009D02*
X16290617Y-14068485D01*
X16652521Y-14373247D02*
X16642997Y-14363724D01*
X16642997Y-14363724D02*
X16623950Y-14335152D01*
X16623950Y-14335152D02*
X16614426Y-14316105D01*
X16614426Y-14316105D02*
X16604902Y-14287533D01*
X16604902Y-14287533D02*
X16595378Y-14239914D01*
X16595378Y-14239914D02*
X16595378Y-14201819D01*
X16595378Y-14201819D02*
X16604902Y-14154200D01*
X16604902Y-14154200D02*
X16614426Y-14125628D01*
X16614426Y-14125628D02*
X16623950Y-14106581D01*
X16623950Y-14106581D02*
X16642997Y-14078009D01*
X16642997Y-14078009D02*
X16652521Y-14068485D01*
X16728712Y-14163724D02*
X16728712Y-14297057D01*
X16728712Y-14182771D02*
X16738236Y-14173247D01*
X16738236Y-14173247D02*
X16757283Y-14163724D01*
X16757283Y-14163724D02*
X16785855Y-14163724D01*
X16785855Y-14163724D02*
X16804902Y-14173247D01*
X16804902Y-14173247D02*
X16814426Y-14192295D01*
X16814426Y-14192295D02*
X16814426Y-14297057D01*
X16938236Y-14297057D02*
X16919188Y-14287533D01*
X16919188Y-14287533D02*
X16909664Y-14278009D01*
X16909664Y-14278009D02*
X16900140Y-14258962D01*
X16900140Y-14258962D02*
X16900140Y-14201819D01*
X16900140Y-14201819D02*
X16909664Y-14182771D01*
X16909664Y-14182771D02*
X16919188Y-14173247D01*
X16919188Y-14173247D02*
X16938236Y-14163724D01*
X16938236Y-14163724D02*
X16966807Y-14163724D01*
X16966807Y-14163724D02*
X16985855Y-14173247D01*
X16985855Y-14173247D02*
X16995379Y-14182771D01*
X16995379Y-14182771D02*
X17004902Y-14201819D01*
X17004902Y-14201819D02*
X17004902Y-14258962D01*
X17004902Y-14258962D02*
X16995379Y-14278009D01*
X16995379Y-14278009D02*
X16985855Y-14287533D01*
X16985855Y-14287533D02*
X16966807Y-14297057D01*
X16966807Y-14297057D02*
X16938236Y-14297057D01*
X17062045Y-14163724D02*
X17138236Y-14163724D01*
X17090617Y-14097057D02*
X17090617Y-14268485D01*
X17090617Y-14268485D02*
X17100140Y-14287533D01*
X17100140Y-14287533D02*
X17119188Y-14297057D01*
X17119188Y-14297057D02*
X17138236Y-14297057D01*
X17357283Y-14163724D02*
X17357283Y-14363724D01*
X17357283Y-14173247D02*
X17376331Y-14163724D01*
X17376331Y-14163724D02*
X17414426Y-14163724D01*
X17414426Y-14163724D02*
X17433474Y-14173247D01*
X17433474Y-14173247D02*
X17442998Y-14182771D01*
X17442998Y-14182771D02*
X17452521Y-14201819D01*
X17452521Y-14201819D02*
X17452521Y-14258962D01*
X17452521Y-14258962D02*
X17442998Y-14278009D01*
X17442998Y-14278009D02*
X17433474Y-14287533D01*
X17433474Y-14287533D02*
X17414426Y-14297057D01*
X17414426Y-14297057D02*
X17376331Y-14297057D01*
X17376331Y-14297057D02*
X17357283Y-14287533D01*
X17566807Y-14297057D02*
X17547760Y-14287533D01*
X17547760Y-14287533D02*
X17538236Y-14268485D01*
X17538236Y-14268485D02*
X17538236Y-14097057D01*
X17728712Y-14297057D02*
X17728712Y-14192295D01*
X17728712Y-14192295D02*
X17719188Y-14173247D01*
X17719188Y-14173247D02*
X17700141Y-14163724D01*
X17700141Y-14163724D02*
X17662045Y-14163724D01*
X17662045Y-14163724D02*
X17642998Y-14173247D01*
X17728712Y-14287533D02*
X17709664Y-14297057D01*
X17709664Y-14297057D02*
X17662045Y-14297057D01*
X17662045Y-14297057D02*
X17642998Y-14287533D01*
X17642998Y-14287533D02*
X17633474Y-14268485D01*
X17633474Y-14268485D02*
X17633474Y-14249438D01*
X17633474Y-14249438D02*
X17642998Y-14230390D01*
X17642998Y-14230390D02*
X17662045Y-14220866D01*
X17662045Y-14220866D02*
X17709664Y-14220866D01*
X17709664Y-14220866D02*
X17728712Y-14211343D01*
X17795379Y-14163724D02*
X17871569Y-14163724D01*
X17823950Y-14097057D02*
X17823950Y-14268485D01*
X17823950Y-14268485D02*
X17833474Y-14287533D01*
X17833474Y-14287533D02*
X17852521Y-14297057D01*
X17852521Y-14297057D02*
X17871569Y-14297057D01*
X18014426Y-14287533D02*
X17995379Y-14297057D01*
X17995379Y-14297057D02*
X17957283Y-14297057D01*
X17957283Y-14297057D02*
X17938236Y-14287533D01*
X17938236Y-14287533D02*
X17928712Y-14268485D01*
X17928712Y-14268485D02*
X17928712Y-14192295D01*
X17928712Y-14192295D02*
X17938236Y-14173247D01*
X17938236Y-14173247D02*
X17957283Y-14163724D01*
X17957283Y-14163724D02*
X17995379Y-14163724D01*
X17995379Y-14163724D02*
X18014426Y-14173247D01*
X18014426Y-14173247D02*
X18023950Y-14192295D01*
X18023950Y-14192295D02*
X18023950Y-14211343D01*
X18023950Y-14211343D02*
X17928712Y-14230390D01*
X18195379Y-14297057D02*
X18195379Y-14097057D01*
X18195379Y-14287533D02*
X18176331Y-14297057D01*
X18176331Y-14297057D02*
X18138236Y-14297057D01*
X18138236Y-14297057D02*
X18119188Y-14287533D01*
X18119188Y-14287533D02*
X18109664Y-14278009D01*
X18109664Y-14278009D02*
X18100141Y-14258962D01*
X18100141Y-14258962D02*
X18100141Y-14201819D01*
X18100141Y-14201819D02*
X18109664Y-14182771D01*
X18109664Y-14182771D02*
X18119188Y-14173247D01*
X18119188Y-14173247D02*
X18138236Y-14163724D01*
X18138236Y-14163724D02*
X18176331Y-14163724D01*
X18176331Y-14163724D02*
X18195379Y-14173247D01*
X18271569Y-14373247D02*
X18281093Y-14363724D01*
X18281093Y-14363724D02*
X18300141Y-14335152D01*
X18300141Y-14335152D02*
X18309664Y-14316105D01*
X18309664Y-14316105D02*
X18319188Y-14287533D01*
X18319188Y-14287533D02*
X18328712Y-14239914D01*
X18328712Y-14239914D02*
X18328712Y-14201819D01*
X18328712Y-14201819D02*
X18319188Y-14154200D01*
X18319188Y-14154200D02*
X18309664Y-14125628D01*
X18309664Y-14125628D02*
X18300141Y-14106581D01*
X18300141Y-14106581D02*
X18281093Y-14078009D01*
X18281093Y-14078009D02*
X18271569Y-14068485D01*
M02*
