%TF.GenerationSoftware,KiCad,Pcbnew,8.0.4*%
%TF.CreationDate,2025-11-09T23:28:19-03:00*%
%TF.ProjectId,sfp_moduloIC,7366705f-6d6f-4647-956c-6f49432e6b69,v2.0*%
%TF.SameCoordinates,Original*%
%TF.FileFunction,Soldermask,Bot*%
%TF.FilePolarity,Negative*%
%FSLAX46Y46*%
G04 Gerber Fmt 4.6, Leading zero omitted, Abs format (unit mm)*
G04 Created by KiCad (PCBNEW 8.0.4) date 2025-11-09 23:28:19*
%MOMM*%
%LPD*%
G01*
G04 APERTURE LIST*
%ADD10R,2.600000X2.600000*%
%ADD11C,2.600000*%
%ADD12C,1.600000*%
%ADD13C,1.400000*%
%ADD14O,1.400000X1.400000*%
%ADD15C,6.400000*%
%ADD16R,1.700000X1.700000*%
%ADD17O,1.700000X1.700000*%
%ADD18C,2.000000*%
%ADD19R,2.000000X2.000000*%
%ADD20C,1.500000*%
%ADD21R,1.700000X2.000000*%
%ADD22O,1.700000X2.000000*%
G04 APERTURE END LIST*
D10*
%TO.C,J8*%
X119910536Y-113816266D03*
D11*
X119910536Y-108816266D03*
%TD*%
D12*
%TO.C,C11*%
X123019536Y-123938266D03*
X118019536Y-123938266D03*
%TD*%
D13*
%TO.C,RV1*%
X123059536Y-119688266D03*
D14*
X117979536Y-119688266D03*
%TD*%
D15*
%TO.C,H1*%
X120355536Y-55941266D03*
%TD*%
D16*
%TO.C,J1*%
X156210001Y-73940000D03*
D17*
X158750001Y-73940000D03*
X161290001Y-73940000D03*
X163830001Y-73940000D03*
X166370001Y-73940000D03*
%TD*%
D16*
%TO.C,J4*%
X171990001Y-77775000D03*
D17*
X171990001Y-75235000D03*
X171990001Y-72695000D03*
%TD*%
D18*
%TO.C,J6*%
X139815001Y-66070000D03*
X139815001Y-56470000D03*
D19*
X170715001Y-68395000D03*
X170715001Y-59820000D03*
X165715001Y-54145000D03*
X160715001Y-68395000D03*
X155715001Y-54145000D03*
X150715001Y-68395000D03*
X150715001Y-62720000D03*
X150715001Y-57320000D03*
D20*
X147915001Y-68395000D03*
X147915001Y-54145000D03*
D19*
X145715001Y-54145000D03*
D20*
X143215001Y-68395000D03*
X143215001Y-54145000D03*
D19*
X140715001Y-68395000D03*
D20*
X138215001Y-68395000D03*
X138215001Y-54145000D03*
D19*
X135715001Y-54145000D03*
D20*
X133615001Y-66070000D03*
X133615001Y-61270000D03*
X133615001Y-56470000D03*
%TD*%
D16*
%TO.C,J3*%
X118305536Y-103696266D03*
D17*
X118305536Y-101156266D03*
X118305536Y-98616266D03*
%TD*%
D16*
%TO.C,J2*%
X118350001Y-89026266D03*
D17*
X118350001Y-91566266D03*
X118350001Y-94106266D03*
%TD*%
D15*
%TO.C,H2*%
X170370001Y-130455732D03*
%TD*%
D16*
%TO.C,J5*%
X172010001Y-85035000D03*
D17*
X172010001Y-82495000D03*
%TD*%
D15*
%TO.C,H3*%
X120200000Y-130445731D03*
%TD*%
D21*
%TO.C,PS1*%
X161963036Y-123573766D03*
D22*
X161963036Y-117573766D03*
X128363036Y-129573766D03*
X128363036Y-111573766D03*
%TD*%
D10*
%TO.C,J7*%
X170700536Y-113161600D03*
D11*
X170700536Y-118161600D03*
X170700536Y-123161600D03*
%TD*%
M02*
