M48
; DRILL file {KiCad 8.0.4} date 2025-11-09T23:28:21-0300
; FORMAT={-:-/ absolute / metric / decimal}
; #@! TF.CreationDate,2025-11-09T23:28:21-03:00
; #@! TF.GenerationSoftware,Kicad,Pcbnew,8.0.4
; #@! TF.FileFunction,Plated,1,4,PTH
FMAT,2
METRIC
; #@! TA.AperFunction,Plated,PTH,ViaDrill
T1C0.300
; #@! TA.AperFunction,Plated,PTH,ComponentDrill
T2C0.700
; #@! TA.AperFunction,Plated,PTH,ComponentDrill
T3C0.800
; #@! TA.AperFunction,Plated,PTH,ComponentDrill
T4C0.850
; #@! TA.AperFunction,Plated,PTH,ComponentDrill
T5C0.950
; #@! TA.AperFunction,Plated,PTH,ComponentDrill
T6C1.000
; #@! TA.AperFunction,Plated,PTH,ComponentDrill
T7C1.050
; #@! TA.AperFunction,Plated,PTH,ComponentDrill
T8C1.300
; #@! TA.AperFunction,Plated,PTH,ComponentDrill
T9C3.200
%
G90
G05
T1
X116.556Y-67.616
X117.35Y-76.87
X117.61Y-81.93
X118.426Y-77.486
X119.726Y-79.616
X121.016Y-78.486
X121.07Y-74.372
X121.46Y-81.32
X122.15Y-76.266
X122.877Y-82.705
X123.041Y-85.611
X123.107Y-77.372
X123.11Y-80.368
X123.525Y-84.015
X123.706Y-74.405
X123.778Y-84.532
X124.076Y-85.056
X124.126Y-75.476
X124.64Y-85.23
X125.157Y-85.481
X125.596Y-74.415
X125.662Y-82.805
X125.73Y-101.05
X125.84Y-55.16
X125.84Y-56.63
X126.11Y-77.358
X126.11Y-80.378
X126.79Y-109.376
X126.79Y-110.392
X126.79Y-112.678
X126.79Y-113.694
X126.81Y-86.29
X127.346Y-69.766
X127.456Y-74.415
X127.58Y-66.263
X127.806Y-109.376
X127.806Y-113.694
X128.03Y-79.115
X128.24Y-90.1
X128.822Y-109.376
X128.822Y-113.694
X128.995Y-80.6
X129.838Y-109.376
X129.838Y-110.392
X129.838Y-112.678
X129.838Y-113.694
X130.506Y-82.496
X130.611Y-81.341
X130.75Y-88.537
X130.854Y-109.376
X130.854Y-110.392
X130.854Y-112.678
X130.854Y-113.694
X131.16Y-56.56
X131.65Y-68.56
X131.66Y-66.682
X131.87Y-109.376
X131.87Y-110.392
X131.87Y-112.678
X131.87Y-113.694
X132.042Y-80.417
X132.21Y-88.527
X132.711Y-84.781
X132.741Y-83.791
X132.746Y-82.9
X132.746Y-85.73
X132.776Y-86.69
X132.886Y-109.376
X132.886Y-110.392
X132.886Y-112.678
X132.886Y-113.694
X132.936Y-77.206
X133.67Y-88.557
X133.902Y-109.376
X133.902Y-110.392
X133.902Y-112.678
X133.902Y-113.694
X134.38Y-96.53
X134.918Y-109.376
X134.918Y-110.392
X134.918Y-112.678
X134.918Y-113.694
X135.12Y-88.576
X135.141Y-100.94
X135.34Y-80.3
X135.35Y-73.72
X135.36Y-77.73
X135.934Y-109.376
X135.934Y-110.392
X135.934Y-112.678
X135.934Y-113.694
X136.005Y-70.308
X136.29Y-96.66
X136.59Y-88.486
X136.836Y-76.82
X136.95Y-109.376
X136.95Y-110.392
X136.95Y-112.678
X136.95Y-113.694
X137.206Y-99.166
X137.46Y-60.64
X137.51Y-62.12
X137.966Y-109.376
X137.966Y-110.392
X137.966Y-112.678
X137.966Y-113.694
X138.006Y-97.146
X138.225Y-72.915
X138.557Y-96.885
X138.746Y-70.496
X138.9Y-72.866
X138.951Y-96.421
X139.116Y-51.896
X139.952Y-96.083
X140.256Y-94.085
X140.666Y-93.61
X141.026Y-93.135
X141.47Y-74.63
X141.491Y-73.559
X141.593Y-84.532
X141.694Y-60.351
X142.235Y-63.42
X142.335Y-62.335
X142.546Y-62.936
X142.66Y-80.57
X142.77Y-79.07
X142.79Y-95.09
X142.82Y-77.74
X143.117Y-81.433
X143.55Y-94.86
X143.726Y-97.943
X143.828Y-87.885
X144.031Y-89.815
X144.082Y-99.766
X144.191Y-94.311
X145.06Y-81.21
X145.46Y-63.87
X145.55Y-63.08
X145.61Y-94.24
X145.626Y-59.83
X145.642Y-59.15
X145.657Y-77.064
X145.906Y-79.466
X146.106Y-99.966
X146.13Y-102.716
X146.306Y-94.296
X146.528Y-91.194
X146.79Y-81.12
X146.876Y-89.307
X147.186Y-78.696
X147.63Y-94.376
X147.665Y-99.835
X147.994Y-80.366
X148.082Y-95.323
X148.431Y-104.916
X148.58Y-99.846
X148.85Y-94.56
X149.366Y-92.76
X151.24Y-77.92
X151.716Y-77.566
X152.136Y-77.096
X152.25Y-99.516
X152.611Y-76.601
X152.766Y-99.035
X153.061Y-76.171
X153.136Y-98.546
X153.426Y-102.06
X153.531Y-75.671
X153.556Y-98.076
X153.925Y-91.13
X154.05Y-95.708
X154.325Y-90.06
X156.426Y-78.995
X157.55Y-98.15
X157.646Y-96.396
X157.736Y-82.856
X161.456Y-81.738
X163.686Y-82.836
X165.19Y-75.84
X166.956Y-106.741
X167.196Y-81.84
X168.13Y-70.115
X168.326Y-71.496
X170.76Y-96.1
X170.79Y-98.326
T2
X117.98Y-119.688
X123.06Y-119.688
T3
X118.02Y-123.938
X123.02Y-123.938
T4
X140.715Y-68.395
T5
X133.615Y-56.47
X133.615Y-61.27
X133.615Y-66.07
X138.215Y-54.145
X138.215Y-68.395
X143.215Y-54.145
X143.215Y-68.395
X147.915Y-54.145
X147.915Y-68.395
T6
X118.306Y-98.616
X118.306Y-101.156
X118.306Y-103.696
X118.35Y-89.026
X118.35Y-91.566
X118.35Y-94.106
X128.363Y-111.574
X128.363Y-129.574
X156.21Y-73.94
X158.75Y-73.94
X161.29Y-73.94
X161.963Y-117.574
X161.963Y-123.574
X163.83Y-73.94
X166.37Y-73.94
X171.99Y-72.695
X171.99Y-75.235
X171.99Y-77.775
X172.01Y-82.495
X172.01Y-85.035
T7
X135.715Y-54.145
X145.715Y-54.145
X150.715Y-57.32
X150.715Y-62.72
X150.715Y-68.395
X155.715Y-54.145
X160.715Y-68.395
X165.715Y-54.145
X170.715Y-59.82
X170.715Y-68.395
T8
X119.911Y-108.816
X119.911Y-113.816
X170.701Y-113.162
X170.701Y-118.162
X170.701Y-123.162
T9
X120.2Y-130.446
X120.356Y-55.941
X170.37Y-130.456
M30
