%TF.GenerationSoftware,KiCad,Pcbnew,8.0.5*%
%TF.CreationDate,2025-11-10T20:55:45-03:00*%
%TF.ProjectId,sfp_moduloIC,7366705f-6d6f-4647-956c-6f49432e6b69,v2.0*%
%TF.SameCoordinates,Original*%
%TF.FileFunction,Drillmap*%
%TF.FilePolarity,Positive*%
%FSLAX45Y45*%
G04 Gerber Fmt 4.5, Leading zero omitted, Abs format (unit mm)*
G04 Created by KiCad (PCBNEW 8.0.5) date 2025-11-10 20:55:45*
%MOMM*%
%LPD*%
G01*
G04 APERTURE LIST*
%ADD10C,0.400000*%
%ADD11C,0.200000*%
%ADD12C,0.155000*%
G04 APERTURE END LIST*
D10*
X12030954Y-13696827D02*
G75*
G02*
X11530953Y-13196827I-4J499997D01*
G01*
X17030954Y-13696827D02*
X12030954Y-13696827D01*
X11535554Y-5594127D02*
X11530954Y-13196827D01*
X17530954Y-13196827D02*
X17537000Y-5094127D01*
X17530954Y-13196827D02*
G75*
G02*
X17030954Y-13696824I-500004J7D01*
G01*
X11535554Y-5594127D02*
G75*
G02*
X12035554Y-5094127I500000J0D01*
G01*
X12035554Y-5094127D02*
X17537000Y-5094127D01*
D11*
D12*
X13904000Y-5569500D02*
X14059000Y-5724500D01*
X14059000Y-5569500D02*
X13904000Y-5724500D01*
X13904000Y-6529500D02*
X14059000Y-6684500D01*
X14059000Y-6529500D02*
X13904000Y-6684500D01*
D11*
X11771730Y-14028310D02*
X11771730Y-13828310D01*
X11771730Y-13828310D02*
X11819349Y-13828310D01*
X11819349Y-13828310D02*
X11847921Y-13837834D01*
X11847921Y-13837834D02*
X11866968Y-13856882D01*
X11866968Y-13856882D02*
X11876492Y-13875929D01*
X11876492Y-13875929D02*
X11886016Y-13914025D01*
X11886016Y-13914025D02*
X11886016Y-13942596D01*
X11886016Y-13942596D02*
X11876492Y-13980691D01*
X11876492Y-13980691D02*
X11866968Y-13999739D01*
X11866968Y-13999739D02*
X11847921Y-14018787D01*
X11847921Y-14018787D02*
X11819349Y-14028310D01*
X11819349Y-14028310D02*
X11771730Y-14028310D01*
X11971730Y-14028310D02*
X11971730Y-13894977D01*
X11971730Y-13933072D02*
X11981254Y-13914025D01*
X11981254Y-13914025D02*
X11990778Y-13904501D01*
X11990778Y-13904501D02*
X12009825Y-13894977D01*
X12009825Y-13894977D02*
X12028873Y-13894977D01*
X12095540Y-14028310D02*
X12095540Y-13894977D01*
X12095540Y-13828310D02*
X12086016Y-13837834D01*
X12086016Y-13837834D02*
X12095540Y-13847358D01*
X12095540Y-13847358D02*
X12105063Y-13837834D01*
X12105063Y-13837834D02*
X12095540Y-13828310D01*
X12095540Y-13828310D02*
X12095540Y-13847358D01*
X12219349Y-14028310D02*
X12200302Y-14018787D01*
X12200302Y-14018787D02*
X12190778Y-13999739D01*
X12190778Y-13999739D02*
X12190778Y-13828310D01*
X12324111Y-14028310D02*
X12305063Y-14018787D01*
X12305063Y-14018787D02*
X12295540Y-13999739D01*
X12295540Y-13999739D02*
X12295540Y-13828310D01*
X12552683Y-14028310D02*
X12552683Y-13828310D01*
X12552683Y-13828310D02*
X12619349Y-13971167D01*
X12619349Y-13971167D02*
X12686016Y-13828310D01*
X12686016Y-13828310D02*
X12686016Y-14028310D01*
X12866968Y-14028310D02*
X12866968Y-13923548D01*
X12866968Y-13923548D02*
X12857444Y-13904501D01*
X12857444Y-13904501D02*
X12838397Y-13894977D01*
X12838397Y-13894977D02*
X12800302Y-13894977D01*
X12800302Y-13894977D02*
X12781254Y-13904501D01*
X12866968Y-14018787D02*
X12847921Y-14028310D01*
X12847921Y-14028310D02*
X12800302Y-14028310D01*
X12800302Y-14028310D02*
X12781254Y-14018787D01*
X12781254Y-14018787D02*
X12771730Y-13999739D01*
X12771730Y-13999739D02*
X12771730Y-13980691D01*
X12771730Y-13980691D02*
X12781254Y-13961644D01*
X12781254Y-13961644D02*
X12800302Y-13952120D01*
X12800302Y-13952120D02*
X12847921Y-13952120D01*
X12847921Y-13952120D02*
X12866968Y-13942596D01*
X12962206Y-13894977D02*
X12962206Y-14094977D01*
X12962206Y-13904501D02*
X12981254Y-13894977D01*
X12981254Y-13894977D02*
X13019349Y-13894977D01*
X13019349Y-13894977D02*
X13038397Y-13904501D01*
X13038397Y-13904501D02*
X13047921Y-13914025D01*
X13047921Y-13914025D02*
X13057444Y-13933072D01*
X13057444Y-13933072D02*
X13057444Y-13990215D01*
X13057444Y-13990215D02*
X13047921Y-14009263D01*
X13047921Y-14009263D02*
X13038397Y-14018787D01*
X13038397Y-14018787D02*
X13019349Y-14028310D01*
X13019349Y-14028310D02*
X12981254Y-14028310D01*
X12981254Y-14028310D02*
X12962206Y-14018787D01*
X13143159Y-14009263D02*
X13152683Y-14018787D01*
X13152683Y-14018787D02*
X13143159Y-14028310D01*
X13143159Y-14028310D02*
X13133635Y-14018787D01*
X13133635Y-14018787D02*
X13143159Y-14009263D01*
X13143159Y-14009263D02*
X13143159Y-14028310D01*
X13143159Y-13904501D02*
X13152683Y-13914025D01*
X13152683Y-13914025D02*
X13143159Y-13923548D01*
X13143159Y-13923548D02*
X13133635Y-13914025D01*
X13133635Y-13914025D02*
X13143159Y-13904501D01*
X13143159Y-13904501D02*
X13143159Y-13923548D01*
D12*
X11355953Y-14279327D02*
X11510953Y-14434327D01*
X11510953Y-14279327D02*
X11355953Y-14434327D01*
D11*
X11876492Y-14448310D02*
X11762206Y-14448310D01*
X11819349Y-14448310D02*
X11819349Y-14248310D01*
X11819349Y-14248310D02*
X11800302Y-14276882D01*
X11800302Y-14276882D02*
X11781254Y-14295929D01*
X11781254Y-14295929D02*
X11762206Y-14305453D01*
X11962206Y-14429263D02*
X11971730Y-14438787D01*
X11971730Y-14438787D02*
X11962206Y-14448310D01*
X11962206Y-14448310D02*
X11952683Y-14438787D01*
X11952683Y-14438787D02*
X11962206Y-14429263D01*
X11962206Y-14429263D02*
X11962206Y-14448310D01*
X12152683Y-14248310D02*
X12057444Y-14248310D01*
X12057444Y-14248310D02*
X12047921Y-14343548D01*
X12047921Y-14343548D02*
X12057444Y-14334025D01*
X12057444Y-14334025D02*
X12076492Y-14324501D01*
X12076492Y-14324501D02*
X12124111Y-14324501D01*
X12124111Y-14324501D02*
X12143159Y-14334025D01*
X12143159Y-14334025D02*
X12152683Y-14343548D01*
X12152683Y-14343548D02*
X12162206Y-14362596D01*
X12162206Y-14362596D02*
X12162206Y-14410215D01*
X12162206Y-14410215D02*
X12152683Y-14429263D01*
X12152683Y-14429263D02*
X12143159Y-14438787D01*
X12143159Y-14438787D02*
X12124111Y-14448310D01*
X12124111Y-14448310D02*
X12076492Y-14448310D01*
X12076492Y-14448310D02*
X12057444Y-14438787D01*
X12057444Y-14438787D02*
X12047921Y-14429263D01*
X12343159Y-14248310D02*
X12247921Y-14248310D01*
X12247921Y-14248310D02*
X12238397Y-14343548D01*
X12238397Y-14343548D02*
X12247921Y-14334025D01*
X12247921Y-14334025D02*
X12266968Y-14324501D01*
X12266968Y-14324501D02*
X12314587Y-14324501D01*
X12314587Y-14324501D02*
X12333635Y-14334025D01*
X12333635Y-14334025D02*
X12343159Y-14343548D01*
X12343159Y-14343548D02*
X12352683Y-14362596D01*
X12352683Y-14362596D02*
X12352683Y-14410215D01*
X12352683Y-14410215D02*
X12343159Y-14429263D01*
X12343159Y-14429263D02*
X12333635Y-14438787D01*
X12333635Y-14438787D02*
X12314587Y-14448310D01*
X12314587Y-14448310D02*
X12266968Y-14448310D01*
X12266968Y-14448310D02*
X12247921Y-14438787D01*
X12247921Y-14438787D02*
X12238397Y-14429263D01*
X12476492Y-14248310D02*
X12495540Y-14248310D01*
X12495540Y-14248310D02*
X12514587Y-14257834D01*
X12514587Y-14257834D02*
X12524111Y-14267358D01*
X12524111Y-14267358D02*
X12533635Y-14286406D01*
X12533635Y-14286406D02*
X12543159Y-14324501D01*
X12543159Y-14324501D02*
X12543159Y-14372120D01*
X12543159Y-14372120D02*
X12533635Y-14410215D01*
X12533635Y-14410215D02*
X12524111Y-14429263D01*
X12524111Y-14429263D02*
X12514587Y-14438787D01*
X12514587Y-14438787D02*
X12495540Y-14448310D01*
X12495540Y-14448310D02*
X12476492Y-14448310D01*
X12476492Y-14448310D02*
X12457444Y-14438787D01*
X12457444Y-14438787D02*
X12447921Y-14429263D01*
X12447921Y-14429263D02*
X12438397Y-14410215D01*
X12438397Y-14410215D02*
X12428873Y-14372120D01*
X12428873Y-14372120D02*
X12428873Y-14324501D01*
X12428873Y-14324501D02*
X12438397Y-14286406D01*
X12438397Y-14286406D02*
X12447921Y-14267358D01*
X12447921Y-14267358D02*
X12457444Y-14257834D01*
X12457444Y-14257834D02*
X12476492Y-14248310D01*
X12628873Y-14448310D02*
X12628873Y-14314977D01*
X12628873Y-14334025D02*
X12638397Y-14324501D01*
X12638397Y-14324501D02*
X12657444Y-14314977D01*
X12657444Y-14314977D02*
X12686016Y-14314977D01*
X12686016Y-14314977D02*
X12705064Y-14324501D01*
X12705064Y-14324501D02*
X12714587Y-14343548D01*
X12714587Y-14343548D02*
X12714587Y-14448310D01*
X12714587Y-14343548D02*
X12724111Y-14324501D01*
X12724111Y-14324501D02*
X12743159Y-14314977D01*
X12743159Y-14314977D02*
X12771730Y-14314977D01*
X12771730Y-14314977D02*
X12790778Y-14324501D01*
X12790778Y-14324501D02*
X12800302Y-14343548D01*
X12800302Y-14343548D02*
X12800302Y-14448310D01*
X12895540Y-14448310D02*
X12895540Y-14314977D01*
X12895540Y-14334025D02*
X12905064Y-14324501D01*
X12905064Y-14324501D02*
X12924111Y-14314977D01*
X12924111Y-14314977D02*
X12952683Y-14314977D01*
X12952683Y-14314977D02*
X12971730Y-14324501D01*
X12971730Y-14324501D02*
X12981254Y-14343548D01*
X12981254Y-14343548D02*
X12981254Y-14448310D01*
X12981254Y-14343548D02*
X12990778Y-14324501D01*
X12990778Y-14324501D02*
X13009825Y-14314977D01*
X13009825Y-14314977D02*
X13038397Y-14314977D01*
X13038397Y-14314977D02*
X13057445Y-14324501D01*
X13057445Y-14324501D02*
X13066968Y-14343548D01*
X13066968Y-14343548D02*
X13066968Y-14448310D01*
X13457445Y-14238787D02*
X13286016Y-14495929D01*
X13714587Y-14248310D02*
X13733635Y-14248310D01*
X13733635Y-14248310D02*
X13752683Y-14257834D01*
X13752683Y-14257834D02*
X13762207Y-14267358D01*
X13762207Y-14267358D02*
X13771730Y-14286406D01*
X13771730Y-14286406D02*
X13781254Y-14324501D01*
X13781254Y-14324501D02*
X13781254Y-14372120D01*
X13781254Y-14372120D02*
X13771730Y-14410215D01*
X13771730Y-14410215D02*
X13762207Y-14429263D01*
X13762207Y-14429263D02*
X13752683Y-14438787D01*
X13752683Y-14438787D02*
X13733635Y-14448310D01*
X13733635Y-14448310D02*
X13714587Y-14448310D01*
X13714587Y-14448310D02*
X13695540Y-14438787D01*
X13695540Y-14438787D02*
X13686016Y-14429263D01*
X13686016Y-14429263D02*
X13676492Y-14410215D01*
X13676492Y-14410215D02*
X13666968Y-14372120D01*
X13666968Y-14372120D02*
X13666968Y-14324501D01*
X13666968Y-14324501D02*
X13676492Y-14286406D01*
X13676492Y-14286406D02*
X13686016Y-14267358D01*
X13686016Y-14267358D02*
X13695540Y-14257834D01*
X13695540Y-14257834D02*
X13714587Y-14248310D01*
X13866968Y-14429263D02*
X13876492Y-14438787D01*
X13876492Y-14438787D02*
X13866968Y-14448310D01*
X13866968Y-14448310D02*
X13857445Y-14438787D01*
X13857445Y-14438787D02*
X13866968Y-14429263D01*
X13866968Y-14429263D02*
X13866968Y-14448310D01*
X14000302Y-14248310D02*
X14019349Y-14248310D01*
X14019349Y-14248310D02*
X14038397Y-14257834D01*
X14038397Y-14257834D02*
X14047921Y-14267358D01*
X14047921Y-14267358D02*
X14057445Y-14286406D01*
X14057445Y-14286406D02*
X14066968Y-14324501D01*
X14066968Y-14324501D02*
X14066968Y-14372120D01*
X14066968Y-14372120D02*
X14057445Y-14410215D01*
X14057445Y-14410215D02*
X14047921Y-14429263D01*
X14047921Y-14429263D02*
X14038397Y-14438787D01*
X14038397Y-14438787D02*
X14019349Y-14448310D01*
X14019349Y-14448310D02*
X14000302Y-14448310D01*
X14000302Y-14448310D02*
X13981254Y-14438787D01*
X13981254Y-14438787D02*
X13971730Y-14429263D01*
X13971730Y-14429263D02*
X13962207Y-14410215D01*
X13962207Y-14410215D02*
X13952683Y-14372120D01*
X13952683Y-14372120D02*
X13952683Y-14324501D01*
X13952683Y-14324501D02*
X13962207Y-14286406D01*
X13962207Y-14286406D02*
X13971730Y-14267358D01*
X13971730Y-14267358D02*
X13981254Y-14257834D01*
X13981254Y-14257834D02*
X14000302Y-14248310D01*
X14238397Y-14248310D02*
X14200302Y-14248310D01*
X14200302Y-14248310D02*
X14181254Y-14257834D01*
X14181254Y-14257834D02*
X14171730Y-14267358D01*
X14171730Y-14267358D02*
X14152683Y-14295929D01*
X14152683Y-14295929D02*
X14143159Y-14334025D01*
X14143159Y-14334025D02*
X14143159Y-14410215D01*
X14143159Y-14410215D02*
X14152683Y-14429263D01*
X14152683Y-14429263D02*
X14162207Y-14438787D01*
X14162207Y-14438787D02*
X14181254Y-14448310D01*
X14181254Y-14448310D02*
X14219349Y-14448310D01*
X14219349Y-14448310D02*
X14238397Y-14438787D01*
X14238397Y-14438787D02*
X14247921Y-14429263D01*
X14247921Y-14429263D02*
X14257445Y-14410215D01*
X14257445Y-14410215D02*
X14257445Y-14362596D01*
X14257445Y-14362596D02*
X14247921Y-14343548D01*
X14247921Y-14343548D02*
X14238397Y-14334025D01*
X14238397Y-14334025D02*
X14219349Y-14324501D01*
X14219349Y-14324501D02*
X14181254Y-14324501D01*
X14181254Y-14324501D02*
X14162207Y-14334025D01*
X14162207Y-14334025D02*
X14152683Y-14343548D01*
X14152683Y-14343548D02*
X14143159Y-14362596D01*
X14447921Y-14448310D02*
X14333635Y-14448310D01*
X14390778Y-14448310D02*
X14390778Y-14248310D01*
X14390778Y-14248310D02*
X14371730Y-14276882D01*
X14371730Y-14276882D02*
X14352683Y-14295929D01*
X14352683Y-14295929D02*
X14333635Y-14305453D01*
X14571730Y-14248310D02*
X14590778Y-14248310D01*
X14590778Y-14248310D02*
X14609826Y-14257834D01*
X14609826Y-14257834D02*
X14619349Y-14267358D01*
X14619349Y-14267358D02*
X14628873Y-14286406D01*
X14628873Y-14286406D02*
X14638397Y-14324501D01*
X14638397Y-14324501D02*
X14638397Y-14372120D01*
X14638397Y-14372120D02*
X14628873Y-14410215D01*
X14628873Y-14410215D02*
X14619349Y-14429263D01*
X14619349Y-14429263D02*
X14609826Y-14438787D01*
X14609826Y-14438787D02*
X14590778Y-14448310D01*
X14590778Y-14448310D02*
X14571730Y-14448310D01*
X14571730Y-14448310D02*
X14552683Y-14438787D01*
X14552683Y-14438787D02*
X14543159Y-14429263D01*
X14543159Y-14429263D02*
X14533635Y-14410215D01*
X14533635Y-14410215D02*
X14524111Y-14372120D01*
X14524111Y-14372120D02*
X14524111Y-14324501D01*
X14524111Y-14324501D02*
X14533635Y-14286406D01*
X14533635Y-14286406D02*
X14543159Y-14267358D01*
X14543159Y-14267358D02*
X14552683Y-14257834D01*
X14552683Y-14257834D02*
X14571730Y-14248310D01*
X14714588Y-14248310D02*
X14714588Y-14286406D01*
X14790778Y-14248310D02*
X14790778Y-14286406D01*
X15086016Y-14524501D02*
X15076492Y-14514977D01*
X15076492Y-14514977D02*
X15057445Y-14486406D01*
X15057445Y-14486406D02*
X15047921Y-14467358D01*
X15047921Y-14467358D02*
X15038397Y-14438787D01*
X15038397Y-14438787D02*
X15028873Y-14391167D01*
X15028873Y-14391167D02*
X15028873Y-14353072D01*
X15028873Y-14353072D02*
X15038397Y-14305453D01*
X15038397Y-14305453D02*
X15047921Y-14276882D01*
X15047921Y-14276882D02*
X15057445Y-14257834D01*
X15057445Y-14257834D02*
X15076492Y-14229263D01*
X15076492Y-14229263D02*
X15086016Y-14219739D01*
X15152683Y-14267358D02*
X15162207Y-14257834D01*
X15162207Y-14257834D02*
X15181254Y-14248310D01*
X15181254Y-14248310D02*
X15228873Y-14248310D01*
X15228873Y-14248310D02*
X15247921Y-14257834D01*
X15247921Y-14257834D02*
X15257445Y-14267358D01*
X15257445Y-14267358D02*
X15266969Y-14286406D01*
X15266969Y-14286406D02*
X15266969Y-14305453D01*
X15266969Y-14305453D02*
X15257445Y-14334025D01*
X15257445Y-14334025D02*
X15143159Y-14448310D01*
X15143159Y-14448310D02*
X15266969Y-14448310D01*
X15505064Y-14448310D02*
X15505064Y-14248310D01*
X15590778Y-14448310D02*
X15590778Y-14343548D01*
X15590778Y-14343548D02*
X15581254Y-14324501D01*
X15581254Y-14324501D02*
X15562207Y-14314977D01*
X15562207Y-14314977D02*
X15533635Y-14314977D01*
X15533635Y-14314977D02*
X15514588Y-14324501D01*
X15514588Y-14324501D02*
X15505064Y-14334025D01*
X15714588Y-14448310D02*
X15695540Y-14438787D01*
X15695540Y-14438787D02*
X15686016Y-14429263D01*
X15686016Y-14429263D02*
X15676492Y-14410215D01*
X15676492Y-14410215D02*
X15676492Y-14353072D01*
X15676492Y-14353072D02*
X15686016Y-14334025D01*
X15686016Y-14334025D02*
X15695540Y-14324501D01*
X15695540Y-14324501D02*
X15714588Y-14314977D01*
X15714588Y-14314977D02*
X15743159Y-14314977D01*
X15743159Y-14314977D02*
X15762207Y-14324501D01*
X15762207Y-14324501D02*
X15771731Y-14334025D01*
X15771731Y-14334025D02*
X15781254Y-14353072D01*
X15781254Y-14353072D02*
X15781254Y-14410215D01*
X15781254Y-14410215D02*
X15771731Y-14429263D01*
X15771731Y-14429263D02*
X15762207Y-14438787D01*
X15762207Y-14438787D02*
X15743159Y-14448310D01*
X15743159Y-14448310D02*
X15714588Y-14448310D01*
X15895540Y-14448310D02*
X15876492Y-14438787D01*
X15876492Y-14438787D02*
X15866969Y-14419739D01*
X15866969Y-14419739D02*
X15866969Y-14248310D01*
X16047921Y-14438787D02*
X16028873Y-14448310D01*
X16028873Y-14448310D02*
X15990778Y-14448310D01*
X15990778Y-14448310D02*
X15971731Y-14438787D01*
X15971731Y-14438787D02*
X15962207Y-14419739D01*
X15962207Y-14419739D02*
X15962207Y-14343548D01*
X15962207Y-14343548D02*
X15971731Y-14324501D01*
X15971731Y-14324501D02*
X15990778Y-14314977D01*
X15990778Y-14314977D02*
X16028873Y-14314977D01*
X16028873Y-14314977D02*
X16047921Y-14324501D01*
X16047921Y-14324501D02*
X16057445Y-14343548D01*
X16057445Y-14343548D02*
X16057445Y-14362596D01*
X16057445Y-14362596D02*
X15962207Y-14381644D01*
X16133635Y-14438787D02*
X16152683Y-14448310D01*
X16152683Y-14448310D02*
X16190778Y-14448310D01*
X16190778Y-14448310D02*
X16209826Y-14438787D01*
X16209826Y-14438787D02*
X16219350Y-14419739D01*
X16219350Y-14419739D02*
X16219350Y-14410215D01*
X16219350Y-14410215D02*
X16209826Y-14391167D01*
X16209826Y-14391167D02*
X16190778Y-14381644D01*
X16190778Y-14381644D02*
X16162207Y-14381644D01*
X16162207Y-14381644D02*
X16143159Y-14372120D01*
X16143159Y-14372120D02*
X16133635Y-14353072D01*
X16133635Y-14353072D02*
X16133635Y-14343548D01*
X16133635Y-14343548D02*
X16143159Y-14324501D01*
X16143159Y-14324501D02*
X16162207Y-14314977D01*
X16162207Y-14314977D02*
X16190778Y-14314977D01*
X16190778Y-14314977D02*
X16209826Y-14324501D01*
X16286016Y-14524501D02*
X16295540Y-14514977D01*
X16295540Y-14514977D02*
X16314588Y-14486406D01*
X16314588Y-14486406D02*
X16324112Y-14467358D01*
X16324112Y-14467358D02*
X16333635Y-14438787D01*
X16333635Y-14438787D02*
X16343159Y-14391167D01*
X16343159Y-14391167D02*
X16343159Y-14353072D01*
X16343159Y-14353072D02*
X16333635Y-14305453D01*
X16333635Y-14305453D02*
X16324112Y-14276882D01*
X16324112Y-14276882D02*
X16314588Y-14257834D01*
X16314588Y-14257834D02*
X16295540Y-14229263D01*
X16295540Y-14229263D02*
X16286016Y-14219739D01*
X16647921Y-14524501D02*
X16638397Y-14514977D01*
X16638397Y-14514977D02*
X16619350Y-14486406D01*
X16619350Y-14486406D02*
X16609826Y-14467358D01*
X16609826Y-14467358D02*
X16600302Y-14438787D01*
X16600302Y-14438787D02*
X16590778Y-14391167D01*
X16590778Y-14391167D02*
X16590778Y-14353072D01*
X16590778Y-14353072D02*
X16600302Y-14305453D01*
X16600302Y-14305453D02*
X16609826Y-14276882D01*
X16609826Y-14276882D02*
X16619350Y-14257834D01*
X16619350Y-14257834D02*
X16638397Y-14229263D01*
X16638397Y-14229263D02*
X16647921Y-14219739D01*
X16724112Y-14314977D02*
X16724112Y-14448310D01*
X16724112Y-14334025D02*
X16733635Y-14324501D01*
X16733635Y-14324501D02*
X16752683Y-14314977D01*
X16752683Y-14314977D02*
X16781255Y-14314977D01*
X16781255Y-14314977D02*
X16800302Y-14324501D01*
X16800302Y-14324501D02*
X16809826Y-14343548D01*
X16809826Y-14343548D02*
X16809826Y-14448310D01*
X16933635Y-14448310D02*
X16914588Y-14438787D01*
X16914588Y-14438787D02*
X16905064Y-14429263D01*
X16905064Y-14429263D02*
X16895540Y-14410215D01*
X16895540Y-14410215D02*
X16895540Y-14353072D01*
X16895540Y-14353072D02*
X16905064Y-14334025D01*
X16905064Y-14334025D02*
X16914588Y-14324501D01*
X16914588Y-14324501D02*
X16933635Y-14314977D01*
X16933635Y-14314977D02*
X16962207Y-14314977D01*
X16962207Y-14314977D02*
X16981255Y-14324501D01*
X16981255Y-14324501D02*
X16990778Y-14334025D01*
X16990778Y-14334025D02*
X17000302Y-14353072D01*
X17000302Y-14353072D02*
X17000302Y-14410215D01*
X17000302Y-14410215D02*
X16990778Y-14429263D01*
X16990778Y-14429263D02*
X16981255Y-14438787D01*
X16981255Y-14438787D02*
X16962207Y-14448310D01*
X16962207Y-14448310D02*
X16933635Y-14448310D01*
X17057445Y-14314977D02*
X17133635Y-14314977D01*
X17086016Y-14248310D02*
X17086016Y-14419739D01*
X17086016Y-14419739D02*
X17095540Y-14438787D01*
X17095540Y-14438787D02*
X17114588Y-14448310D01*
X17114588Y-14448310D02*
X17133635Y-14448310D01*
X17352683Y-14314977D02*
X17352683Y-14514977D01*
X17352683Y-14324501D02*
X17371731Y-14314977D01*
X17371731Y-14314977D02*
X17409826Y-14314977D01*
X17409826Y-14314977D02*
X17428874Y-14324501D01*
X17428874Y-14324501D02*
X17438397Y-14334025D01*
X17438397Y-14334025D02*
X17447921Y-14353072D01*
X17447921Y-14353072D02*
X17447921Y-14410215D01*
X17447921Y-14410215D02*
X17438397Y-14429263D01*
X17438397Y-14429263D02*
X17428874Y-14438787D01*
X17428874Y-14438787D02*
X17409826Y-14448310D01*
X17409826Y-14448310D02*
X17371731Y-14448310D01*
X17371731Y-14448310D02*
X17352683Y-14438787D01*
X17562207Y-14448310D02*
X17543159Y-14438787D01*
X17543159Y-14438787D02*
X17533636Y-14419739D01*
X17533636Y-14419739D02*
X17533636Y-14248310D01*
X17724112Y-14448310D02*
X17724112Y-14343548D01*
X17724112Y-14343548D02*
X17714588Y-14324501D01*
X17714588Y-14324501D02*
X17695540Y-14314977D01*
X17695540Y-14314977D02*
X17657445Y-14314977D01*
X17657445Y-14314977D02*
X17638397Y-14324501D01*
X17724112Y-14438787D02*
X17705064Y-14448310D01*
X17705064Y-14448310D02*
X17657445Y-14448310D01*
X17657445Y-14448310D02*
X17638397Y-14438787D01*
X17638397Y-14438787D02*
X17628874Y-14419739D01*
X17628874Y-14419739D02*
X17628874Y-14400691D01*
X17628874Y-14400691D02*
X17638397Y-14381644D01*
X17638397Y-14381644D02*
X17657445Y-14372120D01*
X17657445Y-14372120D02*
X17705064Y-14372120D01*
X17705064Y-14372120D02*
X17724112Y-14362596D01*
X17790778Y-14314977D02*
X17866969Y-14314977D01*
X17819350Y-14248310D02*
X17819350Y-14419739D01*
X17819350Y-14419739D02*
X17828874Y-14438787D01*
X17828874Y-14438787D02*
X17847921Y-14448310D01*
X17847921Y-14448310D02*
X17866969Y-14448310D01*
X18009826Y-14438787D02*
X17990778Y-14448310D01*
X17990778Y-14448310D02*
X17952683Y-14448310D01*
X17952683Y-14448310D02*
X17933636Y-14438787D01*
X17933636Y-14438787D02*
X17924112Y-14419739D01*
X17924112Y-14419739D02*
X17924112Y-14343548D01*
X17924112Y-14343548D02*
X17933636Y-14324501D01*
X17933636Y-14324501D02*
X17952683Y-14314977D01*
X17952683Y-14314977D02*
X17990778Y-14314977D01*
X17990778Y-14314977D02*
X18009826Y-14324501D01*
X18009826Y-14324501D02*
X18019350Y-14343548D01*
X18019350Y-14343548D02*
X18019350Y-14362596D01*
X18019350Y-14362596D02*
X17924112Y-14381644D01*
X18190778Y-14448310D02*
X18190778Y-14248310D01*
X18190778Y-14438787D02*
X18171731Y-14448310D01*
X18171731Y-14448310D02*
X18133636Y-14448310D01*
X18133636Y-14448310D02*
X18114588Y-14438787D01*
X18114588Y-14438787D02*
X18105064Y-14429263D01*
X18105064Y-14429263D02*
X18095540Y-14410215D01*
X18095540Y-14410215D02*
X18095540Y-14353072D01*
X18095540Y-14353072D02*
X18105064Y-14334025D01*
X18105064Y-14334025D02*
X18114588Y-14324501D01*
X18114588Y-14324501D02*
X18133636Y-14314977D01*
X18133636Y-14314977D02*
X18171731Y-14314977D01*
X18171731Y-14314977D02*
X18190778Y-14324501D01*
X18266969Y-14524501D02*
X18276493Y-14514977D01*
X18276493Y-14514977D02*
X18295540Y-14486406D01*
X18295540Y-14486406D02*
X18305064Y-14467358D01*
X18305064Y-14467358D02*
X18314588Y-14438787D01*
X18314588Y-14438787D02*
X18324112Y-14391167D01*
X18324112Y-14391167D02*
X18324112Y-14353072D01*
X18324112Y-14353072D02*
X18314588Y-14305453D01*
X18314588Y-14305453D02*
X18305064Y-14276882D01*
X18305064Y-14276882D02*
X18295540Y-14257834D01*
X18295540Y-14257834D02*
X18276493Y-14229263D01*
X18276493Y-14229263D02*
X18266969Y-14219739D01*
M02*
