%TF.GenerationSoftware,KiCad,Pcbnew,8.0.4*%
%TF.CreationDate,2025-11-09T23:28:19-03:00*%
%TF.ProjectId,sfp_moduloIC,7366705f-6d6f-4647-956c-6f49432e6b69,v2.0*%
%TF.SameCoordinates,Original*%
%TF.FileFunction,Copper,L3,Inr*%
%TF.FilePolarity,Positive*%
%FSLAX46Y46*%
G04 Gerber Fmt 4.6, Leading zero omitted, Abs format (unit mm)*
G04 Created by KiCad (PCBNEW 8.0.4) date 2025-11-09 23:28:19*
%MOMM*%
%LPD*%
G01*
G04 APERTURE LIST*
%TA.AperFunction,ComponentPad*%
%ADD10R,2.600000X2.600000*%
%TD*%
%TA.AperFunction,ComponentPad*%
%ADD11C,2.600000*%
%TD*%
%TA.AperFunction,ComponentPad*%
%ADD12C,1.600000*%
%TD*%
%TA.AperFunction,ComponentPad*%
%ADD13C,1.400000*%
%TD*%
%TA.AperFunction,ComponentPad*%
%ADD14O,1.400000X1.400000*%
%TD*%
%TA.AperFunction,ComponentPad*%
%ADD15C,6.400000*%
%TD*%
%TA.AperFunction,ComponentPad*%
%ADD16R,1.700000X1.700000*%
%TD*%
%TA.AperFunction,ComponentPad*%
%ADD17O,1.700000X1.700000*%
%TD*%
%TA.AperFunction,WasherPad*%
%ADD18C,2.000000*%
%TD*%
%TA.AperFunction,ComponentPad*%
%ADD19R,2.000000X2.000000*%
%TD*%
%TA.AperFunction,ComponentPad*%
%ADD20C,1.500000*%
%TD*%
%TA.AperFunction,ComponentPad*%
%ADD21R,1.700000X2.000000*%
%TD*%
%TA.AperFunction,ComponentPad*%
%ADD22O,1.700000X2.000000*%
%TD*%
%TA.AperFunction,ViaPad*%
%ADD23C,0.600000*%
%TD*%
%TA.AperFunction,ViaPad*%
%ADD24C,0.450000*%
%TD*%
G04 APERTURE END LIST*
D10*
%TO.N,/IN*%
%TO.C,J8*%
X119910536Y-113816266D03*
D11*
%TO.N,GND*%
X119910536Y-108816266D03*
%TD*%
D12*
%TO.N,/L*%
%TO.C,C11*%
X123019536Y-123938266D03*
%TO.N,/N*%
X118019536Y-123938266D03*
%TD*%
D13*
%TO.N,/L*%
%TO.C,RV1*%
X123059536Y-119688266D03*
D14*
%TO.N,/N*%
X117979536Y-119688266D03*
%TD*%
D15*
%TO.N,GND*%
%TO.C,H1*%
X120355536Y-55941266D03*
%TD*%
D16*
%TO.N,/CS3*%
%TO.C,J1*%
X156210001Y-73940000D03*
D17*
%TO.N,/MOSI*%
X158750001Y-73940000D03*
%TO.N,/MISO*%
X161290001Y-73940000D03*
%TO.N,/SCK*%
X163830001Y-73940000D03*
%TO.N,GND*%
X166370001Y-73940000D03*
%TD*%
D16*
%TO.N,+3V3*%
%TO.C,J4*%
X171990001Y-77775000D03*
D17*
%TO.N,Net-(J4-Pin_2)*%
X171990001Y-75235000D03*
%TO.N,GND*%
X171990001Y-72695000D03*
%TD*%
D18*
%TO.N,*%
%TO.C,J6*%
X139815001Y-66070000D03*
X139815001Y-56470000D03*
D19*
%TO.N,GND*%
X170715001Y-68395000D03*
X170715001Y-59820000D03*
X165715001Y-54145000D03*
X160715001Y-68395000D03*
X155715001Y-54145000D03*
X150715001Y-68395000D03*
X150715001Y-62720000D03*
X150715001Y-57320000D03*
D20*
X147915001Y-68395000D03*
X147915001Y-54145000D03*
D19*
X145715001Y-54145000D03*
D20*
X143215001Y-68395000D03*
X143215001Y-54145000D03*
D19*
X140715001Y-68395000D03*
D20*
X138215001Y-68395000D03*
X138215001Y-54145000D03*
D19*
X135715001Y-54145000D03*
D20*
X133615001Y-66070000D03*
X133615001Y-61270000D03*
X133615001Y-56470000D03*
%TD*%
D16*
%TO.N,/SWCLK*%
%TO.C,J3*%
X118305536Y-103696266D03*
D17*
%TO.N,/SWDIO*%
X118305536Y-101156266D03*
%TO.N,GND*%
X118305536Y-98616266D03*
%TD*%
D16*
%TO.N,/TX1*%
%TO.C,J2*%
X118350001Y-89026266D03*
D17*
%TO.N,/RX1*%
X118350001Y-91566266D03*
%TO.N,GND*%
X118350001Y-94106266D03*
%TD*%
D15*
%TO.N,GND*%
%TO.C,H2*%
X170370001Y-130455732D03*
%TD*%
D16*
%TO.N,/CTRL*%
%TO.C,J5*%
X172010001Y-85035000D03*
D17*
%TO.N,GND*%
X172010001Y-82495000D03*
%TD*%
D15*
%TO.N,GND*%
%TO.C,H3*%
X120200000Y-130445731D03*
%TD*%
D21*
%TO.N,/L*%
%TO.C,PS1*%
X161963036Y-123573766D03*
D22*
%TO.N,/N*%
X161963036Y-117573766D03*
%TO.N,GND*%
X128363036Y-129573766D03*
%TO.N,+3V3*%
X128363036Y-111573766D03*
%TD*%
D10*
%TO.N,/N*%
%TO.C,J7*%
X170700536Y-113161600D03*
D11*
%TO.N,unconnected-(J7-Pin_2-Pad2)*%
X170700536Y-118161600D03*
%TO.N,/L*%
X170700536Y-123161600D03*
%TD*%
D23*
%TO.N,GND*%
X141592801Y-84532000D03*
D24*
X130505536Y-82496266D03*
D23*
X123106536Y-77372266D03*
X141694401Y-60351200D03*
X156426401Y-78994800D03*
X138745536Y-70496266D03*
D24*
X119725536Y-79616266D03*
D23*
X143726401Y-97943200D03*
X148430536Y-104916266D03*
D24*
X118425536Y-77486266D03*
X136290001Y-96660000D03*
D23*
X154050001Y-95708000D03*
D24*
X165190001Y-75840000D03*
D23*
X136835536Y-76820000D03*
X126109536Y-80378266D03*
X145656801Y-77064400D03*
X127345536Y-69766266D03*
X126109536Y-77358266D03*
X167196001Y-81839600D03*
X125840001Y-55160000D03*
X123109536Y-80368266D03*
X132042401Y-80417200D03*
X146105536Y-99966266D03*
X147185536Y-78696266D03*
X126810001Y-86290000D03*
D24*
X141470001Y-74630000D03*
D23*
X121069601Y-74372000D03*
X139115536Y-51896266D03*
X145905536Y-79466266D03*
X161455601Y-81738000D03*
%TO.N,+3V3*%
X166955536Y-106741266D03*
X142659601Y-80569600D03*
X148850001Y-94560000D03*
X143116801Y-81433200D03*
X147993601Y-80366400D03*
X130853536Y-112678266D03*
X136949536Y-112678266D03*
X121460001Y-81320000D03*
D24*
X124125536Y-75476266D03*
D23*
X144082001Y-99766266D03*
X137965536Y-109376266D03*
X136004801Y-70308000D03*
X145060001Y-81210000D03*
X137965536Y-113694266D03*
X136949536Y-110392266D03*
X132885536Y-110392266D03*
X127580001Y-66262500D03*
X142820001Y-77740000D03*
X132885536Y-113694266D03*
X147665001Y-99835000D03*
D24*
X134380001Y-96530000D03*
X128240001Y-90100000D03*
D23*
X134917536Y-110392266D03*
D24*
X121015536Y-78486266D03*
D23*
X130853536Y-110392266D03*
X134917536Y-113694266D03*
X133901536Y-112678266D03*
X130853536Y-109376266D03*
X136949536Y-109376266D03*
X130853536Y-113694266D03*
D24*
X128030001Y-79115000D03*
D23*
X132885536Y-112678266D03*
D24*
X135350001Y-73720000D03*
D23*
X129837536Y-112678266D03*
X134917536Y-112678266D03*
X135933536Y-113694266D03*
X128821536Y-109376266D03*
X134917536Y-109376266D03*
X132885536Y-109376266D03*
X141491201Y-73559200D03*
X131869536Y-110392266D03*
X126789536Y-109376266D03*
X127805536Y-109376266D03*
D24*
X125662040Y-82805001D03*
D23*
X131869536Y-109376266D03*
X135933536Y-110392266D03*
X125840001Y-56630000D03*
X133901536Y-110392266D03*
X137965536Y-110392266D03*
X135933536Y-109376266D03*
D24*
X157735901Y-82855901D03*
X117350001Y-76870000D03*
D23*
X143828001Y-87884800D03*
X128821536Y-113694266D03*
X146876001Y-89307200D03*
X146790001Y-81120000D03*
X137965536Y-112678266D03*
X131869536Y-112678266D03*
X129837536Y-113694266D03*
X136949536Y-113694266D03*
X133901536Y-113694266D03*
X127805536Y-113694266D03*
X129837536Y-110392266D03*
X126789536Y-113694266D03*
X143550001Y-94860000D03*
X129837536Y-109376266D03*
X131660001Y-66682500D03*
X133901536Y-109376266D03*
X135141201Y-100940400D03*
X123040901Y-85610901D03*
D24*
X163685901Y-82835901D03*
D23*
X126789536Y-112678266D03*
X144031201Y-89815200D03*
X142770001Y-79070000D03*
X116555536Y-67616266D03*
X135933536Y-112678266D03*
X126789536Y-110392266D03*
X131869536Y-113694266D03*
D24*
X132935536Y-77206266D03*
%TO.N,/OUT*%
X148580001Y-99846266D03*
X125730001Y-101050000D03*
%TO.N,/RC*%
X135360001Y-77730000D03*
X135340001Y-80300000D03*
%TO.N,/RST3*%
X130610901Y-81340901D03*
X139952136Y-96082866D03*
%TO.N,+1V0*%
X125595536Y-74415000D03*
X122877096Y-82705001D03*
X128995001Y-80600000D03*
X127455536Y-74415000D03*
D23*
X117610001Y-81930000D03*
D24*
X122150001Y-76266266D03*
X123705536Y-74404999D03*
%TO.N,/RESET*%
X146130001Y-102716266D03*
X137205536Y-99166266D03*
%TO.N,/RST1*%
X153530901Y-75670901D03*
X154325001Y-90060000D03*
%TO.N,Net-(D6-K)*%
X123524636Y-84015366D03*
X136590001Y-88486266D03*
X132745536Y-82900000D03*
%TO.N,Net-(D7-K)*%
X123777950Y-84531563D03*
X135120001Y-88576266D03*
X132740902Y-83790900D03*
%TO.N,Net-(D8-K)*%
X133670001Y-88557500D03*
X124075536Y-85056266D03*
X132710901Y-84780901D03*
%TO.N,Net-(D9-K)*%
X124640001Y-85230000D03*
X132745536Y-85730000D03*
X132210001Y-88527500D03*
%TO.N,Net-(D10-K)*%
X130750001Y-88537500D03*
X132775536Y-86690000D03*
X125157283Y-85481093D03*
%TO.N,/TX1*%
X141025536Y-93135000D03*
X146305536Y-94296266D03*
%TO.N,/RX1*%
X145610001Y-94240000D03*
X140665536Y-93610000D03*
%TO.N,/SWDIO*%
X140255536Y-94085000D03*
X144190901Y-94310901D03*
%TO.N,/CTRL*%
X142545536Y-62936266D03*
X138950901Y-96420901D03*
X145550001Y-63080000D03*
%TO.N,/SDA*%
X142334635Y-62335365D03*
X138005536Y-97146266D03*
X138224635Y-72915365D03*
%TO.N,/SCL*%
X142235001Y-63420000D03*
X138557139Y-96884663D03*
X138899811Y-72866266D03*
%TO.N,/LOS*%
X168130001Y-70115000D03*
X145641753Y-59150000D03*
%TO.N,/FAULT*%
X168325901Y-71495901D03*
X145460001Y-63870000D03*
%TO.N,/INT1*%
X153060902Y-76170900D03*
X153925001Y-91130000D03*
%TO.N,/CS1*%
X152250001Y-99516266D03*
X151240001Y-77920000D03*
%TO.N,/CS2*%
X153425536Y-102060000D03*
X142790001Y-95090000D03*
%TO.N,/RST2*%
X170790001Y-98326266D03*
X146527702Y-91194100D03*
X147630001Y-94376266D03*
%TO.N,/MOSI*%
X152610901Y-76600901D03*
X153555901Y-98075901D03*
%TO.N,/SCK*%
X151715902Y-77565900D03*
X157645901Y-96395901D03*
X152765536Y-99035000D03*
%TO.N,/MISO*%
X157550001Y-98150000D03*
X153135902Y-98545900D03*
X152135901Y-77095901D03*
%TO.N,/INT2*%
X148082135Y-95322865D03*
X170759636Y-96100366D03*
D23*
%TO.N,/VccR*%
X131160001Y-56560000D03*
X137460001Y-60640000D03*
%TO.N,/VccT*%
X137510001Y-62120000D03*
X131650001Y-68560000D03*
D24*
%TO.N,/CS3*%
X149365536Y-92760000D03*
%TO.N,Net-(J4-Pin_2)*%
X145625536Y-59830000D03*
%TD*%
%TA.AperFunction,Conductor*%
%TO.N,+3V3*%
G36*
X138980536Y-114366266D02*
G01*
X126205536Y-114366266D01*
X126180536Y-114341266D01*
X126180536Y-111317519D01*
X127013036Y-111317519D01*
X127013036Y-111323766D01*
X127930024Y-111323766D01*
X127897111Y-111380773D01*
X127863036Y-111507940D01*
X127863036Y-111639592D01*
X127897111Y-111766759D01*
X127930024Y-111823766D01*
X127013036Y-111823766D01*
X127013036Y-111830012D01*
X127046278Y-112039893D01*
X127046278Y-112039896D01*
X127111940Y-112241983D01*
X127208415Y-112431323D01*
X127333308Y-112603225D01*
X127333312Y-112603230D01*
X127483571Y-112753489D01*
X127483576Y-112753493D01*
X127655478Y-112878386D01*
X127844818Y-112974861D01*
X128046907Y-113040523D01*
X128113036Y-113050997D01*
X128113036Y-112006778D01*
X128170043Y-112039691D01*
X128297210Y-112073766D01*
X128428862Y-112073766D01*
X128556029Y-112039691D01*
X128613036Y-112006778D01*
X128613036Y-113050996D01*
X128679162Y-113040523D01*
X128679165Y-113040523D01*
X128881253Y-112974861D01*
X129070593Y-112878386D01*
X129242495Y-112753493D01*
X129242500Y-112753489D01*
X129392759Y-112603230D01*
X129392763Y-112603225D01*
X129517656Y-112431323D01*
X129614131Y-112241983D01*
X129679793Y-112039896D01*
X129679793Y-112039893D01*
X129713036Y-111830012D01*
X129713036Y-111823766D01*
X128796048Y-111823766D01*
X128828961Y-111766759D01*
X128863036Y-111639592D01*
X128863036Y-111507940D01*
X128828961Y-111380773D01*
X128796048Y-111323766D01*
X129713036Y-111323766D01*
X129713036Y-111317519D01*
X129679793Y-111107638D01*
X129679793Y-111107635D01*
X129614131Y-110905548D01*
X129517656Y-110716208D01*
X129392763Y-110544306D01*
X129392759Y-110544301D01*
X129242500Y-110394042D01*
X129242495Y-110394038D01*
X129070593Y-110269145D01*
X128881251Y-110172669D01*
X128679160Y-110107007D01*
X128613036Y-110096534D01*
X128613036Y-111140754D01*
X128556029Y-111107841D01*
X128428862Y-111073766D01*
X128297210Y-111073766D01*
X128170043Y-111107841D01*
X128113036Y-111140754D01*
X128113036Y-110096534D01*
X128113035Y-110096534D01*
X128046911Y-110107007D01*
X127844820Y-110172669D01*
X127655478Y-110269145D01*
X127483576Y-110394038D01*
X127483571Y-110394042D01*
X127333312Y-110544301D01*
X127333308Y-110544306D01*
X127208415Y-110716208D01*
X127111940Y-110905548D01*
X127046278Y-111107635D01*
X127046278Y-111107638D01*
X127013036Y-111317519D01*
X126180536Y-111317519D01*
X126180536Y-108941266D01*
X138980536Y-108941266D01*
X138980536Y-114366266D01*
G37*
%TD.AperFunction*%
%TD*%
%TA.AperFunction,Conductor*%
%TO.N,+3V3*%
G36*
X138555635Y-51111451D02*
G01*
X138601390Y-51164255D01*
X138611334Y-51233413D01*
X138582309Y-51296969D01*
X138576277Y-51303447D01*
X138485720Y-51394003D01*
X138389747Y-51546742D01*
X138330167Y-51717011D01*
X138330166Y-51717016D01*
X138309971Y-51896262D01*
X138309971Y-51896269D01*
X138330166Y-52075515D01*
X138330167Y-52075520D01*
X138389747Y-52245789D01*
X138434281Y-52316664D01*
X138485720Y-52398528D01*
X138613274Y-52526082D01*
X138660971Y-52556052D01*
X138746282Y-52609657D01*
X138766014Y-52622055D01*
X138848474Y-52650909D01*
X138936281Y-52681634D01*
X138936286Y-52681635D01*
X139115532Y-52701831D01*
X139115536Y-52701831D01*
X139115540Y-52701831D01*
X139294785Y-52681635D01*
X139294788Y-52681634D01*
X139294791Y-52681634D01*
X139465058Y-52622055D01*
X139617798Y-52526082D01*
X139745352Y-52398528D01*
X139841325Y-52245788D01*
X139900904Y-52075521D01*
X139921101Y-51896266D01*
X139904165Y-51745955D01*
X139900905Y-51717016D01*
X139900904Y-51717011D01*
X139841324Y-51546742D01*
X139745351Y-51394003D01*
X139654795Y-51303447D01*
X139621310Y-51242124D01*
X139626294Y-51172432D01*
X139668166Y-51116499D01*
X139733630Y-51092082D01*
X139742476Y-51091766D01*
X175095501Y-51091766D01*
X175162540Y-51111451D01*
X175208295Y-51164255D01*
X175219501Y-51215766D01*
X175219501Y-110017266D01*
X175199816Y-110084305D01*
X175147012Y-110130060D01*
X175095501Y-110141266D01*
X166205536Y-110141266D01*
X166205536Y-111650904D01*
X166185851Y-111717943D01*
X166169217Y-111738585D01*
X163585855Y-114321947D01*
X163524532Y-114355432D01*
X163498174Y-114358266D01*
X158813536Y-114358266D01*
X158805536Y-114366266D01*
X158805536Y-116534266D01*
X158785851Y-116601305D01*
X158733047Y-116647060D01*
X158681536Y-116658266D01*
X119279535Y-116658266D01*
X117855855Y-118081947D01*
X117794532Y-118115432D01*
X117768174Y-118118266D01*
X116747536Y-118118266D01*
X116739536Y-118126266D01*
X116739536Y-123674219D01*
X116735312Y-123706309D01*
X116733902Y-123711570D01*
X116733900Y-123711579D01*
X116714068Y-123938265D01*
X116714068Y-123938267D01*
X116733900Y-124164952D01*
X116733902Y-124164963D01*
X116735311Y-124170220D01*
X116739536Y-124202313D01*
X116739536Y-126446266D01*
X124259536Y-126446266D01*
X124259536Y-125342266D01*
X124279221Y-125275227D01*
X124332025Y-125229472D01*
X124383536Y-125218266D01*
X158675536Y-125218266D01*
X158742575Y-125237951D01*
X158788330Y-125290755D01*
X158799536Y-125342266D01*
X158799536Y-126760266D01*
X158805536Y-126766266D01*
X164805536Y-126766266D01*
X164805536Y-125332266D01*
X164825221Y-125265227D01*
X164878025Y-125219472D01*
X164929536Y-125208266D01*
X166075536Y-125208266D01*
X166142575Y-125227951D01*
X166188330Y-125280755D01*
X166199536Y-125332266D01*
X166199536Y-126168266D01*
X175095501Y-126168266D01*
X175162540Y-126187951D01*
X175208295Y-126240755D01*
X175219501Y-126292266D01*
X175219501Y-130453024D01*
X175219383Y-130458434D01*
X175201281Y-130872983D01*
X175200338Y-130883759D01*
X175146528Y-131292461D01*
X175144650Y-131303114D01*
X175055423Y-131705583D01*
X175052623Y-131716032D01*
X174928659Y-132109188D01*
X174924959Y-132119353D01*
X174767201Y-132500208D01*
X174762629Y-132510012D01*
X174572282Y-132875663D01*
X174566873Y-132885032D01*
X174345374Y-133232712D01*
X174339169Y-133241573D01*
X174088216Y-133568618D01*
X174081263Y-133576904D01*
X173802767Y-133880828D01*
X173795118Y-133888478D01*
X173491176Y-134166987D01*
X173482889Y-134173940D01*
X173155848Y-134424886D01*
X173146987Y-134431091D01*
X172799302Y-134652590D01*
X172789934Y-134657998D01*
X172424282Y-134848344D01*
X172414477Y-134852916D01*
X172033625Y-135010669D01*
X172023460Y-135014369D01*
X171630306Y-135138329D01*
X171619858Y-135141129D01*
X171217383Y-135230356D01*
X171206729Y-135232234D01*
X170798030Y-135286040D01*
X170787254Y-135286983D01*
X170714344Y-135290166D01*
X170371985Y-135305114D01*
X170366593Y-135305232D01*
X120372707Y-135305232D01*
X120367298Y-135305114D01*
X119952744Y-135287014D01*
X119941968Y-135286071D01*
X119533263Y-135232264D01*
X119522610Y-135230386D01*
X119120138Y-135141161D01*
X119109689Y-135138361D01*
X118716530Y-135014399D01*
X118706374Y-135010702D01*
X118325507Y-134852943D01*
X118315706Y-134848373D01*
X117950051Y-134658025D01*
X117940683Y-134652617D01*
X117592995Y-134431117D01*
X117584134Y-134424912D01*
X117257091Y-134173964D01*
X117248804Y-134167011D01*
X116944865Y-133888505D01*
X116937216Y-133880856D01*
X116658713Y-133576926D01*
X116651759Y-133568639D01*
X116400795Y-133241578D01*
X116394591Y-133232716D01*
X116173101Y-132885049D01*
X116167694Y-132875684D01*
X115977342Y-132510025D01*
X115972770Y-132500221D01*
X115902084Y-132329572D01*
X115815007Y-132119353D01*
X115811311Y-132109199D01*
X115762038Y-131952928D01*
X115687345Y-131716032D01*
X115684548Y-131705591D01*
X115595319Y-131303120D01*
X115593442Y-131292480D01*
X115539628Y-130883743D01*
X115538688Y-130873007D01*
X115520617Y-130459151D01*
X115520500Y-130453828D01*
X115520500Y-130445730D01*
X116494422Y-130445730D01*
X116494422Y-130445731D01*
X116514722Y-130833070D01*
X116575397Y-131216158D01*
X116575397Y-131216160D01*
X116675788Y-131590825D01*
X116814787Y-131952928D01*
X116990877Y-132298524D01*
X117202122Y-132623813D01*
X117279800Y-132719737D01*
X117446219Y-132925247D01*
X117720484Y-133199512D01*
X117767140Y-133237293D01*
X118021917Y-133443608D01*
X118227175Y-133576904D01*
X118347211Y-133654856D01*
X118692806Y-133830945D01*
X119054913Y-133969945D01*
X119429567Y-134070333D01*
X119812662Y-134131009D01*
X120178576Y-134150186D01*
X120199999Y-134151309D01*
X120200000Y-134151309D01*
X120200001Y-134151309D01*
X120220301Y-134150245D01*
X120587338Y-134131009D01*
X120970433Y-134070333D01*
X121345087Y-133969945D01*
X121707194Y-133830945D01*
X122052789Y-133654856D01*
X122378084Y-133443607D01*
X122679516Y-133199512D01*
X122953781Y-132925247D01*
X123197876Y-132623815D01*
X123409125Y-132298520D01*
X123585214Y-131952925D01*
X123724214Y-131590818D01*
X123824602Y-131216164D01*
X123885278Y-130833069D01*
X123905578Y-130445731D01*
X123885278Y-130058393D01*
X123824602Y-129675298D01*
X123728725Y-129317479D01*
X127012536Y-129317479D01*
X127012536Y-129830053D01*
X127045790Y-130040009D01*
X127055012Y-130068392D01*
X127111480Y-130242180D01*
X127207987Y-130431586D01*
X127332926Y-130603552D01*
X127483249Y-130753875D01*
X127655215Y-130878814D01*
X127655217Y-130878815D01*
X127655220Y-130878817D01*
X127844624Y-130975323D01*
X128046793Y-131041012D01*
X128256749Y-131074266D01*
X128256750Y-131074266D01*
X128469322Y-131074266D01*
X128469323Y-131074266D01*
X128679279Y-131041012D01*
X128881448Y-130975323D01*
X129070852Y-130878817D01*
X129092825Y-130862852D01*
X129242822Y-130753875D01*
X129242824Y-130753872D01*
X129242828Y-130753870D01*
X129393140Y-130603558D01*
X129393142Y-130603554D01*
X129393145Y-130603552D01*
X129500542Y-130455731D01*
X166664423Y-130455731D01*
X166664423Y-130455732D01*
X166684723Y-130843071D01*
X166745398Y-131226159D01*
X166745398Y-131226161D01*
X166845789Y-131600826D01*
X166984788Y-131962929D01*
X167160878Y-132308525D01*
X167372123Y-132633814D01*
X167567969Y-132875663D01*
X167616220Y-132935248D01*
X167890485Y-133209513D01*
X167930076Y-133241573D01*
X168191918Y-133453609D01*
X168517207Y-133664854D01*
X168517212Y-133664857D01*
X168862807Y-133840946D01*
X169176949Y-133961534D01*
X169198860Y-133969945D01*
X169224914Y-133979946D01*
X169599568Y-134080334D01*
X169982663Y-134141010D01*
X170348577Y-134160187D01*
X170370000Y-134161310D01*
X170370001Y-134161310D01*
X170370002Y-134161310D01*
X170390302Y-134160246D01*
X170757339Y-134141010D01*
X171140434Y-134080334D01*
X171515088Y-133979946D01*
X171877195Y-133840946D01*
X172222790Y-133664857D01*
X172548085Y-133453608D01*
X172849517Y-133209513D01*
X173123782Y-132935248D01*
X173367877Y-132633816D01*
X173579126Y-132308521D01*
X173755215Y-131962926D01*
X173894215Y-131600819D01*
X173994603Y-131226165D01*
X174055279Y-130843070D01*
X174075579Y-130455732D01*
X174055279Y-130068394D01*
X173994603Y-129685299D01*
X173894215Y-129310645D01*
X173755215Y-128948538D01*
X173579126Y-128602943D01*
X173579123Y-128602938D01*
X173367878Y-128277649D01*
X173229299Y-128106519D01*
X173123782Y-127976216D01*
X172849517Y-127701951D01*
X172548085Y-127457856D01*
X172548083Y-127457854D01*
X172222794Y-127246609D01*
X171877198Y-127070519D01*
X171515095Y-126931520D01*
X171477771Y-126921519D01*
X171140434Y-126831130D01*
X171140430Y-126831129D01*
X171140429Y-126831129D01*
X170757340Y-126770454D01*
X170370002Y-126750154D01*
X170370000Y-126750154D01*
X169982661Y-126770454D01*
X169599573Y-126831129D01*
X169599571Y-126831129D01*
X169224906Y-126931520D01*
X168862803Y-127070519D01*
X168517207Y-127246609D01*
X168191918Y-127457854D01*
X167890489Y-127701947D01*
X167890481Y-127701954D01*
X167616223Y-127976212D01*
X167616216Y-127976220D01*
X167372123Y-128277649D01*
X167160878Y-128602938D01*
X166984788Y-128948534D01*
X166845789Y-129310637D01*
X166745398Y-129685302D01*
X166745398Y-129685304D01*
X166684723Y-130068392D01*
X166664423Y-130455731D01*
X129500542Y-130455731D01*
X129518084Y-130431586D01*
X129518083Y-130431586D01*
X129518087Y-130431582D01*
X129614593Y-130242178D01*
X129680282Y-130040009D01*
X129713536Y-129830053D01*
X129713536Y-129317479D01*
X129680282Y-129107523D01*
X129614593Y-128905354D01*
X129518087Y-128715950D01*
X129518085Y-128715947D01*
X129518084Y-128715945D01*
X129393145Y-128543979D01*
X129242822Y-128393656D01*
X129070856Y-128268717D01*
X128881450Y-128172210D01*
X128881449Y-128172209D01*
X128881448Y-128172209D01*
X128679279Y-128106520D01*
X128679277Y-128106519D01*
X128679276Y-128106519D01*
X128517993Y-128080974D01*
X128469323Y-128073266D01*
X128256749Y-128073266D01*
X128208078Y-128080974D01*
X128046796Y-128106519D01*
X127844621Y-128172210D01*
X127655215Y-128268717D01*
X127483249Y-128393656D01*
X127332926Y-128543979D01*
X127207987Y-128715945D01*
X127111480Y-128905351D01*
X127045789Y-129107526D01*
X127015204Y-129300636D01*
X127012536Y-129317479D01*
X123728725Y-129317479D01*
X123724214Y-129300644D01*
X123585214Y-128938537D01*
X123409125Y-128592942D01*
X123279707Y-128393656D01*
X123197877Y-128267648D01*
X122961883Y-127976220D01*
X122953781Y-127966215D01*
X122679516Y-127691950D01*
X122645164Y-127664132D01*
X122378082Y-127447853D01*
X122052793Y-127236608D01*
X121707197Y-127060518D01*
X121345094Y-126921519D01*
X121345087Y-126921517D01*
X120970433Y-126821129D01*
X120970429Y-126821128D01*
X120970428Y-126821128D01*
X120587339Y-126760453D01*
X120200001Y-126740153D01*
X120199999Y-126740153D01*
X119812660Y-126760453D01*
X119429572Y-126821128D01*
X119429570Y-126821128D01*
X119054905Y-126921519D01*
X118692802Y-127060518D01*
X118347206Y-127236608D01*
X118021917Y-127447853D01*
X117720488Y-127691946D01*
X117720480Y-127691953D01*
X117446222Y-127966211D01*
X117446215Y-127966219D01*
X117202122Y-128267648D01*
X116990877Y-128592937D01*
X116814787Y-128938533D01*
X116675788Y-129300636D01*
X116575397Y-129675301D01*
X116575397Y-129675303D01*
X116514722Y-130058391D01*
X116494422Y-130445730D01*
X115520500Y-130445730D01*
X115520500Y-130421380D01*
X115520500Y-130407002D01*
X115520491Y-130406926D01*
X115520425Y-130068392D01*
X115517008Y-112468401D01*
X118110036Y-112468401D01*
X118110036Y-115164136D01*
X118110037Y-115164142D01*
X118116444Y-115223749D01*
X118166738Y-115358594D01*
X118166742Y-115358601D01*
X118252988Y-115473810D01*
X118252991Y-115473813D01*
X118368200Y-115560059D01*
X118368207Y-115560063D01*
X118503053Y-115610357D01*
X118503052Y-115610357D01*
X118509980Y-115611101D01*
X118562663Y-115616766D01*
X121258408Y-115616765D01*
X121318019Y-115610357D01*
X121452867Y-115560062D01*
X121568082Y-115473812D01*
X121654332Y-115358597D01*
X121704627Y-115223749D01*
X121711036Y-115164139D01*
X121711036Y-114341266D01*
X126180536Y-114341266D01*
X126205536Y-114366266D01*
X138980536Y-114366266D01*
X138980536Y-108941266D01*
X126180536Y-108941266D01*
X126180536Y-114341266D01*
X121711036Y-114341266D01*
X121711035Y-112468394D01*
X121704627Y-112408783D01*
X121654332Y-112273935D01*
X121654331Y-112273934D01*
X121654329Y-112273930D01*
X121568083Y-112158721D01*
X121568080Y-112158718D01*
X121452871Y-112072472D01*
X121452864Y-112072468D01*
X121318018Y-112022174D01*
X121318019Y-112022174D01*
X121258419Y-112015767D01*
X121258417Y-112015766D01*
X121258409Y-112015766D01*
X121258400Y-112015766D01*
X118562665Y-112015766D01*
X118562659Y-112015767D01*
X118503052Y-112022174D01*
X118368207Y-112072468D01*
X118368200Y-112072472D01*
X118252991Y-112158718D01*
X118252988Y-112158721D01*
X118166742Y-112273930D01*
X118166738Y-112273937D01*
X118116444Y-112408783D01*
X118110037Y-112468382D01*
X118110037Y-112468389D01*
X118110036Y-112468401D01*
X115517008Y-112468401D01*
X115516299Y-108816261D01*
X118104987Y-108816261D01*
X118104987Y-108816270D01*
X118125152Y-109085367D01*
X118185200Y-109348454D01*
X118185202Y-109348461D01*
X118283793Y-109599664D01*
X118418721Y-109833368D01*
X118554616Y-110003775D01*
X118586978Y-110044355D01*
X118725269Y-110172669D01*
X118784795Y-110227901D01*
X119007762Y-110379917D01*
X119250895Y-110497004D01*
X119508764Y-110576546D01*
X119508765Y-110576546D01*
X119508768Y-110576547D01*
X119775599Y-110616765D01*
X119775604Y-110616765D01*
X119775607Y-110616766D01*
X119775608Y-110616766D01*
X120045464Y-110616766D01*
X120045465Y-110616766D01*
X120045472Y-110616765D01*
X120312303Y-110576547D01*
X120312304Y-110576546D01*
X120312308Y-110576546D01*
X120570177Y-110497004D01*
X120783980Y-110394042D01*
X120813303Y-110379921D01*
X120813303Y-110379920D01*
X120813311Y-110379917D01*
X121036277Y-110227901D01*
X121234097Y-110044351D01*
X121402351Y-109833368D01*
X121537279Y-109599664D01*
X121635870Y-109348461D01*
X121695919Y-109085369D01*
X121716085Y-108816266D01*
X121695919Y-108547163D01*
X121635870Y-108284071D01*
X121537279Y-108032868D01*
X121402351Y-107799164D01*
X121234097Y-107588181D01*
X121234096Y-107588180D01*
X121234093Y-107588176D01*
X121036277Y-107404631D01*
X120813311Y-107252615D01*
X120813305Y-107252612D01*
X120813304Y-107252611D01*
X120813303Y-107252610D01*
X120570179Y-107135529D01*
X120570181Y-107135529D01*
X120312309Y-107055986D01*
X120312303Y-107055984D01*
X120045472Y-107015766D01*
X120045465Y-107015766D01*
X119775607Y-107015766D01*
X119775599Y-107015766D01*
X119508768Y-107055984D01*
X119508762Y-107055986D01*
X119250894Y-107135528D01*
X119007766Y-107252612D01*
X118784794Y-107404631D01*
X118586978Y-107588176D01*
X118418721Y-107799164D01*
X118283794Y-108032865D01*
X118283792Y-108032869D01*
X118185202Y-108284070D01*
X118185200Y-108284077D01*
X118125152Y-108547164D01*
X118104987Y-108816261D01*
X115516299Y-108816261D01*
X115514319Y-98616265D01*
X116949877Y-98616265D01*
X116949877Y-98616266D01*
X116970472Y-98851669D01*
X116970474Y-98851679D01*
X117031630Y-99079921D01*
X117031632Y-99079925D01*
X117031633Y-99079929D01*
X117082250Y-99188477D01*
X117131501Y-99294096D01*
X117131503Y-99294100D01*
X117267037Y-99487661D01*
X117267042Y-99487668D01*
X117434133Y-99654759D01*
X117434139Y-99654764D01*
X117619694Y-99784691D01*
X117663319Y-99839268D01*
X117670513Y-99908766D01*
X117638990Y-99971121D01*
X117619694Y-99987841D01*
X117434133Y-100117771D01*
X117267041Y-100284863D01*
X117131501Y-100478435D01*
X117131500Y-100478437D01*
X117031634Y-100692601D01*
X117031630Y-100692610D01*
X116970474Y-100920852D01*
X116970472Y-100920862D01*
X116949877Y-101156265D01*
X116949877Y-101156266D01*
X116970472Y-101391669D01*
X116970474Y-101391679D01*
X117031630Y-101619921D01*
X117031632Y-101619925D01*
X117031633Y-101619929D01*
X117032043Y-101620808D01*
X117131501Y-101834096D01*
X117131503Y-101834100D01*
X117237988Y-101986175D01*
X117267037Y-102027662D01*
X117267042Y-102027668D01*
X117388966Y-102149592D01*
X117422451Y-102210915D01*
X117417467Y-102280607D01*
X117375595Y-102336540D01*
X117344619Y-102353455D01*
X117213205Y-102402469D01*
X117213200Y-102402472D01*
X117097991Y-102488718D01*
X117097988Y-102488721D01*
X117011742Y-102603930D01*
X117011738Y-102603937D01*
X116961444Y-102738783D01*
X116955037Y-102798382D01*
X116955037Y-102798389D01*
X116955036Y-102798401D01*
X116955036Y-104594136D01*
X116955037Y-104594142D01*
X116961444Y-104653749D01*
X117011738Y-104788594D01*
X117011742Y-104788601D01*
X117097988Y-104903810D01*
X117097991Y-104903813D01*
X117213200Y-104990059D01*
X117213207Y-104990063D01*
X117348053Y-105040357D01*
X117348052Y-105040357D01*
X117354980Y-105041101D01*
X117407663Y-105046766D01*
X119203408Y-105046765D01*
X119263019Y-105040357D01*
X119397867Y-104990062D01*
X119496451Y-104916262D01*
X147624971Y-104916262D01*
X147624971Y-104916269D01*
X147645166Y-105095515D01*
X147645167Y-105095520D01*
X147704747Y-105265789D01*
X147800720Y-105418528D01*
X147928274Y-105546082D01*
X148081014Y-105642055D01*
X148251281Y-105701634D01*
X148251286Y-105701635D01*
X148430532Y-105721831D01*
X148430536Y-105721831D01*
X148430540Y-105721831D01*
X148609785Y-105701635D01*
X148609788Y-105701634D01*
X148609791Y-105701634D01*
X148780058Y-105642055D01*
X148932798Y-105546082D01*
X149060352Y-105418528D01*
X149156325Y-105265788D01*
X149215904Y-105095521D01*
X149215905Y-105095515D01*
X149236101Y-104916269D01*
X149236101Y-104916262D01*
X149215905Y-104737016D01*
X149215904Y-104737011D01*
X149165911Y-104594139D01*
X149156325Y-104566744D01*
X149060352Y-104414004D01*
X148932798Y-104286450D01*
X148780059Y-104190477D01*
X148609790Y-104130897D01*
X148609785Y-104130896D01*
X148430540Y-104110701D01*
X148430532Y-104110701D01*
X148251286Y-104130896D01*
X148251281Y-104130897D01*
X148081012Y-104190477D01*
X147928273Y-104286450D01*
X147800720Y-104414003D01*
X147704747Y-104566742D01*
X147645167Y-104737011D01*
X147645166Y-104737016D01*
X147624971Y-104916262D01*
X119496451Y-104916262D01*
X119513082Y-104903812D01*
X119599332Y-104788597D01*
X119649627Y-104653749D01*
X119656036Y-104594139D01*
X119656035Y-102798394D01*
X119649627Y-102738783D01*
X119641227Y-102716262D01*
X145399910Y-102716262D01*
X145399910Y-102716269D01*
X145418213Y-102878721D01*
X145472211Y-103033040D01*
X145472212Y-103033041D01*
X145559193Y-103171470D01*
X145674797Y-103287074D01*
X145813226Y-103374055D01*
X145967540Y-103428052D01*
X145967543Y-103428052D01*
X145967545Y-103428053D01*
X146129997Y-103446357D01*
X146130001Y-103446357D01*
X146130005Y-103446357D01*
X146292456Y-103428053D01*
X146292457Y-103428052D01*
X146292462Y-103428052D01*
X146446776Y-103374055D01*
X146585205Y-103287074D01*
X146700809Y-103171470D01*
X146787790Y-103033041D01*
X146841787Y-102878727D01*
X146850838Y-102798401D01*
X146860092Y-102716269D01*
X146860092Y-102716262D01*
X146841788Y-102553810D01*
X146841787Y-102553808D01*
X146841787Y-102553805D01*
X146787790Y-102399491D01*
X146700809Y-102261062D01*
X146585205Y-102145458D01*
X146449200Y-102060000D01*
X146449194Y-102059996D01*
X152695445Y-102059996D01*
X152695445Y-102060003D01*
X152713748Y-102222455D01*
X152767746Y-102376774D01*
X152838086Y-102488718D01*
X152854728Y-102515204D01*
X152970332Y-102630808D01*
X153108761Y-102717789D01*
X153263075Y-102771786D01*
X153263078Y-102771786D01*
X153263080Y-102771787D01*
X153425532Y-102790091D01*
X153425536Y-102790091D01*
X153425540Y-102790091D01*
X153587991Y-102771787D01*
X153587992Y-102771786D01*
X153587997Y-102771786D01*
X153742311Y-102717789D01*
X153880740Y-102630808D01*
X153996344Y-102515204D01*
X154083325Y-102376775D01*
X154137322Y-102222461D01*
X154142349Y-102177846D01*
X154155627Y-102060003D01*
X154155627Y-102059996D01*
X154137323Y-101897544D01*
X154137322Y-101897542D01*
X154137322Y-101897539D01*
X154083325Y-101743225D01*
X153996344Y-101604796D01*
X153880740Y-101489192D01*
X153742310Y-101402210D01*
X153587991Y-101348212D01*
X153425540Y-101329909D01*
X153425532Y-101329909D01*
X153263080Y-101348212D01*
X153108761Y-101402210D01*
X152970331Y-101489192D01*
X152854728Y-101604795D01*
X152767746Y-101743225D01*
X152713748Y-101897544D01*
X152695445Y-102059996D01*
X146449194Y-102059996D01*
X146446775Y-102058476D01*
X146292456Y-102004478D01*
X146130005Y-101986175D01*
X146129997Y-101986175D01*
X145967545Y-102004478D01*
X145813226Y-102058476D01*
X145674796Y-102145458D01*
X145559193Y-102261061D01*
X145472211Y-102399491D01*
X145418213Y-102553810D01*
X145399910Y-102716262D01*
X119641227Y-102716262D01*
X119599333Y-102603937D01*
X119599329Y-102603930D01*
X119513083Y-102488721D01*
X119513080Y-102488718D01*
X119397871Y-102402472D01*
X119397864Y-102402468D01*
X119266453Y-102353455D01*
X119210519Y-102311584D01*
X119186102Y-102246119D01*
X119200954Y-102177846D01*
X119222099Y-102149598D01*
X119344031Y-102027667D01*
X119479571Y-101834096D01*
X119579439Y-101619929D01*
X119640599Y-101391674D01*
X119661195Y-101156266D01*
X119651897Y-101049996D01*
X124999910Y-101049996D01*
X124999910Y-101050003D01*
X125018213Y-101212455D01*
X125072211Y-101366774D01*
X125072212Y-101366775D01*
X125159193Y-101505204D01*
X125274797Y-101620808D01*
X125413226Y-101707789D01*
X125567540Y-101761786D01*
X125567543Y-101761786D01*
X125567545Y-101761787D01*
X125729997Y-101780091D01*
X125730001Y-101780091D01*
X125730005Y-101780091D01*
X125892456Y-101761787D01*
X125892457Y-101761786D01*
X125892462Y-101761786D01*
X126046776Y-101707789D01*
X126185205Y-101620808D01*
X126300809Y-101505204D01*
X126387790Y-101366775D01*
X126441787Y-101212461D01*
X126460092Y-101050000D01*
X126445541Y-100920858D01*
X126441788Y-100887544D01*
X126441787Y-100887542D01*
X126441787Y-100887539D01*
X126387790Y-100733225D01*
X126300809Y-100594796D01*
X126185205Y-100479192D01*
X126168233Y-100468528D01*
X126046775Y-100392210D01*
X125892456Y-100338212D01*
X125730005Y-100319909D01*
X125729997Y-100319909D01*
X125567545Y-100338212D01*
X125413226Y-100392210D01*
X125274796Y-100479192D01*
X125159193Y-100594795D01*
X125072211Y-100733225D01*
X125018213Y-100887544D01*
X124999910Y-101049996D01*
X119651897Y-101049996D01*
X119640599Y-100920858D01*
X119594162Y-100747551D01*
X119579441Y-100692610D01*
X119579440Y-100692609D01*
X119579439Y-100692603D01*
X119479571Y-100478437D01*
X119436605Y-100417074D01*
X119344030Y-100284863D01*
X119176938Y-100117772D01*
X119176932Y-100117767D01*
X118991378Y-99987841D01*
X118974129Y-99966262D01*
X145299971Y-99966262D01*
X145299971Y-99966269D01*
X145320166Y-100145515D01*
X145320167Y-100145520D01*
X145379747Y-100315789D01*
X145443389Y-100417074D01*
X145475720Y-100468528D01*
X145603274Y-100596082D01*
X145756014Y-100692055D01*
X145873671Y-100733225D01*
X145926281Y-100751634D01*
X145926286Y-100751635D01*
X146105532Y-100771831D01*
X146105536Y-100771831D01*
X146105540Y-100771831D01*
X146284785Y-100751635D01*
X146284788Y-100751634D01*
X146284791Y-100751634D01*
X146455058Y-100692055D01*
X146607798Y-100596082D01*
X146735352Y-100468528D01*
X146831325Y-100315788D01*
X146890904Y-100145521D01*
X146894031Y-100117767D01*
X146911101Y-99966269D01*
X146911101Y-99966262D01*
X146897580Y-99846262D01*
X147849910Y-99846262D01*
X147849910Y-99846269D01*
X147868213Y-100008721D01*
X147922211Y-100163040D01*
X147963061Y-100228052D01*
X148009193Y-100301470D01*
X148124797Y-100417074D01*
X148263226Y-100504055D01*
X148417540Y-100558052D01*
X148417543Y-100558052D01*
X148417545Y-100558053D01*
X148579997Y-100576357D01*
X148580001Y-100576357D01*
X148580005Y-100576357D01*
X148742456Y-100558053D01*
X148742457Y-100558052D01*
X148742462Y-100558052D01*
X148896776Y-100504055D01*
X149035205Y-100417074D01*
X149150809Y-100301470D01*
X149237790Y-100163041D01*
X149291787Y-100008727D01*
X149291788Y-100008721D01*
X149310092Y-99846269D01*
X149310092Y-99846262D01*
X149291788Y-99683810D01*
X149291787Y-99683808D01*
X149291787Y-99683805D01*
X149237790Y-99529491D01*
X149229478Y-99516262D01*
X151519910Y-99516262D01*
X151519910Y-99516269D01*
X151538213Y-99678721D01*
X151592211Y-99833040D01*
X151631996Y-99896357D01*
X151679193Y-99971470D01*
X151794797Y-100087074D01*
X151933226Y-100174055D01*
X152087540Y-100228052D01*
X152087543Y-100228052D01*
X152087545Y-100228053D01*
X152249997Y-100246357D01*
X152250001Y-100246357D01*
X152250005Y-100246357D01*
X152412456Y-100228053D01*
X152412457Y-100228052D01*
X152412462Y-100228052D01*
X152566776Y-100174055D01*
X152705205Y-100087074D01*
X152820809Y-99971470D01*
X152907790Y-99833041D01*
X152919640Y-99799175D01*
X152960360Y-99742398D01*
X152995726Y-99723085D01*
X153082311Y-99692789D01*
X153220740Y-99605808D01*
X153336344Y-99490204D01*
X153423325Y-99351775D01*
X153467144Y-99226547D01*
X153507865Y-99169773D01*
X153518205Y-99162514D01*
X153591106Y-99116708D01*
X153706710Y-99001104D01*
X153793691Y-98862675D01*
X153814999Y-98801777D01*
X153855719Y-98745001D01*
X153867114Y-98737929D01*
X153866779Y-98737395D01*
X153872674Y-98733690D01*
X153872676Y-98733690D01*
X154011105Y-98646709D01*
X154126709Y-98531105D01*
X154213690Y-98392676D01*
X154267687Y-98238362D01*
X154277643Y-98150000D01*
X154277643Y-98149996D01*
X156819910Y-98149996D01*
X156819910Y-98150003D01*
X156838213Y-98312455D01*
X156892211Y-98466774D01*
X156918415Y-98508477D01*
X156979193Y-98605204D01*
X157094797Y-98720808D01*
X157233226Y-98807789D01*
X157387540Y-98861786D01*
X157387543Y-98861786D01*
X157387545Y-98861787D01*
X157549997Y-98880091D01*
X157550001Y-98880091D01*
X157550005Y-98880091D01*
X157712456Y-98861787D01*
X157712457Y-98861786D01*
X157712462Y-98861786D01*
X157866776Y-98807789D01*
X158005205Y-98720808D01*
X158120809Y-98605204D01*
X158207790Y-98466775D01*
X158256958Y-98326262D01*
X170059910Y-98326262D01*
X170059910Y-98326269D01*
X170078213Y-98488721D01*
X170078214Y-98488726D01*
X170078215Y-98488727D01*
X170085126Y-98508477D01*
X170132211Y-98643040D01*
X170179453Y-98718225D01*
X170219193Y-98781470D01*
X170334797Y-98897074D01*
X170473226Y-98984055D01*
X170627540Y-99038052D01*
X170627543Y-99038052D01*
X170627545Y-99038053D01*
X170789997Y-99056357D01*
X170790001Y-99056357D01*
X170790005Y-99056357D01*
X170952456Y-99038053D01*
X170952457Y-99038052D01*
X170952462Y-99038052D01*
X171106776Y-98984055D01*
X171245205Y-98897074D01*
X171360809Y-98781470D01*
X171447790Y-98643041D01*
X171501787Y-98488727D01*
X171501788Y-98488721D01*
X171520092Y-98326269D01*
X171520092Y-98326262D01*
X171501788Y-98163810D01*
X171501787Y-98163808D01*
X171501787Y-98163805D01*
X171447790Y-98009491D01*
X171360809Y-97871062D01*
X171245205Y-97755458D01*
X171228343Y-97744863D01*
X171106775Y-97668476D01*
X170952456Y-97614478D01*
X170790005Y-97596175D01*
X170789997Y-97596175D01*
X170627545Y-97614478D01*
X170473226Y-97668476D01*
X170334796Y-97755458D01*
X170219193Y-97871061D01*
X170132211Y-98009491D01*
X170078213Y-98163810D01*
X170059910Y-98326262D01*
X158256958Y-98326262D01*
X158261787Y-98312461D01*
X158280092Y-98150000D01*
X158276988Y-98122455D01*
X158261788Y-97987544D01*
X158261787Y-97987542D01*
X158261787Y-97987539D01*
X158207790Y-97833225D01*
X158120809Y-97694796D01*
X158005205Y-97579192D01*
X158002945Y-97577772D01*
X157866775Y-97492210D01*
X157732940Y-97445379D01*
X157712462Y-97438214D01*
X157712461Y-97438213D01*
X157712456Y-97438212D01*
X157550005Y-97419909D01*
X157549997Y-97419909D01*
X157387545Y-97438212D01*
X157233226Y-97492210D01*
X157094796Y-97579192D01*
X156979193Y-97694795D01*
X156892211Y-97833225D01*
X156838213Y-97987544D01*
X156819910Y-98149996D01*
X154277643Y-98149996D01*
X154285992Y-98075904D01*
X154285992Y-98075897D01*
X154267688Y-97913445D01*
X154267687Y-97913443D01*
X154267687Y-97913440D01*
X154213690Y-97759126D01*
X154126709Y-97620697D01*
X154011105Y-97505093D01*
X153872675Y-97418111D01*
X153718356Y-97364113D01*
X153555905Y-97345810D01*
X153555897Y-97345810D01*
X153393445Y-97364113D01*
X153239126Y-97418111D01*
X153100696Y-97505093D01*
X152985093Y-97620696D01*
X152898113Y-97759123D01*
X152898112Y-97759124D01*
X152876801Y-97820027D01*
X152836078Y-97876803D01*
X152824692Y-97883881D01*
X152825023Y-97884407D01*
X152819129Y-97888110D01*
X152819127Y-97888111D01*
X152748210Y-97932670D01*
X152680697Y-97975092D01*
X152565094Y-98090695D01*
X152478110Y-98229127D01*
X152434293Y-98354350D01*
X152393571Y-98411126D01*
X152383226Y-98418387D01*
X152310336Y-98464188D01*
X152310329Y-98464194D01*
X152194728Y-98579795D01*
X152107748Y-98718222D01*
X152095895Y-98752095D01*
X152055172Y-98808870D01*
X152019810Y-98828179D01*
X151933224Y-98858477D01*
X151933223Y-98858478D01*
X151794796Y-98945458D01*
X151679193Y-99061061D01*
X151592211Y-99199491D01*
X151538213Y-99353810D01*
X151519910Y-99516262D01*
X149229478Y-99516262D01*
X149150809Y-99391062D01*
X149035205Y-99275458D01*
X148911074Y-99197461D01*
X148896775Y-99188476D01*
X148742456Y-99134478D01*
X148580005Y-99116175D01*
X148579997Y-99116175D01*
X148417545Y-99134478D01*
X148263226Y-99188476D01*
X148124796Y-99275458D01*
X148009193Y-99391061D01*
X147922211Y-99529491D01*
X147868213Y-99683810D01*
X147849910Y-99846262D01*
X146897580Y-99846262D01*
X146890905Y-99787016D01*
X146890904Y-99787011D01*
X146854792Y-99683810D01*
X146831325Y-99616744D01*
X146824453Y-99605808D01*
X146768188Y-99516262D01*
X146735352Y-99464004D01*
X146607798Y-99336450D01*
X146595497Y-99328721D01*
X146455059Y-99240477D01*
X146284790Y-99180897D01*
X146284785Y-99180896D01*
X146105540Y-99160701D01*
X146105532Y-99160701D01*
X145926286Y-99180896D01*
X145926281Y-99180897D01*
X145756012Y-99240477D01*
X145603273Y-99336450D01*
X145475720Y-99464003D01*
X145379747Y-99616742D01*
X145320167Y-99787011D01*
X145320166Y-99787016D01*
X145299971Y-99966262D01*
X118974129Y-99966262D01*
X118947753Y-99933264D01*
X118940559Y-99863766D01*
X118972082Y-99801411D01*
X118991378Y-99784691D01*
X119051193Y-99742808D01*
X119176937Y-99654761D01*
X119344031Y-99487667D01*
X119479571Y-99294096D01*
X119539181Y-99166262D01*
X136475445Y-99166262D01*
X136475445Y-99166269D01*
X136493748Y-99328721D01*
X136547746Y-99483040D01*
X136624886Y-99605807D01*
X136634728Y-99621470D01*
X136750332Y-99737074D01*
X136888761Y-99824055D01*
X137043075Y-99878052D01*
X137043078Y-99878052D01*
X137043080Y-99878053D01*
X137205532Y-99896357D01*
X137205536Y-99896357D01*
X137205540Y-99896357D01*
X137367991Y-99878053D01*
X137367992Y-99878052D01*
X137367997Y-99878052D01*
X137522311Y-99824055D01*
X137660740Y-99737074D01*
X137776344Y-99621470D01*
X137863325Y-99483041D01*
X137917322Y-99328727D01*
X137923324Y-99275458D01*
X137935627Y-99166269D01*
X137935627Y-99166262D01*
X137917323Y-99003810D01*
X137917322Y-99003808D01*
X137917322Y-99003805D01*
X137863325Y-98849491D01*
X137776344Y-98711062D01*
X137660740Y-98595458D01*
X137625022Y-98573015D01*
X137522310Y-98508476D01*
X137367991Y-98454478D01*
X137205540Y-98436175D01*
X137205532Y-98436175D01*
X137043080Y-98454478D01*
X136888761Y-98508476D01*
X136750331Y-98595458D01*
X136634728Y-98711061D01*
X136547746Y-98849491D01*
X136493748Y-99003810D01*
X136475445Y-99166262D01*
X119539181Y-99166262D01*
X119579439Y-99079929D01*
X119640599Y-98851674D01*
X119661195Y-98616266D01*
X119659374Y-98595458D01*
X119651764Y-98508476D01*
X119640599Y-98380858D01*
X119579439Y-98152603D01*
X119481790Y-97943196D01*
X142920836Y-97943196D01*
X142920836Y-97943203D01*
X142941031Y-98122449D01*
X142941032Y-98122454D01*
X143000612Y-98292723D01*
X143063417Y-98392676D01*
X143096585Y-98445462D01*
X143224139Y-98573016D01*
X143275366Y-98605204D01*
X143341420Y-98646709D01*
X143376879Y-98668989D01*
X143524966Y-98720807D01*
X143547146Y-98728568D01*
X143547151Y-98728569D01*
X143726397Y-98748765D01*
X143726401Y-98748765D01*
X143726405Y-98748765D01*
X143905650Y-98728569D01*
X143905653Y-98728568D01*
X143905656Y-98728568D01*
X144075923Y-98668989D01*
X144228663Y-98573016D01*
X144356217Y-98445462D01*
X144452190Y-98292722D01*
X144511769Y-98122455D01*
X144511770Y-98122449D01*
X144531966Y-97943203D01*
X144531966Y-97943196D01*
X144511770Y-97763950D01*
X144511769Y-97763945D01*
X144459468Y-97614478D01*
X144452190Y-97593678D01*
X144442192Y-97577767D01*
X144370105Y-97463041D01*
X144356217Y-97440938D01*
X144228663Y-97313384D01*
X144177449Y-97281204D01*
X144075924Y-97217411D01*
X143905655Y-97157831D01*
X143905650Y-97157830D01*
X143726405Y-97137635D01*
X143726397Y-97137635D01*
X143547151Y-97157830D01*
X143547146Y-97157831D01*
X143376877Y-97217411D01*
X143224138Y-97313384D01*
X143096585Y-97440937D01*
X143000612Y-97593676D01*
X142941032Y-97763945D01*
X142941031Y-97763950D01*
X142920836Y-97943196D01*
X119481790Y-97943196D01*
X119479571Y-97938437D01*
X119462072Y-97913445D01*
X119344030Y-97744863D01*
X119176938Y-97577772D01*
X119176931Y-97577767D01*
X118983370Y-97442233D01*
X118983366Y-97442231D01*
X118980591Y-97440937D01*
X118769199Y-97342363D01*
X118769195Y-97342362D01*
X118769191Y-97342360D01*
X118540949Y-97281204D01*
X118540939Y-97281202D01*
X118305537Y-97260607D01*
X118305535Y-97260607D01*
X118070132Y-97281202D01*
X118070122Y-97281204D01*
X117841880Y-97342360D01*
X117841871Y-97342364D01*
X117627707Y-97442230D01*
X117627705Y-97442231D01*
X117434133Y-97577771D01*
X117267041Y-97744863D01*
X117131501Y-97938435D01*
X117131500Y-97938437D01*
X117031634Y-98152601D01*
X117031630Y-98152610D01*
X116970474Y-98380852D01*
X116970472Y-98380862D01*
X116949877Y-98616265D01*
X115514319Y-98616265D01*
X115513939Y-96659996D01*
X135559910Y-96659996D01*
X135559910Y-96660003D01*
X135578213Y-96822455D01*
X135632211Y-96976774D01*
X135680541Y-97053690D01*
X135719193Y-97115204D01*
X135834797Y-97230808D01*
X135973226Y-97317789D01*
X136127540Y-97371786D01*
X136127543Y-97371786D01*
X136127545Y-97371787D01*
X136289997Y-97390091D01*
X136290001Y-97390091D01*
X136290005Y-97390091D01*
X136452456Y-97371787D01*
X136452457Y-97371786D01*
X136452462Y-97371786D01*
X136606776Y-97317789D01*
X136745205Y-97230808D01*
X136829751Y-97146262D01*
X137275445Y-97146262D01*
X137275445Y-97146269D01*
X137293748Y-97308721D01*
X137347746Y-97463040D01*
X137420730Y-97579192D01*
X137434728Y-97601470D01*
X137550332Y-97717074D01*
X137688761Y-97804055D01*
X137843075Y-97858052D01*
X137843078Y-97858052D01*
X137843080Y-97858053D01*
X138005532Y-97876357D01*
X138005536Y-97876357D01*
X138005540Y-97876357D01*
X138167991Y-97858053D01*
X138167992Y-97858052D01*
X138167997Y-97858052D01*
X138322311Y-97804055D01*
X138460740Y-97717074D01*
X138533130Y-97644682D01*
X138594452Y-97611197D01*
X138606897Y-97609147D01*
X138719600Y-97596449D01*
X138873914Y-97542452D01*
X139012343Y-97455471D01*
X139127947Y-97339867D01*
X139214928Y-97201438D01*
X139240787Y-97127533D01*
X139281508Y-97070759D01*
X139291843Y-97063504D01*
X139406105Y-96991709D01*
X139521709Y-96876105D01*
X139559352Y-96816195D01*
X139611685Y-96769906D01*
X139680739Y-96759257D01*
X139705292Y-96765125D01*
X139789675Y-96794652D01*
X139789681Y-96794652D01*
X139789682Y-96794653D01*
X139952132Y-96812957D01*
X139952136Y-96812957D01*
X139952140Y-96812957D01*
X140114591Y-96794653D01*
X140114592Y-96794652D01*
X140114597Y-96794652D01*
X140268911Y-96740655D01*
X140407340Y-96653674D01*
X140522944Y-96538070D01*
X140609925Y-96399641D01*
X140663922Y-96245327D01*
X140663923Y-96245321D01*
X140682227Y-96082869D01*
X140682227Y-96082862D01*
X140663923Y-95920410D01*
X140663922Y-95920408D01*
X140663922Y-95920405D01*
X140609925Y-95766091D01*
X140522944Y-95627662D01*
X140407340Y-95512058D01*
X140268910Y-95425076D01*
X140114591Y-95371078D01*
X139952140Y-95352775D01*
X139952132Y-95352775D01*
X139789680Y-95371078D01*
X139635361Y-95425076D01*
X139496931Y-95512058D01*
X139381328Y-95627661D01*
X139381326Y-95627664D01*
X139343684Y-95687570D01*
X139291349Y-95733861D01*
X139222295Y-95744508D01*
X139197737Y-95738639D01*
X139113356Y-95709113D01*
X138950905Y-95690810D01*
X138950897Y-95690810D01*
X138788445Y-95709113D01*
X138634126Y-95763111D01*
X138495696Y-95850093D01*
X138380093Y-95965696D01*
X138293113Y-96104123D01*
X138293112Y-96104124D01*
X138267251Y-96178030D01*
X138226529Y-96234806D01*
X138216183Y-96242067D01*
X138101935Y-96313854D01*
X138029543Y-96386246D01*
X137968219Y-96419730D01*
X137955746Y-96421784D01*
X137843080Y-96434478D01*
X137688761Y-96488476D01*
X137550331Y-96575458D01*
X137434728Y-96691061D01*
X137347746Y-96829491D01*
X137293748Y-96983810D01*
X137275445Y-97146262D01*
X136829751Y-97146262D01*
X136860809Y-97115204D01*
X136947790Y-96976775D01*
X137001787Y-96822461D01*
X137002858Y-96812957D01*
X137020092Y-96660003D01*
X137020092Y-96659996D01*
X137001788Y-96497544D01*
X137001787Y-96497542D01*
X137001787Y-96497539D01*
X136947790Y-96343225D01*
X136860809Y-96204796D01*
X136745205Y-96089192D01*
X136687536Y-96052956D01*
X136606775Y-96002210D01*
X136452456Y-95948212D01*
X136290005Y-95929909D01*
X136289997Y-95929909D01*
X136127545Y-95948212D01*
X135973226Y-96002210D01*
X135834796Y-96089192D01*
X135719193Y-96204795D01*
X135632211Y-96343225D01*
X135578213Y-96497544D01*
X135559910Y-96659996D01*
X115513939Y-96659996D01*
X115512951Y-91566265D01*
X116994342Y-91566265D01*
X116994342Y-91566266D01*
X117014937Y-91801669D01*
X117014939Y-91801679D01*
X117076095Y-92029921D01*
X117076097Y-92029925D01*
X117076098Y-92029929D01*
X117109804Y-92102211D01*
X117175966Y-92244096D01*
X117175968Y-92244100D01*
X117284282Y-92398787D01*
X117301384Y-92423212D01*
X117311502Y-92437661D01*
X117311507Y-92437668D01*
X117478598Y-92604759D01*
X117478604Y-92604764D01*
X117664159Y-92734691D01*
X117707784Y-92789268D01*
X117714978Y-92858766D01*
X117683455Y-92921121D01*
X117664159Y-92937841D01*
X117478598Y-93067771D01*
X117311506Y-93234863D01*
X117175966Y-93428435D01*
X117175965Y-93428437D01*
X117111737Y-93566175D01*
X117078023Y-93638476D01*
X117076099Y-93642601D01*
X117076095Y-93642610D01*
X117014939Y-93870852D01*
X117014937Y-93870862D01*
X116994342Y-94106265D01*
X116994342Y-94106266D01*
X117014937Y-94341669D01*
X117014939Y-94341679D01*
X117076095Y-94569921D01*
X117076097Y-94569925D01*
X117076098Y-94569929D01*
X117134515Y-94695204D01*
X117175966Y-94784096D01*
X117175968Y-94784100D01*
X117244315Y-94881709D01*
X117311506Y-94977667D01*
X117478600Y-95144761D01*
X117500948Y-95160409D01*
X117672166Y-95280298D01*
X117672168Y-95280299D01*
X117672171Y-95280301D01*
X117886338Y-95380169D01*
X117886344Y-95380170D01*
X117886345Y-95380171D01*
X117941286Y-95394892D01*
X118114593Y-95441329D01*
X118302919Y-95457805D01*
X118350000Y-95461925D01*
X118350001Y-95461925D01*
X118350002Y-95461925D01*
X118389235Y-95458492D01*
X118585409Y-95441329D01*
X118813664Y-95380169D01*
X119027831Y-95280301D01*
X119221402Y-95144761D01*
X119276167Y-95089996D01*
X142059910Y-95089996D01*
X142059910Y-95090003D01*
X142078213Y-95252455D01*
X142132211Y-95406774D01*
X142153924Y-95441329D01*
X142219193Y-95545204D01*
X142334797Y-95660808D01*
X142473226Y-95747789D01*
X142627540Y-95801786D01*
X142627543Y-95801786D01*
X142627545Y-95801787D01*
X142789997Y-95820091D01*
X142790001Y-95820091D01*
X142790005Y-95820091D01*
X142952456Y-95801787D01*
X142952457Y-95801786D01*
X142952462Y-95801786D01*
X143106776Y-95747789D01*
X143245205Y-95660808D01*
X143360809Y-95545204D01*
X143447790Y-95406775D01*
X143501787Y-95252461D01*
X143501788Y-95252455D01*
X143520092Y-95090003D01*
X143520092Y-95089997D01*
X143505943Y-94964421D01*
X143517997Y-94895599D01*
X143565347Y-94844219D01*
X143632957Y-94826595D01*
X143699363Y-94848322D01*
X143716844Y-94862856D01*
X143735697Y-94881709D01*
X143874126Y-94968690D01*
X144028440Y-95022687D01*
X144028443Y-95022687D01*
X144028445Y-95022688D01*
X144190897Y-95040992D01*
X144190901Y-95040992D01*
X144190905Y-95040992D01*
X144353356Y-95022688D01*
X144353357Y-95022687D01*
X144353362Y-95022687D01*
X144507676Y-94968690D01*
X144646105Y-94881709D01*
X144761709Y-94766105D01*
X144817733Y-94676942D01*
X144870067Y-94630653D01*
X144939120Y-94620004D01*
X145002968Y-94648380D01*
X145027720Y-94676945D01*
X145039190Y-94695201D01*
X145039193Y-94695204D01*
X145154797Y-94810808D01*
X145293226Y-94897789D01*
X145447540Y-94951786D01*
X145447543Y-94951786D01*
X145447545Y-94951787D01*
X145609997Y-94970091D01*
X145610001Y-94970091D01*
X145610005Y-94970091D01*
X145772458Y-94951787D01*
X145772460Y-94951786D01*
X145772462Y-94951786D01*
X145852708Y-94923705D01*
X145922486Y-94920143D01*
X145959631Y-94935751D01*
X145988761Y-94954055D01*
X146137468Y-95006090D01*
X146143078Y-95008053D01*
X146305532Y-95026357D01*
X146305536Y-95026357D01*
X146305540Y-95026357D01*
X146467991Y-95008053D01*
X146467992Y-95008052D01*
X146467997Y-95008052D01*
X146622311Y-94954055D01*
X146760740Y-94867074D01*
X146847819Y-94779994D01*
X146909138Y-94746512D01*
X146978830Y-94751496D01*
X147034764Y-94793367D01*
X147040490Y-94801705D01*
X147059191Y-94831468D01*
X147059193Y-94831470D01*
X147174797Y-94947074D01*
X147313226Y-95034055D01*
X147313227Y-95034055D01*
X147313908Y-95034483D01*
X147360199Y-95086818D01*
X147370467Y-95153409D01*
X147371128Y-95153484D01*
X147352044Y-95322861D01*
X147352044Y-95322868D01*
X147370347Y-95485320D01*
X147424345Y-95639639D01*
X147467301Y-95708003D01*
X147511327Y-95778069D01*
X147626931Y-95893673D01*
X147765360Y-95980654D01*
X147919674Y-96034651D01*
X147919677Y-96034651D01*
X147919679Y-96034652D01*
X148082131Y-96052956D01*
X148082135Y-96052956D01*
X148082139Y-96052956D01*
X148244590Y-96034652D01*
X148244591Y-96034651D01*
X148244596Y-96034651D01*
X148398910Y-95980654D01*
X148537339Y-95893673D01*
X148652943Y-95778069D01*
X148696973Y-95707996D01*
X153244436Y-95707996D01*
X153244436Y-95708003D01*
X153264631Y-95887249D01*
X153264632Y-95887254D01*
X153324212Y-96057523D01*
X153353493Y-96104123D01*
X153420185Y-96210262D01*
X153547739Y-96337816D01*
X153624815Y-96386246D01*
X153673641Y-96416926D01*
X153700479Y-96433789D01*
X153856768Y-96488477D01*
X153870746Y-96493368D01*
X153870751Y-96493369D01*
X154049997Y-96513565D01*
X154050001Y-96513565D01*
X154050005Y-96513565D01*
X154229250Y-96493369D01*
X154229253Y-96493368D01*
X154229256Y-96493368D01*
X154399523Y-96433789D01*
X154459828Y-96395897D01*
X156915810Y-96395897D01*
X156915810Y-96395904D01*
X156934113Y-96558356D01*
X156988111Y-96712675D01*
X157005692Y-96740655D01*
X157075093Y-96851105D01*
X157190697Y-96966709D01*
X157329126Y-97053690D01*
X157483440Y-97107687D01*
X157483443Y-97107687D01*
X157483445Y-97107688D01*
X157645897Y-97125992D01*
X157645901Y-97125992D01*
X157645905Y-97125992D01*
X157808356Y-97107688D01*
X157808357Y-97107687D01*
X157808362Y-97107687D01*
X157962676Y-97053690D01*
X158101105Y-96966709D01*
X158216709Y-96851105D01*
X158303690Y-96712676D01*
X158357687Y-96558362D01*
X158358002Y-96555570D01*
X158375992Y-96395904D01*
X158375992Y-96395897D01*
X158357688Y-96233445D01*
X158357687Y-96233443D01*
X158357687Y-96233440D01*
X158311121Y-96100362D01*
X170029545Y-96100362D01*
X170029545Y-96100369D01*
X170047848Y-96262821D01*
X170101846Y-96417140D01*
X170152368Y-96497544D01*
X170188828Y-96555570D01*
X170304432Y-96671174D01*
X170442861Y-96758155D01*
X170597175Y-96812152D01*
X170597178Y-96812152D01*
X170597180Y-96812153D01*
X170759632Y-96830457D01*
X170759636Y-96830457D01*
X170759640Y-96830457D01*
X170922091Y-96812153D01*
X170922092Y-96812152D01*
X170922097Y-96812152D01*
X171076411Y-96758155D01*
X171214840Y-96671174D01*
X171330444Y-96555570D01*
X171417425Y-96417141D01*
X171471422Y-96262827D01*
X171473394Y-96245327D01*
X171489727Y-96100369D01*
X171489727Y-96100362D01*
X171471423Y-95937910D01*
X171471422Y-95937908D01*
X171471422Y-95937905D01*
X171417425Y-95783591D01*
X171330444Y-95645162D01*
X171214840Y-95529558D01*
X171186989Y-95512058D01*
X171076410Y-95442576D01*
X170922091Y-95388578D01*
X170759640Y-95370275D01*
X170759632Y-95370275D01*
X170597180Y-95388578D01*
X170442861Y-95442576D01*
X170304431Y-95529558D01*
X170188828Y-95645161D01*
X170101846Y-95783591D01*
X170047848Y-95937910D01*
X170029545Y-96100362D01*
X158311121Y-96100362D01*
X158303690Y-96079126D01*
X158216709Y-95940697D01*
X158101105Y-95825093D01*
X158025180Y-95777386D01*
X157962675Y-95738111D01*
X157808356Y-95684113D01*
X157645905Y-95665810D01*
X157645897Y-95665810D01*
X157483445Y-95684113D01*
X157329126Y-95738111D01*
X157190696Y-95825093D01*
X157075093Y-95940696D01*
X156988111Y-96079126D01*
X156934113Y-96233445D01*
X156915810Y-96395897D01*
X154459828Y-96395897D01*
X154552263Y-96337816D01*
X154679817Y-96210262D01*
X154775790Y-96057522D01*
X154835369Y-95887255D01*
X154842373Y-95825093D01*
X154855566Y-95708003D01*
X154855566Y-95707996D01*
X154835370Y-95528750D01*
X154835369Y-95528745D01*
X154811988Y-95461925D01*
X154775790Y-95358478D01*
X154679817Y-95205738D01*
X154552263Y-95078184D01*
X154532307Y-95065645D01*
X154399524Y-94982211D01*
X154229255Y-94922631D01*
X154229250Y-94922630D01*
X154050005Y-94902435D01*
X154049997Y-94902435D01*
X153870751Y-94922630D01*
X153870746Y-94922631D01*
X153700477Y-94982211D01*
X153547738Y-95078184D01*
X153420185Y-95205737D01*
X153324212Y-95358476D01*
X153264632Y-95528745D01*
X153264631Y-95528750D01*
X153244436Y-95707996D01*
X148696973Y-95707996D01*
X148739924Y-95639640D01*
X148793921Y-95485326D01*
X148798738Y-95442576D01*
X148812226Y-95322868D01*
X148812226Y-95322861D01*
X148793922Y-95160409D01*
X148793921Y-95160407D01*
X148793921Y-95160404D01*
X148739924Y-95006090D01*
X148652943Y-94867661D01*
X148537339Y-94752057D01*
X148537337Y-94752055D01*
X148398227Y-94664646D01*
X148351937Y-94612312D01*
X148341669Y-94545722D01*
X148341008Y-94545648D01*
X148360092Y-94376269D01*
X148360092Y-94376262D01*
X148341788Y-94213810D01*
X148341787Y-94213808D01*
X148341787Y-94213805D01*
X148287790Y-94059491D01*
X148200809Y-93921062D01*
X148085205Y-93805458D01*
X147981178Y-93740093D01*
X147946775Y-93718476D01*
X147792456Y-93664478D01*
X147630005Y-93646175D01*
X147629997Y-93646175D01*
X147467545Y-93664478D01*
X147313226Y-93718476D01*
X147174798Y-93805457D01*
X147087720Y-93892535D01*
X147026396Y-93926019D01*
X146956705Y-93921035D01*
X146900771Y-93879163D01*
X146895045Y-93870825D01*
X146885539Y-93855697D01*
X146876344Y-93841062D01*
X146760740Y-93725458D01*
X146729466Y-93705807D01*
X146622310Y-93638476D01*
X146467991Y-93584478D01*
X146305540Y-93566175D01*
X146305532Y-93566175D01*
X146143076Y-93584479D01*
X146143075Y-93584479D01*
X146062826Y-93612559D01*
X145993048Y-93616120D01*
X145955901Y-93600511D01*
X145926778Y-93582212D01*
X145926775Y-93582210D01*
X145772458Y-93528212D01*
X145610005Y-93509909D01*
X145609997Y-93509909D01*
X145447545Y-93528212D01*
X145293226Y-93582210D01*
X145154796Y-93669192D01*
X145039193Y-93784795D01*
X145039191Y-93784798D01*
X144983168Y-93873957D01*
X144930833Y-93920248D01*
X144861780Y-93930895D01*
X144797931Y-93902520D01*
X144773182Y-93873956D01*
X144761709Y-93855697D01*
X144646105Y-93740093D01*
X144622814Y-93725458D01*
X144507675Y-93653111D01*
X144373840Y-93606280D01*
X144353362Y-93599115D01*
X144353361Y-93599114D01*
X144353356Y-93599113D01*
X144190905Y-93580810D01*
X144190897Y-93580810D01*
X144028445Y-93599113D01*
X143874126Y-93653111D01*
X143735696Y-93740093D01*
X143620093Y-93855696D01*
X143533111Y-93994126D01*
X143479113Y-94148445D01*
X143460810Y-94310897D01*
X143460810Y-94310905D01*
X143474958Y-94436480D01*
X143462903Y-94505302D01*
X143415554Y-94556681D01*
X143347943Y-94574305D01*
X143281538Y-94552578D01*
X143264057Y-94538044D01*
X143245205Y-94519192D01*
X143106775Y-94432210D01*
X142952456Y-94378212D01*
X142790005Y-94359909D01*
X142789997Y-94359909D01*
X142627545Y-94378212D01*
X142473226Y-94432210D01*
X142334796Y-94519192D01*
X142219193Y-94634795D01*
X142132211Y-94773225D01*
X142078213Y-94927544D01*
X142059910Y-95089996D01*
X119276167Y-95089996D01*
X119388496Y-94977667D01*
X119524036Y-94784096D01*
X119623904Y-94569929D01*
X119685064Y-94341674D01*
X119705660Y-94106266D01*
X119703799Y-94084996D01*
X139525445Y-94084996D01*
X139525445Y-94085003D01*
X139543748Y-94247455D01*
X139597746Y-94401774D01*
X139671525Y-94519192D01*
X139684728Y-94540204D01*
X139800332Y-94655808D01*
X139938761Y-94742789D01*
X140093075Y-94796786D01*
X140093078Y-94796786D01*
X140093080Y-94796787D01*
X140255532Y-94815091D01*
X140255536Y-94815091D01*
X140255540Y-94815091D01*
X140417991Y-94796787D01*
X140417992Y-94796786D01*
X140417997Y-94796786D01*
X140572311Y-94742789D01*
X140710740Y-94655808D01*
X140826344Y-94540204D01*
X140913325Y-94401775D01*
X140939649Y-94326544D01*
X140980369Y-94269769D01*
X140990706Y-94262513D01*
X141120740Y-94180808D01*
X141236344Y-94065204D01*
X141323325Y-93926775D01*
X141324806Y-93922544D01*
X141342893Y-93870852D01*
X141363742Y-93811270D01*
X141404461Y-93754496D01*
X141414788Y-93747247D01*
X141480740Y-93705808D01*
X141596344Y-93590204D01*
X141683325Y-93451775D01*
X141737322Y-93297461D01*
X141737323Y-93297455D01*
X141755627Y-93135003D01*
X141755627Y-93134996D01*
X141737323Y-92972544D01*
X141737322Y-92972542D01*
X141737322Y-92972539D01*
X141683325Y-92818225D01*
X141646737Y-92759996D01*
X148635445Y-92759996D01*
X148635445Y-92760003D01*
X148653748Y-92922455D01*
X148707746Y-93076774D01*
X148707747Y-93076775D01*
X148794728Y-93215204D01*
X148910332Y-93330808D01*
X149048761Y-93417789D01*
X149203075Y-93471786D01*
X149203078Y-93471786D01*
X149203080Y-93471787D01*
X149365532Y-93490091D01*
X149365536Y-93490091D01*
X149365540Y-93490091D01*
X149527991Y-93471787D01*
X149527992Y-93471786D01*
X149527997Y-93471786D01*
X149682311Y-93417789D01*
X149820740Y-93330808D01*
X149936344Y-93215204D01*
X150023325Y-93076775D01*
X150077322Y-92922461D01*
X150077473Y-92921121D01*
X150095627Y-92760003D01*
X150095627Y-92759996D01*
X150077323Y-92597544D01*
X150077322Y-92597542D01*
X150077322Y-92597539D01*
X150023325Y-92443225D01*
X149936344Y-92304796D01*
X149820740Y-92189192D01*
X149682310Y-92102210D01*
X149527991Y-92048212D01*
X149365540Y-92029909D01*
X149365532Y-92029909D01*
X149203080Y-92048212D01*
X149048761Y-92102210D01*
X148910331Y-92189192D01*
X148794728Y-92304795D01*
X148707746Y-92443225D01*
X148653748Y-92597544D01*
X148635445Y-92759996D01*
X141646737Y-92759996D01*
X141596344Y-92679796D01*
X141480740Y-92564192D01*
X141342310Y-92477210D01*
X141187991Y-92423212D01*
X141025540Y-92404909D01*
X141025532Y-92404909D01*
X140863080Y-92423212D01*
X140708761Y-92477210D01*
X140570331Y-92564192D01*
X140454728Y-92679795D01*
X140367745Y-92818227D01*
X140327330Y-92933726D01*
X140286609Y-92990502D01*
X140276262Y-92997764D01*
X140210335Y-93039189D01*
X140210333Y-93039190D01*
X140094728Y-93154795D01*
X140007748Y-93293222D01*
X139981421Y-93368457D01*
X139940698Y-93425232D01*
X139930353Y-93432493D01*
X139800333Y-93514190D01*
X139684728Y-93629795D01*
X139597746Y-93768225D01*
X139543748Y-93922544D01*
X139525445Y-94084996D01*
X119703799Y-94084996D01*
X119685064Y-93870858D01*
X119623904Y-93642603D01*
X119524036Y-93428437D01*
X119516581Y-93417789D01*
X119388495Y-93234863D01*
X119221403Y-93067772D01*
X119221397Y-93067767D01*
X119035843Y-92937841D01*
X118992218Y-92883264D01*
X118985024Y-92813766D01*
X119016547Y-92751411D01*
X119035843Y-92734691D01*
X119114242Y-92679795D01*
X119221402Y-92604761D01*
X119388496Y-92437667D01*
X119524036Y-92244096D01*
X119623904Y-92029929D01*
X119685064Y-91801674D01*
X119705660Y-91566266D01*
X119685064Y-91330858D01*
X119648419Y-91194096D01*
X145797611Y-91194096D01*
X145797611Y-91194103D01*
X145815914Y-91356555D01*
X145869912Y-91510874D01*
X145916617Y-91585204D01*
X145956894Y-91649304D01*
X146072498Y-91764908D01*
X146210927Y-91851889D01*
X146365241Y-91905886D01*
X146365244Y-91905886D01*
X146365246Y-91905887D01*
X146527698Y-91924191D01*
X146527702Y-91924191D01*
X146527706Y-91924191D01*
X146690157Y-91905887D01*
X146690158Y-91905886D01*
X146690163Y-91905886D01*
X146844477Y-91851889D01*
X146982906Y-91764908D01*
X147098510Y-91649304D01*
X147185491Y-91510875D01*
X147239488Y-91356561D01*
X147242385Y-91330852D01*
X147257793Y-91194103D01*
X147257793Y-91194096D01*
X147250571Y-91129996D01*
X153194910Y-91129996D01*
X153194910Y-91130003D01*
X153213213Y-91292455D01*
X153267211Y-91446774D01*
X153267212Y-91446775D01*
X153354193Y-91585204D01*
X153469797Y-91700808D01*
X153608226Y-91787789D01*
X153762540Y-91841786D01*
X153762543Y-91841786D01*
X153762545Y-91841787D01*
X153924997Y-91860091D01*
X153925001Y-91860091D01*
X153925005Y-91860091D01*
X154087456Y-91841787D01*
X154087457Y-91841786D01*
X154087462Y-91841786D01*
X154241776Y-91787789D01*
X154380205Y-91700808D01*
X154495809Y-91585204D01*
X154582790Y-91446775D01*
X154636787Y-91292461D01*
X154636788Y-91292455D01*
X154655092Y-91130003D01*
X154655092Y-91129996D01*
X154636788Y-90967544D01*
X154636787Y-90967542D01*
X154636787Y-90967539D01*
X154598706Y-90858710D01*
X154595145Y-90788931D01*
X154629874Y-90728304D01*
X154649776Y-90712762D01*
X154780205Y-90630808D01*
X154895809Y-90515204D01*
X154982790Y-90376775D01*
X155036787Y-90222461D01*
X155036788Y-90222455D01*
X155055092Y-90060003D01*
X155055092Y-90059996D01*
X155036788Y-89897544D01*
X155036787Y-89897542D01*
X155036787Y-89897539D01*
X154982790Y-89743225D01*
X154895809Y-89604796D01*
X154780205Y-89489192D01*
X154641775Y-89402210D01*
X154487456Y-89348212D01*
X154325005Y-89329909D01*
X154324997Y-89329909D01*
X154162545Y-89348212D01*
X154008226Y-89402210D01*
X153869796Y-89489192D01*
X153754193Y-89604795D01*
X153667211Y-89743225D01*
X153613213Y-89897544D01*
X153594910Y-90059996D01*
X153594910Y-90060003D01*
X153613213Y-90222455D01*
X153651296Y-90331290D01*
X153654857Y-90401069D01*
X153620128Y-90461696D01*
X153600227Y-90477236D01*
X153563120Y-90500552D01*
X153469796Y-90559192D01*
X153354193Y-90674795D01*
X153267211Y-90813225D01*
X153213213Y-90967544D01*
X153194910Y-91129996D01*
X147250571Y-91129996D01*
X147239489Y-91031644D01*
X147239488Y-91031642D01*
X147239488Y-91031639D01*
X147185491Y-90877325D01*
X147098510Y-90738896D01*
X146982906Y-90623292D01*
X146857803Y-90544684D01*
X146844476Y-90536310D01*
X146690157Y-90482312D01*
X146527706Y-90464009D01*
X146527698Y-90464009D01*
X146365246Y-90482312D01*
X146210927Y-90536310D01*
X146072497Y-90623292D01*
X145956894Y-90738895D01*
X145869912Y-90877325D01*
X145815914Y-91031644D01*
X145797611Y-91194096D01*
X119648419Y-91194096D01*
X119623904Y-91102603D01*
X119524036Y-90888437D01*
X119516255Y-90877325D01*
X119388497Y-90694866D01*
X119368426Y-90674795D01*
X119266568Y-90572937D01*
X119233085Y-90511617D01*
X119238069Y-90441925D01*
X119279940Y-90385991D01*
X119310916Y-90369076D01*
X119442332Y-90320062D01*
X119557547Y-90233812D01*
X119643797Y-90118597D01*
X119694092Y-89983749D01*
X119700501Y-89924139D01*
X119700500Y-88537496D01*
X130019910Y-88537496D01*
X130019910Y-88537503D01*
X130038213Y-88699955D01*
X130092211Y-88854274D01*
X130172908Y-88982701D01*
X130179193Y-88992704D01*
X130294797Y-89108308D01*
X130433226Y-89195289D01*
X130587540Y-89249286D01*
X130587543Y-89249286D01*
X130587545Y-89249287D01*
X130749997Y-89267591D01*
X130750001Y-89267591D01*
X130750005Y-89267591D01*
X130912456Y-89249287D01*
X130912457Y-89249286D01*
X130912462Y-89249286D01*
X131066776Y-89195289D01*
X131205205Y-89108308D01*
X131320809Y-88992704D01*
X131378149Y-88901447D01*
X131430482Y-88855157D01*
X131499536Y-88844508D01*
X131563384Y-88872883D01*
X131588135Y-88901447D01*
X131639191Y-88982702D01*
X131639193Y-88982704D01*
X131754797Y-89098308D01*
X131893226Y-89185289D01*
X132047540Y-89239286D01*
X132047543Y-89239286D01*
X132047545Y-89239287D01*
X132209997Y-89257591D01*
X132210001Y-89257591D01*
X132210005Y-89257591D01*
X132372456Y-89239287D01*
X132372457Y-89239286D01*
X132372462Y-89239286D01*
X132526776Y-89185289D01*
X132665205Y-89098308D01*
X132780809Y-88982704D01*
X132825582Y-88911447D01*
X132877915Y-88865157D01*
X132946968Y-88854508D01*
X133010817Y-88882883D01*
X133035568Y-88911447D01*
X133099191Y-89012702D01*
X133099193Y-89012704D01*
X133214797Y-89128308D01*
X133353226Y-89215289D01*
X133507540Y-89269286D01*
X133507543Y-89269286D01*
X133507545Y-89269287D01*
X133669997Y-89287591D01*
X133670001Y-89287591D01*
X133670005Y-89287591D01*
X133832456Y-89269287D01*
X133832457Y-89269286D01*
X133832462Y-89269286D01*
X133986776Y-89215289D01*
X134125205Y-89128308D01*
X134240809Y-89012704D01*
X134284111Y-88943788D01*
X134336446Y-88897498D01*
X134405499Y-88886850D01*
X134469348Y-88915225D01*
X134494098Y-88943788D01*
X134549191Y-89031468D01*
X134549193Y-89031470D01*
X134664797Y-89147074D01*
X134803226Y-89234055D01*
X134957540Y-89288052D01*
X134957543Y-89288052D01*
X134957545Y-89288053D01*
X135119997Y-89306357D01*
X135120001Y-89306357D01*
X135120005Y-89306357D01*
X135282456Y-89288053D01*
X135282457Y-89288052D01*
X135282462Y-89288052D01*
X135436776Y-89234055D01*
X135575205Y-89147074D01*
X135690809Y-89031470D01*
X135777790Y-88893041D01*
X135777790Y-88893038D01*
X135778282Y-88892257D01*
X135830617Y-88845966D01*
X135899670Y-88835318D01*
X135963519Y-88863693D01*
X135988269Y-88892256D01*
X136000328Y-88911447D01*
X136019193Y-88941470D01*
X136134797Y-89057074D01*
X136273226Y-89144055D01*
X136427540Y-89198052D01*
X136427543Y-89198052D01*
X136427545Y-89198053D01*
X136589997Y-89216357D01*
X136590001Y-89216357D01*
X136590005Y-89216357D01*
X136752456Y-89198053D01*
X136752457Y-89198052D01*
X136752462Y-89198052D01*
X136906776Y-89144055D01*
X137045205Y-89057074D01*
X137160809Y-88941470D01*
X137247790Y-88803041D01*
X137301787Y-88648727D01*
X137305918Y-88612066D01*
X137320092Y-88486269D01*
X137320092Y-88486262D01*
X137301788Y-88323810D01*
X137301787Y-88323808D01*
X137301787Y-88323805D01*
X137247790Y-88169491D01*
X137160809Y-88031062D01*
X137045205Y-87915458D01*
X136988313Y-87879710D01*
X136906775Y-87828476D01*
X136752456Y-87774478D01*
X136590005Y-87756175D01*
X136589997Y-87756175D01*
X136427545Y-87774478D01*
X136273226Y-87828476D01*
X136134796Y-87915458D01*
X136019191Y-88031063D01*
X135931718Y-88170275D01*
X135879383Y-88216566D01*
X135810330Y-88227213D01*
X135746482Y-88198838D01*
X135721731Y-88170274D01*
X135695420Y-88128401D01*
X135690809Y-88121062D01*
X135575205Y-88005458D01*
X135545339Y-87986692D01*
X135436775Y-87918476D01*
X135282456Y-87864478D01*
X135120005Y-87846175D01*
X135119997Y-87846175D01*
X134957545Y-87864478D01*
X134803226Y-87918476D01*
X134664796Y-88005458D01*
X134549194Y-88121060D01*
X134505889Y-88189978D01*
X134453553Y-88236268D01*
X134384500Y-88246915D01*
X134320652Y-88218539D01*
X134295902Y-88189976D01*
X134285582Y-88173552D01*
X134240809Y-88102296D01*
X134125205Y-87986692D01*
X134093375Y-87966692D01*
X133986775Y-87899710D01*
X133832456Y-87845712D01*
X133670005Y-87827409D01*
X133669997Y-87827409D01*
X133507545Y-87845712D01*
X133353226Y-87899710D01*
X133214796Y-87986692D01*
X133099191Y-88102297D01*
X133054419Y-88173552D01*
X133002084Y-88219842D01*
X132933031Y-88230490D01*
X132869183Y-88202115D01*
X132844432Y-88173551D01*
X132811450Y-88121061D01*
X132780809Y-88072296D01*
X132665205Y-87956692D01*
X132628980Y-87933930D01*
X132526775Y-87869710D01*
X132381055Y-87818721D01*
X132372462Y-87815714D01*
X132372461Y-87815713D01*
X132372456Y-87815712D01*
X132210005Y-87797409D01*
X132209997Y-87797409D01*
X132047545Y-87815712D01*
X131893226Y-87869710D01*
X131754796Y-87956692D01*
X131639191Y-88072297D01*
X131581852Y-88163552D01*
X131529517Y-88209842D01*
X131460464Y-88220490D01*
X131396616Y-88192115D01*
X131371865Y-88163551D01*
X131345166Y-88121060D01*
X131320809Y-88082296D01*
X131205205Y-87966692D01*
X131098606Y-87899711D01*
X131066775Y-87879710D01*
X130912456Y-87825712D01*
X130750005Y-87807409D01*
X130749997Y-87807409D01*
X130587545Y-87825712D01*
X130433226Y-87879710D01*
X130294796Y-87966692D01*
X130179193Y-88082295D01*
X130092211Y-88220725D01*
X130038213Y-88375044D01*
X130019910Y-88537496D01*
X119700500Y-88537496D01*
X119700500Y-88128394D01*
X119694092Y-88068783D01*
X119680023Y-88031063D01*
X119643798Y-87933937D01*
X119643794Y-87933930D01*
X119557548Y-87818721D01*
X119557545Y-87818718D01*
X119442336Y-87732472D01*
X119442329Y-87732468D01*
X119307483Y-87682174D01*
X119307484Y-87682174D01*
X119247884Y-87675767D01*
X119247882Y-87675766D01*
X119247874Y-87675766D01*
X119247865Y-87675766D01*
X117452130Y-87675766D01*
X117452124Y-87675767D01*
X117392517Y-87682174D01*
X117257672Y-87732468D01*
X117257665Y-87732472D01*
X117142456Y-87818718D01*
X117142453Y-87818721D01*
X117056207Y-87933930D01*
X117056203Y-87933937D01*
X117005909Y-88068783D01*
X117000289Y-88121060D01*
X116999502Y-88128389D01*
X116999501Y-88128401D01*
X116999501Y-89924136D01*
X116999502Y-89924142D01*
X117005909Y-89983749D01*
X117056203Y-90118594D01*
X117056207Y-90118601D01*
X117142453Y-90233810D01*
X117142456Y-90233813D01*
X117257665Y-90320059D01*
X117257672Y-90320063D01*
X117389082Y-90369076D01*
X117445016Y-90410947D01*
X117469433Y-90476411D01*
X117454581Y-90544684D01*
X117433431Y-90572939D01*
X117311504Y-90694866D01*
X117175966Y-90888435D01*
X117175965Y-90888437D01*
X117076099Y-91102601D01*
X117076095Y-91102610D01*
X117014939Y-91330852D01*
X117014937Y-91330862D01*
X116994342Y-91566265D01*
X115512951Y-91566265D01*
X115511927Y-86289996D01*
X126004436Y-86289996D01*
X126004436Y-86290003D01*
X126024631Y-86469249D01*
X126024632Y-86469254D01*
X126084212Y-86639523D01*
X126115927Y-86689996D01*
X126180185Y-86792262D01*
X126307739Y-86919816D01*
X126398081Y-86976582D01*
X126446131Y-87006774D01*
X126460479Y-87015789D01*
X126630746Y-87075368D01*
X126630751Y-87075369D01*
X126809997Y-87095565D01*
X126810001Y-87095565D01*
X126810005Y-87095565D01*
X126989250Y-87075369D01*
X126989253Y-87075368D01*
X126989256Y-87075368D01*
X127159523Y-87015789D01*
X127312263Y-86919816D01*
X127439817Y-86792262D01*
X127535790Y-86639522D01*
X127595369Y-86469255D01*
X127615566Y-86290000D01*
X127610219Y-86242547D01*
X127595370Y-86110750D01*
X127595369Y-86110745D01*
X127535790Y-85940478D01*
X127531013Y-85932876D01*
X127496583Y-85878080D01*
X127439817Y-85787738D01*
X127312263Y-85660184D01*
X127259569Y-85627074D01*
X127159524Y-85564211D01*
X126989255Y-85504631D01*
X126989250Y-85504630D01*
X126810005Y-85484435D01*
X126809997Y-85484435D01*
X126630751Y-85504630D01*
X126630746Y-85504631D01*
X126460477Y-85564211D01*
X126307738Y-85660184D01*
X126180185Y-85787737D01*
X126084212Y-85940476D01*
X126024632Y-86110745D01*
X126024631Y-86110750D01*
X126004436Y-86289996D01*
X115511927Y-86289996D01*
X115511080Y-81929996D01*
X116804436Y-81929996D01*
X116804436Y-81930003D01*
X116824631Y-82109249D01*
X116824632Y-82109254D01*
X116884212Y-82279523D01*
X116939690Y-82367815D01*
X116980185Y-82432262D01*
X117107739Y-82559816D01*
X117260479Y-82655789D01*
X117430746Y-82715368D01*
X117430751Y-82715369D01*
X117609997Y-82735565D01*
X117610001Y-82735565D01*
X117610005Y-82735565D01*
X117789250Y-82715369D01*
X117789253Y-82715368D01*
X117789256Y-82715368D01*
X117818895Y-82704997D01*
X122147005Y-82704997D01*
X122147005Y-82705004D01*
X122165308Y-82867456D01*
X122219306Y-83021775D01*
X122269611Y-83101834D01*
X122306288Y-83160205D01*
X122421892Y-83275809D01*
X122560321Y-83362790D01*
X122714635Y-83416787D01*
X122714639Y-83416787D01*
X122714641Y-83416788D01*
X122778107Y-83423938D01*
X122826039Y-83429339D01*
X122890454Y-83456405D01*
X122930009Y-83513999D01*
X122932148Y-83583836D01*
X122917151Y-83618530D01*
X122866847Y-83698588D01*
X122812848Y-83852910D01*
X122794545Y-84015362D01*
X122794545Y-84015369D01*
X122812848Y-84177821D01*
X122812849Y-84177826D01*
X122812850Y-84177827D01*
X122819228Y-84196055D01*
X122866846Y-84332140D01*
X122953828Y-84470570D01*
X123021372Y-84538114D01*
X123054857Y-84599437D01*
X123056911Y-84611911D01*
X123066162Y-84694018D01*
X123120160Y-84848337D01*
X123207142Y-84986767D01*
X123323500Y-85103125D01*
X123356985Y-85164448D01*
X123359039Y-85176922D01*
X123363748Y-85218721D01*
X123417746Y-85373040D01*
X123442996Y-85413225D01*
X123504728Y-85511470D01*
X123620332Y-85627074D01*
X123758761Y-85714055D01*
X123913075Y-85768052D01*
X123913078Y-85768052D01*
X123913080Y-85768053D01*
X124075532Y-85786357D01*
X124075534Y-85786357D01*
X124075534Y-85786356D01*
X124075536Y-85786357D01*
X124105564Y-85782973D01*
X124174383Y-85795026D01*
X124185421Y-85801200D01*
X124323227Y-85887790D01*
X124477532Y-85941784D01*
X124477538Y-85941785D01*
X124477540Y-85941786D01*
X124477541Y-85941786D01*
X124477545Y-85941787D01*
X124563375Y-85951457D01*
X124627789Y-85978523D01*
X124637174Y-85986996D01*
X124702079Y-86051901D01*
X124840508Y-86138882D01*
X124994822Y-86192879D01*
X124994825Y-86192879D01*
X124994827Y-86192880D01*
X125157279Y-86211184D01*
X125157283Y-86211184D01*
X125157287Y-86211184D01*
X125319738Y-86192880D01*
X125319739Y-86192879D01*
X125319744Y-86192879D01*
X125474058Y-86138882D01*
X125612487Y-86051901D01*
X125728091Y-85936297D01*
X125815072Y-85797868D01*
X125869069Y-85643554D01*
X125870926Y-85627073D01*
X125887374Y-85481096D01*
X125887374Y-85481089D01*
X125869070Y-85318637D01*
X125869069Y-85318635D01*
X125869069Y-85318632D01*
X125815072Y-85164318D01*
X125728091Y-85025889D01*
X125612487Y-84910285D01*
X125566711Y-84881522D01*
X125474057Y-84823303D01*
X125352866Y-84780897D01*
X131980810Y-84780897D01*
X131980810Y-84780904D01*
X131999113Y-84943356D01*
X132053112Y-85097677D01*
X132128112Y-85217037D01*
X132147113Y-85284274D01*
X132128113Y-85348982D01*
X132087746Y-85413224D01*
X132033748Y-85567544D01*
X132015445Y-85729996D01*
X132015445Y-85730003D01*
X132033748Y-85892455D01*
X132087746Y-86046774D01*
X132163855Y-86167900D01*
X132182855Y-86235136D01*
X132163855Y-86299844D01*
X132117746Y-86373225D01*
X132063748Y-86527544D01*
X132045445Y-86689996D01*
X132045445Y-86690003D01*
X132063748Y-86852455D01*
X132117746Y-87006774D01*
X132173538Y-87095565D01*
X132204728Y-87145204D01*
X132320332Y-87260808D01*
X132458761Y-87347789D01*
X132613075Y-87401786D01*
X132613078Y-87401786D01*
X132613080Y-87401787D01*
X132775532Y-87420091D01*
X132775536Y-87420091D01*
X132775540Y-87420091D01*
X132937991Y-87401787D01*
X132937992Y-87401786D01*
X132937997Y-87401786D01*
X133092311Y-87347789D01*
X133230740Y-87260808D01*
X133346344Y-87145204D01*
X133433325Y-87006775D01*
X133487322Y-86852461D01*
X133505627Y-86690000D01*
X133499939Y-86639522D01*
X133487323Y-86527544D01*
X133487322Y-86527542D01*
X133487322Y-86527539D01*
X133433325Y-86373225D01*
X133357215Y-86252098D01*
X133338216Y-86184863D01*
X133357216Y-86120156D01*
X133403325Y-86046775D01*
X133457322Y-85892461D01*
X133457323Y-85892455D01*
X133475627Y-85730003D01*
X133475627Y-85729996D01*
X133457323Y-85567544D01*
X133457322Y-85567542D01*
X133457322Y-85567539D01*
X133403325Y-85413225D01*
X133328323Y-85293861D01*
X133309323Y-85226626D01*
X133328323Y-85161918D01*
X133368690Y-85097676D01*
X133422687Y-84943362D01*
X133433394Y-84848337D01*
X133440992Y-84780904D01*
X133440992Y-84780897D01*
X133422688Y-84618445D01*
X133422687Y-84618443D01*
X133422687Y-84618440D01*
X133392439Y-84531996D01*
X140787236Y-84531996D01*
X140787236Y-84532003D01*
X140807431Y-84711249D01*
X140807432Y-84711254D01*
X140867012Y-84881523D01*
X140933142Y-84986767D01*
X140962985Y-85034262D01*
X141090539Y-85161816D01*
X141090700Y-85161917D01*
X141211996Y-85238133D01*
X141243279Y-85257789D01*
X141318969Y-85284274D01*
X141413546Y-85317368D01*
X141413551Y-85317369D01*
X141592797Y-85337565D01*
X141592801Y-85337565D01*
X141592805Y-85337565D01*
X141772050Y-85317369D01*
X141772053Y-85317368D01*
X141772056Y-85317368D01*
X141942323Y-85257789D01*
X142095063Y-85161816D01*
X142222617Y-85034262D01*
X142318590Y-84881522D01*
X142378169Y-84711255D01*
X142378170Y-84711249D01*
X142398366Y-84532003D01*
X142398366Y-84531996D01*
X142378170Y-84352750D01*
X142378169Y-84352745D01*
X142318589Y-84182476D01*
X142271587Y-84107674D01*
X142222617Y-84029738D01*
X142095063Y-83902184D01*
X142016644Y-83852910D01*
X141942324Y-83806211D01*
X141772055Y-83746631D01*
X141772050Y-83746630D01*
X141592805Y-83726435D01*
X141592797Y-83726435D01*
X141413551Y-83746630D01*
X141413546Y-83746631D01*
X141243277Y-83806211D01*
X141090538Y-83902184D01*
X140962985Y-84029737D01*
X140867012Y-84182476D01*
X140807432Y-84352745D01*
X140807431Y-84352750D01*
X140787236Y-84531996D01*
X133392439Y-84531996D01*
X133368690Y-84464126D01*
X133354594Y-84441693D01*
X133313157Y-84375746D01*
X133294156Y-84308509D01*
X133313156Y-84243802D01*
X133398691Y-84107675D01*
X133452688Y-83953361D01*
X133453350Y-83947490D01*
X133470993Y-83790903D01*
X133470993Y-83790896D01*
X133452689Y-83628442D01*
X133449221Y-83618530D01*
X133398691Y-83474125D01*
X133361607Y-83415107D01*
X133342607Y-83347874D01*
X133361606Y-83283168D01*
X133403325Y-83216775D01*
X133457322Y-83062461D01*
X133457322Y-83062459D01*
X133457323Y-83062457D01*
X133475627Y-82900003D01*
X133475627Y-82899996D01*
X133457323Y-82737544D01*
X133457322Y-82737542D01*
X133457322Y-82737539D01*
X133403325Y-82583225D01*
X133316344Y-82444796D01*
X133200740Y-82329192D01*
X133089973Y-82259592D01*
X133062310Y-82242210D01*
X132907991Y-82188212D01*
X132745540Y-82169909D01*
X132745532Y-82169909D01*
X132583080Y-82188212D01*
X132428761Y-82242210D01*
X132290331Y-82329192D01*
X132174728Y-82444795D01*
X132087746Y-82583225D01*
X132033748Y-82737544D01*
X132015445Y-82899996D01*
X132015445Y-82900003D01*
X132033748Y-83062455D01*
X132087746Y-83216775D01*
X132124828Y-83275790D01*
X132143828Y-83343027D01*
X132124828Y-83407733D01*
X132083113Y-83474122D01*
X132029114Y-83628444D01*
X132010811Y-83790896D01*
X132010811Y-83790903D01*
X132029114Y-83953355D01*
X132083112Y-84107674D01*
X132138646Y-84196055D01*
X132157646Y-84263291D01*
X132138646Y-84327999D01*
X132053111Y-84464126D01*
X131999113Y-84618445D01*
X131980810Y-84780897D01*
X125352866Y-84780897D01*
X125319738Y-84769305D01*
X125233905Y-84759634D01*
X125169491Y-84732567D01*
X125160108Y-84724095D01*
X125095205Y-84659192D01*
X124956775Y-84572210D01*
X124802456Y-84518212D01*
X124640005Y-84499909D01*
X124639997Y-84499909D01*
X124629385Y-84501104D01*
X124560564Y-84489045D01*
X124509188Y-84441693D01*
X124492289Y-84391764D01*
X124489736Y-84369102D01*
X124489734Y-84369098D01*
X124489734Y-84369094D01*
X124435740Y-84214790D01*
X124415436Y-84182476D01*
X124348758Y-84076359D01*
X124281212Y-84008813D01*
X124247727Y-83947490D01*
X124245675Y-83935033D01*
X124236422Y-83852905D01*
X124236421Y-83852901D01*
X124236420Y-83852897D01*
X124182426Y-83698593D01*
X124177598Y-83690909D01*
X124095444Y-83560162D01*
X123979840Y-83444558D01*
X123955619Y-83429339D01*
X123841410Y-83357576D01*
X123687091Y-83303578D01*
X123575691Y-83291027D01*
X123511277Y-83263961D01*
X123471721Y-83206366D01*
X123469584Y-83136529D01*
X123484581Y-83101834D01*
X123509323Y-83062457D01*
X123534885Y-83021776D01*
X123588882Y-82867462D01*
X123595014Y-82813040D01*
X123607187Y-82705004D01*
X123607187Y-82704997D01*
X123588883Y-82542545D01*
X123588882Y-82542543D01*
X123588882Y-82542540D01*
X123572689Y-82496262D01*
X129775445Y-82496262D01*
X129775445Y-82496269D01*
X129793748Y-82658721D01*
X129847746Y-82813040D01*
X129902387Y-82900000D01*
X129934728Y-82951470D01*
X130050332Y-83067074D01*
X130188761Y-83154055D01*
X130343075Y-83208052D01*
X130343078Y-83208052D01*
X130343080Y-83208053D01*
X130505532Y-83226357D01*
X130505536Y-83226357D01*
X130505540Y-83226357D01*
X130667991Y-83208053D01*
X130667992Y-83208052D01*
X130667997Y-83208052D01*
X130822311Y-83154055D01*
X130960740Y-83067074D01*
X131076344Y-82951470D01*
X131163325Y-82813041D01*
X131217322Y-82658727D01*
X131230413Y-82542540D01*
X131235627Y-82496269D01*
X131235627Y-82496262D01*
X131217323Y-82333810D01*
X131217322Y-82333808D01*
X131217322Y-82333805D01*
X131163325Y-82179491D01*
X131076344Y-82041062D01*
X131076341Y-82041059D01*
X131075089Y-82039066D01*
X131056088Y-81971829D01*
X131076455Y-81904994D01*
X131092392Y-81885421D01*
X131181709Y-81796105D01*
X131218221Y-81737996D01*
X160650036Y-81737996D01*
X160650036Y-81738003D01*
X160670231Y-81917249D01*
X160670232Y-81917254D01*
X160729812Y-82087523D01*
X160793652Y-82189123D01*
X160825785Y-82240262D01*
X160953339Y-82367816D01*
X161106079Y-82463789D01*
X161195272Y-82494999D01*
X161276346Y-82523368D01*
X161276351Y-82523369D01*
X161455597Y-82543565D01*
X161455601Y-82543565D01*
X161455605Y-82543565D01*
X161634850Y-82523369D01*
X161634853Y-82523368D01*
X161634856Y-82523368D01*
X161805123Y-82463789D01*
X161957863Y-82367816D01*
X162085417Y-82240262D01*
X162181390Y-82087522D01*
X162240969Y-81917255D01*
X162241594Y-81911709D01*
X162249719Y-81839596D01*
X166390436Y-81839596D01*
X166390436Y-81839603D01*
X166410631Y-82018849D01*
X166410632Y-82018854D01*
X166470212Y-82189123D01*
X166527014Y-82279522D01*
X166566185Y-82341862D01*
X166693739Y-82469416D01*
X166779603Y-82523368D01*
X166837609Y-82559816D01*
X166846479Y-82565389D01*
X167016746Y-82624968D01*
X167016751Y-82624969D01*
X167195997Y-82645165D01*
X167196001Y-82645165D01*
X167196005Y-82645165D01*
X167375250Y-82624969D01*
X167375253Y-82624968D01*
X167375256Y-82624968D01*
X167545523Y-82565389D01*
X167657548Y-82494999D01*
X170654342Y-82494999D01*
X170654342Y-82495000D01*
X170674937Y-82730403D01*
X170674939Y-82730413D01*
X170736095Y-82958655D01*
X170736097Y-82958659D01*
X170736098Y-82958663D01*
X170765529Y-83021777D01*
X170835966Y-83172830D01*
X170835968Y-83172834D01*
X170927517Y-83303578D01*
X170971502Y-83366396D01*
X170971507Y-83366402D01*
X171093431Y-83488326D01*
X171126916Y-83549649D01*
X171121932Y-83619341D01*
X171080060Y-83675274D01*
X171049084Y-83692189D01*
X170917670Y-83741203D01*
X170917665Y-83741206D01*
X170802456Y-83827452D01*
X170802453Y-83827455D01*
X170716207Y-83942664D01*
X170716203Y-83942671D01*
X170665909Y-84077517D01*
X170662667Y-84107676D01*
X170659502Y-84137123D01*
X170659501Y-84137135D01*
X170659501Y-85932870D01*
X170659502Y-85932876D01*
X170665909Y-85992483D01*
X170716203Y-86127328D01*
X170716207Y-86127335D01*
X170802453Y-86242544D01*
X170802456Y-86242547D01*
X170917665Y-86328793D01*
X170917672Y-86328797D01*
X171052518Y-86379091D01*
X171052517Y-86379091D01*
X171059445Y-86379835D01*
X171112128Y-86385500D01*
X172907873Y-86385499D01*
X172967484Y-86379091D01*
X173102332Y-86328796D01*
X173217547Y-86242546D01*
X173303797Y-86127331D01*
X173354092Y-85992483D01*
X173360501Y-85932873D01*
X173360500Y-84137128D01*
X173354092Y-84077517D01*
X173336271Y-84029737D01*
X173303798Y-83942671D01*
X173303794Y-83942664D01*
X173217548Y-83827455D01*
X173217545Y-83827452D01*
X173102336Y-83741206D01*
X173102329Y-83741202D01*
X172970918Y-83692189D01*
X172914984Y-83650318D01*
X172890567Y-83584853D01*
X172905419Y-83516580D01*
X172926564Y-83488332D01*
X173048496Y-83366401D01*
X173184036Y-83172830D01*
X173283904Y-82958663D01*
X173345064Y-82730408D01*
X173365660Y-82495000D01*
X173345064Y-82259592D01*
X173283904Y-82031337D01*
X173184036Y-81817171D01*
X173170683Y-81798100D01*
X173048495Y-81623597D01*
X172881403Y-81456506D01*
X172881396Y-81456501D01*
X172687835Y-81320967D01*
X172687831Y-81320965D01*
X172643266Y-81300184D01*
X172473664Y-81221097D01*
X172473660Y-81221096D01*
X172473656Y-81221094D01*
X172245414Y-81159938D01*
X172245404Y-81159936D01*
X172010002Y-81139341D01*
X172010000Y-81139341D01*
X171774597Y-81159936D01*
X171774587Y-81159938D01*
X171546345Y-81221094D01*
X171546336Y-81221098D01*
X171332172Y-81320964D01*
X171332170Y-81320965D01*
X171138598Y-81456505D01*
X170971506Y-81623597D01*
X170835966Y-81817169D01*
X170835965Y-81817171D01*
X170753876Y-81993213D01*
X170741919Y-82018855D01*
X170736099Y-82031335D01*
X170736095Y-82031344D01*
X170674939Y-82259586D01*
X170674937Y-82259596D01*
X170654342Y-82494999D01*
X167657548Y-82494999D01*
X167698263Y-82469416D01*
X167825817Y-82341862D01*
X167921790Y-82189122D01*
X167981369Y-82018855D01*
X167984258Y-81993213D01*
X168001566Y-81839603D01*
X168001566Y-81839596D01*
X167981370Y-81660350D01*
X167981369Y-81660345D01*
X167953422Y-81580478D01*
X167921790Y-81490078D01*
X167825817Y-81337338D01*
X167698263Y-81209784D01*
X167656959Y-81183831D01*
X167545524Y-81113811D01*
X167375255Y-81054231D01*
X167375250Y-81054230D01*
X167196005Y-81034035D01*
X167195997Y-81034035D01*
X167016751Y-81054230D01*
X167016746Y-81054231D01*
X166846477Y-81113811D01*
X166693738Y-81209784D01*
X166566185Y-81337337D01*
X166470212Y-81490076D01*
X166410632Y-81660345D01*
X166410631Y-81660350D01*
X166390436Y-81839596D01*
X162249719Y-81839596D01*
X162261166Y-81738003D01*
X162261166Y-81737996D01*
X162240970Y-81558750D01*
X162240969Y-81558745D01*
X162221590Y-81503362D01*
X162181390Y-81388478D01*
X162085417Y-81235738D01*
X161957863Y-81108184D01*
X161873546Y-81055204D01*
X161805124Y-81012211D01*
X161634855Y-80952631D01*
X161634850Y-80952630D01*
X161455605Y-80932435D01*
X161455597Y-80932435D01*
X161276351Y-80952630D01*
X161276346Y-80952631D01*
X161106077Y-81012211D01*
X160953338Y-81108184D01*
X160825785Y-81235737D01*
X160729812Y-81388476D01*
X160670232Y-81558745D01*
X160670231Y-81558750D01*
X160650036Y-81737996D01*
X131218221Y-81737996D01*
X131268690Y-81657676D01*
X131322687Y-81503362D01*
X131324184Y-81490076D01*
X131340992Y-81340904D01*
X131340992Y-81340897D01*
X131322688Y-81178443D01*
X131314334Y-81154569D01*
X131310772Y-81084790D01*
X131345500Y-81024163D01*
X131407493Y-80991935D01*
X131477069Y-80998340D01*
X131519056Y-81025933D01*
X131540139Y-81047016D01*
X131615001Y-81094055D01*
X131663350Y-81124435D01*
X131692879Y-81142989D01*
X131809599Y-81183831D01*
X131863146Y-81202568D01*
X131863151Y-81202569D01*
X132042397Y-81222765D01*
X132042401Y-81222765D01*
X132042405Y-81222765D01*
X132221650Y-81202569D01*
X132221653Y-81202568D01*
X132221656Y-81202568D01*
X132391923Y-81142989D01*
X132544663Y-81047016D01*
X132672217Y-80919462D01*
X132768190Y-80766722D01*
X132827769Y-80596455D01*
X132832156Y-80557520D01*
X132847966Y-80417203D01*
X132847966Y-80417196D01*
X132834761Y-80299996D01*
X134609910Y-80299996D01*
X134609910Y-80300003D01*
X134628213Y-80462455D01*
X134682211Y-80616774D01*
X134751966Y-80727788D01*
X134769193Y-80755204D01*
X134884797Y-80870808D01*
X135023226Y-80957789D01*
X135177540Y-81011786D01*
X135177543Y-81011786D01*
X135177545Y-81011787D01*
X135339997Y-81030091D01*
X135340001Y-81030091D01*
X135340005Y-81030091D01*
X135502456Y-81011787D01*
X135502457Y-81011786D01*
X135502462Y-81011786D01*
X135656776Y-80957789D01*
X135795205Y-80870808D01*
X135910809Y-80755204D01*
X135997790Y-80616775D01*
X136051787Y-80462461D01*
X136051788Y-80462455D01*
X136070092Y-80300003D01*
X136070092Y-80299996D01*
X136051788Y-80137544D01*
X136051787Y-80137542D01*
X136051787Y-80137539D01*
X135997790Y-79983225D01*
X135910809Y-79844796D01*
X135795205Y-79729192D01*
X135656775Y-79642210D01*
X135502456Y-79588212D01*
X135340005Y-79569909D01*
X135339997Y-79569909D01*
X135177545Y-79588212D01*
X135023226Y-79642210D01*
X134884796Y-79729192D01*
X134769193Y-79844795D01*
X134682211Y-79983225D01*
X134628213Y-80137544D01*
X134609910Y-80299996D01*
X132834761Y-80299996D01*
X132827770Y-80237950D01*
X132827769Y-80237945D01*
X132778129Y-80096082D01*
X132768190Y-80067678D01*
X132672217Y-79914938D01*
X132544663Y-79787384D01*
X132533179Y-79780168D01*
X132391924Y-79691411D01*
X132221655Y-79631831D01*
X132221650Y-79631830D01*
X132042405Y-79611635D01*
X132042397Y-79611635D01*
X131863151Y-79631830D01*
X131863146Y-79631831D01*
X131692877Y-79691411D01*
X131540138Y-79787384D01*
X131412585Y-79914937D01*
X131316612Y-80067676D01*
X131257032Y-80237945D01*
X131257031Y-80237950D01*
X131236836Y-80417196D01*
X131236836Y-80417203D01*
X131257031Y-80596449D01*
X131257033Y-80596457D01*
X131273830Y-80644460D01*
X131277391Y-80714239D01*
X131242662Y-80774866D01*
X131180668Y-80807093D01*
X131111093Y-80800687D01*
X131069107Y-80773095D01*
X131066105Y-80770093D01*
X130927675Y-80683111D01*
X130773356Y-80629113D01*
X130610905Y-80610810D01*
X130610897Y-80610810D01*
X130448445Y-80629113D01*
X130294126Y-80683111D01*
X130155696Y-80770093D01*
X130040093Y-80885696D01*
X129953111Y-81024126D01*
X129899113Y-81178445D01*
X129880810Y-81340897D01*
X129880810Y-81340904D01*
X129899113Y-81503356D01*
X129953112Y-81657677D01*
X129954792Y-81660350D01*
X130040091Y-81796102D01*
X130041347Y-81798100D01*
X130060348Y-81865337D01*
X130039981Y-81932172D01*
X130024036Y-81951754D01*
X129934727Y-82041063D01*
X129847746Y-82179491D01*
X129793748Y-82333810D01*
X129775445Y-82496262D01*
X123572689Y-82496262D01*
X123534885Y-82388226D01*
X123447904Y-82249797D01*
X123332300Y-82134193D01*
X123292602Y-82109249D01*
X123193870Y-82047211D01*
X123039551Y-81993213D01*
X122877100Y-81974910D01*
X122877092Y-81974910D01*
X122714640Y-81993213D01*
X122560321Y-82047211D01*
X122421891Y-82134193D01*
X122306288Y-82249796D01*
X122219306Y-82388226D01*
X122165308Y-82542545D01*
X122147005Y-82704997D01*
X117818895Y-82704997D01*
X117959523Y-82655789D01*
X118112263Y-82559816D01*
X118239817Y-82432262D01*
X118335790Y-82279522D01*
X118395369Y-82109255D01*
X118402360Y-82047211D01*
X118415566Y-81930003D01*
X118415566Y-81929996D01*
X118395370Y-81750750D01*
X118395369Y-81750745D01*
X118362802Y-81657675D01*
X118335790Y-81580478D01*
X118322137Y-81558750D01*
X118278988Y-81490078D01*
X118239817Y-81427738D01*
X118112263Y-81300184D01*
X118044792Y-81257789D01*
X117959524Y-81204211D01*
X117789255Y-81144631D01*
X117789250Y-81144630D01*
X117610005Y-81124435D01*
X117609997Y-81124435D01*
X117430751Y-81144630D01*
X117430746Y-81144631D01*
X117260477Y-81204211D01*
X117107738Y-81300184D01*
X116980185Y-81427737D01*
X116884212Y-81580476D01*
X116824632Y-81750745D01*
X116824631Y-81750750D01*
X116804436Y-81929996D01*
X115511080Y-81929996D01*
X115510777Y-80368262D01*
X122303971Y-80368262D01*
X122303971Y-80368269D01*
X122324166Y-80547515D01*
X122324167Y-80547520D01*
X122383747Y-80717789D01*
X122435836Y-80800687D01*
X122479720Y-80870528D01*
X122607274Y-80998082D01*
X122760014Y-81094055D01*
X122899859Y-81142989D01*
X122930281Y-81153634D01*
X122930286Y-81153635D01*
X123109532Y-81173831D01*
X123109536Y-81173831D01*
X123109540Y-81173831D01*
X123288785Y-81153635D01*
X123288788Y-81153634D01*
X123288791Y-81153634D01*
X123459058Y-81094055D01*
X123611798Y-80998082D01*
X123739352Y-80870528D01*
X123835325Y-80717788D01*
X123894904Y-80547521D01*
X123904489Y-80462455D01*
X123913975Y-80378262D01*
X125303971Y-80378262D01*
X125303971Y-80378269D01*
X125324166Y-80557515D01*
X125324167Y-80557520D01*
X125383747Y-80727789D01*
X125479720Y-80880528D01*
X125607274Y-81008082D01*
X125669237Y-81047016D01*
X125744097Y-81094054D01*
X125760014Y-81104055D01*
X125904375Y-81154569D01*
X125930281Y-81163634D01*
X125930286Y-81163635D01*
X126109532Y-81183831D01*
X126109536Y-81183831D01*
X126109540Y-81183831D01*
X126288785Y-81163635D01*
X126288788Y-81163634D01*
X126288791Y-81163634D01*
X126459058Y-81104055D01*
X126611798Y-81008082D01*
X126739352Y-80880528D01*
X126835325Y-80727788D01*
X126880041Y-80599996D01*
X128264910Y-80599996D01*
X128264910Y-80600003D01*
X128283213Y-80762455D01*
X128337211Y-80916774D01*
X128405801Y-81025933D01*
X128424193Y-81055204D01*
X128539797Y-81170808D01*
X128678226Y-81257789D01*
X128832540Y-81311786D01*
X128832543Y-81311786D01*
X128832545Y-81311787D01*
X128994997Y-81330091D01*
X128995001Y-81330091D01*
X128995005Y-81330091D01*
X129157456Y-81311787D01*
X129157457Y-81311786D01*
X129157462Y-81311786D01*
X129311776Y-81257789D01*
X129450205Y-81170808D01*
X129565809Y-81055204D01*
X129652790Y-80916775D01*
X129706787Y-80762461D01*
X129710694Y-80727788D01*
X129725092Y-80600003D01*
X129725092Y-80599996D01*
X129706788Y-80437544D01*
X129706787Y-80437542D01*
X129706787Y-80437539D01*
X129652790Y-80283225D01*
X129565809Y-80144796D01*
X129450205Y-80029192D01*
X129377049Y-79983225D01*
X129311775Y-79942210D01*
X129157456Y-79888212D01*
X128995005Y-79869909D01*
X128994997Y-79869909D01*
X128832545Y-79888212D01*
X128678226Y-79942210D01*
X128539796Y-80029192D01*
X128424193Y-80144795D01*
X128337211Y-80283225D01*
X128283213Y-80437544D01*
X128264910Y-80599996D01*
X126880041Y-80599996D01*
X126894904Y-80557521D01*
X126896031Y-80547520D01*
X126915101Y-80378269D01*
X126915101Y-80378262D01*
X126894905Y-80199016D01*
X126894904Y-80199011D01*
X126873394Y-80137539D01*
X126835325Y-80028744D01*
X126829040Y-80018742D01*
X126747024Y-79888214D01*
X126739352Y-79876004D01*
X126611798Y-79748450D01*
X126567456Y-79720588D01*
X126459059Y-79652477D01*
X126288790Y-79592897D01*
X126288785Y-79592896D01*
X126109540Y-79572701D01*
X126109532Y-79572701D01*
X125930286Y-79592896D01*
X125930281Y-79592897D01*
X125760012Y-79652477D01*
X125607273Y-79748450D01*
X125479720Y-79876003D01*
X125383747Y-80028742D01*
X125324167Y-80199011D01*
X125324166Y-80199016D01*
X125303971Y-80378262D01*
X123913975Y-80378262D01*
X123915101Y-80368269D01*
X123915101Y-80368262D01*
X123894905Y-80189016D01*
X123894904Y-80189011D01*
X123894226Y-80187073D01*
X123835325Y-80018744D01*
X123739352Y-79866004D01*
X123611798Y-79738450D01*
X123597064Y-79729192D01*
X123459059Y-79642477D01*
X123288790Y-79582897D01*
X123288785Y-79582896D01*
X123109540Y-79562701D01*
X123109532Y-79562701D01*
X122930286Y-79582896D01*
X122930281Y-79582897D01*
X122760012Y-79642477D01*
X122607273Y-79738450D01*
X122479720Y-79866003D01*
X122383747Y-80018742D01*
X122324167Y-80189011D01*
X122324166Y-80189016D01*
X122303971Y-80368262D01*
X115510777Y-80368262D01*
X115510631Y-79616262D01*
X118995445Y-79616262D01*
X118995445Y-79616269D01*
X119013748Y-79778721D01*
X119067746Y-79933040D01*
X119067747Y-79933041D01*
X119154728Y-80071470D01*
X119270332Y-80187074D01*
X119408761Y-80274055D01*
X119563075Y-80328052D01*
X119563078Y-80328052D01*
X119563080Y-80328053D01*
X119725532Y-80346357D01*
X119725536Y-80346357D01*
X119725540Y-80346357D01*
X119887991Y-80328053D01*
X119887992Y-80328052D01*
X119887997Y-80328052D01*
X120042311Y-80274055D01*
X120180740Y-80187074D01*
X120296344Y-80071470D01*
X120383325Y-79933041D01*
X120437322Y-79778727D01*
X120437323Y-79778721D01*
X120455627Y-79616269D01*
X120455627Y-79616262D01*
X120438726Y-79466262D01*
X145099971Y-79466262D01*
X145099971Y-79466269D01*
X145120166Y-79645515D01*
X145120167Y-79645520D01*
X145179747Y-79815789D01*
X145242047Y-79914938D01*
X145275720Y-79968528D01*
X145403274Y-80096082D01*
X145469260Y-80137544D01*
X145551169Y-80189011D01*
X145556014Y-80192055D01*
X145726281Y-80251634D01*
X145726286Y-80251635D01*
X145905532Y-80271831D01*
X145905536Y-80271831D01*
X145905540Y-80271831D01*
X146084785Y-80251635D01*
X146084788Y-80251634D01*
X146084791Y-80251634D01*
X146255058Y-80192055D01*
X146407798Y-80096082D01*
X146535352Y-79968528D01*
X146631325Y-79815788D01*
X146690904Y-79645521D01*
X146692447Y-79631832D01*
X146703222Y-79536195D01*
X146730288Y-79471781D01*
X146787883Y-79432226D01*
X146857720Y-79430088D01*
X146867397Y-79433037D01*
X147006273Y-79481632D01*
X147006279Y-79481633D01*
X147006281Y-79481634D01*
X147006282Y-79481634D01*
X147006286Y-79481635D01*
X147185532Y-79501831D01*
X147185536Y-79501831D01*
X147185540Y-79501831D01*
X147364785Y-79481635D01*
X147364788Y-79481634D01*
X147364791Y-79481634D01*
X147535058Y-79422055D01*
X147687798Y-79326082D01*
X147815352Y-79198528D01*
X147911325Y-79045788D01*
X147929168Y-78994796D01*
X155620836Y-78994796D01*
X155620836Y-78994803D01*
X155641031Y-79174049D01*
X155641032Y-79174054D01*
X155700612Y-79344323D01*
X155777236Y-79466269D01*
X155796585Y-79497062D01*
X155924139Y-79624616D01*
X156014481Y-79681382D01*
X156030442Y-79691411D01*
X156076879Y-79720589D01*
X156243011Y-79778721D01*
X156247146Y-79780168D01*
X156247151Y-79780169D01*
X156426397Y-79800365D01*
X156426401Y-79800365D01*
X156426405Y-79800365D01*
X156605650Y-79780169D01*
X156605653Y-79780168D01*
X156605656Y-79780168D01*
X156775923Y-79720589D01*
X156928663Y-79624616D01*
X157056217Y-79497062D01*
X157152190Y-79344322D01*
X157211769Y-79174055D01*
X157217296Y-79125000D01*
X157231966Y-78994803D01*
X157231966Y-78994796D01*
X157211770Y-78815550D01*
X157211769Y-78815545D01*
X157152190Y-78645278D01*
X157143712Y-78631786D01*
X157109784Y-78577789D01*
X157056217Y-78492538D01*
X156928663Y-78364984D01*
X156826528Y-78300808D01*
X156775924Y-78269011D01*
X156605655Y-78209431D01*
X156605650Y-78209430D01*
X156426405Y-78189235D01*
X156426397Y-78189235D01*
X156247151Y-78209430D01*
X156247146Y-78209431D01*
X156076877Y-78269011D01*
X155924138Y-78364984D01*
X155796585Y-78492537D01*
X155700612Y-78645276D01*
X155641032Y-78815545D01*
X155641031Y-78815550D01*
X155620836Y-78994796D01*
X147929168Y-78994796D01*
X147970904Y-78875521D01*
X147971854Y-78867093D01*
X147991101Y-78696269D01*
X147991101Y-78696262D01*
X147970905Y-78517016D01*
X147970904Y-78517011D01*
X147911325Y-78346744D01*
X147882461Y-78300808D01*
X147825045Y-78209431D01*
X147815352Y-78194004D01*
X147687798Y-78066450D01*
X147672875Y-78057073D01*
X147535059Y-77970477D01*
X147390793Y-77919996D01*
X150509910Y-77919996D01*
X150509910Y-77920003D01*
X150528213Y-78082455D01*
X150528214Y-78082460D01*
X150528215Y-78082461D01*
X150528773Y-78084055D01*
X150582211Y-78236774D01*
X150651309Y-78346742D01*
X150669193Y-78375204D01*
X150784797Y-78490808D01*
X150923226Y-78577789D01*
X151077540Y-78631786D01*
X151077543Y-78631786D01*
X151077545Y-78631787D01*
X151239997Y-78650091D01*
X151240001Y-78650091D01*
X151240005Y-78650091D01*
X151402456Y-78631787D01*
X151402457Y-78631786D01*
X151402462Y-78631786D01*
X151556776Y-78577789D01*
X151695205Y-78490808D01*
X151810809Y-78375204D01*
X151847229Y-78317240D01*
X151899561Y-78270951D01*
X151911250Y-78266177D01*
X152032677Y-78223689D01*
X152171106Y-78136708D01*
X152286710Y-78021104D01*
X152373691Y-77882675D01*
X152394999Y-77821777D01*
X152435719Y-77765001D01*
X152447114Y-77757929D01*
X152446779Y-77757395D01*
X152452674Y-77753690D01*
X152452676Y-77753690D01*
X152591105Y-77666709D01*
X152706709Y-77551105D01*
X152793690Y-77412676D01*
X152816672Y-77346995D01*
X152857393Y-77290219D01*
X152892761Y-77270907D01*
X152917613Y-77262211D01*
X152927676Y-77258690D01*
X153066105Y-77171709D01*
X153181709Y-77056105D01*
X153268690Y-76917676D01*
X153269243Y-76916097D01*
X153269874Y-76915216D01*
X153271711Y-76911403D01*
X153272378Y-76911724D01*
X153309963Y-76859320D01*
X153345329Y-76840007D01*
X153377677Y-76828689D01*
X153516106Y-76741708D01*
X153631710Y-76626104D01*
X153718691Y-76487675D01*
X153744364Y-76414303D01*
X153785085Y-76357527D01*
X153820451Y-76338215D01*
X153847676Y-76328690D01*
X153986105Y-76241709D01*
X154101709Y-76126105D01*
X154188690Y-75987676D01*
X154242687Y-75833362D01*
X154260992Y-75670901D01*
X154253958Y-75608477D01*
X154242688Y-75508445D01*
X154242687Y-75508443D01*
X154242687Y-75508440D01*
X154188690Y-75354126D01*
X154101709Y-75215697D01*
X153986105Y-75100093D01*
X153900364Y-75046218D01*
X153847675Y-75013111D01*
X153693356Y-74959113D01*
X153530905Y-74940810D01*
X153530897Y-74940810D01*
X153368445Y-74959113D01*
X153214126Y-75013111D01*
X153075696Y-75100093D01*
X152960093Y-75215696D01*
X152873113Y-75354123D01*
X152873112Y-75354124D01*
X152847437Y-75427499D01*
X152806715Y-75484275D01*
X152771353Y-75503584D01*
X152744124Y-75513112D01*
X152605697Y-75600092D01*
X152490094Y-75715695D01*
X152403113Y-75854125D01*
X152403106Y-75854139D01*
X152402552Y-75855724D01*
X152401917Y-75856607D01*
X152400090Y-75860403D01*
X152399424Y-75860082D01*
X152361821Y-75912494D01*
X152326476Y-75931791D01*
X152294128Y-75943111D01*
X152155696Y-76030093D01*
X152040093Y-76145696D01*
X151953113Y-76284123D01*
X151953112Y-76284124D01*
X151930128Y-76349808D01*
X151889405Y-76406584D01*
X151854045Y-76425892D01*
X151819128Y-76438111D01*
X151819123Y-76438113D01*
X151680696Y-76525093D01*
X151565093Y-76640696D01*
X151478113Y-76779123D01*
X151478112Y-76779124D01*
X151456801Y-76840027D01*
X151416078Y-76896803D01*
X151404692Y-76903881D01*
X151405023Y-76904407D01*
X151399129Y-76908110D01*
X151399127Y-76908111D01*
X151328210Y-76952670D01*
X151260697Y-76995092D01*
X151145096Y-77110693D01*
X151145093Y-77110697D01*
X151108672Y-77168660D01*
X151056337Y-77214951D01*
X151044638Y-77219726D01*
X151031489Y-77224328D01*
X150923226Y-77262210D01*
X150784796Y-77349192D01*
X150669193Y-77464795D01*
X150582211Y-77603225D01*
X150528213Y-77757544D01*
X150509910Y-77919996D01*
X147390793Y-77919996D01*
X147364790Y-77910897D01*
X147364785Y-77910896D01*
X147185540Y-77890701D01*
X147185532Y-77890701D01*
X147006286Y-77910896D01*
X147006281Y-77910897D01*
X146836012Y-77970477D01*
X146683273Y-78066450D01*
X146555720Y-78194003D01*
X146459747Y-78346742D01*
X146400167Y-78517011D01*
X146400166Y-78517015D01*
X146387849Y-78626337D01*
X146360782Y-78690751D01*
X146303187Y-78730306D01*
X146233350Y-78732443D01*
X146223675Y-78729495D01*
X146084793Y-78680898D01*
X146084785Y-78680896D01*
X145905540Y-78660701D01*
X145905532Y-78660701D01*
X145726286Y-78680896D01*
X145726281Y-78680897D01*
X145556012Y-78740477D01*
X145403273Y-78836450D01*
X145275720Y-78964003D01*
X145179747Y-79116742D01*
X145120167Y-79287011D01*
X145120166Y-79287016D01*
X145099971Y-79466262D01*
X120438726Y-79466262D01*
X120437323Y-79453810D01*
X120437322Y-79453808D01*
X120437322Y-79453805D01*
X120383325Y-79299491D01*
X120296344Y-79161062D01*
X120180740Y-79045458D01*
X120042310Y-78958476D01*
X119887991Y-78904478D01*
X119725540Y-78886175D01*
X119725532Y-78886175D01*
X119563080Y-78904478D01*
X119408761Y-78958476D01*
X119270331Y-79045458D01*
X119154728Y-79161061D01*
X119067746Y-79299491D01*
X119013748Y-79453810D01*
X118995445Y-79616262D01*
X115510631Y-79616262D01*
X115510217Y-77486262D01*
X117695445Y-77486262D01*
X117695445Y-77486269D01*
X117713748Y-77648721D01*
X117767746Y-77803040D01*
X117835517Y-77910896D01*
X117854728Y-77941470D01*
X117970332Y-78057074D01*
X118108761Y-78144055D01*
X118263075Y-78198052D01*
X118263078Y-78198052D01*
X118263080Y-78198053D01*
X118425532Y-78216357D01*
X118425536Y-78216357D01*
X118425540Y-78216357D01*
X118587991Y-78198053D01*
X118587992Y-78198052D01*
X118587997Y-78198052D01*
X118742311Y-78144055D01*
X118880740Y-78057074D01*
X118996344Y-77941470D01*
X119083325Y-77803041D01*
X119137322Y-77648727D01*
X119139932Y-77625565D01*
X119155627Y-77486269D01*
X119155627Y-77486262D01*
X119137323Y-77323810D01*
X119137322Y-77323808D01*
X119137322Y-77323805D01*
X119083325Y-77169491D01*
X118996344Y-77031062D01*
X118880740Y-76915458D01*
X118869047Y-76908111D01*
X118742310Y-76828476D01*
X118587991Y-76774478D01*
X118425540Y-76756175D01*
X118425532Y-76756175D01*
X118263080Y-76774478D01*
X118108761Y-76828476D01*
X117970331Y-76915458D01*
X117854728Y-77031061D01*
X117767746Y-77169491D01*
X117713748Y-77323810D01*
X117695445Y-77486262D01*
X115510217Y-77486262D01*
X115509980Y-76266262D01*
X121419910Y-76266262D01*
X121419910Y-76266269D01*
X121438213Y-76428721D01*
X121438214Y-76428726D01*
X121438215Y-76428727D01*
X121441499Y-76438111D01*
X121492211Y-76583040D01*
X121554966Y-76682913D01*
X121579193Y-76721470D01*
X121694797Y-76837074D01*
X121833226Y-76924055D01*
X121987540Y-76978052D01*
X121987543Y-76978052D01*
X121987545Y-76978053D01*
X122149997Y-76996357D01*
X122150001Y-76996357D01*
X122150004Y-76996357D01*
X122203724Y-76990304D01*
X122272546Y-77002358D01*
X122323926Y-77049707D01*
X122341550Y-77117317D01*
X122334650Y-77154476D01*
X122321170Y-77193001D01*
X122321166Y-77193016D01*
X122300971Y-77372262D01*
X122300971Y-77372269D01*
X122321166Y-77551515D01*
X122321167Y-77551520D01*
X122380747Y-77721789D01*
X122461162Y-77849768D01*
X122476720Y-77874528D01*
X122604274Y-78002082D01*
X122691792Y-78057073D01*
X122734731Y-78084054D01*
X122757014Y-78098055D01*
X122927281Y-78157634D01*
X122927286Y-78157635D01*
X123106532Y-78177831D01*
X123106536Y-78177831D01*
X123106540Y-78177831D01*
X123285785Y-78157635D01*
X123285788Y-78157634D01*
X123285791Y-78157634D01*
X123456058Y-78098055D01*
X123608798Y-78002082D01*
X123736352Y-77874528D01*
X123832325Y-77721788D01*
X123891904Y-77551521D01*
X123892550Y-77545788D01*
X123912101Y-77372269D01*
X123912101Y-77372262D01*
X123910524Y-77358262D01*
X125303971Y-77358262D01*
X125303971Y-77358269D01*
X125324166Y-77537515D01*
X125324167Y-77537520D01*
X125383747Y-77707789D01*
X125419696Y-77765001D01*
X125479720Y-77860528D01*
X125607274Y-77988082D01*
X125629555Y-78002082D01*
X125757467Y-78082455D01*
X125760014Y-78084055D01*
X125800021Y-78098054D01*
X125930281Y-78143634D01*
X125930286Y-78143635D01*
X126109532Y-78163831D01*
X126109536Y-78163831D01*
X126109540Y-78163831D01*
X126288785Y-78143635D01*
X126288788Y-78143634D01*
X126288791Y-78143634D01*
X126459058Y-78084055D01*
X126611798Y-77988082D01*
X126739352Y-77860528D01*
X126821371Y-77729996D01*
X134629910Y-77729996D01*
X134629910Y-77730003D01*
X134648213Y-77892455D01*
X134702211Y-78046774D01*
X134771870Y-78157635D01*
X134789193Y-78185204D01*
X134904797Y-78300808D01*
X135043226Y-78387789D01*
X135197540Y-78441786D01*
X135197543Y-78441786D01*
X135197545Y-78441787D01*
X135359997Y-78460091D01*
X135360001Y-78460091D01*
X135360005Y-78460091D01*
X135522456Y-78441787D01*
X135522457Y-78441786D01*
X135522462Y-78441786D01*
X135676776Y-78387789D01*
X135815205Y-78300808D01*
X135930809Y-78185204D01*
X136017790Y-78046775D01*
X136071787Y-77892461D01*
X136071788Y-77892455D01*
X136090092Y-77730003D01*
X136090092Y-77729996D01*
X136071788Y-77567544D01*
X136071787Y-77567542D01*
X136071787Y-77567539D01*
X136047105Y-77497004D01*
X136043545Y-77427227D01*
X136078274Y-77366600D01*
X136140267Y-77334373D01*
X136209843Y-77340778D01*
X136251829Y-77368371D01*
X136333274Y-77449816D01*
X136391284Y-77486266D01*
X136472855Y-77537521D01*
X136486014Y-77545789D01*
X136589519Y-77582007D01*
X136656281Y-77605368D01*
X136656286Y-77605369D01*
X136835532Y-77625565D01*
X136835536Y-77625565D01*
X136835540Y-77625565D01*
X137014785Y-77605369D01*
X137014788Y-77605368D01*
X137014791Y-77605368D01*
X137185058Y-77545789D01*
X137337798Y-77449816D01*
X137465352Y-77322262D01*
X137561325Y-77169522D01*
X137598110Y-77064396D01*
X144851236Y-77064396D01*
X144851236Y-77064403D01*
X144871431Y-77243649D01*
X144871432Y-77243654D01*
X144931012Y-77413923D01*
X144983217Y-77497006D01*
X145026985Y-77566662D01*
X145154539Y-77694216D01*
X145211489Y-77730000D01*
X145270671Y-77767187D01*
X145307279Y-77790189D01*
X145451991Y-77840826D01*
X145477546Y-77849768D01*
X145477551Y-77849769D01*
X145656797Y-77869965D01*
X145656801Y-77869965D01*
X145656805Y-77869965D01*
X145836050Y-77849769D01*
X145836053Y-77849768D01*
X145836056Y-77849768D01*
X146006323Y-77790189D01*
X146159063Y-77694216D01*
X146286617Y-77566662D01*
X146382590Y-77413922D01*
X146442169Y-77243655D01*
X146445403Y-77214951D01*
X146462366Y-77064403D01*
X146462366Y-77064396D01*
X146442170Y-76885150D01*
X146442169Y-76885145D01*
X146431972Y-76856003D01*
X146382590Y-76714878D01*
X146286617Y-76562138D01*
X146159063Y-76434584D01*
X146118402Y-76409035D01*
X146006324Y-76338611D01*
X145836055Y-76279031D01*
X145836050Y-76279030D01*
X145656805Y-76258835D01*
X145656797Y-76258835D01*
X145477551Y-76279030D01*
X145477546Y-76279031D01*
X145307277Y-76338611D01*
X145154538Y-76434584D01*
X145026985Y-76562137D01*
X144931012Y-76714876D01*
X144871432Y-76885145D01*
X144871431Y-76885150D01*
X144851236Y-77064396D01*
X137598110Y-77064396D01*
X137620904Y-76999255D01*
X137630373Y-76915216D01*
X137641101Y-76820003D01*
X137641101Y-76819996D01*
X137620905Y-76640750D01*
X137620904Y-76640745D01*
X137597163Y-76572897D01*
X137561325Y-76470478D01*
X137540987Y-76438111D01*
X137478218Y-76338214D01*
X137465352Y-76317738D01*
X137337798Y-76190184D01*
X137284628Y-76156775D01*
X137185059Y-76094211D01*
X137014790Y-76034631D01*
X137014785Y-76034630D01*
X136835540Y-76014435D01*
X136835532Y-76014435D01*
X136656286Y-76034630D01*
X136656281Y-76034631D01*
X136486012Y-76094211D01*
X136333273Y-76190184D01*
X136205720Y-76317737D01*
X136109747Y-76470476D01*
X136050167Y-76640745D01*
X136050166Y-76640750D01*
X136029971Y-76819996D01*
X136029971Y-76820003D01*
X136050166Y-76999249D01*
X136050167Y-76999254D01*
X136083293Y-77093921D01*
X136086854Y-77163700D01*
X136052125Y-77224328D01*
X135990132Y-77256555D01*
X135920556Y-77250150D01*
X135878570Y-77222557D01*
X135815205Y-77159192D01*
X135676775Y-77072210D01*
X135522456Y-77018212D01*
X135360005Y-76999909D01*
X135359997Y-76999909D01*
X135197545Y-77018212D01*
X135043226Y-77072210D01*
X134904796Y-77159192D01*
X134789193Y-77274795D01*
X134702211Y-77413225D01*
X134648213Y-77567544D01*
X134629910Y-77729996D01*
X126821371Y-77729996D01*
X126835325Y-77707788D01*
X126894904Y-77537521D01*
X126900679Y-77486266D01*
X126915101Y-77358269D01*
X126915101Y-77358262D01*
X126894905Y-77179016D01*
X126894904Y-77179011D01*
X126871000Y-77110697D01*
X126835325Y-77008744D01*
X126831312Y-77002358D01*
X126774363Y-76911724D01*
X126739352Y-76856004D01*
X126611798Y-76728450D01*
X126590195Y-76714876D01*
X126459059Y-76632477D01*
X126288790Y-76572897D01*
X126288785Y-76572896D01*
X126109540Y-76552701D01*
X126109532Y-76552701D01*
X125930286Y-76572896D01*
X125930281Y-76572897D01*
X125760012Y-76632477D01*
X125607273Y-76728450D01*
X125479720Y-76856003D01*
X125383747Y-77008742D01*
X125324167Y-77179011D01*
X125324166Y-77179016D01*
X125303971Y-77358262D01*
X123910524Y-77358262D01*
X123891905Y-77193016D01*
X123891904Y-77193011D01*
X123878420Y-77154476D01*
X123832325Y-77022744D01*
X123829477Y-77018212D01*
X123777084Y-76934828D01*
X123736352Y-76870004D01*
X123608798Y-76742450D01*
X123575409Y-76721470D01*
X123456059Y-76646477D01*
X123285790Y-76586897D01*
X123285785Y-76586896D01*
X123106540Y-76566701D01*
X123106532Y-76566701D01*
X122996666Y-76579079D01*
X122927844Y-76567024D01*
X122876465Y-76519675D01*
X122858841Y-76452064D01*
X122861451Y-76431711D01*
X122880092Y-76266269D01*
X122880092Y-76266262D01*
X122861788Y-76103810D01*
X122861787Y-76103808D01*
X122861787Y-76103805D01*
X122807790Y-75949491D01*
X122720809Y-75811062D01*
X122605205Y-75695458D01*
X122566117Y-75670897D01*
X122466775Y-75608476D01*
X122312456Y-75554478D01*
X122150005Y-75536175D01*
X122149997Y-75536175D01*
X121987545Y-75554478D01*
X121833226Y-75608476D01*
X121694796Y-75695458D01*
X121579193Y-75811061D01*
X121492211Y-75949491D01*
X121438213Y-76103810D01*
X121419910Y-76266262D01*
X115509980Y-76266262D01*
X115509613Y-74371996D01*
X120264036Y-74371996D01*
X120264036Y-74372003D01*
X120284231Y-74551249D01*
X120284232Y-74551254D01*
X120343812Y-74721523D01*
X120416920Y-74837873D01*
X120439785Y-74874262D01*
X120567339Y-75001816D01*
X120720079Y-75097789D01*
X120862271Y-75147544D01*
X120890346Y-75157368D01*
X120890351Y-75157369D01*
X121069597Y-75177565D01*
X121069601Y-75177565D01*
X121069605Y-75177565D01*
X121248850Y-75157369D01*
X121248853Y-75157368D01*
X121248856Y-75157368D01*
X121419123Y-75097789D01*
X121571863Y-75001816D01*
X121699417Y-74874262D01*
X121795390Y-74721522D01*
X121854969Y-74551255D01*
X121864401Y-74467544D01*
X121871449Y-74404995D01*
X122975445Y-74404995D01*
X122975445Y-74405002D01*
X122993748Y-74567454D01*
X123047746Y-74721773D01*
X123104064Y-74811402D01*
X123134728Y-74860203D01*
X123250332Y-74975807D01*
X123388761Y-75062788D01*
X123543075Y-75116785D01*
X123543078Y-75116785D01*
X123543080Y-75116786D01*
X123705532Y-75135090D01*
X123705536Y-75135090D01*
X123705540Y-75135090D01*
X123867991Y-75116786D01*
X123867992Y-75116785D01*
X123867997Y-75116785D01*
X124022311Y-75062788D01*
X124160740Y-74975807D01*
X124276344Y-74860203D01*
X124363325Y-74721774D01*
X124417322Y-74567460D01*
X124417323Y-74567454D01*
X124434501Y-74414996D01*
X124865445Y-74414996D01*
X124865445Y-74415003D01*
X124883748Y-74577455D01*
X124883749Y-74577460D01*
X124883750Y-74577461D01*
X124890915Y-74597939D01*
X124937746Y-74731774D01*
X125018444Y-74860203D01*
X125024728Y-74870204D01*
X125140332Y-74985808D01*
X125278761Y-75072789D01*
X125433075Y-75126786D01*
X125433078Y-75126786D01*
X125433080Y-75126787D01*
X125595532Y-75145091D01*
X125595536Y-75145091D01*
X125595540Y-75145091D01*
X125757991Y-75126787D01*
X125757992Y-75126786D01*
X125757997Y-75126786D01*
X125912311Y-75072789D01*
X126050740Y-74985808D01*
X126166344Y-74870204D01*
X126253325Y-74731775D01*
X126307322Y-74577461D01*
X126309608Y-74557171D01*
X126325627Y-74415003D01*
X126325627Y-74414996D01*
X126725445Y-74414996D01*
X126725445Y-74415003D01*
X126743748Y-74577455D01*
X126743749Y-74577460D01*
X126743750Y-74577461D01*
X126750915Y-74597939D01*
X126797746Y-74731774D01*
X126878444Y-74860203D01*
X126884728Y-74870204D01*
X127000332Y-74985808D01*
X127138761Y-75072789D01*
X127293075Y-75126786D01*
X127293078Y-75126786D01*
X127293080Y-75126787D01*
X127455532Y-75145091D01*
X127455536Y-75145091D01*
X127455540Y-75145091D01*
X127617991Y-75126787D01*
X127617992Y-75126786D01*
X127617997Y-75126786D01*
X127772311Y-75072789D01*
X127910740Y-74985808D01*
X128026344Y-74870204D01*
X128113325Y-74731775D01*
X128148939Y-74629996D01*
X140739910Y-74629996D01*
X140739910Y-74630003D01*
X140758213Y-74792455D01*
X140812211Y-74946774D01*
X140865973Y-75032335D01*
X140899193Y-75085204D01*
X141014797Y-75200808D01*
X141153226Y-75287789D01*
X141307540Y-75341786D01*
X141307543Y-75341786D01*
X141307545Y-75341787D01*
X141469997Y-75360091D01*
X141470001Y-75360091D01*
X141470005Y-75360091D01*
X141632456Y-75341787D01*
X141632457Y-75341786D01*
X141632462Y-75341786D01*
X141786776Y-75287789D01*
X141925205Y-75200808D01*
X142040809Y-75085204D01*
X142127790Y-74946775D01*
X142181787Y-74792461D01*
X142181788Y-74792455D01*
X142200092Y-74630003D01*
X142200092Y-74629996D01*
X142181788Y-74467544D01*
X142181787Y-74467542D01*
X142181787Y-74467539D01*
X142127790Y-74313225D01*
X142040809Y-74174796D01*
X141925205Y-74059192D01*
X141866772Y-74022476D01*
X141786775Y-73972210D01*
X141632456Y-73918212D01*
X141470005Y-73899909D01*
X141469997Y-73899909D01*
X141307545Y-73918212D01*
X141153226Y-73972210D01*
X141014796Y-74059192D01*
X140899193Y-74174795D01*
X140812211Y-74313225D01*
X140758213Y-74467544D01*
X140739910Y-74629996D01*
X128148939Y-74629996D01*
X128167322Y-74577461D01*
X128169608Y-74557171D01*
X128185627Y-74415003D01*
X128185627Y-74414996D01*
X128167323Y-74252544D01*
X128167322Y-74252542D01*
X128167322Y-74252539D01*
X128113325Y-74098225D01*
X128026344Y-73959796D01*
X127910740Y-73844192D01*
X127894824Y-73834191D01*
X127772310Y-73757210D01*
X127638475Y-73710379D01*
X127617997Y-73703214D01*
X127617996Y-73703213D01*
X127617991Y-73703212D01*
X127455540Y-73684909D01*
X127455532Y-73684909D01*
X127293080Y-73703212D01*
X127138761Y-73757210D01*
X127000331Y-73844192D01*
X126884728Y-73959795D01*
X126797746Y-74098225D01*
X126743748Y-74252544D01*
X126725445Y-74414996D01*
X126325627Y-74414996D01*
X126307323Y-74252544D01*
X126307322Y-74252542D01*
X126307322Y-74252539D01*
X126253325Y-74098225D01*
X126166344Y-73959796D01*
X126050740Y-73844192D01*
X126034824Y-73834191D01*
X125912310Y-73757210D01*
X125778475Y-73710379D01*
X125757997Y-73703214D01*
X125757996Y-73703213D01*
X125757991Y-73703212D01*
X125595540Y-73684909D01*
X125595532Y-73684909D01*
X125433080Y-73703212D01*
X125278761Y-73757210D01*
X125140331Y-73844192D01*
X125024728Y-73959795D01*
X124937746Y-74098225D01*
X124883748Y-74252544D01*
X124865445Y-74414996D01*
X124434501Y-74414996D01*
X124435627Y-74405002D01*
X124435627Y-74404995D01*
X124417323Y-74242543D01*
X124417322Y-74242541D01*
X124417322Y-74242538D01*
X124363325Y-74088224D01*
X124276344Y-73949795D01*
X124160740Y-73834191D01*
X124022310Y-73747209D01*
X123867991Y-73693211D01*
X123705540Y-73674908D01*
X123705532Y-73674908D01*
X123543080Y-73693211D01*
X123388761Y-73747209D01*
X123250331Y-73834191D01*
X123134728Y-73949794D01*
X123047746Y-74088224D01*
X122993748Y-74242543D01*
X122975445Y-74404995D01*
X121871449Y-74404995D01*
X121875166Y-74372003D01*
X121875166Y-74371996D01*
X121854970Y-74192750D01*
X121854969Y-74192745D01*
X121848904Y-74175413D01*
X121795390Y-74022478D01*
X121763804Y-73972210D01*
X121743565Y-73939999D01*
X121699417Y-73869738D01*
X121571863Y-73742184D01*
X121512036Y-73704592D01*
X121419124Y-73646211D01*
X121248855Y-73586631D01*
X121248850Y-73586630D01*
X121069605Y-73566435D01*
X121069597Y-73566435D01*
X120890351Y-73586630D01*
X120890346Y-73586631D01*
X120720077Y-73646211D01*
X120567338Y-73742184D01*
X120439785Y-73869737D01*
X120343812Y-74022476D01*
X120284232Y-74192745D01*
X120284231Y-74192750D01*
X120264036Y-74371996D01*
X115509613Y-74371996D01*
X115509330Y-72915361D01*
X137494544Y-72915361D01*
X137494544Y-72915368D01*
X137512847Y-73077820D01*
X137566845Y-73232139D01*
X137622976Y-73321470D01*
X137653827Y-73370569D01*
X137769431Y-73486173D01*
X137907860Y-73573154D01*
X138062174Y-73627151D01*
X138062177Y-73627151D01*
X138062179Y-73627152D01*
X138224631Y-73645456D01*
X138224635Y-73645456D01*
X138224639Y-73645456D01*
X138387092Y-73627152D01*
X138387094Y-73627151D01*
X138387096Y-73627151D01*
X138541410Y-73573154D01*
X138555925Y-73564032D01*
X138623158Y-73545031D01*
X138662851Y-73551983D01*
X138737350Y-73578052D01*
X138737354Y-73578052D01*
X138737356Y-73578053D01*
X138737353Y-73578053D01*
X138899807Y-73596357D01*
X138899811Y-73596357D01*
X138899815Y-73596357D01*
X139062266Y-73578053D01*
X139062267Y-73578052D01*
X139062272Y-73578052D01*
X139216586Y-73524055D01*
X139355015Y-73437074D01*
X139470619Y-73321470D01*
X139557600Y-73183041D01*
X139606905Y-73042135D01*
X154859501Y-73042135D01*
X154859501Y-74837870D01*
X154859502Y-74837876D01*
X154865909Y-74897483D01*
X154916203Y-75032328D01*
X154916207Y-75032335D01*
X155002453Y-75147544D01*
X155002456Y-75147547D01*
X155117665Y-75233793D01*
X155117672Y-75233797D01*
X155252518Y-75284091D01*
X155252517Y-75284091D01*
X155259445Y-75284835D01*
X155312128Y-75290500D01*
X157107873Y-75290499D01*
X157167484Y-75284091D01*
X157302332Y-75233796D01*
X157417547Y-75147546D01*
X157503797Y-75032331D01*
X157552811Y-74900916D01*
X157594682Y-74844984D01*
X157660146Y-74820566D01*
X157728419Y-74835417D01*
X157756674Y-74856569D01*
X157878600Y-74978495D01*
X157975318Y-75046218D01*
X158072166Y-75114032D01*
X158072168Y-75114033D01*
X158072171Y-75114035D01*
X158286338Y-75213903D01*
X158286344Y-75213904D01*
X158286345Y-75213905D01*
X158293033Y-75215697D01*
X158514593Y-75275063D01*
X158691035Y-75290500D01*
X158750000Y-75295659D01*
X158750001Y-75295659D01*
X158750002Y-75295659D01*
X158808967Y-75290500D01*
X158985409Y-75275063D01*
X159213664Y-75213903D01*
X159427831Y-75114035D01*
X159621402Y-74978495D01*
X159788496Y-74811401D01*
X159915512Y-74630003D01*
X159918426Y-74625842D01*
X159973003Y-74582217D01*
X160042501Y-74575023D01*
X160104856Y-74606546D01*
X160121576Y-74625842D01*
X160251501Y-74811395D01*
X160251506Y-74811401D01*
X160418600Y-74978495D01*
X160515318Y-75046218D01*
X160612166Y-75114032D01*
X160612168Y-75114033D01*
X160612171Y-75114035D01*
X160826338Y-75213903D01*
X160826344Y-75213904D01*
X160826345Y-75213905D01*
X160833033Y-75215697D01*
X161054593Y-75275063D01*
X161231035Y-75290500D01*
X161290000Y-75295659D01*
X161290001Y-75295659D01*
X161290002Y-75295659D01*
X161348967Y-75290500D01*
X161525409Y-75275063D01*
X161753664Y-75213903D01*
X161967831Y-75114035D01*
X162161402Y-74978495D01*
X162328496Y-74811401D01*
X162455512Y-74630003D01*
X162458426Y-74625842D01*
X162513003Y-74582217D01*
X162582501Y-74575023D01*
X162644856Y-74606546D01*
X162661576Y-74625842D01*
X162791501Y-74811395D01*
X162791506Y-74811401D01*
X162958600Y-74978495D01*
X163055318Y-75046218D01*
X163152166Y-75114032D01*
X163152168Y-75114033D01*
X163152171Y-75114035D01*
X163366338Y-75213903D01*
X163366344Y-75213904D01*
X163366345Y-75213905D01*
X163373033Y-75215697D01*
X163594593Y-75275063D01*
X163771035Y-75290500D01*
X163830000Y-75295659D01*
X163830001Y-75295659D01*
X163830002Y-75295659D01*
X163888967Y-75290500D01*
X164065409Y-75275063D01*
X164293664Y-75213903D01*
X164507831Y-75114035D01*
X164701402Y-74978495D01*
X164868496Y-74811401D01*
X164995512Y-74630003D01*
X164998426Y-74625842D01*
X165053003Y-74582217D01*
X165122501Y-74575023D01*
X165184856Y-74606546D01*
X165201576Y-74625842D01*
X165331502Y-74811396D01*
X165331507Y-74811402D01*
X165435308Y-74915203D01*
X165468793Y-74976526D01*
X165463809Y-75046218D01*
X165421937Y-75102151D01*
X165356473Y-75126568D01*
X165333744Y-75126104D01*
X165190005Y-75109909D01*
X165189997Y-75109909D01*
X165027545Y-75128212D01*
X164873226Y-75182210D01*
X164734796Y-75269192D01*
X164619193Y-75384795D01*
X164532211Y-75523225D01*
X164478213Y-75677544D01*
X164459910Y-75839996D01*
X164459910Y-75840003D01*
X164478213Y-76002455D01*
X164532211Y-76156774D01*
X164532212Y-76156775D01*
X164619193Y-76295204D01*
X164734797Y-76410808D01*
X164873226Y-76497789D01*
X165027540Y-76551786D01*
X165027543Y-76551786D01*
X165027545Y-76551787D01*
X165189997Y-76570091D01*
X165190001Y-76570091D01*
X165190005Y-76570091D01*
X165352456Y-76551787D01*
X165352457Y-76551786D01*
X165352462Y-76551786D01*
X165506776Y-76497789D01*
X165645205Y-76410808D01*
X165760809Y-76295204D01*
X165847790Y-76156775D01*
X165901787Y-76002461D01*
X165903453Y-75987675D01*
X165920092Y-75840003D01*
X165920092Y-75839996D01*
X165901788Y-75677544D01*
X165901787Y-75677542D01*
X165901787Y-75677539D01*
X165847790Y-75523225D01*
X165770322Y-75399936D01*
X165751322Y-75332701D01*
X165771689Y-75265866D01*
X165824957Y-75220651D01*
X165894213Y-75211413D01*
X165907409Y-75214190D01*
X166134593Y-75275063D01*
X166311035Y-75290500D01*
X166370000Y-75295659D01*
X166370001Y-75295659D01*
X166370002Y-75295659D01*
X166428967Y-75290500D01*
X166605409Y-75275063D01*
X166833664Y-75213903D01*
X167047831Y-75114035D01*
X167241402Y-74978495D01*
X167408496Y-74811401D01*
X167544036Y-74617830D01*
X167643904Y-74403663D01*
X167705064Y-74175408D01*
X167725660Y-73940000D01*
X167705064Y-73704592D01*
X167643904Y-73476337D01*
X167544036Y-73262171D01*
X167538426Y-73254158D01*
X167408495Y-73068597D01*
X167241403Y-72901506D01*
X167241396Y-72901501D01*
X167047835Y-72765967D01*
X167047831Y-72765965D01*
X167019822Y-72752904D01*
X166895644Y-72694999D01*
X170634342Y-72694999D01*
X170634342Y-72695000D01*
X170654937Y-72930403D01*
X170654939Y-72930413D01*
X170716095Y-73158655D01*
X170716097Y-73158659D01*
X170716098Y-73158663D01*
X170780971Y-73297783D01*
X170815966Y-73372830D01*
X170815968Y-73372834D01*
X170951502Y-73566395D01*
X170951507Y-73566402D01*
X171118598Y-73733493D01*
X171118604Y-73733498D01*
X171304159Y-73863425D01*
X171347784Y-73918002D01*
X171354978Y-73987500D01*
X171323455Y-74049855D01*
X171304159Y-74066575D01*
X171118598Y-74196505D01*
X170951506Y-74363597D01*
X170815966Y-74557169D01*
X170815965Y-74557171D01*
X170716099Y-74771335D01*
X170716095Y-74771344D01*
X170654939Y-74999586D01*
X170654937Y-74999596D01*
X170634342Y-75234999D01*
X170634342Y-75235000D01*
X170654937Y-75470403D01*
X170654939Y-75470413D01*
X170716095Y-75698655D01*
X170716097Y-75698659D01*
X170716098Y-75698663D01*
X170782003Y-75839996D01*
X170815966Y-75912830D01*
X170815968Y-75912834D01*
X170901251Y-76034630D01*
X170951502Y-76106396D01*
X170951507Y-76106402D01*
X171073819Y-76228714D01*
X171107304Y-76290037D01*
X171102320Y-76359729D01*
X171060448Y-76415662D01*
X171029472Y-76432577D01*
X170897913Y-76481646D01*
X170897907Y-76481649D01*
X170782813Y-76567809D01*
X170782810Y-76567812D01*
X170696650Y-76682906D01*
X170696646Y-76682913D01*
X170646404Y-76817620D01*
X170646402Y-76817627D01*
X170640001Y-76877155D01*
X170640001Y-77525000D01*
X171556989Y-77525000D01*
X171524076Y-77582007D01*
X171490001Y-77709174D01*
X171490001Y-77840826D01*
X171524076Y-77967993D01*
X171556989Y-78025000D01*
X170640001Y-78025000D01*
X170640001Y-78672844D01*
X170646402Y-78732372D01*
X170646404Y-78732379D01*
X170696646Y-78867086D01*
X170696650Y-78867093D01*
X170782810Y-78982187D01*
X170782813Y-78982190D01*
X170897907Y-79068350D01*
X170897914Y-79068354D01*
X171032621Y-79118596D01*
X171032628Y-79118598D01*
X171092156Y-79124999D01*
X171092173Y-79125000D01*
X171740001Y-79125000D01*
X171740001Y-78208012D01*
X171797008Y-78240925D01*
X171924175Y-78275000D01*
X172055827Y-78275000D01*
X172182994Y-78240925D01*
X172240001Y-78208012D01*
X172240001Y-79125000D01*
X172887829Y-79125000D01*
X172887845Y-79124999D01*
X172947373Y-79118598D01*
X172947380Y-79118596D01*
X173082087Y-79068354D01*
X173082094Y-79068350D01*
X173197188Y-78982190D01*
X173197191Y-78982187D01*
X173283351Y-78867093D01*
X173283355Y-78867086D01*
X173333597Y-78732379D01*
X173333599Y-78732372D01*
X173340000Y-78672844D01*
X173340001Y-78672827D01*
X173340001Y-78025000D01*
X172423013Y-78025000D01*
X172455926Y-77967993D01*
X172490001Y-77840826D01*
X172490001Y-77709174D01*
X172455926Y-77582007D01*
X172423013Y-77525000D01*
X173340001Y-77525000D01*
X173340001Y-76877172D01*
X173340000Y-76877155D01*
X173333599Y-76817627D01*
X173333597Y-76817620D01*
X173283355Y-76682913D01*
X173283351Y-76682906D01*
X173197191Y-76567812D01*
X173197188Y-76567809D01*
X173082094Y-76481649D01*
X173082089Y-76481646D01*
X172950529Y-76432577D01*
X172894596Y-76390705D01*
X172870179Y-76325241D01*
X172885031Y-76256968D01*
X172906176Y-76228720D01*
X173028496Y-76106401D01*
X173164036Y-75912830D01*
X173263904Y-75698663D01*
X173325064Y-75470408D01*
X173345660Y-75235000D01*
X173325064Y-74999592D01*
X173269564Y-74792461D01*
X173263906Y-74771344D01*
X173263905Y-74771343D01*
X173263904Y-74771337D01*
X173164036Y-74557171D01*
X173159890Y-74551249D01*
X173028495Y-74363597D01*
X172861403Y-74196506D01*
X172861397Y-74196501D01*
X172675843Y-74066575D01*
X172632218Y-74011998D01*
X172625024Y-73942500D01*
X172656547Y-73880145D01*
X172675843Y-73863425D01*
X172827532Y-73757211D01*
X172861402Y-73733495D01*
X173028496Y-73566401D01*
X173164036Y-73372830D01*
X173263904Y-73158663D01*
X173325064Y-72930408D01*
X173345660Y-72695000D01*
X173325064Y-72459592D01*
X173263904Y-72231337D01*
X173164036Y-72017171D01*
X173117777Y-71951105D01*
X173028495Y-71823597D01*
X172861403Y-71656506D01*
X172861396Y-71656501D01*
X172667835Y-71520967D01*
X172667831Y-71520965D01*
X172667829Y-71520964D01*
X172453664Y-71421097D01*
X172453660Y-71421096D01*
X172453656Y-71421094D01*
X172225414Y-71359938D01*
X172225404Y-71359936D01*
X171990002Y-71339341D01*
X171990000Y-71339341D01*
X171754597Y-71359936D01*
X171754587Y-71359938D01*
X171526345Y-71421094D01*
X171526336Y-71421098D01*
X171312172Y-71520964D01*
X171312170Y-71520965D01*
X171118598Y-71656505D01*
X170951506Y-71823597D01*
X170815966Y-72017169D01*
X170815965Y-72017171D01*
X170716099Y-72231335D01*
X170716095Y-72231344D01*
X170654939Y-72459586D01*
X170654937Y-72459596D01*
X170634342Y-72694999D01*
X166895644Y-72694999D01*
X166833664Y-72666097D01*
X166833660Y-72666096D01*
X166833656Y-72666094D01*
X166605414Y-72604938D01*
X166605404Y-72604936D01*
X166370002Y-72584341D01*
X166370000Y-72584341D01*
X166134597Y-72604936D01*
X166134587Y-72604938D01*
X165906345Y-72666094D01*
X165906336Y-72666098D01*
X165692172Y-72765964D01*
X165692170Y-72765965D01*
X165498598Y-72901505D01*
X165331506Y-73068597D01*
X165201576Y-73254158D01*
X165146999Y-73297783D01*
X165077501Y-73304977D01*
X165015146Y-73273454D01*
X164998426Y-73254158D01*
X164868495Y-73068597D01*
X164701403Y-72901506D01*
X164701396Y-72901501D01*
X164507835Y-72765967D01*
X164507831Y-72765965D01*
X164479822Y-72752904D01*
X164293664Y-72666097D01*
X164293660Y-72666096D01*
X164293656Y-72666094D01*
X164065414Y-72604938D01*
X164065404Y-72604936D01*
X163830002Y-72584341D01*
X163830000Y-72584341D01*
X163594597Y-72604936D01*
X163594587Y-72604938D01*
X163366345Y-72666094D01*
X163366336Y-72666098D01*
X163152172Y-72765964D01*
X163152170Y-72765965D01*
X162958598Y-72901505D01*
X162791506Y-73068597D01*
X162661576Y-73254158D01*
X162606999Y-73297783D01*
X162537501Y-73304977D01*
X162475146Y-73273454D01*
X162458426Y-73254158D01*
X162328495Y-73068597D01*
X162161403Y-72901506D01*
X162161396Y-72901501D01*
X161967835Y-72765967D01*
X161967831Y-72765965D01*
X161939822Y-72752904D01*
X161753664Y-72666097D01*
X161753660Y-72666096D01*
X161753656Y-72666094D01*
X161525414Y-72604938D01*
X161525404Y-72604936D01*
X161290002Y-72584341D01*
X161290000Y-72584341D01*
X161054597Y-72604936D01*
X161054587Y-72604938D01*
X160826345Y-72666094D01*
X160826336Y-72666098D01*
X160612172Y-72765964D01*
X160612170Y-72765965D01*
X160418598Y-72901505D01*
X160251506Y-73068597D01*
X160121576Y-73254158D01*
X160066999Y-73297783D01*
X159997501Y-73304977D01*
X159935146Y-73273454D01*
X159918426Y-73254158D01*
X159788495Y-73068597D01*
X159621403Y-72901506D01*
X159621396Y-72901501D01*
X159427835Y-72765967D01*
X159427831Y-72765965D01*
X159399822Y-72752904D01*
X159213664Y-72666097D01*
X159213660Y-72666096D01*
X159213656Y-72666094D01*
X158985414Y-72604938D01*
X158985404Y-72604936D01*
X158750002Y-72584341D01*
X158750000Y-72584341D01*
X158514597Y-72604936D01*
X158514587Y-72604938D01*
X158286345Y-72666094D01*
X158286336Y-72666098D01*
X158072172Y-72765964D01*
X158072170Y-72765965D01*
X157878601Y-72901503D01*
X157756674Y-73023430D01*
X157695351Y-73056914D01*
X157625659Y-73051930D01*
X157569726Y-73010058D01*
X157552811Y-72979081D01*
X157503798Y-72847671D01*
X157503794Y-72847664D01*
X157417548Y-72732455D01*
X157417545Y-72732452D01*
X157302336Y-72646206D01*
X157302329Y-72646202D01*
X157167483Y-72595908D01*
X157167484Y-72595908D01*
X157107884Y-72589501D01*
X157107882Y-72589500D01*
X157107874Y-72589500D01*
X157107865Y-72589500D01*
X155312130Y-72589500D01*
X155312124Y-72589501D01*
X155252517Y-72595908D01*
X155117672Y-72646202D01*
X155117665Y-72646206D01*
X155002456Y-72732452D01*
X155002453Y-72732455D01*
X154916207Y-72847664D01*
X154916203Y-72847671D01*
X154865909Y-72982517D01*
X154859502Y-73042116D01*
X154859501Y-73042135D01*
X139606905Y-73042135D01*
X139611597Y-73028727D01*
X139612194Y-73023430D01*
X139629902Y-72866269D01*
X139629902Y-72866262D01*
X139611598Y-72703810D01*
X139611597Y-72703808D01*
X139611597Y-72703805D01*
X139557600Y-72549491D01*
X139470619Y-72411062D01*
X139355015Y-72295458D01*
X139216585Y-72208476D01*
X139062266Y-72154478D01*
X138899815Y-72136175D01*
X138899807Y-72136175D01*
X138737355Y-72154478D01*
X138583034Y-72208477D01*
X138568515Y-72217600D01*
X138501278Y-72236598D01*
X138461594Y-72229646D01*
X138387091Y-72203577D01*
X138387092Y-72203577D01*
X138224639Y-72185274D01*
X138224631Y-72185274D01*
X138062179Y-72203577D01*
X137907860Y-72257575D01*
X137769430Y-72344557D01*
X137653827Y-72460160D01*
X137566845Y-72598590D01*
X137512847Y-72752909D01*
X137494544Y-72915361D01*
X115509330Y-72915361D01*
X115508719Y-69766262D01*
X126539971Y-69766262D01*
X126539971Y-69766269D01*
X126560166Y-69945515D01*
X126560167Y-69945520D01*
X126619747Y-70115789D01*
X126715720Y-70268528D01*
X126843274Y-70396082D01*
X126996014Y-70492055D01*
X127166281Y-70551634D01*
X127166286Y-70551635D01*
X127345532Y-70571831D01*
X127345536Y-70571831D01*
X127345540Y-70571831D01*
X127524785Y-70551635D01*
X127524788Y-70551634D01*
X127524791Y-70551634D01*
X127695058Y-70492055D01*
X127847798Y-70396082D01*
X127975352Y-70268528D01*
X128071325Y-70115788D01*
X128130904Y-69945521D01*
X128130905Y-69945515D01*
X128151101Y-69766269D01*
X128151101Y-69766262D01*
X128130905Y-69587016D01*
X128130904Y-69587011D01*
X128085485Y-69457211D01*
X128071325Y-69416744D01*
X127975352Y-69264004D01*
X127847798Y-69136450D01*
X127809808Y-69112579D01*
X127695059Y-69040477D01*
X127524790Y-68980897D01*
X127524785Y-68980896D01*
X127345540Y-68960701D01*
X127345532Y-68960701D01*
X127166286Y-68980896D01*
X127166281Y-68980897D01*
X126996012Y-69040477D01*
X126843273Y-69136450D01*
X126715720Y-69264003D01*
X126619747Y-69416742D01*
X126560167Y-69587011D01*
X126560166Y-69587016D01*
X126539971Y-69766262D01*
X115508719Y-69766262D01*
X115508485Y-68559996D01*
X130844436Y-68559996D01*
X130844436Y-68560003D01*
X130864631Y-68739249D01*
X130864632Y-68739254D01*
X130924212Y-68909523D01*
X131007112Y-69041456D01*
X131020185Y-69062262D01*
X131147739Y-69189816D01*
X131300479Y-69285789D01*
X131452679Y-69339046D01*
X131470746Y-69345368D01*
X131470751Y-69345369D01*
X131649997Y-69365565D01*
X131650001Y-69365565D01*
X131650005Y-69365565D01*
X131829250Y-69345369D01*
X131829253Y-69345368D01*
X131829256Y-69345368D01*
X131999523Y-69285789D01*
X132152263Y-69189816D01*
X132279817Y-69062262D01*
X132375790Y-68909522D01*
X132435369Y-68739255D01*
X132449597Y-68612977D01*
X132455566Y-68560003D01*
X132455566Y-68559996D01*
X132436975Y-68394997D01*
X136959724Y-68394997D01*
X136959724Y-68395002D01*
X136978794Y-68612975D01*
X136978794Y-68612979D01*
X137035423Y-68824322D01*
X137035425Y-68824326D01*
X137035426Y-68824330D01*
X137075152Y-68909522D01*
X137127898Y-69022638D01*
X137127899Y-69022639D01*
X137253403Y-69201877D01*
X137408124Y-69356598D01*
X137587362Y-69482102D01*
X137785671Y-69574575D01*
X137997024Y-69631207D01*
X138175687Y-69646837D01*
X138240755Y-69672289D01*
X138281734Y-69728880D01*
X138285612Y-69798642D01*
X138251158Y-69859426D01*
X138244007Y-69865716D01*
X138115720Y-69994003D01*
X138019747Y-70146742D01*
X137960167Y-70317011D01*
X137960166Y-70317016D01*
X137939971Y-70496262D01*
X137939971Y-70496269D01*
X137960166Y-70675515D01*
X137960167Y-70675520D01*
X138019747Y-70845789D01*
X138089153Y-70956247D01*
X138115720Y-70998528D01*
X138243274Y-71126082D01*
X138396014Y-71222055D01*
X138566281Y-71281634D01*
X138566286Y-71281635D01*
X138745532Y-71301831D01*
X138745536Y-71301831D01*
X138745540Y-71301831D01*
X138924785Y-71281635D01*
X138924788Y-71281634D01*
X138924791Y-71281634D01*
X139095058Y-71222055D01*
X139247798Y-71126082D01*
X139375352Y-70998528D01*
X139471325Y-70845788D01*
X139530904Y-70675521D01*
X139530905Y-70675515D01*
X139551101Y-70496269D01*
X139551101Y-70496262D01*
X139530905Y-70317016D01*
X139530904Y-70317011D01*
X139471324Y-70146742D01*
X139451377Y-70114996D01*
X167399910Y-70114996D01*
X167399910Y-70115003D01*
X167418213Y-70277455D01*
X167472211Y-70431774D01*
X167512736Y-70496269D01*
X167559193Y-70570204D01*
X167674797Y-70685808D01*
X167810395Y-70771010D01*
X167856686Y-70823345D01*
X167867334Y-70892398D01*
X167838959Y-70956247D01*
X167832105Y-70963685D01*
X167755092Y-71040698D01*
X167668111Y-71179126D01*
X167614113Y-71333445D01*
X167595810Y-71495897D01*
X167595810Y-71495904D01*
X167614113Y-71658356D01*
X167668111Y-71812675D01*
X167668112Y-71812676D01*
X167755093Y-71951105D01*
X167870697Y-72066709D01*
X168009126Y-72153690D01*
X168163440Y-72207687D01*
X168163443Y-72207687D01*
X168163445Y-72207688D01*
X168325897Y-72225992D01*
X168325901Y-72225992D01*
X168325905Y-72225992D01*
X168488356Y-72207688D01*
X168488357Y-72207687D01*
X168488362Y-72207687D01*
X168642676Y-72153690D01*
X168781105Y-72066709D01*
X168896709Y-71951105D01*
X168983690Y-71812676D01*
X169037687Y-71658362D01*
X169037896Y-71656506D01*
X169055992Y-71495904D01*
X169055992Y-71495897D01*
X169037688Y-71333445D01*
X169037687Y-71333443D01*
X169037687Y-71333440D01*
X168983690Y-71179126D01*
X168896709Y-71040697D01*
X168781105Y-70925093D01*
X168645506Y-70839890D01*
X168599215Y-70787555D01*
X168588567Y-70718501D01*
X168616942Y-70654653D01*
X168623773Y-70647239D01*
X168700809Y-70570204D01*
X168787790Y-70431775D01*
X168841787Y-70277461D01*
X168842794Y-70268528D01*
X168860092Y-70115003D01*
X168860092Y-70114996D01*
X168841788Y-69952544D01*
X168841787Y-69952542D01*
X168841787Y-69952539D01*
X168787790Y-69798225D01*
X168700809Y-69659796D01*
X168585205Y-69544192D01*
X168486390Y-69482102D01*
X168446775Y-69457210D01*
X168292456Y-69403212D01*
X168130005Y-69384909D01*
X168129997Y-69384909D01*
X167967545Y-69403212D01*
X167813226Y-69457210D01*
X167674796Y-69544192D01*
X167559193Y-69659795D01*
X167472211Y-69798225D01*
X167418213Y-69952544D01*
X167399910Y-70114996D01*
X139451377Y-70114996D01*
X139413079Y-70054046D01*
X139394079Y-69986809D01*
X139414447Y-69919974D01*
X139467714Y-69874760D01*
X139536971Y-69865522D01*
X139561400Y-69871890D01*
X139607518Y-69889091D01*
X139667128Y-69895500D01*
X141762873Y-69895499D01*
X141822484Y-69889091D01*
X141957332Y-69838796D01*
X142072547Y-69752546D01*
X142158797Y-69637331D01*
X142209092Y-69502483D01*
X142215171Y-69445935D01*
X142241908Y-69381388D01*
X142299300Y-69341540D01*
X142369125Y-69339046D01*
X142409578Y-69357616D01*
X142587362Y-69482102D01*
X142785671Y-69574575D01*
X142997024Y-69631207D01*
X143175681Y-69646837D01*
X143214999Y-69650277D01*
X143215001Y-69650277D01*
X143215003Y-69650277D01*
X143254321Y-69646837D01*
X143432978Y-69631207D01*
X143644331Y-69574575D01*
X143842640Y-69482102D01*
X144021878Y-69356598D01*
X144176599Y-69201877D01*
X144302103Y-69022639D01*
X144394576Y-68824330D01*
X144451208Y-68612977D01*
X144470278Y-68395000D01*
X144470278Y-68394997D01*
X146659724Y-68394997D01*
X146659724Y-68395002D01*
X146678794Y-68612975D01*
X146678794Y-68612979D01*
X146735423Y-68824322D01*
X146735425Y-68824326D01*
X146735426Y-68824330D01*
X146775152Y-68909522D01*
X146827898Y-69022638D01*
X146827899Y-69022639D01*
X146953403Y-69201877D01*
X147108124Y-69356598D01*
X147287362Y-69482102D01*
X147485671Y-69574575D01*
X147697024Y-69631207D01*
X147875681Y-69646837D01*
X147914999Y-69650277D01*
X147915001Y-69650277D01*
X147915003Y-69650277D01*
X147954321Y-69646837D01*
X148132978Y-69631207D01*
X148344331Y-69574575D01*
X148542640Y-69482102D01*
X148721878Y-69356598D01*
X148876599Y-69201877D01*
X148988928Y-69041453D01*
X149043503Y-68997831D01*
X149113001Y-68990637D01*
X149175356Y-69022160D01*
X149210770Y-69082390D01*
X149214501Y-69112579D01*
X149214501Y-69442870D01*
X149214502Y-69442876D01*
X149220909Y-69502483D01*
X149271203Y-69637328D01*
X149271207Y-69637335D01*
X149357453Y-69752544D01*
X149357456Y-69752547D01*
X149472665Y-69838793D01*
X149472672Y-69838797D01*
X149607518Y-69889091D01*
X149607517Y-69889091D01*
X149614445Y-69889835D01*
X149667128Y-69895500D01*
X151762873Y-69895499D01*
X151822484Y-69889091D01*
X151957332Y-69838796D01*
X152072547Y-69752546D01*
X152158797Y-69637331D01*
X152209092Y-69502483D01*
X152215501Y-69442873D01*
X152215500Y-67347135D01*
X159214501Y-67347135D01*
X159214501Y-69442870D01*
X159214502Y-69442876D01*
X159220909Y-69502483D01*
X159271203Y-69637328D01*
X159271207Y-69637335D01*
X159357453Y-69752544D01*
X159357456Y-69752547D01*
X159472665Y-69838793D01*
X159472672Y-69838797D01*
X159607518Y-69889091D01*
X159607517Y-69889091D01*
X159614445Y-69889835D01*
X159667128Y-69895500D01*
X161762873Y-69895499D01*
X161822484Y-69889091D01*
X161957332Y-69838796D01*
X162072547Y-69752546D01*
X162158797Y-69637331D01*
X162209092Y-69502483D01*
X162215501Y-69442873D01*
X162215500Y-67347135D01*
X169214501Y-67347135D01*
X169214501Y-69442870D01*
X169214502Y-69442876D01*
X169220909Y-69502483D01*
X169271203Y-69637328D01*
X169271207Y-69637335D01*
X169357453Y-69752544D01*
X169357456Y-69752547D01*
X169472665Y-69838793D01*
X169472672Y-69838797D01*
X169607518Y-69889091D01*
X169607517Y-69889091D01*
X169614445Y-69889835D01*
X169667128Y-69895500D01*
X171762873Y-69895499D01*
X171822484Y-69889091D01*
X171957332Y-69838796D01*
X172072547Y-69752546D01*
X172158797Y-69637331D01*
X172209092Y-69502483D01*
X172215501Y-69442873D01*
X172215500Y-67347128D01*
X172209092Y-67287517D01*
X172194941Y-67249577D01*
X172158798Y-67152671D01*
X172158794Y-67152664D01*
X172072548Y-67037455D01*
X172072545Y-67037452D01*
X171957336Y-66951206D01*
X171957329Y-66951202D01*
X171822483Y-66900908D01*
X171822484Y-66900908D01*
X171762884Y-66894501D01*
X171762882Y-66894500D01*
X171762874Y-66894500D01*
X171762865Y-66894500D01*
X169667130Y-66894500D01*
X169667124Y-66894501D01*
X169607517Y-66900908D01*
X169472672Y-66951202D01*
X169472665Y-66951206D01*
X169357456Y-67037452D01*
X169357453Y-67037455D01*
X169271207Y-67152664D01*
X169271203Y-67152671D01*
X169220909Y-67287517D01*
X169218718Y-67307901D01*
X169214502Y-67347123D01*
X169214501Y-67347135D01*
X162215500Y-67347135D01*
X162215500Y-67347128D01*
X162209092Y-67287517D01*
X162194941Y-67249577D01*
X162158798Y-67152671D01*
X162158794Y-67152664D01*
X162072548Y-67037455D01*
X162072545Y-67037452D01*
X161957336Y-66951206D01*
X161957329Y-66951202D01*
X161822483Y-66900908D01*
X161822484Y-66900908D01*
X161762884Y-66894501D01*
X161762882Y-66894500D01*
X161762874Y-66894500D01*
X161762865Y-66894500D01*
X159667130Y-66894500D01*
X159667124Y-66894501D01*
X159607517Y-66900908D01*
X159472672Y-66951202D01*
X159472665Y-66951206D01*
X159357456Y-67037452D01*
X159357453Y-67037455D01*
X159271207Y-67152664D01*
X159271203Y-67152671D01*
X159220909Y-67287517D01*
X159218718Y-67307901D01*
X159214502Y-67347123D01*
X159214501Y-67347135D01*
X152215500Y-67347135D01*
X152215500Y-67347128D01*
X152209092Y-67287517D01*
X152194941Y-67249577D01*
X152158798Y-67152671D01*
X152158794Y-67152664D01*
X152072548Y-67037455D01*
X152072545Y-67037452D01*
X151957336Y-66951206D01*
X151957329Y-66951202D01*
X151822483Y-66900908D01*
X151822484Y-66900908D01*
X151762884Y-66894501D01*
X151762882Y-66894500D01*
X151762874Y-66894500D01*
X151762865Y-66894500D01*
X149667130Y-66894500D01*
X149667124Y-66894501D01*
X149607517Y-66900908D01*
X149472672Y-66951202D01*
X149472665Y-66951206D01*
X149357456Y-67037452D01*
X149357453Y-67037455D01*
X149271207Y-67152664D01*
X149271203Y-67152671D01*
X149220909Y-67287517D01*
X149218718Y-67307901D01*
X149214502Y-67347123D01*
X149214501Y-67347135D01*
X149214501Y-67677420D01*
X149194816Y-67744459D01*
X149142012Y-67790214D01*
X149072854Y-67800158D01*
X149009298Y-67771133D01*
X148988926Y-67748543D01*
X148876600Y-67588124D01*
X148876597Y-67588121D01*
X148721878Y-67433402D01*
X148567460Y-67325277D01*
X148542639Y-67307897D01*
X148417566Y-67249575D01*
X148344331Y-67215425D01*
X148344327Y-67215424D01*
X148344323Y-67215422D01*
X148132978Y-67158793D01*
X147915003Y-67139723D01*
X147914999Y-67139723D01*
X147769683Y-67152436D01*
X147697024Y-67158793D01*
X147697021Y-67158793D01*
X147485678Y-67215422D01*
X147485669Y-67215426D01*
X147287362Y-67307898D01*
X147287358Y-67307900D01*
X147108122Y-67433402D01*
X146953403Y-67588121D01*
X146827901Y-67767357D01*
X146827899Y-67767361D01*
X146735427Y-67965668D01*
X146735423Y-67965677D01*
X146678794Y-68177020D01*
X146678794Y-68177024D01*
X146659724Y-68394997D01*
X144470278Y-68394997D01*
X144451208Y-68177023D01*
X144394576Y-67965670D01*
X144302103Y-67767362D01*
X144302101Y-67767359D01*
X144302100Y-67767357D01*
X144176600Y-67588124D01*
X144176597Y-67588121D01*
X144021878Y-67433402D01*
X143867460Y-67325277D01*
X143842639Y-67307897D01*
X143717566Y-67249575D01*
X143644331Y-67215425D01*
X143644327Y-67215424D01*
X143644323Y-67215422D01*
X143432978Y-67158793D01*
X143215003Y-67139723D01*
X143214999Y-67139723D01*
X143069683Y-67152436D01*
X142997024Y-67158793D01*
X142997021Y-67158793D01*
X142785678Y-67215422D01*
X142785669Y-67215426D01*
X142587362Y-67307898D01*
X142587358Y-67307901D01*
X142409583Y-67432379D01*
X142343377Y-67454706D01*
X142275609Y-67437696D01*
X142227797Y-67386747D01*
X142215170Y-67344057D01*
X142209092Y-67287516D01*
X142158798Y-67152671D01*
X142158794Y-67152664D01*
X142072548Y-67037455D01*
X142072545Y-67037452D01*
X141957336Y-66951206D01*
X141957329Y-66951202D01*
X141822483Y-66900908D01*
X141822484Y-66900908D01*
X141762884Y-66894501D01*
X141762882Y-66894500D01*
X141762874Y-66894500D01*
X141762866Y-66894500D01*
X141281644Y-66894500D01*
X141214605Y-66874815D01*
X141168850Y-66822011D01*
X141158906Y-66752853D01*
X141168088Y-66720690D01*
X141239064Y-66558881D01*
X141300108Y-66317824D01*
X141300109Y-66317821D01*
X141320644Y-66070000D01*
X141300109Y-65822179D01*
X141254146Y-65640677D01*
X141239064Y-65581118D01*
X141139174Y-65353393D01*
X141003167Y-65145217D01*
X140969276Y-65108402D01*
X140834745Y-64962262D01*
X140638510Y-64809526D01*
X140638508Y-64809525D01*
X140638507Y-64809524D01*
X140419812Y-64691172D01*
X140419803Y-64691169D01*
X140184617Y-64610429D01*
X139939336Y-64569500D01*
X139690666Y-64569500D01*
X139445384Y-64610429D01*
X139210198Y-64691169D01*
X139210189Y-64691172D01*
X138991494Y-64809524D01*
X138795258Y-64962261D01*
X138626834Y-65145217D01*
X138490827Y-65353393D01*
X138390937Y-65581118D01*
X138329893Y-65822175D01*
X138329891Y-65822187D01*
X138309358Y-66069994D01*
X138309358Y-66070005D01*
X138329891Y-66317812D01*
X138329893Y-66317824D01*
X138390937Y-66558881D01*
X138490827Y-66786606D01*
X138620454Y-66985016D01*
X138640642Y-67051905D01*
X138621461Y-67119091D01*
X138569002Y-67165241D01*
X138499921Y-67175704D01*
X138484552Y-67172612D01*
X138432978Y-67158793D01*
X138215003Y-67139723D01*
X138214999Y-67139723D01*
X138069683Y-67152436D01*
X137997024Y-67158793D01*
X137997021Y-67158793D01*
X137785678Y-67215422D01*
X137785669Y-67215426D01*
X137587362Y-67307898D01*
X137587358Y-67307900D01*
X137408122Y-67433402D01*
X137253403Y-67588121D01*
X137127901Y-67767357D01*
X137127899Y-67767361D01*
X137035427Y-67965668D01*
X137035423Y-67965677D01*
X136978794Y-68177020D01*
X136978794Y-68177024D01*
X136959724Y-68394997D01*
X132436975Y-68394997D01*
X132435370Y-68380750D01*
X132435369Y-68380745D01*
X132375789Y-68210476D01*
X132279816Y-68057737D01*
X132152263Y-67930184D01*
X131999524Y-67834211D01*
X131829255Y-67774631D01*
X131829250Y-67774630D01*
X131650005Y-67754435D01*
X131649997Y-67754435D01*
X131470751Y-67774630D01*
X131470746Y-67774631D01*
X131300477Y-67834211D01*
X131147738Y-67930184D01*
X131020185Y-68057737D01*
X130924212Y-68210476D01*
X130864632Y-68380745D01*
X130864631Y-68380750D01*
X130844436Y-68559996D01*
X115508485Y-68559996D01*
X115508002Y-66069997D01*
X132359724Y-66069997D01*
X132359724Y-66070002D01*
X132378794Y-66287975D01*
X132378794Y-66287979D01*
X132435423Y-66499322D01*
X132435425Y-66499326D01*
X132435426Y-66499330D01*
X132463195Y-66558881D01*
X132527898Y-66697638D01*
X132552999Y-66733486D01*
X132653403Y-66876877D01*
X132808124Y-67031598D01*
X132987362Y-67157102D01*
X133185671Y-67249575D01*
X133397024Y-67306207D01*
X133579927Y-67322208D01*
X133614999Y-67325277D01*
X133615001Y-67325277D01*
X133615003Y-67325277D01*
X133643255Y-67322805D01*
X133832978Y-67306207D01*
X134044331Y-67249575D01*
X134242640Y-67157102D01*
X134421878Y-67031598D01*
X134576599Y-66876877D01*
X134702103Y-66697639D01*
X134794576Y-66499330D01*
X134851208Y-66287977D01*
X134870278Y-66070000D01*
X134870277Y-66069994D01*
X134866570Y-66027618D01*
X134851208Y-65852023D01*
X134794576Y-65640670D01*
X134702103Y-65442362D01*
X134702101Y-65442359D01*
X134702100Y-65442357D01*
X134576600Y-65263124D01*
X134576597Y-65263121D01*
X134421878Y-65108402D01*
X134242640Y-64982898D01*
X134242641Y-64982898D01*
X134242639Y-64982897D01*
X134143485Y-64936661D01*
X134044331Y-64890425D01*
X134044327Y-64890424D01*
X134044323Y-64890422D01*
X133832978Y-64833793D01*
X133615003Y-64814723D01*
X133614999Y-64814723D01*
X133469683Y-64827436D01*
X133397024Y-64833793D01*
X133397021Y-64833793D01*
X133185678Y-64890422D01*
X133185669Y-64890426D01*
X132987362Y-64982898D01*
X132987358Y-64982900D01*
X132808122Y-65108402D01*
X132653403Y-65263121D01*
X132527901Y-65442357D01*
X132527899Y-65442361D01*
X132435427Y-65640668D01*
X132435423Y-65640677D01*
X132378794Y-65852020D01*
X132378794Y-65852024D01*
X132359724Y-66069997D01*
X115508002Y-66069997D01*
X115507487Y-63419996D01*
X141504910Y-63419996D01*
X141504910Y-63420003D01*
X141523213Y-63582455D01*
X141577211Y-63736774D01*
X141634207Y-63827482D01*
X141664193Y-63875204D01*
X141779797Y-63990808D01*
X141918226Y-64077789D01*
X142072540Y-64131786D01*
X142072543Y-64131786D01*
X142072545Y-64131787D01*
X142234997Y-64150091D01*
X142235001Y-64150091D01*
X142235005Y-64150091D01*
X142397456Y-64131787D01*
X142397457Y-64131786D01*
X142397462Y-64131786D01*
X142551776Y-64077789D01*
X142690205Y-63990808D01*
X142805809Y-63875204D01*
X142809081Y-63869996D01*
X144729910Y-63869996D01*
X144729910Y-63870003D01*
X144748213Y-64032455D01*
X144802211Y-64186774D01*
X144823402Y-64220499D01*
X144889193Y-64325204D01*
X145004797Y-64440808D01*
X145143226Y-64527789D01*
X145297540Y-64581786D01*
X145297543Y-64581786D01*
X145297545Y-64581787D01*
X145459997Y-64600091D01*
X145460001Y-64600091D01*
X145460005Y-64600091D01*
X145622456Y-64581787D01*
X145622457Y-64581786D01*
X145622462Y-64581786D01*
X145776776Y-64527789D01*
X145915205Y-64440808D01*
X146030809Y-64325204D01*
X146117790Y-64186775D01*
X146171787Y-64032461D01*
X146171788Y-64032455D01*
X146190092Y-63870003D01*
X146190092Y-63869996D01*
X146171788Y-63707542D01*
X146171787Y-63707539D01*
X146134541Y-63601098D01*
X146130979Y-63531322D01*
X146146588Y-63494175D01*
X146207790Y-63396775D01*
X146261787Y-63242461D01*
X146261788Y-63242453D01*
X146280092Y-63080003D01*
X146280092Y-63079996D01*
X146261788Y-62917544D01*
X146261787Y-62917542D01*
X146261787Y-62917539D01*
X146207790Y-62763225D01*
X146120809Y-62624796D01*
X146005205Y-62509192D01*
X145960435Y-62481061D01*
X145866775Y-62422210D01*
X145712456Y-62368212D01*
X145550005Y-62349909D01*
X145549997Y-62349909D01*
X145387545Y-62368212D01*
X145233226Y-62422210D01*
X145094796Y-62509192D01*
X144979193Y-62624795D01*
X144892211Y-62763225D01*
X144838213Y-62917544D01*
X144819910Y-63079996D01*
X144819910Y-63080003D01*
X144838213Y-63242453D01*
X144838214Y-63242455D01*
X144838215Y-63242461D01*
X144875460Y-63348901D01*
X144879021Y-63418677D01*
X144863412Y-63455825D01*
X144802211Y-63553225D01*
X144748213Y-63707544D01*
X144729910Y-63869996D01*
X142809081Y-63869996D01*
X142892790Y-63736775D01*
X142946787Y-63582461D01*
X142946787Y-63582459D01*
X142949087Y-63575887D01*
X142950696Y-63576450D01*
X142980508Y-63523136D01*
X142995318Y-63511448D01*
X142995294Y-63511417D01*
X143000734Y-63507077D01*
X143000740Y-63507074D01*
X143116344Y-63391470D01*
X143203325Y-63253041D01*
X143257322Y-63098727D01*
X143259432Y-63080000D01*
X143275627Y-62936269D01*
X143275627Y-62936262D01*
X143257323Y-62773810D01*
X143257322Y-62773808D01*
X143257322Y-62773805D01*
X143203325Y-62619491D01*
X143116344Y-62481062D01*
X143097424Y-62462142D01*
X143063939Y-62400819D01*
X143061885Y-62360575D01*
X143062277Y-62357102D01*
X143064726Y-62335365D01*
X143060657Y-62299255D01*
X143046422Y-62172909D01*
X143046421Y-62172907D01*
X143046421Y-62172904D01*
X142992424Y-62018590D01*
X142905443Y-61880161D01*
X142789839Y-61764557D01*
X142686033Y-61699331D01*
X142651409Y-61677575D01*
X142635862Y-61672135D01*
X149214501Y-61672135D01*
X149214501Y-63767870D01*
X149214502Y-63767876D01*
X149220909Y-63827483D01*
X149271203Y-63962328D01*
X149271207Y-63962335D01*
X149357453Y-64077544D01*
X149357456Y-64077547D01*
X149472665Y-64163793D01*
X149472672Y-64163797D01*
X149607518Y-64214091D01*
X149607517Y-64214091D01*
X149614445Y-64214835D01*
X149667128Y-64220500D01*
X151762873Y-64220499D01*
X151822484Y-64214091D01*
X151957332Y-64163796D01*
X152072547Y-64077546D01*
X152158797Y-63962331D01*
X152209092Y-63827483D01*
X152215501Y-63767873D01*
X152215500Y-61672128D01*
X152209092Y-61612517D01*
X152162642Y-61487979D01*
X152158798Y-61477671D01*
X152158794Y-61477664D01*
X152072548Y-61362455D01*
X152072545Y-61362452D01*
X151957336Y-61276206D01*
X151957329Y-61276202D01*
X151822483Y-61225908D01*
X151822484Y-61225908D01*
X151762884Y-61219501D01*
X151762882Y-61219500D01*
X151762874Y-61219500D01*
X151762865Y-61219500D01*
X149667130Y-61219500D01*
X149667124Y-61219501D01*
X149607517Y-61225908D01*
X149472672Y-61276202D01*
X149472665Y-61276206D01*
X149357456Y-61362452D01*
X149357453Y-61362455D01*
X149271207Y-61477664D01*
X149271203Y-61477671D01*
X149220909Y-61612517D01*
X149214502Y-61672116D01*
X149214502Y-61672123D01*
X149214501Y-61672135D01*
X142635862Y-61672135D01*
X142497090Y-61623577D01*
X142334639Y-61605274D01*
X142334631Y-61605274D01*
X142172179Y-61623577D01*
X142017860Y-61677575D01*
X141879430Y-61764557D01*
X141763827Y-61880160D01*
X141676845Y-62018590D01*
X141622847Y-62172909D01*
X141604544Y-62335361D01*
X141604544Y-62335368D01*
X141622847Y-62497820D01*
X141676846Y-62652141D01*
X141735127Y-62744894D01*
X141738219Y-62749815D01*
X141739999Y-62752647D01*
X141759000Y-62819884D01*
X141738633Y-62886719D01*
X141722688Y-62906301D01*
X141664192Y-62964797D01*
X141577211Y-63103225D01*
X141523213Y-63257544D01*
X141504910Y-63419996D01*
X115507487Y-63419996D01*
X115507070Y-61269997D01*
X132359724Y-61269997D01*
X132359724Y-61270002D01*
X132360267Y-61276204D01*
X132377892Y-61477671D01*
X132378794Y-61487975D01*
X132378794Y-61487979D01*
X132435423Y-61699322D01*
X132435425Y-61699326D01*
X132435426Y-61699330D01*
X132465842Y-61764557D01*
X132527898Y-61897638D01*
X132527899Y-61897639D01*
X132653403Y-62076877D01*
X132808124Y-62231598D01*
X132987362Y-62357102D01*
X133185671Y-62449575D01*
X133397024Y-62506207D01*
X133579927Y-62522208D01*
X133614999Y-62525277D01*
X133615001Y-62525277D01*
X133615003Y-62525277D01*
X133643255Y-62522805D01*
X133832978Y-62506207D01*
X134044331Y-62449575D01*
X134242640Y-62357102D01*
X134421878Y-62231598D01*
X134576599Y-62076877D01*
X134702103Y-61897639D01*
X134794576Y-61699330D01*
X134851208Y-61487977D01*
X134869735Y-61276204D01*
X134870278Y-61270002D01*
X134870278Y-61269997D01*
X134865860Y-61219500D01*
X134851208Y-61052023D01*
X134794576Y-60840670D01*
X134702103Y-60642362D01*
X134702101Y-60642359D01*
X134702100Y-60642357D01*
X134700447Y-60639996D01*
X136654436Y-60639996D01*
X136654436Y-60640003D01*
X136674631Y-60819249D01*
X136674632Y-60819254D01*
X136734212Y-60989523D01*
X136830185Y-61142262D01*
X136957741Y-61269818D01*
X136992284Y-61291522D01*
X137038576Y-61343856D01*
X137049225Y-61412909D01*
X137020850Y-61476758D01*
X137012380Y-61484977D01*
X137012663Y-61485260D01*
X136880185Y-61617737D01*
X136784212Y-61770476D01*
X136724632Y-61940745D01*
X136724631Y-61940750D01*
X136704436Y-62119996D01*
X136704436Y-62120003D01*
X136724631Y-62299249D01*
X136724632Y-62299254D01*
X136784212Y-62469523D01*
X136809138Y-62509192D01*
X136880185Y-62622262D01*
X137007739Y-62749816D01*
X137072597Y-62790569D01*
X137139700Y-62832733D01*
X137160479Y-62845789D01*
X137277450Y-62886719D01*
X137330746Y-62905368D01*
X137330751Y-62905369D01*
X137509997Y-62925565D01*
X137510001Y-62925565D01*
X137510005Y-62925565D01*
X137689250Y-62905369D01*
X137689253Y-62905368D01*
X137689256Y-62905368D01*
X137859523Y-62845789D01*
X138012263Y-62749816D01*
X138139817Y-62622262D01*
X138235790Y-62469522D01*
X138295369Y-62299255D01*
X138309605Y-62172909D01*
X138315566Y-62120003D01*
X138315566Y-62119996D01*
X138295370Y-61940750D01*
X138295369Y-61940745D01*
X138235790Y-61770478D01*
X138139817Y-61617738D01*
X138012263Y-61490184D01*
X137977715Y-61468476D01*
X137931425Y-61416142D01*
X137920777Y-61347089D01*
X137949152Y-61283240D01*
X137957623Y-61275024D01*
X137957339Y-61274740D01*
X138012579Y-61219500D01*
X138089817Y-61142262D01*
X138185790Y-60989522D01*
X138245369Y-60819255D01*
X138245370Y-60819249D01*
X138265566Y-60640003D01*
X138265566Y-60639996D01*
X138245370Y-60460750D01*
X138245369Y-60460745D01*
X138224396Y-60400807D01*
X138207036Y-60351196D01*
X140888836Y-60351196D01*
X140888836Y-60351203D01*
X140909031Y-60530449D01*
X140909032Y-60530454D01*
X140968612Y-60700723D01*
X141043091Y-60819254D01*
X141064585Y-60853462D01*
X141192139Y-60981016D01*
X141344879Y-61076989D01*
X141515146Y-61136568D01*
X141515151Y-61136569D01*
X141694397Y-61156765D01*
X141694401Y-61156765D01*
X141694405Y-61156765D01*
X141873650Y-61136569D01*
X141873653Y-61136568D01*
X141873656Y-61136568D01*
X142043923Y-61076989D01*
X142196663Y-60981016D01*
X142324217Y-60853462D01*
X142420190Y-60700722D01*
X142479769Y-60530455D01*
X142479770Y-60530449D01*
X142499966Y-60351203D01*
X142499966Y-60351196D01*
X142479770Y-60171950D01*
X142479769Y-60171945D01*
X142451243Y-60090422D01*
X142420190Y-60001678D01*
X142324217Y-59848938D01*
X142305275Y-59829996D01*
X144895445Y-59829996D01*
X144895445Y-59830003D01*
X144913748Y-59992455D01*
X144913749Y-59992460D01*
X144913750Y-59992461D01*
X144916975Y-60001678D01*
X144967746Y-60146774D01*
X144990446Y-60182900D01*
X145054728Y-60285204D01*
X145170332Y-60400808D01*
X145308761Y-60487789D01*
X145463075Y-60541786D01*
X145463078Y-60541786D01*
X145463080Y-60541787D01*
X145625532Y-60560091D01*
X145625536Y-60560091D01*
X145625540Y-60560091D01*
X145787991Y-60541787D01*
X145787992Y-60541786D01*
X145787997Y-60541786D01*
X145942311Y-60487789D01*
X146080740Y-60400808D01*
X146196344Y-60285204D01*
X146283325Y-60146775D01*
X146337322Y-59992461D01*
X146352852Y-59854630D01*
X146355627Y-59830003D01*
X146355627Y-59829996D01*
X146337323Y-59667542D01*
X146322581Y-59625411D01*
X146297636Y-59554126D01*
X146294075Y-59484348D01*
X146297637Y-59472217D01*
X146299540Y-59466777D01*
X146299542Y-59466775D01*
X146353539Y-59312461D01*
X146353539Y-59312459D01*
X146353540Y-59312457D01*
X146371844Y-59150003D01*
X146371844Y-59149996D01*
X146353540Y-58987544D01*
X146353539Y-58987542D01*
X146353539Y-58987539D01*
X146299542Y-58833225D01*
X146212561Y-58694796D01*
X146096957Y-58579192D01*
X146070118Y-58562328D01*
X145958527Y-58492210D01*
X145804208Y-58438212D01*
X145641757Y-58419909D01*
X145641749Y-58419909D01*
X145479297Y-58438212D01*
X145324978Y-58492210D01*
X145186548Y-58579192D01*
X145070945Y-58694795D01*
X144983963Y-58833225D01*
X144929965Y-58987544D01*
X144911662Y-59149996D01*
X144911662Y-59150003D01*
X144929965Y-59312455D01*
X144969651Y-59425873D01*
X144973212Y-59495652D01*
X144969651Y-59507781D01*
X144913748Y-59667544D01*
X144895445Y-59829996D01*
X142305275Y-59829996D01*
X142196663Y-59721384D01*
X142043924Y-59625411D01*
X141873655Y-59565831D01*
X141873650Y-59565830D01*
X141694405Y-59545635D01*
X141694397Y-59545635D01*
X141515151Y-59565830D01*
X141515146Y-59565831D01*
X141344877Y-59625411D01*
X141192138Y-59721384D01*
X141064585Y-59848937D01*
X140968612Y-60001676D01*
X140909032Y-60171945D01*
X140909031Y-60171950D01*
X140888836Y-60351196D01*
X138207036Y-60351196D01*
X138185790Y-60290478D01*
X138089817Y-60137738D01*
X137962263Y-60010184D01*
X137934057Y-59992461D01*
X137809524Y-59914211D01*
X137639255Y-59854631D01*
X137639250Y-59854630D01*
X137460005Y-59834435D01*
X137459997Y-59834435D01*
X137280751Y-59854630D01*
X137280746Y-59854631D01*
X137110477Y-59914211D01*
X136957738Y-60010184D01*
X136830185Y-60137737D01*
X136734212Y-60290476D01*
X136674632Y-60460745D01*
X136674631Y-60460750D01*
X136654436Y-60639996D01*
X134700447Y-60639996D01*
X134576600Y-60463124D01*
X134514283Y-60400807D01*
X134421878Y-60308402D01*
X134242640Y-60182898D01*
X134242641Y-60182898D01*
X134242639Y-60182897D01*
X134143485Y-60136661D01*
X134044331Y-60090425D01*
X134044327Y-60090424D01*
X134044323Y-60090422D01*
X133832978Y-60033793D01*
X133615003Y-60014723D01*
X133614999Y-60014723D01*
X133469683Y-60027436D01*
X133397024Y-60033793D01*
X133397021Y-60033793D01*
X133185678Y-60090422D01*
X133185669Y-60090426D01*
X132987362Y-60182898D01*
X132987358Y-60182900D01*
X132808122Y-60308402D01*
X132653403Y-60463121D01*
X132527901Y-60642357D01*
X132527899Y-60642361D01*
X132447101Y-60815631D01*
X132445413Y-60819254D01*
X132435427Y-60840668D01*
X132435423Y-60840677D01*
X132378794Y-61052020D01*
X132378794Y-61052023D01*
X132377892Y-61062331D01*
X132359724Y-61269997D01*
X115507070Y-61269997D01*
X115506036Y-55943959D01*
X115506095Y-55941265D01*
X116649958Y-55941265D01*
X116649958Y-55941266D01*
X116670258Y-56328605D01*
X116727177Y-56687977D01*
X116730934Y-56711699D01*
X116781209Y-56899330D01*
X116831324Y-57086360D01*
X116970323Y-57448463D01*
X117146413Y-57794059D01*
X117357658Y-58119348D01*
X117357660Y-58119350D01*
X117601755Y-58420782D01*
X117876020Y-58695047D01*
X117897594Y-58712517D01*
X118177453Y-58939143D01*
X118502742Y-59150388D01*
X118502747Y-59150391D01*
X118848342Y-59326480D01*
X119210449Y-59465480D01*
X119585103Y-59565868D01*
X119968198Y-59626544D01*
X120334112Y-59645721D01*
X120355535Y-59646844D01*
X120355536Y-59646844D01*
X120355537Y-59646844D01*
X120375837Y-59645780D01*
X120742874Y-59626544D01*
X121125969Y-59565868D01*
X121500623Y-59465480D01*
X121862730Y-59326480D01*
X122208325Y-59150391D01*
X122533620Y-58939142D01*
X122835052Y-58695047D01*
X123109317Y-58420782D01*
X123353412Y-58119350D01*
X123564661Y-57794055D01*
X123740750Y-57448460D01*
X123879750Y-57086353D01*
X123980138Y-56711699D01*
X124004165Y-56559996D01*
X130354436Y-56559996D01*
X130354436Y-56560003D01*
X130374631Y-56739249D01*
X130374632Y-56739254D01*
X130434212Y-56909523D01*
X130465226Y-56958881D01*
X130530185Y-57062262D01*
X130657739Y-57189816D01*
X130748081Y-57246582D01*
X130796295Y-57276877D01*
X130810479Y-57285789D01*
X130980746Y-57345368D01*
X130980751Y-57345369D01*
X131159997Y-57365565D01*
X131160001Y-57365565D01*
X131160005Y-57365565D01*
X131339250Y-57345369D01*
X131339253Y-57345368D01*
X131339256Y-57345368D01*
X131509523Y-57285789D01*
X131662263Y-57189816D01*
X131789817Y-57062262D01*
X131885790Y-56909522D01*
X131945369Y-56739255D01*
X131948474Y-56711699D01*
X131965566Y-56560003D01*
X131965566Y-56559996D01*
X131955426Y-56469997D01*
X132359724Y-56469997D01*
X132359724Y-56470002D01*
X132378794Y-56687975D01*
X132378794Y-56687979D01*
X132435423Y-56899322D01*
X132435425Y-56899326D01*
X132435426Y-56899330D01*
X132463195Y-56958881D01*
X132527898Y-57097638D01*
X132527899Y-57097639D01*
X132653403Y-57276877D01*
X132808124Y-57431598D01*
X132987362Y-57557102D01*
X133185671Y-57649575D01*
X133397024Y-57706207D01*
X133579927Y-57722208D01*
X133614999Y-57725277D01*
X133615001Y-57725277D01*
X133615003Y-57725277D01*
X133643255Y-57722805D01*
X133832978Y-57706207D01*
X134044331Y-57649575D01*
X134242640Y-57557102D01*
X134421878Y-57431598D01*
X134576599Y-57276877D01*
X134702103Y-57097639D01*
X134794576Y-56899330D01*
X134851208Y-56687977D01*
X134870278Y-56470000D01*
X134870277Y-56469994D01*
X134862469Y-56380745D01*
X134851208Y-56252023D01*
X134794576Y-56040670D01*
X134702103Y-55842362D01*
X134700885Y-55840622D01*
X134700585Y-55839733D01*
X134699394Y-55837670D01*
X134699808Y-55837430D01*
X134678557Y-55774415D01*
X134695569Y-55706648D01*
X134746517Y-55658836D01*
X134802456Y-55645499D01*
X136762873Y-55645499D01*
X136822484Y-55639091D01*
X136957332Y-55588796D01*
X137072547Y-55502546D01*
X137158797Y-55387331D01*
X137209092Y-55252483D01*
X137215171Y-55195935D01*
X137241908Y-55131388D01*
X137299300Y-55091540D01*
X137369125Y-55089046D01*
X137409578Y-55107616D01*
X137587362Y-55232102D01*
X137785671Y-55324575D01*
X137997024Y-55381207D01*
X138179927Y-55397208D01*
X138214999Y-55400277D01*
X138215001Y-55400277D01*
X138215003Y-55400277D01*
X138243255Y-55397805D01*
X138432978Y-55381207D01*
X138484550Y-55367388D01*
X138554400Y-55369050D01*
X138612263Y-55408211D01*
X138639768Y-55472439D01*
X138628182Y-55541342D01*
X138620454Y-55554983D01*
X138490827Y-55753393D01*
X138390937Y-55981118D01*
X138329893Y-56222175D01*
X138329891Y-56222187D01*
X138309358Y-56469994D01*
X138309358Y-56470005D01*
X138329891Y-56717812D01*
X138329893Y-56717824D01*
X138390937Y-56958881D01*
X138490827Y-57186606D01*
X138626834Y-57394782D01*
X138626837Y-57394785D01*
X138795257Y-57577738D01*
X138991492Y-57730474D01*
X139210191Y-57848828D01*
X139445387Y-57929571D01*
X139690666Y-57970500D01*
X139939336Y-57970500D01*
X140184615Y-57929571D01*
X140419811Y-57848828D01*
X140638510Y-57730474D01*
X140834745Y-57577738D01*
X141003165Y-57394785D01*
X141139174Y-57186607D01*
X141239064Y-56958881D01*
X141300109Y-56717821D01*
X141300110Y-56717812D01*
X141320644Y-56470005D01*
X141320644Y-56469994D01*
X141304249Y-56272135D01*
X149214501Y-56272135D01*
X149214501Y-58367870D01*
X149214502Y-58367876D01*
X149220909Y-58427483D01*
X149271203Y-58562328D01*
X149271207Y-58562335D01*
X149357453Y-58677544D01*
X149357456Y-58677547D01*
X149472665Y-58763793D01*
X149472672Y-58763797D01*
X149607518Y-58814091D01*
X149607517Y-58814091D01*
X149614445Y-58814835D01*
X149667128Y-58820500D01*
X151762873Y-58820499D01*
X151822484Y-58814091D01*
X151934974Y-58772135D01*
X169214501Y-58772135D01*
X169214501Y-60867870D01*
X169214502Y-60867876D01*
X169220909Y-60927483D01*
X169271203Y-61062328D01*
X169271207Y-61062335D01*
X169357453Y-61177544D01*
X169357456Y-61177547D01*
X169472665Y-61263793D01*
X169472672Y-61263797D01*
X169607518Y-61314091D01*
X169607517Y-61314091D01*
X169614445Y-61314835D01*
X169667128Y-61320500D01*
X171762873Y-61320499D01*
X171822484Y-61314091D01*
X171957332Y-61263796D01*
X172072547Y-61177546D01*
X172158797Y-61062331D01*
X172209092Y-60927483D01*
X172215501Y-60867873D01*
X172215500Y-58772128D01*
X172209092Y-58712517D01*
X172202577Y-58695050D01*
X172158798Y-58577671D01*
X172158794Y-58577664D01*
X172072548Y-58462455D01*
X172072545Y-58462452D01*
X171957336Y-58376206D01*
X171957329Y-58376202D01*
X171822483Y-58325908D01*
X171822484Y-58325908D01*
X171762884Y-58319501D01*
X171762882Y-58319500D01*
X171762874Y-58319500D01*
X171762865Y-58319500D01*
X169667130Y-58319500D01*
X169667124Y-58319501D01*
X169607517Y-58325908D01*
X169472672Y-58376202D01*
X169472665Y-58376206D01*
X169357456Y-58462452D01*
X169357453Y-58462455D01*
X169271207Y-58577664D01*
X169271203Y-58577671D01*
X169220909Y-58712517D01*
X169214502Y-58772116D01*
X169214502Y-58772123D01*
X169214501Y-58772135D01*
X151934974Y-58772135D01*
X151957332Y-58763796D01*
X152072547Y-58677546D01*
X152158797Y-58562331D01*
X152209092Y-58427483D01*
X152215501Y-58367873D01*
X152215500Y-56272128D01*
X152210300Y-56223757D01*
X152209092Y-56212516D01*
X152158798Y-56077671D01*
X152158794Y-56077664D01*
X152072548Y-55962455D01*
X152072545Y-55962452D01*
X151957336Y-55876206D01*
X151957329Y-55876202D01*
X151822483Y-55825908D01*
X151822484Y-55825908D01*
X151762884Y-55819501D01*
X151762882Y-55819500D01*
X151762874Y-55819500D01*
X151762865Y-55819500D01*
X149667130Y-55819500D01*
X149667124Y-55819501D01*
X149607517Y-55825908D01*
X149472672Y-55876202D01*
X149472665Y-55876206D01*
X149357456Y-55962452D01*
X149357453Y-55962455D01*
X149271207Y-56077664D01*
X149271203Y-56077671D01*
X149220909Y-56212517D01*
X149216662Y-56252023D01*
X149214502Y-56272123D01*
X149214501Y-56272135D01*
X141304249Y-56272135D01*
X141300110Y-56222187D01*
X141300108Y-56222175D01*
X141239064Y-55981118D01*
X141139174Y-55753393D01*
X141003167Y-55545217D01*
X140963885Y-55502546D01*
X140834745Y-55362262D01*
X140638510Y-55209526D01*
X140638508Y-55209525D01*
X140638507Y-55209524D01*
X140419812Y-55091172D01*
X140419803Y-55091169D01*
X140184617Y-55010429D01*
X139939336Y-54969500D01*
X139690666Y-54969500D01*
X139445384Y-55010429D01*
X139397960Y-55026710D01*
X139328161Y-55029860D01*
X139267740Y-54994774D01*
X139235879Y-54932591D01*
X139242695Y-54863054D01*
X139256123Y-54838305D01*
X139302103Y-54772639D01*
X139394576Y-54574330D01*
X139451208Y-54362977D01*
X139470278Y-54145000D01*
X139470278Y-54144997D01*
X141959724Y-54144997D01*
X141959724Y-54145002D01*
X141978794Y-54362975D01*
X141978794Y-54362979D01*
X142035423Y-54574322D01*
X142035425Y-54574326D01*
X142035426Y-54574330D01*
X142074319Y-54657737D01*
X142127898Y-54772638D01*
X142127899Y-54772639D01*
X142253403Y-54951877D01*
X142408124Y-55106598D01*
X142587362Y-55232102D01*
X142785671Y-55324575D01*
X142997024Y-55381207D01*
X143179927Y-55397208D01*
X143214999Y-55400277D01*
X143215001Y-55400277D01*
X143215003Y-55400277D01*
X143243255Y-55397805D01*
X143432978Y-55381207D01*
X143644331Y-55324575D01*
X143842640Y-55232102D01*
X144020419Y-55107619D01*
X144086623Y-55085292D01*
X144154390Y-55102302D01*
X144202204Y-55153249D01*
X144214831Y-55195939D01*
X144220910Y-55252483D01*
X144271203Y-55387328D01*
X144271207Y-55387335D01*
X144357453Y-55502544D01*
X144357456Y-55502547D01*
X144472665Y-55588793D01*
X144472672Y-55588797D01*
X144607518Y-55639091D01*
X144607517Y-55639091D01*
X144614445Y-55639835D01*
X144667128Y-55645500D01*
X146762873Y-55645499D01*
X146822484Y-55639091D01*
X146957332Y-55588796D01*
X147072547Y-55502546D01*
X147158797Y-55387331D01*
X147180248Y-55329815D01*
X147222118Y-55273883D01*
X147287582Y-55249465D01*
X147348833Y-55260766D01*
X147485671Y-55324575D01*
X147697024Y-55381207D01*
X147879927Y-55397208D01*
X147914999Y-55400277D01*
X147915001Y-55400277D01*
X147915003Y-55400277D01*
X147943255Y-55397805D01*
X148132978Y-55381207D01*
X148344331Y-55324575D01*
X148542640Y-55232102D01*
X148721878Y-55106598D01*
X148876599Y-54951877D01*
X149002103Y-54772639D01*
X149094576Y-54574330D01*
X149151208Y-54362977D01*
X149170278Y-54145000D01*
X149151208Y-53927023D01*
X149094576Y-53715670D01*
X149002103Y-53517362D01*
X149002101Y-53517359D01*
X149002100Y-53517357D01*
X148876600Y-53338124D01*
X148841025Y-53302549D01*
X148721878Y-53183402D01*
X148598676Y-53097135D01*
X154214501Y-53097135D01*
X154214501Y-55192870D01*
X154214502Y-55192876D01*
X154220909Y-55252483D01*
X154271203Y-55387328D01*
X154271207Y-55387335D01*
X154357453Y-55502544D01*
X154357456Y-55502547D01*
X154472665Y-55588793D01*
X154472672Y-55588797D01*
X154607518Y-55639091D01*
X154607517Y-55639091D01*
X154614445Y-55639835D01*
X154667128Y-55645500D01*
X156762873Y-55645499D01*
X156822484Y-55639091D01*
X156957332Y-55588796D01*
X157072547Y-55502546D01*
X157158797Y-55387331D01*
X157209092Y-55252483D01*
X157215501Y-55192873D01*
X157215500Y-53097135D01*
X164214501Y-53097135D01*
X164214501Y-55192870D01*
X164214502Y-55192876D01*
X164220909Y-55252483D01*
X164271203Y-55387328D01*
X164271207Y-55387335D01*
X164357453Y-55502544D01*
X164357456Y-55502547D01*
X164472665Y-55588793D01*
X164472672Y-55588797D01*
X164607518Y-55639091D01*
X164607517Y-55639091D01*
X164614445Y-55639835D01*
X164667128Y-55645500D01*
X166762873Y-55645499D01*
X166822484Y-55639091D01*
X166957332Y-55588796D01*
X167072547Y-55502546D01*
X167158797Y-55387331D01*
X167209092Y-55252483D01*
X167215501Y-55192873D01*
X167215500Y-53097128D01*
X167209092Y-53037517D01*
X167182204Y-52965427D01*
X167158798Y-52902671D01*
X167158794Y-52902664D01*
X167072548Y-52787455D01*
X167072545Y-52787452D01*
X166957336Y-52701206D01*
X166957329Y-52701202D01*
X166822483Y-52650908D01*
X166822484Y-52650908D01*
X166762884Y-52644501D01*
X166762882Y-52644500D01*
X166762874Y-52644500D01*
X166762865Y-52644500D01*
X164667130Y-52644500D01*
X164667124Y-52644501D01*
X164607517Y-52650908D01*
X164472672Y-52701202D01*
X164472665Y-52701206D01*
X164357456Y-52787452D01*
X164357453Y-52787455D01*
X164271207Y-52902664D01*
X164271203Y-52902671D01*
X164220909Y-53037517D01*
X164214502Y-53097116D01*
X164214502Y-53097123D01*
X164214501Y-53097135D01*
X157215500Y-53097135D01*
X157215500Y-53097128D01*
X157209092Y-53037517D01*
X157182204Y-52965427D01*
X157158798Y-52902671D01*
X157158794Y-52902664D01*
X157072548Y-52787455D01*
X157072545Y-52787452D01*
X156957336Y-52701206D01*
X156957329Y-52701202D01*
X156822483Y-52650908D01*
X156822484Y-52650908D01*
X156762884Y-52644501D01*
X156762882Y-52644500D01*
X156762874Y-52644500D01*
X156762865Y-52644500D01*
X154667130Y-52644500D01*
X154667124Y-52644501D01*
X154607517Y-52650908D01*
X154472672Y-52701202D01*
X154472665Y-52701206D01*
X154357456Y-52787452D01*
X154357453Y-52787455D01*
X154271207Y-52902664D01*
X154271203Y-52902671D01*
X154220909Y-53037517D01*
X154214502Y-53097116D01*
X154214502Y-53097123D01*
X154214501Y-53097135D01*
X148598676Y-53097135D01*
X148583979Y-53086844D01*
X148542639Y-53057897D01*
X148442504Y-53011204D01*
X148344331Y-52965425D01*
X148344327Y-52965424D01*
X148344323Y-52965422D01*
X148132978Y-52908793D01*
X147915003Y-52889723D01*
X147914999Y-52889723D01*
X147769683Y-52902436D01*
X147697024Y-52908793D01*
X147697021Y-52908793D01*
X147485678Y-52965422D01*
X147485664Y-52965427D01*
X147348834Y-53029232D01*
X147279757Y-53039724D01*
X147215973Y-53011204D01*
X147180248Y-52960182D01*
X147158799Y-52902673D01*
X147158794Y-52902664D01*
X147072548Y-52787455D01*
X147072545Y-52787452D01*
X146957336Y-52701206D01*
X146957329Y-52701202D01*
X146822483Y-52650908D01*
X146822484Y-52650908D01*
X146762884Y-52644501D01*
X146762882Y-52644500D01*
X146762874Y-52644500D01*
X146762865Y-52644500D01*
X144667130Y-52644500D01*
X144667124Y-52644501D01*
X144607517Y-52650908D01*
X144472672Y-52701202D01*
X144472665Y-52701206D01*
X144357456Y-52787452D01*
X144357453Y-52787455D01*
X144271207Y-52902664D01*
X144271203Y-52902671D01*
X144220909Y-53037516D01*
X144214830Y-53094061D01*
X144188092Y-53158612D01*
X144130699Y-53198460D01*
X144060874Y-53200953D01*
X144020421Y-53182381D01*
X143883490Y-53086501D01*
X143842639Y-53057897D01*
X143742504Y-53011204D01*
X143644331Y-52965425D01*
X143644327Y-52965424D01*
X143644323Y-52965422D01*
X143432978Y-52908793D01*
X143215003Y-52889723D01*
X143214999Y-52889723D01*
X143069683Y-52902436D01*
X142997024Y-52908793D01*
X142997021Y-52908793D01*
X142785678Y-52965422D01*
X142785669Y-52965426D01*
X142587362Y-53057898D01*
X142587358Y-53057900D01*
X142408122Y-53183402D01*
X142253403Y-53338121D01*
X142127901Y-53517357D01*
X142127899Y-53517361D01*
X142035427Y-53715668D01*
X142035423Y-53715677D01*
X141978794Y-53927020D01*
X141978794Y-53927024D01*
X141959724Y-54144997D01*
X139470278Y-54144997D01*
X139451208Y-53927023D01*
X139394576Y-53715670D01*
X139302103Y-53517362D01*
X139302101Y-53517359D01*
X139302100Y-53517357D01*
X139176600Y-53338124D01*
X139141025Y-53302549D01*
X139021878Y-53183402D01*
X138883979Y-53086844D01*
X138842639Y-53057897D01*
X138742504Y-53011204D01*
X138644331Y-52965425D01*
X138644327Y-52965424D01*
X138644323Y-52965422D01*
X138432978Y-52908793D01*
X138215003Y-52889723D01*
X138214999Y-52889723D01*
X138069683Y-52902436D01*
X137997024Y-52908793D01*
X137997021Y-52908793D01*
X137785678Y-52965422D01*
X137785669Y-52965426D01*
X137587362Y-53057898D01*
X137587358Y-53057901D01*
X137409583Y-53182379D01*
X137343377Y-53204706D01*
X137275609Y-53187696D01*
X137227797Y-53136747D01*
X137215170Y-53094057D01*
X137209092Y-53037516D01*
X137158798Y-52902671D01*
X137158794Y-52902664D01*
X137072548Y-52787455D01*
X137072545Y-52787452D01*
X136957336Y-52701206D01*
X136957329Y-52701202D01*
X136822483Y-52650908D01*
X136822484Y-52650908D01*
X136762884Y-52644501D01*
X136762882Y-52644500D01*
X136762874Y-52644500D01*
X136762865Y-52644500D01*
X134667130Y-52644500D01*
X134667124Y-52644501D01*
X134607517Y-52650908D01*
X134472672Y-52701202D01*
X134472665Y-52701206D01*
X134357456Y-52787452D01*
X134357453Y-52787455D01*
X134271207Y-52902664D01*
X134271203Y-52902671D01*
X134220909Y-53037517D01*
X134214502Y-53097116D01*
X134214502Y-53097123D01*
X134214501Y-53097135D01*
X134214501Y-55175271D01*
X134194816Y-55242310D01*
X134142012Y-55288065D01*
X134072854Y-55298009D01*
X134048091Y-55291793D01*
X134044332Y-55290425D01*
X133832978Y-55233793D01*
X133615003Y-55214723D01*
X133614999Y-55214723D01*
X133469683Y-55227436D01*
X133397024Y-55233793D01*
X133397021Y-55233793D01*
X133185678Y-55290422D01*
X133185669Y-55290426D01*
X132987362Y-55382898D01*
X132987358Y-55382900D01*
X132808122Y-55508402D01*
X132653403Y-55663121D01*
X132527901Y-55842357D01*
X132527899Y-55842361D01*
X132435427Y-56040668D01*
X132435423Y-56040677D01*
X132378794Y-56252020D01*
X132378794Y-56252023D01*
X132374026Y-56306517D01*
X132359724Y-56469997D01*
X131955426Y-56469997D01*
X131945370Y-56380750D01*
X131945369Y-56380745D01*
X131907365Y-56272135D01*
X131885790Y-56210478D01*
X131789817Y-56057738D01*
X131662263Y-55930184D01*
X131632303Y-55911359D01*
X131509524Y-55834211D01*
X131339255Y-55774631D01*
X131339250Y-55774630D01*
X131160005Y-55754435D01*
X131159997Y-55754435D01*
X130980751Y-55774630D01*
X130980746Y-55774631D01*
X130810477Y-55834211D01*
X130657738Y-55930184D01*
X130530185Y-56057737D01*
X130434212Y-56210476D01*
X130374632Y-56380745D01*
X130374631Y-56380750D01*
X130354436Y-56559996D01*
X124004165Y-56559996D01*
X124040814Y-56328604D01*
X124061114Y-55941266D01*
X124040814Y-55553928D01*
X123980138Y-55170833D01*
X123977234Y-55159996D01*
X125034436Y-55159996D01*
X125034436Y-55160003D01*
X125054631Y-55339249D01*
X125054632Y-55339254D01*
X125114212Y-55509523D01*
X125142114Y-55553928D01*
X125210185Y-55662262D01*
X125337739Y-55789816D01*
X125395179Y-55825908D01*
X125475227Y-55876206D01*
X125490479Y-55885789D01*
X125563511Y-55911344D01*
X125660746Y-55945368D01*
X125660751Y-55945369D01*
X125839997Y-55965565D01*
X125840001Y-55965565D01*
X125840005Y-55965565D01*
X126019250Y-55945369D01*
X126019253Y-55945368D01*
X126019256Y-55945368D01*
X126189523Y-55885789D01*
X126342263Y-55789816D01*
X126469817Y-55662262D01*
X126565790Y-55509522D01*
X126625369Y-55339255D01*
X126625370Y-55339249D01*
X126645566Y-55160003D01*
X126645566Y-55159996D01*
X126625370Y-54980750D01*
X126625369Y-54980745D01*
X126565789Y-54810476D01*
X126526583Y-54748080D01*
X126469817Y-54657738D01*
X126342263Y-54530184D01*
X126189524Y-54434211D01*
X126019255Y-54374631D01*
X126019250Y-54374630D01*
X125840005Y-54354435D01*
X125839997Y-54354435D01*
X125660751Y-54374630D01*
X125660746Y-54374631D01*
X125490477Y-54434211D01*
X125337738Y-54530184D01*
X125210185Y-54657737D01*
X125114212Y-54810476D01*
X125054632Y-54980745D01*
X125054631Y-54980750D01*
X125034436Y-55159996D01*
X123977234Y-55159996D01*
X123879750Y-54796179D01*
X123740750Y-54434072D01*
X123564661Y-54088477D01*
X123550985Y-54067418D01*
X123353413Y-53763183D01*
X123109320Y-53461754D01*
X123109317Y-53461750D01*
X122835052Y-53187485D01*
X122723472Y-53097129D01*
X122533618Y-52943388D01*
X122208329Y-52732143D01*
X121862733Y-52556053D01*
X121500630Y-52417054D01*
X121431490Y-52398528D01*
X121125969Y-52316664D01*
X121125965Y-52316663D01*
X121125964Y-52316663D01*
X120742875Y-52255988D01*
X120355537Y-52235688D01*
X120355535Y-52235688D01*
X119968196Y-52255988D01*
X119585108Y-52316663D01*
X119585106Y-52316663D01*
X119210441Y-52417054D01*
X118848338Y-52556053D01*
X118502742Y-52732143D01*
X118177453Y-52943388D01*
X117876024Y-53187481D01*
X117876016Y-53187488D01*
X117601758Y-53461746D01*
X117601751Y-53461754D01*
X117357658Y-53763183D01*
X117146413Y-54088472D01*
X116970323Y-54434068D01*
X116831324Y-54796171D01*
X116730933Y-55170836D01*
X116730933Y-55170838D01*
X116670258Y-55553926D01*
X116649958Y-55941265D01*
X115506095Y-55941265D01*
X115506153Y-55938575D01*
X115524254Y-55523987D01*
X115525194Y-55513256D01*
X115579004Y-55104521D01*
X115580878Y-55093891D01*
X115670112Y-54691390D01*
X115672905Y-54680969D01*
X115796875Y-54287785D01*
X115800561Y-54277657D01*
X115958332Y-53896762D01*
X115962890Y-53886988D01*
X116153250Y-53521313D01*
X116158645Y-53511967D01*
X116380157Y-53164262D01*
X116386343Y-53155427D01*
X116637329Y-52828338D01*
X116644254Y-52820086D01*
X116922776Y-52516132D01*
X116930402Y-52508506D01*
X117234356Y-52229984D01*
X117242608Y-52223059D01*
X117569697Y-51972073D01*
X117578532Y-51965887D01*
X117926237Y-51744375D01*
X117935583Y-51738980D01*
X118301258Y-51548620D01*
X118311032Y-51544062D01*
X118691927Y-51386291D01*
X118702055Y-51382605D01*
X119095239Y-51258635D01*
X119105660Y-51255842D01*
X119508161Y-51166608D01*
X119518791Y-51164734D01*
X119927526Y-51110924D01*
X119938257Y-51109984D01*
X120352833Y-51091883D01*
X120358242Y-51091766D01*
X120389887Y-51091766D01*
X138488596Y-51091766D01*
X138555635Y-51111451D01*
G37*
%TD.AperFunction*%
%TD*%
M02*
