%TF.GenerationSoftware,KiCad,Pcbnew,8.0.4*%
%TF.CreationDate,2025-11-09T23:28:21-03:00*%
%TF.ProjectId,sfp_moduloIC,7366705f-6d6f-4647-956c-6f49432e6b69,v2.0*%
%TF.SameCoordinates,Original*%
%TF.FileFunction,Drillmap*%
%TF.FilePolarity,Positive*%
%FSLAX45Y45*%
G04 Gerber Fmt 4.5, Leading zero omitted, Abs format (unit mm)*
G04 Created by KiCad (PCBNEW 8.0.4) date 2025-11-09 23:28:21*
%MOMM*%
%LPD*%
G01*
G04 APERTURE LIST*
%ADD10C,0.400000*%
%ADD11C,0.200000*%
%ADD12C,0.100000*%
%ADD13C,0.105000*%
%ADD14C,0.130000*%
%ADD15C,0.320000*%
G04 APERTURE END LIST*
D10*
X12037000Y-13545573D02*
G75*
G02*
X11536997Y-13045573I0J500003D01*
G01*
X12037000Y-13545573D02*
X17037000Y-13545573D01*
X11535554Y-5594127D02*
X11537000Y-13045573D01*
X17537000Y-13045573D02*
G75*
G02*
X17037000Y-13545570I-500000J3D01*
G01*
X11535554Y-5594127D02*
G75*
G02*
X12035554Y-5094127I500000J0D01*
G01*
X17537000Y-13045573D02*
X17537000Y-5094127D01*
X12035554Y-5094127D02*
X17537000Y-5094127D01*
D11*
D12*
X11640554Y-6746627D02*
X11670554Y-6776627D01*
X11670554Y-6746627D02*
X11640554Y-6776627D01*
X11720000Y-7672000D02*
X11750000Y-7702000D01*
X11750000Y-7672000D02*
X11720000Y-7702000D01*
X11746000Y-8178000D02*
X11776000Y-8208000D01*
X11776000Y-8178000D02*
X11746000Y-8208000D01*
X11827554Y-7733627D02*
X11857554Y-7763627D01*
X11857554Y-7733627D02*
X11827554Y-7763627D01*
X11957554Y-7946627D02*
X11987554Y-7976627D01*
X11987554Y-7946627D02*
X11957554Y-7976627D01*
X12086554Y-7833627D02*
X12116554Y-7863627D01*
X12116554Y-7833627D02*
X12086554Y-7863627D01*
X12091960Y-7422200D02*
X12121960Y-7452200D01*
X12121960Y-7422200D02*
X12091960Y-7452200D01*
X12131000Y-8117000D02*
X12161000Y-8147000D01*
X12161000Y-8117000D02*
X12131000Y-8147000D01*
X12200000Y-7611627D02*
X12230000Y-7641627D01*
X12230000Y-7611627D02*
X12200000Y-7641627D01*
X12272710Y-8255500D02*
X12302710Y-8285500D01*
X12302710Y-8255500D02*
X12272710Y-8285500D01*
X12289090Y-8546090D02*
X12319090Y-8576090D01*
X12319090Y-8546090D02*
X12289090Y-8576090D01*
X12295654Y-7722227D02*
X12325654Y-7752227D01*
X12325654Y-7722227D02*
X12295654Y-7752227D01*
X12295954Y-8021827D02*
X12325954Y-8051827D01*
X12325954Y-8021827D02*
X12295954Y-8051827D01*
X12337464Y-8386537D02*
X12367464Y-8416537D01*
X12367464Y-8386537D02*
X12337464Y-8416537D01*
X12355554Y-7425500D02*
X12385554Y-7455500D01*
X12385554Y-7425500D02*
X12355554Y-7455500D01*
X12362795Y-8438156D02*
X12392795Y-8468156D01*
X12392795Y-8438156D02*
X12362795Y-8468156D01*
X12392554Y-8490627D02*
X12422554Y-8520627D01*
X12422554Y-8490627D02*
X12392554Y-8520627D01*
X12397554Y-7532627D02*
X12427554Y-7562627D01*
X12427554Y-7532627D02*
X12397554Y-7562627D01*
X12449000Y-8508000D02*
X12479000Y-8538000D01*
X12479000Y-8508000D02*
X12449000Y-8538000D01*
X12500728Y-8533109D02*
X12530728Y-8563109D01*
X12530728Y-8533109D02*
X12500728Y-8563109D01*
X12544554Y-7426500D02*
X12574554Y-7456500D01*
X12574554Y-7426500D02*
X12544554Y-7456500D01*
X12551204Y-8265500D02*
X12581204Y-8295500D01*
X12581204Y-8265500D02*
X12551204Y-8295500D01*
X12558000Y-10090000D02*
X12588000Y-10120000D01*
X12588000Y-10090000D02*
X12558000Y-10120000D01*
X12569000Y-5501000D02*
X12599000Y-5531000D01*
X12599000Y-5501000D02*
X12569000Y-5531000D01*
X12569000Y-5648000D02*
X12599000Y-5678000D01*
X12599000Y-5648000D02*
X12569000Y-5678000D01*
X12595954Y-7720827D02*
X12625954Y-7750827D01*
X12625954Y-7720827D02*
X12595954Y-7750827D01*
X12595954Y-8022827D02*
X12625954Y-8052827D01*
X12625954Y-8022827D02*
X12595954Y-8052827D01*
X12663954Y-10922627D02*
X12693954Y-10952627D01*
X12693954Y-10922627D02*
X12663954Y-10952627D01*
X12663954Y-11024227D02*
X12693954Y-11054227D01*
X12693954Y-11024227D02*
X12663954Y-11054227D01*
X12663954Y-11252827D02*
X12693954Y-11282827D01*
X12693954Y-11252827D02*
X12663954Y-11282827D01*
X12663954Y-11354427D02*
X12693954Y-11384427D01*
X12693954Y-11354427D02*
X12663954Y-11384427D01*
X12666000Y-8614000D02*
X12696000Y-8644000D01*
X12696000Y-8614000D02*
X12666000Y-8644000D01*
X12719554Y-6961627D02*
X12749554Y-6991627D01*
X12749554Y-6961627D02*
X12719554Y-6991627D01*
X12730554Y-7426500D02*
X12760554Y-7456500D01*
X12760554Y-7426500D02*
X12730554Y-7456500D01*
X12743000Y-6611250D02*
X12773000Y-6641250D01*
X12773000Y-6611250D02*
X12743000Y-6641250D01*
X12765554Y-10922627D02*
X12795554Y-10952627D01*
X12795554Y-10922627D02*
X12765554Y-10952627D01*
X12765554Y-11354427D02*
X12795554Y-11384427D01*
X12795554Y-11354427D02*
X12765554Y-11384427D01*
X12788000Y-7896500D02*
X12818000Y-7926500D01*
X12818000Y-7896500D02*
X12788000Y-7926500D01*
X12809000Y-8995000D02*
X12839000Y-9025000D01*
X12839000Y-8995000D02*
X12809000Y-9025000D01*
X12867154Y-10922627D02*
X12897154Y-10952627D01*
X12897154Y-10922627D02*
X12867154Y-10952627D01*
X12867154Y-11354427D02*
X12897154Y-11384427D01*
X12897154Y-11354427D02*
X12867154Y-11384427D01*
X12884500Y-8045000D02*
X12914500Y-8075000D01*
X12914500Y-8045000D02*
X12884500Y-8075000D01*
X12968754Y-10922627D02*
X12998754Y-10952627D01*
X12998754Y-10922627D02*
X12968754Y-10952627D01*
X12968754Y-11024227D02*
X12998754Y-11054227D01*
X12998754Y-11024227D02*
X12968754Y-11054227D01*
X12968754Y-11252827D02*
X12998754Y-11282827D01*
X12998754Y-11252827D02*
X12968754Y-11282827D01*
X12968754Y-11354427D02*
X12998754Y-11384427D01*
X12998754Y-11354427D02*
X12968754Y-11384427D01*
X13035554Y-8234627D02*
X13065554Y-8264627D01*
X13065554Y-8234627D02*
X13035554Y-8264627D01*
X13046090Y-8119090D02*
X13076090Y-8149090D01*
X13076090Y-8119090D02*
X13046090Y-8149090D01*
X13060000Y-8838750D02*
X13090000Y-8868750D01*
X13090000Y-8838750D02*
X13060000Y-8868750D01*
X13070354Y-10922627D02*
X13100354Y-10952627D01*
X13100354Y-10922627D02*
X13070354Y-10952627D01*
X13070354Y-11024227D02*
X13100354Y-11054227D01*
X13100354Y-11024227D02*
X13070354Y-11054227D01*
X13070354Y-11252827D02*
X13100354Y-11282827D01*
X13100354Y-11252827D02*
X13070354Y-11282827D01*
X13070354Y-11354427D02*
X13100354Y-11384427D01*
X13100354Y-11354427D02*
X13070354Y-11384427D01*
X13101000Y-5641000D02*
X13131000Y-5671000D01*
X13131000Y-5641000D02*
X13101000Y-5671000D01*
X13150000Y-6841000D02*
X13180000Y-6871000D01*
X13180000Y-6841000D02*
X13150000Y-6871000D01*
X13151000Y-6653250D02*
X13181000Y-6683250D01*
X13181000Y-6653250D02*
X13151000Y-6683250D01*
X13171954Y-10922627D02*
X13201954Y-10952627D01*
X13201954Y-10922627D02*
X13171954Y-10952627D01*
X13171954Y-11024227D02*
X13201954Y-11054227D01*
X13201954Y-11024227D02*
X13171954Y-11054227D01*
X13171954Y-11252827D02*
X13201954Y-11282827D01*
X13201954Y-11252827D02*
X13171954Y-11282827D01*
X13171954Y-11354427D02*
X13201954Y-11384427D01*
X13201954Y-11354427D02*
X13171954Y-11384427D01*
X13189240Y-8026720D02*
X13219240Y-8056720D01*
X13219240Y-8026720D02*
X13189240Y-8056720D01*
X13206000Y-8837750D02*
X13236000Y-8867750D01*
X13236000Y-8837750D02*
X13206000Y-8867750D01*
X13256090Y-8463090D02*
X13286090Y-8493090D01*
X13286090Y-8463090D02*
X13256090Y-8493090D01*
X13259090Y-8364090D02*
X13289090Y-8394090D01*
X13289090Y-8364090D02*
X13259090Y-8394090D01*
X13259554Y-8275000D02*
X13289554Y-8305000D01*
X13289554Y-8275000D02*
X13259554Y-8305000D01*
X13259554Y-8558000D02*
X13289554Y-8588000D01*
X13289554Y-8558000D02*
X13259554Y-8588000D01*
X13262554Y-8654000D02*
X13292554Y-8684000D01*
X13292554Y-8654000D02*
X13262554Y-8684000D01*
X13273554Y-10922627D02*
X13303554Y-10952627D01*
X13303554Y-10922627D02*
X13273554Y-10952627D01*
X13273554Y-11024227D02*
X13303554Y-11054227D01*
X13303554Y-11024227D02*
X13273554Y-11054227D01*
X13273554Y-11252827D02*
X13303554Y-11282827D01*
X13303554Y-11252827D02*
X13273554Y-11282827D01*
X13273554Y-11354427D02*
X13303554Y-11384427D01*
X13303554Y-11354427D02*
X13273554Y-11384427D01*
X13278554Y-7705627D02*
X13308554Y-7735627D01*
X13308554Y-7705627D02*
X13278554Y-7735627D01*
X13352000Y-8840750D02*
X13382000Y-8870750D01*
X13382000Y-8840750D02*
X13352000Y-8870750D01*
X13375154Y-10922627D02*
X13405154Y-10952627D01*
X13405154Y-10922627D02*
X13375154Y-10952627D01*
X13375154Y-11024227D02*
X13405154Y-11054227D01*
X13405154Y-11024227D02*
X13375154Y-11054227D01*
X13375154Y-11252827D02*
X13405154Y-11282827D01*
X13405154Y-11252827D02*
X13375154Y-11282827D01*
X13375154Y-11354427D02*
X13405154Y-11384427D01*
X13405154Y-11354427D02*
X13375154Y-11384427D01*
X13423000Y-9638000D02*
X13453000Y-9668000D01*
X13453000Y-9638000D02*
X13423000Y-9668000D01*
X13476754Y-10922627D02*
X13506754Y-10952627D01*
X13506754Y-10922627D02*
X13476754Y-10952627D01*
X13476754Y-11024227D02*
X13506754Y-11054227D01*
X13506754Y-11024227D02*
X13476754Y-11054227D01*
X13476754Y-11252827D02*
X13506754Y-11282827D01*
X13506754Y-11252827D02*
X13476754Y-11282827D01*
X13476754Y-11354427D02*
X13506754Y-11384427D01*
X13506754Y-11354427D02*
X13476754Y-11384427D01*
X13497000Y-8842627D02*
X13527000Y-8872627D01*
X13527000Y-8842627D02*
X13497000Y-8872627D01*
X13499120Y-10079040D02*
X13529120Y-10109040D01*
X13529120Y-10079040D02*
X13499120Y-10109040D01*
X13519000Y-8015000D02*
X13549000Y-8045000D01*
X13549000Y-8015000D02*
X13519000Y-8045000D01*
X13520000Y-7357000D02*
X13550000Y-7387000D01*
X13550000Y-7357000D02*
X13520000Y-7387000D01*
X13521000Y-7758000D02*
X13551000Y-7788000D01*
X13551000Y-7758000D02*
X13521000Y-7788000D01*
X13578354Y-10922627D02*
X13608354Y-10952627D01*
X13608354Y-10922627D02*
X13578354Y-10952627D01*
X13578354Y-11024227D02*
X13608354Y-11054227D01*
X13608354Y-11024227D02*
X13578354Y-11054227D01*
X13578354Y-11252827D02*
X13608354Y-11282827D01*
X13608354Y-11252827D02*
X13578354Y-11282827D01*
X13578354Y-11354427D02*
X13608354Y-11384427D01*
X13608354Y-11354427D02*
X13578354Y-11384427D01*
X13585480Y-7015800D02*
X13615480Y-7045800D01*
X13615480Y-7015800D02*
X13585480Y-7045800D01*
X13614000Y-9651000D02*
X13644000Y-9681000D01*
X13644000Y-9651000D02*
X13614000Y-9681000D01*
X13644000Y-8833627D02*
X13674000Y-8863627D01*
X13674000Y-8833627D02*
X13644000Y-8863627D01*
X13668554Y-7667000D02*
X13698554Y-7697000D01*
X13698554Y-7667000D02*
X13668554Y-7697000D01*
X13679954Y-10922627D02*
X13709954Y-10952627D01*
X13709954Y-10922627D02*
X13679954Y-10952627D01*
X13679954Y-11024227D02*
X13709954Y-11054227D01*
X13709954Y-11024227D02*
X13679954Y-11054227D01*
X13679954Y-11252827D02*
X13709954Y-11282827D01*
X13709954Y-11252827D02*
X13679954Y-11282827D01*
X13679954Y-11354427D02*
X13709954Y-11384427D01*
X13709954Y-11354427D02*
X13679954Y-11384427D01*
X13705554Y-9901627D02*
X13735554Y-9931627D01*
X13735554Y-9901627D02*
X13705554Y-9931627D01*
X13731000Y-6049000D02*
X13761000Y-6079000D01*
X13761000Y-6049000D02*
X13731000Y-6079000D01*
X13736000Y-6197000D02*
X13766000Y-6227000D01*
X13766000Y-6197000D02*
X13736000Y-6227000D01*
X13781554Y-10922627D02*
X13811554Y-10952627D01*
X13811554Y-10922627D02*
X13781554Y-10952627D01*
X13781554Y-11024227D02*
X13811554Y-11054227D01*
X13811554Y-11024227D02*
X13781554Y-11054227D01*
X13781554Y-11252827D02*
X13811554Y-11282827D01*
X13811554Y-11252827D02*
X13781554Y-11282827D01*
X13781554Y-11354427D02*
X13811554Y-11384427D01*
X13811554Y-11354427D02*
X13781554Y-11384427D01*
X13785554Y-9699627D02*
X13815554Y-9729627D01*
X13815554Y-9699627D02*
X13785554Y-9729627D01*
X13807463Y-7276536D02*
X13837463Y-7306536D01*
X13837463Y-7276536D02*
X13807463Y-7306536D01*
X13840714Y-9673466D02*
X13870714Y-9703466D01*
X13870714Y-9673466D02*
X13840714Y-9703466D01*
X13859554Y-7034627D02*
X13889554Y-7064627D01*
X13889554Y-7034627D02*
X13859554Y-7064627D01*
X13874981Y-7271627D02*
X13904981Y-7301627D01*
X13904981Y-7271627D02*
X13874981Y-7301627D01*
X13880090Y-9627090D02*
X13910090Y-9657090D01*
X13910090Y-9627090D02*
X13880090Y-9657090D01*
X13896554Y-5174627D02*
X13926554Y-5204627D01*
X13926554Y-5174627D02*
X13896554Y-5204627D01*
X13980214Y-9593287D02*
X14010214Y-9623287D01*
X14010214Y-9593287D02*
X13980214Y-9623287D01*
X14010554Y-9393500D02*
X14040554Y-9423500D01*
X14040554Y-9393500D02*
X14010554Y-9423500D01*
X14051554Y-9346000D02*
X14081554Y-9376000D01*
X14081554Y-9346000D02*
X14051554Y-9376000D01*
X14087554Y-9298500D02*
X14117554Y-9328500D01*
X14117554Y-9298500D02*
X14087554Y-9328500D01*
X14132000Y-7448000D02*
X14162000Y-7478000D01*
X14162000Y-7448000D02*
X14132000Y-7478000D01*
X14134120Y-7340920D02*
X14164120Y-7370920D01*
X14164120Y-7340920D02*
X14134120Y-7370920D01*
X14144280Y-8438200D02*
X14174280Y-8468200D01*
X14174280Y-8438200D02*
X14144280Y-8468200D01*
X14154440Y-6020120D02*
X14184440Y-6050120D01*
X14184440Y-6020120D02*
X14154440Y-6050120D01*
X14208500Y-6327000D02*
X14238500Y-6357000D01*
X14238500Y-6327000D02*
X14208500Y-6357000D01*
X14218463Y-6218536D02*
X14248463Y-6248536D01*
X14248463Y-6218536D02*
X14218463Y-6248536D01*
X14239554Y-6278627D02*
X14269554Y-6308627D01*
X14269554Y-6278627D02*
X14239554Y-6308627D01*
X14250960Y-8041960D02*
X14280960Y-8071960D01*
X14280960Y-8041960D02*
X14250960Y-8071960D01*
X14262000Y-7892000D02*
X14292000Y-7922000D01*
X14292000Y-7892000D02*
X14262000Y-7922000D01*
X14264000Y-9494000D02*
X14294000Y-9524000D01*
X14294000Y-9494000D02*
X14264000Y-9524000D01*
X14267000Y-7759000D02*
X14297000Y-7789000D01*
X14297000Y-7759000D02*
X14267000Y-7789000D01*
X14296680Y-8128320D02*
X14326680Y-8158320D01*
X14326680Y-8128320D02*
X14296680Y-8158320D01*
X14340000Y-9471000D02*
X14370000Y-9501000D01*
X14370000Y-9471000D02*
X14340000Y-9501000D01*
X14357640Y-9779320D02*
X14387640Y-9809320D01*
X14387640Y-9779320D02*
X14357640Y-9809320D01*
X14367800Y-8773480D02*
X14397800Y-8803480D01*
X14397800Y-8773480D02*
X14367800Y-8803480D01*
X14388120Y-8966520D02*
X14418120Y-8996520D01*
X14418120Y-8966520D02*
X14388120Y-8996520D01*
X14393200Y-9961627D02*
X14423200Y-9991627D01*
X14423200Y-9961627D02*
X14393200Y-9991627D01*
X14404090Y-9416090D02*
X14434090Y-9446090D01*
X14434090Y-9416090D02*
X14404090Y-9446090D01*
X14491000Y-8106000D02*
X14521000Y-8136000D01*
X14521000Y-8106000D02*
X14491000Y-8136000D01*
X14531000Y-6372000D02*
X14561000Y-6402000D01*
X14561000Y-6372000D02*
X14531000Y-6402000D01*
X14540000Y-6293000D02*
X14570000Y-6323000D01*
X14570000Y-6293000D02*
X14540000Y-6323000D01*
X14546000Y-9409000D02*
X14576000Y-9439000D01*
X14576000Y-9409000D02*
X14546000Y-9439000D01*
X14547554Y-5968000D02*
X14577554Y-5998000D01*
X14577554Y-5968000D02*
X14547554Y-5998000D01*
X14549175Y-5900000D02*
X14579175Y-5930000D01*
X14579175Y-5900000D02*
X14549175Y-5930000D01*
X14550680Y-7691440D02*
X14580680Y-7721440D01*
X14580680Y-7691440D02*
X14550680Y-7721440D01*
X14575554Y-7931627D02*
X14605554Y-7961627D01*
X14605554Y-7931627D02*
X14575554Y-7961627D01*
X14595554Y-9981627D02*
X14625554Y-10011627D01*
X14625554Y-9981627D02*
X14595554Y-10011627D01*
X14598000Y-10256627D02*
X14628000Y-10286627D01*
X14628000Y-10256627D02*
X14598000Y-10286627D01*
X14615554Y-9414627D02*
X14645554Y-9444627D01*
X14645554Y-9414627D02*
X14615554Y-9444627D01*
X14637770Y-9104410D02*
X14667770Y-9134410D01*
X14667770Y-9104410D02*
X14637770Y-9134410D01*
X14664000Y-8097000D02*
X14694000Y-8127000D01*
X14694000Y-8097000D02*
X14664000Y-8127000D01*
X14672600Y-8915720D02*
X14702600Y-8945720D01*
X14702600Y-8915720D02*
X14672600Y-8945720D01*
X14703554Y-7854627D02*
X14733554Y-7884627D01*
X14733554Y-7854627D02*
X14703554Y-7884627D01*
X14748000Y-9422627D02*
X14778000Y-9452627D01*
X14778000Y-9422627D02*
X14748000Y-9452627D01*
X14751500Y-9968500D02*
X14781500Y-9998500D01*
X14781500Y-9968500D02*
X14751500Y-9998500D01*
X14784360Y-8021640D02*
X14814360Y-8051640D01*
X14814360Y-8021640D02*
X14784360Y-8051640D01*
X14793213Y-9517287D02*
X14823213Y-9547287D01*
X14823213Y-9517287D02*
X14793213Y-9547287D01*
X14828054Y-10476627D02*
X14858054Y-10506627D01*
X14858054Y-10476627D02*
X14828054Y-10506627D01*
X14843000Y-9969627D02*
X14873000Y-9999627D01*
X14873000Y-9969627D02*
X14843000Y-9999627D01*
X14870000Y-9441000D02*
X14900000Y-9471000D01*
X14900000Y-9441000D02*
X14870000Y-9471000D01*
X14921554Y-9261000D02*
X14951554Y-9291000D01*
X14951554Y-9261000D02*
X14921554Y-9291000D01*
X15109000Y-7777000D02*
X15139000Y-7807000D01*
X15139000Y-7777000D02*
X15109000Y-7807000D01*
X15156590Y-7741590D02*
X15186590Y-7771590D01*
X15186590Y-7741590D02*
X15156590Y-7771590D01*
X15198590Y-7694590D02*
X15228590Y-7724590D01*
X15228590Y-7694590D02*
X15198590Y-7724590D01*
X15210000Y-9936627D02*
X15240000Y-9966627D01*
X15240000Y-9936627D02*
X15210000Y-9966627D01*
X15246090Y-7645090D02*
X15276090Y-7675090D01*
X15276090Y-7645090D02*
X15246090Y-7675090D01*
X15261554Y-9888500D02*
X15291554Y-9918500D01*
X15291554Y-9888500D02*
X15261554Y-9918500D01*
X15291090Y-7602090D02*
X15321090Y-7632090D01*
X15321090Y-7602090D02*
X15291090Y-7632090D01*
X15298590Y-9839590D02*
X15328590Y-9869590D01*
X15328590Y-9839590D02*
X15298590Y-9869590D01*
X15327554Y-10191000D02*
X15357554Y-10221000D01*
X15357554Y-10191000D02*
X15327554Y-10221000D01*
X15338090Y-7552090D02*
X15368090Y-7582090D01*
X15368090Y-7552090D02*
X15338090Y-7582090D01*
X15340590Y-9792590D02*
X15370590Y-9822590D01*
X15370590Y-9792590D02*
X15340590Y-9822590D01*
X15377500Y-9098000D02*
X15407500Y-9128000D01*
X15407500Y-9098000D02*
X15377500Y-9128000D01*
X15390000Y-9555800D02*
X15420000Y-9585800D01*
X15420000Y-9555800D02*
X15390000Y-9585800D01*
X15417500Y-8991000D02*
X15447500Y-9021000D01*
X15447500Y-8991000D02*
X15417500Y-9021000D01*
X15627640Y-7884480D02*
X15657640Y-7914480D01*
X15657640Y-7884480D02*
X15627640Y-7914480D01*
X15740000Y-9800000D02*
X15770000Y-9830000D01*
X15770000Y-9800000D02*
X15740000Y-9830000D01*
X15749590Y-9624590D02*
X15779590Y-9654590D01*
X15779590Y-9624590D02*
X15749590Y-9654590D01*
X15758590Y-8270590D02*
X15788590Y-8300590D01*
X15788590Y-8270590D02*
X15758590Y-8300590D01*
X16130560Y-8158800D02*
X16160560Y-8188800D01*
X16160560Y-8158800D02*
X16130560Y-8188800D01*
X16353590Y-8268590D02*
X16383590Y-8298590D01*
X16383590Y-8268590D02*
X16353590Y-8298590D01*
X16504000Y-7569000D02*
X16534000Y-7599000D01*
X16534000Y-7569000D02*
X16504000Y-7599000D01*
X16680554Y-10659127D02*
X16710554Y-10689127D01*
X16710554Y-10659127D02*
X16680554Y-10689127D01*
X16704600Y-8168960D02*
X16734600Y-8198960D01*
X16734600Y-8168960D02*
X16704600Y-8198960D01*
X16798000Y-6996500D02*
X16828000Y-7026500D01*
X16828000Y-6996500D02*
X16798000Y-7026500D01*
X16817590Y-7134590D02*
X16847590Y-7164590D01*
X16847590Y-7134590D02*
X16817590Y-7164590D01*
X17060964Y-9595037D02*
X17090964Y-9625037D01*
X17090964Y-9595037D02*
X17060964Y-9625037D01*
X17064000Y-9817627D02*
X17094000Y-9847627D01*
X17094000Y-9817627D02*
X17064000Y-9847627D01*
X11832954Y-11968827D02*
G75*
G02*
X11762954Y-11968827I-35000J0D01*
G01*
X11762954Y-11968827D02*
G75*
G02*
X11832954Y-11968827I35000J0D01*
G01*
X12340954Y-11968827D02*
G75*
G02*
X12270954Y-11968827I-35000J0D01*
G01*
X12270954Y-11968827D02*
G75*
G02*
X12340954Y-11968827I35000J0D01*
G01*
X11801954Y-12353827D02*
X11801954Y-12433827D01*
X11761954Y-12393827D02*
X11841954Y-12393827D01*
X12301954Y-12353827D02*
X12301954Y-12433827D01*
X12261954Y-12393827D02*
X12341954Y-12393827D01*
X14101552Y-6869552D02*
X14101552Y-6809448D01*
X14041448Y-6809448D01*
X14041448Y-6869552D01*
X14101552Y-6869552D01*
X13361500Y-5694500D02*
X13409000Y-5647000D01*
X13361500Y-5599500D01*
X13314000Y-5647000D01*
X13361500Y-5694500D01*
X13361500Y-6174500D02*
X13409000Y-6127000D01*
X13361500Y-6079500D01*
X13314000Y-6127000D01*
X13361500Y-6174500D01*
X13361500Y-6654500D02*
X13409000Y-6607000D01*
X13361500Y-6559500D01*
X13314000Y-6607000D01*
X13361500Y-6654500D01*
X13821500Y-5462000D02*
X13869000Y-5414500D01*
X13821500Y-5367000D01*
X13774000Y-5414500D01*
X13821500Y-5462000D01*
X13821500Y-6887000D02*
X13869000Y-6839500D01*
X13821500Y-6792000D01*
X13774000Y-6839500D01*
X13821500Y-6887000D01*
X14321500Y-5462000D02*
X14369000Y-5414500D01*
X14321500Y-5367000D01*
X14274000Y-5414500D01*
X14321500Y-5462000D01*
X14321500Y-6887000D02*
X14369000Y-6839500D01*
X14321500Y-6792000D01*
X14274000Y-6839500D01*
X14321500Y-6887000D01*
X14791500Y-5462000D02*
X14839000Y-5414500D01*
X14791500Y-5367000D01*
X14744000Y-5414500D01*
X14791500Y-5462000D01*
X14791500Y-6887000D02*
X14839000Y-6839500D01*
X14791500Y-6792000D01*
X14744000Y-6839500D01*
X14791500Y-6887000D01*
X11780554Y-9811627D02*
X11880554Y-9911627D01*
X11880554Y-9811627D02*
X11780554Y-9911627D01*
X11880554Y-9861627D02*
G75*
G02*
X11780554Y-9861627I-50000J0D01*
G01*
X11780554Y-9861627D02*
G75*
G02*
X11880554Y-9861627I50000J0D01*
G01*
X11780554Y-10065627D02*
X11880554Y-10165627D01*
X11880554Y-10065627D02*
X11780554Y-10165627D01*
X11880554Y-10115627D02*
G75*
G02*
X11780554Y-10115627I-50000J0D01*
G01*
X11780554Y-10115627D02*
G75*
G02*
X11880554Y-10115627I50000J0D01*
G01*
X11780554Y-10319627D02*
X11880554Y-10419627D01*
X11880554Y-10319627D02*
X11780554Y-10419627D01*
X11880554Y-10369627D02*
G75*
G02*
X11780554Y-10369627I-50000J0D01*
G01*
X11780554Y-10369627D02*
G75*
G02*
X11880554Y-10369627I50000J0D01*
G01*
X11785000Y-8852627D02*
X11885000Y-8952627D01*
X11885000Y-8852627D02*
X11785000Y-8952627D01*
X11885000Y-8902627D02*
G75*
G02*
X11785000Y-8902627I-50000J0D01*
G01*
X11785000Y-8902627D02*
G75*
G02*
X11885000Y-8902627I50000J0D01*
G01*
X11785000Y-9106627D02*
X11885000Y-9206627D01*
X11885000Y-9106627D02*
X11785000Y-9206627D01*
X11885000Y-9156627D02*
G75*
G02*
X11785000Y-9156627I-50000J0D01*
G01*
X11785000Y-9156627D02*
G75*
G02*
X11885000Y-9156627I50000J0D01*
G01*
X11785000Y-9360627D02*
X11885000Y-9460627D01*
X11885000Y-9360627D02*
X11785000Y-9460627D01*
X11885000Y-9410627D02*
G75*
G02*
X11785000Y-9410627I-50000J0D01*
G01*
X11785000Y-9410627D02*
G75*
G02*
X11885000Y-9410627I50000J0D01*
G01*
X12786304Y-11107377D02*
X12886304Y-11207377D01*
X12886304Y-11107377D02*
X12786304Y-11207377D01*
X12886304Y-11157377D02*
G75*
G02*
X12786304Y-11157377I-50000J0D01*
G01*
X12786304Y-11157377D02*
G75*
G02*
X12886304Y-11157377I50000J0D01*
G01*
X12786304Y-12907377D02*
X12886304Y-13007377D01*
X12886304Y-12907377D02*
X12786304Y-13007377D01*
X12886304Y-12957377D02*
G75*
G02*
X12786304Y-12957377I-50000J0D01*
G01*
X12786304Y-12957377D02*
G75*
G02*
X12886304Y-12957377I50000J0D01*
G01*
X15571000Y-7344000D02*
X15671000Y-7444000D01*
X15671000Y-7344000D02*
X15571000Y-7444000D01*
X15671000Y-7394000D02*
G75*
G02*
X15571000Y-7394000I-50000J0D01*
G01*
X15571000Y-7394000D02*
G75*
G02*
X15671000Y-7394000I50000J0D01*
G01*
X15825000Y-7344000D02*
X15925000Y-7444000D01*
X15925000Y-7344000D02*
X15825000Y-7444000D01*
X15925000Y-7394000D02*
G75*
G02*
X15825000Y-7394000I-50000J0D01*
G01*
X15825000Y-7394000D02*
G75*
G02*
X15925000Y-7394000I50000J0D01*
G01*
X16079000Y-7344000D02*
X16179000Y-7444000D01*
X16179000Y-7344000D02*
X16079000Y-7444000D01*
X16179000Y-7394000D02*
G75*
G02*
X16079000Y-7394000I-50000J0D01*
G01*
X16079000Y-7394000D02*
G75*
G02*
X16179000Y-7394000I50000J0D01*
G01*
X16146304Y-11707377D02*
X16246304Y-11807377D01*
X16246304Y-11707377D02*
X16146304Y-11807377D01*
X16246304Y-11757377D02*
G75*
G02*
X16146304Y-11757377I-50000J0D01*
G01*
X16146304Y-11757377D02*
G75*
G02*
X16246304Y-11757377I50000J0D01*
G01*
X16146304Y-12307377D02*
X16246304Y-12407377D01*
X16246304Y-12307377D02*
X16146304Y-12407377D01*
X16246304Y-12357377D02*
G75*
G02*
X16146304Y-12357377I-50000J0D01*
G01*
X16146304Y-12357377D02*
G75*
G02*
X16246304Y-12357377I50000J0D01*
G01*
X16333000Y-7344000D02*
X16433000Y-7444000D01*
X16433000Y-7344000D02*
X16333000Y-7444000D01*
X16433000Y-7394000D02*
G75*
G02*
X16333000Y-7394000I-50000J0D01*
G01*
X16333000Y-7394000D02*
G75*
G02*
X16433000Y-7394000I50000J0D01*
G01*
X16587000Y-7344000D02*
X16687000Y-7444000D01*
X16687000Y-7344000D02*
X16587000Y-7444000D01*
X16687000Y-7394000D02*
G75*
G02*
X16587000Y-7394000I-50000J0D01*
G01*
X16587000Y-7394000D02*
G75*
G02*
X16687000Y-7394000I50000J0D01*
G01*
X17149000Y-7219500D02*
X17249000Y-7319500D01*
X17249000Y-7219500D02*
X17149000Y-7319500D01*
X17249000Y-7269500D02*
G75*
G02*
X17149000Y-7269500I-50000J0D01*
G01*
X17149000Y-7269500D02*
G75*
G02*
X17249000Y-7269500I50000J0D01*
G01*
X17149000Y-7473500D02*
X17249000Y-7573500D01*
X17249000Y-7473500D02*
X17149000Y-7573500D01*
X17249000Y-7523500D02*
G75*
G02*
X17149000Y-7523500I-50000J0D01*
G01*
X17149000Y-7523500D02*
G75*
G02*
X17249000Y-7523500I50000J0D01*
G01*
X17149000Y-7727500D02*
X17249000Y-7827500D01*
X17249000Y-7727500D02*
X17149000Y-7827500D01*
X17249000Y-7777500D02*
G75*
G02*
X17149000Y-7777500I-50000J0D01*
G01*
X17149000Y-7777500D02*
G75*
G02*
X17249000Y-7777500I50000J0D01*
G01*
X17151000Y-8199500D02*
X17251000Y-8299500D01*
X17251000Y-8199500D02*
X17151000Y-8299500D01*
X17251000Y-8249500D02*
G75*
G02*
X17151000Y-8249500I-50000J0D01*
G01*
X17151000Y-8249500D02*
G75*
G02*
X17251000Y-8249500I50000J0D01*
G01*
X17151000Y-8453500D02*
X17251000Y-8553500D01*
X17251000Y-8453500D02*
X17151000Y-8553500D01*
X17251000Y-8503500D02*
G75*
G02*
X17151000Y-8503500I-50000J0D01*
G01*
X17151000Y-8503500D02*
G75*
G02*
X17251000Y-8503500I50000J0D01*
G01*
D13*
X13519000Y-5362000D02*
X13624000Y-5467000D01*
X13624000Y-5362000D02*
X13519000Y-5467000D01*
X13571500Y-5362000D02*
X13571500Y-5467000D01*
X13519000Y-5414500D02*
X13624000Y-5414500D01*
X14519000Y-5362000D02*
X14624000Y-5467000D01*
X14624000Y-5362000D02*
X14519000Y-5467000D01*
X14571500Y-5362000D02*
X14571500Y-5467000D01*
X14519000Y-5414500D02*
X14624000Y-5414500D01*
X15019000Y-5679500D02*
X15124000Y-5784500D01*
X15124000Y-5679500D02*
X15019000Y-5784500D01*
X15071500Y-5679500D02*
X15071500Y-5784500D01*
X15019000Y-5732000D02*
X15124000Y-5732000D01*
X15019000Y-6219500D02*
X15124000Y-6324500D01*
X15124000Y-6219500D02*
X15019000Y-6324500D01*
X15071500Y-6219500D02*
X15071500Y-6324500D01*
X15019000Y-6272000D02*
X15124000Y-6272000D01*
X15019000Y-6787000D02*
X15124000Y-6892000D01*
X15124000Y-6787000D02*
X15019000Y-6892000D01*
X15071500Y-6787000D02*
X15071500Y-6892000D01*
X15019000Y-6839500D02*
X15124000Y-6839500D01*
X15519000Y-5362000D02*
X15624000Y-5467000D01*
X15624000Y-5362000D02*
X15519000Y-5467000D01*
X15571500Y-5362000D02*
X15571500Y-5467000D01*
X15519000Y-5414500D02*
X15624000Y-5414500D01*
X16019000Y-6787000D02*
X16124000Y-6892000D01*
X16124000Y-6787000D02*
X16019000Y-6892000D01*
X16071500Y-6787000D02*
X16071500Y-6892000D01*
X16019000Y-6839500D02*
X16124000Y-6839500D01*
X16519000Y-5362000D02*
X16624000Y-5467000D01*
X16624000Y-5362000D02*
X16519000Y-5467000D01*
X16571500Y-5362000D02*
X16571500Y-5467000D01*
X16519000Y-5414500D02*
X16624000Y-5414500D01*
X17019000Y-5929500D02*
X17124000Y-6034500D01*
X17124000Y-5929500D02*
X17019000Y-6034500D01*
X17071500Y-5929500D02*
X17071500Y-6034500D01*
X17019000Y-5982000D02*
X17124000Y-5982000D01*
X17019000Y-6787000D02*
X17124000Y-6892000D01*
X17124000Y-6787000D02*
X17019000Y-6892000D01*
X17071500Y-6787000D02*
X17071500Y-6892000D01*
X17019000Y-6839500D02*
X17124000Y-6839500D01*
D14*
X11926054Y-10816627D02*
X12056054Y-10946627D01*
X12056054Y-10816627D02*
X11926054Y-10946627D01*
X12037016Y-10927589D02*
X12037016Y-10835664D01*
X11945091Y-10835664D01*
X11945091Y-10927589D01*
X12037016Y-10927589D01*
X11926054Y-11316627D02*
X12056054Y-11446627D01*
X12056054Y-11316627D02*
X11926054Y-11446627D01*
X12037016Y-11427589D02*
X12037016Y-11335664D01*
X11945091Y-11335664D01*
X11945091Y-11427589D01*
X12037016Y-11427589D01*
X17005054Y-11251160D02*
X17135054Y-11381160D01*
X17135054Y-11251160D02*
X17005054Y-11381160D01*
X17116016Y-11362122D02*
X17116016Y-11270198D01*
X17024091Y-11270198D01*
X17024091Y-11362122D01*
X17116016Y-11362122D01*
X17005054Y-11751160D02*
X17135054Y-11881160D01*
X17135054Y-11751160D02*
X17005054Y-11881160D01*
X17116016Y-11862122D02*
X17116016Y-11770198D01*
X17024091Y-11770198D01*
X17024091Y-11862122D01*
X17116016Y-11862122D01*
X17005054Y-12251160D02*
X17135054Y-12381160D01*
X17135054Y-12251160D02*
X17005054Y-12381160D01*
X17116016Y-12362122D02*
X17116016Y-12270198D01*
X17024091Y-12270198D01*
X17024091Y-12362122D01*
X17116016Y-12362122D01*
D15*
X11860000Y-12884573D02*
X12180000Y-13204573D01*
X12180000Y-12884573D02*
X11860000Y-13204573D01*
X12020000Y-13204573D02*
X12180000Y-13044573D01*
X12020000Y-12884573D01*
X11860000Y-13044573D01*
X12020000Y-13204573D01*
X11875554Y-5434127D02*
X12195554Y-5754127D01*
X12195554Y-5434127D02*
X11875554Y-5754127D01*
X12035554Y-5754127D02*
X12195554Y-5594127D01*
X12035554Y-5434127D01*
X11875554Y-5594127D01*
X12035554Y-5754127D01*
X16877000Y-12885573D02*
X17197000Y-13205573D01*
X17197000Y-12885573D02*
X16877000Y-13205573D01*
X17037000Y-13205573D02*
X17197000Y-13045573D01*
X17037000Y-12885573D01*
X16877000Y-13045573D01*
X17037000Y-13205573D01*
D11*
X11776330Y-13877057D02*
X11776330Y-13677057D01*
X11776330Y-13677057D02*
X11823949Y-13677057D01*
X11823949Y-13677057D02*
X11852521Y-13686581D01*
X11852521Y-13686581D02*
X11871568Y-13705628D01*
X11871568Y-13705628D02*
X11881092Y-13724676D01*
X11881092Y-13724676D02*
X11890616Y-13762771D01*
X11890616Y-13762771D02*
X11890616Y-13791343D01*
X11890616Y-13791343D02*
X11881092Y-13829438D01*
X11881092Y-13829438D02*
X11871568Y-13848485D01*
X11871568Y-13848485D02*
X11852521Y-13867533D01*
X11852521Y-13867533D02*
X11823949Y-13877057D01*
X11823949Y-13877057D02*
X11776330Y-13877057D01*
X11976330Y-13877057D02*
X11976330Y-13743724D01*
X11976330Y-13781819D02*
X11985854Y-13762771D01*
X11985854Y-13762771D02*
X11995378Y-13753247D01*
X11995378Y-13753247D02*
X12014426Y-13743724D01*
X12014426Y-13743724D02*
X12033473Y-13743724D01*
X12100140Y-13877057D02*
X12100140Y-13743724D01*
X12100140Y-13677057D02*
X12090616Y-13686581D01*
X12090616Y-13686581D02*
X12100140Y-13696105D01*
X12100140Y-13696105D02*
X12109664Y-13686581D01*
X12109664Y-13686581D02*
X12100140Y-13677057D01*
X12100140Y-13677057D02*
X12100140Y-13696105D01*
X12223949Y-13877057D02*
X12204902Y-13867533D01*
X12204902Y-13867533D02*
X12195378Y-13848485D01*
X12195378Y-13848485D02*
X12195378Y-13677057D01*
X12328711Y-13877057D02*
X12309664Y-13867533D01*
X12309664Y-13867533D02*
X12300140Y-13848485D01*
X12300140Y-13848485D02*
X12300140Y-13677057D01*
X12557283Y-13877057D02*
X12557283Y-13677057D01*
X12557283Y-13677057D02*
X12623949Y-13819914D01*
X12623949Y-13819914D02*
X12690616Y-13677057D01*
X12690616Y-13677057D02*
X12690616Y-13877057D01*
X12871568Y-13877057D02*
X12871568Y-13772295D01*
X12871568Y-13772295D02*
X12862045Y-13753247D01*
X12862045Y-13753247D02*
X12842997Y-13743724D01*
X12842997Y-13743724D02*
X12804902Y-13743724D01*
X12804902Y-13743724D02*
X12785854Y-13753247D01*
X12871568Y-13867533D02*
X12852521Y-13877057D01*
X12852521Y-13877057D02*
X12804902Y-13877057D01*
X12804902Y-13877057D02*
X12785854Y-13867533D01*
X12785854Y-13867533D02*
X12776330Y-13848485D01*
X12776330Y-13848485D02*
X12776330Y-13829438D01*
X12776330Y-13829438D02*
X12785854Y-13810390D01*
X12785854Y-13810390D02*
X12804902Y-13800866D01*
X12804902Y-13800866D02*
X12852521Y-13800866D01*
X12852521Y-13800866D02*
X12871568Y-13791343D01*
X12966807Y-13743724D02*
X12966807Y-13943724D01*
X12966807Y-13753247D02*
X12985854Y-13743724D01*
X12985854Y-13743724D02*
X13023949Y-13743724D01*
X13023949Y-13743724D02*
X13042997Y-13753247D01*
X13042997Y-13753247D02*
X13052521Y-13762771D01*
X13052521Y-13762771D02*
X13062045Y-13781819D01*
X13062045Y-13781819D02*
X13062045Y-13838962D01*
X13062045Y-13838962D02*
X13052521Y-13858009D01*
X13052521Y-13858009D02*
X13042997Y-13867533D01*
X13042997Y-13867533D02*
X13023949Y-13877057D01*
X13023949Y-13877057D02*
X12985854Y-13877057D01*
X12985854Y-13877057D02*
X12966807Y-13867533D01*
X13147759Y-13858009D02*
X13157283Y-13867533D01*
X13157283Y-13867533D02*
X13147759Y-13877057D01*
X13147759Y-13877057D02*
X13138235Y-13867533D01*
X13138235Y-13867533D02*
X13147759Y-13858009D01*
X13147759Y-13858009D02*
X13147759Y-13877057D01*
X13147759Y-13753247D02*
X13157283Y-13762771D01*
X13157283Y-13762771D02*
X13147759Y-13772295D01*
X13147759Y-13772295D02*
X13138235Y-13762771D01*
X13138235Y-13762771D02*
X13147759Y-13753247D01*
X13147759Y-13753247D02*
X13147759Y-13772295D01*
D12*
X11485554Y-14190573D02*
X11515554Y-14220573D01*
X11515554Y-14190573D02*
X11485554Y-14220573D01*
D11*
X11814426Y-14097057D02*
X11833473Y-14097057D01*
X11833473Y-14097057D02*
X11852521Y-14106581D01*
X11852521Y-14106581D02*
X11862045Y-14116105D01*
X11862045Y-14116105D02*
X11871568Y-14135152D01*
X11871568Y-14135152D02*
X11881092Y-14173247D01*
X11881092Y-14173247D02*
X11881092Y-14220866D01*
X11881092Y-14220866D02*
X11871568Y-14258962D01*
X11871568Y-14258962D02*
X11862045Y-14278009D01*
X11862045Y-14278009D02*
X11852521Y-14287533D01*
X11852521Y-14287533D02*
X11833473Y-14297057D01*
X11833473Y-14297057D02*
X11814426Y-14297057D01*
X11814426Y-14297057D02*
X11795378Y-14287533D01*
X11795378Y-14287533D02*
X11785854Y-14278009D01*
X11785854Y-14278009D02*
X11776330Y-14258962D01*
X11776330Y-14258962D02*
X11766807Y-14220866D01*
X11766807Y-14220866D02*
X11766807Y-14173247D01*
X11766807Y-14173247D02*
X11776330Y-14135152D01*
X11776330Y-14135152D02*
X11785854Y-14116105D01*
X11785854Y-14116105D02*
X11795378Y-14106581D01*
X11795378Y-14106581D02*
X11814426Y-14097057D01*
X11966807Y-14278009D02*
X11976330Y-14287533D01*
X11976330Y-14287533D02*
X11966807Y-14297057D01*
X11966807Y-14297057D02*
X11957283Y-14287533D01*
X11957283Y-14287533D02*
X11966807Y-14278009D01*
X11966807Y-14278009D02*
X11966807Y-14297057D01*
X12042997Y-14097057D02*
X12166807Y-14097057D01*
X12166807Y-14097057D02*
X12100140Y-14173247D01*
X12100140Y-14173247D02*
X12128711Y-14173247D01*
X12128711Y-14173247D02*
X12147759Y-14182771D01*
X12147759Y-14182771D02*
X12157283Y-14192295D01*
X12157283Y-14192295D02*
X12166807Y-14211343D01*
X12166807Y-14211343D02*
X12166807Y-14258962D01*
X12166807Y-14258962D02*
X12157283Y-14278009D01*
X12157283Y-14278009D02*
X12147759Y-14287533D01*
X12147759Y-14287533D02*
X12128711Y-14297057D01*
X12128711Y-14297057D02*
X12071568Y-14297057D01*
X12071568Y-14297057D02*
X12052521Y-14287533D01*
X12052521Y-14287533D02*
X12042997Y-14278009D01*
X12290616Y-14097057D02*
X12309664Y-14097057D01*
X12309664Y-14097057D02*
X12328711Y-14106581D01*
X12328711Y-14106581D02*
X12338235Y-14116105D01*
X12338235Y-14116105D02*
X12347759Y-14135152D01*
X12347759Y-14135152D02*
X12357283Y-14173247D01*
X12357283Y-14173247D02*
X12357283Y-14220866D01*
X12357283Y-14220866D02*
X12347759Y-14258962D01*
X12347759Y-14258962D02*
X12338235Y-14278009D01*
X12338235Y-14278009D02*
X12328711Y-14287533D01*
X12328711Y-14287533D02*
X12309664Y-14297057D01*
X12309664Y-14297057D02*
X12290616Y-14297057D01*
X12290616Y-14297057D02*
X12271568Y-14287533D01*
X12271568Y-14287533D02*
X12262045Y-14278009D01*
X12262045Y-14278009D02*
X12252521Y-14258962D01*
X12252521Y-14258962D02*
X12242997Y-14220866D01*
X12242997Y-14220866D02*
X12242997Y-14173247D01*
X12242997Y-14173247D02*
X12252521Y-14135152D01*
X12252521Y-14135152D02*
X12262045Y-14116105D01*
X12262045Y-14116105D02*
X12271568Y-14106581D01*
X12271568Y-14106581D02*
X12290616Y-14097057D01*
X12481092Y-14097057D02*
X12500140Y-14097057D01*
X12500140Y-14097057D02*
X12519188Y-14106581D01*
X12519188Y-14106581D02*
X12528711Y-14116105D01*
X12528711Y-14116105D02*
X12538235Y-14135152D01*
X12538235Y-14135152D02*
X12547759Y-14173247D01*
X12547759Y-14173247D02*
X12547759Y-14220866D01*
X12547759Y-14220866D02*
X12538235Y-14258962D01*
X12538235Y-14258962D02*
X12528711Y-14278009D01*
X12528711Y-14278009D02*
X12519188Y-14287533D01*
X12519188Y-14287533D02*
X12500140Y-14297057D01*
X12500140Y-14297057D02*
X12481092Y-14297057D01*
X12481092Y-14297057D02*
X12462045Y-14287533D01*
X12462045Y-14287533D02*
X12452521Y-14278009D01*
X12452521Y-14278009D02*
X12442997Y-14258962D01*
X12442997Y-14258962D02*
X12433473Y-14220866D01*
X12433473Y-14220866D02*
X12433473Y-14173247D01*
X12433473Y-14173247D02*
X12442997Y-14135152D01*
X12442997Y-14135152D02*
X12452521Y-14116105D01*
X12452521Y-14116105D02*
X12462045Y-14106581D01*
X12462045Y-14106581D02*
X12481092Y-14097057D01*
X12633473Y-14297057D02*
X12633473Y-14163724D01*
X12633473Y-14182771D02*
X12642997Y-14173247D01*
X12642997Y-14173247D02*
X12662045Y-14163724D01*
X12662045Y-14163724D02*
X12690616Y-14163724D01*
X12690616Y-14163724D02*
X12709664Y-14173247D01*
X12709664Y-14173247D02*
X12719188Y-14192295D01*
X12719188Y-14192295D02*
X12719188Y-14297057D01*
X12719188Y-14192295D02*
X12728711Y-14173247D01*
X12728711Y-14173247D02*
X12747759Y-14163724D01*
X12747759Y-14163724D02*
X12776330Y-14163724D01*
X12776330Y-14163724D02*
X12795378Y-14173247D01*
X12795378Y-14173247D02*
X12804902Y-14192295D01*
X12804902Y-14192295D02*
X12804902Y-14297057D01*
X12900140Y-14297057D02*
X12900140Y-14163724D01*
X12900140Y-14182771D02*
X12909664Y-14173247D01*
X12909664Y-14173247D02*
X12928711Y-14163724D01*
X12928711Y-14163724D02*
X12957283Y-14163724D01*
X12957283Y-14163724D02*
X12976330Y-14173247D01*
X12976330Y-14173247D02*
X12985854Y-14192295D01*
X12985854Y-14192295D02*
X12985854Y-14297057D01*
X12985854Y-14192295D02*
X12995378Y-14173247D01*
X12995378Y-14173247D02*
X13014426Y-14163724D01*
X13014426Y-14163724D02*
X13042997Y-14163724D01*
X13042997Y-14163724D02*
X13062045Y-14173247D01*
X13062045Y-14173247D02*
X13071569Y-14192295D01*
X13071569Y-14192295D02*
X13071569Y-14297057D01*
X13462045Y-14087533D02*
X13290616Y-14344676D01*
X13719188Y-14097057D02*
X13738235Y-14097057D01*
X13738235Y-14097057D02*
X13757283Y-14106581D01*
X13757283Y-14106581D02*
X13766807Y-14116105D01*
X13766807Y-14116105D02*
X13776331Y-14135152D01*
X13776331Y-14135152D02*
X13785854Y-14173247D01*
X13785854Y-14173247D02*
X13785854Y-14220866D01*
X13785854Y-14220866D02*
X13776331Y-14258962D01*
X13776331Y-14258962D02*
X13766807Y-14278009D01*
X13766807Y-14278009D02*
X13757283Y-14287533D01*
X13757283Y-14287533D02*
X13738235Y-14297057D01*
X13738235Y-14297057D02*
X13719188Y-14297057D01*
X13719188Y-14297057D02*
X13700140Y-14287533D01*
X13700140Y-14287533D02*
X13690616Y-14278009D01*
X13690616Y-14278009D02*
X13681092Y-14258962D01*
X13681092Y-14258962D02*
X13671569Y-14220866D01*
X13671569Y-14220866D02*
X13671569Y-14173247D01*
X13671569Y-14173247D02*
X13681092Y-14135152D01*
X13681092Y-14135152D02*
X13690616Y-14116105D01*
X13690616Y-14116105D02*
X13700140Y-14106581D01*
X13700140Y-14106581D02*
X13719188Y-14097057D01*
X13871569Y-14278009D02*
X13881092Y-14287533D01*
X13881092Y-14287533D02*
X13871569Y-14297057D01*
X13871569Y-14297057D02*
X13862045Y-14287533D01*
X13862045Y-14287533D02*
X13871569Y-14278009D01*
X13871569Y-14278009D02*
X13871569Y-14297057D01*
X14004902Y-14097057D02*
X14023950Y-14097057D01*
X14023950Y-14097057D02*
X14042997Y-14106581D01*
X14042997Y-14106581D02*
X14052521Y-14116105D01*
X14052521Y-14116105D02*
X14062045Y-14135152D01*
X14062045Y-14135152D02*
X14071569Y-14173247D01*
X14071569Y-14173247D02*
X14071569Y-14220866D01*
X14071569Y-14220866D02*
X14062045Y-14258962D01*
X14062045Y-14258962D02*
X14052521Y-14278009D01*
X14052521Y-14278009D02*
X14042997Y-14287533D01*
X14042997Y-14287533D02*
X14023950Y-14297057D01*
X14023950Y-14297057D02*
X14004902Y-14297057D01*
X14004902Y-14297057D02*
X13985854Y-14287533D01*
X13985854Y-14287533D02*
X13976331Y-14278009D01*
X13976331Y-14278009D02*
X13966807Y-14258962D01*
X13966807Y-14258962D02*
X13957283Y-14220866D01*
X13957283Y-14220866D02*
X13957283Y-14173247D01*
X13957283Y-14173247D02*
X13966807Y-14135152D01*
X13966807Y-14135152D02*
X13976331Y-14116105D01*
X13976331Y-14116105D02*
X13985854Y-14106581D01*
X13985854Y-14106581D02*
X14004902Y-14097057D01*
X14262045Y-14297057D02*
X14147759Y-14297057D01*
X14204902Y-14297057D02*
X14204902Y-14097057D01*
X14204902Y-14097057D02*
X14185854Y-14125628D01*
X14185854Y-14125628D02*
X14166807Y-14144676D01*
X14166807Y-14144676D02*
X14147759Y-14154200D01*
X14452521Y-14297057D02*
X14338235Y-14297057D01*
X14395378Y-14297057D02*
X14395378Y-14097057D01*
X14395378Y-14097057D02*
X14376331Y-14125628D01*
X14376331Y-14125628D02*
X14357283Y-14144676D01*
X14357283Y-14144676D02*
X14338235Y-14154200D01*
X14566807Y-14182771D02*
X14547759Y-14173247D01*
X14547759Y-14173247D02*
X14538235Y-14163724D01*
X14538235Y-14163724D02*
X14528712Y-14144676D01*
X14528712Y-14144676D02*
X14528712Y-14135152D01*
X14528712Y-14135152D02*
X14538235Y-14116105D01*
X14538235Y-14116105D02*
X14547759Y-14106581D01*
X14547759Y-14106581D02*
X14566807Y-14097057D01*
X14566807Y-14097057D02*
X14604902Y-14097057D01*
X14604902Y-14097057D02*
X14623950Y-14106581D01*
X14623950Y-14106581D02*
X14633473Y-14116105D01*
X14633473Y-14116105D02*
X14642997Y-14135152D01*
X14642997Y-14135152D02*
X14642997Y-14144676D01*
X14642997Y-14144676D02*
X14633473Y-14163724D01*
X14633473Y-14163724D02*
X14623950Y-14173247D01*
X14623950Y-14173247D02*
X14604902Y-14182771D01*
X14604902Y-14182771D02*
X14566807Y-14182771D01*
X14566807Y-14182771D02*
X14547759Y-14192295D01*
X14547759Y-14192295D02*
X14538235Y-14201819D01*
X14538235Y-14201819D02*
X14528712Y-14220866D01*
X14528712Y-14220866D02*
X14528712Y-14258962D01*
X14528712Y-14258962D02*
X14538235Y-14278009D01*
X14538235Y-14278009D02*
X14547759Y-14287533D01*
X14547759Y-14287533D02*
X14566807Y-14297057D01*
X14566807Y-14297057D02*
X14604902Y-14297057D01*
X14604902Y-14297057D02*
X14623950Y-14287533D01*
X14623950Y-14287533D02*
X14633473Y-14278009D01*
X14633473Y-14278009D02*
X14642997Y-14258962D01*
X14642997Y-14258962D02*
X14642997Y-14220866D01*
X14642997Y-14220866D02*
X14633473Y-14201819D01*
X14633473Y-14201819D02*
X14623950Y-14192295D01*
X14623950Y-14192295D02*
X14604902Y-14182771D01*
X14719188Y-14097057D02*
X14719188Y-14135152D01*
X14795378Y-14097057D02*
X14795378Y-14135152D01*
X15090616Y-14373247D02*
X15081093Y-14363724D01*
X15081093Y-14363724D02*
X15062045Y-14335152D01*
X15062045Y-14335152D02*
X15052521Y-14316105D01*
X15052521Y-14316105D02*
X15042997Y-14287533D01*
X15042997Y-14287533D02*
X15033474Y-14239914D01*
X15033474Y-14239914D02*
X15033474Y-14201819D01*
X15033474Y-14201819D02*
X15042997Y-14154200D01*
X15042997Y-14154200D02*
X15052521Y-14125628D01*
X15052521Y-14125628D02*
X15062045Y-14106581D01*
X15062045Y-14106581D02*
X15081093Y-14078009D01*
X15081093Y-14078009D02*
X15090616Y-14068485D01*
X15271569Y-14297057D02*
X15157283Y-14297057D01*
X15214426Y-14297057D02*
X15214426Y-14097057D01*
X15214426Y-14097057D02*
X15195378Y-14125628D01*
X15195378Y-14125628D02*
X15176331Y-14144676D01*
X15176331Y-14144676D02*
X15157283Y-14154200D01*
X15385854Y-14182771D02*
X15366807Y-14173247D01*
X15366807Y-14173247D02*
X15357283Y-14163724D01*
X15357283Y-14163724D02*
X15347759Y-14144676D01*
X15347759Y-14144676D02*
X15347759Y-14135152D01*
X15347759Y-14135152D02*
X15357283Y-14116105D01*
X15357283Y-14116105D02*
X15366807Y-14106581D01*
X15366807Y-14106581D02*
X15385854Y-14097057D01*
X15385854Y-14097057D02*
X15423950Y-14097057D01*
X15423950Y-14097057D02*
X15442997Y-14106581D01*
X15442997Y-14106581D02*
X15452521Y-14116105D01*
X15452521Y-14116105D02*
X15462045Y-14135152D01*
X15462045Y-14135152D02*
X15462045Y-14144676D01*
X15462045Y-14144676D02*
X15452521Y-14163724D01*
X15452521Y-14163724D02*
X15442997Y-14173247D01*
X15442997Y-14173247D02*
X15423950Y-14182771D01*
X15423950Y-14182771D02*
X15385854Y-14182771D01*
X15385854Y-14182771D02*
X15366807Y-14192295D01*
X15366807Y-14192295D02*
X15357283Y-14201819D01*
X15357283Y-14201819D02*
X15347759Y-14220866D01*
X15347759Y-14220866D02*
X15347759Y-14258962D01*
X15347759Y-14258962D02*
X15357283Y-14278009D01*
X15357283Y-14278009D02*
X15366807Y-14287533D01*
X15366807Y-14287533D02*
X15385854Y-14297057D01*
X15385854Y-14297057D02*
X15423950Y-14297057D01*
X15423950Y-14297057D02*
X15442997Y-14287533D01*
X15442997Y-14287533D02*
X15452521Y-14278009D01*
X15452521Y-14278009D02*
X15462045Y-14258962D01*
X15462045Y-14258962D02*
X15462045Y-14220866D01*
X15462045Y-14220866D02*
X15452521Y-14201819D01*
X15452521Y-14201819D02*
X15442997Y-14192295D01*
X15442997Y-14192295D02*
X15423950Y-14182771D01*
X15642997Y-14097057D02*
X15547759Y-14097057D01*
X15547759Y-14097057D02*
X15538235Y-14192295D01*
X15538235Y-14192295D02*
X15547759Y-14182771D01*
X15547759Y-14182771D02*
X15566807Y-14173247D01*
X15566807Y-14173247D02*
X15614426Y-14173247D01*
X15614426Y-14173247D02*
X15633474Y-14182771D01*
X15633474Y-14182771D02*
X15642997Y-14192295D01*
X15642997Y-14192295D02*
X15652521Y-14211343D01*
X15652521Y-14211343D02*
X15652521Y-14258962D01*
X15652521Y-14258962D02*
X15642997Y-14278009D01*
X15642997Y-14278009D02*
X15633474Y-14287533D01*
X15633474Y-14287533D02*
X15614426Y-14297057D01*
X15614426Y-14297057D02*
X15566807Y-14297057D01*
X15566807Y-14297057D02*
X15547759Y-14287533D01*
X15547759Y-14287533D02*
X15538235Y-14278009D01*
X15890616Y-14297057D02*
X15890616Y-14097057D01*
X15976331Y-14297057D02*
X15976331Y-14192295D01*
X15976331Y-14192295D02*
X15966807Y-14173247D01*
X15966807Y-14173247D02*
X15947759Y-14163724D01*
X15947759Y-14163724D02*
X15919188Y-14163724D01*
X15919188Y-14163724D02*
X15900140Y-14173247D01*
X15900140Y-14173247D02*
X15890616Y-14182771D01*
X16100140Y-14297057D02*
X16081093Y-14287533D01*
X16081093Y-14287533D02*
X16071569Y-14278009D01*
X16071569Y-14278009D02*
X16062045Y-14258962D01*
X16062045Y-14258962D02*
X16062045Y-14201819D01*
X16062045Y-14201819D02*
X16071569Y-14182771D01*
X16071569Y-14182771D02*
X16081093Y-14173247D01*
X16081093Y-14173247D02*
X16100140Y-14163724D01*
X16100140Y-14163724D02*
X16128712Y-14163724D01*
X16128712Y-14163724D02*
X16147759Y-14173247D01*
X16147759Y-14173247D02*
X16157283Y-14182771D01*
X16157283Y-14182771D02*
X16166807Y-14201819D01*
X16166807Y-14201819D02*
X16166807Y-14258962D01*
X16166807Y-14258962D02*
X16157283Y-14278009D01*
X16157283Y-14278009D02*
X16147759Y-14287533D01*
X16147759Y-14287533D02*
X16128712Y-14297057D01*
X16128712Y-14297057D02*
X16100140Y-14297057D01*
X16281093Y-14297057D02*
X16262045Y-14287533D01*
X16262045Y-14287533D02*
X16252521Y-14268485D01*
X16252521Y-14268485D02*
X16252521Y-14097057D01*
X16433474Y-14287533D02*
X16414426Y-14297057D01*
X16414426Y-14297057D02*
X16376331Y-14297057D01*
X16376331Y-14297057D02*
X16357283Y-14287533D01*
X16357283Y-14287533D02*
X16347759Y-14268485D01*
X16347759Y-14268485D02*
X16347759Y-14192295D01*
X16347759Y-14192295D02*
X16357283Y-14173247D01*
X16357283Y-14173247D02*
X16376331Y-14163724D01*
X16376331Y-14163724D02*
X16414426Y-14163724D01*
X16414426Y-14163724D02*
X16433474Y-14173247D01*
X16433474Y-14173247D02*
X16442997Y-14192295D01*
X16442997Y-14192295D02*
X16442997Y-14211343D01*
X16442997Y-14211343D02*
X16347759Y-14230390D01*
X16519188Y-14287533D02*
X16538236Y-14297057D01*
X16538236Y-14297057D02*
X16576331Y-14297057D01*
X16576331Y-14297057D02*
X16595378Y-14287533D01*
X16595378Y-14287533D02*
X16604902Y-14268485D01*
X16604902Y-14268485D02*
X16604902Y-14258962D01*
X16604902Y-14258962D02*
X16595378Y-14239914D01*
X16595378Y-14239914D02*
X16576331Y-14230390D01*
X16576331Y-14230390D02*
X16547759Y-14230390D01*
X16547759Y-14230390D02*
X16528712Y-14220866D01*
X16528712Y-14220866D02*
X16519188Y-14201819D01*
X16519188Y-14201819D02*
X16519188Y-14192295D01*
X16519188Y-14192295D02*
X16528712Y-14173247D01*
X16528712Y-14173247D02*
X16547759Y-14163724D01*
X16547759Y-14163724D02*
X16576331Y-14163724D01*
X16576331Y-14163724D02*
X16595378Y-14173247D01*
X16671569Y-14373247D02*
X16681093Y-14363724D01*
X16681093Y-14363724D02*
X16700140Y-14335152D01*
X16700140Y-14335152D02*
X16709664Y-14316105D01*
X16709664Y-14316105D02*
X16719188Y-14287533D01*
X16719188Y-14287533D02*
X16728712Y-14239914D01*
X16728712Y-14239914D02*
X16728712Y-14201819D01*
X16728712Y-14201819D02*
X16719188Y-14154200D01*
X16719188Y-14154200D02*
X16709664Y-14125628D01*
X16709664Y-14125628D02*
X16700140Y-14106581D01*
X16700140Y-14106581D02*
X16681093Y-14078009D01*
X16681093Y-14078009D02*
X16671569Y-14068485D01*
D12*
X11515554Y-14469573D02*
G75*
G02*
X11445554Y-14469573I-35000J0D01*
G01*
X11445554Y-14469573D02*
G75*
G02*
X11515554Y-14469573I35000J0D01*
G01*
D11*
X11814426Y-14361057D02*
X11833473Y-14361057D01*
X11833473Y-14361057D02*
X11852521Y-14370581D01*
X11852521Y-14370581D02*
X11862045Y-14380105D01*
X11862045Y-14380105D02*
X11871568Y-14399152D01*
X11871568Y-14399152D02*
X11881092Y-14437247D01*
X11881092Y-14437247D02*
X11881092Y-14484866D01*
X11881092Y-14484866D02*
X11871568Y-14522962D01*
X11871568Y-14522962D02*
X11862045Y-14542009D01*
X11862045Y-14542009D02*
X11852521Y-14551533D01*
X11852521Y-14551533D02*
X11833473Y-14561057D01*
X11833473Y-14561057D02*
X11814426Y-14561057D01*
X11814426Y-14561057D02*
X11795378Y-14551533D01*
X11795378Y-14551533D02*
X11785854Y-14542009D01*
X11785854Y-14542009D02*
X11776330Y-14522962D01*
X11776330Y-14522962D02*
X11766807Y-14484866D01*
X11766807Y-14484866D02*
X11766807Y-14437247D01*
X11766807Y-14437247D02*
X11776330Y-14399152D01*
X11776330Y-14399152D02*
X11785854Y-14380105D01*
X11785854Y-14380105D02*
X11795378Y-14370581D01*
X11795378Y-14370581D02*
X11814426Y-14361057D01*
X11966807Y-14542009D02*
X11976330Y-14551533D01*
X11976330Y-14551533D02*
X11966807Y-14561057D01*
X11966807Y-14561057D02*
X11957283Y-14551533D01*
X11957283Y-14551533D02*
X11966807Y-14542009D01*
X11966807Y-14542009D02*
X11966807Y-14561057D01*
X12042997Y-14361057D02*
X12176330Y-14361057D01*
X12176330Y-14361057D02*
X12090616Y-14561057D01*
X12290616Y-14361057D02*
X12309664Y-14361057D01*
X12309664Y-14361057D02*
X12328711Y-14370581D01*
X12328711Y-14370581D02*
X12338235Y-14380105D01*
X12338235Y-14380105D02*
X12347759Y-14399152D01*
X12347759Y-14399152D02*
X12357283Y-14437247D01*
X12357283Y-14437247D02*
X12357283Y-14484866D01*
X12357283Y-14484866D02*
X12347759Y-14522962D01*
X12347759Y-14522962D02*
X12338235Y-14542009D01*
X12338235Y-14542009D02*
X12328711Y-14551533D01*
X12328711Y-14551533D02*
X12309664Y-14561057D01*
X12309664Y-14561057D02*
X12290616Y-14561057D01*
X12290616Y-14561057D02*
X12271568Y-14551533D01*
X12271568Y-14551533D02*
X12262045Y-14542009D01*
X12262045Y-14542009D02*
X12252521Y-14522962D01*
X12252521Y-14522962D02*
X12242997Y-14484866D01*
X12242997Y-14484866D02*
X12242997Y-14437247D01*
X12242997Y-14437247D02*
X12252521Y-14399152D01*
X12252521Y-14399152D02*
X12262045Y-14380105D01*
X12262045Y-14380105D02*
X12271568Y-14370581D01*
X12271568Y-14370581D02*
X12290616Y-14361057D01*
X12481092Y-14361057D02*
X12500140Y-14361057D01*
X12500140Y-14361057D02*
X12519188Y-14370581D01*
X12519188Y-14370581D02*
X12528711Y-14380105D01*
X12528711Y-14380105D02*
X12538235Y-14399152D01*
X12538235Y-14399152D02*
X12547759Y-14437247D01*
X12547759Y-14437247D02*
X12547759Y-14484866D01*
X12547759Y-14484866D02*
X12538235Y-14522962D01*
X12538235Y-14522962D02*
X12528711Y-14542009D01*
X12528711Y-14542009D02*
X12519188Y-14551533D01*
X12519188Y-14551533D02*
X12500140Y-14561057D01*
X12500140Y-14561057D02*
X12481092Y-14561057D01*
X12481092Y-14561057D02*
X12462045Y-14551533D01*
X12462045Y-14551533D02*
X12452521Y-14542009D01*
X12452521Y-14542009D02*
X12442997Y-14522962D01*
X12442997Y-14522962D02*
X12433473Y-14484866D01*
X12433473Y-14484866D02*
X12433473Y-14437247D01*
X12433473Y-14437247D02*
X12442997Y-14399152D01*
X12442997Y-14399152D02*
X12452521Y-14380105D01*
X12452521Y-14380105D02*
X12462045Y-14370581D01*
X12462045Y-14370581D02*
X12481092Y-14361057D01*
X12633473Y-14561057D02*
X12633473Y-14427724D01*
X12633473Y-14446771D02*
X12642997Y-14437247D01*
X12642997Y-14437247D02*
X12662045Y-14427724D01*
X12662045Y-14427724D02*
X12690616Y-14427724D01*
X12690616Y-14427724D02*
X12709664Y-14437247D01*
X12709664Y-14437247D02*
X12719188Y-14456295D01*
X12719188Y-14456295D02*
X12719188Y-14561057D01*
X12719188Y-14456295D02*
X12728711Y-14437247D01*
X12728711Y-14437247D02*
X12747759Y-14427724D01*
X12747759Y-14427724D02*
X12776330Y-14427724D01*
X12776330Y-14427724D02*
X12795378Y-14437247D01*
X12795378Y-14437247D02*
X12804902Y-14456295D01*
X12804902Y-14456295D02*
X12804902Y-14561057D01*
X12900140Y-14561057D02*
X12900140Y-14427724D01*
X12900140Y-14446771D02*
X12909664Y-14437247D01*
X12909664Y-14437247D02*
X12928711Y-14427724D01*
X12928711Y-14427724D02*
X12957283Y-14427724D01*
X12957283Y-14427724D02*
X12976330Y-14437247D01*
X12976330Y-14437247D02*
X12985854Y-14456295D01*
X12985854Y-14456295D02*
X12985854Y-14561057D01*
X12985854Y-14456295D02*
X12995378Y-14437247D01*
X12995378Y-14437247D02*
X13014426Y-14427724D01*
X13014426Y-14427724D02*
X13042997Y-14427724D01*
X13042997Y-14427724D02*
X13062045Y-14437247D01*
X13062045Y-14437247D02*
X13071569Y-14456295D01*
X13071569Y-14456295D02*
X13071569Y-14561057D01*
X13462045Y-14351533D02*
X13290616Y-14608676D01*
X13719188Y-14361057D02*
X13738235Y-14361057D01*
X13738235Y-14361057D02*
X13757283Y-14370581D01*
X13757283Y-14370581D02*
X13766807Y-14380105D01*
X13766807Y-14380105D02*
X13776331Y-14399152D01*
X13776331Y-14399152D02*
X13785854Y-14437247D01*
X13785854Y-14437247D02*
X13785854Y-14484866D01*
X13785854Y-14484866D02*
X13776331Y-14522962D01*
X13776331Y-14522962D02*
X13766807Y-14542009D01*
X13766807Y-14542009D02*
X13757283Y-14551533D01*
X13757283Y-14551533D02*
X13738235Y-14561057D01*
X13738235Y-14561057D02*
X13719188Y-14561057D01*
X13719188Y-14561057D02*
X13700140Y-14551533D01*
X13700140Y-14551533D02*
X13690616Y-14542009D01*
X13690616Y-14542009D02*
X13681092Y-14522962D01*
X13681092Y-14522962D02*
X13671569Y-14484866D01*
X13671569Y-14484866D02*
X13671569Y-14437247D01*
X13671569Y-14437247D02*
X13681092Y-14399152D01*
X13681092Y-14399152D02*
X13690616Y-14380105D01*
X13690616Y-14380105D02*
X13700140Y-14370581D01*
X13700140Y-14370581D02*
X13719188Y-14361057D01*
X13871569Y-14542009D02*
X13881092Y-14551533D01*
X13881092Y-14551533D02*
X13871569Y-14561057D01*
X13871569Y-14561057D02*
X13862045Y-14551533D01*
X13862045Y-14551533D02*
X13871569Y-14542009D01*
X13871569Y-14542009D02*
X13871569Y-14561057D01*
X14004902Y-14361057D02*
X14023950Y-14361057D01*
X14023950Y-14361057D02*
X14042997Y-14370581D01*
X14042997Y-14370581D02*
X14052521Y-14380105D01*
X14052521Y-14380105D02*
X14062045Y-14399152D01*
X14062045Y-14399152D02*
X14071569Y-14437247D01*
X14071569Y-14437247D02*
X14071569Y-14484866D01*
X14071569Y-14484866D02*
X14062045Y-14522962D01*
X14062045Y-14522962D02*
X14052521Y-14542009D01*
X14052521Y-14542009D02*
X14042997Y-14551533D01*
X14042997Y-14551533D02*
X14023950Y-14561057D01*
X14023950Y-14561057D02*
X14004902Y-14561057D01*
X14004902Y-14561057D02*
X13985854Y-14551533D01*
X13985854Y-14551533D02*
X13976331Y-14542009D01*
X13976331Y-14542009D02*
X13966807Y-14522962D01*
X13966807Y-14522962D02*
X13957283Y-14484866D01*
X13957283Y-14484866D02*
X13957283Y-14437247D01*
X13957283Y-14437247D02*
X13966807Y-14399152D01*
X13966807Y-14399152D02*
X13976331Y-14380105D01*
X13976331Y-14380105D02*
X13985854Y-14370581D01*
X13985854Y-14370581D02*
X14004902Y-14361057D01*
X14147759Y-14380105D02*
X14157283Y-14370581D01*
X14157283Y-14370581D02*
X14176331Y-14361057D01*
X14176331Y-14361057D02*
X14223950Y-14361057D01*
X14223950Y-14361057D02*
X14242997Y-14370581D01*
X14242997Y-14370581D02*
X14252521Y-14380105D01*
X14252521Y-14380105D02*
X14262045Y-14399152D01*
X14262045Y-14399152D02*
X14262045Y-14418200D01*
X14262045Y-14418200D02*
X14252521Y-14446771D01*
X14252521Y-14446771D02*
X14138235Y-14561057D01*
X14138235Y-14561057D02*
X14262045Y-14561057D01*
X14328712Y-14361057D02*
X14462045Y-14361057D01*
X14462045Y-14361057D02*
X14376331Y-14561057D01*
X14623950Y-14361057D02*
X14585854Y-14361057D01*
X14585854Y-14361057D02*
X14566807Y-14370581D01*
X14566807Y-14370581D02*
X14557283Y-14380105D01*
X14557283Y-14380105D02*
X14538235Y-14408676D01*
X14538235Y-14408676D02*
X14528712Y-14446771D01*
X14528712Y-14446771D02*
X14528712Y-14522962D01*
X14528712Y-14522962D02*
X14538235Y-14542009D01*
X14538235Y-14542009D02*
X14547759Y-14551533D01*
X14547759Y-14551533D02*
X14566807Y-14561057D01*
X14566807Y-14561057D02*
X14604902Y-14561057D01*
X14604902Y-14561057D02*
X14623950Y-14551533D01*
X14623950Y-14551533D02*
X14633473Y-14542009D01*
X14633473Y-14542009D02*
X14642997Y-14522962D01*
X14642997Y-14522962D02*
X14642997Y-14475343D01*
X14642997Y-14475343D02*
X14633473Y-14456295D01*
X14633473Y-14456295D02*
X14623950Y-14446771D01*
X14623950Y-14446771D02*
X14604902Y-14437247D01*
X14604902Y-14437247D02*
X14566807Y-14437247D01*
X14566807Y-14437247D02*
X14547759Y-14446771D01*
X14547759Y-14446771D02*
X14538235Y-14456295D01*
X14538235Y-14456295D02*
X14528712Y-14475343D01*
X14719188Y-14361057D02*
X14719188Y-14399152D01*
X14795378Y-14361057D02*
X14795378Y-14399152D01*
X15090616Y-14637247D02*
X15081093Y-14627724D01*
X15081093Y-14627724D02*
X15062045Y-14599152D01*
X15062045Y-14599152D02*
X15052521Y-14580105D01*
X15052521Y-14580105D02*
X15042997Y-14551533D01*
X15042997Y-14551533D02*
X15033474Y-14503914D01*
X15033474Y-14503914D02*
X15033474Y-14465819D01*
X15033474Y-14465819D02*
X15042997Y-14418200D01*
X15042997Y-14418200D02*
X15052521Y-14389628D01*
X15052521Y-14389628D02*
X15062045Y-14370581D01*
X15062045Y-14370581D02*
X15081093Y-14342009D01*
X15081093Y-14342009D02*
X15090616Y-14332485D01*
X15157283Y-14380105D02*
X15166807Y-14370581D01*
X15166807Y-14370581D02*
X15185854Y-14361057D01*
X15185854Y-14361057D02*
X15233474Y-14361057D01*
X15233474Y-14361057D02*
X15252521Y-14370581D01*
X15252521Y-14370581D02*
X15262045Y-14380105D01*
X15262045Y-14380105D02*
X15271569Y-14399152D01*
X15271569Y-14399152D02*
X15271569Y-14418200D01*
X15271569Y-14418200D02*
X15262045Y-14446771D01*
X15262045Y-14446771D02*
X15147759Y-14561057D01*
X15147759Y-14561057D02*
X15271569Y-14561057D01*
X15509664Y-14561057D02*
X15509664Y-14361057D01*
X15595378Y-14561057D02*
X15595378Y-14456295D01*
X15595378Y-14456295D02*
X15585855Y-14437247D01*
X15585855Y-14437247D02*
X15566807Y-14427724D01*
X15566807Y-14427724D02*
X15538235Y-14427724D01*
X15538235Y-14427724D02*
X15519188Y-14437247D01*
X15519188Y-14437247D02*
X15509664Y-14446771D01*
X15719188Y-14561057D02*
X15700140Y-14551533D01*
X15700140Y-14551533D02*
X15690616Y-14542009D01*
X15690616Y-14542009D02*
X15681093Y-14522962D01*
X15681093Y-14522962D02*
X15681093Y-14465819D01*
X15681093Y-14465819D02*
X15690616Y-14446771D01*
X15690616Y-14446771D02*
X15700140Y-14437247D01*
X15700140Y-14437247D02*
X15719188Y-14427724D01*
X15719188Y-14427724D02*
X15747759Y-14427724D01*
X15747759Y-14427724D02*
X15766807Y-14437247D01*
X15766807Y-14437247D02*
X15776331Y-14446771D01*
X15776331Y-14446771D02*
X15785855Y-14465819D01*
X15785855Y-14465819D02*
X15785855Y-14522962D01*
X15785855Y-14522962D02*
X15776331Y-14542009D01*
X15776331Y-14542009D02*
X15766807Y-14551533D01*
X15766807Y-14551533D02*
X15747759Y-14561057D01*
X15747759Y-14561057D02*
X15719188Y-14561057D01*
X15900140Y-14561057D02*
X15881093Y-14551533D01*
X15881093Y-14551533D02*
X15871569Y-14532485D01*
X15871569Y-14532485D02*
X15871569Y-14361057D01*
X16052521Y-14551533D02*
X16033474Y-14561057D01*
X16033474Y-14561057D02*
X15995378Y-14561057D01*
X15995378Y-14561057D02*
X15976331Y-14551533D01*
X15976331Y-14551533D02*
X15966807Y-14532485D01*
X15966807Y-14532485D02*
X15966807Y-14456295D01*
X15966807Y-14456295D02*
X15976331Y-14437247D01*
X15976331Y-14437247D02*
X15995378Y-14427724D01*
X15995378Y-14427724D02*
X16033474Y-14427724D01*
X16033474Y-14427724D02*
X16052521Y-14437247D01*
X16052521Y-14437247D02*
X16062045Y-14456295D01*
X16062045Y-14456295D02*
X16062045Y-14475343D01*
X16062045Y-14475343D02*
X15966807Y-14494390D01*
X16138236Y-14551533D02*
X16157283Y-14561057D01*
X16157283Y-14561057D02*
X16195378Y-14561057D01*
X16195378Y-14561057D02*
X16214426Y-14551533D01*
X16214426Y-14551533D02*
X16223950Y-14532485D01*
X16223950Y-14532485D02*
X16223950Y-14522962D01*
X16223950Y-14522962D02*
X16214426Y-14503914D01*
X16214426Y-14503914D02*
X16195378Y-14494390D01*
X16195378Y-14494390D02*
X16166807Y-14494390D01*
X16166807Y-14494390D02*
X16147759Y-14484866D01*
X16147759Y-14484866D02*
X16138236Y-14465819D01*
X16138236Y-14465819D02*
X16138236Y-14456295D01*
X16138236Y-14456295D02*
X16147759Y-14437247D01*
X16147759Y-14437247D02*
X16166807Y-14427724D01*
X16166807Y-14427724D02*
X16195378Y-14427724D01*
X16195378Y-14427724D02*
X16214426Y-14437247D01*
X16290617Y-14637247D02*
X16300140Y-14627724D01*
X16300140Y-14627724D02*
X16319188Y-14599152D01*
X16319188Y-14599152D02*
X16328712Y-14580105D01*
X16328712Y-14580105D02*
X16338236Y-14551533D01*
X16338236Y-14551533D02*
X16347759Y-14503914D01*
X16347759Y-14503914D02*
X16347759Y-14465819D01*
X16347759Y-14465819D02*
X16338236Y-14418200D01*
X16338236Y-14418200D02*
X16328712Y-14389628D01*
X16328712Y-14389628D02*
X16319188Y-14370581D01*
X16319188Y-14370581D02*
X16300140Y-14342009D01*
X16300140Y-14342009D02*
X16290617Y-14332485D01*
D12*
X11475554Y-14693573D02*
X11475554Y-14773573D01*
X11435554Y-14733573D02*
X11515554Y-14733573D01*
D11*
X11814426Y-14625057D02*
X11833473Y-14625057D01*
X11833473Y-14625057D02*
X11852521Y-14634581D01*
X11852521Y-14634581D02*
X11862045Y-14644105D01*
X11862045Y-14644105D02*
X11871568Y-14663152D01*
X11871568Y-14663152D02*
X11881092Y-14701247D01*
X11881092Y-14701247D02*
X11881092Y-14748866D01*
X11881092Y-14748866D02*
X11871568Y-14786962D01*
X11871568Y-14786962D02*
X11862045Y-14806009D01*
X11862045Y-14806009D02*
X11852521Y-14815533D01*
X11852521Y-14815533D02*
X11833473Y-14825057D01*
X11833473Y-14825057D02*
X11814426Y-14825057D01*
X11814426Y-14825057D02*
X11795378Y-14815533D01*
X11795378Y-14815533D02*
X11785854Y-14806009D01*
X11785854Y-14806009D02*
X11776330Y-14786962D01*
X11776330Y-14786962D02*
X11766807Y-14748866D01*
X11766807Y-14748866D02*
X11766807Y-14701247D01*
X11766807Y-14701247D02*
X11776330Y-14663152D01*
X11776330Y-14663152D02*
X11785854Y-14644105D01*
X11785854Y-14644105D02*
X11795378Y-14634581D01*
X11795378Y-14634581D02*
X11814426Y-14625057D01*
X11966807Y-14806009D02*
X11976330Y-14815533D01*
X11976330Y-14815533D02*
X11966807Y-14825057D01*
X11966807Y-14825057D02*
X11957283Y-14815533D01*
X11957283Y-14815533D02*
X11966807Y-14806009D01*
X11966807Y-14806009D02*
X11966807Y-14825057D01*
X12090616Y-14710771D02*
X12071568Y-14701247D01*
X12071568Y-14701247D02*
X12062045Y-14691724D01*
X12062045Y-14691724D02*
X12052521Y-14672676D01*
X12052521Y-14672676D02*
X12052521Y-14663152D01*
X12052521Y-14663152D02*
X12062045Y-14644105D01*
X12062045Y-14644105D02*
X12071568Y-14634581D01*
X12071568Y-14634581D02*
X12090616Y-14625057D01*
X12090616Y-14625057D02*
X12128711Y-14625057D01*
X12128711Y-14625057D02*
X12147759Y-14634581D01*
X12147759Y-14634581D02*
X12157283Y-14644105D01*
X12157283Y-14644105D02*
X12166807Y-14663152D01*
X12166807Y-14663152D02*
X12166807Y-14672676D01*
X12166807Y-14672676D02*
X12157283Y-14691724D01*
X12157283Y-14691724D02*
X12147759Y-14701247D01*
X12147759Y-14701247D02*
X12128711Y-14710771D01*
X12128711Y-14710771D02*
X12090616Y-14710771D01*
X12090616Y-14710771D02*
X12071568Y-14720295D01*
X12071568Y-14720295D02*
X12062045Y-14729819D01*
X12062045Y-14729819D02*
X12052521Y-14748866D01*
X12052521Y-14748866D02*
X12052521Y-14786962D01*
X12052521Y-14786962D02*
X12062045Y-14806009D01*
X12062045Y-14806009D02*
X12071568Y-14815533D01*
X12071568Y-14815533D02*
X12090616Y-14825057D01*
X12090616Y-14825057D02*
X12128711Y-14825057D01*
X12128711Y-14825057D02*
X12147759Y-14815533D01*
X12147759Y-14815533D02*
X12157283Y-14806009D01*
X12157283Y-14806009D02*
X12166807Y-14786962D01*
X12166807Y-14786962D02*
X12166807Y-14748866D01*
X12166807Y-14748866D02*
X12157283Y-14729819D01*
X12157283Y-14729819D02*
X12147759Y-14720295D01*
X12147759Y-14720295D02*
X12128711Y-14710771D01*
X12290616Y-14625057D02*
X12309664Y-14625057D01*
X12309664Y-14625057D02*
X12328711Y-14634581D01*
X12328711Y-14634581D02*
X12338235Y-14644105D01*
X12338235Y-14644105D02*
X12347759Y-14663152D01*
X12347759Y-14663152D02*
X12357283Y-14701247D01*
X12357283Y-14701247D02*
X12357283Y-14748866D01*
X12357283Y-14748866D02*
X12347759Y-14786962D01*
X12347759Y-14786962D02*
X12338235Y-14806009D01*
X12338235Y-14806009D02*
X12328711Y-14815533D01*
X12328711Y-14815533D02*
X12309664Y-14825057D01*
X12309664Y-14825057D02*
X12290616Y-14825057D01*
X12290616Y-14825057D02*
X12271568Y-14815533D01*
X12271568Y-14815533D02*
X12262045Y-14806009D01*
X12262045Y-14806009D02*
X12252521Y-14786962D01*
X12252521Y-14786962D02*
X12242997Y-14748866D01*
X12242997Y-14748866D02*
X12242997Y-14701247D01*
X12242997Y-14701247D02*
X12252521Y-14663152D01*
X12252521Y-14663152D02*
X12262045Y-14644105D01*
X12262045Y-14644105D02*
X12271568Y-14634581D01*
X12271568Y-14634581D02*
X12290616Y-14625057D01*
X12481092Y-14625057D02*
X12500140Y-14625057D01*
X12500140Y-14625057D02*
X12519188Y-14634581D01*
X12519188Y-14634581D02*
X12528711Y-14644105D01*
X12528711Y-14644105D02*
X12538235Y-14663152D01*
X12538235Y-14663152D02*
X12547759Y-14701247D01*
X12547759Y-14701247D02*
X12547759Y-14748866D01*
X12547759Y-14748866D02*
X12538235Y-14786962D01*
X12538235Y-14786962D02*
X12528711Y-14806009D01*
X12528711Y-14806009D02*
X12519188Y-14815533D01*
X12519188Y-14815533D02*
X12500140Y-14825057D01*
X12500140Y-14825057D02*
X12481092Y-14825057D01*
X12481092Y-14825057D02*
X12462045Y-14815533D01*
X12462045Y-14815533D02*
X12452521Y-14806009D01*
X12452521Y-14806009D02*
X12442997Y-14786962D01*
X12442997Y-14786962D02*
X12433473Y-14748866D01*
X12433473Y-14748866D02*
X12433473Y-14701247D01*
X12433473Y-14701247D02*
X12442997Y-14663152D01*
X12442997Y-14663152D02*
X12452521Y-14644105D01*
X12452521Y-14644105D02*
X12462045Y-14634581D01*
X12462045Y-14634581D02*
X12481092Y-14625057D01*
X12633473Y-14825057D02*
X12633473Y-14691724D01*
X12633473Y-14710771D02*
X12642997Y-14701247D01*
X12642997Y-14701247D02*
X12662045Y-14691724D01*
X12662045Y-14691724D02*
X12690616Y-14691724D01*
X12690616Y-14691724D02*
X12709664Y-14701247D01*
X12709664Y-14701247D02*
X12719188Y-14720295D01*
X12719188Y-14720295D02*
X12719188Y-14825057D01*
X12719188Y-14720295D02*
X12728711Y-14701247D01*
X12728711Y-14701247D02*
X12747759Y-14691724D01*
X12747759Y-14691724D02*
X12776330Y-14691724D01*
X12776330Y-14691724D02*
X12795378Y-14701247D01*
X12795378Y-14701247D02*
X12804902Y-14720295D01*
X12804902Y-14720295D02*
X12804902Y-14825057D01*
X12900140Y-14825057D02*
X12900140Y-14691724D01*
X12900140Y-14710771D02*
X12909664Y-14701247D01*
X12909664Y-14701247D02*
X12928711Y-14691724D01*
X12928711Y-14691724D02*
X12957283Y-14691724D01*
X12957283Y-14691724D02*
X12976330Y-14701247D01*
X12976330Y-14701247D02*
X12985854Y-14720295D01*
X12985854Y-14720295D02*
X12985854Y-14825057D01*
X12985854Y-14720295D02*
X12995378Y-14701247D01*
X12995378Y-14701247D02*
X13014426Y-14691724D01*
X13014426Y-14691724D02*
X13042997Y-14691724D01*
X13042997Y-14691724D02*
X13062045Y-14701247D01*
X13062045Y-14701247D02*
X13071569Y-14720295D01*
X13071569Y-14720295D02*
X13071569Y-14825057D01*
X13462045Y-14615533D02*
X13290616Y-14872676D01*
X13719188Y-14625057D02*
X13738235Y-14625057D01*
X13738235Y-14625057D02*
X13757283Y-14634581D01*
X13757283Y-14634581D02*
X13766807Y-14644105D01*
X13766807Y-14644105D02*
X13776331Y-14663152D01*
X13776331Y-14663152D02*
X13785854Y-14701247D01*
X13785854Y-14701247D02*
X13785854Y-14748866D01*
X13785854Y-14748866D02*
X13776331Y-14786962D01*
X13776331Y-14786962D02*
X13766807Y-14806009D01*
X13766807Y-14806009D02*
X13757283Y-14815533D01*
X13757283Y-14815533D02*
X13738235Y-14825057D01*
X13738235Y-14825057D02*
X13719188Y-14825057D01*
X13719188Y-14825057D02*
X13700140Y-14815533D01*
X13700140Y-14815533D02*
X13690616Y-14806009D01*
X13690616Y-14806009D02*
X13681092Y-14786962D01*
X13681092Y-14786962D02*
X13671569Y-14748866D01*
X13671569Y-14748866D02*
X13671569Y-14701247D01*
X13671569Y-14701247D02*
X13681092Y-14663152D01*
X13681092Y-14663152D02*
X13690616Y-14644105D01*
X13690616Y-14644105D02*
X13700140Y-14634581D01*
X13700140Y-14634581D02*
X13719188Y-14625057D01*
X13871569Y-14806009D02*
X13881092Y-14815533D01*
X13881092Y-14815533D02*
X13871569Y-14825057D01*
X13871569Y-14825057D02*
X13862045Y-14815533D01*
X13862045Y-14815533D02*
X13871569Y-14806009D01*
X13871569Y-14806009D02*
X13871569Y-14825057D01*
X14004902Y-14625057D02*
X14023950Y-14625057D01*
X14023950Y-14625057D02*
X14042997Y-14634581D01*
X14042997Y-14634581D02*
X14052521Y-14644105D01*
X14052521Y-14644105D02*
X14062045Y-14663152D01*
X14062045Y-14663152D02*
X14071569Y-14701247D01*
X14071569Y-14701247D02*
X14071569Y-14748866D01*
X14071569Y-14748866D02*
X14062045Y-14786962D01*
X14062045Y-14786962D02*
X14052521Y-14806009D01*
X14052521Y-14806009D02*
X14042997Y-14815533D01*
X14042997Y-14815533D02*
X14023950Y-14825057D01*
X14023950Y-14825057D02*
X14004902Y-14825057D01*
X14004902Y-14825057D02*
X13985854Y-14815533D01*
X13985854Y-14815533D02*
X13976331Y-14806009D01*
X13976331Y-14806009D02*
X13966807Y-14786962D01*
X13966807Y-14786962D02*
X13957283Y-14748866D01*
X13957283Y-14748866D02*
X13957283Y-14701247D01*
X13957283Y-14701247D02*
X13966807Y-14663152D01*
X13966807Y-14663152D02*
X13976331Y-14644105D01*
X13976331Y-14644105D02*
X13985854Y-14634581D01*
X13985854Y-14634581D02*
X14004902Y-14625057D01*
X14138235Y-14625057D02*
X14262045Y-14625057D01*
X14262045Y-14625057D02*
X14195378Y-14701247D01*
X14195378Y-14701247D02*
X14223950Y-14701247D01*
X14223950Y-14701247D02*
X14242997Y-14710771D01*
X14242997Y-14710771D02*
X14252521Y-14720295D01*
X14252521Y-14720295D02*
X14262045Y-14739343D01*
X14262045Y-14739343D02*
X14262045Y-14786962D01*
X14262045Y-14786962D02*
X14252521Y-14806009D01*
X14252521Y-14806009D02*
X14242997Y-14815533D01*
X14242997Y-14815533D02*
X14223950Y-14825057D01*
X14223950Y-14825057D02*
X14166807Y-14825057D01*
X14166807Y-14825057D02*
X14147759Y-14815533D01*
X14147759Y-14815533D02*
X14138235Y-14806009D01*
X14452521Y-14825057D02*
X14338235Y-14825057D01*
X14395378Y-14825057D02*
X14395378Y-14625057D01*
X14395378Y-14625057D02*
X14376331Y-14653628D01*
X14376331Y-14653628D02*
X14357283Y-14672676D01*
X14357283Y-14672676D02*
X14338235Y-14682200D01*
X14633473Y-14625057D02*
X14538235Y-14625057D01*
X14538235Y-14625057D02*
X14528712Y-14720295D01*
X14528712Y-14720295D02*
X14538235Y-14710771D01*
X14538235Y-14710771D02*
X14557283Y-14701247D01*
X14557283Y-14701247D02*
X14604902Y-14701247D01*
X14604902Y-14701247D02*
X14623950Y-14710771D01*
X14623950Y-14710771D02*
X14633473Y-14720295D01*
X14633473Y-14720295D02*
X14642997Y-14739343D01*
X14642997Y-14739343D02*
X14642997Y-14786962D01*
X14642997Y-14786962D02*
X14633473Y-14806009D01*
X14633473Y-14806009D02*
X14623950Y-14815533D01*
X14623950Y-14815533D02*
X14604902Y-14825057D01*
X14604902Y-14825057D02*
X14557283Y-14825057D01*
X14557283Y-14825057D02*
X14538235Y-14815533D01*
X14538235Y-14815533D02*
X14528712Y-14806009D01*
X14719188Y-14625057D02*
X14719188Y-14663152D01*
X14795378Y-14625057D02*
X14795378Y-14663152D01*
X15090616Y-14901247D02*
X15081093Y-14891724D01*
X15081093Y-14891724D02*
X15062045Y-14863152D01*
X15062045Y-14863152D02*
X15052521Y-14844105D01*
X15052521Y-14844105D02*
X15042997Y-14815533D01*
X15042997Y-14815533D02*
X15033474Y-14767914D01*
X15033474Y-14767914D02*
X15033474Y-14729819D01*
X15033474Y-14729819D02*
X15042997Y-14682200D01*
X15042997Y-14682200D02*
X15052521Y-14653628D01*
X15052521Y-14653628D02*
X15062045Y-14634581D01*
X15062045Y-14634581D02*
X15081093Y-14606009D01*
X15081093Y-14606009D02*
X15090616Y-14596485D01*
X15157283Y-14644105D02*
X15166807Y-14634581D01*
X15166807Y-14634581D02*
X15185854Y-14625057D01*
X15185854Y-14625057D02*
X15233474Y-14625057D01*
X15233474Y-14625057D02*
X15252521Y-14634581D01*
X15252521Y-14634581D02*
X15262045Y-14644105D01*
X15262045Y-14644105D02*
X15271569Y-14663152D01*
X15271569Y-14663152D02*
X15271569Y-14682200D01*
X15271569Y-14682200D02*
X15262045Y-14710771D01*
X15262045Y-14710771D02*
X15147759Y-14825057D01*
X15147759Y-14825057D02*
X15271569Y-14825057D01*
X15509664Y-14825057D02*
X15509664Y-14625057D01*
X15595378Y-14825057D02*
X15595378Y-14720295D01*
X15595378Y-14720295D02*
X15585855Y-14701247D01*
X15585855Y-14701247D02*
X15566807Y-14691724D01*
X15566807Y-14691724D02*
X15538235Y-14691724D01*
X15538235Y-14691724D02*
X15519188Y-14701247D01*
X15519188Y-14701247D02*
X15509664Y-14710771D01*
X15719188Y-14825057D02*
X15700140Y-14815533D01*
X15700140Y-14815533D02*
X15690616Y-14806009D01*
X15690616Y-14806009D02*
X15681093Y-14786962D01*
X15681093Y-14786962D02*
X15681093Y-14729819D01*
X15681093Y-14729819D02*
X15690616Y-14710771D01*
X15690616Y-14710771D02*
X15700140Y-14701247D01*
X15700140Y-14701247D02*
X15719188Y-14691724D01*
X15719188Y-14691724D02*
X15747759Y-14691724D01*
X15747759Y-14691724D02*
X15766807Y-14701247D01*
X15766807Y-14701247D02*
X15776331Y-14710771D01*
X15776331Y-14710771D02*
X15785855Y-14729819D01*
X15785855Y-14729819D02*
X15785855Y-14786962D01*
X15785855Y-14786962D02*
X15776331Y-14806009D01*
X15776331Y-14806009D02*
X15766807Y-14815533D01*
X15766807Y-14815533D02*
X15747759Y-14825057D01*
X15747759Y-14825057D02*
X15719188Y-14825057D01*
X15900140Y-14825057D02*
X15881093Y-14815533D01*
X15881093Y-14815533D02*
X15871569Y-14796485D01*
X15871569Y-14796485D02*
X15871569Y-14625057D01*
X16052521Y-14815533D02*
X16033474Y-14825057D01*
X16033474Y-14825057D02*
X15995378Y-14825057D01*
X15995378Y-14825057D02*
X15976331Y-14815533D01*
X15976331Y-14815533D02*
X15966807Y-14796485D01*
X15966807Y-14796485D02*
X15966807Y-14720295D01*
X15966807Y-14720295D02*
X15976331Y-14701247D01*
X15976331Y-14701247D02*
X15995378Y-14691724D01*
X15995378Y-14691724D02*
X16033474Y-14691724D01*
X16033474Y-14691724D02*
X16052521Y-14701247D01*
X16052521Y-14701247D02*
X16062045Y-14720295D01*
X16062045Y-14720295D02*
X16062045Y-14739343D01*
X16062045Y-14739343D02*
X15966807Y-14758390D01*
X16138236Y-14815533D02*
X16157283Y-14825057D01*
X16157283Y-14825057D02*
X16195378Y-14825057D01*
X16195378Y-14825057D02*
X16214426Y-14815533D01*
X16214426Y-14815533D02*
X16223950Y-14796485D01*
X16223950Y-14796485D02*
X16223950Y-14786962D01*
X16223950Y-14786962D02*
X16214426Y-14767914D01*
X16214426Y-14767914D02*
X16195378Y-14758390D01*
X16195378Y-14758390D02*
X16166807Y-14758390D01*
X16166807Y-14758390D02*
X16147759Y-14748866D01*
X16147759Y-14748866D02*
X16138236Y-14729819D01*
X16138236Y-14729819D02*
X16138236Y-14720295D01*
X16138236Y-14720295D02*
X16147759Y-14701247D01*
X16147759Y-14701247D02*
X16166807Y-14691724D01*
X16166807Y-14691724D02*
X16195378Y-14691724D01*
X16195378Y-14691724D02*
X16214426Y-14701247D01*
X16290617Y-14901247D02*
X16300140Y-14891724D01*
X16300140Y-14891724D02*
X16319188Y-14863152D01*
X16319188Y-14863152D02*
X16328712Y-14844105D01*
X16328712Y-14844105D02*
X16338236Y-14815533D01*
X16338236Y-14815533D02*
X16347759Y-14767914D01*
X16347759Y-14767914D02*
X16347759Y-14729819D01*
X16347759Y-14729819D02*
X16338236Y-14682200D01*
X16338236Y-14682200D02*
X16328712Y-14653628D01*
X16328712Y-14653628D02*
X16319188Y-14634581D01*
X16319188Y-14634581D02*
X16300140Y-14606009D01*
X16300140Y-14606009D02*
X16290617Y-14596485D01*
D12*
X11503106Y-15027625D02*
X11503106Y-14967521D01*
X11443001Y-14967521D01*
X11443001Y-15027625D01*
X11503106Y-15027625D01*
D11*
X11814426Y-14889057D02*
X11833473Y-14889057D01*
X11833473Y-14889057D02*
X11852521Y-14898581D01*
X11852521Y-14898581D02*
X11862045Y-14908105D01*
X11862045Y-14908105D02*
X11871568Y-14927152D01*
X11871568Y-14927152D02*
X11881092Y-14965247D01*
X11881092Y-14965247D02*
X11881092Y-15012866D01*
X11881092Y-15012866D02*
X11871568Y-15050962D01*
X11871568Y-15050962D02*
X11862045Y-15070009D01*
X11862045Y-15070009D02*
X11852521Y-15079533D01*
X11852521Y-15079533D02*
X11833473Y-15089057D01*
X11833473Y-15089057D02*
X11814426Y-15089057D01*
X11814426Y-15089057D02*
X11795378Y-15079533D01*
X11795378Y-15079533D02*
X11785854Y-15070009D01*
X11785854Y-15070009D02*
X11776330Y-15050962D01*
X11776330Y-15050962D02*
X11766807Y-15012866D01*
X11766807Y-15012866D02*
X11766807Y-14965247D01*
X11766807Y-14965247D02*
X11776330Y-14927152D01*
X11776330Y-14927152D02*
X11785854Y-14908105D01*
X11785854Y-14908105D02*
X11795378Y-14898581D01*
X11795378Y-14898581D02*
X11814426Y-14889057D01*
X11966807Y-15070009D02*
X11976330Y-15079533D01*
X11976330Y-15079533D02*
X11966807Y-15089057D01*
X11966807Y-15089057D02*
X11957283Y-15079533D01*
X11957283Y-15079533D02*
X11966807Y-15070009D01*
X11966807Y-15070009D02*
X11966807Y-15089057D01*
X12090616Y-14974771D02*
X12071568Y-14965247D01*
X12071568Y-14965247D02*
X12062045Y-14955724D01*
X12062045Y-14955724D02*
X12052521Y-14936676D01*
X12052521Y-14936676D02*
X12052521Y-14927152D01*
X12052521Y-14927152D02*
X12062045Y-14908105D01*
X12062045Y-14908105D02*
X12071568Y-14898581D01*
X12071568Y-14898581D02*
X12090616Y-14889057D01*
X12090616Y-14889057D02*
X12128711Y-14889057D01*
X12128711Y-14889057D02*
X12147759Y-14898581D01*
X12147759Y-14898581D02*
X12157283Y-14908105D01*
X12157283Y-14908105D02*
X12166807Y-14927152D01*
X12166807Y-14927152D02*
X12166807Y-14936676D01*
X12166807Y-14936676D02*
X12157283Y-14955724D01*
X12157283Y-14955724D02*
X12147759Y-14965247D01*
X12147759Y-14965247D02*
X12128711Y-14974771D01*
X12128711Y-14974771D02*
X12090616Y-14974771D01*
X12090616Y-14974771D02*
X12071568Y-14984295D01*
X12071568Y-14984295D02*
X12062045Y-14993819D01*
X12062045Y-14993819D02*
X12052521Y-15012866D01*
X12052521Y-15012866D02*
X12052521Y-15050962D01*
X12052521Y-15050962D02*
X12062045Y-15070009D01*
X12062045Y-15070009D02*
X12071568Y-15079533D01*
X12071568Y-15079533D02*
X12090616Y-15089057D01*
X12090616Y-15089057D02*
X12128711Y-15089057D01*
X12128711Y-15089057D02*
X12147759Y-15079533D01*
X12147759Y-15079533D02*
X12157283Y-15070009D01*
X12157283Y-15070009D02*
X12166807Y-15050962D01*
X12166807Y-15050962D02*
X12166807Y-15012866D01*
X12166807Y-15012866D02*
X12157283Y-14993819D01*
X12157283Y-14993819D02*
X12147759Y-14984295D01*
X12147759Y-14984295D02*
X12128711Y-14974771D01*
X12347759Y-14889057D02*
X12252521Y-14889057D01*
X12252521Y-14889057D02*
X12242997Y-14984295D01*
X12242997Y-14984295D02*
X12252521Y-14974771D01*
X12252521Y-14974771D02*
X12271568Y-14965247D01*
X12271568Y-14965247D02*
X12319188Y-14965247D01*
X12319188Y-14965247D02*
X12338235Y-14974771D01*
X12338235Y-14974771D02*
X12347759Y-14984295D01*
X12347759Y-14984295D02*
X12357283Y-15003343D01*
X12357283Y-15003343D02*
X12357283Y-15050962D01*
X12357283Y-15050962D02*
X12347759Y-15070009D01*
X12347759Y-15070009D02*
X12338235Y-15079533D01*
X12338235Y-15079533D02*
X12319188Y-15089057D01*
X12319188Y-15089057D02*
X12271568Y-15089057D01*
X12271568Y-15089057D02*
X12252521Y-15079533D01*
X12252521Y-15079533D02*
X12242997Y-15070009D01*
X12481092Y-14889057D02*
X12500140Y-14889057D01*
X12500140Y-14889057D02*
X12519188Y-14898581D01*
X12519188Y-14898581D02*
X12528711Y-14908105D01*
X12528711Y-14908105D02*
X12538235Y-14927152D01*
X12538235Y-14927152D02*
X12547759Y-14965247D01*
X12547759Y-14965247D02*
X12547759Y-15012866D01*
X12547759Y-15012866D02*
X12538235Y-15050962D01*
X12538235Y-15050962D02*
X12528711Y-15070009D01*
X12528711Y-15070009D02*
X12519188Y-15079533D01*
X12519188Y-15079533D02*
X12500140Y-15089057D01*
X12500140Y-15089057D02*
X12481092Y-15089057D01*
X12481092Y-15089057D02*
X12462045Y-15079533D01*
X12462045Y-15079533D02*
X12452521Y-15070009D01*
X12452521Y-15070009D02*
X12442997Y-15050962D01*
X12442997Y-15050962D02*
X12433473Y-15012866D01*
X12433473Y-15012866D02*
X12433473Y-14965247D01*
X12433473Y-14965247D02*
X12442997Y-14927152D01*
X12442997Y-14927152D02*
X12452521Y-14908105D01*
X12452521Y-14908105D02*
X12462045Y-14898581D01*
X12462045Y-14898581D02*
X12481092Y-14889057D01*
X12633473Y-15089057D02*
X12633473Y-14955724D01*
X12633473Y-14974771D02*
X12642997Y-14965247D01*
X12642997Y-14965247D02*
X12662045Y-14955724D01*
X12662045Y-14955724D02*
X12690616Y-14955724D01*
X12690616Y-14955724D02*
X12709664Y-14965247D01*
X12709664Y-14965247D02*
X12719188Y-14984295D01*
X12719188Y-14984295D02*
X12719188Y-15089057D01*
X12719188Y-14984295D02*
X12728711Y-14965247D01*
X12728711Y-14965247D02*
X12747759Y-14955724D01*
X12747759Y-14955724D02*
X12776330Y-14955724D01*
X12776330Y-14955724D02*
X12795378Y-14965247D01*
X12795378Y-14965247D02*
X12804902Y-14984295D01*
X12804902Y-14984295D02*
X12804902Y-15089057D01*
X12900140Y-15089057D02*
X12900140Y-14955724D01*
X12900140Y-14974771D02*
X12909664Y-14965247D01*
X12909664Y-14965247D02*
X12928711Y-14955724D01*
X12928711Y-14955724D02*
X12957283Y-14955724D01*
X12957283Y-14955724D02*
X12976330Y-14965247D01*
X12976330Y-14965247D02*
X12985854Y-14984295D01*
X12985854Y-14984295D02*
X12985854Y-15089057D01*
X12985854Y-14984295D02*
X12995378Y-14965247D01*
X12995378Y-14965247D02*
X13014426Y-14955724D01*
X13014426Y-14955724D02*
X13042997Y-14955724D01*
X13042997Y-14955724D02*
X13062045Y-14965247D01*
X13062045Y-14965247D02*
X13071569Y-14984295D01*
X13071569Y-14984295D02*
X13071569Y-15089057D01*
X13462045Y-14879533D02*
X13290616Y-15136676D01*
X13719188Y-14889057D02*
X13738235Y-14889057D01*
X13738235Y-14889057D02*
X13757283Y-14898581D01*
X13757283Y-14898581D02*
X13766807Y-14908105D01*
X13766807Y-14908105D02*
X13776331Y-14927152D01*
X13776331Y-14927152D02*
X13785854Y-14965247D01*
X13785854Y-14965247D02*
X13785854Y-15012866D01*
X13785854Y-15012866D02*
X13776331Y-15050962D01*
X13776331Y-15050962D02*
X13766807Y-15070009D01*
X13766807Y-15070009D02*
X13757283Y-15079533D01*
X13757283Y-15079533D02*
X13738235Y-15089057D01*
X13738235Y-15089057D02*
X13719188Y-15089057D01*
X13719188Y-15089057D02*
X13700140Y-15079533D01*
X13700140Y-15079533D02*
X13690616Y-15070009D01*
X13690616Y-15070009D02*
X13681092Y-15050962D01*
X13681092Y-15050962D02*
X13671569Y-15012866D01*
X13671569Y-15012866D02*
X13671569Y-14965247D01*
X13671569Y-14965247D02*
X13681092Y-14927152D01*
X13681092Y-14927152D02*
X13690616Y-14908105D01*
X13690616Y-14908105D02*
X13700140Y-14898581D01*
X13700140Y-14898581D02*
X13719188Y-14889057D01*
X13871569Y-15070009D02*
X13881092Y-15079533D01*
X13881092Y-15079533D02*
X13871569Y-15089057D01*
X13871569Y-15089057D02*
X13862045Y-15079533D01*
X13862045Y-15079533D02*
X13871569Y-15070009D01*
X13871569Y-15070009D02*
X13871569Y-15089057D01*
X14004902Y-14889057D02*
X14023950Y-14889057D01*
X14023950Y-14889057D02*
X14042997Y-14898581D01*
X14042997Y-14898581D02*
X14052521Y-14908105D01*
X14052521Y-14908105D02*
X14062045Y-14927152D01*
X14062045Y-14927152D02*
X14071569Y-14965247D01*
X14071569Y-14965247D02*
X14071569Y-15012866D01*
X14071569Y-15012866D02*
X14062045Y-15050962D01*
X14062045Y-15050962D02*
X14052521Y-15070009D01*
X14052521Y-15070009D02*
X14042997Y-15079533D01*
X14042997Y-15079533D02*
X14023950Y-15089057D01*
X14023950Y-15089057D02*
X14004902Y-15089057D01*
X14004902Y-15089057D02*
X13985854Y-15079533D01*
X13985854Y-15079533D02*
X13976331Y-15070009D01*
X13976331Y-15070009D02*
X13966807Y-15050962D01*
X13966807Y-15050962D02*
X13957283Y-15012866D01*
X13957283Y-15012866D02*
X13957283Y-14965247D01*
X13957283Y-14965247D02*
X13966807Y-14927152D01*
X13966807Y-14927152D02*
X13976331Y-14908105D01*
X13976331Y-14908105D02*
X13985854Y-14898581D01*
X13985854Y-14898581D02*
X14004902Y-14889057D01*
X14138235Y-14889057D02*
X14262045Y-14889057D01*
X14262045Y-14889057D02*
X14195378Y-14965247D01*
X14195378Y-14965247D02*
X14223950Y-14965247D01*
X14223950Y-14965247D02*
X14242997Y-14974771D01*
X14242997Y-14974771D02*
X14252521Y-14984295D01*
X14252521Y-14984295D02*
X14262045Y-15003343D01*
X14262045Y-15003343D02*
X14262045Y-15050962D01*
X14262045Y-15050962D02*
X14252521Y-15070009D01*
X14252521Y-15070009D02*
X14242997Y-15079533D01*
X14242997Y-15079533D02*
X14223950Y-15089057D01*
X14223950Y-15089057D02*
X14166807Y-15089057D01*
X14166807Y-15089057D02*
X14147759Y-15079533D01*
X14147759Y-15079533D02*
X14138235Y-15070009D01*
X14328712Y-14889057D02*
X14452521Y-14889057D01*
X14452521Y-14889057D02*
X14385854Y-14965247D01*
X14385854Y-14965247D02*
X14414426Y-14965247D01*
X14414426Y-14965247D02*
X14433473Y-14974771D01*
X14433473Y-14974771D02*
X14442997Y-14984295D01*
X14442997Y-14984295D02*
X14452521Y-15003343D01*
X14452521Y-15003343D02*
X14452521Y-15050962D01*
X14452521Y-15050962D02*
X14442997Y-15070009D01*
X14442997Y-15070009D02*
X14433473Y-15079533D01*
X14433473Y-15079533D02*
X14414426Y-15089057D01*
X14414426Y-15089057D02*
X14357283Y-15089057D01*
X14357283Y-15089057D02*
X14338235Y-15079533D01*
X14338235Y-15079533D02*
X14328712Y-15070009D01*
X14633473Y-14889057D02*
X14538235Y-14889057D01*
X14538235Y-14889057D02*
X14528712Y-14984295D01*
X14528712Y-14984295D02*
X14538235Y-14974771D01*
X14538235Y-14974771D02*
X14557283Y-14965247D01*
X14557283Y-14965247D02*
X14604902Y-14965247D01*
X14604902Y-14965247D02*
X14623950Y-14974771D01*
X14623950Y-14974771D02*
X14633473Y-14984295D01*
X14633473Y-14984295D02*
X14642997Y-15003343D01*
X14642997Y-15003343D02*
X14642997Y-15050962D01*
X14642997Y-15050962D02*
X14633473Y-15070009D01*
X14633473Y-15070009D02*
X14623950Y-15079533D01*
X14623950Y-15079533D02*
X14604902Y-15089057D01*
X14604902Y-15089057D02*
X14557283Y-15089057D01*
X14557283Y-15089057D02*
X14538235Y-15079533D01*
X14538235Y-15079533D02*
X14528712Y-15070009D01*
X14719188Y-14889057D02*
X14719188Y-14927152D01*
X14795378Y-14889057D02*
X14795378Y-14927152D01*
X15090616Y-15165247D02*
X15081093Y-15155724D01*
X15081093Y-15155724D02*
X15062045Y-15127152D01*
X15062045Y-15127152D02*
X15052521Y-15108105D01*
X15052521Y-15108105D02*
X15042997Y-15079533D01*
X15042997Y-15079533D02*
X15033474Y-15031914D01*
X15033474Y-15031914D02*
X15033474Y-14993819D01*
X15033474Y-14993819D02*
X15042997Y-14946200D01*
X15042997Y-14946200D02*
X15052521Y-14917628D01*
X15052521Y-14917628D02*
X15062045Y-14898581D01*
X15062045Y-14898581D02*
X15081093Y-14870009D01*
X15081093Y-14870009D02*
X15090616Y-14860485D01*
X15271569Y-15089057D02*
X15157283Y-15089057D01*
X15214426Y-15089057D02*
X15214426Y-14889057D01*
X15214426Y-14889057D02*
X15195378Y-14917628D01*
X15195378Y-14917628D02*
X15176331Y-14936676D01*
X15176331Y-14936676D02*
X15157283Y-14946200D01*
X15509664Y-15089057D02*
X15509664Y-14889057D01*
X15595378Y-15089057D02*
X15595378Y-14984295D01*
X15595378Y-14984295D02*
X15585855Y-14965247D01*
X15585855Y-14965247D02*
X15566807Y-14955724D01*
X15566807Y-14955724D02*
X15538235Y-14955724D01*
X15538235Y-14955724D02*
X15519188Y-14965247D01*
X15519188Y-14965247D02*
X15509664Y-14974771D01*
X15719188Y-15089057D02*
X15700140Y-15079533D01*
X15700140Y-15079533D02*
X15690616Y-15070009D01*
X15690616Y-15070009D02*
X15681093Y-15050962D01*
X15681093Y-15050962D02*
X15681093Y-14993819D01*
X15681093Y-14993819D02*
X15690616Y-14974771D01*
X15690616Y-14974771D02*
X15700140Y-14965247D01*
X15700140Y-14965247D02*
X15719188Y-14955724D01*
X15719188Y-14955724D02*
X15747759Y-14955724D01*
X15747759Y-14955724D02*
X15766807Y-14965247D01*
X15766807Y-14965247D02*
X15776331Y-14974771D01*
X15776331Y-14974771D02*
X15785855Y-14993819D01*
X15785855Y-14993819D02*
X15785855Y-15050962D01*
X15785855Y-15050962D02*
X15776331Y-15070009D01*
X15776331Y-15070009D02*
X15766807Y-15079533D01*
X15766807Y-15079533D02*
X15747759Y-15089057D01*
X15747759Y-15089057D02*
X15719188Y-15089057D01*
X15900140Y-15089057D02*
X15881093Y-15079533D01*
X15881093Y-15079533D02*
X15871569Y-15060485D01*
X15871569Y-15060485D02*
X15871569Y-14889057D01*
X16052521Y-15079533D02*
X16033474Y-15089057D01*
X16033474Y-15089057D02*
X15995378Y-15089057D01*
X15995378Y-15089057D02*
X15976331Y-15079533D01*
X15976331Y-15079533D02*
X15966807Y-15060485D01*
X15966807Y-15060485D02*
X15966807Y-14984295D01*
X15966807Y-14984295D02*
X15976331Y-14965247D01*
X15976331Y-14965247D02*
X15995378Y-14955724D01*
X15995378Y-14955724D02*
X16033474Y-14955724D01*
X16033474Y-14955724D02*
X16052521Y-14965247D01*
X16052521Y-14965247D02*
X16062045Y-14984295D01*
X16062045Y-14984295D02*
X16062045Y-15003343D01*
X16062045Y-15003343D02*
X15966807Y-15022390D01*
X16128712Y-15165247D02*
X16138236Y-15155724D01*
X16138236Y-15155724D02*
X16157283Y-15127152D01*
X16157283Y-15127152D02*
X16166807Y-15108105D01*
X16166807Y-15108105D02*
X16176331Y-15079533D01*
X16176331Y-15079533D02*
X16185855Y-15031914D01*
X16185855Y-15031914D02*
X16185855Y-14993819D01*
X16185855Y-14993819D02*
X16176331Y-14946200D01*
X16176331Y-14946200D02*
X16166807Y-14917628D01*
X16166807Y-14917628D02*
X16157283Y-14898581D01*
X16157283Y-14898581D02*
X16138236Y-14870009D01*
X16138236Y-14870009D02*
X16128712Y-14860485D01*
D12*
X11468054Y-15309073D02*
X11515554Y-15261573D01*
X11468054Y-15214073D01*
X11420554Y-15261573D01*
X11468054Y-15309073D01*
D11*
X11814426Y-15153057D02*
X11833473Y-15153057D01*
X11833473Y-15153057D02*
X11852521Y-15162581D01*
X11852521Y-15162581D02*
X11862045Y-15172105D01*
X11862045Y-15172105D02*
X11871568Y-15191152D01*
X11871568Y-15191152D02*
X11881092Y-15229247D01*
X11881092Y-15229247D02*
X11881092Y-15276866D01*
X11881092Y-15276866D02*
X11871568Y-15314962D01*
X11871568Y-15314962D02*
X11862045Y-15334009D01*
X11862045Y-15334009D02*
X11852521Y-15343533D01*
X11852521Y-15343533D02*
X11833473Y-15353057D01*
X11833473Y-15353057D02*
X11814426Y-15353057D01*
X11814426Y-15353057D02*
X11795378Y-15343533D01*
X11795378Y-15343533D02*
X11785854Y-15334009D01*
X11785854Y-15334009D02*
X11776330Y-15314962D01*
X11776330Y-15314962D02*
X11766807Y-15276866D01*
X11766807Y-15276866D02*
X11766807Y-15229247D01*
X11766807Y-15229247D02*
X11776330Y-15191152D01*
X11776330Y-15191152D02*
X11785854Y-15172105D01*
X11785854Y-15172105D02*
X11795378Y-15162581D01*
X11795378Y-15162581D02*
X11814426Y-15153057D01*
X11966807Y-15334009D02*
X11976330Y-15343533D01*
X11976330Y-15343533D02*
X11966807Y-15353057D01*
X11966807Y-15353057D02*
X11957283Y-15343533D01*
X11957283Y-15343533D02*
X11966807Y-15334009D01*
X11966807Y-15334009D02*
X11966807Y-15353057D01*
X12071568Y-15353057D02*
X12109664Y-15353057D01*
X12109664Y-15353057D02*
X12128711Y-15343533D01*
X12128711Y-15343533D02*
X12138235Y-15334009D01*
X12138235Y-15334009D02*
X12157283Y-15305438D01*
X12157283Y-15305438D02*
X12166807Y-15267343D01*
X12166807Y-15267343D02*
X12166807Y-15191152D01*
X12166807Y-15191152D02*
X12157283Y-15172105D01*
X12157283Y-15172105D02*
X12147759Y-15162581D01*
X12147759Y-15162581D02*
X12128711Y-15153057D01*
X12128711Y-15153057D02*
X12090616Y-15153057D01*
X12090616Y-15153057D02*
X12071568Y-15162581D01*
X12071568Y-15162581D02*
X12062045Y-15172105D01*
X12062045Y-15172105D02*
X12052521Y-15191152D01*
X12052521Y-15191152D02*
X12052521Y-15238771D01*
X12052521Y-15238771D02*
X12062045Y-15257819D01*
X12062045Y-15257819D02*
X12071568Y-15267343D01*
X12071568Y-15267343D02*
X12090616Y-15276866D01*
X12090616Y-15276866D02*
X12128711Y-15276866D01*
X12128711Y-15276866D02*
X12147759Y-15267343D01*
X12147759Y-15267343D02*
X12157283Y-15257819D01*
X12157283Y-15257819D02*
X12166807Y-15238771D01*
X12347759Y-15153057D02*
X12252521Y-15153057D01*
X12252521Y-15153057D02*
X12242997Y-15248295D01*
X12242997Y-15248295D02*
X12252521Y-15238771D01*
X12252521Y-15238771D02*
X12271568Y-15229247D01*
X12271568Y-15229247D02*
X12319188Y-15229247D01*
X12319188Y-15229247D02*
X12338235Y-15238771D01*
X12338235Y-15238771D02*
X12347759Y-15248295D01*
X12347759Y-15248295D02*
X12357283Y-15267343D01*
X12357283Y-15267343D02*
X12357283Y-15314962D01*
X12357283Y-15314962D02*
X12347759Y-15334009D01*
X12347759Y-15334009D02*
X12338235Y-15343533D01*
X12338235Y-15343533D02*
X12319188Y-15353057D01*
X12319188Y-15353057D02*
X12271568Y-15353057D01*
X12271568Y-15353057D02*
X12252521Y-15343533D01*
X12252521Y-15343533D02*
X12242997Y-15334009D01*
X12481092Y-15153057D02*
X12500140Y-15153057D01*
X12500140Y-15153057D02*
X12519188Y-15162581D01*
X12519188Y-15162581D02*
X12528711Y-15172105D01*
X12528711Y-15172105D02*
X12538235Y-15191152D01*
X12538235Y-15191152D02*
X12547759Y-15229247D01*
X12547759Y-15229247D02*
X12547759Y-15276866D01*
X12547759Y-15276866D02*
X12538235Y-15314962D01*
X12538235Y-15314962D02*
X12528711Y-15334009D01*
X12528711Y-15334009D02*
X12519188Y-15343533D01*
X12519188Y-15343533D02*
X12500140Y-15353057D01*
X12500140Y-15353057D02*
X12481092Y-15353057D01*
X12481092Y-15353057D02*
X12462045Y-15343533D01*
X12462045Y-15343533D02*
X12452521Y-15334009D01*
X12452521Y-15334009D02*
X12442997Y-15314962D01*
X12442997Y-15314962D02*
X12433473Y-15276866D01*
X12433473Y-15276866D02*
X12433473Y-15229247D01*
X12433473Y-15229247D02*
X12442997Y-15191152D01*
X12442997Y-15191152D02*
X12452521Y-15172105D01*
X12452521Y-15172105D02*
X12462045Y-15162581D01*
X12462045Y-15162581D02*
X12481092Y-15153057D01*
X12633473Y-15353057D02*
X12633473Y-15219724D01*
X12633473Y-15238771D02*
X12642997Y-15229247D01*
X12642997Y-15229247D02*
X12662045Y-15219724D01*
X12662045Y-15219724D02*
X12690616Y-15219724D01*
X12690616Y-15219724D02*
X12709664Y-15229247D01*
X12709664Y-15229247D02*
X12719188Y-15248295D01*
X12719188Y-15248295D02*
X12719188Y-15353057D01*
X12719188Y-15248295D02*
X12728711Y-15229247D01*
X12728711Y-15229247D02*
X12747759Y-15219724D01*
X12747759Y-15219724D02*
X12776330Y-15219724D01*
X12776330Y-15219724D02*
X12795378Y-15229247D01*
X12795378Y-15229247D02*
X12804902Y-15248295D01*
X12804902Y-15248295D02*
X12804902Y-15353057D01*
X12900140Y-15353057D02*
X12900140Y-15219724D01*
X12900140Y-15238771D02*
X12909664Y-15229247D01*
X12909664Y-15229247D02*
X12928711Y-15219724D01*
X12928711Y-15219724D02*
X12957283Y-15219724D01*
X12957283Y-15219724D02*
X12976330Y-15229247D01*
X12976330Y-15229247D02*
X12985854Y-15248295D01*
X12985854Y-15248295D02*
X12985854Y-15353057D01*
X12985854Y-15248295D02*
X12995378Y-15229247D01*
X12995378Y-15229247D02*
X13014426Y-15219724D01*
X13014426Y-15219724D02*
X13042997Y-15219724D01*
X13042997Y-15219724D02*
X13062045Y-15229247D01*
X13062045Y-15229247D02*
X13071569Y-15248295D01*
X13071569Y-15248295D02*
X13071569Y-15353057D01*
X13462045Y-15143533D02*
X13290616Y-15400676D01*
X13719188Y-15153057D02*
X13738235Y-15153057D01*
X13738235Y-15153057D02*
X13757283Y-15162581D01*
X13757283Y-15162581D02*
X13766807Y-15172105D01*
X13766807Y-15172105D02*
X13776331Y-15191152D01*
X13776331Y-15191152D02*
X13785854Y-15229247D01*
X13785854Y-15229247D02*
X13785854Y-15276866D01*
X13785854Y-15276866D02*
X13776331Y-15314962D01*
X13776331Y-15314962D02*
X13766807Y-15334009D01*
X13766807Y-15334009D02*
X13757283Y-15343533D01*
X13757283Y-15343533D02*
X13738235Y-15353057D01*
X13738235Y-15353057D02*
X13719188Y-15353057D01*
X13719188Y-15353057D02*
X13700140Y-15343533D01*
X13700140Y-15343533D02*
X13690616Y-15334009D01*
X13690616Y-15334009D02*
X13681092Y-15314962D01*
X13681092Y-15314962D02*
X13671569Y-15276866D01*
X13671569Y-15276866D02*
X13671569Y-15229247D01*
X13671569Y-15229247D02*
X13681092Y-15191152D01*
X13681092Y-15191152D02*
X13690616Y-15172105D01*
X13690616Y-15172105D02*
X13700140Y-15162581D01*
X13700140Y-15162581D02*
X13719188Y-15153057D01*
X13871569Y-15334009D02*
X13881092Y-15343533D01*
X13881092Y-15343533D02*
X13871569Y-15353057D01*
X13871569Y-15353057D02*
X13862045Y-15343533D01*
X13862045Y-15343533D02*
X13871569Y-15334009D01*
X13871569Y-15334009D02*
X13871569Y-15353057D01*
X14004902Y-15153057D02*
X14023950Y-15153057D01*
X14023950Y-15153057D02*
X14042997Y-15162581D01*
X14042997Y-15162581D02*
X14052521Y-15172105D01*
X14052521Y-15172105D02*
X14062045Y-15191152D01*
X14062045Y-15191152D02*
X14071569Y-15229247D01*
X14071569Y-15229247D02*
X14071569Y-15276866D01*
X14071569Y-15276866D02*
X14062045Y-15314962D01*
X14062045Y-15314962D02*
X14052521Y-15334009D01*
X14052521Y-15334009D02*
X14042997Y-15343533D01*
X14042997Y-15343533D02*
X14023950Y-15353057D01*
X14023950Y-15353057D02*
X14004902Y-15353057D01*
X14004902Y-15353057D02*
X13985854Y-15343533D01*
X13985854Y-15343533D02*
X13976331Y-15334009D01*
X13976331Y-15334009D02*
X13966807Y-15314962D01*
X13966807Y-15314962D02*
X13957283Y-15276866D01*
X13957283Y-15276866D02*
X13957283Y-15229247D01*
X13957283Y-15229247D02*
X13966807Y-15191152D01*
X13966807Y-15191152D02*
X13976331Y-15172105D01*
X13976331Y-15172105D02*
X13985854Y-15162581D01*
X13985854Y-15162581D02*
X14004902Y-15153057D01*
X14138235Y-15153057D02*
X14262045Y-15153057D01*
X14262045Y-15153057D02*
X14195378Y-15229247D01*
X14195378Y-15229247D02*
X14223950Y-15229247D01*
X14223950Y-15229247D02*
X14242997Y-15238771D01*
X14242997Y-15238771D02*
X14252521Y-15248295D01*
X14252521Y-15248295D02*
X14262045Y-15267343D01*
X14262045Y-15267343D02*
X14262045Y-15314962D01*
X14262045Y-15314962D02*
X14252521Y-15334009D01*
X14252521Y-15334009D02*
X14242997Y-15343533D01*
X14242997Y-15343533D02*
X14223950Y-15353057D01*
X14223950Y-15353057D02*
X14166807Y-15353057D01*
X14166807Y-15353057D02*
X14147759Y-15343533D01*
X14147759Y-15343533D02*
X14138235Y-15334009D01*
X14328712Y-15153057D02*
X14462045Y-15153057D01*
X14462045Y-15153057D02*
X14376331Y-15353057D01*
X14623950Y-15219724D02*
X14623950Y-15353057D01*
X14576331Y-15143533D02*
X14528712Y-15286390D01*
X14528712Y-15286390D02*
X14652521Y-15286390D01*
X14719188Y-15153057D02*
X14719188Y-15191152D01*
X14795378Y-15153057D02*
X14795378Y-15191152D01*
X15090616Y-15429247D02*
X15081093Y-15419724D01*
X15081093Y-15419724D02*
X15062045Y-15391152D01*
X15062045Y-15391152D02*
X15052521Y-15372105D01*
X15052521Y-15372105D02*
X15042997Y-15343533D01*
X15042997Y-15343533D02*
X15033474Y-15295914D01*
X15033474Y-15295914D02*
X15033474Y-15257819D01*
X15033474Y-15257819D02*
X15042997Y-15210200D01*
X15042997Y-15210200D02*
X15052521Y-15181628D01*
X15052521Y-15181628D02*
X15062045Y-15162581D01*
X15062045Y-15162581D02*
X15081093Y-15134009D01*
X15081093Y-15134009D02*
X15090616Y-15124485D01*
X15176331Y-15353057D02*
X15214426Y-15353057D01*
X15214426Y-15353057D02*
X15233474Y-15343533D01*
X15233474Y-15343533D02*
X15242997Y-15334009D01*
X15242997Y-15334009D02*
X15262045Y-15305438D01*
X15262045Y-15305438D02*
X15271569Y-15267343D01*
X15271569Y-15267343D02*
X15271569Y-15191152D01*
X15271569Y-15191152D02*
X15262045Y-15172105D01*
X15262045Y-15172105D02*
X15252521Y-15162581D01*
X15252521Y-15162581D02*
X15233474Y-15153057D01*
X15233474Y-15153057D02*
X15195378Y-15153057D01*
X15195378Y-15153057D02*
X15176331Y-15162581D01*
X15176331Y-15162581D02*
X15166807Y-15172105D01*
X15166807Y-15172105D02*
X15157283Y-15191152D01*
X15157283Y-15191152D02*
X15157283Y-15238771D01*
X15157283Y-15238771D02*
X15166807Y-15257819D01*
X15166807Y-15257819D02*
X15176331Y-15267343D01*
X15176331Y-15267343D02*
X15195378Y-15276866D01*
X15195378Y-15276866D02*
X15233474Y-15276866D01*
X15233474Y-15276866D02*
X15252521Y-15267343D01*
X15252521Y-15267343D02*
X15262045Y-15257819D01*
X15262045Y-15257819D02*
X15271569Y-15238771D01*
X15509664Y-15353057D02*
X15509664Y-15153057D01*
X15595378Y-15353057D02*
X15595378Y-15248295D01*
X15595378Y-15248295D02*
X15585855Y-15229247D01*
X15585855Y-15229247D02*
X15566807Y-15219724D01*
X15566807Y-15219724D02*
X15538235Y-15219724D01*
X15538235Y-15219724D02*
X15519188Y-15229247D01*
X15519188Y-15229247D02*
X15509664Y-15238771D01*
X15719188Y-15353057D02*
X15700140Y-15343533D01*
X15700140Y-15343533D02*
X15690616Y-15334009D01*
X15690616Y-15334009D02*
X15681093Y-15314962D01*
X15681093Y-15314962D02*
X15681093Y-15257819D01*
X15681093Y-15257819D02*
X15690616Y-15238771D01*
X15690616Y-15238771D02*
X15700140Y-15229247D01*
X15700140Y-15229247D02*
X15719188Y-15219724D01*
X15719188Y-15219724D02*
X15747759Y-15219724D01*
X15747759Y-15219724D02*
X15766807Y-15229247D01*
X15766807Y-15229247D02*
X15776331Y-15238771D01*
X15776331Y-15238771D02*
X15785855Y-15257819D01*
X15785855Y-15257819D02*
X15785855Y-15314962D01*
X15785855Y-15314962D02*
X15776331Y-15334009D01*
X15776331Y-15334009D02*
X15766807Y-15343533D01*
X15766807Y-15343533D02*
X15747759Y-15353057D01*
X15747759Y-15353057D02*
X15719188Y-15353057D01*
X15900140Y-15353057D02*
X15881093Y-15343533D01*
X15881093Y-15343533D02*
X15871569Y-15324485D01*
X15871569Y-15324485D02*
X15871569Y-15153057D01*
X16052521Y-15343533D02*
X16033474Y-15353057D01*
X16033474Y-15353057D02*
X15995378Y-15353057D01*
X15995378Y-15353057D02*
X15976331Y-15343533D01*
X15976331Y-15343533D02*
X15966807Y-15324485D01*
X15966807Y-15324485D02*
X15966807Y-15248295D01*
X15966807Y-15248295D02*
X15976331Y-15229247D01*
X15976331Y-15229247D02*
X15995378Y-15219724D01*
X15995378Y-15219724D02*
X16033474Y-15219724D01*
X16033474Y-15219724D02*
X16052521Y-15229247D01*
X16052521Y-15229247D02*
X16062045Y-15248295D01*
X16062045Y-15248295D02*
X16062045Y-15267343D01*
X16062045Y-15267343D02*
X15966807Y-15286390D01*
X16138236Y-15343533D02*
X16157283Y-15353057D01*
X16157283Y-15353057D02*
X16195378Y-15353057D01*
X16195378Y-15353057D02*
X16214426Y-15343533D01*
X16214426Y-15343533D02*
X16223950Y-15324485D01*
X16223950Y-15324485D02*
X16223950Y-15314962D01*
X16223950Y-15314962D02*
X16214426Y-15295914D01*
X16214426Y-15295914D02*
X16195378Y-15286390D01*
X16195378Y-15286390D02*
X16166807Y-15286390D01*
X16166807Y-15286390D02*
X16147759Y-15276866D01*
X16147759Y-15276866D02*
X16138236Y-15257819D01*
X16138236Y-15257819D02*
X16138236Y-15248295D01*
X16138236Y-15248295D02*
X16147759Y-15229247D01*
X16147759Y-15229247D02*
X16166807Y-15219724D01*
X16166807Y-15219724D02*
X16195378Y-15219724D01*
X16195378Y-15219724D02*
X16214426Y-15229247D01*
X16290617Y-15429247D02*
X16300140Y-15419724D01*
X16300140Y-15419724D02*
X16319188Y-15391152D01*
X16319188Y-15391152D02*
X16328712Y-15372105D01*
X16328712Y-15372105D02*
X16338236Y-15343533D01*
X16338236Y-15343533D02*
X16347759Y-15295914D01*
X16347759Y-15295914D02*
X16347759Y-15257819D01*
X16347759Y-15257819D02*
X16338236Y-15210200D01*
X16338236Y-15210200D02*
X16328712Y-15181628D01*
X16328712Y-15181628D02*
X16319188Y-15162581D01*
X16319188Y-15162581D02*
X16300140Y-15134009D01*
X16300140Y-15134009D02*
X16290617Y-15124485D01*
D12*
X11415554Y-15475573D02*
X11515554Y-15575573D01*
X11515554Y-15475573D02*
X11415554Y-15575573D01*
X11515554Y-15525573D02*
G75*
G02*
X11415554Y-15525573I-50000J0D01*
G01*
X11415554Y-15525573D02*
G75*
G02*
X11515554Y-15525573I50000J0D01*
G01*
D11*
X11881092Y-15617057D02*
X11766807Y-15617057D01*
X11823949Y-15617057D02*
X11823949Y-15417057D01*
X11823949Y-15417057D02*
X11804902Y-15445628D01*
X11804902Y-15445628D02*
X11785854Y-15464676D01*
X11785854Y-15464676D02*
X11766807Y-15474200D01*
X11966807Y-15598009D02*
X11976330Y-15607533D01*
X11976330Y-15607533D02*
X11966807Y-15617057D01*
X11966807Y-15617057D02*
X11957283Y-15607533D01*
X11957283Y-15607533D02*
X11966807Y-15598009D01*
X11966807Y-15598009D02*
X11966807Y-15617057D01*
X12100140Y-15417057D02*
X12119188Y-15417057D01*
X12119188Y-15417057D02*
X12138235Y-15426581D01*
X12138235Y-15426581D02*
X12147759Y-15436105D01*
X12147759Y-15436105D02*
X12157283Y-15455152D01*
X12157283Y-15455152D02*
X12166807Y-15493247D01*
X12166807Y-15493247D02*
X12166807Y-15540866D01*
X12166807Y-15540866D02*
X12157283Y-15578962D01*
X12157283Y-15578962D02*
X12147759Y-15598009D01*
X12147759Y-15598009D02*
X12138235Y-15607533D01*
X12138235Y-15607533D02*
X12119188Y-15617057D01*
X12119188Y-15617057D02*
X12100140Y-15617057D01*
X12100140Y-15617057D02*
X12081092Y-15607533D01*
X12081092Y-15607533D02*
X12071568Y-15598009D01*
X12071568Y-15598009D02*
X12062045Y-15578962D01*
X12062045Y-15578962D02*
X12052521Y-15540866D01*
X12052521Y-15540866D02*
X12052521Y-15493247D01*
X12052521Y-15493247D02*
X12062045Y-15455152D01*
X12062045Y-15455152D02*
X12071568Y-15436105D01*
X12071568Y-15436105D02*
X12081092Y-15426581D01*
X12081092Y-15426581D02*
X12100140Y-15417057D01*
X12290616Y-15417057D02*
X12309664Y-15417057D01*
X12309664Y-15417057D02*
X12328711Y-15426581D01*
X12328711Y-15426581D02*
X12338235Y-15436105D01*
X12338235Y-15436105D02*
X12347759Y-15455152D01*
X12347759Y-15455152D02*
X12357283Y-15493247D01*
X12357283Y-15493247D02*
X12357283Y-15540866D01*
X12357283Y-15540866D02*
X12347759Y-15578962D01*
X12347759Y-15578962D02*
X12338235Y-15598009D01*
X12338235Y-15598009D02*
X12328711Y-15607533D01*
X12328711Y-15607533D02*
X12309664Y-15617057D01*
X12309664Y-15617057D02*
X12290616Y-15617057D01*
X12290616Y-15617057D02*
X12271568Y-15607533D01*
X12271568Y-15607533D02*
X12262045Y-15598009D01*
X12262045Y-15598009D02*
X12252521Y-15578962D01*
X12252521Y-15578962D02*
X12242997Y-15540866D01*
X12242997Y-15540866D02*
X12242997Y-15493247D01*
X12242997Y-15493247D02*
X12252521Y-15455152D01*
X12252521Y-15455152D02*
X12262045Y-15436105D01*
X12262045Y-15436105D02*
X12271568Y-15426581D01*
X12271568Y-15426581D02*
X12290616Y-15417057D01*
X12481092Y-15417057D02*
X12500140Y-15417057D01*
X12500140Y-15417057D02*
X12519188Y-15426581D01*
X12519188Y-15426581D02*
X12528711Y-15436105D01*
X12528711Y-15436105D02*
X12538235Y-15455152D01*
X12538235Y-15455152D02*
X12547759Y-15493247D01*
X12547759Y-15493247D02*
X12547759Y-15540866D01*
X12547759Y-15540866D02*
X12538235Y-15578962D01*
X12538235Y-15578962D02*
X12528711Y-15598009D01*
X12528711Y-15598009D02*
X12519188Y-15607533D01*
X12519188Y-15607533D02*
X12500140Y-15617057D01*
X12500140Y-15617057D02*
X12481092Y-15617057D01*
X12481092Y-15617057D02*
X12462045Y-15607533D01*
X12462045Y-15607533D02*
X12452521Y-15598009D01*
X12452521Y-15598009D02*
X12442997Y-15578962D01*
X12442997Y-15578962D02*
X12433473Y-15540866D01*
X12433473Y-15540866D02*
X12433473Y-15493247D01*
X12433473Y-15493247D02*
X12442997Y-15455152D01*
X12442997Y-15455152D02*
X12452521Y-15436105D01*
X12452521Y-15436105D02*
X12462045Y-15426581D01*
X12462045Y-15426581D02*
X12481092Y-15417057D01*
X12633473Y-15617057D02*
X12633473Y-15483724D01*
X12633473Y-15502771D02*
X12642997Y-15493247D01*
X12642997Y-15493247D02*
X12662045Y-15483724D01*
X12662045Y-15483724D02*
X12690616Y-15483724D01*
X12690616Y-15483724D02*
X12709664Y-15493247D01*
X12709664Y-15493247D02*
X12719188Y-15512295D01*
X12719188Y-15512295D02*
X12719188Y-15617057D01*
X12719188Y-15512295D02*
X12728711Y-15493247D01*
X12728711Y-15493247D02*
X12747759Y-15483724D01*
X12747759Y-15483724D02*
X12776330Y-15483724D01*
X12776330Y-15483724D02*
X12795378Y-15493247D01*
X12795378Y-15493247D02*
X12804902Y-15512295D01*
X12804902Y-15512295D02*
X12804902Y-15617057D01*
X12900140Y-15617057D02*
X12900140Y-15483724D01*
X12900140Y-15502771D02*
X12909664Y-15493247D01*
X12909664Y-15493247D02*
X12928711Y-15483724D01*
X12928711Y-15483724D02*
X12957283Y-15483724D01*
X12957283Y-15483724D02*
X12976330Y-15493247D01*
X12976330Y-15493247D02*
X12985854Y-15512295D01*
X12985854Y-15512295D02*
X12985854Y-15617057D01*
X12985854Y-15512295D02*
X12995378Y-15493247D01*
X12995378Y-15493247D02*
X13014426Y-15483724D01*
X13014426Y-15483724D02*
X13042997Y-15483724D01*
X13042997Y-15483724D02*
X13062045Y-15493247D01*
X13062045Y-15493247D02*
X13071569Y-15512295D01*
X13071569Y-15512295D02*
X13071569Y-15617057D01*
X13462045Y-15407533D02*
X13290616Y-15664676D01*
X13719188Y-15417057D02*
X13738235Y-15417057D01*
X13738235Y-15417057D02*
X13757283Y-15426581D01*
X13757283Y-15426581D02*
X13766807Y-15436105D01*
X13766807Y-15436105D02*
X13776331Y-15455152D01*
X13776331Y-15455152D02*
X13785854Y-15493247D01*
X13785854Y-15493247D02*
X13785854Y-15540866D01*
X13785854Y-15540866D02*
X13776331Y-15578962D01*
X13776331Y-15578962D02*
X13766807Y-15598009D01*
X13766807Y-15598009D02*
X13757283Y-15607533D01*
X13757283Y-15607533D02*
X13738235Y-15617057D01*
X13738235Y-15617057D02*
X13719188Y-15617057D01*
X13719188Y-15617057D02*
X13700140Y-15607533D01*
X13700140Y-15607533D02*
X13690616Y-15598009D01*
X13690616Y-15598009D02*
X13681092Y-15578962D01*
X13681092Y-15578962D02*
X13671569Y-15540866D01*
X13671569Y-15540866D02*
X13671569Y-15493247D01*
X13671569Y-15493247D02*
X13681092Y-15455152D01*
X13681092Y-15455152D02*
X13690616Y-15436105D01*
X13690616Y-15436105D02*
X13700140Y-15426581D01*
X13700140Y-15426581D02*
X13719188Y-15417057D01*
X13871569Y-15598009D02*
X13881092Y-15607533D01*
X13881092Y-15607533D02*
X13871569Y-15617057D01*
X13871569Y-15617057D02*
X13862045Y-15607533D01*
X13862045Y-15607533D02*
X13871569Y-15598009D01*
X13871569Y-15598009D02*
X13871569Y-15617057D01*
X14004902Y-15417057D02*
X14023950Y-15417057D01*
X14023950Y-15417057D02*
X14042997Y-15426581D01*
X14042997Y-15426581D02*
X14052521Y-15436105D01*
X14052521Y-15436105D02*
X14062045Y-15455152D01*
X14062045Y-15455152D02*
X14071569Y-15493247D01*
X14071569Y-15493247D02*
X14071569Y-15540866D01*
X14071569Y-15540866D02*
X14062045Y-15578962D01*
X14062045Y-15578962D02*
X14052521Y-15598009D01*
X14052521Y-15598009D02*
X14042997Y-15607533D01*
X14042997Y-15607533D02*
X14023950Y-15617057D01*
X14023950Y-15617057D02*
X14004902Y-15617057D01*
X14004902Y-15617057D02*
X13985854Y-15607533D01*
X13985854Y-15607533D02*
X13976331Y-15598009D01*
X13976331Y-15598009D02*
X13966807Y-15578962D01*
X13966807Y-15578962D02*
X13957283Y-15540866D01*
X13957283Y-15540866D02*
X13957283Y-15493247D01*
X13957283Y-15493247D02*
X13966807Y-15455152D01*
X13966807Y-15455152D02*
X13976331Y-15436105D01*
X13976331Y-15436105D02*
X13985854Y-15426581D01*
X13985854Y-15426581D02*
X14004902Y-15417057D01*
X14138235Y-15417057D02*
X14262045Y-15417057D01*
X14262045Y-15417057D02*
X14195378Y-15493247D01*
X14195378Y-15493247D02*
X14223950Y-15493247D01*
X14223950Y-15493247D02*
X14242997Y-15502771D01*
X14242997Y-15502771D02*
X14252521Y-15512295D01*
X14252521Y-15512295D02*
X14262045Y-15531343D01*
X14262045Y-15531343D02*
X14262045Y-15578962D01*
X14262045Y-15578962D02*
X14252521Y-15598009D01*
X14252521Y-15598009D02*
X14242997Y-15607533D01*
X14242997Y-15607533D02*
X14223950Y-15617057D01*
X14223950Y-15617057D02*
X14166807Y-15617057D01*
X14166807Y-15617057D02*
X14147759Y-15607533D01*
X14147759Y-15607533D02*
X14138235Y-15598009D01*
X14357283Y-15617057D02*
X14395378Y-15617057D01*
X14395378Y-15617057D02*
X14414426Y-15607533D01*
X14414426Y-15607533D02*
X14423950Y-15598009D01*
X14423950Y-15598009D02*
X14442997Y-15569438D01*
X14442997Y-15569438D02*
X14452521Y-15531343D01*
X14452521Y-15531343D02*
X14452521Y-15455152D01*
X14452521Y-15455152D02*
X14442997Y-15436105D01*
X14442997Y-15436105D02*
X14433473Y-15426581D01*
X14433473Y-15426581D02*
X14414426Y-15417057D01*
X14414426Y-15417057D02*
X14376331Y-15417057D01*
X14376331Y-15417057D02*
X14357283Y-15426581D01*
X14357283Y-15426581D02*
X14347759Y-15436105D01*
X14347759Y-15436105D02*
X14338235Y-15455152D01*
X14338235Y-15455152D02*
X14338235Y-15502771D01*
X14338235Y-15502771D02*
X14347759Y-15521819D01*
X14347759Y-15521819D02*
X14357283Y-15531343D01*
X14357283Y-15531343D02*
X14376331Y-15540866D01*
X14376331Y-15540866D02*
X14414426Y-15540866D01*
X14414426Y-15540866D02*
X14433473Y-15531343D01*
X14433473Y-15531343D02*
X14442997Y-15521819D01*
X14442997Y-15521819D02*
X14452521Y-15502771D01*
X14623950Y-15483724D02*
X14623950Y-15617057D01*
X14576331Y-15407533D02*
X14528712Y-15550390D01*
X14528712Y-15550390D02*
X14652521Y-15550390D01*
X14719188Y-15417057D02*
X14719188Y-15455152D01*
X14795378Y-15417057D02*
X14795378Y-15455152D01*
X15090616Y-15693247D02*
X15081093Y-15683724D01*
X15081093Y-15683724D02*
X15062045Y-15655152D01*
X15062045Y-15655152D02*
X15052521Y-15636105D01*
X15052521Y-15636105D02*
X15042997Y-15607533D01*
X15042997Y-15607533D02*
X15033474Y-15559914D01*
X15033474Y-15559914D02*
X15033474Y-15521819D01*
X15033474Y-15521819D02*
X15042997Y-15474200D01*
X15042997Y-15474200D02*
X15052521Y-15445628D01*
X15052521Y-15445628D02*
X15062045Y-15426581D01*
X15062045Y-15426581D02*
X15081093Y-15398009D01*
X15081093Y-15398009D02*
X15090616Y-15388485D01*
X15157283Y-15436105D02*
X15166807Y-15426581D01*
X15166807Y-15426581D02*
X15185854Y-15417057D01*
X15185854Y-15417057D02*
X15233474Y-15417057D01*
X15233474Y-15417057D02*
X15252521Y-15426581D01*
X15252521Y-15426581D02*
X15262045Y-15436105D01*
X15262045Y-15436105D02*
X15271569Y-15455152D01*
X15271569Y-15455152D02*
X15271569Y-15474200D01*
X15271569Y-15474200D02*
X15262045Y-15502771D01*
X15262045Y-15502771D02*
X15147759Y-15617057D01*
X15147759Y-15617057D02*
X15271569Y-15617057D01*
X15395378Y-15417057D02*
X15414426Y-15417057D01*
X15414426Y-15417057D02*
X15433474Y-15426581D01*
X15433474Y-15426581D02*
X15442997Y-15436105D01*
X15442997Y-15436105D02*
X15452521Y-15455152D01*
X15452521Y-15455152D02*
X15462045Y-15493247D01*
X15462045Y-15493247D02*
X15462045Y-15540866D01*
X15462045Y-15540866D02*
X15452521Y-15578962D01*
X15452521Y-15578962D02*
X15442997Y-15598009D01*
X15442997Y-15598009D02*
X15433474Y-15607533D01*
X15433474Y-15607533D02*
X15414426Y-15617057D01*
X15414426Y-15617057D02*
X15395378Y-15617057D01*
X15395378Y-15617057D02*
X15376331Y-15607533D01*
X15376331Y-15607533D02*
X15366807Y-15598009D01*
X15366807Y-15598009D02*
X15357283Y-15578962D01*
X15357283Y-15578962D02*
X15347759Y-15540866D01*
X15347759Y-15540866D02*
X15347759Y-15493247D01*
X15347759Y-15493247D02*
X15357283Y-15455152D01*
X15357283Y-15455152D02*
X15366807Y-15436105D01*
X15366807Y-15436105D02*
X15376331Y-15426581D01*
X15376331Y-15426581D02*
X15395378Y-15417057D01*
X15700140Y-15617057D02*
X15700140Y-15417057D01*
X15785855Y-15617057D02*
X15785855Y-15512295D01*
X15785855Y-15512295D02*
X15776331Y-15493247D01*
X15776331Y-15493247D02*
X15757283Y-15483724D01*
X15757283Y-15483724D02*
X15728712Y-15483724D01*
X15728712Y-15483724D02*
X15709664Y-15493247D01*
X15709664Y-15493247D02*
X15700140Y-15502771D01*
X15909664Y-15617057D02*
X15890616Y-15607533D01*
X15890616Y-15607533D02*
X15881093Y-15598009D01*
X15881093Y-15598009D02*
X15871569Y-15578962D01*
X15871569Y-15578962D02*
X15871569Y-15521819D01*
X15871569Y-15521819D02*
X15881093Y-15502771D01*
X15881093Y-15502771D02*
X15890616Y-15493247D01*
X15890616Y-15493247D02*
X15909664Y-15483724D01*
X15909664Y-15483724D02*
X15938236Y-15483724D01*
X15938236Y-15483724D02*
X15957283Y-15493247D01*
X15957283Y-15493247D02*
X15966807Y-15502771D01*
X15966807Y-15502771D02*
X15976331Y-15521819D01*
X15976331Y-15521819D02*
X15976331Y-15578962D01*
X15976331Y-15578962D02*
X15966807Y-15598009D01*
X15966807Y-15598009D02*
X15957283Y-15607533D01*
X15957283Y-15607533D02*
X15938236Y-15617057D01*
X15938236Y-15617057D02*
X15909664Y-15617057D01*
X16090616Y-15617057D02*
X16071569Y-15607533D01*
X16071569Y-15607533D02*
X16062045Y-15588485D01*
X16062045Y-15588485D02*
X16062045Y-15417057D01*
X16242997Y-15607533D02*
X16223950Y-15617057D01*
X16223950Y-15617057D02*
X16185855Y-15617057D01*
X16185855Y-15617057D02*
X16166807Y-15607533D01*
X16166807Y-15607533D02*
X16157283Y-15588485D01*
X16157283Y-15588485D02*
X16157283Y-15512295D01*
X16157283Y-15512295D02*
X16166807Y-15493247D01*
X16166807Y-15493247D02*
X16185855Y-15483724D01*
X16185855Y-15483724D02*
X16223950Y-15483724D01*
X16223950Y-15483724D02*
X16242997Y-15493247D01*
X16242997Y-15493247D02*
X16252521Y-15512295D01*
X16252521Y-15512295D02*
X16252521Y-15531343D01*
X16252521Y-15531343D02*
X16157283Y-15550390D01*
X16328712Y-15607533D02*
X16347759Y-15617057D01*
X16347759Y-15617057D02*
X16385855Y-15617057D01*
X16385855Y-15617057D02*
X16404902Y-15607533D01*
X16404902Y-15607533D02*
X16414426Y-15588485D01*
X16414426Y-15588485D02*
X16414426Y-15578962D01*
X16414426Y-15578962D02*
X16404902Y-15559914D01*
X16404902Y-15559914D02*
X16385855Y-15550390D01*
X16385855Y-15550390D02*
X16357283Y-15550390D01*
X16357283Y-15550390D02*
X16338236Y-15540866D01*
X16338236Y-15540866D02*
X16328712Y-15521819D01*
X16328712Y-15521819D02*
X16328712Y-15512295D01*
X16328712Y-15512295D02*
X16338236Y-15493247D01*
X16338236Y-15493247D02*
X16357283Y-15483724D01*
X16357283Y-15483724D02*
X16385855Y-15483724D01*
X16385855Y-15483724D02*
X16404902Y-15493247D01*
X16481093Y-15693247D02*
X16490617Y-15683724D01*
X16490617Y-15683724D02*
X16509664Y-15655152D01*
X16509664Y-15655152D02*
X16519188Y-15636105D01*
X16519188Y-15636105D02*
X16528712Y-15607533D01*
X16528712Y-15607533D02*
X16538236Y-15559914D01*
X16538236Y-15559914D02*
X16538236Y-15521819D01*
X16538236Y-15521819D02*
X16528712Y-15474200D01*
X16528712Y-15474200D02*
X16519188Y-15445628D01*
X16519188Y-15445628D02*
X16509664Y-15426581D01*
X16509664Y-15426581D02*
X16490617Y-15398009D01*
X16490617Y-15398009D02*
X16481093Y-15388485D01*
D13*
X11410554Y-15737073D02*
X11515554Y-15842073D01*
X11515554Y-15737073D02*
X11410554Y-15842073D01*
X11463054Y-15737073D02*
X11463054Y-15842073D01*
X11410554Y-15789573D02*
X11515554Y-15789573D01*
D11*
X11881092Y-15881057D02*
X11766807Y-15881057D01*
X11823949Y-15881057D02*
X11823949Y-15681057D01*
X11823949Y-15681057D02*
X11804902Y-15709628D01*
X11804902Y-15709628D02*
X11785854Y-15728676D01*
X11785854Y-15728676D02*
X11766807Y-15738200D01*
X11966807Y-15862009D02*
X11976330Y-15871533D01*
X11976330Y-15871533D02*
X11966807Y-15881057D01*
X11966807Y-15881057D02*
X11957283Y-15871533D01*
X11957283Y-15871533D02*
X11966807Y-15862009D01*
X11966807Y-15862009D02*
X11966807Y-15881057D01*
X12100140Y-15681057D02*
X12119188Y-15681057D01*
X12119188Y-15681057D02*
X12138235Y-15690581D01*
X12138235Y-15690581D02*
X12147759Y-15700105D01*
X12147759Y-15700105D02*
X12157283Y-15719152D01*
X12157283Y-15719152D02*
X12166807Y-15757247D01*
X12166807Y-15757247D02*
X12166807Y-15804866D01*
X12166807Y-15804866D02*
X12157283Y-15842962D01*
X12157283Y-15842962D02*
X12147759Y-15862009D01*
X12147759Y-15862009D02*
X12138235Y-15871533D01*
X12138235Y-15871533D02*
X12119188Y-15881057D01*
X12119188Y-15881057D02*
X12100140Y-15881057D01*
X12100140Y-15881057D02*
X12081092Y-15871533D01*
X12081092Y-15871533D02*
X12071568Y-15862009D01*
X12071568Y-15862009D02*
X12062045Y-15842962D01*
X12062045Y-15842962D02*
X12052521Y-15804866D01*
X12052521Y-15804866D02*
X12052521Y-15757247D01*
X12052521Y-15757247D02*
X12062045Y-15719152D01*
X12062045Y-15719152D02*
X12071568Y-15700105D01*
X12071568Y-15700105D02*
X12081092Y-15690581D01*
X12081092Y-15690581D02*
X12100140Y-15681057D01*
X12347759Y-15681057D02*
X12252521Y-15681057D01*
X12252521Y-15681057D02*
X12242997Y-15776295D01*
X12242997Y-15776295D02*
X12252521Y-15766771D01*
X12252521Y-15766771D02*
X12271568Y-15757247D01*
X12271568Y-15757247D02*
X12319188Y-15757247D01*
X12319188Y-15757247D02*
X12338235Y-15766771D01*
X12338235Y-15766771D02*
X12347759Y-15776295D01*
X12347759Y-15776295D02*
X12357283Y-15795343D01*
X12357283Y-15795343D02*
X12357283Y-15842962D01*
X12357283Y-15842962D02*
X12347759Y-15862009D01*
X12347759Y-15862009D02*
X12338235Y-15871533D01*
X12338235Y-15871533D02*
X12319188Y-15881057D01*
X12319188Y-15881057D02*
X12271568Y-15881057D01*
X12271568Y-15881057D02*
X12252521Y-15871533D01*
X12252521Y-15871533D02*
X12242997Y-15862009D01*
X12481092Y-15681057D02*
X12500140Y-15681057D01*
X12500140Y-15681057D02*
X12519188Y-15690581D01*
X12519188Y-15690581D02*
X12528711Y-15700105D01*
X12528711Y-15700105D02*
X12538235Y-15719152D01*
X12538235Y-15719152D02*
X12547759Y-15757247D01*
X12547759Y-15757247D02*
X12547759Y-15804866D01*
X12547759Y-15804866D02*
X12538235Y-15842962D01*
X12538235Y-15842962D02*
X12528711Y-15862009D01*
X12528711Y-15862009D02*
X12519188Y-15871533D01*
X12519188Y-15871533D02*
X12500140Y-15881057D01*
X12500140Y-15881057D02*
X12481092Y-15881057D01*
X12481092Y-15881057D02*
X12462045Y-15871533D01*
X12462045Y-15871533D02*
X12452521Y-15862009D01*
X12452521Y-15862009D02*
X12442997Y-15842962D01*
X12442997Y-15842962D02*
X12433473Y-15804866D01*
X12433473Y-15804866D02*
X12433473Y-15757247D01*
X12433473Y-15757247D02*
X12442997Y-15719152D01*
X12442997Y-15719152D02*
X12452521Y-15700105D01*
X12452521Y-15700105D02*
X12462045Y-15690581D01*
X12462045Y-15690581D02*
X12481092Y-15681057D01*
X12633473Y-15881057D02*
X12633473Y-15747724D01*
X12633473Y-15766771D02*
X12642997Y-15757247D01*
X12642997Y-15757247D02*
X12662045Y-15747724D01*
X12662045Y-15747724D02*
X12690616Y-15747724D01*
X12690616Y-15747724D02*
X12709664Y-15757247D01*
X12709664Y-15757247D02*
X12719188Y-15776295D01*
X12719188Y-15776295D02*
X12719188Y-15881057D01*
X12719188Y-15776295D02*
X12728711Y-15757247D01*
X12728711Y-15757247D02*
X12747759Y-15747724D01*
X12747759Y-15747724D02*
X12776330Y-15747724D01*
X12776330Y-15747724D02*
X12795378Y-15757247D01*
X12795378Y-15757247D02*
X12804902Y-15776295D01*
X12804902Y-15776295D02*
X12804902Y-15881057D01*
X12900140Y-15881057D02*
X12900140Y-15747724D01*
X12900140Y-15766771D02*
X12909664Y-15757247D01*
X12909664Y-15757247D02*
X12928711Y-15747724D01*
X12928711Y-15747724D02*
X12957283Y-15747724D01*
X12957283Y-15747724D02*
X12976330Y-15757247D01*
X12976330Y-15757247D02*
X12985854Y-15776295D01*
X12985854Y-15776295D02*
X12985854Y-15881057D01*
X12985854Y-15776295D02*
X12995378Y-15757247D01*
X12995378Y-15757247D02*
X13014426Y-15747724D01*
X13014426Y-15747724D02*
X13042997Y-15747724D01*
X13042997Y-15747724D02*
X13062045Y-15757247D01*
X13062045Y-15757247D02*
X13071569Y-15776295D01*
X13071569Y-15776295D02*
X13071569Y-15881057D01*
X13462045Y-15671533D02*
X13290616Y-15928676D01*
X13719188Y-15681057D02*
X13738235Y-15681057D01*
X13738235Y-15681057D02*
X13757283Y-15690581D01*
X13757283Y-15690581D02*
X13766807Y-15700105D01*
X13766807Y-15700105D02*
X13776331Y-15719152D01*
X13776331Y-15719152D02*
X13785854Y-15757247D01*
X13785854Y-15757247D02*
X13785854Y-15804866D01*
X13785854Y-15804866D02*
X13776331Y-15842962D01*
X13776331Y-15842962D02*
X13766807Y-15862009D01*
X13766807Y-15862009D02*
X13757283Y-15871533D01*
X13757283Y-15871533D02*
X13738235Y-15881057D01*
X13738235Y-15881057D02*
X13719188Y-15881057D01*
X13719188Y-15881057D02*
X13700140Y-15871533D01*
X13700140Y-15871533D02*
X13690616Y-15862009D01*
X13690616Y-15862009D02*
X13681092Y-15842962D01*
X13681092Y-15842962D02*
X13671569Y-15804866D01*
X13671569Y-15804866D02*
X13671569Y-15757247D01*
X13671569Y-15757247D02*
X13681092Y-15719152D01*
X13681092Y-15719152D02*
X13690616Y-15700105D01*
X13690616Y-15700105D02*
X13700140Y-15690581D01*
X13700140Y-15690581D02*
X13719188Y-15681057D01*
X13871569Y-15862009D02*
X13881092Y-15871533D01*
X13881092Y-15871533D02*
X13871569Y-15881057D01*
X13871569Y-15881057D02*
X13862045Y-15871533D01*
X13862045Y-15871533D02*
X13871569Y-15862009D01*
X13871569Y-15862009D02*
X13871569Y-15881057D01*
X14004902Y-15681057D02*
X14023950Y-15681057D01*
X14023950Y-15681057D02*
X14042997Y-15690581D01*
X14042997Y-15690581D02*
X14052521Y-15700105D01*
X14052521Y-15700105D02*
X14062045Y-15719152D01*
X14062045Y-15719152D02*
X14071569Y-15757247D01*
X14071569Y-15757247D02*
X14071569Y-15804866D01*
X14071569Y-15804866D02*
X14062045Y-15842962D01*
X14062045Y-15842962D02*
X14052521Y-15862009D01*
X14052521Y-15862009D02*
X14042997Y-15871533D01*
X14042997Y-15871533D02*
X14023950Y-15881057D01*
X14023950Y-15881057D02*
X14004902Y-15881057D01*
X14004902Y-15881057D02*
X13985854Y-15871533D01*
X13985854Y-15871533D02*
X13976331Y-15862009D01*
X13976331Y-15862009D02*
X13966807Y-15842962D01*
X13966807Y-15842962D02*
X13957283Y-15804866D01*
X13957283Y-15804866D02*
X13957283Y-15757247D01*
X13957283Y-15757247D02*
X13966807Y-15719152D01*
X13966807Y-15719152D02*
X13976331Y-15700105D01*
X13976331Y-15700105D02*
X13985854Y-15690581D01*
X13985854Y-15690581D02*
X14004902Y-15681057D01*
X14242997Y-15747724D02*
X14242997Y-15881057D01*
X14195378Y-15671533D02*
X14147759Y-15814390D01*
X14147759Y-15814390D02*
X14271569Y-15814390D01*
X14452521Y-15881057D02*
X14338235Y-15881057D01*
X14395378Y-15881057D02*
X14395378Y-15681057D01*
X14395378Y-15681057D02*
X14376331Y-15709628D01*
X14376331Y-15709628D02*
X14357283Y-15728676D01*
X14357283Y-15728676D02*
X14338235Y-15738200D01*
X14519188Y-15681057D02*
X14642997Y-15681057D01*
X14642997Y-15681057D02*
X14576331Y-15757247D01*
X14576331Y-15757247D02*
X14604902Y-15757247D01*
X14604902Y-15757247D02*
X14623950Y-15766771D01*
X14623950Y-15766771D02*
X14633473Y-15776295D01*
X14633473Y-15776295D02*
X14642997Y-15795343D01*
X14642997Y-15795343D02*
X14642997Y-15842962D01*
X14642997Y-15842962D02*
X14633473Y-15862009D01*
X14633473Y-15862009D02*
X14623950Y-15871533D01*
X14623950Y-15871533D02*
X14604902Y-15881057D01*
X14604902Y-15881057D02*
X14547759Y-15881057D01*
X14547759Y-15881057D02*
X14528712Y-15871533D01*
X14528712Y-15871533D02*
X14519188Y-15862009D01*
X14719188Y-15681057D02*
X14719188Y-15719152D01*
X14795378Y-15681057D02*
X14795378Y-15719152D01*
X15090616Y-15957247D02*
X15081093Y-15947724D01*
X15081093Y-15947724D02*
X15062045Y-15919152D01*
X15062045Y-15919152D02*
X15052521Y-15900105D01*
X15052521Y-15900105D02*
X15042997Y-15871533D01*
X15042997Y-15871533D02*
X15033474Y-15823914D01*
X15033474Y-15823914D02*
X15033474Y-15785819D01*
X15033474Y-15785819D02*
X15042997Y-15738200D01*
X15042997Y-15738200D02*
X15052521Y-15709628D01*
X15052521Y-15709628D02*
X15062045Y-15690581D01*
X15062045Y-15690581D02*
X15081093Y-15662009D01*
X15081093Y-15662009D02*
X15090616Y-15652485D01*
X15271569Y-15881057D02*
X15157283Y-15881057D01*
X15214426Y-15881057D02*
X15214426Y-15681057D01*
X15214426Y-15681057D02*
X15195378Y-15709628D01*
X15195378Y-15709628D02*
X15176331Y-15728676D01*
X15176331Y-15728676D02*
X15157283Y-15738200D01*
X15395378Y-15681057D02*
X15414426Y-15681057D01*
X15414426Y-15681057D02*
X15433474Y-15690581D01*
X15433474Y-15690581D02*
X15442997Y-15700105D01*
X15442997Y-15700105D02*
X15452521Y-15719152D01*
X15452521Y-15719152D02*
X15462045Y-15757247D01*
X15462045Y-15757247D02*
X15462045Y-15804866D01*
X15462045Y-15804866D02*
X15452521Y-15842962D01*
X15452521Y-15842962D02*
X15442997Y-15862009D01*
X15442997Y-15862009D02*
X15433474Y-15871533D01*
X15433474Y-15871533D02*
X15414426Y-15881057D01*
X15414426Y-15881057D02*
X15395378Y-15881057D01*
X15395378Y-15881057D02*
X15376331Y-15871533D01*
X15376331Y-15871533D02*
X15366807Y-15862009D01*
X15366807Y-15862009D02*
X15357283Y-15842962D01*
X15357283Y-15842962D02*
X15347759Y-15804866D01*
X15347759Y-15804866D02*
X15347759Y-15757247D01*
X15347759Y-15757247D02*
X15357283Y-15719152D01*
X15357283Y-15719152D02*
X15366807Y-15700105D01*
X15366807Y-15700105D02*
X15376331Y-15690581D01*
X15376331Y-15690581D02*
X15395378Y-15681057D01*
X15700140Y-15881057D02*
X15700140Y-15681057D01*
X15785855Y-15881057D02*
X15785855Y-15776295D01*
X15785855Y-15776295D02*
X15776331Y-15757247D01*
X15776331Y-15757247D02*
X15757283Y-15747724D01*
X15757283Y-15747724D02*
X15728712Y-15747724D01*
X15728712Y-15747724D02*
X15709664Y-15757247D01*
X15709664Y-15757247D02*
X15700140Y-15766771D01*
X15909664Y-15881057D02*
X15890616Y-15871533D01*
X15890616Y-15871533D02*
X15881093Y-15862009D01*
X15881093Y-15862009D02*
X15871569Y-15842962D01*
X15871569Y-15842962D02*
X15871569Y-15785819D01*
X15871569Y-15785819D02*
X15881093Y-15766771D01*
X15881093Y-15766771D02*
X15890616Y-15757247D01*
X15890616Y-15757247D02*
X15909664Y-15747724D01*
X15909664Y-15747724D02*
X15938236Y-15747724D01*
X15938236Y-15747724D02*
X15957283Y-15757247D01*
X15957283Y-15757247D02*
X15966807Y-15766771D01*
X15966807Y-15766771D02*
X15976331Y-15785819D01*
X15976331Y-15785819D02*
X15976331Y-15842962D01*
X15976331Y-15842962D02*
X15966807Y-15862009D01*
X15966807Y-15862009D02*
X15957283Y-15871533D01*
X15957283Y-15871533D02*
X15938236Y-15881057D01*
X15938236Y-15881057D02*
X15909664Y-15881057D01*
X16090616Y-15881057D02*
X16071569Y-15871533D01*
X16071569Y-15871533D02*
X16062045Y-15852485D01*
X16062045Y-15852485D02*
X16062045Y-15681057D01*
X16242997Y-15871533D02*
X16223950Y-15881057D01*
X16223950Y-15881057D02*
X16185855Y-15881057D01*
X16185855Y-15881057D02*
X16166807Y-15871533D01*
X16166807Y-15871533D02*
X16157283Y-15852485D01*
X16157283Y-15852485D02*
X16157283Y-15776295D01*
X16157283Y-15776295D02*
X16166807Y-15757247D01*
X16166807Y-15757247D02*
X16185855Y-15747724D01*
X16185855Y-15747724D02*
X16223950Y-15747724D01*
X16223950Y-15747724D02*
X16242997Y-15757247D01*
X16242997Y-15757247D02*
X16252521Y-15776295D01*
X16252521Y-15776295D02*
X16252521Y-15795343D01*
X16252521Y-15795343D02*
X16157283Y-15814390D01*
X16328712Y-15871533D02*
X16347759Y-15881057D01*
X16347759Y-15881057D02*
X16385855Y-15881057D01*
X16385855Y-15881057D02*
X16404902Y-15871533D01*
X16404902Y-15871533D02*
X16414426Y-15852485D01*
X16414426Y-15852485D02*
X16414426Y-15842962D01*
X16414426Y-15842962D02*
X16404902Y-15823914D01*
X16404902Y-15823914D02*
X16385855Y-15814390D01*
X16385855Y-15814390D02*
X16357283Y-15814390D01*
X16357283Y-15814390D02*
X16338236Y-15804866D01*
X16338236Y-15804866D02*
X16328712Y-15785819D01*
X16328712Y-15785819D02*
X16328712Y-15776295D01*
X16328712Y-15776295D02*
X16338236Y-15757247D01*
X16338236Y-15757247D02*
X16357283Y-15747724D01*
X16357283Y-15747724D02*
X16385855Y-15747724D01*
X16385855Y-15747724D02*
X16404902Y-15757247D01*
X16481093Y-15957247D02*
X16490617Y-15947724D01*
X16490617Y-15947724D02*
X16509664Y-15919152D01*
X16509664Y-15919152D02*
X16519188Y-15900105D01*
X16519188Y-15900105D02*
X16528712Y-15871533D01*
X16528712Y-15871533D02*
X16538236Y-15823914D01*
X16538236Y-15823914D02*
X16538236Y-15785819D01*
X16538236Y-15785819D02*
X16528712Y-15738200D01*
X16528712Y-15738200D02*
X16519188Y-15709628D01*
X16519188Y-15709628D02*
X16509664Y-15690581D01*
X16509664Y-15690581D02*
X16490617Y-15662009D01*
X16490617Y-15662009D02*
X16481093Y-15652485D01*
D14*
X11385554Y-15988573D02*
X11515554Y-16118573D01*
X11515554Y-15988573D02*
X11385554Y-16118573D01*
X11496516Y-16099536D02*
X11496516Y-16007611D01*
X11404591Y-16007611D01*
X11404591Y-16099536D01*
X11496516Y-16099536D01*
D11*
X11881092Y-16145057D02*
X11766807Y-16145057D01*
X11823949Y-16145057D02*
X11823949Y-15945057D01*
X11823949Y-15945057D02*
X11804902Y-15973628D01*
X11804902Y-15973628D02*
X11785854Y-15992676D01*
X11785854Y-15992676D02*
X11766807Y-16002200D01*
X11966807Y-16126009D02*
X11976330Y-16135533D01*
X11976330Y-16135533D02*
X11966807Y-16145057D01*
X11966807Y-16145057D02*
X11957283Y-16135533D01*
X11957283Y-16135533D02*
X11966807Y-16126009D01*
X11966807Y-16126009D02*
X11966807Y-16145057D01*
X12042997Y-15945057D02*
X12166807Y-15945057D01*
X12166807Y-15945057D02*
X12100140Y-16021247D01*
X12100140Y-16021247D02*
X12128711Y-16021247D01*
X12128711Y-16021247D02*
X12147759Y-16030771D01*
X12147759Y-16030771D02*
X12157283Y-16040295D01*
X12157283Y-16040295D02*
X12166807Y-16059343D01*
X12166807Y-16059343D02*
X12166807Y-16106962D01*
X12166807Y-16106962D02*
X12157283Y-16126009D01*
X12157283Y-16126009D02*
X12147759Y-16135533D01*
X12147759Y-16135533D02*
X12128711Y-16145057D01*
X12128711Y-16145057D02*
X12071568Y-16145057D01*
X12071568Y-16145057D02*
X12052521Y-16135533D01*
X12052521Y-16135533D02*
X12042997Y-16126009D01*
X12290616Y-15945057D02*
X12309664Y-15945057D01*
X12309664Y-15945057D02*
X12328711Y-15954581D01*
X12328711Y-15954581D02*
X12338235Y-15964105D01*
X12338235Y-15964105D02*
X12347759Y-15983152D01*
X12347759Y-15983152D02*
X12357283Y-16021247D01*
X12357283Y-16021247D02*
X12357283Y-16068866D01*
X12357283Y-16068866D02*
X12347759Y-16106962D01*
X12347759Y-16106962D02*
X12338235Y-16126009D01*
X12338235Y-16126009D02*
X12328711Y-16135533D01*
X12328711Y-16135533D02*
X12309664Y-16145057D01*
X12309664Y-16145057D02*
X12290616Y-16145057D01*
X12290616Y-16145057D02*
X12271568Y-16135533D01*
X12271568Y-16135533D02*
X12262045Y-16126009D01*
X12262045Y-16126009D02*
X12252521Y-16106962D01*
X12252521Y-16106962D02*
X12242997Y-16068866D01*
X12242997Y-16068866D02*
X12242997Y-16021247D01*
X12242997Y-16021247D02*
X12252521Y-15983152D01*
X12252521Y-15983152D02*
X12262045Y-15964105D01*
X12262045Y-15964105D02*
X12271568Y-15954581D01*
X12271568Y-15954581D02*
X12290616Y-15945057D01*
X12481092Y-15945057D02*
X12500140Y-15945057D01*
X12500140Y-15945057D02*
X12519188Y-15954581D01*
X12519188Y-15954581D02*
X12528711Y-15964105D01*
X12528711Y-15964105D02*
X12538235Y-15983152D01*
X12538235Y-15983152D02*
X12547759Y-16021247D01*
X12547759Y-16021247D02*
X12547759Y-16068866D01*
X12547759Y-16068866D02*
X12538235Y-16106962D01*
X12538235Y-16106962D02*
X12528711Y-16126009D01*
X12528711Y-16126009D02*
X12519188Y-16135533D01*
X12519188Y-16135533D02*
X12500140Y-16145057D01*
X12500140Y-16145057D02*
X12481092Y-16145057D01*
X12481092Y-16145057D02*
X12462045Y-16135533D01*
X12462045Y-16135533D02*
X12452521Y-16126009D01*
X12452521Y-16126009D02*
X12442997Y-16106962D01*
X12442997Y-16106962D02*
X12433473Y-16068866D01*
X12433473Y-16068866D02*
X12433473Y-16021247D01*
X12433473Y-16021247D02*
X12442997Y-15983152D01*
X12442997Y-15983152D02*
X12452521Y-15964105D01*
X12452521Y-15964105D02*
X12462045Y-15954581D01*
X12462045Y-15954581D02*
X12481092Y-15945057D01*
X12633473Y-16145057D02*
X12633473Y-16011724D01*
X12633473Y-16030771D02*
X12642997Y-16021247D01*
X12642997Y-16021247D02*
X12662045Y-16011724D01*
X12662045Y-16011724D02*
X12690616Y-16011724D01*
X12690616Y-16011724D02*
X12709664Y-16021247D01*
X12709664Y-16021247D02*
X12719188Y-16040295D01*
X12719188Y-16040295D02*
X12719188Y-16145057D01*
X12719188Y-16040295D02*
X12728711Y-16021247D01*
X12728711Y-16021247D02*
X12747759Y-16011724D01*
X12747759Y-16011724D02*
X12776330Y-16011724D01*
X12776330Y-16011724D02*
X12795378Y-16021247D01*
X12795378Y-16021247D02*
X12804902Y-16040295D01*
X12804902Y-16040295D02*
X12804902Y-16145057D01*
X12900140Y-16145057D02*
X12900140Y-16011724D01*
X12900140Y-16030771D02*
X12909664Y-16021247D01*
X12909664Y-16021247D02*
X12928711Y-16011724D01*
X12928711Y-16011724D02*
X12957283Y-16011724D01*
X12957283Y-16011724D02*
X12976330Y-16021247D01*
X12976330Y-16021247D02*
X12985854Y-16040295D01*
X12985854Y-16040295D02*
X12985854Y-16145057D01*
X12985854Y-16040295D02*
X12995378Y-16021247D01*
X12995378Y-16021247D02*
X13014426Y-16011724D01*
X13014426Y-16011724D02*
X13042997Y-16011724D01*
X13042997Y-16011724D02*
X13062045Y-16021247D01*
X13062045Y-16021247D02*
X13071569Y-16040295D01*
X13071569Y-16040295D02*
X13071569Y-16145057D01*
X13462045Y-15935533D02*
X13290616Y-16192676D01*
X13719188Y-15945057D02*
X13738235Y-15945057D01*
X13738235Y-15945057D02*
X13757283Y-15954581D01*
X13757283Y-15954581D02*
X13766807Y-15964105D01*
X13766807Y-15964105D02*
X13776331Y-15983152D01*
X13776331Y-15983152D02*
X13785854Y-16021247D01*
X13785854Y-16021247D02*
X13785854Y-16068866D01*
X13785854Y-16068866D02*
X13776331Y-16106962D01*
X13776331Y-16106962D02*
X13766807Y-16126009D01*
X13766807Y-16126009D02*
X13757283Y-16135533D01*
X13757283Y-16135533D02*
X13738235Y-16145057D01*
X13738235Y-16145057D02*
X13719188Y-16145057D01*
X13719188Y-16145057D02*
X13700140Y-16135533D01*
X13700140Y-16135533D02*
X13690616Y-16126009D01*
X13690616Y-16126009D02*
X13681092Y-16106962D01*
X13681092Y-16106962D02*
X13671569Y-16068866D01*
X13671569Y-16068866D02*
X13671569Y-16021247D01*
X13671569Y-16021247D02*
X13681092Y-15983152D01*
X13681092Y-15983152D02*
X13690616Y-15964105D01*
X13690616Y-15964105D02*
X13700140Y-15954581D01*
X13700140Y-15954581D02*
X13719188Y-15945057D01*
X13871569Y-16126009D02*
X13881092Y-16135533D01*
X13881092Y-16135533D02*
X13871569Y-16145057D01*
X13871569Y-16145057D02*
X13862045Y-16135533D01*
X13862045Y-16135533D02*
X13871569Y-16126009D01*
X13871569Y-16126009D02*
X13871569Y-16145057D01*
X14004902Y-15945057D02*
X14023950Y-15945057D01*
X14023950Y-15945057D02*
X14042997Y-15954581D01*
X14042997Y-15954581D02*
X14052521Y-15964105D01*
X14052521Y-15964105D02*
X14062045Y-15983152D01*
X14062045Y-15983152D02*
X14071569Y-16021247D01*
X14071569Y-16021247D02*
X14071569Y-16068866D01*
X14071569Y-16068866D02*
X14062045Y-16106962D01*
X14062045Y-16106962D02*
X14052521Y-16126009D01*
X14052521Y-16126009D02*
X14042997Y-16135533D01*
X14042997Y-16135533D02*
X14023950Y-16145057D01*
X14023950Y-16145057D02*
X14004902Y-16145057D01*
X14004902Y-16145057D02*
X13985854Y-16135533D01*
X13985854Y-16135533D02*
X13976331Y-16126009D01*
X13976331Y-16126009D02*
X13966807Y-16106962D01*
X13966807Y-16106962D02*
X13957283Y-16068866D01*
X13957283Y-16068866D02*
X13957283Y-16021247D01*
X13957283Y-16021247D02*
X13966807Y-15983152D01*
X13966807Y-15983152D02*
X13976331Y-15964105D01*
X13976331Y-15964105D02*
X13985854Y-15954581D01*
X13985854Y-15954581D02*
X14004902Y-15945057D01*
X14252521Y-15945057D02*
X14157283Y-15945057D01*
X14157283Y-15945057D02*
X14147759Y-16040295D01*
X14147759Y-16040295D02*
X14157283Y-16030771D01*
X14157283Y-16030771D02*
X14176331Y-16021247D01*
X14176331Y-16021247D02*
X14223950Y-16021247D01*
X14223950Y-16021247D02*
X14242997Y-16030771D01*
X14242997Y-16030771D02*
X14252521Y-16040295D01*
X14252521Y-16040295D02*
X14262045Y-16059343D01*
X14262045Y-16059343D02*
X14262045Y-16106962D01*
X14262045Y-16106962D02*
X14252521Y-16126009D01*
X14252521Y-16126009D02*
X14242997Y-16135533D01*
X14242997Y-16135533D02*
X14223950Y-16145057D01*
X14223950Y-16145057D02*
X14176331Y-16145057D01*
X14176331Y-16145057D02*
X14157283Y-16135533D01*
X14157283Y-16135533D02*
X14147759Y-16126009D01*
X14452521Y-16145057D02*
X14338235Y-16145057D01*
X14395378Y-16145057D02*
X14395378Y-15945057D01*
X14395378Y-15945057D02*
X14376331Y-15973628D01*
X14376331Y-15973628D02*
X14357283Y-15992676D01*
X14357283Y-15992676D02*
X14338235Y-16002200D01*
X14528712Y-15964105D02*
X14538235Y-15954581D01*
X14538235Y-15954581D02*
X14557283Y-15945057D01*
X14557283Y-15945057D02*
X14604902Y-15945057D01*
X14604902Y-15945057D02*
X14623950Y-15954581D01*
X14623950Y-15954581D02*
X14633473Y-15964105D01*
X14633473Y-15964105D02*
X14642997Y-15983152D01*
X14642997Y-15983152D02*
X14642997Y-16002200D01*
X14642997Y-16002200D02*
X14633473Y-16030771D01*
X14633473Y-16030771D02*
X14519188Y-16145057D01*
X14519188Y-16145057D02*
X14642997Y-16145057D01*
X14719188Y-15945057D02*
X14719188Y-15983152D01*
X14795378Y-15945057D02*
X14795378Y-15983152D01*
X15090616Y-16221247D02*
X15081093Y-16211724D01*
X15081093Y-16211724D02*
X15062045Y-16183152D01*
X15062045Y-16183152D02*
X15052521Y-16164105D01*
X15052521Y-16164105D02*
X15042997Y-16135533D01*
X15042997Y-16135533D02*
X15033474Y-16087914D01*
X15033474Y-16087914D02*
X15033474Y-16049819D01*
X15033474Y-16049819D02*
X15042997Y-16002200D01*
X15042997Y-16002200D02*
X15052521Y-15973628D01*
X15052521Y-15973628D02*
X15062045Y-15954581D01*
X15062045Y-15954581D02*
X15081093Y-15926009D01*
X15081093Y-15926009D02*
X15090616Y-15916485D01*
X15262045Y-15945057D02*
X15166807Y-15945057D01*
X15166807Y-15945057D02*
X15157283Y-16040295D01*
X15157283Y-16040295D02*
X15166807Y-16030771D01*
X15166807Y-16030771D02*
X15185854Y-16021247D01*
X15185854Y-16021247D02*
X15233474Y-16021247D01*
X15233474Y-16021247D02*
X15252521Y-16030771D01*
X15252521Y-16030771D02*
X15262045Y-16040295D01*
X15262045Y-16040295D02*
X15271569Y-16059343D01*
X15271569Y-16059343D02*
X15271569Y-16106962D01*
X15271569Y-16106962D02*
X15262045Y-16126009D01*
X15262045Y-16126009D02*
X15252521Y-16135533D01*
X15252521Y-16135533D02*
X15233474Y-16145057D01*
X15233474Y-16145057D02*
X15185854Y-16145057D01*
X15185854Y-16145057D02*
X15166807Y-16135533D01*
X15166807Y-16135533D02*
X15157283Y-16126009D01*
X15509664Y-16145057D02*
X15509664Y-15945057D01*
X15595378Y-16145057D02*
X15595378Y-16040295D01*
X15595378Y-16040295D02*
X15585855Y-16021247D01*
X15585855Y-16021247D02*
X15566807Y-16011724D01*
X15566807Y-16011724D02*
X15538235Y-16011724D01*
X15538235Y-16011724D02*
X15519188Y-16021247D01*
X15519188Y-16021247D02*
X15509664Y-16030771D01*
X15719188Y-16145057D02*
X15700140Y-16135533D01*
X15700140Y-16135533D02*
X15690616Y-16126009D01*
X15690616Y-16126009D02*
X15681093Y-16106962D01*
X15681093Y-16106962D02*
X15681093Y-16049819D01*
X15681093Y-16049819D02*
X15690616Y-16030771D01*
X15690616Y-16030771D02*
X15700140Y-16021247D01*
X15700140Y-16021247D02*
X15719188Y-16011724D01*
X15719188Y-16011724D02*
X15747759Y-16011724D01*
X15747759Y-16011724D02*
X15766807Y-16021247D01*
X15766807Y-16021247D02*
X15776331Y-16030771D01*
X15776331Y-16030771D02*
X15785855Y-16049819D01*
X15785855Y-16049819D02*
X15785855Y-16106962D01*
X15785855Y-16106962D02*
X15776331Y-16126009D01*
X15776331Y-16126009D02*
X15766807Y-16135533D01*
X15766807Y-16135533D02*
X15747759Y-16145057D01*
X15747759Y-16145057D02*
X15719188Y-16145057D01*
X15900140Y-16145057D02*
X15881093Y-16135533D01*
X15881093Y-16135533D02*
X15871569Y-16116485D01*
X15871569Y-16116485D02*
X15871569Y-15945057D01*
X16052521Y-16135533D02*
X16033474Y-16145057D01*
X16033474Y-16145057D02*
X15995378Y-16145057D01*
X15995378Y-16145057D02*
X15976331Y-16135533D01*
X15976331Y-16135533D02*
X15966807Y-16116485D01*
X15966807Y-16116485D02*
X15966807Y-16040295D01*
X15966807Y-16040295D02*
X15976331Y-16021247D01*
X15976331Y-16021247D02*
X15995378Y-16011724D01*
X15995378Y-16011724D02*
X16033474Y-16011724D01*
X16033474Y-16011724D02*
X16052521Y-16021247D01*
X16052521Y-16021247D02*
X16062045Y-16040295D01*
X16062045Y-16040295D02*
X16062045Y-16059343D01*
X16062045Y-16059343D02*
X15966807Y-16078390D01*
X16138236Y-16135533D02*
X16157283Y-16145057D01*
X16157283Y-16145057D02*
X16195378Y-16145057D01*
X16195378Y-16145057D02*
X16214426Y-16135533D01*
X16214426Y-16135533D02*
X16223950Y-16116485D01*
X16223950Y-16116485D02*
X16223950Y-16106962D01*
X16223950Y-16106962D02*
X16214426Y-16087914D01*
X16214426Y-16087914D02*
X16195378Y-16078390D01*
X16195378Y-16078390D02*
X16166807Y-16078390D01*
X16166807Y-16078390D02*
X16147759Y-16068866D01*
X16147759Y-16068866D02*
X16138236Y-16049819D01*
X16138236Y-16049819D02*
X16138236Y-16040295D01*
X16138236Y-16040295D02*
X16147759Y-16021247D01*
X16147759Y-16021247D02*
X16166807Y-16011724D01*
X16166807Y-16011724D02*
X16195378Y-16011724D01*
X16195378Y-16011724D02*
X16214426Y-16021247D01*
X16290617Y-16221247D02*
X16300140Y-16211724D01*
X16300140Y-16211724D02*
X16319188Y-16183152D01*
X16319188Y-16183152D02*
X16328712Y-16164105D01*
X16328712Y-16164105D02*
X16338236Y-16135533D01*
X16338236Y-16135533D02*
X16347759Y-16087914D01*
X16347759Y-16087914D02*
X16347759Y-16049819D01*
X16347759Y-16049819D02*
X16338236Y-16002200D01*
X16338236Y-16002200D02*
X16328712Y-15973628D01*
X16328712Y-15973628D02*
X16319188Y-15954581D01*
X16319188Y-15954581D02*
X16300140Y-15926009D01*
X16300140Y-15926009D02*
X16290617Y-15916485D01*
X11315554Y-16217573D02*
X11515554Y-16417573D01*
X11515554Y-16217573D02*
X11315554Y-16417573D01*
X11415554Y-16417573D02*
X11515554Y-16317573D01*
X11415554Y-16217573D01*
X11315554Y-16317573D01*
X11415554Y-16417573D01*
X11757283Y-16209057D02*
X11881092Y-16209057D01*
X11881092Y-16209057D02*
X11814426Y-16285247D01*
X11814426Y-16285247D02*
X11842997Y-16285247D01*
X11842997Y-16285247D02*
X11862045Y-16294771D01*
X11862045Y-16294771D02*
X11871568Y-16304295D01*
X11871568Y-16304295D02*
X11881092Y-16323343D01*
X11881092Y-16323343D02*
X11881092Y-16370962D01*
X11881092Y-16370962D02*
X11871568Y-16390009D01*
X11871568Y-16390009D02*
X11862045Y-16399533D01*
X11862045Y-16399533D02*
X11842997Y-16409057D01*
X11842997Y-16409057D02*
X11785854Y-16409057D01*
X11785854Y-16409057D02*
X11766807Y-16399533D01*
X11766807Y-16399533D02*
X11757283Y-16390009D01*
X11966807Y-16390009D02*
X11976330Y-16399533D01*
X11976330Y-16399533D02*
X11966807Y-16409057D01*
X11966807Y-16409057D02*
X11957283Y-16399533D01*
X11957283Y-16399533D02*
X11966807Y-16390009D01*
X11966807Y-16390009D02*
X11966807Y-16409057D01*
X12052521Y-16228105D02*
X12062045Y-16218581D01*
X12062045Y-16218581D02*
X12081092Y-16209057D01*
X12081092Y-16209057D02*
X12128711Y-16209057D01*
X12128711Y-16209057D02*
X12147759Y-16218581D01*
X12147759Y-16218581D02*
X12157283Y-16228105D01*
X12157283Y-16228105D02*
X12166807Y-16247152D01*
X12166807Y-16247152D02*
X12166807Y-16266200D01*
X12166807Y-16266200D02*
X12157283Y-16294771D01*
X12157283Y-16294771D02*
X12042997Y-16409057D01*
X12042997Y-16409057D02*
X12166807Y-16409057D01*
X12290616Y-16209057D02*
X12309664Y-16209057D01*
X12309664Y-16209057D02*
X12328711Y-16218581D01*
X12328711Y-16218581D02*
X12338235Y-16228105D01*
X12338235Y-16228105D02*
X12347759Y-16247152D01*
X12347759Y-16247152D02*
X12357283Y-16285247D01*
X12357283Y-16285247D02*
X12357283Y-16332866D01*
X12357283Y-16332866D02*
X12347759Y-16370962D01*
X12347759Y-16370962D02*
X12338235Y-16390009D01*
X12338235Y-16390009D02*
X12328711Y-16399533D01*
X12328711Y-16399533D02*
X12309664Y-16409057D01*
X12309664Y-16409057D02*
X12290616Y-16409057D01*
X12290616Y-16409057D02*
X12271568Y-16399533D01*
X12271568Y-16399533D02*
X12262045Y-16390009D01*
X12262045Y-16390009D02*
X12252521Y-16370962D01*
X12252521Y-16370962D02*
X12242997Y-16332866D01*
X12242997Y-16332866D02*
X12242997Y-16285247D01*
X12242997Y-16285247D02*
X12252521Y-16247152D01*
X12252521Y-16247152D02*
X12262045Y-16228105D01*
X12262045Y-16228105D02*
X12271568Y-16218581D01*
X12271568Y-16218581D02*
X12290616Y-16209057D01*
X12481092Y-16209057D02*
X12500140Y-16209057D01*
X12500140Y-16209057D02*
X12519188Y-16218581D01*
X12519188Y-16218581D02*
X12528711Y-16228105D01*
X12528711Y-16228105D02*
X12538235Y-16247152D01*
X12538235Y-16247152D02*
X12547759Y-16285247D01*
X12547759Y-16285247D02*
X12547759Y-16332866D01*
X12547759Y-16332866D02*
X12538235Y-16370962D01*
X12538235Y-16370962D02*
X12528711Y-16390009D01*
X12528711Y-16390009D02*
X12519188Y-16399533D01*
X12519188Y-16399533D02*
X12500140Y-16409057D01*
X12500140Y-16409057D02*
X12481092Y-16409057D01*
X12481092Y-16409057D02*
X12462045Y-16399533D01*
X12462045Y-16399533D02*
X12452521Y-16390009D01*
X12452521Y-16390009D02*
X12442997Y-16370962D01*
X12442997Y-16370962D02*
X12433473Y-16332866D01*
X12433473Y-16332866D02*
X12433473Y-16285247D01*
X12433473Y-16285247D02*
X12442997Y-16247152D01*
X12442997Y-16247152D02*
X12452521Y-16228105D01*
X12452521Y-16228105D02*
X12462045Y-16218581D01*
X12462045Y-16218581D02*
X12481092Y-16209057D01*
X12633473Y-16409057D02*
X12633473Y-16275724D01*
X12633473Y-16294771D02*
X12642997Y-16285247D01*
X12642997Y-16285247D02*
X12662045Y-16275724D01*
X12662045Y-16275724D02*
X12690616Y-16275724D01*
X12690616Y-16275724D02*
X12709664Y-16285247D01*
X12709664Y-16285247D02*
X12719188Y-16304295D01*
X12719188Y-16304295D02*
X12719188Y-16409057D01*
X12719188Y-16304295D02*
X12728711Y-16285247D01*
X12728711Y-16285247D02*
X12747759Y-16275724D01*
X12747759Y-16275724D02*
X12776330Y-16275724D01*
X12776330Y-16275724D02*
X12795378Y-16285247D01*
X12795378Y-16285247D02*
X12804902Y-16304295D01*
X12804902Y-16304295D02*
X12804902Y-16409057D01*
X12900140Y-16409057D02*
X12900140Y-16275724D01*
X12900140Y-16294771D02*
X12909664Y-16285247D01*
X12909664Y-16285247D02*
X12928711Y-16275724D01*
X12928711Y-16275724D02*
X12957283Y-16275724D01*
X12957283Y-16275724D02*
X12976330Y-16285247D01*
X12976330Y-16285247D02*
X12985854Y-16304295D01*
X12985854Y-16304295D02*
X12985854Y-16409057D01*
X12985854Y-16304295D02*
X12995378Y-16285247D01*
X12995378Y-16285247D02*
X13014426Y-16275724D01*
X13014426Y-16275724D02*
X13042997Y-16275724D01*
X13042997Y-16275724D02*
X13062045Y-16285247D01*
X13062045Y-16285247D02*
X13071569Y-16304295D01*
X13071569Y-16304295D02*
X13071569Y-16409057D01*
X13462045Y-16199533D02*
X13290616Y-16456676D01*
X13719188Y-16209057D02*
X13738235Y-16209057D01*
X13738235Y-16209057D02*
X13757283Y-16218581D01*
X13757283Y-16218581D02*
X13766807Y-16228105D01*
X13766807Y-16228105D02*
X13776331Y-16247152D01*
X13776331Y-16247152D02*
X13785854Y-16285247D01*
X13785854Y-16285247D02*
X13785854Y-16332866D01*
X13785854Y-16332866D02*
X13776331Y-16370962D01*
X13776331Y-16370962D02*
X13766807Y-16390009D01*
X13766807Y-16390009D02*
X13757283Y-16399533D01*
X13757283Y-16399533D02*
X13738235Y-16409057D01*
X13738235Y-16409057D02*
X13719188Y-16409057D01*
X13719188Y-16409057D02*
X13700140Y-16399533D01*
X13700140Y-16399533D02*
X13690616Y-16390009D01*
X13690616Y-16390009D02*
X13681092Y-16370962D01*
X13681092Y-16370962D02*
X13671569Y-16332866D01*
X13671569Y-16332866D02*
X13671569Y-16285247D01*
X13671569Y-16285247D02*
X13681092Y-16247152D01*
X13681092Y-16247152D02*
X13690616Y-16228105D01*
X13690616Y-16228105D02*
X13700140Y-16218581D01*
X13700140Y-16218581D02*
X13719188Y-16209057D01*
X13871569Y-16390009D02*
X13881092Y-16399533D01*
X13881092Y-16399533D02*
X13871569Y-16409057D01*
X13871569Y-16409057D02*
X13862045Y-16399533D01*
X13862045Y-16399533D02*
X13871569Y-16390009D01*
X13871569Y-16390009D02*
X13871569Y-16409057D01*
X14071569Y-16409057D02*
X13957283Y-16409057D01*
X14014426Y-16409057D02*
X14014426Y-16209057D01*
X14014426Y-16209057D02*
X13995378Y-16237628D01*
X13995378Y-16237628D02*
X13976331Y-16256676D01*
X13976331Y-16256676D02*
X13957283Y-16266200D01*
X14147759Y-16228105D02*
X14157283Y-16218581D01*
X14157283Y-16218581D02*
X14176331Y-16209057D01*
X14176331Y-16209057D02*
X14223950Y-16209057D01*
X14223950Y-16209057D02*
X14242997Y-16218581D01*
X14242997Y-16218581D02*
X14252521Y-16228105D01*
X14252521Y-16228105D02*
X14262045Y-16247152D01*
X14262045Y-16247152D02*
X14262045Y-16266200D01*
X14262045Y-16266200D02*
X14252521Y-16294771D01*
X14252521Y-16294771D02*
X14138235Y-16409057D01*
X14138235Y-16409057D02*
X14262045Y-16409057D01*
X14433473Y-16209057D02*
X14395378Y-16209057D01*
X14395378Y-16209057D02*
X14376331Y-16218581D01*
X14376331Y-16218581D02*
X14366807Y-16228105D01*
X14366807Y-16228105D02*
X14347759Y-16256676D01*
X14347759Y-16256676D02*
X14338235Y-16294771D01*
X14338235Y-16294771D02*
X14338235Y-16370962D01*
X14338235Y-16370962D02*
X14347759Y-16390009D01*
X14347759Y-16390009D02*
X14357283Y-16399533D01*
X14357283Y-16399533D02*
X14376331Y-16409057D01*
X14376331Y-16409057D02*
X14414426Y-16409057D01*
X14414426Y-16409057D02*
X14433473Y-16399533D01*
X14433473Y-16399533D02*
X14442997Y-16390009D01*
X14442997Y-16390009D02*
X14452521Y-16370962D01*
X14452521Y-16370962D02*
X14452521Y-16323343D01*
X14452521Y-16323343D02*
X14442997Y-16304295D01*
X14442997Y-16304295D02*
X14433473Y-16294771D01*
X14433473Y-16294771D02*
X14414426Y-16285247D01*
X14414426Y-16285247D02*
X14376331Y-16285247D01*
X14376331Y-16285247D02*
X14357283Y-16294771D01*
X14357283Y-16294771D02*
X14347759Y-16304295D01*
X14347759Y-16304295D02*
X14338235Y-16323343D01*
X14576331Y-16209057D02*
X14595378Y-16209057D01*
X14595378Y-16209057D02*
X14614426Y-16218581D01*
X14614426Y-16218581D02*
X14623950Y-16228105D01*
X14623950Y-16228105D02*
X14633473Y-16247152D01*
X14633473Y-16247152D02*
X14642997Y-16285247D01*
X14642997Y-16285247D02*
X14642997Y-16332866D01*
X14642997Y-16332866D02*
X14633473Y-16370962D01*
X14633473Y-16370962D02*
X14623950Y-16390009D01*
X14623950Y-16390009D02*
X14614426Y-16399533D01*
X14614426Y-16399533D02*
X14595378Y-16409057D01*
X14595378Y-16409057D02*
X14576331Y-16409057D01*
X14576331Y-16409057D02*
X14557283Y-16399533D01*
X14557283Y-16399533D02*
X14547759Y-16390009D01*
X14547759Y-16390009D02*
X14538235Y-16370962D01*
X14538235Y-16370962D02*
X14528712Y-16332866D01*
X14528712Y-16332866D02*
X14528712Y-16285247D01*
X14528712Y-16285247D02*
X14538235Y-16247152D01*
X14538235Y-16247152D02*
X14547759Y-16228105D01*
X14547759Y-16228105D02*
X14557283Y-16218581D01*
X14557283Y-16218581D02*
X14576331Y-16209057D01*
X14719188Y-16209057D02*
X14719188Y-16247152D01*
X14795378Y-16209057D02*
X14795378Y-16247152D01*
X15090616Y-16485247D02*
X15081093Y-16475724D01*
X15081093Y-16475724D02*
X15062045Y-16447152D01*
X15062045Y-16447152D02*
X15052521Y-16428105D01*
X15052521Y-16428105D02*
X15042997Y-16399533D01*
X15042997Y-16399533D02*
X15033474Y-16351914D01*
X15033474Y-16351914D02*
X15033474Y-16313819D01*
X15033474Y-16313819D02*
X15042997Y-16266200D01*
X15042997Y-16266200D02*
X15052521Y-16237628D01*
X15052521Y-16237628D02*
X15062045Y-16218581D01*
X15062045Y-16218581D02*
X15081093Y-16190009D01*
X15081093Y-16190009D02*
X15090616Y-16180485D01*
X15147759Y-16209057D02*
X15271569Y-16209057D01*
X15271569Y-16209057D02*
X15204902Y-16285247D01*
X15204902Y-16285247D02*
X15233474Y-16285247D01*
X15233474Y-16285247D02*
X15252521Y-16294771D01*
X15252521Y-16294771D02*
X15262045Y-16304295D01*
X15262045Y-16304295D02*
X15271569Y-16323343D01*
X15271569Y-16323343D02*
X15271569Y-16370962D01*
X15271569Y-16370962D02*
X15262045Y-16390009D01*
X15262045Y-16390009D02*
X15252521Y-16399533D01*
X15252521Y-16399533D02*
X15233474Y-16409057D01*
X15233474Y-16409057D02*
X15176331Y-16409057D01*
X15176331Y-16409057D02*
X15157283Y-16399533D01*
X15157283Y-16399533D02*
X15147759Y-16390009D01*
X15509664Y-16409057D02*
X15509664Y-16209057D01*
X15595378Y-16409057D02*
X15595378Y-16304295D01*
X15595378Y-16304295D02*
X15585855Y-16285247D01*
X15585855Y-16285247D02*
X15566807Y-16275724D01*
X15566807Y-16275724D02*
X15538235Y-16275724D01*
X15538235Y-16275724D02*
X15519188Y-16285247D01*
X15519188Y-16285247D02*
X15509664Y-16294771D01*
X15719188Y-16409057D02*
X15700140Y-16399533D01*
X15700140Y-16399533D02*
X15690616Y-16390009D01*
X15690616Y-16390009D02*
X15681093Y-16370962D01*
X15681093Y-16370962D02*
X15681093Y-16313819D01*
X15681093Y-16313819D02*
X15690616Y-16294771D01*
X15690616Y-16294771D02*
X15700140Y-16285247D01*
X15700140Y-16285247D02*
X15719188Y-16275724D01*
X15719188Y-16275724D02*
X15747759Y-16275724D01*
X15747759Y-16275724D02*
X15766807Y-16285247D01*
X15766807Y-16285247D02*
X15776331Y-16294771D01*
X15776331Y-16294771D02*
X15785855Y-16313819D01*
X15785855Y-16313819D02*
X15785855Y-16370962D01*
X15785855Y-16370962D02*
X15776331Y-16390009D01*
X15776331Y-16390009D02*
X15766807Y-16399533D01*
X15766807Y-16399533D02*
X15747759Y-16409057D01*
X15747759Y-16409057D02*
X15719188Y-16409057D01*
X15900140Y-16409057D02*
X15881093Y-16399533D01*
X15881093Y-16399533D02*
X15871569Y-16380485D01*
X15871569Y-16380485D02*
X15871569Y-16209057D01*
X16052521Y-16399533D02*
X16033474Y-16409057D01*
X16033474Y-16409057D02*
X15995378Y-16409057D01*
X15995378Y-16409057D02*
X15976331Y-16399533D01*
X15976331Y-16399533D02*
X15966807Y-16380485D01*
X15966807Y-16380485D02*
X15966807Y-16304295D01*
X15966807Y-16304295D02*
X15976331Y-16285247D01*
X15976331Y-16285247D02*
X15995378Y-16275724D01*
X15995378Y-16275724D02*
X16033474Y-16275724D01*
X16033474Y-16275724D02*
X16052521Y-16285247D01*
X16052521Y-16285247D02*
X16062045Y-16304295D01*
X16062045Y-16304295D02*
X16062045Y-16323343D01*
X16062045Y-16323343D02*
X15966807Y-16342390D01*
X16138236Y-16399533D02*
X16157283Y-16409057D01*
X16157283Y-16409057D02*
X16195378Y-16409057D01*
X16195378Y-16409057D02*
X16214426Y-16399533D01*
X16214426Y-16399533D02*
X16223950Y-16380485D01*
X16223950Y-16380485D02*
X16223950Y-16370962D01*
X16223950Y-16370962D02*
X16214426Y-16351914D01*
X16214426Y-16351914D02*
X16195378Y-16342390D01*
X16195378Y-16342390D02*
X16166807Y-16342390D01*
X16166807Y-16342390D02*
X16147759Y-16332866D01*
X16147759Y-16332866D02*
X16138236Y-16313819D01*
X16138236Y-16313819D02*
X16138236Y-16304295D01*
X16138236Y-16304295D02*
X16147759Y-16285247D01*
X16147759Y-16285247D02*
X16166807Y-16275724D01*
X16166807Y-16275724D02*
X16195378Y-16275724D01*
X16195378Y-16275724D02*
X16214426Y-16285247D01*
X16290617Y-16485247D02*
X16300140Y-16475724D01*
X16300140Y-16475724D02*
X16319188Y-16447152D01*
X16319188Y-16447152D02*
X16328712Y-16428105D01*
X16328712Y-16428105D02*
X16338236Y-16399533D01*
X16338236Y-16399533D02*
X16347759Y-16351914D01*
X16347759Y-16351914D02*
X16347759Y-16313819D01*
X16347759Y-16313819D02*
X16338236Y-16266200D01*
X16338236Y-16266200D02*
X16328712Y-16237628D01*
X16328712Y-16237628D02*
X16319188Y-16218581D01*
X16319188Y-16218581D02*
X16300140Y-16190009D01*
X16300140Y-16190009D02*
X16290617Y-16180485D01*
M02*
