%TF.GenerationSoftware,KiCad,Pcbnew,8.0.5*%
%TF.CreationDate,2025-11-10T20:55:45-03:00*%
%TF.ProjectId,sfp_moduloIC,7366705f-6d6f-4647-956c-6f49432e6b69,v2.0*%
%TF.SameCoordinates,Original*%
%TF.FileFunction,Drillmap*%
%TF.FilePolarity,Positive*%
%FSLAX45Y45*%
G04 Gerber Fmt 4.5, Leading zero omitted, Abs format (unit mm)*
G04 Created by KiCad (PCBNEW 8.0.5) date 2025-11-10 20:55:45*
%MOMM*%
%LPD*%
G01*
G04 APERTURE LIST*
%ADD10C,0.400000*%
%ADD11C,0.200000*%
%ADD12C,0.100000*%
%ADD13C,0.105000*%
%ADD14C,0.130000*%
%ADD15C,0.320000*%
G04 APERTURE END LIST*
D10*
X12030954Y-13696827D02*
G75*
G02*
X11530953Y-13196827I-4J499997D01*
G01*
X17030954Y-13696827D02*
X12030954Y-13696827D01*
X11535554Y-5594127D02*
X11530954Y-13196827D01*
X17530954Y-13196827D02*
X17537000Y-5094127D01*
X17530954Y-13196827D02*
G75*
G02*
X17030954Y-13696824I-500004J7D01*
G01*
X11535554Y-5594127D02*
G75*
G02*
X12035554Y-5094127I500000J0D01*
G01*
X12035554Y-5094127D02*
X17537000Y-5094127D01*
D11*
D12*
X11649954Y-12267827D02*
X11679954Y-12297827D01*
X11679954Y-12267827D02*
X11649954Y-12297827D01*
X11690954Y-6156827D02*
X11720954Y-6186827D01*
X11720954Y-6156827D02*
X11690954Y-6186827D01*
X11690954Y-6356827D02*
X11720954Y-6386827D01*
X11720954Y-6356827D02*
X11690954Y-6386827D01*
X11690954Y-6556827D02*
X11720954Y-6586827D01*
X11720954Y-6556827D02*
X11690954Y-6586827D01*
X11690954Y-6756827D02*
X11720954Y-6786827D01*
X11720954Y-6756827D02*
X11690954Y-6786827D01*
X11690954Y-6956827D02*
X11720954Y-6986827D01*
X11720954Y-6956827D02*
X11690954Y-6986827D01*
X11690954Y-7156827D02*
X11720954Y-7186827D01*
X11720954Y-7156827D02*
X11690954Y-7186827D01*
X11690954Y-7356827D02*
X11720954Y-7386827D01*
X11720954Y-7356827D02*
X11690954Y-7386827D01*
X11690954Y-10656827D02*
X11720954Y-10686827D01*
X11720954Y-10656827D02*
X11690954Y-10686827D01*
X11720000Y-7672000D02*
X11750000Y-7702000D01*
X11750000Y-7672000D02*
X11720000Y-7702000D01*
X11746000Y-8178000D02*
X11776000Y-8208000D01*
X11776000Y-8178000D02*
X11746000Y-8208000D01*
X11815954Y-10656827D02*
X11845954Y-10686827D01*
X11845954Y-10656827D02*
X11815954Y-10686827D01*
X11827554Y-7733627D02*
X11857554Y-7763627D01*
X11857554Y-7733627D02*
X11827554Y-7763627D01*
X11940954Y-10656827D02*
X11970954Y-10686827D01*
X11970954Y-10656827D02*
X11940954Y-10686827D01*
X11957554Y-7946627D02*
X11987554Y-7976627D01*
X11987554Y-7946627D02*
X11957554Y-7976627D01*
X11990954Y-6206827D02*
X12020954Y-6236827D01*
X12020954Y-6206827D02*
X11990954Y-6236827D01*
X12086554Y-7833627D02*
X12116554Y-7863627D01*
X12116554Y-7833627D02*
X12086554Y-7863627D01*
X12090954Y-6106827D02*
X12120954Y-6136827D01*
X12120954Y-6106827D02*
X12090954Y-6136827D01*
X12090954Y-6556827D02*
X12120954Y-6586827D01*
X12120954Y-6556827D02*
X12090954Y-6586827D01*
X12091960Y-7422200D02*
X12121960Y-7452200D01*
X12121960Y-7422200D02*
X12091960Y-7452200D01*
X12131000Y-8117000D02*
X12161000Y-8147000D01*
X12161000Y-8117000D02*
X12131000Y-8147000D01*
X12190954Y-6006827D02*
X12220954Y-6036827D01*
X12220954Y-6006827D02*
X12190954Y-6036827D01*
X12200000Y-7611627D02*
X12230000Y-7641627D01*
X12230000Y-7611627D02*
X12200000Y-7641627D01*
X12272710Y-8255500D02*
X12302710Y-8285500D01*
X12302710Y-8255500D02*
X12272710Y-8285500D01*
X12289090Y-8546090D02*
X12319090Y-8576090D01*
X12319090Y-8546090D02*
X12289090Y-8576090D01*
X12290954Y-5906827D02*
X12320954Y-5936827D01*
X12320954Y-5906827D02*
X12290954Y-5936827D01*
X12290954Y-10181827D02*
X12320954Y-10211827D01*
X12320954Y-10181827D02*
X12290954Y-10211827D01*
X12290954Y-10281827D02*
X12320954Y-10311827D01*
X12320954Y-10281827D02*
X12290954Y-10311827D01*
X12290954Y-10381827D02*
X12320954Y-10411827D01*
X12320954Y-10381827D02*
X12290954Y-10411827D01*
X12290954Y-10481827D02*
X12320954Y-10511827D01*
X12320954Y-10481827D02*
X12290954Y-10511827D01*
X12290954Y-10581827D02*
X12320954Y-10611827D01*
X12320954Y-10581827D02*
X12290954Y-10611827D01*
X12295654Y-7722227D02*
X12325654Y-7752227D01*
X12325654Y-7722227D02*
X12295654Y-7752227D01*
X12295954Y-8021827D02*
X12325954Y-8051827D01*
X12325954Y-8021827D02*
X12295954Y-8051827D01*
X12315954Y-6306827D02*
X12345954Y-6336827D01*
X12345954Y-6306827D02*
X12315954Y-6336827D01*
X12337464Y-8386537D02*
X12367464Y-8416537D01*
X12367464Y-8386537D02*
X12337464Y-8416537D01*
X12355554Y-7425500D02*
X12385554Y-7455500D01*
X12385554Y-7425500D02*
X12355554Y-7455500D01*
X12362795Y-8438156D02*
X12392795Y-8468156D01*
X12392795Y-8438156D02*
X12362795Y-8468156D01*
X12390954Y-6231827D02*
X12420954Y-6261827D01*
X12420954Y-6231827D02*
X12390954Y-6261827D01*
X12390954Y-6731827D02*
X12420954Y-6761827D01*
X12420954Y-6731827D02*
X12390954Y-6761827D01*
X12390954Y-6856827D02*
X12420954Y-6886827D01*
X12420954Y-6856827D02*
X12390954Y-6886827D01*
X12390954Y-6981827D02*
X12420954Y-7011827D01*
X12420954Y-6981827D02*
X12390954Y-7011827D01*
X12390954Y-7106827D02*
X12420954Y-7136827D01*
X12420954Y-7106827D02*
X12390954Y-7136827D01*
X12392554Y-8490627D02*
X12422554Y-8520627D01*
X12422554Y-8490627D02*
X12392554Y-8520627D01*
X12397554Y-7532627D02*
X12427554Y-7562627D01*
X12427554Y-7532627D02*
X12397554Y-7562627D01*
X12449000Y-8508000D02*
X12479000Y-8538000D01*
X12479000Y-8508000D02*
X12449000Y-8538000D01*
X12465954Y-6156827D02*
X12495954Y-6186827D01*
X12495954Y-6156827D02*
X12465954Y-6186827D01*
X12465954Y-6606827D02*
X12495954Y-6636827D01*
X12495954Y-6606827D02*
X12465954Y-6636827D01*
X12500728Y-8533109D02*
X12530728Y-8563109D01*
X12530728Y-8533109D02*
X12500728Y-8563109D01*
X12540954Y-6081827D02*
X12570954Y-6111827D01*
X12570954Y-6081827D02*
X12540954Y-6111827D01*
X12544554Y-7426500D02*
X12574554Y-7456500D01*
X12574554Y-7426500D02*
X12544554Y-7456500D01*
X12551204Y-8265500D02*
X12581204Y-8295500D01*
X12581204Y-8265500D02*
X12551204Y-8295500D01*
X12558000Y-10090000D02*
X12588000Y-10120000D01*
X12588000Y-10090000D02*
X12558000Y-10120000D01*
X12565954Y-6506827D02*
X12595954Y-6536827D01*
X12595954Y-6506827D02*
X12565954Y-6536827D01*
X12569000Y-5501000D02*
X12599000Y-5531000D01*
X12599000Y-5501000D02*
X12569000Y-5531000D01*
X12569000Y-5648000D02*
X12599000Y-5678000D01*
X12599000Y-5648000D02*
X12569000Y-5678000D01*
X12595954Y-7720827D02*
X12625954Y-7750827D01*
X12625954Y-7720827D02*
X12595954Y-7750827D01*
X12595954Y-8022827D02*
X12625954Y-8052827D01*
X12625954Y-8022827D02*
X12595954Y-8052827D01*
X12626904Y-11057227D02*
X12656904Y-11087227D01*
X12656904Y-11057227D02*
X12626904Y-11087227D01*
X12626904Y-11158827D02*
X12656904Y-11188827D01*
X12656904Y-11158827D02*
X12626904Y-11188827D01*
X12626904Y-11260427D02*
X12656904Y-11290427D01*
X12656904Y-11260427D02*
X12626904Y-11290427D01*
X12626904Y-11362027D02*
X12656904Y-11392027D01*
X12656904Y-11362027D02*
X12626904Y-11392027D01*
X12626904Y-11463627D02*
X12656904Y-11493627D01*
X12656904Y-11463627D02*
X12626904Y-11493627D01*
X12626904Y-11565227D02*
X12656904Y-11595227D01*
X12656904Y-11565227D02*
X12626904Y-11595227D01*
X12626904Y-11666827D02*
X12656904Y-11696827D01*
X12656904Y-11666827D02*
X12626904Y-11696827D01*
X12626904Y-11768427D02*
X12656904Y-11798427D01*
X12656904Y-11768427D02*
X12626904Y-11798427D01*
X12626904Y-11870027D02*
X12656904Y-11900027D01*
X12656904Y-11870027D02*
X12626904Y-11900027D01*
X12626904Y-11971627D02*
X12656904Y-12001627D01*
X12656904Y-11971627D02*
X12626904Y-12001627D01*
X12626904Y-12073227D02*
X12656904Y-12103227D01*
X12656904Y-12073227D02*
X12626904Y-12103227D01*
X12626904Y-12174827D02*
X12656904Y-12204827D01*
X12656904Y-12174827D02*
X12626904Y-12204827D01*
X12665954Y-5756827D02*
X12695954Y-5786827D01*
X12695954Y-5756827D02*
X12665954Y-5786827D01*
X12666000Y-8614000D02*
X12696000Y-8644000D01*
X12696000Y-8614000D02*
X12666000Y-8644000D01*
X12715954Y-13281827D02*
X12745954Y-13311827D01*
X12745954Y-13281827D02*
X12715954Y-13311827D01*
X12719554Y-6961627D02*
X12749554Y-6991627D01*
X12749554Y-6961627D02*
X12719554Y-6991627D01*
X12728504Y-11057227D02*
X12758504Y-11087227D01*
X12758504Y-11057227D02*
X12728504Y-11087227D01*
X12728504Y-11362027D02*
X12758504Y-11392027D01*
X12758504Y-11362027D02*
X12728504Y-11392027D01*
X12728504Y-11463627D02*
X12758504Y-11493627D01*
X12758504Y-11463627D02*
X12728504Y-11493627D01*
X12728504Y-11565227D02*
X12758504Y-11595227D01*
X12758504Y-11565227D02*
X12728504Y-11595227D01*
X12728504Y-11666827D02*
X12758504Y-11696827D01*
X12758504Y-11666827D02*
X12728504Y-11696827D01*
X12728504Y-11768427D02*
X12758504Y-11798427D01*
X12758504Y-11768427D02*
X12728504Y-11798427D01*
X12728504Y-11870027D02*
X12758504Y-11900027D01*
X12758504Y-11870027D02*
X12728504Y-11900027D01*
X12728504Y-11971627D02*
X12758504Y-12001627D01*
X12758504Y-11971627D02*
X12728504Y-12001627D01*
X12728504Y-12073227D02*
X12758504Y-12103227D01*
X12758504Y-12073227D02*
X12728504Y-12103227D01*
X12728504Y-12174827D02*
X12758504Y-12204827D01*
X12758504Y-12174827D02*
X12728504Y-12204827D01*
X12730554Y-7426500D02*
X12760554Y-7456500D01*
X12760554Y-7426500D02*
X12730554Y-7456500D01*
X12743000Y-6611250D02*
X12773000Y-6641250D01*
X12773000Y-6611250D02*
X12743000Y-6641250D01*
X12788000Y-7896500D02*
X12818000Y-7926500D01*
X12818000Y-7896500D02*
X12788000Y-7926500D01*
X12790954Y-5756827D02*
X12820954Y-5786827D01*
X12820954Y-5756827D02*
X12790954Y-5786827D01*
X12809000Y-8995000D02*
X12839000Y-9025000D01*
X12839000Y-8995000D02*
X12809000Y-9025000D01*
X12840954Y-13281827D02*
X12870954Y-13311827D01*
X12870954Y-13281827D02*
X12840954Y-13311827D01*
X12884500Y-8045000D02*
X12914500Y-8075000D01*
X12914500Y-8045000D02*
X12884500Y-8075000D01*
X12915954Y-6056827D02*
X12945954Y-6086827D01*
X12945954Y-6056827D02*
X12915954Y-6086827D01*
X12940954Y-5756827D02*
X12970954Y-5786827D01*
X12970954Y-5756827D02*
X12940954Y-5786827D01*
X12957104Y-11057227D02*
X12987104Y-11087227D01*
X12987104Y-11057227D02*
X12957104Y-11087227D01*
X12957104Y-11362027D02*
X12987104Y-11392027D01*
X12987104Y-11362027D02*
X12957104Y-11392027D01*
X12957104Y-11463627D02*
X12987104Y-11493627D01*
X12987104Y-11463627D02*
X12957104Y-11493627D01*
X12957104Y-11565227D02*
X12987104Y-11595227D01*
X12987104Y-11565227D02*
X12957104Y-11595227D01*
X12957104Y-11666827D02*
X12987104Y-11696827D01*
X12987104Y-11666827D02*
X12957104Y-11696827D01*
X12957104Y-11768427D02*
X12987104Y-11798427D01*
X12987104Y-11768427D02*
X12957104Y-11798427D01*
X12957104Y-11870027D02*
X12987104Y-11900027D01*
X12987104Y-11870027D02*
X12957104Y-11900027D01*
X12957104Y-11971627D02*
X12987104Y-12001627D01*
X12987104Y-11971627D02*
X12957104Y-12001627D01*
X12957104Y-12073227D02*
X12987104Y-12103227D01*
X12987104Y-12073227D02*
X12957104Y-12103227D01*
X12957104Y-12174827D02*
X12987104Y-12204827D01*
X12987104Y-12174827D02*
X12957104Y-12204827D01*
X12965954Y-7231827D02*
X12995954Y-7261827D01*
X12995954Y-7231827D02*
X12965954Y-7261827D01*
X12965954Y-13281827D02*
X12995954Y-13311827D01*
X12995954Y-13281827D02*
X12965954Y-13311827D01*
X13035554Y-8234627D02*
X13065554Y-8264627D01*
X13065554Y-8234627D02*
X13035554Y-8264627D01*
X13040954Y-6056827D02*
X13070954Y-6086827D01*
X13070954Y-6056827D02*
X13040954Y-6086827D01*
X13046090Y-8119090D02*
X13076090Y-8149090D01*
X13076090Y-8119090D02*
X13046090Y-8149090D01*
X13058704Y-11057227D02*
X13088704Y-11087227D01*
X13088704Y-11057227D02*
X13058704Y-11087227D01*
X13058704Y-11158827D02*
X13088704Y-11188827D01*
X13088704Y-11158827D02*
X13058704Y-11188827D01*
X13058704Y-11260427D02*
X13088704Y-11290427D01*
X13088704Y-11260427D02*
X13058704Y-11290427D01*
X13058704Y-11362027D02*
X13088704Y-11392027D01*
X13088704Y-11362027D02*
X13058704Y-11392027D01*
X13058704Y-11463627D02*
X13088704Y-11493627D01*
X13088704Y-11463627D02*
X13058704Y-11493627D01*
X13058704Y-11565227D02*
X13088704Y-11595227D01*
X13088704Y-11565227D02*
X13058704Y-11595227D01*
X13058704Y-11666827D02*
X13088704Y-11696827D01*
X13088704Y-11666827D02*
X13058704Y-11696827D01*
X13058704Y-11768427D02*
X13088704Y-11798427D01*
X13088704Y-11768427D02*
X13058704Y-11798427D01*
X13058704Y-11870027D02*
X13088704Y-11900027D01*
X13088704Y-11870027D02*
X13058704Y-11900027D01*
X13058704Y-11971627D02*
X13088704Y-12001627D01*
X13088704Y-11971627D02*
X13058704Y-12001627D01*
X13058704Y-12073227D02*
X13088704Y-12103227D01*
X13088704Y-12073227D02*
X13058704Y-12103227D01*
X13058704Y-12174827D02*
X13088704Y-12204827D01*
X13088704Y-12174827D02*
X13058704Y-12204827D01*
X13060000Y-8838750D02*
X13090000Y-8868750D01*
X13090000Y-8838750D02*
X13060000Y-8868750D01*
X13090954Y-12781827D02*
X13120954Y-12811827D01*
X13120954Y-12781827D02*
X13090954Y-12811827D01*
X13090954Y-12906827D02*
X13120954Y-12936827D01*
X13120954Y-12906827D02*
X13090954Y-12936827D01*
X13090954Y-13031827D02*
X13120954Y-13061827D01*
X13120954Y-13031827D02*
X13090954Y-13061827D01*
X13090954Y-13156827D02*
X13120954Y-13186827D01*
X13120954Y-13156827D02*
X13090954Y-13186827D01*
X13090954Y-13281827D02*
X13120954Y-13311827D01*
X13120954Y-13281827D02*
X13090954Y-13311827D01*
X13101000Y-5641000D02*
X13131000Y-5671000D01*
X13131000Y-5641000D02*
X13101000Y-5671000D01*
X13107954Y-8729827D02*
X13137954Y-8759827D01*
X13137954Y-8729827D02*
X13107954Y-8759827D01*
X13150000Y-6841000D02*
X13180000Y-6871000D01*
X13180000Y-6841000D02*
X13150000Y-6871000D01*
X13151000Y-6653250D02*
X13181000Y-6683250D01*
X13181000Y-6653250D02*
X13151000Y-6683250D01*
X13165954Y-6056827D02*
X13195954Y-6086827D01*
X13195954Y-6056827D02*
X13165954Y-6086827D01*
X13165954Y-6506827D02*
X13195954Y-6536827D01*
X13195954Y-6506827D02*
X13165954Y-6536827D01*
X13189240Y-8026720D02*
X13219240Y-8056720D01*
X13219240Y-8026720D02*
X13189240Y-8056720D01*
X13190954Y-7231827D02*
X13220954Y-7261827D01*
X13220954Y-7231827D02*
X13190954Y-7261827D01*
X13206000Y-8837750D02*
X13236000Y-8867750D01*
X13236000Y-8837750D02*
X13206000Y-8867750D01*
X13256090Y-8463090D02*
X13286090Y-8493090D01*
X13286090Y-8463090D02*
X13256090Y-8493090D01*
X13259090Y-8364090D02*
X13289090Y-8394090D01*
X13289090Y-8364090D02*
X13259090Y-8394090D01*
X13259554Y-8275000D02*
X13289554Y-8305000D01*
X13289554Y-8275000D02*
X13259554Y-8305000D01*
X13259554Y-8558000D02*
X13289554Y-8588000D01*
X13289554Y-8558000D02*
X13259554Y-8588000D01*
X13262554Y-8654000D02*
X13292554Y-8684000D01*
X13292554Y-8654000D02*
X13262554Y-8684000D01*
X13278554Y-7705627D02*
X13308554Y-7735627D01*
X13308554Y-7705627D02*
X13278554Y-7735627D01*
X13352000Y-8840750D02*
X13382000Y-8870750D01*
X13382000Y-8840750D02*
X13352000Y-8870750D01*
X13423000Y-9638000D02*
X13453000Y-9668000D01*
X13453000Y-9638000D02*
X13423000Y-9668000D01*
X13497000Y-8842627D02*
X13527000Y-8872627D01*
X13527000Y-8842627D02*
X13497000Y-8872627D01*
X13499120Y-10079040D02*
X13529120Y-10109040D01*
X13529120Y-10079040D02*
X13499120Y-10109040D01*
X13519000Y-8015000D02*
X13549000Y-8045000D01*
X13549000Y-8015000D02*
X13519000Y-8045000D01*
X13520000Y-7357000D02*
X13550000Y-7387000D01*
X13550000Y-7357000D02*
X13520000Y-7387000D01*
X13521000Y-7758000D02*
X13551000Y-7788000D01*
X13551000Y-7758000D02*
X13521000Y-7788000D01*
X13585480Y-7015800D02*
X13615480Y-7045800D01*
X13615480Y-7015800D02*
X13585480Y-7045800D01*
X13614000Y-9651000D02*
X13644000Y-9681000D01*
X13644000Y-9651000D02*
X13614000Y-9681000D01*
X13644000Y-8833627D02*
X13674000Y-8863627D01*
X13674000Y-8833627D02*
X13644000Y-8863627D01*
X13668554Y-7667000D02*
X13698554Y-7697000D01*
X13698554Y-7667000D02*
X13668554Y-7697000D01*
X13705554Y-9901627D02*
X13735554Y-9931627D01*
X13735554Y-9901627D02*
X13705554Y-9931627D01*
X13731000Y-6049000D02*
X13761000Y-6079000D01*
X13761000Y-6049000D02*
X13731000Y-6079000D01*
X13736000Y-6197000D02*
X13766000Y-6227000D01*
X13766000Y-6197000D02*
X13736000Y-6227000D01*
X13785554Y-9699627D02*
X13815554Y-9729627D01*
X13815554Y-9699627D02*
X13785554Y-9729627D01*
X13807463Y-7276536D02*
X13837463Y-7306536D01*
X13837463Y-7276536D02*
X13807463Y-7306536D01*
X13816579Y-10452827D02*
X13846579Y-10482827D01*
X13846579Y-10452827D02*
X13816579Y-10482827D01*
X13816954Y-10619827D02*
X13846954Y-10649827D01*
X13846954Y-10619827D02*
X13816954Y-10649827D01*
X13840714Y-9673466D02*
X13870714Y-9703466D01*
X13870714Y-9673466D02*
X13840714Y-9703466D01*
X13859554Y-7034627D02*
X13889554Y-7064627D01*
X13889554Y-7034627D02*
X13859554Y-7064627D01*
X13874981Y-7271627D02*
X13904981Y-7301627D01*
X13904981Y-7271627D02*
X13874981Y-7301627D01*
X13880090Y-9627090D02*
X13910090Y-9657090D01*
X13910090Y-9627090D02*
X13880090Y-9657090D01*
X13896554Y-5174627D02*
X13926554Y-5204627D01*
X13926554Y-5174627D02*
X13896554Y-5204627D01*
X13980214Y-9593287D02*
X14010214Y-9623287D01*
X14010214Y-9593287D02*
X13980214Y-9623287D01*
X14010554Y-9393500D02*
X14040554Y-9423500D01*
X14040554Y-9393500D02*
X14010554Y-9423500D01*
X14051554Y-9346000D02*
X14081554Y-9376000D01*
X14081554Y-9346000D02*
X14051554Y-9376000D01*
X14087554Y-9298500D02*
X14117554Y-9328500D01*
X14117554Y-9298500D02*
X14087554Y-9328500D01*
X14105954Y-7316827D02*
X14135954Y-7346827D01*
X14135954Y-7316827D02*
X14105954Y-7346827D01*
X14132000Y-7448000D02*
X14162000Y-7478000D01*
X14162000Y-7448000D02*
X14132000Y-7478000D01*
X14144280Y-8438200D02*
X14174280Y-8468200D01*
X14174280Y-8438200D02*
X14144280Y-8468200D01*
X14154440Y-6020120D02*
X14184440Y-6050120D01*
X14184440Y-6020120D02*
X14154440Y-6050120D01*
X14208500Y-6327000D02*
X14238500Y-6357000D01*
X14238500Y-6327000D02*
X14208500Y-6357000D01*
X14218463Y-6218536D02*
X14248463Y-6248536D01*
X14248463Y-6218536D02*
X14218463Y-6248536D01*
X14239554Y-6278627D02*
X14269554Y-6308627D01*
X14269554Y-6278627D02*
X14239554Y-6308627D01*
X14250960Y-8041960D02*
X14280960Y-8071960D01*
X14280960Y-8041960D02*
X14250960Y-8071960D01*
X14262000Y-7892000D02*
X14292000Y-7922000D01*
X14292000Y-7892000D02*
X14262000Y-7922000D01*
X14264000Y-9494000D02*
X14294000Y-9524000D01*
X14294000Y-9494000D02*
X14264000Y-9524000D01*
X14267000Y-7759000D02*
X14297000Y-7789000D01*
X14297000Y-7759000D02*
X14267000Y-7789000D01*
X14296680Y-8128320D02*
X14326680Y-8158320D01*
X14326680Y-8128320D02*
X14296680Y-8158320D01*
X14340000Y-9471000D02*
X14370000Y-9501000D01*
X14370000Y-9471000D02*
X14340000Y-9501000D01*
X14357640Y-9779320D02*
X14387640Y-9809320D01*
X14387640Y-9779320D02*
X14357640Y-9809320D01*
X14367800Y-8773480D02*
X14397800Y-8803480D01*
X14397800Y-8773480D02*
X14367800Y-8803480D01*
X14388120Y-8966520D02*
X14418120Y-8996520D01*
X14418120Y-8966520D02*
X14388120Y-8996520D01*
X14393200Y-9961627D02*
X14423200Y-9991627D01*
X14423200Y-9961627D02*
X14393200Y-9991627D01*
X14404090Y-9416090D02*
X14434090Y-9446090D01*
X14434090Y-9416090D02*
X14404090Y-9446090D01*
X14491000Y-8106000D02*
X14521000Y-8136000D01*
X14521000Y-8106000D02*
X14491000Y-8136000D01*
X14531000Y-6372000D02*
X14561000Y-6402000D01*
X14561000Y-6372000D02*
X14531000Y-6402000D01*
X14540000Y-6293000D02*
X14570000Y-6323000D01*
X14570000Y-6293000D02*
X14540000Y-6323000D01*
X14546000Y-9409000D02*
X14576000Y-9439000D01*
X14576000Y-9409000D02*
X14546000Y-9439000D01*
X14547554Y-5968000D02*
X14577554Y-5998000D01*
X14577554Y-5968000D02*
X14547554Y-5998000D01*
X14549175Y-5900000D02*
X14579175Y-5930000D01*
X14579175Y-5900000D02*
X14549175Y-5930000D01*
X14550680Y-7691440D02*
X14580680Y-7721440D01*
X14580680Y-7691440D02*
X14550680Y-7721440D01*
X14575554Y-7931627D02*
X14605554Y-7961627D01*
X14605554Y-7931627D02*
X14575554Y-7961627D01*
X14595554Y-9981627D02*
X14625554Y-10011627D01*
X14625554Y-9981627D02*
X14595554Y-10011627D01*
X14598000Y-10256627D02*
X14628000Y-10286627D01*
X14628000Y-10256627D02*
X14598000Y-10286627D01*
X14615554Y-9414627D02*
X14645554Y-9444627D01*
X14645554Y-9414627D02*
X14615554Y-9444627D01*
X14637770Y-9104410D02*
X14667770Y-9134410D01*
X14667770Y-9104410D02*
X14637770Y-9134410D01*
X14664000Y-8097000D02*
X14694000Y-8127000D01*
X14694000Y-8097000D02*
X14664000Y-8127000D01*
X14672600Y-8915720D02*
X14702600Y-8945720D01*
X14702600Y-8915720D02*
X14672600Y-8945720D01*
X14690954Y-10706827D02*
X14720954Y-10736827D01*
X14720954Y-10706827D02*
X14690954Y-10736827D01*
X14703554Y-7854627D02*
X14733554Y-7884627D01*
X14733554Y-7854627D02*
X14703554Y-7884627D01*
X14748000Y-9422627D02*
X14778000Y-9452627D01*
X14778000Y-9422627D02*
X14748000Y-9452627D01*
X14751500Y-9968500D02*
X14781500Y-9998500D01*
X14781500Y-9968500D02*
X14751500Y-9998500D01*
X14784360Y-8021640D02*
X14814360Y-8051640D01*
X14814360Y-8021640D02*
X14784360Y-8051640D01*
X14793213Y-9517287D02*
X14823213Y-9547287D01*
X14823213Y-9517287D02*
X14793213Y-9547287D01*
X14843000Y-9969627D02*
X14873000Y-9999627D01*
X14873000Y-9969627D02*
X14843000Y-9999627D01*
X14870000Y-9441000D02*
X14900000Y-9471000D01*
X14900000Y-9441000D02*
X14870000Y-9471000D01*
X14890954Y-10706827D02*
X14920954Y-10736827D01*
X14920954Y-10706827D02*
X14890954Y-10736827D01*
X14921554Y-9261000D02*
X14951554Y-9291000D01*
X14951554Y-9261000D02*
X14921554Y-9291000D01*
X15090954Y-10706827D02*
X15120954Y-10736827D01*
X15120954Y-10706827D02*
X15090954Y-10736827D01*
X15109000Y-7777000D02*
X15139000Y-7807000D01*
X15139000Y-7777000D02*
X15109000Y-7807000D01*
X15156590Y-7741590D02*
X15186590Y-7771590D01*
X15186590Y-7741590D02*
X15156590Y-7771590D01*
X15198590Y-7694590D02*
X15228590Y-7724590D01*
X15228590Y-7694590D02*
X15198590Y-7724590D01*
X15210000Y-9936627D02*
X15240000Y-9966627D01*
X15240000Y-9936627D02*
X15210000Y-9966627D01*
X15246090Y-7645090D02*
X15276090Y-7675090D01*
X15276090Y-7645090D02*
X15246090Y-7675090D01*
X15261554Y-9888500D02*
X15291554Y-9918500D01*
X15291554Y-9888500D02*
X15261554Y-9918500D01*
X15291090Y-7602090D02*
X15321090Y-7632090D01*
X15321090Y-7602090D02*
X15291090Y-7632090D01*
X15298590Y-9839590D02*
X15328590Y-9869590D01*
X15328590Y-9839590D02*
X15298590Y-9869590D01*
X15327554Y-10191000D02*
X15357554Y-10221000D01*
X15357554Y-10191000D02*
X15327554Y-10221000D01*
X15338090Y-7552090D02*
X15368090Y-7582090D01*
X15368090Y-7552090D02*
X15338090Y-7582090D01*
X15340590Y-9792590D02*
X15370590Y-9822590D01*
X15370590Y-9792590D02*
X15340590Y-9822590D01*
X15377500Y-9098000D02*
X15407500Y-9128000D01*
X15407500Y-9098000D02*
X15377500Y-9128000D01*
X15390000Y-9555800D02*
X15420000Y-9585800D01*
X15420000Y-9555800D02*
X15390000Y-9585800D01*
X15417500Y-8991000D02*
X15447500Y-9021000D01*
X15447500Y-8991000D02*
X15417500Y-9021000D01*
X15627640Y-7884480D02*
X15657640Y-7914480D01*
X15657640Y-7884480D02*
X15627640Y-7914480D01*
X15690954Y-8731827D02*
X15720954Y-8761827D01*
X15720954Y-8731827D02*
X15690954Y-8761827D01*
X15740000Y-9800000D02*
X15770000Y-9830000D01*
X15770000Y-9800000D02*
X15740000Y-9830000D01*
X15749590Y-9624590D02*
X15779590Y-9654590D01*
X15779590Y-9624590D02*
X15749590Y-9654590D01*
X15758590Y-8270590D02*
X15788590Y-8300590D01*
X15788590Y-8270590D02*
X15758590Y-8300590D01*
X15765954Y-10706827D02*
X15795954Y-10736827D01*
X15795954Y-10706827D02*
X15765954Y-10736827D01*
X15965954Y-8731827D02*
X15995954Y-8761827D01*
X15995954Y-8731827D02*
X15965954Y-8761827D01*
X15990954Y-10706827D02*
X16020954Y-10736827D01*
X16020954Y-10706827D02*
X15990954Y-10736827D01*
X16130560Y-8158800D02*
X16160560Y-8188800D01*
X16160560Y-8158800D02*
X16130560Y-8188800D01*
X16215954Y-10706827D02*
X16245954Y-10736827D01*
X16245954Y-10706827D02*
X16215954Y-10736827D01*
X16240954Y-8731827D02*
X16270954Y-8761827D01*
X16270954Y-8731827D02*
X16240954Y-8761827D01*
X16353590Y-8268590D02*
X16383590Y-8298590D01*
X16383590Y-8268590D02*
X16353590Y-8298590D01*
X16504000Y-7569000D02*
X16534000Y-7599000D01*
X16534000Y-7569000D02*
X16504000Y-7599000D01*
X16515954Y-8731827D02*
X16545954Y-8761827D01*
X16545954Y-8731827D02*
X16515954Y-8761827D01*
X16680554Y-10659127D02*
X16710554Y-10689127D01*
X16710554Y-10659127D02*
X16680554Y-10689127D01*
X16704600Y-8168960D02*
X16734600Y-8198960D01*
X16734600Y-8168960D02*
X16704600Y-8198960D01*
X16790954Y-8731827D02*
X16820954Y-8761827D01*
X16820954Y-8731827D02*
X16790954Y-8761827D01*
X16798000Y-6996500D02*
X16828000Y-7026500D01*
X16828000Y-6996500D02*
X16798000Y-7026500D01*
X16817590Y-7134590D02*
X16847590Y-7164590D01*
X16847590Y-7134590D02*
X16817590Y-7164590D01*
X17060964Y-9595037D02*
X17090964Y-9625037D01*
X17090964Y-9595037D02*
X17060964Y-9625037D01*
X17064000Y-9817627D02*
X17094000Y-9847627D01*
X17094000Y-9817627D02*
X17064000Y-9847627D01*
X17365954Y-10431827D02*
X17395954Y-10461827D01*
X17395954Y-10431827D02*
X17365954Y-10461827D01*
X16821954Y-13315827D02*
G75*
G02*
X16751954Y-13315827I-35000J0D01*
G01*
X16751954Y-13315827D02*
G75*
G02*
X16821954Y-13315827I35000J0D01*
G01*
X17329954Y-13315827D02*
G75*
G02*
X17259954Y-13315827I-35000J0D01*
G01*
X17259954Y-13315827D02*
G75*
G02*
X17329954Y-13315827I35000J0D01*
G01*
X16790954Y-12850827D02*
X16790954Y-12930827D01*
X16750954Y-12890827D02*
X16830954Y-12890827D01*
X17290954Y-12850827D02*
X17290954Y-12930827D01*
X17250954Y-12890827D02*
X17330954Y-12890827D01*
X14101552Y-6869552D02*
X14101552Y-6809448D01*
X14041448Y-6809448D01*
X14041448Y-6869552D01*
X14101552Y-6869552D01*
X13361500Y-5694500D02*
X13409000Y-5647000D01*
X13361500Y-5599500D01*
X13314000Y-5647000D01*
X13361500Y-5694500D01*
X13361500Y-6174500D02*
X13409000Y-6127000D01*
X13361500Y-6079500D01*
X13314000Y-6127000D01*
X13361500Y-6174500D01*
X13361500Y-6654500D02*
X13409000Y-6607000D01*
X13361500Y-6559500D01*
X13314000Y-6607000D01*
X13361500Y-6654500D01*
X13821500Y-5462000D02*
X13869000Y-5414500D01*
X13821500Y-5367000D01*
X13774000Y-5414500D01*
X13821500Y-5462000D01*
X13821500Y-6887000D02*
X13869000Y-6839500D01*
X13821500Y-6792000D01*
X13774000Y-6839500D01*
X13821500Y-6887000D01*
X14321500Y-5462000D02*
X14369000Y-5414500D01*
X14321500Y-5367000D01*
X14274000Y-5414500D01*
X14321500Y-5462000D01*
X14321500Y-6887000D02*
X14369000Y-6839500D01*
X14321500Y-6792000D01*
X14274000Y-6839500D01*
X14321500Y-6887000D01*
X14791500Y-5462000D02*
X14839000Y-5414500D01*
X14791500Y-5367000D01*
X14744000Y-5414500D01*
X14791500Y-5462000D01*
X14791500Y-6887000D02*
X14839000Y-6839500D01*
X14791500Y-6792000D01*
X14744000Y-6839500D01*
X14791500Y-6887000D01*
X11780554Y-9811627D02*
X11880554Y-9911627D01*
X11880554Y-9811627D02*
X11780554Y-9911627D01*
X11880554Y-9861627D02*
G75*
G02*
X11780554Y-9861627I-50000J0D01*
G01*
X11780554Y-9861627D02*
G75*
G02*
X11880554Y-9861627I50000J0D01*
G01*
X11780554Y-10065627D02*
X11880554Y-10165627D01*
X11880554Y-10065627D02*
X11780554Y-10165627D01*
X11880554Y-10115627D02*
G75*
G02*
X11780554Y-10115627I-50000J0D01*
G01*
X11780554Y-10115627D02*
G75*
G02*
X11880554Y-10115627I50000J0D01*
G01*
X11780554Y-10319627D02*
X11880554Y-10419627D01*
X11880554Y-10319627D02*
X11780554Y-10419627D01*
X11880554Y-10369627D02*
G75*
G02*
X11780554Y-10369627I-50000J0D01*
G01*
X11780554Y-10369627D02*
G75*
G02*
X11880554Y-10369627I50000J0D01*
G01*
X11785000Y-8852627D02*
X11885000Y-8952627D01*
X11885000Y-8852627D02*
X11785000Y-8952627D01*
X11885000Y-8902627D02*
G75*
G02*
X11785000Y-8902627I-50000J0D01*
G01*
X11785000Y-8902627D02*
G75*
G02*
X11885000Y-8902627I50000J0D01*
G01*
X11785000Y-9106627D02*
X11885000Y-9206627D01*
X11885000Y-9106627D02*
X11785000Y-9206627D01*
X11885000Y-9156627D02*
G75*
G02*
X11785000Y-9156627I-50000J0D01*
G01*
X11785000Y-9156627D02*
G75*
G02*
X11885000Y-9156627I50000J0D01*
G01*
X11785000Y-9360627D02*
X11885000Y-9460627D01*
X11885000Y-9360627D02*
X11785000Y-9460627D01*
X11885000Y-9410627D02*
G75*
G02*
X11785000Y-9410627I-50000J0D01*
G01*
X11785000Y-9410627D02*
G75*
G02*
X11885000Y-9410627I50000J0D01*
G01*
X12799704Y-11184577D02*
X12899704Y-11284577D01*
X12899704Y-11184577D02*
X12799704Y-11284577D01*
X12899704Y-11234577D02*
G75*
G02*
X12799704Y-11234577I-50000J0D01*
G01*
X12799704Y-11234577D02*
G75*
G02*
X12899704Y-11234577I50000J0D01*
G01*
X12799704Y-12984577D02*
X12899704Y-13084577D01*
X12899704Y-12984577D02*
X12799704Y-13084577D01*
X12899704Y-13034577D02*
G75*
G02*
X12799704Y-13034577I-50000J0D01*
G01*
X12799704Y-13034577D02*
G75*
G02*
X12899704Y-13034577I50000J0D01*
G01*
X15571000Y-7344000D02*
X15671000Y-7444000D01*
X15671000Y-7344000D02*
X15571000Y-7444000D01*
X15671000Y-7394000D02*
G75*
G02*
X15571000Y-7394000I-50000J0D01*
G01*
X15571000Y-7394000D02*
G75*
G02*
X15671000Y-7394000I50000J0D01*
G01*
X15825000Y-7344000D02*
X15925000Y-7444000D01*
X15925000Y-7344000D02*
X15825000Y-7444000D01*
X15925000Y-7394000D02*
G75*
G02*
X15825000Y-7394000I-50000J0D01*
G01*
X15825000Y-7394000D02*
G75*
G02*
X15925000Y-7394000I50000J0D01*
G01*
X16079000Y-7344000D02*
X16179000Y-7444000D01*
X16179000Y-7344000D02*
X16079000Y-7444000D01*
X16179000Y-7394000D02*
G75*
G02*
X16079000Y-7394000I-50000J0D01*
G01*
X16079000Y-7394000D02*
G75*
G02*
X16179000Y-7394000I50000J0D01*
G01*
X16159704Y-11784577D02*
X16259704Y-11884577D01*
X16259704Y-11784577D02*
X16159704Y-11884577D01*
X16259704Y-11834577D02*
G75*
G02*
X16159704Y-11834577I-50000J0D01*
G01*
X16159704Y-11834577D02*
G75*
G02*
X16259704Y-11834577I50000J0D01*
G01*
X16159704Y-12384577D02*
X16259704Y-12484577D01*
X16259704Y-12384577D02*
X16159704Y-12484577D01*
X16259704Y-12434577D02*
G75*
G02*
X16159704Y-12434577I-50000J0D01*
G01*
X16159704Y-12434577D02*
G75*
G02*
X16259704Y-12434577I50000J0D01*
G01*
X16333000Y-7344000D02*
X16433000Y-7444000D01*
X16433000Y-7344000D02*
X16333000Y-7444000D01*
X16433000Y-7394000D02*
G75*
G02*
X16333000Y-7394000I-50000J0D01*
G01*
X16333000Y-7394000D02*
G75*
G02*
X16433000Y-7394000I50000J0D01*
G01*
X16587000Y-7344000D02*
X16687000Y-7444000D01*
X16687000Y-7344000D02*
X16587000Y-7444000D01*
X16687000Y-7394000D02*
G75*
G02*
X16587000Y-7394000I-50000J0D01*
G01*
X16587000Y-7394000D02*
G75*
G02*
X16687000Y-7394000I50000J0D01*
G01*
X17149000Y-7219500D02*
X17249000Y-7319500D01*
X17249000Y-7219500D02*
X17149000Y-7319500D01*
X17249000Y-7269500D02*
G75*
G02*
X17149000Y-7269500I-50000J0D01*
G01*
X17149000Y-7269500D02*
G75*
G02*
X17249000Y-7269500I50000J0D01*
G01*
X17149000Y-7473500D02*
X17249000Y-7573500D01*
X17249000Y-7473500D02*
X17149000Y-7573500D01*
X17249000Y-7523500D02*
G75*
G02*
X17149000Y-7523500I-50000J0D01*
G01*
X17149000Y-7523500D02*
G75*
G02*
X17249000Y-7523500I50000J0D01*
G01*
X17149000Y-7727500D02*
X17249000Y-7827500D01*
X17249000Y-7727500D02*
X17149000Y-7827500D01*
X17249000Y-7777500D02*
G75*
G02*
X17149000Y-7777500I-50000J0D01*
G01*
X17149000Y-7777500D02*
G75*
G02*
X17249000Y-7777500I50000J0D01*
G01*
X17151000Y-8199500D02*
X17251000Y-8299500D01*
X17251000Y-8199500D02*
X17151000Y-8299500D01*
X17251000Y-8249500D02*
G75*
G02*
X17151000Y-8249500I-50000J0D01*
G01*
X17151000Y-8249500D02*
G75*
G02*
X17251000Y-8249500I50000J0D01*
G01*
X17151000Y-8453500D02*
X17251000Y-8553500D01*
X17251000Y-8453500D02*
X17151000Y-8553500D01*
X17251000Y-8503500D02*
G75*
G02*
X17151000Y-8503500I-50000J0D01*
G01*
X17151000Y-8503500D02*
G75*
G02*
X17251000Y-8503500I50000J0D01*
G01*
D13*
X13519000Y-5362000D02*
X13624000Y-5467000D01*
X13624000Y-5362000D02*
X13519000Y-5467000D01*
X13571500Y-5362000D02*
X13571500Y-5467000D01*
X13519000Y-5414500D02*
X13624000Y-5414500D01*
X14519000Y-5362000D02*
X14624000Y-5467000D01*
X14624000Y-5362000D02*
X14519000Y-5467000D01*
X14571500Y-5362000D02*
X14571500Y-5467000D01*
X14519000Y-5414500D02*
X14624000Y-5414500D01*
X15019000Y-5679500D02*
X15124000Y-5784500D01*
X15124000Y-5679500D02*
X15019000Y-5784500D01*
X15071500Y-5679500D02*
X15071500Y-5784500D01*
X15019000Y-5732000D02*
X15124000Y-5732000D01*
X15019000Y-6219500D02*
X15124000Y-6324500D01*
X15124000Y-6219500D02*
X15019000Y-6324500D01*
X15071500Y-6219500D02*
X15071500Y-6324500D01*
X15019000Y-6272000D02*
X15124000Y-6272000D01*
X15019000Y-6787000D02*
X15124000Y-6892000D01*
X15124000Y-6787000D02*
X15019000Y-6892000D01*
X15071500Y-6787000D02*
X15071500Y-6892000D01*
X15019000Y-6839500D02*
X15124000Y-6839500D01*
X15519000Y-5362000D02*
X15624000Y-5467000D01*
X15624000Y-5362000D02*
X15519000Y-5467000D01*
X15571500Y-5362000D02*
X15571500Y-5467000D01*
X15519000Y-5414500D02*
X15624000Y-5414500D01*
X16019000Y-6787000D02*
X16124000Y-6892000D01*
X16124000Y-6787000D02*
X16019000Y-6892000D01*
X16071500Y-6787000D02*
X16071500Y-6892000D01*
X16019000Y-6839500D02*
X16124000Y-6839500D01*
X16519000Y-5362000D02*
X16624000Y-5467000D01*
X16624000Y-5362000D02*
X16519000Y-5467000D01*
X16571500Y-5362000D02*
X16571500Y-5467000D01*
X16519000Y-5414500D02*
X16624000Y-5414500D01*
X17019000Y-5929500D02*
X17124000Y-6034500D01*
X17124000Y-5929500D02*
X17019000Y-6034500D01*
X17071500Y-5929500D02*
X17071500Y-6034500D01*
X17019000Y-5982000D02*
X17124000Y-5982000D01*
X17019000Y-6787000D02*
X17124000Y-6892000D01*
X17124000Y-6787000D02*
X17019000Y-6892000D01*
X17071500Y-6787000D02*
X17071500Y-6892000D01*
X17019000Y-6839500D02*
X17124000Y-6839500D01*
D14*
X11936954Y-11067827D02*
X12066954Y-11197827D01*
X12066954Y-11067827D02*
X11936954Y-11197827D01*
X12047916Y-11178789D02*
X12047916Y-11086864D01*
X11955991Y-11086864D01*
X11955991Y-11178789D01*
X12047916Y-11178789D01*
X11936954Y-11567827D02*
X12066954Y-11697827D01*
X12066954Y-11567827D02*
X11936954Y-11697827D01*
X12047916Y-11678789D02*
X12047916Y-11586864D01*
X11955991Y-11586864D01*
X11955991Y-11678789D01*
X12047916Y-11678789D01*
X17005054Y-11251160D02*
X17135054Y-11381160D01*
X17135054Y-11251160D02*
X17005054Y-11381160D01*
X17116016Y-11362122D02*
X17116016Y-11270198D01*
X17024091Y-11270198D01*
X17024091Y-11362122D01*
X17116016Y-11362122D01*
X17005054Y-11751160D02*
X17135054Y-11881160D01*
X17135054Y-11751160D02*
X17005054Y-11881160D01*
X17116016Y-11862122D02*
X17116016Y-11770198D01*
X17024091Y-11770198D01*
X17024091Y-11862122D01*
X17116016Y-11862122D01*
X17005054Y-12251160D02*
X17135054Y-12381160D01*
X17135054Y-12251160D02*
X17005054Y-12381160D01*
X17116016Y-12362122D02*
X17116016Y-12270198D01*
X17024091Y-12270198D01*
X17024091Y-12362122D01*
X17116016Y-12362122D01*
D15*
X11870953Y-13036823D02*
X12190953Y-13356823D01*
X12190953Y-13036823D02*
X11870953Y-13356823D01*
X12030953Y-13356823D02*
X12190953Y-13196823D01*
X12030953Y-13036823D01*
X11870953Y-13196823D01*
X12030953Y-13356823D01*
X11875554Y-5434127D02*
X12195554Y-5754127D01*
X12195554Y-5434127D02*
X11875554Y-5754127D01*
X12035554Y-5754127D02*
X12195554Y-5594127D01*
X12035554Y-5434127D01*
X11875554Y-5594127D01*
X12035554Y-5754127D01*
D11*
X11771730Y-14028310D02*
X11771730Y-13828310D01*
X11771730Y-13828310D02*
X11819349Y-13828310D01*
X11819349Y-13828310D02*
X11847921Y-13837834D01*
X11847921Y-13837834D02*
X11866968Y-13856882D01*
X11866968Y-13856882D02*
X11876492Y-13875929D01*
X11876492Y-13875929D02*
X11886016Y-13914025D01*
X11886016Y-13914025D02*
X11886016Y-13942596D01*
X11886016Y-13942596D02*
X11876492Y-13980691D01*
X11876492Y-13980691D02*
X11866968Y-13999739D01*
X11866968Y-13999739D02*
X11847921Y-14018787D01*
X11847921Y-14018787D02*
X11819349Y-14028310D01*
X11819349Y-14028310D02*
X11771730Y-14028310D01*
X11971730Y-14028310D02*
X11971730Y-13894977D01*
X11971730Y-13933072D02*
X11981254Y-13914025D01*
X11981254Y-13914025D02*
X11990778Y-13904501D01*
X11990778Y-13904501D02*
X12009825Y-13894977D01*
X12009825Y-13894977D02*
X12028873Y-13894977D01*
X12095540Y-14028310D02*
X12095540Y-13894977D01*
X12095540Y-13828310D02*
X12086016Y-13837834D01*
X12086016Y-13837834D02*
X12095540Y-13847358D01*
X12095540Y-13847358D02*
X12105063Y-13837834D01*
X12105063Y-13837834D02*
X12095540Y-13828310D01*
X12095540Y-13828310D02*
X12095540Y-13847358D01*
X12219349Y-14028310D02*
X12200302Y-14018787D01*
X12200302Y-14018787D02*
X12190778Y-13999739D01*
X12190778Y-13999739D02*
X12190778Y-13828310D01*
X12324111Y-14028310D02*
X12305063Y-14018787D01*
X12305063Y-14018787D02*
X12295540Y-13999739D01*
X12295540Y-13999739D02*
X12295540Y-13828310D01*
X12552683Y-14028310D02*
X12552683Y-13828310D01*
X12552683Y-13828310D02*
X12619349Y-13971167D01*
X12619349Y-13971167D02*
X12686016Y-13828310D01*
X12686016Y-13828310D02*
X12686016Y-14028310D01*
X12866968Y-14028310D02*
X12866968Y-13923548D01*
X12866968Y-13923548D02*
X12857444Y-13904501D01*
X12857444Y-13904501D02*
X12838397Y-13894977D01*
X12838397Y-13894977D02*
X12800302Y-13894977D01*
X12800302Y-13894977D02*
X12781254Y-13904501D01*
X12866968Y-14018787D02*
X12847921Y-14028310D01*
X12847921Y-14028310D02*
X12800302Y-14028310D01*
X12800302Y-14028310D02*
X12781254Y-14018787D01*
X12781254Y-14018787D02*
X12771730Y-13999739D01*
X12771730Y-13999739D02*
X12771730Y-13980691D01*
X12771730Y-13980691D02*
X12781254Y-13961644D01*
X12781254Y-13961644D02*
X12800302Y-13952120D01*
X12800302Y-13952120D02*
X12847921Y-13952120D01*
X12847921Y-13952120D02*
X12866968Y-13942596D01*
X12962206Y-13894977D02*
X12962206Y-14094977D01*
X12962206Y-13904501D02*
X12981254Y-13894977D01*
X12981254Y-13894977D02*
X13019349Y-13894977D01*
X13019349Y-13894977D02*
X13038397Y-13904501D01*
X13038397Y-13904501D02*
X13047921Y-13914025D01*
X13047921Y-13914025D02*
X13057444Y-13933072D01*
X13057444Y-13933072D02*
X13057444Y-13990215D01*
X13057444Y-13990215D02*
X13047921Y-14009263D01*
X13047921Y-14009263D02*
X13038397Y-14018787D01*
X13038397Y-14018787D02*
X13019349Y-14028310D01*
X13019349Y-14028310D02*
X12981254Y-14028310D01*
X12981254Y-14028310D02*
X12962206Y-14018787D01*
X13143159Y-14009263D02*
X13152683Y-14018787D01*
X13152683Y-14018787D02*
X13143159Y-14028310D01*
X13143159Y-14028310D02*
X13133635Y-14018787D01*
X13133635Y-14018787D02*
X13143159Y-14009263D01*
X13143159Y-14009263D02*
X13143159Y-14028310D01*
X13143159Y-13904501D02*
X13152683Y-13914025D01*
X13152683Y-13914025D02*
X13143159Y-13923548D01*
X13143159Y-13923548D02*
X13133635Y-13914025D01*
X13133635Y-13914025D02*
X13143159Y-13904501D01*
X13143159Y-13904501D02*
X13143159Y-13923548D01*
D12*
X11480953Y-14341827D02*
X11510953Y-14371827D01*
X11510953Y-14341827D02*
X11480953Y-14371827D01*
D11*
X11809825Y-14248310D02*
X11828873Y-14248310D01*
X11828873Y-14248310D02*
X11847921Y-14257834D01*
X11847921Y-14257834D02*
X11857444Y-14267358D01*
X11857444Y-14267358D02*
X11866968Y-14286406D01*
X11866968Y-14286406D02*
X11876492Y-14324501D01*
X11876492Y-14324501D02*
X11876492Y-14372120D01*
X11876492Y-14372120D02*
X11866968Y-14410215D01*
X11866968Y-14410215D02*
X11857444Y-14429263D01*
X11857444Y-14429263D02*
X11847921Y-14438787D01*
X11847921Y-14438787D02*
X11828873Y-14448310D01*
X11828873Y-14448310D02*
X11809825Y-14448310D01*
X11809825Y-14448310D02*
X11790778Y-14438787D01*
X11790778Y-14438787D02*
X11781254Y-14429263D01*
X11781254Y-14429263D02*
X11771730Y-14410215D01*
X11771730Y-14410215D02*
X11762206Y-14372120D01*
X11762206Y-14372120D02*
X11762206Y-14324501D01*
X11762206Y-14324501D02*
X11771730Y-14286406D01*
X11771730Y-14286406D02*
X11781254Y-14267358D01*
X11781254Y-14267358D02*
X11790778Y-14257834D01*
X11790778Y-14257834D02*
X11809825Y-14248310D01*
X11962206Y-14429263D02*
X11971730Y-14438787D01*
X11971730Y-14438787D02*
X11962206Y-14448310D01*
X11962206Y-14448310D02*
X11952683Y-14438787D01*
X11952683Y-14438787D02*
X11962206Y-14429263D01*
X11962206Y-14429263D02*
X11962206Y-14448310D01*
X12038397Y-14248310D02*
X12162206Y-14248310D01*
X12162206Y-14248310D02*
X12095540Y-14324501D01*
X12095540Y-14324501D02*
X12124111Y-14324501D01*
X12124111Y-14324501D02*
X12143159Y-14334025D01*
X12143159Y-14334025D02*
X12152683Y-14343548D01*
X12152683Y-14343548D02*
X12162206Y-14362596D01*
X12162206Y-14362596D02*
X12162206Y-14410215D01*
X12162206Y-14410215D02*
X12152683Y-14429263D01*
X12152683Y-14429263D02*
X12143159Y-14438787D01*
X12143159Y-14438787D02*
X12124111Y-14448310D01*
X12124111Y-14448310D02*
X12066968Y-14448310D01*
X12066968Y-14448310D02*
X12047921Y-14438787D01*
X12047921Y-14438787D02*
X12038397Y-14429263D01*
X12286016Y-14248310D02*
X12305064Y-14248310D01*
X12305064Y-14248310D02*
X12324111Y-14257834D01*
X12324111Y-14257834D02*
X12333635Y-14267358D01*
X12333635Y-14267358D02*
X12343159Y-14286406D01*
X12343159Y-14286406D02*
X12352683Y-14324501D01*
X12352683Y-14324501D02*
X12352683Y-14372120D01*
X12352683Y-14372120D02*
X12343159Y-14410215D01*
X12343159Y-14410215D02*
X12333635Y-14429263D01*
X12333635Y-14429263D02*
X12324111Y-14438787D01*
X12324111Y-14438787D02*
X12305064Y-14448310D01*
X12305064Y-14448310D02*
X12286016Y-14448310D01*
X12286016Y-14448310D02*
X12266968Y-14438787D01*
X12266968Y-14438787D02*
X12257444Y-14429263D01*
X12257444Y-14429263D02*
X12247921Y-14410215D01*
X12247921Y-14410215D02*
X12238397Y-14372120D01*
X12238397Y-14372120D02*
X12238397Y-14324501D01*
X12238397Y-14324501D02*
X12247921Y-14286406D01*
X12247921Y-14286406D02*
X12257444Y-14267358D01*
X12257444Y-14267358D02*
X12266968Y-14257834D01*
X12266968Y-14257834D02*
X12286016Y-14248310D01*
X12476492Y-14248310D02*
X12495540Y-14248310D01*
X12495540Y-14248310D02*
X12514587Y-14257834D01*
X12514587Y-14257834D02*
X12524111Y-14267358D01*
X12524111Y-14267358D02*
X12533635Y-14286406D01*
X12533635Y-14286406D02*
X12543159Y-14324501D01*
X12543159Y-14324501D02*
X12543159Y-14372120D01*
X12543159Y-14372120D02*
X12533635Y-14410215D01*
X12533635Y-14410215D02*
X12524111Y-14429263D01*
X12524111Y-14429263D02*
X12514587Y-14438787D01*
X12514587Y-14438787D02*
X12495540Y-14448310D01*
X12495540Y-14448310D02*
X12476492Y-14448310D01*
X12476492Y-14448310D02*
X12457444Y-14438787D01*
X12457444Y-14438787D02*
X12447921Y-14429263D01*
X12447921Y-14429263D02*
X12438397Y-14410215D01*
X12438397Y-14410215D02*
X12428873Y-14372120D01*
X12428873Y-14372120D02*
X12428873Y-14324501D01*
X12428873Y-14324501D02*
X12438397Y-14286406D01*
X12438397Y-14286406D02*
X12447921Y-14267358D01*
X12447921Y-14267358D02*
X12457444Y-14257834D01*
X12457444Y-14257834D02*
X12476492Y-14248310D01*
X12628873Y-14448310D02*
X12628873Y-14314977D01*
X12628873Y-14334025D02*
X12638397Y-14324501D01*
X12638397Y-14324501D02*
X12657444Y-14314977D01*
X12657444Y-14314977D02*
X12686016Y-14314977D01*
X12686016Y-14314977D02*
X12705064Y-14324501D01*
X12705064Y-14324501D02*
X12714587Y-14343548D01*
X12714587Y-14343548D02*
X12714587Y-14448310D01*
X12714587Y-14343548D02*
X12724111Y-14324501D01*
X12724111Y-14324501D02*
X12743159Y-14314977D01*
X12743159Y-14314977D02*
X12771730Y-14314977D01*
X12771730Y-14314977D02*
X12790778Y-14324501D01*
X12790778Y-14324501D02*
X12800302Y-14343548D01*
X12800302Y-14343548D02*
X12800302Y-14448310D01*
X12895540Y-14448310D02*
X12895540Y-14314977D01*
X12895540Y-14334025D02*
X12905064Y-14324501D01*
X12905064Y-14324501D02*
X12924111Y-14314977D01*
X12924111Y-14314977D02*
X12952683Y-14314977D01*
X12952683Y-14314977D02*
X12971730Y-14324501D01*
X12971730Y-14324501D02*
X12981254Y-14343548D01*
X12981254Y-14343548D02*
X12981254Y-14448310D01*
X12981254Y-14343548D02*
X12990778Y-14324501D01*
X12990778Y-14324501D02*
X13009825Y-14314977D01*
X13009825Y-14314977D02*
X13038397Y-14314977D01*
X13038397Y-14314977D02*
X13057445Y-14324501D01*
X13057445Y-14324501D02*
X13066968Y-14343548D01*
X13066968Y-14343548D02*
X13066968Y-14448310D01*
X13457445Y-14238787D02*
X13286016Y-14495929D01*
X13714587Y-14248310D02*
X13733635Y-14248310D01*
X13733635Y-14248310D02*
X13752683Y-14257834D01*
X13752683Y-14257834D02*
X13762207Y-14267358D01*
X13762207Y-14267358D02*
X13771730Y-14286406D01*
X13771730Y-14286406D02*
X13781254Y-14324501D01*
X13781254Y-14324501D02*
X13781254Y-14372120D01*
X13781254Y-14372120D02*
X13771730Y-14410215D01*
X13771730Y-14410215D02*
X13762207Y-14429263D01*
X13762207Y-14429263D02*
X13752683Y-14438787D01*
X13752683Y-14438787D02*
X13733635Y-14448310D01*
X13733635Y-14448310D02*
X13714587Y-14448310D01*
X13714587Y-14448310D02*
X13695540Y-14438787D01*
X13695540Y-14438787D02*
X13686016Y-14429263D01*
X13686016Y-14429263D02*
X13676492Y-14410215D01*
X13676492Y-14410215D02*
X13666968Y-14372120D01*
X13666968Y-14372120D02*
X13666968Y-14324501D01*
X13666968Y-14324501D02*
X13676492Y-14286406D01*
X13676492Y-14286406D02*
X13686016Y-14267358D01*
X13686016Y-14267358D02*
X13695540Y-14257834D01*
X13695540Y-14257834D02*
X13714587Y-14248310D01*
X13866968Y-14429263D02*
X13876492Y-14438787D01*
X13876492Y-14438787D02*
X13866968Y-14448310D01*
X13866968Y-14448310D02*
X13857445Y-14438787D01*
X13857445Y-14438787D02*
X13866968Y-14429263D01*
X13866968Y-14429263D02*
X13866968Y-14448310D01*
X14000302Y-14248310D02*
X14019349Y-14248310D01*
X14019349Y-14248310D02*
X14038397Y-14257834D01*
X14038397Y-14257834D02*
X14047921Y-14267358D01*
X14047921Y-14267358D02*
X14057445Y-14286406D01*
X14057445Y-14286406D02*
X14066968Y-14324501D01*
X14066968Y-14324501D02*
X14066968Y-14372120D01*
X14066968Y-14372120D02*
X14057445Y-14410215D01*
X14057445Y-14410215D02*
X14047921Y-14429263D01*
X14047921Y-14429263D02*
X14038397Y-14438787D01*
X14038397Y-14438787D02*
X14019349Y-14448310D01*
X14019349Y-14448310D02*
X14000302Y-14448310D01*
X14000302Y-14448310D02*
X13981254Y-14438787D01*
X13981254Y-14438787D02*
X13971730Y-14429263D01*
X13971730Y-14429263D02*
X13962207Y-14410215D01*
X13962207Y-14410215D02*
X13952683Y-14372120D01*
X13952683Y-14372120D02*
X13952683Y-14324501D01*
X13952683Y-14324501D02*
X13962207Y-14286406D01*
X13962207Y-14286406D02*
X13971730Y-14267358D01*
X13971730Y-14267358D02*
X13981254Y-14257834D01*
X13981254Y-14257834D02*
X14000302Y-14248310D01*
X14257445Y-14448310D02*
X14143159Y-14448310D01*
X14200302Y-14448310D02*
X14200302Y-14248310D01*
X14200302Y-14248310D02*
X14181254Y-14276882D01*
X14181254Y-14276882D02*
X14162207Y-14295929D01*
X14162207Y-14295929D02*
X14143159Y-14305453D01*
X14447921Y-14448310D02*
X14333635Y-14448310D01*
X14390778Y-14448310D02*
X14390778Y-14248310D01*
X14390778Y-14248310D02*
X14371730Y-14276882D01*
X14371730Y-14276882D02*
X14352683Y-14295929D01*
X14352683Y-14295929D02*
X14333635Y-14305453D01*
X14562207Y-14334025D02*
X14543159Y-14324501D01*
X14543159Y-14324501D02*
X14533635Y-14314977D01*
X14533635Y-14314977D02*
X14524111Y-14295929D01*
X14524111Y-14295929D02*
X14524111Y-14286406D01*
X14524111Y-14286406D02*
X14533635Y-14267358D01*
X14533635Y-14267358D02*
X14543159Y-14257834D01*
X14543159Y-14257834D02*
X14562207Y-14248310D01*
X14562207Y-14248310D02*
X14600302Y-14248310D01*
X14600302Y-14248310D02*
X14619349Y-14257834D01*
X14619349Y-14257834D02*
X14628873Y-14267358D01*
X14628873Y-14267358D02*
X14638397Y-14286406D01*
X14638397Y-14286406D02*
X14638397Y-14295929D01*
X14638397Y-14295929D02*
X14628873Y-14314977D01*
X14628873Y-14314977D02*
X14619349Y-14324501D01*
X14619349Y-14324501D02*
X14600302Y-14334025D01*
X14600302Y-14334025D02*
X14562207Y-14334025D01*
X14562207Y-14334025D02*
X14543159Y-14343548D01*
X14543159Y-14343548D02*
X14533635Y-14353072D01*
X14533635Y-14353072D02*
X14524111Y-14372120D01*
X14524111Y-14372120D02*
X14524111Y-14410215D01*
X14524111Y-14410215D02*
X14533635Y-14429263D01*
X14533635Y-14429263D02*
X14543159Y-14438787D01*
X14543159Y-14438787D02*
X14562207Y-14448310D01*
X14562207Y-14448310D02*
X14600302Y-14448310D01*
X14600302Y-14448310D02*
X14619349Y-14438787D01*
X14619349Y-14438787D02*
X14628873Y-14429263D01*
X14628873Y-14429263D02*
X14638397Y-14410215D01*
X14638397Y-14410215D02*
X14638397Y-14372120D01*
X14638397Y-14372120D02*
X14628873Y-14353072D01*
X14628873Y-14353072D02*
X14619349Y-14343548D01*
X14619349Y-14343548D02*
X14600302Y-14334025D01*
X14714588Y-14248310D02*
X14714588Y-14286406D01*
X14790778Y-14248310D02*
X14790778Y-14286406D01*
X15086016Y-14524501D02*
X15076492Y-14514977D01*
X15076492Y-14514977D02*
X15057445Y-14486406D01*
X15057445Y-14486406D02*
X15047921Y-14467358D01*
X15047921Y-14467358D02*
X15038397Y-14438787D01*
X15038397Y-14438787D02*
X15028873Y-14391167D01*
X15028873Y-14391167D02*
X15028873Y-14353072D01*
X15028873Y-14353072D02*
X15038397Y-14305453D01*
X15038397Y-14305453D02*
X15047921Y-14276882D01*
X15047921Y-14276882D02*
X15057445Y-14257834D01*
X15057445Y-14257834D02*
X15076492Y-14229263D01*
X15076492Y-14229263D02*
X15086016Y-14219739D01*
X15152683Y-14267358D02*
X15162207Y-14257834D01*
X15162207Y-14257834D02*
X15181254Y-14248310D01*
X15181254Y-14248310D02*
X15228873Y-14248310D01*
X15228873Y-14248310D02*
X15247921Y-14257834D01*
X15247921Y-14257834D02*
X15257445Y-14267358D01*
X15257445Y-14267358D02*
X15266969Y-14286406D01*
X15266969Y-14286406D02*
X15266969Y-14305453D01*
X15266969Y-14305453D02*
X15257445Y-14334025D01*
X15257445Y-14334025D02*
X15143159Y-14448310D01*
X15143159Y-14448310D02*
X15266969Y-14448310D01*
X15438397Y-14314977D02*
X15438397Y-14448310D01*
X15390778Y-14238787D02*
X15343159Y-14381644D01*
X15343159Y-14381644D02*
X15466969Y-14381644D01*
X15628873Y-14248310D02*
X15590778Y-14248310D01*
X15590778Y-14248310D02*
X15571730Y-14257834D01*
X15571730Y-14257834D02*
X15562207Y-14267358D01*
X15562207Y-14267358D02*
X15543159Y-14295929D01*
X15543159Y-14295929D02*
X15533635Y-14334025D01*
X15533635Y-14334025D02*
X15533635Y-14410215D01*
X15533635Y-14410215D02*
X15543159Y-14429263D01*
X15543159Y-14429263D02*
X15552683Y-14438787D01*
X15552683Y-14438787D02*
X15571730Y-14448310D01*
X15571730Y-14448310D02*
X15609826Y-14448310D01*
X15609826Y-14448310D02*
X15628873Y-14438787D01*
X15628873Y-14438787D02*
X15638397Y-14429263D01*
X15638397Y-14429263D02*
X15647921Y-14410215D01*
X15647921Y-14410215D02*
X15647921Y-14362596D01*
X15647921Y-14362596D02*
X15638397Y-14343548D01*
X15638397Y-14343548D02*
X15628873Y-14334025D01*
X15628873Y-14334025D02*
X15609826Y-14324501D01*
X15609826Y-14324501D02*
X15571730Y-14324501D01*
X15571730Y-14324501D02*
X15552683Y-14334025D01*
X15552683Y-14334025D02*
X15543159Y-14343548D01*
X15543159Y-14343548D02*
X15533635Y-14362596D01*
X15886016Y-14448310D02*
X15886016Y-14248310D01*
X15971731Y-14448310D02*
X15971731Y-14343548D01*
X15971731Y-14343548D02*
X15962207Y-14324501D01*
X15962207Y-14324501D02*
X15943159Y-14314977D01*
X15943159Y-14314977D02*
X15914588Y-14314977D01*
X15914588Y-14314977D02*
X15895540Y-14324501D01*
X15895540Y-14324501D02*
X15886016Y-14334025D01*
X16095540Y-14448310D02*
X16076492Y-14438787D01*
X16076492Y-14438787D02*
X16066969Y-14429263D01*
X16066969Y-14429263D02*
X16057445Y-14410215D01*
X16057445Y-14410215D02*
X16057445Y-14353072D01*
X16057445Y-14353072D02*
X16066969Y-14334025D01*
X16066969Y-14334025D02*
X16076492Y-14324501D01*
X16076492Y-14324501D02*
X16095540Y-14314977D01*
X16095540Y-14314977D02*
X16124112Y-14314977D01*
X16124112Y-14314977D02*
X16143159Y-14324501D01*
X16143159Y-14324501D02*
X16152683Y-14334025D01*
X16152683Y-14334025D02*
X16162207Y-14353072D01*
X16162207Y-14353072D02*
X16162207Y-14410215D01*
X16162207Y-14410215D02*
X16152683Y-14429263D01*
X16152683Y-14429263D02*
X16143159Y-14438787D01*
X16143159Y-14438787D02*
X16124112Y-14448310D01*
X16124112Y-14448310D02*
X16095540Y-14448310D01*
X16276492Y-14448310D02*
X16257445Y-14438787D01*
X16257445Y-14438787D02*
X16247921Y-14419739D01*
X16247921Y-14419739D02*
X16247921Y-14248310D01*
X16428873Y-14438787D02*
X16409826Y-14448310D01*
X16409826Y-14448310D02*
X16371731Y-14448310D01*
X16371731Y-14448310D02*
X16352683Y-14438787D01*
X16352683Y-14438787D02*
X16343159Y-14419739D01*
X16343159Y-14419739D02*
X16343159Y-14343548D01*
X16343159Y-14343548D02*
X16352683Y-14324501D01*
X16352683Y-14324501D02*
X16371731Y-14314977D01*
X16371731Y-14314977D02*
X16409826Y-14314977D01*
X16409826Y-14314977D02*
X16428873Y-14324501D01*
X16428873Y-14324501D02*
X16438397Y-14343548D01*
X16438397Y-14343548D02*
X16438397Y-14362596D01*
X16438397Y-14362596D02*
X16343159Y-14381644D01*
X16514588Y-14438787D02*
X16533635Y-14448310D01*
X16533635Y-14448310D02*
X16571731Y-14448310D01*
X16571731Y-14448310D02*
X16590778Y-14438787D01*
X16590778Y-14438787D02*
X16600302Y-14419739D01*
X16600302Y-14419739D02*
X16600302Y-14410215D01*
X16600302Y-14410215D02*
X16590778Y-14391167D01*
X16590778Y-14391167D02*
X16571731Y-14381644D01*
X16571731Y-14381644D02*
X16543159Y-14381644D01*
X16543159Y-14381644D02*
X16524112Y-14372120D01*
X16524112Y-14372120D02*
X16514588Y-14353072D01*
X16514588Y-14353072D02*
X16514588Y-14343548D01*
X16514588Y-14343548D02*
X16524112Y-14324501D01*
X16524112Y-14324501D02*
X16543159Y-14314977D01*
X16543159Y-14314977D02*
X16571731Y-14314977D01*
X16571731Y-14314977D02*
X16590778Y-14324501D01*
X16666969Y-14524501D02*
X16676493Y-14514977D01*
X16676493Y-14514977D02*
X16695540Y-14486406D01*
X16695540Y-14486406D02*
X16705064Y-14467358D01*
X16705064Y-14467358D02*
X16714588Y-14438787D01*
X16714588Y-14438787D02*
X16724112Y-14391167D01*
X16724112Y-14391167D02*
X16724112Y-14353072D01*
X16724112Y-14353072D02*
X16714588Y-14305453D01*
X16714588Y-14305453D02*
X16705064Y-14276882D01*
X16705064Y-14276882D02*
X16695540Y-14257834D01*
X16695540Y-14257834D02*
X16676493Y-14229263D01*
X16676493Y-14229263D02*
X16666969Y-14219739D01*
D12*
X11510953Y-14620827D02*
G75*
G02*
X11440953Y-14620827I-35000J0D01*
G01*
X11440953Y-14620827D02*
G75*
G02*
X11510953Y-14620827I35000J0D01*
G01*
D11*
X11809825Y-14512310D02*
X11828873Y-14512310D01*
X11828873Y-14512310D02*
X11847921Y-14521834D01*
X11847921Y-14521834D02*
X11857444Y-14531358D01*
X11857444Y-14531358D02*
X11866968Y-14550406D01*
X11866968Y-14550406D02*
X11876492Y-14588501D01*
X11876492Y-14588501D02*
X11876492Y-14636120D01*
X11876492Y-14636120D02*
X11866968Y-14674215D01*
X11866968Y-14674215D02*
X11857444Y-14693263D01*
X11857444Y-14693263D02*
X11847921Y-14702787D01*
X11847921Y-14702787D02*
X11828873Y-14712310D01*
X11828873Y-14712310D02*
X11809825Y-14712310D01*
X11809825Y-14712310D02*
X11790778Y-14702787D01*
X11790778Y-14702787D02*
X11781254Y-14693263D01*
X11781254Y-14693263D02*
X11771730Y-14674215D01*
X11771730Y-14674215D02*
X11762206Y-14636120D01*
X11762206Y-14636120D02*
X11762206Y-14588501D01*
X11762206Y-14588501D02*
X11771730Y-14550406D01*
X11771730Y-14550406D02*
X11781254Y-14531358D01*
X11781254Y-14531358D02*
X11790778Y-14521834D01*
X11790778Y-14521834D02*
X11809825Y-14512310D01*
X11962206Y-14693263D02*
X11971730Y-14702787D01*
X11971730Y-14702787D02*
X11962206Y-14712310D01*
X11962206Y-14712310D02*
X11952683Y-14702787D01*
X11952683Y-14702787D02*
X11962206Y-14693263D01*
X11962206Y-14693263D02*
X11962206Y-14712310D01*
X12038397Y-14512310D02*
X12171730Y-14512310D01*
X12171730Y-14512310D02*
X12086016Y-14712310D01*
X12286016Y-14512310D02*
X12305064Y-14512310D01*
X12305064Y-14512310D02*
X12324111Y-14521834D01*
X12324111Y-14521834D02*
X12333635Y-14531358D01*
X12333635Y-14531358D02*
X12343159Y-14550406D01*
X12343159Y-14550406D02*
X12352683Y-14588501D01*
X12352683Y-14588501D02*
X12352683Y-14636120D01*
X12352683Y-14636120D02*
X12343159Y-14674215D01*
X12343159Y-14674215D02*
X12333635Y-14693263D01*
X12333635Y-14693263D02*
X12324111Y-14702787D01*
X12324111Y-14702787D02*
X12305064Y-14712310D01*
X12305064Y-14712310D02*
X12286016Y-14712310D01*
X12286016Y-14712310D02*
X12266968Y-14702787D01*
X12266968Y-14702787D02*
X12257444Y-14693263D01*
X12257444Y-14693263D02*
X12247921Y-14674215D01*
X12247921Y-14674215D02*
X12238397Y-14636120D01*
X12238397Y-14636120D02*
X12238397Y-14588501D01*
X12238397Y-14588501D02*
X12247921Y-14550406D01*
X12247921Y-14550406D02*
X12257444Y-14531358D01*
X12257444Y-14531358D02*
X12266968Y-14521834D01*
X12266968Y-14521834D02*
X12286016Y-14512310D01*
X12476492Y-14512310D02*
X12495540Y-14512310D01*
X12495540Y-14512310D02*
X12514587Y-14521834D01*
X12514587Y-14521834D02*
X12524111Y-14531358D01*
X12524111Y-14531358D02*
X12533635Y-14550406D01*
X12533635Y-14550406D02*
X12543159Y-14588501D01*
X12543159Y-14588501D02*
X12543159Y-14636120D01*
X12543159Y-14636120D02*
X12533635Y-14674215D01*
X12533635Y-14674215D02*
X12524111Y-14693263D01*
X12524111Y-14693263D02*
X12514587Y-14702787D01*
X12514587Y-14702787D02*
X12495540Y-14712310D01*
X12495540Y-14712310D02*
X12476492Y-14712310D01*
X12476492Y-14712310D02*
X12457444Y-14702787D01*
X12457444Y-14702787D02*
X12447921Y-14693263D01*
X12447921Y-14693263D02*
X12438397Y-14674215D01*
X12438397Y-14674215D02*
X12428873Y-14636120D01*
X12428873Y-14636120D02*
X12428873Y-14588501D01*
X12428873Y-14588501D02*
X12438397Y-14550406D01*
X12438397Y-14550406D02*
X12447921Y-14531358D01*
X12447921Y-14531358D02*
X12457444Y-14521834D01*
X12457444Y-14521834D02*
X12476492Y-14512310D01*
X12628873Y-14712310D02*
X12628873Y-14578977D01*
X12628873Y-14598025D02*
X12638397Y-14588501D01*
X12638397Y-14588501D02*
X12657444Y-14578977D01*
X12657444Y-14578977D02*
X12686016Y-14578977D01*
X12686016Y-14578977D02*
X12705064Y-14588501D01*
X12705064Y-14588501D02*
X12714587Y-14607548D01*
X12714587Y-14607548D02*
X12714587Y-14712310D01*
X12714587Y-14607548D02*
X12724111Y-14588501D01*
X12724111Y-14588501D02*
X12743159Y-14578977D01*
X12743159Y-14578977D02*
X12771730Y-14578977D01*
X12771730Y-14578977D02*
X12790778Y-14588501D01*
X12790778Y-14588501D02*
X12800302Y-14607548D01*
X12800302Y-14607548D02*
X12800302Y-14712310D01*
X12895540Y-14712310D02*
X12895540Y-14578977D01*
X12895540Y-14598025D02*
X12905064Y-14588501D01*
X12905064Y-14588501D02*
X12924111Y-14578977D01*
X12924111Y-14578977D02*
X12952683Y-14578977D01*
X12952683Y-14578977D02*
X12971730Y-14588501D01*
X12971730Y-14588501D02*
X12981254Y-14607548D01*
X12981254Y-14607548D02*
X12981254Y-14712310D01*
X12981254Y-14607548D02*
X12990778Y-14588501D01*
X12990778Y-14588501D02*
X13009825Y-14578977D01*
X13009825Y-14578977D02*
X13038397Y-14578977D01*
X13038397Y-14578977D02*
X13057445Y-14588501D01*
X13057445Y-14588501D02*
X13066968Y-14607548D01*
X13066968Y-14607548D02*
X13066968Y-14712310D01*
X13457445Y-14502787D02*
X13286016Y-14759929D01*
X13714587Y-14512310D02*
X13733635Y-14512310D01*
X13733635Y-14512310D02*
X13752683Y-14521834D01*
X13752683Y-14521834D02*
X13762207Y-14531358D01*
X13762207Y-14531358D02*
X13771730Y-14550406D01*
X13771730Y-14550406D02*
X13781254Y-14588501D01*
X13781254Y-14588501D02*
X13781254Y-14636120D01*
X13781254Y-14636120D02*
X13771730Y-14674215D01*
X13771730Y-14674215D02*
X13762207Y-14693263D01*
X13762207Y-14693263D02*
X13752683Y-14702787D01*
X13752683Y-14702787D02*
X13733635Y-14712310D01*
X13733635Y-14712310D02*
X13714587Y-14712310D01*
X13714587Y-14712310D02*
X13695540Y-14702787D01*
X13695540Y-14702787D02*
X13686016Y-14693263D01*
X13686016Y-14693263D02*
X13676492Y-14674215D01*
X13676492Y-14674215D02*
X13666968Y-14636120D01*
X13666968Y-14636120D02*
X13666968Y-14588501D01*
X13666968Y-14588501D02*
X13676492Y-14550406D01*
X13676492Y-14550406D02*
X13686016Y-14531358D01*
X13686016Y-14531358D02*
X13695540Y-14521834D01*
X13695540Y-14521834D02*
X13714587Y-14512310D01*
X13866968Y-14693263D02*
X13876492Y-14702787D01*
X13876492Y-14702787D02*
X13866968Y-14712310D01*
X13866968Y-14712310D02*
X13857445Y-14702787D01*
X13857445Y-14702787D02*
X13866968Y-14693263D01*
X13866968Y-14693263D02*
X13866968Y-14712310D01*
X14000302Y-14512310D02*
X14019349Y-14512310D01*
X14019349Y-14512310D02*
X14038397Y-14521834D01*
X14038397Y-14521834D02*
X14047921Y-14531358D01*
X14047921Y-14531358D02*
X14057445Y-14550406D01*
X14057445Y-14550406D02*
X14066968Y-14588501D01*
X14066968Y-14588501D02*
X14066968Y-14636120D01*
X14066968Y-14636120D02*
X14057445Y-14674215D01*
X14057445Y-14674215D02*
X14047921Y-14693263D01*
X14047921Y-14693263D02*
X14038397Y-14702787D01*
X14038397Y-14702787D02*
X14019349Y-14712310D01*
X14019349Y-14712310D02*
X14000302Y-14712310D01*
X14000302Y-14712310D02*
X13981254Y-14702787D01*
X13981254Y-14702787D02*
X13971730Y-14693263D01*
X13971730Y-14693263D02*
X13962207Y-14674215D01*
X13962207Y-14674215D02*
X13952683Y-14636120D01*
X13952683Y-14636120D02*
X13952683Y-14588501D01*
X13952683Y-14588501D02*
X13962207Y-14550406D01*
X13962207Y-14550406D02*
X13971730Y-14531358D01*
X13971730Y-14531358D02*
X13981254Y-14521834D01*
X13981254Y-14521834D02*
X14000302Y-14512310D01*
X14143159Y-14531358D02*
X14152683Y-14521834D01*
X14152683Y-14521834D02*
X14171730Y-14512310D01*
X14171730Y-14512310D02*
X14219349Y-14512310D01*
X14219349Y-14512310D02*
X14238397Y-14521834D01*
X14238397Y-14521834D02*
X14247921Y-14531358D01*
X14247921Y-14531358D02*
X14257445Y-14550406D01*
X14257445Y-14550406D02*
X14257445Y-14569453D01*
X14257445Y-14569453D02*
X14247921Y-14598025D01*
X14247921Y-14598025D02*
X14133635Y-14712310D01*
X14133635Y-14712310D02*
X14257445Y-14712310D01*
X14324111Y-14512310D02*
X14457445Y-14512310D01*
X14457445Y-14512310D02*
X14371730Y-14712310D01*
X14619349Y-14512310D02*
X14581254Y-14512310D01*
X14581254Y-14512310D02*
X14562207Y-14521834D01*
X14562207Y-14521834D02*
X14552683Y-14531358D01*
X14552683Y-14531358D02*
X14533635Y-14559929D01*
X14533635Y-14559929D02*
X14524111Y-14598025D01*
X14524111Y-14598025D02*
X14524111Y-14674215D01*
X14524111Y-14674215D02*
X14533635Y-14693263D01*
X14533635Y-14693263D02*
X14543159Y-14702787D01*
X14543159Y-14702787D02*
X14562207Y-14712310D01*
X14562207Y-14712310D02*
X14600302Y-14712310D01*
X14600302Y-14712310D02*
X14619349Y-14702787D01*
X14619349Y-14702787D02*
X14628873Y-14693263D01*
X14628873Y-14693263D02*
X14638397Y-14674215D01*
X14638397Y-14674215D02*
X14638397Y-14626596D01*
X14638397Y-14626596D02*
X14628873Y-14607548D01*
X14628873Y-14607548D02*
X14619349Y-14598025D01*
X14619349Y-14598025D02*
X14600302Y-14588501D01*
X14600302Y-14588501D02*
X14562207Y-14588501D01*
X14562207Y-14588501D02*
X14543159Y-14598025D01*
X14543159Y-14598025D02*
X14533635Y-14607548D01*
X14533635Y-14607548D02*
X14524111Y-14626596D01*
X14714588Y-14512310D02*
X14714588Y-14550406D01*
X14790778Y-14512310D02*
X14790778Y-14550406D01*
X15086016Y-14788501D02*
X15076492Y-14778977D01*
X15076492Y-14778977D02*
X15057445Y-14750406D01*
X15057445Y-14750406D02*
X15047921Y-14731358D01*
X15047921Y-14731358D02*
X15038397Y-14702787D01*
X15038397Y-14702787D02*
X15028873Y-14655167D01*
X15028873Y-14655167D02*
X15028873Y-14617072D01*
X15028873Y-14617072D02*
X15038397Y-14569453D01*
X15038397Y-14569453D02*
X15047921Y-14540882D01*
X15047921Y-14540882D02*
X15057445Y-14521834D01*
X15057445Y-14521834D02*
X15076492Y-14493263D01*
X15076492Y-14493263D02*
X15086016Y-14483739D01*
X15152683Y-14531358D02*
X15162207Y-14521834D01*
X15162207Y-14521834D02*
X15181254Y-14512310D01*
X15181254Y-14512310D02*
X15228873Y-14512310D01*
X15228873Y-14512310D02*
X15247921Y-14521834D01*
X15247921Y-14521834D02*
X15257445Y-14531358D01*
X15257445Y-14531358D02*
X15266969Y-14550406D01*
X15266969Y-14550406D02*
X15266969Y-14569453D01*
X15266969Y-14569453D02*
X15257445Y-14598025D01*
X15257445Y-14598025D02*
X15143159Y-14712310D01*
X15143159Y-14712310D02*
X15266969Y-14712310D01*
X15505064Y-14712310D02*
X15505064Y-14512310D01*
X15590778Y-14712310D02*
X15590778Y-14607548D01*
X15590778Y-14607548D02*
X15581254Y-14588501D01*
X15581254Y-14588501D02*
X15562207Y-14578977D01*
X15562207Y-14578977D02*
X15533635Y-14578977D01*
X15533635Y-14578977D02*
X15514588Y-14588501D01*
X15514588Y-14588501D02*
X15505064Y-14598025D01*
X15714588Y-14712310D02*
X15695540Y-14702787D01*
X15695540Y-14702787D02*
X15686016Y-14693263D01*
X15686016Y-14693263D02*
X15676492Y-14674215D01*
X15676492Y-14674215D02*
X15676492Y-14617072D01*
X15676492Y-14617072D02*
X15686016Y-14598025D01*
X15686016Y-14598025D02*
X15695540Y-14588501D01*
X15695540Y-14588501D02*
X15714588Y-14578977D01*
X15714588Y-14578977D02*
X15743159Y-14578977D01*
X15743159Y-14578977D02*
X15762207Y-14588501D01*
X15762207Y-14588501D02*
X15771731Y-14598025D01*
X15771731Y-14598025D02*
X15781254Y-14617072D01*
X15781254Y-14617072D02*
X15781254Y-14674215D01*
X15781254Y-14674215D02*
X15771731Y-14693263D01*
X15771731Y-14693263D02*
X15762207Y-14702787D01*
X15762207Y-14702787D02*
X15743159Y-14712310D01*
X15743159Y-14712310D02*
X15714588Y-14712310D01*
X15895540Y-14712310D02*
X15876492Y-14702787D01*
X15876492Y-14702787D02*
X15866969Y-14683739D01*
X15866969Y-14683739D02*
X15866969Y-14512310D01*
X16047921Y-14702787D02*
X16028873Y-14712310D01*
X16028873Y-14712310D02*
X15990778Y-14712310D01*
X15990778Y-14712310D02*
X15971731Y-14702787D01*
X15971731Y-14702787D02*
X15962207Y-14683739D01*
X15962207Y-14683739D02*
X15962207Y-14607548D01*
X15962207Y-14607548D02*
X15971731Y-14588501D01*
X15971731Y-14588501D02*
X15990778Y-14578977D01*
X15990778Y-14578977D02*
X16028873Y-14578977D01*
X16028873Y-14578977D02*
X16047921Y-14588501D01*
X16047921Y-14588501D02*
X16057445Y-14607548D01*
X16057445Y-14607548D02*
X16057445Y-14626596D01*
X16057445Y-14626596D02*
X15962207Y-14645644D01*
X16133635Y-14702787D02*
X16152683Y-14712310D01*
X16152683Y-14712310D02*
X16190778Y-14712310D01*
X16190778Y-14712310D02*
X16209826Y-14702787D01*
X16209826Y-14702787D02*
X16219350Y-14683739D01*
X16219350Y-14683739D02*
X16219350Y-14674215D01*
X16219350Y-14674215D02*
X16209826Y-14655167D01*
X16209826Y-14655167D02*
X16190778Y-14645644D01*
X16190778Y-14645644D02*
X16162207Y-14645644D01*
X16162207Y-14645644D02*
X16143159Y-14636120D01*
X16143159Y-14636120D02*
X16133635Y-14617072D01*
X16133635Y-14617072D02*
X16133635Y-14607548D01*
X16133635Y-14607548D02*
X16143159Y-14588501D01*
X16143159Y-14588501D02*
X16162207Y-14578977D01*
X16162207Y-14578977D02*
X16190778Y-14578977D01*
X16190778Y-14578977D02*
X16209826Y-14588501D01*
X16286016Y-14788501D02*
X16295540Y-14778977D01*
X16295540Y-14778977D02*
X16314588Y-14750406D01*
X16314588Y-14750406D02*
X16324112Y-14731358D01*
X16324112Y-14731358D02*
X16333635Y-14702787D01*
X16333635Y-14702787D02*
X16343159Y-14655167D01*
X16343159Y-14655167D02*
X16343159Y-14617072D01*
X16343159Y-14617072D02*
X16333635Y-14569453D01*
X16333635Y-14569453D02*
X16324112Y-14540882D01*
X16324112Y-14540882D02*
X16314588Y-14521834D01*
X16314588Y-14521834D02*
X16295540Y-14493263D01*
X16295540Y-14493263D02*
X16286016Y-14483739D01*
D12*
X11470953Y-14844827D02*
X11470953Y-14924827D01*
X11430953Y-14884827D02*
X11510953Y-14884827D01*
D11*
X11809825Y-14776310D02*
X11828873Y-14776310D01*
X11828873Y-14776310D02*
X11847921Y-14785834D01*
X11847921Y-14785834D02*
X11857444Y-14795358D01*
X11857444Y-14795358D02*
X11866968Y-14814406D01*
X11866968Y-14814406D02*
X11876492Y-14852501D01*
X11876492Y-14852501D02*
X11876492Y-14900120D01*
X11876492Y-14900120D02*
X11866968Y-14938215D01*
X11866968Y-14938215D02*
X11857444Y-14957263D01*
X11857444Y-14957263D02*
X11847921Y-14966787D01*
X11847921Y-14966787D02*
X11828873Y-14976310D01*
X11828873Y-14976310D02*
X11809825Y-14976310D01*
X11809825Y-14976310D02*
X11790778Y-14966787D01*
X11790778Y-14966787D02*
X11781254Y-14957263D01*
X11781254Y-14957263D02*
X11771730Y-14938215D01*
X11771730Y-14938215D02*
X11762206Y-14900120D01*
X11762206Y-14900120D02*
X11762206Y-14852501D01*
X11762206Y-14852501D02*
X11771730Y-14814406D01*
X11771730Y-14814406D02*
X11781254Y-14795358D01*
X11781254Y-14795358D02*
X11790778Y-14785834D01*
X11790778Y-14785834D02*
X11809825Y-14776310D01*
X11962206Y-14957263D02*
X11971730Y-14966787D01*
X11971730Y-14966787D02*
X11962206Y-14976310D01*
X11962206Y-14976310D02*
X11952683Y-14966787D01*
X11952683Y-14966787D02*
X11962206Y-14957263D01*
X11962206Y-14957263D02*
X11962206Y-14976310D01*
X12086016Y-14862025D02*
X12066968Y-14852501D01*
X12066968Y-14852501D02*
X12057444Y-14842977D01*
X12057444Y-14842977D02*
X12047921Y-14823929D01*
X12047921Y-14823929D02*
X12047921Y-14814406D01*
X12047921Y-14814406D02*
X12057444Y-14795358D01*
X12057444Y-14795358D02*
X12066968Y-14785834D01*
X12066968Y-14785834D02*
X12086016Y-14776310D01*
X12086016Y-14776310D02*
X12124111Y-14776310D01*
X12124111Y-14776310D02*
X12143159Y-14785834D01*
X12143159Y-14785834D02*
X12152683Y-14795358D01*
X12152683Y-14795358D02*
X12162206Y-14814406D01*
X12162206Y-14814406D02*
X12162206Y-14823929D01*
X12162206Y-14823929D02*
X12152683Y-14842977D01*
X12152683Y-14842977D02*
X12143159Y-14852501D01*
X12143159Y-14852501D02*
X12124111Y-14862025D01*
X12124111Y-14862025D02*
X12086016Y-14862025D01*
X12086016Y-14862025D02*
X12066968Y-14871548D01*
X12066968Y-14871548D02*
X12057444Y-14881072D01*
X12057444Y-14881072D02*
X12047921Y-14900120D01*
X12047921Y-14900120D02*
X12047921Y-14938215D01*
X12047921Y-14938215D02*
X12057444Y-14957263D01*
X12057444Y-14957263D02*
X12066968Y-14966787D01*
X12066968Y-14966787D02*
X12086016Y-14976310D01*
X12086016Y-14976310D02*
X12124111Y-14976310D01*
X12124111Y-14976310D02*
X12143159Y-14966787D01*
X12143159Y-14966787D02*
X12152683Y-14957263D01*
X12152683Y-14957263D02*
X12162206Y-14938215D01*
X12162206Y-14938215D02*
X12162206Y-14900120D01*
X12162206Y-14900120D02*
X12152683Y-14881072D01*
X12152683Y-14881072D02*
X12143159Y-14871548D01*
X12143159Y-14871548D02*
X12124111Y-14862025D01*
X12286016Y-14776310D02*
X12305064Y-14776310D01*
X12305064Y-14776310D02*
X12324111Y-14785834D01*
X12324111Y-14785834D02*
X12333635Y-14795358D01*
X12333635Y-14795358D02*
X12343159Y-14814406D01*
X12343159Y-14814406D02*
X12352683Y-14852501D01*
X12352683Y-14852501D02*
X12352683Y-14900120D01*
X12352683Y-14900120D02*
X12343159Y-14938215D01*
X12343159Y-14938215D02*
X12333635Y-14957263D01*
X12333635Y-14957263D02*
X12324111Y-14966787D01*
X12324111Y-14966787D02*
X12305064Y-14976310D01*
X12305064Y-14976310D02*
X12286016Y-14976310D01*
X12286016Y-14976310D02*
X12266968Y-14966787D01*
X12266968Y-14966787D02*
X12257444Y-14957263D01*
X12257444Y-14957263D02*
X12247921Y-14938215D01*
X12247921Y-14938215D02*
X12238397Y-14900120D01*
X12238397Y-14900120D02*
X12238397Y-14852501D01*
X12238397Y-14852501D02*
X12247921Y-14814406D01*
X12247921Y-14814406D02*
X12257444Y-14795358D01*
X12257444Y-14795358D02*
X12266968Y-14785834D01*
X12266968Y-14785834D02*
X12286016Y-14776310D01*
X12476492Y-14776310D02*
X12495540Y-14776310D01*
X12495540Y-14776310D02*
X12514587Y-14785834D01*
X12514587Y-14785834D02*
X12524111Y-14795358D01*
X12524111Y-14795358D02*
X12533635Y-14814406D01*
X12533635Y-14814406D02*
X12543159Y-14852501D01*
X12543159Y-14852501D02*
X12543159Y-14900120D01*
X12543159Y-14900120D02*
X12533635Y-14938215D01*
X12533635Y-14938215D02*
X12524111Y-14957263D01*
X12524111Y-14957263D02*
X12514587Y-14966787D01*
X12514587Y-14966787D02*
X12495540Y-14976310D01*
X12495540Y-14976310D02*
X12476492Y-14976310D01*
X12476492Y-14976310D02*
X12457444Y-14966787D01*
X12457444Y-14966787D02*
X12447921Y-14957263D01*
X12447921Y-14957263D02*
X12438397Y-14938215D01*
X12438397Y-14938215D02*
X12428873Y-14900120D01*
X12428873Y-14900120D02*
X12428873Y-14852501D01*
X12428873Y-14852501D02*
X12438397Y-14814406D01*
X12438397Y-14814406D02*
X12447921Y-14795358D01*
X12447921Y-14795358D02*
X12457444Y-14785834D01*
X12457444Y-14785834D02*
X12476492Y-14776310D01*
X12628873Y-14976310D02*
X12628873Y-14842977D01*
X12628873Y-14862025D02*
X12638397Y-14852501D01*
X12638397Y-14852501D02*
X12657444Y-14842977D01*
X12657444Y-14842977D02*
X12686016Y-14842977D01*
X12686016Y-14842977D02*
X12705064Y-14852501D01*
X12705064Y-14852501D02*
X12714587Y-14871548D01*
X12714587Y-14871548D02*
X12714587Y-14976310D01*
X12714587Y-14871548D02*
X12724111Y-14852501D01*
X12724111Y-14852501D02*
X12743159Y-14842977D01*
X12743159Y-14842977D02*
X12771730Y-14842977D01*
X12771730Y-14842977D02*
X12790778Y-14852501D01*
X12790778Y-14852501D02*
X12800302Y-14871548D01*
X12800302Y-14871548D02*
X12800302Y-14976310D01*
X12895540Y-14976310D02*
X12895540Y-14842977D01*
X12895540Y-14862025D02*
X12905064Y-14852501D01*
X12905064Y-14852501D02*
X12924111Y-14842977D01*
X12924111Y-14842977D02*
X12952683Y-14842977D01*
X12952683Y-14842977D02*
X12971730Y-14852501D01*
X12971730Y-14852501D02*
X12981254Y-14871548D01*
X12981254Y-14871548D02*
X12981254Y-14976310D01*
X12981254Y-14871548D02*
X12990778Y-14852501D01*
X12990778Y-14852501D02*
X13009825Y-14842977D01*
X13009825Y-14842977D02*
X13038397Y-14842977D01*
X13038397Y-14842977D02*
X13057445Y-14852501D01*
X13057445Y-14852501D02*
X13066968Y-14871548D01*
X13066968Y-14871548D02*
X13066968Y-14976310D01*
X13457445Y-14766787D02*
X13286016Y-15023929D01*
X13714587Y-14776310D02*
X13733635Y-14776310D01*
X13733635Y-14776310D02*
X13752683Y-14785834D01*
X13752683Y-14785834D02*
X13762207Y-14795358D01*
X13762207Y-14795358D02*
X13771730Y-14814406D01*
X13771730Y-14814406D02*
X13781254Y-14852501D01*
X13781254Y-14852501D02*
X13781254Y-14900120D01*
X13781254Y-14900120D02*
X13771730Y-14938215D01*
X13771730Y-14938215D02*
X13762207Y-14957263D01*
X13762207Y-14957263D02*
X13752683Y-14966787D01*
X13752683Y-14966787D02*
X13733635Y-14976310D01*
X13733635Y-14976310D02*
X13714587Y-14976310D01*
X13714587Y-14976310D02*
X13695540Y-14966787D01*
X13695540Y-14966787D02*
X13686016Y-14957263D01*
X13686016Y-14957263D02*
X13676492Y-14938215D01*
X13676492Y-14938215D02*
X13666968Y-14900120D01*
X13666968Y-14900120D02*
X13666968Y-14852501D01*
X13666968Y-14852501D02*
X13676492Y-14814406D01*
X13676492Y-14814406D02*
X13686016Y-14795358D01*
X13686016Y-14795358D02*
X13695540Y-14785834D01*
X13695540Y-14785834D02*
X13714587Y-14776310D01*
X13866968Y-14957263D02*
X13876492Y-14966787D01*
X13876492Y-14966787D02*
X13866968Y-14976310D01*
X13866968Y-14976310D02*
X13857445Y-14966787D01*
X13857445Y-14966787D02*
X13866968Y-14957263D01*
X13866968Y-14957263D02*
X13866968Y-14976310D01*
X14000302Y-14776310D02*
X14019349Y-14776310D01*
X14019349Y-14776310D02*
X14038397Y-14785834D01*
X14038397Y-14785834D02*
X14047921Y-14795358D01*
X14047921Y-14795358D02*
X14057445Y-14814406D01*
X14057445Y-14814406D02*
X14066968Y-14852501D01*
X14066968Y-14852501D02*
X14066968Y-14900120D01*
X14066968Y-14900120D02*
X14057445Y-14938215D01*
X14057445Y-14938215D02*
X14047921Y-14957263D01*
X14047921Y-14957263D02*
X14038397Y-14966787D01*
X14038397Y-14966787D02*
X14019349Y-14976310D01*
X14019349Y-14976310D02*
X14000302Y-14976310D01*
X14000302Y-14976310D02*
X13981254Y-14966787D01*
X13981254Y-14966787D02*
X13971730Y-14957263D01*
X13971730Y-14957263D02*
X13962207Y-14938215D01*
X13962207Y-14938215D02*
X13952683Y-14900120D01*
X13952683Y-14900120D02*
X13952683Y-14852501D01*
X13952683Y-14852501D02*
X13962207Y-14814406D01*
X13962207Y-14814406D02*
X13971730Y-14795358D01*
X13971730Y-14795358D02*
X13981254Y-14785834D01*
X13981254Y-14785834D02*
X14000302Y-14776310D01*
X14133635Y-14776310D02*
X14257445Y-14776310D01*
X14257445Y-14776310D02*
X14190778Y-14852501D01*
X14190778Y-14852501D02*
X14219349Y-14852501D01*
X14219349Y-14852501D02*
X14238397Y-14862025D01*
X14238397Y-14862025D02*
X14247921Y-14871548D01*
X14247921Y-14871548D02*
X14257445Y-14890596D01*
X14257445Y-14890596D02*
X14257445Y-14938215D01*
X14257445Y-14938215D02*
X14247921Y-14957263D01*
X14247921Y-14957263D02*
X14238397Y-14966787D01*
X14238397Y-14966787D02*
X14219349Y-14976310D01*
X14219349Y-14976310D02*
X14162207Y-14976310D01*
X14162207Y-14976310D02*
X14143159Y-14966787D01*
X14143159Y-14966787D02*
X14133635Y-14957263D01*
X14447921Y-14976310D02*
X14333635Y-14976310D01*
X14390778Y-14976310D02*
X14390778Y-14776310D01*
X14390778Y-14776310D02*
X14371730Y-14804882D01*
X14371730Y-14804882D02*
X14352683Y-14823929D01*
X14352683Y-14823929D02*
X14333635Y-14833453D01*
X14628873Y-14776310D02*
X14533635Y-14776310D01*
X14533635Y-14776310D02*
X14524111Y-14871548D01*
X14524111Y-14871548D02*
X14533635Y-14862025D01*
X14533635Y-14862025D02*
X14552683Y-14852501D01*
X14552683Y-14852501D02*
X14600302Y-14852501D01*
X14600302Y-14852501D02*
X14619349Y-14862025D01*
X14619349Y-14862025D02*
X14628873Y-14871548D01*
X14628873Y-14871548D02*
X14638397Y-14890596D01*
X14638397Y-14890596D02*
X14638397Y-14938215D01*
X14638397Y-14938215D02*
X14628873Y-14957263D01*
X14628873Y-14957263D02*
X14619349Y-14966787D01*
X14619349Y-14966787D02*
X14600302Y-14976310D01*
X14600302Y-14976310D02*
X14552683Y-14976310D01*
X14552683Y-14976310D02*
X14533635Y-14966787D01*
X14533635Y-14966787D02*
X14524111Y-14957263D01*
X14714588Y-14776310D02*
X14714588Y-14814406D01*
X14790778Y-14776310D02*
X14790778Y-14814406D01*
X15086016Y-15052501D02*
X15076492Y-15042977D01*
X15076492Y-15042977D02*
X15057445Y-15014406D01*
X15057445Y-15014406D02*
X15047921Y-14995358D01*
X15047921Y-14995358D02*
X15038397Y-14966787D01*
X15038397Y-14966787D02*
X15028873Y-14919167D01*
X15028873Y-14919167D02*
X15028873Y-14881072D01*
X15028873Y-14881072D02*
X15038397Y-14833453D01*
X15038397Y-14833453D02*
X15047921Y-14804882D01*
X15047921Y-14804882D02*
X15057445Y-14785834D01*
X15057445Y-14785834D02*
X15076492Y-14757263D01*
X15076492Y-14757263D02*
X15086016Y-14747739D01*
X15152683Y-14795358D02*
X15162207Y-14785834D01*
X15162207Y-14785834D02*
X15181254Y-14776310D01*
X15181254Y-14776310D02*
X15228873Y-14776310D01*
X15228873Y-14776310D02*
X15247921Y-14785834D01*
X15247921Y-14785834D02*
X15257445Y-14795358D01*
X15257445Y-14795358D02*
X15266969Y-14814406D01*
X15266969Y-14814406D02*
X15266969Y-14833453D01*
X15266969Y-14833453D02*
X15257445Y-14862025D01*
X15257445Y-14862025D02*
X15143159Y-14976310D01*
X15143159Y-14976310D02*
X15266969Y-14976310D01*
X15505064Y-14976310D02*
X15505064Y-14776310D01*
X15590778Y-14976310D02*
X15590778Y-14871548D01*
X15590778Y-14871548D02*
X15581254Y-14852501D01*
X15581254Y-14852501D02*
X15562207Y-14842977D01*
X15562207Y-14842977D02*
X15533635Y-14842977D01*
X15533635Y-14842977D02*
X15514588Y-14852501D01*
X15514588Y-14852501D02*
X15505064Y-14862025D01*
X15714588Y-14976310D02*
X15695540Y-14966787D01*
X15695540Y-14966787D02*
X15686016Y-14957263D01*
X15686016Y-14957263D02*
X15676492Y-14938215D01*
X15676492Y-14938215D02*
X15676492Y-14881072D01*
X15676492Y-14881072D02*
X15686016Y-14862025D01*
X15686016Y-14862025D02*
X15695540Y-14852501D01*
X15695540Y-14852501D02*
X15714588Y-14842977D01*
X15714588Y-14842977D02*
X15743159Y-14842977D01*
X15743159Y-14842977D02*
X15762207Y-14852501D01*
X15762207Y-14852501D02*
X15771731Y-14862025D01*
X15771731Y-14862025D02*
X15781254Y-14881072D01*
X15781254Y-14881072D02*
X15781254Y-14938215D01*
X15781254Y-14938215D02*
X15771731Y-14957263D01*
X15771731Y-14957263D02*
X15762207Y-14966787D01*
X15762207Y-14966787D02*
X15743159Y-14976310D01*
X15743159Y-14976310D02*
X15714588Y-14976310D01*
X15895540Y-14976310D02*
X15876492Y-14966787D01*
X15876492Y-14966787D02*
X15866969Y-14947739D01*
X15866969Y-14947739D02*
X15866969Y-14776310D01*
X16047921Y-14966787D02*
X16028873Y-14976310D01*
X16028873Y-14976310D02*
X15990778Y-14976310D01*
X15990778Y-14976310D02*
X15971731Y-14966787D01*
X15971731Y-14966787D02*
X15962207Y-14947739D01*
X15962207Y-14947739D02*
X15962207Y-14871548D01*
X15962207Y-14871548D02*
X15971731Y-14852501D01*
X15971731Y-14852501D02*
X15990778Y-14842977D01*
X15990778Y-14842977D02*
X16028873Y-14842977D01*
X16028873Y-14842977D02*
X16047921Y-14852501D01*
X16047921Y-14852501D02*
X16057445Y-14871548D01*
X16057445Y-14871548D02*
X16057445Y-14890596D01*
X16057445Y-14890596D02*
X15962207Y-14909644D01*
X16133635Y-14966787D02*
X16152683Y-14976310D01*
X16152683Y-14976310D02*
X16190778Y-14976310D01*
X16190778Y-14976310D02*
X16209826Y-14966787D01*
X16209826Y-14966787D02*
X16219350Y-14947739D01*
X16219350Y-14947739D02*
X16219350Y-14938215D01*
X16219350Y-14938215D02*
X16209826Y-14919167D01*
X16209826Y-14919167D02*
X16190778Y-14909644D01*
X16190778Y-14909644D02*
X16162207Y-14909644D01*
X16162207Y-14909644D02*
X16143159Y-14900120D01*
X16143159Y-14900120D02*
X16133635Y-14881072D01*
X16133635Y-14881072D02*
X16133635Y-14871548D01*
X16133635Y-14871548D02*
X16143159Y-14852501D01*
X16143159Y-14852501D02*
X16162207Y-14842977D01*
X16162207Y-14842977D02*
X16190778Y-14842977D01*
X16190778Y-14842977D02*
X16209826Y-14852501D01*
X16286016Y-15052501D02*
X16295540Y-15042977D01*
X16295540Y-15042977D02*
X16314588Y-15014406D01*
X16314588Y-15014406D02*
X16324112Y-14995358D01*
X16324112Y-14995358D02*
X16333635Y-14966787D01*
X16333635Y-14966787D02*
X16343159Y-14919167D01*
X16343159Y-14919167D02*
X16343159Y-14881072D01*
X16343159Y-14881072D02*
X16333635Y-14833453D01*
X16333635Y-14833453D02*
X16324112Y-14804882D01*
X16324112Y-14804882D02*
X16314588Y-14785834D01*
X16314588Y-14785834D02*
X16295540Y-14757263D01*
X16295540Y-14757263D02*
X16286016Y-14747739D01*
D12*
X11498506Y-15178879D02*
X11498506Y-15118774D01*
X11438401Y-15118774D01*
X11438401Y-15178879D01*
X11498506Y-15178879D01*
D11*
X11809825Y-15040310D02*
X11828873Y-15040310D01*
X11828873Y-15040310D02*
X11847921Y-15049834D01*
X11847921Y-15049834D02*
X11857444Y-15059358D01*
X11857444Y-15059358D02*
X11866968Y-15078406D01*
X11866968Y-15078406D02*
X11876492Y-15116501D01*
X11876492Y-15116501D02*
X11876492Y-15164120D01*
X11876492Y-15164120D02*
X11866968Y-15202215D01*
X11866968Y-15202215D02*
X11857444Y-15221263D01*
X11857444Y-15221263D02*
X11847921Y-15230787D01*
X11847921Y-15230787D02*
X11828873Y-15240310D01*
X11828873Y-15240310D02*
X11809825Y-15240310D01*
X11809825Y-15240310D02*
X11790778Y-15230787D01*
X11790778Y-15230787D02*
X11781254Y-15221263D01*
X11781254Y-15221263D02*
X11771730Y-15202215D01*
X11771730Y-15202215D02*
X11762206Y-15164120D01*
X11762206Y-15164120D02*
X11762206Y-15116501D01*
X11762206Y-15116501D02*
X11771730Y-15078406D01*
X11771730Y-15078406D02*
X11781254Y-15059358D01*
X11781254Y-15059358D02*
X11790778Y-15049834D01*
X11790778Y-15049834D02*
X11809825Y-15040310D01*
X11962206Y-15221263D02*
X11971730Y-15230787D01*
X11971730Y-15230787D02*
X11962206Y-15240310D01*
X11962206Y-15240310D02*
X11952683Y-15230787D01*
X11952683Y-15230787D02*
X11962206Y-15221263D01*
X11962206Y-15221263D02*
X11962206Y-15240310D01*
X12086016Y-15126025D02*
X12066968Y-15116501D01*
X12066968Y-15116501D02*
X12057444Y-15106977D01*
X12057444Y-15106977D02*
X12047921Y-15087929D01*
X12047921Y-15087929D02*
X12047921Y-15078406D01*
X12047921Y-15078406D02*
X12057444Y-15059358D01*
X12057444Y-15059358D02*
X12066968Y-15049834D01*
X12066968Y-15049834D02*
X12086016Y-15040310D01*
X12086016Y-15040310D02*
X12124111Y-15040310D01*
X12124111Y-15040310D02*
X12143159Y-15049834D01*
X12143159Y-15049834D02*
X12152683Y-15059358D01*
X12152683Y-15059358D02*
X12162206Y-15078406D01*
X12162206Y-15078406D02*
X12162206Y-15087929D01*
X12162206Y-15087929D02*
X12152683Y-15106977D01*
X12152683Y-15106977D02*
X12143159Y-15116501D01*
X12143159Y-15116501D02*
X12124111Y-15126025D01*
X12124111Y-15126025D02*
X12086016Y-15126025D01*
X12086016Y-15126025D02*
X12066968Y-15135548D01*
X12066968Y-15135548D02*
X12057444Y-15145072D01*
X12057444Y-15145072D02*
X12047921Y-15164120D01*
X12047921Y-15164120D02*
X12047921Y-15202215D01*
X12047921Y-15202215D02*
X12057444Y-15221263D01*
X12057444Y-15221263D02*
X12066968Y-15230787D01*
X12066968Y-15230787D02*
X12086016Y-15240310D01*
X12086016Y-15240310D02*
X12124111Y-15240310D01*
X12124111Y-15240310D02*
X12143159Y-15230787D01*
X12143159Y-15230787D02*
X12152683Y-15221263D01*
X12152683Y-15221263D02*
X12162206Y-15202215D01*
X12162206Y-15202215D02*
X12162206Y-15164120D01*
X12162206Y-15164120D02*
X12152683Y-15145072D01*
X12152683Y-15145072D02*
X12143159Y-15135548D01*
X12143159Y-15135548D02*
X12124111Y-15126025D01*
X12343159Y-15040310D02*
X12247921Y-15040310D01*
X12247921Y-15040310D02*
X12238397Y-15135548D01*
X12238397Y-15135548D02*
X12247921Y-15126025D01*
X12247921Y-15126025D02*
X12266968Y-15116501D01*
X12266968Y-15116501D02*
X12314587Y-15116501D01*
X12314587Y-15116501D02*
X12333635Y-15126025D01*
X12333635Y-15126025D02*
X12343159Y-15135548D01*
X12343159Y-15135548D02*
X12352683Y-15154596D01*
X12352683Y-15154596D02*
X12352683Y-15202215D01*
X12352683Y-15202215D02*
X12343159Y-15221263D01*
X12343159Y-15221263D02*
X12333635Y-15230787D01*
X12333635Y-15230787D02*
X12314587Y-15240310D01*
X12314587Y-15240310D02*
X12266968Y-15240310D01*
X12266968Y-15240310D02*
X12247921Y-15230787D01*
X12247921Y-15230787D02*
X12238397Y-15221263D01*
X12476492Y-15040310D02*
X12495540Y-15040310D01*
X12495540Y-15040310D02*
X12514587Y-15049834D01*
X12514587Y-15049834D02*
X12524111Y-15059358D01*
X12524111Y-15059358D02*
X12533635Y-15078406D01*
X12533635Y-15078406D02*
X12543159Y-15116501D01*
X12543159Y-15116501D02*
X12543159Y-15164120D01*
X12543159Y-15164120D02*
X12533635Y-15202215D01*
X12533635Y-15202215D02*
X12524111Y-15221263D01*
X12524111Y-15221263D02*
X12514587Y-15230787D01*
X12514587Y-15230787D02*
X12495540Y-15240310D01*
X12495540Y-15240310D02*
X12476492Y-15240310D01*
X12476492Y-15240310D02*
X12457444Y-15230787D01*
X12457444Y-15230787D02*
X12447921Y-15221263D01*
X12447921Y-15221263D02*
X12438397Y-15202215D01*
X12438397Y-15202215D02*
X12428873Y-15164120D01*
X12428873Y-15164120D02*
X12428873Y-15116501D01*
X12428873Y-15116501D02*
X12438397Y-15078406D01*
X12438397Y-15078406D02*
X12447921Y-15059358D01*
X12447921Y-15059358D02*
X12457444Y-15049834D01*
X12457444Y-15049834D02*
X12476492Y-15040310D01*
X12628873Y-15240310D02*
X12628873Y-15106977D01*
X12628873Y-15126025D02*
X12638397Y-15116501D01*
X12638397Y-15116501D02*
X12657444Y-15106977D01*
X12657444Y-15106977D02*
X12686016Y-15106977D01*
X12686016Y-15106977D02*
X12705064Y-15116501D01*
X12705064Y-15116501D02*
X12714587Y-15135548D01*
X12714587Y-15135548D02*
X12714587Y-15240310D01*
X12714587Y-15135548D02*
X12724111Y-15116501D01*
X12724111Y-15116501D02*
X12743159Y-15106977D01*
X12743159Y-15106977D02*
X12771730Y-15106977D01*
X12771730Y-15106977D02*
X12790778Y-15116501D01*
X12790778Y-15116501D02*
X12800302Y-15135548D01*
X12800302Y-15135548D02*
X12800302Y-15240310D01*
X12895540Y-15240310D02*
X12895540Y-15106977D01*
X12895540Y-15126025D02*
X12905064Y-15116501D01*
X12905064Y-15116501D02*
X12924111Y-15106977D01*
X12924111Y-15106977D02*
X12952683Y-15106977D01*
X12952683Y-15106977D02*
X12971730Y-15116501D01*
X12971730Y-15116501D02*
X12981254Y-15135548D01*
X12981254Y-15135548D02*
X12981254Y-15240310D01*
X12981254Y-15135548D02*
X12990778Y-15116501D01*
X12990778Y-15116501D02*
X13009825Y-15106977D01*
X13009825Y-15106977D02*
X13038397Y-15106977D01*
X13038397Y-15106977D02*
X13057445Y-15116501D01*
X13057445Y-15116501D02*
X13066968Y-15135548D01*
X13066968Y-15135548D02*
X13066968Y-15240310D01*
X13457445Y-15030787D02*
X13286016Y-15287929D01*
X13714587Y-15040310D02*
X13733635Y-15040310D01*
X13733635Y-15040310D02*
X13752683Y-15049834D01*
X13752683Y-15049834D02*
X13762207Y-15059358D01*
X13762207Y-15059358D02*
X13771730Y-15078406D01*
X13771730Y-15078406D02*
X13781254Y-15116501D01*
X13781254Y-15116501D02*
X13781254Y-15164120D01*
X13781254Y-15164120D02*
X13771730Y-15202215D01*
X13771730Y-15202215D02*
X13762207Y-15221263D01*
X13762207Y-15221263D02*
X13752683Y-15230787D01*
X13752683Y-15230787D02*
X13733635Y-15240310D01*
X13733635Y-15240310D02*
X13714587Y-15240310D01*
X13714587Y-15240310D02*
X13695540Y-15230787D01*
X13695540Y-15230787D02*
X13686016Y-15221263D01*
X13686016Y-15221263D02*
X13676492Y-15202215D01*
X13676492Y-15202215D02*
X13666968Y-15164120D01*
X13666968Y-15164120D02*
X13666968Y-15116501D01*
X13666968Y-15116501D02*
X13676492Y-15078406D01*
X13676492Y-15078406D02*
X13686016Y-15059358D01*
X13686016Y-15059358D02*
X13695540Y-15049834D01*
X13695540Y-15049834D02*
X13714587Y-15040310D01*
X13866968Y-15221263D02*
X13876492Y-15230787D01*
X13876492Y-15230787D02*
X13866968Y-15240310D01*
X13866968Y-15240310D02*
X13857445Y-15230787D01*
X13857445Y-15230787D02*
X13866968Y-15221263D01*
X13866968Y-15221263D02*
X13866968Y-15240310D01*
X14000302Y-15040310D02*
X14019349Y-15040310D01*
X14019349Y-15040310D02*
X14038397Y-15049834D01*
X14038397Y-15049834D02*
X14047921Y-15059358D01*
X14047921Y-15059358D02*
X14057445Y-15078406D01*
X14057445Y-15078406D02*
X14066968Y-15116501D01*
X14066968Y-15116501D02*
X14066968Y-15164120D01*
X14066968Y-15164120D02*
X14057445Y-15202215D01*
X14057445Y-15202215D02*
X14047921Y-15221263D01*
X14047921Y-15221263D02*
X14038397Y-15230787D01*
X14038397Y-15230787D02*
X14019349Y-15240310D01*
X14019349Y-15240310D02*
X14000302Y-15240310D01*
X14000302Y-15240310D02*
X13981254Y-15230787D01*
X13981254Y-15230787D02*
X13971730Y-15221263D01*
X13971730Y-15221263D02*
X13962207Y-15202215D01*
X13962207Y-15202215D02*
X13952683Y-15164120D01*
X13952683Y-15164120D02*
X13952683Y-15116501D01*
X13952683Y-15116501D02*
X13962207Y-15078406D01*
X13962207Y-15078406D02*
X13971730Y-15059358D01*
X13971730Y-15059358D02*
X13981254Y-15049834D01*
X13981254Y-15049834D02*
X14000302Y-15040310D01*
X14133635Y-15040310D02*
X14257445Y-15040310D01*
X14257445Y-15040310D02*
X14190778Y-15116501D01*
X14190778Y-15116501D02*
X14219349Y-15116501D01*
X14219349Y-15116501D02*
X14238397Y-15126025D01*
X14238397Y-15126025D02*
X14247921Y-15135548D01*
X14247921Y-15135548D02*
X14257445Y-15154596D01*
X14257445Y-15154596D02*
X14257445Y-15202215D01*
X14257445Y-15202215D02*
X14247921Y-15221263D01*
X14247921Y-15221263D02*
X14238397Y-15230787D01*
X14238397Y-15230787D02*
X14219349Y-15240310D01*
X14219349Y-15240310D02*
X14162207Y-15240310D01*
X14162207Y-15240310D02*
X14143159Y-15230787D01*
X14143159Y-15230787D02*
X14133635Y-15221263D01*
X14324111Y-15040310D02*
X14447921Y-15040310D01*
X14447921Y-15040310D02*
X14381254Y-15116501D01*
X14381254Y-15116501D02*
X14409826Y-15116501D01*
X14409826Y-15116501D02*
X14428873Y-15126025D01*
X14428873Y-15126025D02*
X14438397Y-15135548D01*
X14438397Y-15135548D02*
X14447921Y-15154596D01*
X14447921Y-15154596D02*
X14447921Y-15202215D01*
X14447921Y-15202215D02*
X14438397Y-15221263D01*
X14438397Y-15221263D02*
X14428873Y-15230787D01*
X14428873Y-15230787D02*
X14409826Y-15240310D01*
X14409826Y-15240310D02*
X14352683Y-15240310D01*
X14352683Y-15240310D02*
X14333635Y-15230787D01*
X14333635Y-15230787D02*
X14324111Y-15221263D01*
X14628873Y-15040310D02*
X14533635Y-15040310D01*
X14533635Y-15040310D02*
X14524111Y-15135548D01*
X14524111Y-15135548D02*
X14533635Y-15126025D01*
X14533635Y-15126025D02*
X14552683Y-15116501D01*
X14552683Y-15116501D02*
X14600302Y-15116501D01*
X14600302Y-15116501D02*
X14619349Y-15126025D01*
X14619349Y-15126025D02*
X14628873Y-15135548D01*
X14628873Y-15135548D02*
X14638397Y-15154596D01*
X14638397Y-15154596D02*
X14638397Y-15202215D01*
X14638397Y-15202215D02*
X14628873Y-15221263D01*
X14628873Y-15221263D02*
X14619349Y-15230787D01*
X14619349Y-15230787D02*
X14600302Y-15240310D01*
X14600302Y-15240310D02*
X14552683Y-15240310D01*
X14552683Y-15240310D02*
X14533635Y-15230787D01*
X14533635Y-15230787D02*
X14524111Y-15221263D01*
X14714588Y-15040310D02*
X14714588Y-15078406D01*
X14790778Y-15040310D02*
X14790778Y-15078406D01*
X15086016Y-15316501D02*
X15076492Y-15306977D01*
X15076492Y-15306977D02*
X15057445Y-15278406D01*
X15057445Y-15278406D02*
X15047921Y-15259358D01*
X15047921Y-15259358D02*
X15038397Y-15230787D01*
X15038397Y-15230787D02*
X15028873Y-15183167D01*
X15028873Y-15183167D02*
X15028873Y-15145072D01*
X15028873Y-15145072D02*
X15038397Y-15097453D01*
X15038397Y-15097453D02*
X15047921Y-15068882D01*
X15047921Y-15068882D02*
X15057445Y-15049834D01*
X15057445Y-15049834D02*
X15076492Y-15021263D01*
X15076492Y-15021263D02*
X15086016Y-15011739D01*
X15266969Y-15240310D02*
X15152683Y-15240310D01*
X15209826Y-15240310D02*
X15209826Y-15040310D01*
X15209826Y-15040310D02*
X15190778Y-15068882D01*
X15190778Y-15068882D02*
X15171730Y-15087929D01*
X15171730Y-15087929D02*
X15152683Y-15097453D01*
X15505064Y-15240310D02*
X15505064Y-15040310D01*
X15590778Y-15240310D02*
X15590778Y-15135548D01*
X15590778Y-15135548D02*
X15581254Y-15116501D01*
X15581254Y-15116501D02*
X15562207Y-15106977D01*
X15562207Y-15106977D02*
X15533635Y-15106977D01*
X15533635Y-15106977D02*
X15514588Y-15116501D01*
X15514588Y-15116501D02*
X15505064Y-15126025D01*
X15714588Y-15240310D02*
X15695540Y-15230787D01*
X15695540Y-15230787D02*
X15686016Y-15221263D01*
X15686016Y-15221263D02*
X15676492Y-15202215D01*
X15676492Y-15202215D02*
X15676492Y-15145072D01*
X15676492Y-15145072D02*
X15686016Y-15126025D01*
X15686016Y-15126025D02*
X15695540Y-15116501D01*
X15695540Y-15116501D02*
X15714588Y-15106977D01*
X15714588Y-15106977D02*
X15743159Y-15106977D01*
X15743159Y-15106977D02*
X15762207Y-15116501D01*
X15762207Y-15116501D02*
X15771731Y-15126025D01*
X15771731Y-15126025D02*
X15781254Y-15145072D01*
X15781254Y-15145072D02*
X15781254Y-15202215D01*
X15781254Y-15202215D02*
X15771731Y-15221263D01*
X15771731Y-15221263D02*
X15762207Y-15230787D01*
X15762207Y-15230787D02*
X15743159Y-15240310D01*
X15743159Y-15240310D02*
X15714588Y-15240310D01*
X15895540Y-15240310D02*
X15876492Y-15230787D01*
X15876492Y-15230787D02*
X15866969Y-15211739D01*
X15866969Y-15211739D02*
X15866969Y-15040310D01*
X16047921Y-15230787D02*
X16028873Y-15240310D01*
X16028873Y-15240310D02*
X15990778Y-15240310D01*
X15990778Y-15240310D02*
X15971731Y-15230787D01*
X15971731Y-15230787D02*
X15962207Y-15211739D01*
X15962207Y-15211739D02*
X15962207Y-15135548D01*
X15962207Y-15135548D02*
X15971731Y-15116501D01*
X15971731Y-15116501D02*
X15990778Y-15106977D01*
X15990778Y-15106977D02*
X16028873Y-15106977D01*
X16028873Y-15106977D02*
X16047921Y-15116501D01*
X16047921Y-15116501D02*
X16057445Y-15135548D01*
X16057445Y-15135548D02*
X16057445Y-15154596D01*
X16057445Y-15154596D02*
X15962207Y-15173644D01*
X16124112Y-15316501D02*
X16133635Y-15306977D01*
X16133635Y-15306977D02*
X16152683Y-15278406D01*
X16152683Y-15278406D02*
X16162207Y-15259358D01*
X16162207Y-15259358D02*
X16171731Y-15230787D01*
X16171731Y-15230787D02*
X16181254Y-15183167D01*
X16181254Y-15183167D02*
X16181254Y-15145072D01*
X16181254Y-15145072D02*
X16171731Y-15097453D01*
X16171731Y-15097453D02*
X16162207Y-15068882D01*
X16162207Y-15068882D02*
X16152683Y-15049834D01*
X16152683Y-15049834D02*
X16133635Y-15021263D01*
X16133635Y-15021263D02*
X16124112Y-15011739D01*
D12*
X11463453Y-15460327D02*
X11510953Y-15412827D01*
X11463453Y-15365327D01*
X11415953Y-15412827D01*
X11463453Y-15460327D01*
D11*
X11809825Y-15304310D02*
X11828873Y-15304310D01*
X11828873Y-15304310D02*
X11847921Y-15313834D01*
X11847921Y-15313834D02*
X11857444Y-15323358D01*
X11857444Y-15323358D02*
X11866968Y-15342406D01*
X11866968Y-15342406D02*
X11876492Y-15380501D01*
X11876492Y-15380501D02*
X11876492Y-15428120D01*
X11876492Y-15428120D02*
X11866968Y-15466215D01*
X11866968Y-15466215D02*
X11857444Y-15485263D01*
X11857444Y-15485263D02*
X11847921Y-15494787D01*
X11847921Y-15494787D02*
X11828873Y-15504310D01*
X11828873Y-15504310D02*
X11809825Y-15504310D01*
X11809825Y-15504310D02*
X11790778Y-15494787D01*
X11790778Y-15494787D02*
X11781254Y-15485263D01*
X11781254Y-15485263D02*
X11771730Y-15466215D01*
X11771730Y-15466215D02*
X11762206Y-15428120D01*
X11762206Y-15428120D02*
X11762206Y-15380501D01*
X11762206Y-15380501D02*
X11771730Y-15342406D01*
X11771730Y-15342406D02*
X11781254Y-15323358D01*
X11781254Y-15323358D02*
X11790778Y-15313834D01*
X11790778Y-15313834D02*
X11809825Y-15304310D01*
X11962206Y-15485263D02*
X11971730Y-15494787D01*
X11971730Y-15494787D02*
X11962206Y-15504310D01*
X11962206Y-15504310D02*
X11952683Y-15494787D01*
X11952683Y-15494787D02*
X11962206Y-15485263D01*
X11962206Y-15485263D02*
X11962206Y-15504310D01*
X12066968Y-15504310D02*
X12105063Y-15504310D01*
X12105063Y-15504310D02*
X12124111Y-15494787D01*
X12124111Y-15494787D02*
X12133635Y-15485263D01*
X12133635Y-15485263D02*
X12152683Y-15456691D01*
X12152683Y-15456691D02*
X12162206Y-15418596D01*
X12162206Y-15418596D02*
X12162206Y-15342406D01*
X12162206Y-15342406D02*
X12152683Y-15323358D01*
X12152683Y-15323358D02*
X12143159Y-15313834D01*
X12143159Y-15313834D02*
X12124111Y-15304310D01*
X12124111Y-15304310D02*
X12086016Y-15304310D01*
X12086016Y-15304310D02*
X12066968Y-15313834D01*
X12066968Y-15313834D02*
X12057444Y-15323358D01*
X12057444Y-15323358D02*
X12047921Y-15342406D01*
X12047921Y-15342406D02*
X12047921Y-15390025D01*
X12047921Y-15390025D02*
X12057444Y-15409072D01*
X12057444Y-15409072D02*
X12066968Y-15418596D01*
X12066968Y-15418596D02*
X12086016Y-15428120D01*
X12086016Y-15428120D02*
X12124111Y-15428120D01*
X12124111Y-15428120D02*
X12143159Y-15418596D01*
X12143159Y-15418596D02*
X12152683Y-15409072D01*
X12152683Y-15409072D02*
X12162206Y-15390025D01*
X12343159Y-15304310D02*
X12247921Y-15304310D01*
X12247921Y-15304310D02*
X12238397Y-15399548D01*
X12238397Y-15399548D02*
X12247921Y-15390025D01*
X12247921Y-15390025D02*
X12266968Y-15380501D01*
X12266968Y-15380501D02*
X12314587Y-15380501D01*
X12314587Y-15380501D02*
X12333635Y-15390025D01*
X12333635Y-15390025D02*
X12343159Y-15399548D01*
X12343159Y-15399548D02*
X12352683Y-15418596D01*
X12352683Y-15418596D02*
X12352683Y-15466215D01*
X12352683Y-15466215D02*
X12343159Y-15485263D01*
X12343159Y-15485263D02*
X12333635Y-15494787D01*
X12333635Y-15494787D02*
X12314587Y-15504310D01*
X12314587Y-15504310D02*
X12266968Y-15504310D01*
X12266968Y-15504310D02*
X12247921Y-15494787D01*
X12247921Y-15494787D02*
X12238397Y-15485263D01*
X12476492Y-15304310D02*
X12495540Y-15304310D01*
X12495540Y-15304310D02*
X12514587Y-15313834D01*
X12514587Y-15313834D02*
X12524111Y-15323358D01*
X12524111Y-15323358D02*
X12533635Y-15342406D01*
X12533635Y-15342406D02*
X12543159Y-15380501D01*
X12543159Y-15380501D02*
X12543159Y-15428120D01*
X12543159Y-15428120D02*
X12533635Y-15466215D01*
X12533635Y-15466215D02*
X12524111Y-15485263D01*
X12524111Y-15485263D02*
X12514587Y-15494787D01*
X12514587Y-15494787D02*
X12495540Y-15504310D01*
X12495540Y-15504310D02*
X12476492Y-15504310D01*
X12476492Y-15504310D02*
X12457444Y-15494787D01*
X12457444Y-15494787D02*
X12447921Y-15485263D01*
X12447921Y-15485263D02*
X12438397Y-15466215D01*
X12438397Y-15466215D02*
X12428873Y-15428120D01*
X12428873Y-15428120D02*
X12428873Y-15380501D01*
X12428873Y-15380501D02*
X12438397Y-15342406D01*
X12438397Y-15342406D02*
X12447921Y-15323358D01*
X12447921Y-15323358D02*
X12457444Y-15313834D01*
X12457444Y-15313834D02*
X12476492Y-15304310D01*
X12628873Y-15504310D02*
X12628873Y-15370977D01*
X12628873Y-15390025D02*
X12638397Y-15380501D01*
X12638397Y-15380501D02*
X12657444Y-15370977D01*
X12657444Y-15370977D02*
X12686016Y-15370977D01*
X12686016Y-15370977D02*
X12705064Y-15380501D01*
X12705064Y-15380501D02*
X12714587Y-15399548D01*
X12714587Y-15399548D02*
X12714587Y-15504310D01*
X12714587Y-15399548D02*
X12724111Y-15380501D01*
X12724111Y-15380501D02*
X12743159Y-15370977D01*
X12743159Y-15370977D02*
X12771730Y-15370977D01*
X12771730Y-15370977D02*
X12790778Y-15380501D01*
X12790778Y-15380501D02*
X12800302Y-15399548D01*
X12800302Y-15399548D02*
X12800302Y-15504310D01*
X12895540Y-15504310D02*
X12895540Y-15370977D01*
X12895540Y-15390025D02*
X12905064Y-15380501D01*
X12905064Y-15380501D02*
X12924111Y-15370977D01*
X12924111Y-15370977D02*
X12952683Y-15370977D01*
X12952683Y-15370977D02*
X12971730Y-15380501D01*
X12971730Y-15380501D02*
X12981254Y-15399548D01*
X12981254Y-15399548D02*
X12981254Y-15504310D01*
X12981254Y-15399548D02*
X12990778Y-15380501D01*
X12990778Y-15380501D02*
X13009825Y-15370977D01*
X13009825Y-15370977D02*
X13038397Y-15370977D01*
X13038397Y-15370977D02*
X13057445Y-15380501D01*
X13057445Y-15380501D02*
X13066968Y-15399548D01*
X13066968Y-15399548D02*
X13066968Y-15504310D01*
X13457445Y-15294787D02*
X13286016Y-15551929D01*
X13714587Y-15304310D02*
X13733635Y-15304310D01*
X13733635Y-15304310D02*
X13752683Y-15313834D01*
X13752683Y-15313834D02*
X13762207Y-15323358D01*
X13762207Y-15323358D02*
X13771730Y-15342406D01*
X13771730Y-15342406D02*
X13781254Y-15380501D01*
X13781254Y-15380501D02*
X13781254Y-15428120D01*
X13781254Y-15428120D02*
X13771730Y-15466215D01*
X13771730Y-15466215D02*
X13762207Y-15485263D01*
X13762207Y-15485263D02*
X13752683Y-15494787D01*
X13752683Y-15494787D02*
X13733635Y-15504310D01*
X13733635Y-15504310D02*
X13714587Y-15504310D01*
X13714587Y-15504310D02*
X13695540Y-15494787D01*
X13695540Y-15494787D02*
X13686016Y-15485263D01*
X13686016Y-15485263D02*
X13676492Y-15466215D01*
X13676492Y-15466215D02*
X13666968Y-15428120D01*
X13666968Y-15428120D02*
X13666968Y-15380501D01*
X13666968Y-15380501D02*
X13676492Y-15342406D01*
X13676492Y-15342406D02*
X13686016Y-15323358D01*
X13686016Y-15323358D02*
X13695540Y-15313834D01*
X13695540Y-15313834D02*
X13714587Y-15304310D01*
X13866968Y-15485263D02*
X13876492Y-15494787D01*
X13876492Y-15494787D02*
X13866968Y-15504310D01*
X13866968Y-15504310D02*
X13857445Y-15494787D01*
X13857445Y-15494787D02*
X13866968Y-15485263D01*
X13866968Y-15485263D02*
X13866968Y-15504310D01*
X14000302Y-15304310D02*
X14019349Y-15304310D01*
X14019349Y-15304310D02*
X14038397Y-15313834D01*
X14038397Y-15313834D02*
X14047921Y-15323358D01*
X14047921Y-15323358D02*
X14057445Y-15342406D01*
X14057445Y-15342406D02*
X14066968Y-15380501D01*
X14066968Y-15380501D02*
X14066968Y-15428120D01*
X14066968Y-15428120D02*
X14057445Y-15466215D01*
X14057445Y-15466215D02*
X14047921Y-15485263D01*
X14047921Y-15485263D02*
X14038397Y-15494787D01*
X14038397Y-15494787D02*
X14019349Y-15504310D01*
X14019349Y-15504310D02*
X14000302Y-15504310D01*
X14000302Y-15504310D02*
X13981254Y-15494787D01*
X13981254Y-15494787D02*
X13971730Y-15485263D01*
X13971730Y-15485263D02*
X13962207Y-15466215D01*
X13962207Y-15466215D02*
X13952683Y-15428120D01*
X13952683Y-15428120D02*
X13952683Y-15380501D01*
X13952683Y-15380501D02*
X13962207Y-15342406D01*
X13962207Y-15342406D02*
X13971730Y-15323358D01*
X13971730Y-15323358D02*
X13981254Y-15313834D01*
X13981254Y-15313834D02*
X14000302Y-15304310D01*
X14133635Y-15304310D02*
X14257445Y-15304310D01*
X14257445Y-15304310D02*
X14190778Y-15380501D01*
X14190778Y-15380501D02*
X14219349Y-15380501D01*
X14219349Y-15380501D02*
X14238397Y-15390025D01*
X14238397Y-15390025D02*
X14247921Y-15399548D01*
X14247921Y-15399548D02*
X14257445Y-15418596D01*
X14257445Y-15418596D02*
X14257445Y-15466215D01*
X14257445Y-15466215D02*
X14247921Y-15485263D01*
X14247921Y-15485263D02*
X14238397Y-15494787D01*
X14238397Y-15494787D02*
X14219349Y-15504310D01*
X14219349Y-15504310D02*
X14162207Y-15504310D01*
X14162207Y-15504310D02*
X14143159Y-15494787D01*
X14143159Y-15494787D02*
X14133635Y-15485263D01*
X14324111Y-15304310D02*
X14457445Y-15304310D01*
X14457445Y-15304310D02*
X14371730Y-15504310D01*
X14619349Y-15370977D02*
X14619349Y-15504310D01*
X14571730Y-15294787D02*
X14524111Y-15437644D01*
X14524111Y-15437644D02*
X14647921Y-15437644D01*
X14714588Y-15304310D02*
X14714588Y-15342406D01*
X14790778Y-15304310D02*
X14790778Y-15342406D01*
X15086016Y-15580501D02*
X15076492Y-15570977D01*
X15076492Y-15570977D02*
X15057445Y-15542406D01*
X15057445Y-15542406D02*
X15047921Y-15523358D01*
X15047921Y-15523358D02*
X15038397Y-15494787D01*
X15038397Y-15494787D02*
X15028873Y-15447167D01*
X15028873Y-15447167D02*
X15028873Y-15409072D01*
X15028873Y-15409072D02*
X15038397Y-15361453D01*
X15038397Y-15361453D02*
X15047921Y-15332882D01*
X15047921Y-15332882D02*
X15057445Y-15313834D01*
X15057445Y-15313834D02*
X15076492Y-15285263D01*
X15076492Y-15285263D02*
X15086016Y-15275739D01*
X15171730Y-15504310D02*
X15209826Y-15504310D01*
X15209826Y-15504310D02*
X15228873Y-15494787D01*
X15228873Y-15494787D02*
X15238397Y-15485263D01*
X15238397Y-15485263D02*
X15257445Y-15456691D01*
X15257445Y-15456691D02*
X15266969Y-15418596D01*
X15266969Y-15418596D02*
X15266969Y-15342406D01*
X15266969Y-15342406D02*
X15257445Y-15323358D01*
X15257445Y-15323358D02*
X15247921Y-15313834D01*
X15247921Y-15313834D02*
X15228873Y-15304310D01*
X15228873Y-15304310D02*
X15190778Y-15304310D01*
X15190778Y-15304310D02*
X15171730Y-15313834D01*
X15171730Y-15313834D02*
X15162207Y-15323358D01*
X15162207Y-15323358D02*
X15152683Y-15342406D01*
X15152683Y-15342406D02*
X15152683Y-15390025D01*
X15152683Y-15390025D02*
X15162207Y-15409072D01*
X15162207Y-15409072D02*
X15171730Y-15418596D01*
X15171730Y-15418596D02*
X15190778Y-15428120D01*
X15190778Y-15428120D02*
X15228873Y-15428120D01*
X15228873Y-15428120D02*
X15247921Y-15418596D01*
X15247921Y-15418596D02*
X15257445Y-15409072D01*
X15257445Y-15409072D02*
X15266969Y-15390025D01*
X15505064Y-15504310D02*
X15505064Y-15304310D01*
X15590778Y-15504310D02*
X15590778Y-15399548D01*
X15590778Y-15399548D02*
X15581254Y-15380501D01*
X15581254Y-15380501D02*
X15562207Y-15370977D01*
X15562207Y-15370977D02*
X15533635Y-15370977D01*
X15533635Y-15370977D02*
X15514588Y-15380501D01*
X15514588Y-15380501D02*
X15505064Y-15390025D01*
X15714588Y-15504310D02*
X15695540Y-15494787D01*
X15695540Y-15494787D02*
X15686016Y-15485263D01*
X15686016Y-15485263D02*
X15676492Y-15466215D01*
X15676492Y-15466215D02*
X15676492Y-15409072D01*
X15676492Y-15409072D02*
X15686016Y-15390025D01*
X15686016Y-15390025D02*
X15695540Y-15380501D01*
X15695540Y-15380501D02*
X15714588Y-15370977D01*
X15714588Y-15370977D02*
X15743159Y-15370977D01*
X15743159Y-15370977D02*
X15762207Y-15380501D01*
X15762207Y-15380501D02*
X15771731Y-15390025D01*
X15771731Y-15390025D02*
X15781254Y-15409072D01*
X15781254Y-15409072D02*
X15781254Y-15466215D01*
X15781254Y-15466215D02*
X15771731Y-15485263D01*
X15771731Y-15485263D02*
X15762207Y-15494787D01*
X15762207Y-15494787D02*
X15743159Y-15504310D01*
X15743159Y-15504310D02*
X15714588Y-15504310D01*
X15895540Y-15504310D02*
X15876492Y-15494787D01*
X15876492Y-15494787D02*
X15866969Y-15475739D01*
X15866969Y-15475739D02*
X15866969Y-15304310D01*
X16047921Y-15494787D02*
X16028873Y-15504310D01*
X16028873Y-15504310D02*
X15990778Y-15504310D01*
X15990778Y-15504310D02*
X15971731Y-15494787D01*
X15971731Y-15494787D02*
X15962207Y-15475739D01*
X15962207Y-15475739D02*
X15962207Y-15399548D01*
X15962207Y-15399548D02*
X15971731Y-15380501D01*
X15971731Y-15380501D02*
X15990778Y-15370977D01*
X15990778Y-15370977D02*
X16028873Y-15370977D01*
X16028873Y-15370977D02*
X16047921Y-15380501D01*
X16047921Y-15380501D02*
X16057445Y-15399548D01*
X16057445Y-15399548D02*
X16057445Y-15418596D01*
X16057445Y-15418596D02*
X15962207Y-15437644D01*
X16133635Y-15494787D02*
X16152683Y-15504310D01*
X16152683Y-15504310D02*
X16190778Y-15504310D01*
X16190778Y-15504310D02*
X16209826Y-15494787D01*
X16209826Y-15494787D02*
X16219350Y-15475739D01*
X16219350Y-15475739D02*
X16219350Y-15466215D01*
X16219350Y-15466215D02*
X16209826Y-15447167D01*
X16209826Y-15447167D02*
X16190778Y-15437644D01*
X16190778Y-15437644D02*
X16162207Y-15437644D01*
X16162207Y-15437644D02*
X16143159Y-15428120D01*
X16143159Y-15428120D02*
X16133635Y-15409072D01*
X16133635Y-15409072D02*
X16133635Y-15399548D01*
X16133635Y-15399548D02*
X16143159Y-15380501D01*
X16143159Y-15380501D02*
X16162207Y-15370977D01*
X16162207Y-15370977D02*
X16190778Y-15370977D01*
X16190778Y-15370977D02*
X16209826Y-15380501D01*
X16286016Y-15580501D02*
X16295540Y-15570977D01*
X16295540Y-15570977D02*
X16314588Y-15542406D01*
X16314588Y-15542406D02*
X16324112Y-15523358D01*
X16324112Y-15523358D02*
X16333635Y-15494787D01*
X16333635Y-15494787D02*
X16343159Y-15447167D01*
X16343159Y-15447167D02*
X16343159Y-15409072D01*
X16343159Y-15409072D02*
X16333635Y-15361453D01*
X16333635Y-15361453D02*
X16324112Y-15332882D01*
X16324112Y-15332882D02*
X16314588Y-15313834D01*
X16314588Y-15313834D02*
X16295540Y-15285263D01*
X16295540Y-15285263D02*
X16286016Y-15275739D01*
D12*
X11410953Y-15626827D02*
X11510953Y-15726827D01*
X11510953Y-15626827D02*
X11410953Y-15726827D01*
X11510953Y-15676827D02*
G75*
G02*
X11410953Y-15676827I-50000J0D01*
G01*
X11410953Y-15676827D02*
G75*
G02*
X11510953Y-15676827I50000J0D01*
G01*
D11*
X11876492Y-15768310D02*
X11762206Y-15768310D01*
X11819349Y-15768310D02*
X11819349Y-15568310D01*
X11819349Y-15568310D02*
X11800302Y-15596882D01*
X11800302Y-15596882D02*
X11781254Y-15615929D01*
X11781254Y-15615929D02*
X11762206Y-15625453D01*
X11962206Y-15749263D02*
X11971730Y-15758787D01*
X11971730Y-15758787D02*
X11962206Y-15768310D01*
X11962206Y-15768310D02*
X11952683Y-15758787D01*
X11952683Y-15758787D02*
X11962206Y-15749263D01*
X11962206Y-15749263D02*
X11962206Y-15768310D01*
X12095540Y-15568310D02*
X12114587Y-15568310D01*
X12114587Y-15568310D02*
X12133635Y-15577834D01*
X12133635Y-15577834D02*
X12143159Y-15587358D01*
X12143159Y-15587358D02*
X12152683Y-15606406D01*
X12152683Y-15606406D02*
X12162206Y-15644501D01*
X12162206Y-15644501D02*
X12162206Y-15692120D01*
X12162206Y-15692120D02*
X12152683Y-15730215D01*
X12152683Y-15730215D02*
X12143159Y-15749263D01*
X12143159Y-15749263D02*
X12133635Y-15758787D01*
X12133635Y-15758787D02*
X12114587Y-15768310D01*
X12114587Y-15768310D02*
X12095540Y-15768310D01*
X12095540Y-15768310D02*
X12076492Y-15758787D01*
X12076492Y-15758787D02*
X12066968Y-15749263D01*
X12066968Y-15749263D02*
X12057444Y-15730215D01*
X12057444Y-15730215D02*
X12047921Y-15692120D01*
X12047921Y-15692120D02*
X12047921Y-15644501D01*
X12047921Y-15644501D02*
X12057444Y-15606406D01*
X12057444Y-15606406D02*
X12066968Y-15587358D01*
X12066968Y-15587358D02*
X12076492Y-15577834D01*
X12076492Y-15577834D02*
X12095540Y-15568310D01*
X12286016Y-15568310D02*
X12305064Y-15568310D01*
X12305064Y-15568310D02*
X12324111Y-15577834D01*
X12324111Y-15577834D02*
X12333635Y-15587358D01*
X12333635Y-15587358D02*
X12343159Y-15606406D01*
X12343159Y-15606406D02*
X12352683Y-15644501D01*
X12352683Y-15644501D02*
X12352683Y-15692120D01*
X12352683Y-15692120D02*
X12343159Y-15730215D01*
X12343159Y-15730215D02*
X12333635Y-15749263D01*
X12333635Y-15749263D02*
X12324111Y-15758787D01*
X12324111Y-15758787D02*
X12305064Y-15768310D01*
X12305064Y-15768310D02*
X12286016Y-15768310D01*
X12286016Y-15768310D02*
X12266968Y-15758787D01*
X12266968Y-15758787D02*
X12257444Y-15749263D01*
X12257444Y-15749263D02*
X12247921Y-15730215D01*
X12247921Y-15730215D02*
X12238397Y-15692120D01*
X12238397Y-15692120D02*
X12238397Y-15644501D01*
X12238397Y-15644501D02*
X12247921Y-15606406D01*
X12247921Y-15606406D02*
X12257444Y-15587358D01*
X12257444Y-15587358D02*
X12266968Y-15577834D01*
X12266968Y-15577834D02*
X12286016Y-15568310D01*
X12476492Y-15568310D02*
X12495540Y-15568310D01*
X12495540Y-15568310D02*
X12514587Y-15577834D01*
X12514587Y-15577834D02*
X12524111Y-15587358D01*
X12524111Y-15587358D02*
X12533635Y-15606406D01*
X12533635Y-15606406D02*
X12543159Y-15644501D01*
X12543159Y-15644501D02*
X12543159Y-15692120D01*
X12543159Y-15692120D02*
X12533635Y-15730215D01*
X12533635Y-15730215D02*
X12524111Y-15749263D01*
X12524111Y-15749263D02*
X12514587Y-15758787D01*
X12514587Y-15758787D02*
X12495540Y-15768310D01*
X12495540Y-15768310D02*
X12476492Y-15768310D01*
X12476492Y-15768310D02*
X12457444Y-15758787D01*
X12457444Y-15758787D02*
X12447921Y-15749263D01*
X12447921Y-15749263D02*
X12438397Y-15730215D01*
X12438397Y-15730215D02*
X12428873Y-15692120D01*
X12428873Y-15692120D02*
X12428873Y-15644501D01*
X12428873Y-15644501D02*
X12438397Y-15606406D01*
X12438397Y-15606406D02*
X12447921Y-15587358D01*
X12447921Y-15587358D02*
X12457444Y-15577834D01*
X12457444Y-15577834D02*
X12476492Y-15568310D01*
X12628873Y-15768310D02*
X12628873Y-15634977D01*
X12628873Y-15654025D02*
X12638397Y-15644501D01*
X12638397Y-15644501D02*
X12657444Y-15634977D01*
X12657444Y-15634977D02*
X12686016Y-15634977D01*
X12686016Y-15634977D02*
X12705064Y-15644501D01*
X12705064Y-15644501D02*
X12714587Y-15663548D01*
X12714587Y-15663548D02*
X12714587Y-15768310D01*
X12714587Y-15663548D02*
X12724111Y-15644501D01*
X12724111Y-15644501D02*
X12743159Y-15634977D01*
X12743159Y-15634977D02*
X12771730Y-15634977D01*
X12771730Y-15634977D02*
X12790778Y-15644501D01*
X12790778Y-15644501D02*
X12800302Y-15663548D01*
X12800302Y-15663548D02*
X12800302Y-15768310D01*
X12895540Y-15768310D02*
X12895540Y-15634977D01*
X12895540Y-15654025D02*
X12905064Y-15644501D01*
X12905064Y-15644501D02*
X12924111Y-15634977D01*
X12924111Y-15634977D02*
X12952683Y-15634977D01*
X12952683Y-15634977D02*
X12971730Y-15644501D01*
X12971730Y-15644501D02*
X12981254Y-15663548D01*
X12981254Y-15663548D02*
X12981254Y-15768310D01*
X12981254Y-15663548D02*
X12990778Y-15644501D01*
X12990778Y-15644501D02*
X13009825Y-15634977D01*
X13009825Y-15634977D02*
X13038397Y-15634977D01*
X13038397Y-15634977D02*
X13057445Y-15644501D01*
X13057445Y-15644501D02*
X13066968Y-15663548D01*
X13066968Y-15663548D02*
X13066968Y-15768310D01*
X13457445Y-15558787D02*
X13286016Y-15815929D01*
X13714587Y-15568310D02*
X13733635Y-15568310D01*
X13733635Y-15568310D02*
X13752683Y-15577834D01*
X13752683Y-15577834D02*
X13762207Y-15587358D01*
X13762207Y-15587358D02*
X13771730Y-15606406D01*
X13771730Y-15606406D02*
X13781254Y-15644501D01*
X13781254Y-15644501D02*
X13781254Y-15692120D01*
X13781254Y-15692120D02*
X13771730Y-15730215D01*
X13771730Y-15730215D02*
X13762207Y-15749263D01*
X13762207Y-15749263D02*
X13752683Y-15758787D01*
X13752683Y-15758787D02*
X13733635Y-15768310D01*
X13733635Y-15768310D02*
X13714587Y-15768310D01*
X13714587Y-15768310D02*
X13695540Y-15758787D01*
X13695540Y-15758787D02*
X13686016Y-15749263D01*
X13686016Y-15749263D02*
X13676492Y-15730215D01*
X13676492Y-15730215D02*
X13666968Y-15692120D01*
X13666968Y-15692120D02*
X13666968Y-15644501D01*
X13666968Y-15644501D02*
X13676492Y-15606406D01*
X13676492Y-15606406D02*
X13686016Y-15587358D01*
X13686016Y-15587358D02*
X13695540Y-15577834D01*
X13695540Y-15577834D02*
X13714587Y-15568310D01*
X13866968Y-15749263D02*
X13876492Y-15758787D01*
X13876492Y-15758787D02*
X13866968Y-15768310D01*
X13866968Y-15768310D02*
X13857445Y-15758787D01*
X13857445Y-15758787D02*
X13866968Y-15749263D01*
X13866968Y-15749263D02*
X13866968Y-15768310D01*
X14000302Y-15568310D02*
X14019349Y-15568310D01*
X14019349Y-15568310D02*
X14038397Y-15577834D01*
X14038397Y-15577834D02*
X14047921Y-15587358D01*
X14047921Y-15587358D02*
X14057445Y-15606406D01*
X14057445Y-15606406D02*
X14066968Y-15644501D01*
X14066968Y-15644501D02*
X14066968Y-15692120D01*
X14066968Y-15692120D02*
X14057445Y-15730215D01*
X14057445Y-15730215D02*
X14047921Y-15749263D01*
X14047921Y-15749263D02*
X14038397Y-15758787D01*
X14038397Y-15758787D02*
X14019349Y-15768310D01*
X14019349Y-15768310D02*
X14000302Y-15768310D01*
X14000302Y-15768310D02*
X13981254Y-15758787D01*
X13981254Y-15758787D02*
X13971730Y-15749263D01*
X13971730Y-15749263D02*
X13962207Y-15730215D01*
X13962207Y-15730215D02*
X13952683Y-15692120D01*
X13952683Y-15692120D02*
X13952683Y-15644501D01*
X13952683Y-15644501D02*
X13962207Y-15606406D01*
X13962207Y-15606406D02*
X13971730Y-15587358D01*
X13971730Y-15587358D02*
X13981254Y-15577834D01*
X13981254Y-15577834D02*
X14000302Y-15568310D01*
X14133635Y-15568310D02*
X14257445Y-15568310D01*
X14257445Y-15568310D02*
X14190778Y-15644501D01*
X14190778Y-15644501D02*
X14219349Y-15644501D01*
X14219349Y-15644501D02*
X14238397Y-15654025D01*
X14238397Y-15654025D02*
X14247921Y-15663548D01*
X14247921Y-15663548D02*
X14257445Y-15682596D01*
X14257445Y-15682596D02*
X14257445Y-15730215D01*
X14257445Y-15730215D02*
X14247921Y-15749263D01*
X14247921Y-15749263D02*
X14238397Y-15758787D01*
X14238397Y-15758787D02*
X14219349Y-15768310D01*
X14219349Y-15768310D02*
X14162207Y-15768310D01*
X14162207Y-15768310D02*
X14143159Y-15758787D01*
X14143159Y-15758787D02*
X14133635Y-15749263D01*
X14352683Y-15768310D02*
X14390778Y-15768310D01*
X14390778Y-15768310D02*
X14409826Y-15758787D01*
X14409826Y-15758787D02*
X14419349Y-15749263D01*
X14419349Y-15749263D02*
X14438397Y-15720691D01*
X14438397Y-15720691D02*
X14447921Y-15682596D01*
X14447921Y-15682596D02*
X14447921Y-15606406D01*
X14447921Y-15606406D02*
X14438397Y-15587358D01*
X14438397Y-15587358D02*
X14428873Y-15577834D01*
X14428873Y-15577834D02*
X14409826Y-15568310D01*
X14409826Y-15568310D02*
X14371730Y-15568310D01*
X14371730Y-15568310D02*
X14352683Y-15577834D01*
X14352683Y-15577834D02*
X14343159Y-15587358D01*
X14343159Y-15587358D02*
X14333635Y-15606406D01*
X14333635Y-15606406D02*
X14333635Y-15654025D01*
X14333635Y-15654025D02*
X14343159Y-15673072D01*
X14343159Y-15673072D02*
X14352683Y-15682596D01*
X14352683Y-15682596D02*
X14371730Y-15692120D01*
X14371730Y-15692120D02*
X14409826Y-15692120D01*
X14409826Y-15692120D02*
X14428873Y-15682596D01*
X14428873Y-15682596D02*
X14438397Y-15673072D01*
X14438397Y-15673072D02*
X14447921Y-15654025D01*
X14619349Y-15634977D02*
X14619349Y-15768310D01*
X14571730Y-15558787D02*
X14524111Y-15701644D01*
X14524111Y-15701644D02*
X14647921Y-15701644D01*
X14714588Y-15568310D02*
X14714588Y-15606406D01*
X14790778Y-15568310D02*
X14790778Y-15606406D01*
X15086016Y-15844501D02*
X15076492Y-15834977D01*
X15076492Y-15834977D02*
X15057445Y-15806406D01*
X15057445Y-15806406D02*
X15047921Y-15787358D01*
X15047921Y-15787358D02*
X15038397Y-15758787D01*
X15038397Y-15758787D02*
X15028873Y-15711167D01*
X15028873Y-15711167D02*
X15028873Y-15673072D01*
X15028873Y-15673072D02*
X15038397Y-15625453D01*
X15038397Y-15625453D02*
X15047921Y-15596882D01*
X15047921Y-15596882D02*
X15057445Y-15577834D01*
X15057445Y-15577834D02*
X15076492Y-15549263D01*
X15076492Y-15549263D02*
X15086016Y-15539739D01*
X15152683Y-15587358D02*
X15162207Y-15577834D01*
X15162207Y-15577834D02*
X15181254Y-15568310D01*
X15181254Y-15568310D02*
X15228873Y-15568310D01*
X15228873Y-15568310D02*
X15247921Y-15577834D01*
X15247921Y-15577834D02*
X15257445Y-15587358D01*
X15257445Y-15587358D02*
X15266969Y-15606406D01*
X15266969Y-15606406D02*
X15266969Y-15625453D01*
X15266969Y-15625453D02*
X15257445Y-15654025D01*
X15257445Y-15654025D02*
X15143159Y-15768310D01*
X15143159Y-15768310D02*
X15266969Y-15768310D01*
X15390778Y-15568310D02*
X15409826Y-15568310D01*
X15409826Y-15568310D02*
X15428873Y-15577834D01*
X15428873Y-15577834D02*
X15438397Y-15587358D01*
X15438397Y-15587358D02*
X15447921Y-15606406D01*
X15447921Y-15606406D02*
X15457445Y-15644501D01*
X15457445Y-15644501D02*
X15457445Y-15692120D01*
X15457445Y-15692120D02*
X15447921Y-15730215D01*
X15447921Y-15730215D02*
X15438397Y-15749263D01*
X15438397Y-15749263D02*
X15428873Y-15758787D01*
X15428873Y-15758787D02*
X15409826Y-15768310D01*
X15409826Y-15768310D02*
X15390778Y-15768310D01*
X15390778Y-15768310D02*
X15371730Y-15758787D01*
X15371730Y-15758787D02*
X15362207Y-15749263D01*
X15362207Y-15749263D02*
X15352683Y-15730215D01*
X15352683Y-15730215D02*
X15343159Y-15692120D01*
X15343159Y-15692120D02*
X15343159Y-15644501D01*
X15343159Y-15644501D02*
X15352683Y-15606406D01*
X15352683Y-15606406D02*
X15362207Y-15587358D01*
X15362207Y-15587358D02*
X15371730Y-15577834D01*
X15371730Y-15577834D02*
X15390778Y-15568310D01*
X15695540Y-15768310D02*
X15695540Y-15568310D01*
X15781254Y-15768310D02*
X15781254Y-15663548D01*
X15781254Y-15663548D02*
X15771731Y-15644501D01*
X15771731Y-15644501D02*
X15752683Y-15634977D01*
X15752683Y-15634977D02*
X15724111Y-15634977D01*
X15724111Y-15634977D02*
X15705064Y-15644501D01*
X15705064Y-15644501D02*
X15695540Y-15654025D01*
X15905064Y-15768310D02*
X15886016Y-15758787D01*
X15886016Y-15758787D02*
X15876492Y-15749263D01*
X15876492Y-15749263D02*
X15866969Y-15730215D01*
X15866969Y-15730215D02*
X15866969Y-15673072D01*
X15866969Y-15673072D02*
X15876492Y-15654025D01*
X15876492Y-15654025D02*
X15886016Y-15644501D01*
X15886016Y-15644501D02*
X15905064Y-15634977D01*
X15905064Y-15634977D02*
X15933635Y-15634977D01*
X15933635Y-15634977D02*
X15952683Y-15644501D01*
X15952683Y-15644501D02*
X15962207Y-15654025D01*
X15962207Y-15654025D02*
X15971731Y-15673072D01*
X15971731Y-15673072D02*
X15971731Y-15730215D01*
X15971731Y-15730215D02*
X15962207Y-15749263D01*
X15962207Y-15749263D02*
X15952683Y-15758787D01*
X15952683Y-15758787D02*
X15933635Y-15768310D01*
X15933635Y-15768310D02*
X15905064Y-15768310D01*
X16086016Y-15768310D02*
X16066969Y-15758787D01*
X16066969Y-15758787D02*
X16057445Y-15739739D01*
X16057445Y-15739739D02*
X16057445Y-15568310D01*
X16238397Y-15758787D02*
X16219350Y-15768310D01*
X16219350Y-15768310D02*
X16181254Y-15768310D01*
X16181254Y-15768310D02*
X16162207Y-15758787D01*
X16162207Y-15758787D02*
X16152683Y-15739739D01*
X16152683Y-15739739D02*
X16152683Y-15663548D01*
X16152683Y-15663548D02*
X16162207Y-15644501D01*
X16162207Y-15644501D02*
X16181254Y-15634977D01*
X16181254Y-15634977D02*
X16219350Y-15634977D01*
X16219350Y-15634977D02*
X16238397Y-15644501D01*
X16238397Y-15644501D02*
X16247921Y-15663548D01*
X16247921Y-15663548D02*
X16247921Y-15682596D01*
X16247921Y-15682596D02*
X16152683Y-15701644D01*
X16324112Y-15758787D02*
X16343159Y-15768310D01*
X16343159Y-15768310D02*
X16381254Y-15768310D01*
X16381254Y-15768310D02*
X16400302Y-15758787D01*
X16400302Y-15758787D02*
X16409826Y-15739739D01*
X16409826Y-15739739D02*
X16409826Y-15730215D01*
X16409826Y-15730215D02*
X16400302Y-15711167D01*
X16400302Y-15711167D02*
X16381254Y-15701644D01*
X16381254Y-15701644D02*
X16352683Y-15701644D01*
X16352683Y-15701644D02*
X16333635Y-15692120D01*
X16333635Y-15692120D02*
X16324112Y-15673072D01*
X16324112Y-15673072D02*
X16324112Y-15663548D01*
X16324112Y-15663548D02*
X16333635Y-15644501D01*
X16333635Y-15644501D02*
X16352683Y-15634977D01*
X16352683Y-15634977D02*
X16381254Y-15634977D01*
X16381254Y-15634977D02*
X16400302Y-15644501D01*
X16476493Y-15844501D02*
X16486016Y-15834977D01*
X16486016Y-15834977D02*
X16505064Y-15806406D01*
X16505064Y-15806406D02*
X16514588Y-15787358D01*
X16514588Y-15787358D02*
X16524112Y-15758787D01*
X16524112Y-15758787D02*
X16533635Y-15711167D01*
X16533635Y-15711167D02*
X16533635Y-15673072D01*
X16533635Y-15673072D02*
X16524112Y-15625453D01*
X16524112Y-15625453D02*
X16514588Y-15596882D01*
X16514588Y-15596882D02*
X16505064Y-15577834D01*
X16505064Y-15577834D02*
X16486016Y-15549263D01*
X16486016Y-15549263D02*
X16476493Y-15539739D01*
D13*
X11405953Y-15888327D02*
X11510953Y-15993327D01*
X11510953Y-15888327D02*
X11405953Y-15993327D01*
X11458453Y-15888327D02*
X11458453Y-15993327D01*
X11405953Y-15940827D02*
X11510953Y-15940827D01*
D11*
X11876492Y-16032310D02*
X11762206Y-16032310D01*
X11819349Y-16032310D02*
X11819349Y-15832310D01*
X11819349Y-15832310D02*
X11800302Y-15860882D01*
X11800302Y-15860882D02*
X11781254Y-15879929D01*
X11781254Y-15879929D02*
X11762206Y-15889453D01*
X11962206Y-16013263D02*
X11971730Y-16022787D01*
X11971730Y-16022787D02*
X11962206Y-16032310D01*
X11962206Y-16032310D02*
X11952683Y-16022787D01*
X11952683Y-16022787D02*
X11962206Y-16013263D01*
X11962206Y-16013263D02*
X11962206Y-16032310D01*
X12095540Y-15832310D02*
X12114587Y-15832310D01*
X12114587Y-15832310D02*
X12133635Y-15841834D01*
X12133635Y-15841834D02*
X12143159Y-15851358D01*
X12143159Y-15851358D02*
X12152683Y-15870406D01*
X12152683Y-15870406D02*
X12162206Y-15908501D01*
X12162206Y-15908501D02*
X12162206Y-15956120D01*
X12162206Y-15956120D02*
X12152683Y-15994215D01*
X12152683Y-15994215D02*
X12143159Y-16013263D01*
X12143159Y-16013263D02*
X12133635Y-16022787D01*
X12133635Y-16022787D02*
X12114587Y-16032310D01*
X12114587Y-16032310D02*
X12095540Y-16032310D01*
X12095540Y-16032310D02*
X12076492Y-16022787D01*
X12076492Y-16022787D02*
X12066968Y-16013263D01*
X12066968Y-16013263D02*
X12057444Y-15994215D01*
X12057444Y-15994215D02*
X12047921Y-15956120D01*
X12047921Y-15956120D02*
X12047921Y-15908501D01*
X12047921Y-15908501D02*
X12057444Y-15870406D01*
X12057444Y-15870406D02*
X12066968Y-15851358D01*
X12066968Y-15851358D02*
X12076492Y-15841834D01*
X12076492Y-15841834D02*
X12095540Y-15832310D01*
X12343159Y-15832310D02*
X12247921Y-15832310D01*
X12247921Y-15832310D02*
X12238397Y-15927548D01*
X12238397Y-15927548D02*
X12247921Y-15918025D01*
X12247921Y-15918025D02*
X12266968Y-15908501D01*
X12266968Y-15908501D02*
X12314587Y-15908501D01*
X12314587Y-15908501D02*
X12333635Y-15918025D01*
X12333635Y-15918025D02*
X12343159Y-15927548D01*
X12343159Y-15927548D02*
X12352683Y-15946596D01*
X12352683Y-15946596D02*
X12352683Y-15994215D01*
X12352683Y-15994215D02*
X12343159Y-16013263D01*
X12343159Y-16013263D02*
X12333635Y-16022787D01*
X12333635Y-16022787D02*
X12314587Y-16032310D01*
X12314587Y-16032310D02*
X12266968Y-16032310D01*
X12266968Y-16032310D02*
X12247921Y-16022787D01*
X12247921Y-16022787D02*
X12238397Y-16013263D01*
X12476492Y-15832310D02*
X12495540Y-15832310D01*
X12495540Y-15832310D02*
X12514587Y-15841834D01*
X12514587Y-15841834D02*
X12524111Y-15851358D01*
X12524111Y-15851358D02*
X12533635Y-15870406D01*
X12533635Y-15870406D02*
X12543159Y-15908501D01*
X12543159Y-15908501D02*
X12543159Y-15956120D01*
X12543159Y-15956120D02*
X12533635Y-15994215D01*
X12533635Y-15994215D02*
X12524111Y-16013263D01*
X12524111Y-16013263D02*
X12514587Y-16022787D01*
X12514587Y-16022787D02*
X12495540Y-16032310D01*
X12495540Y-16032310D02*
X12476492Y-16032310D01*
X12476492Y-16032310D02*
X12457444Y-16022787D01*
X12457444Y-16022787D02*
X12447921Y-16013263D01*
X12447921Y-16013263D02*
X12438397Y-15994215D01*
X12438397Y-15994215D02*
X12428873Y-15956120D01*
X12428873Y-15956120D02*
X12428873Y-15908501D01*
X12428873Y-15908501D02*
X12438397Y-15870406D01*
X12438397Y-15870406D02*
X12447921Y-15851358D01*
X12447921Y-15851358D02*
X12457444Y-15841834D01*
X12457444Y-15841834D02*
X12476492Y-15832310D01*
X12628873Y-16032310D02*
X12628873Y-15898977D01*
X12628873Y-15918025D02*
X12638397Y-15908501D01*
X12638397Y-15908501D02*
X12657444Y-15898977D01*
X12657444Y-15898977D02*
X12686016Y-15898977D01*
X12686016Y-15898977D02*
X12705064Y-15908501D01*
X12705064Y-15908501D02*
X12714587Y-15927548D01*
X12714587Y-15927548D02*
X12714587Y-16032310D01*
X12714587Y-15927548D02*
X12724111Y-15908501D01*
X12724111Y-15908501D02*
X12743159Y-15898977D01*
X12743159Y-15898977D02*
X12771730Y-15898977D01*
X12771730Y-15898977D02*
X12790778Y-15908501D01*
X12790778Y-15908501D02*
X12800302Y-15927548D01*
X12800302Y-15927548D02*
X12800302Y-16032310D01*
X12895540Y-16032310D02*
X12895540Y-15898977D01*
X12895540Y-15918025D02*
X12905064Y-15908501D01*
X12905064Y-15908501D02*
X12924111Y-15898977D01*
X12924111Y-15898977D02*
X12952683Y-15898977D01*
X12952683Y-15898977D02*
X12971730Y-15908501D01*
X12971730Y-15908501D02*
X12981254Y-15927548D01*
X12981254Y-15927548D02*
X12981254Y-16032310D01*
X12981254Y-15927548D02*
X12990778Y-15908501D01*
X12990778Y-15908501D02*
X13009825Y-15898977D01*
X13009825Y-15898977D02*
X13038397Y-15898977D01*
X13038397Y-15898977D02*
X13057445Y-15908501D01*
X13057445Y-15908501D02*
X13066968Y-15927548D01*
X13066968Y-15927548D02*
X13066968Y-16032310D01*
X13457445Y-15822787D02*
X13286016Y-16079929D01*
X13714587Y-15832310D02*
X13733635Y-15832310D01*
X13733635Y-15832310D02*
X13752683Y-15841834D01*
X13752683Y-15841834D02*
X13762207Y-15851358D01*
X13762207Y-15851358D02*
X13771730Y-15870406D01*
X13771730Y-15870406D02*
X13781254Y-15908501D01*
X13781254Y-15908501D02*
X13781254Y-15956120D01*
X13781254Y-15956120D02*
X13771730Y-15994215D01*
X13771730Y-15994215D02*
X13762207Y-16013263D01*
X13762207Y-16013263D02*
X13752683Y-16022787D01*
X13752683Y-16022787D02*
X13733635Y-16032310D01*
X13733635Y-16032310D02*
X13714587Y-16032310D01*
X13714587Y-16032310D02*
X13695540Y-16022787D01*
X13695540Y-16022787D02*
X13686016Y-16013263D01*
X13686016Y-16013263D02*
X13676492Y-15994215D01*
X13676492Y-15994215D02*
X13666968Y-15956120D01*
X13666968Y-15956120D02*
X13666968Y-15908501D01*
X13666968Y-15908501D02*
X13676492Y-15870406D01*
X13676492Y-15870406D02*
X13686016Y-15851358D01*
X13686016Y-15851358D02*
X13695540Y-15841834D01*
X13695540Y-15841834D02*
X13714587Y-15832310D01*
X13866968Y-16013263D02*
X13876492Y-16022787D01*
X13876492Y-16022787D02*
X13866968Y-16032310D01*
X13866968Y-16032310D02*
X13857445Y-16022787D01*
X13857445Y-16022787D02*
X13866968Y-16013263D01*
X13866968Y-16013263D02*
X13866968Y-16032310D01*
X14000302Y-15832310D02*
X14019349Y-15832310D01*
X14019349Y-15832310D02*
X14038397Y-15841834D01*
X14038397Y-15841834D02*
X14047921Y-15851358D01*
X14047921Y-15851358D02*
X14057445Y-15870406D01*
X14057445Y-15870406D02*
X14066968Y-15908501D01*
X14066968Y-15908501D02*
X14066968Y-15956120D01*
X14066968Y-15956120D02*
X14057445Y-15994215D01*
X14057445Y-15994215D02*
X14047921Y-16013263D01*
X14047921Y-16013263D02*
X14038397Y-16022787D01*
X14038397Y-16022787D02*
X14019349Y-16032310D01*
X14019349Y-16032310D02*
X14000302Y-16032310D01*
X14000302Y-16032310D02*
X13981254Y-16022787D01*
X13981254Y-16022787D02*
X13971730Y-16013263D01*
X13971730Y-16013263D02*
X13962207Y-15994215D01*
X13962207Y-15994215D02*
X13952683Y-15956120D01*
X13952683Y-15956120D02*
X13952683Y-15908501D01*
X13952683Y-15908501D02*
X13962207Y-15870406D01*
X13962207Y-15870406D02*
X13971730Y-15851358D01*
X13971730Y-15851358D02*
X13981254Y-15841834D01*
X13981254Y-15841834D02*
X14000302Y-15832310D01*
X14238397Y-15898977D02*
X14238397Y-16032310D01*
X14190778Y-15822787D02*
X14143159Y-15965644D01*
X14143159Y-15965644D02*
X14266968Y-15965644D01*
X14447921Y-16032310D02*
X14333635Y-16032310D01*
X14390778Y-16032310D02*
X14390778Y-15832310D01*
X14390778Y-15832310D02*
X14371730Y-15860882D01*
X14371730Y-15860882D02*
X14352683Y-15879929D01*
X14352683Y-15879929D02*
X14333635Y-15889453D01*
X14514588Y-15832310D02*
X14638397Y-15832310D01*
X14638397Y-15832310D02*
X14571730Y-15908501D01*
X14571730Y-15908501D02*
X14600302Y-15908501D01*
X14600302Y-15908501D02*
X14619349Y-15918025D01*
X14619349Y-15918025D02*
X14628873Y-15927548D01*
X14628873Y-15927548D02*
X14638397Y-15946596D01*
X14638397Y-15946596D02*
X14638397Y-15994215D01*
X14638397Y-15994215D02*
X14628873Y-16013263D01*
X14628873Y-16013263D02*
X14619349Y-16022787D01*
X14619349Y-16022787D02*
X14600302Y-16032310D01*
X14600302Y-16032310D02*
X14543159Y-16032310D01*
X14543159Y-16032310D02*
X14524111Y-16022787D01*
X14524111Y-16022787D02*
X14514588Y-16013263D01*
X14714588Y-15832310D02*
X14714588Y-15870406D01*
X14790778Y-15832310D02*
X14790778Y-15870406D01*
X15086016Y-16108501D02*
X15076492Y-16098977D01*
X15076492Y-16098977D02*
X15057445Y-16070406D01*
X15057445Y-16070406D02*
X15047921Y-16051358D01*
X15047921Y-16051358D02*
X15038397Y-16022787D01*
X15038397Y-16022787D02*
X15028873Y-15975167D01*
X15028873Y-15975167D02*
X15028873Y-15937072D01*
X15028873Y-15937072D02*
X15038397Y-15889453D01*
X15038397Y-15889453D02*
X15047921Y-15860882D01*
X15047921Y-15860882D02*
X15057445Y-15841834D01*
X15057445Y-15841834D02*
X15076492Y-15813263D01*
X15076492Y-15813263D02*
X15086016Y-15803739D01*
X15266969Y-16032310D02*
X15152683Y-16032310D01*
X15209826Y-16032310D02*
X15209826Y-15832310D01*
X15209826Y-15832310D02*
X15190778Y-15860882D01*
X15190778Y-15860882D02*
X15171730Y-15879929D01*
X15171730Y-15879929D02*
X15152683Y-15889453D01*
X15390778Y-15832310D02*
X15409826Y-15832310D01*
X15409826Y-15832310D02*
X15428873Y-15841834D01*
X15428873Y-15841834D02*
X15438397Y-15851358D01*
X15438397Y-15851358D02*
X15447921Y-15870406D01*
X15447921Y-15870406D02*
X15457445Y-15908501D01*
X15457445Y-15908501D02*
X15457445Y-15956120D01*
X15457445Y-15956120D02*
X15447921Y-15994215D01*
X15447921Y-15994215D02*
X15438397Y-16013263D01*
X15438397Y-16013263D02*
X15428873Y-16022787D01*
X15428873Y-16022787D02*
X15409826Y-16032310D01*
X15409826Y-16032310D02*
X15390778Y-16032310D01*
X15390778Y-16032310D02*
X15371730Y-16022787D01*
X15371730Y-16022787D02*
X15362207Y-16013263D01*
X15362207Y-16013263D02*
X15352683Y-15994215D01*
X15352683Y-15994215D02*
X15343159Y-15956120D01*
X15343159Y-15956120D02*
X15343159Y-15908501D01*
X15343159Y-15908501D02*
X15352683Y-15870406D01*
X15352683Y-15870406D02*
X15362207Y-15851358D01*
X15362207Y-15851358D02*
X15371730Y-15841834D01*
X15371730Y-15841834D02*
X15390778Y-15832310D01*
X15695540Y-16032310D02*
X15695540Y-15832310D01*
X15781254Y-16032310D02*
X15781254Y-15927548D01*
X15781254Y-15927548D02*
X15771731Y-15908501D01*
X15771731Y-15908501D02*
X15752683Y-15898977D01*
X15752683Y-15898977D02*
X15724111Y-15898977D01*
X15724111Y-15898977D02*
X15705064Y-15908501D01*
X15705064Y-15908501D02*
X15695540Y-15918025D01*
X15905064Y-16032310D02*
X15886016Y-16022787D01*
X15886016Y-16022787D02*
X15876492Y-16013263D01*
X15876492Y-16013263D02*
X15866969Y-15994215D01*
X15866969Y-15994215D02*
X15866969Y-15937072D01*
X15866969Y-15937072D02*
X15876492Y-15918025D01*
X15876492Y-15918025D02*
X15886016Y-15908501D01*
X15886016Y-15908501D02*
X15905064Y-15898977D01*
X15905064Y-15898977D02*
X15933635Y-15898977D01*
X15933635Y-15898977D02*
X15952683Y-15908501D01*
X15952683Y-15908501D02*
X15962207Y-15918025D01*
X15962207Y-15918025D02*
X15971731Y-15937072D01*
X15971731Y-15937072D02*
X15971731Y-15994215D01*
X15971731Y-15994215D02*
X15962207Y-16013263D01*
X15962207Y-16013263D02*
X15952683Y-16022787D01*
X15952683Y-16022787D02*
X15933635Y-16032310D01*
X15933635Y-16032310D02*
X15905064Y-16032310D01*
X16086016Y-16032310D02*
X16066969Y-16022787D01*
X16066969Y-16022787D02*
X16057445Y-16003739D01*
X16057445Y-16003739D02*
X16057445Y-15832310D01*
X16238397Y-16022787D02*
X16219350Y-16032310D01*
X16219350Y-16032310D02*
X16181254Y-16032310D01*
X16181254Y-16032310D02*
X16162207Y-16022787D01*
X16162207Y-16022787D02*
X16152683Y-16003739D01*
X16152683Y-16003739D02*
X16152683Y-15927548D01*
X16152683Y-15927548D02*
X16162207Y-15908501D01*
X16162207Y-15908501D02*
X16181254Y-15898977D01*
X16181254Y-15898977D02*
X16219350Y-15898977D01*
X16219350Y-15898977D02*
X16238397Y-15908501D01*
X16238397Y-15908501D02*
X16247921Y-15927548D01*
X16247921Y-15927548D02*
X16247921Y-15946596D01*
X16247921Y-15946596D02*
X16152683Y-15965644D01*
X16324112Y-16022787D02*
X16343159Y-16032310D01*
X16343159Y-16032310D02*
X16381254Y-16032310D01*
X16381254Y-16032310D02*
X16400302Y-16022787D01*
X16400302Y-16022787D02*
X16409826Y-16003739D01*
X16409826Y-16003739D02*
X16409826Y-15994215D01*
X16409826Y-15994215D02*
X16400302Y-15975167D01*
X16400302Y-15975167D02*
X16381254Y-15965644D01*
X16381254Y-15965644D02*
X16352683Y-15965644D01*
X16352683Y-15965644D02*
X16333635Y-15956120D01*
X16333635Y-15956120D02*
X16324112Y-15937072D01*
X16324112Y-15937072D02*
X16324112Y-15927548D01*
X16324112Y-15927548D02*
X16333635Y-15908501D01*
X16333635Y-15908501D02*
X16352683Y-15898977D01*
X16352683Y-15898977D02*
X16381254Y-15898977D01*
X16381254Y-15898977D02*
X16400302Y-15908501D01*
X16476493Y-16108501D02*
X16486016Y-16098977D01*
X16486016Y-16098977D02*
X16505064Y-16070406D01*
X16505064Y-16070406D02*
X16514588Y-16051358D01*
X16514588Y-16051358D02*
X16524112Y-16022787D01*
X16524112Y-16022787D02*
X16533635Y-15975167D01*
X16533635Y-15975167D02*
X16533635Y-15937072D01*
X16533635Y-15937072D02*
X16524112Y-15889453D01*
X16524112Y-15889453D02*
X16514588Y-15860882D01*
X16514588Y-15860882D02*
X16505064Y-15841834D01*
X16505064Y-15841834D02*
X16486016Y-15813263D01*
X16486016Y-15813263D02*
X16476493Y-15803739D01*
D14*
X11380953Y-16139827D02*
X11510953Y-16269827D01*
X11510953Y-16139827D02*
X11380953Y-16269827D01*
X11491916Y-16250789D02*
X11491916Y-16158864D01*
X11399991Y-16158864D01*
X11399991Y-16250789D01*
X11491916Y-16250789D01*
D11*
X11876492Y-16296310D02*
X11762206Y-16296310D01*
X11819349Y-16296310D02*
X11819349Y-16096310D01*
X11819349Y-16096310D02*
X11800302Y-16124882D01*
X11800302Y-16124882D02*
X11781254Y-16143929D01*
X11781254Y-16143929D02*
X11762206Y-16153453D01*
X11962206Y-16277263D02*
X11971730Y-16286787D01*
X11971730Y-16286787D02*
X11962206Y-16296310D01*
X11962206Y-16296310D02*
X11952683Y-16286787D01*
X11952683Y-16286787D02*
X11962206Y-16277263D01*
X11962206Y-16277263D02*
X11962206Y-16296310D01*
X12038397Y-16096310D02*
X12162206Y-16096310D01*
X12162206Y-16096310D02*
X12095540Y-16172501D01*
X12095540Y-16172501D02*
X12124111Y-16172501D01*
X12124111Y-16172501D02*
X12143159Y-16182025D01*
X12143159Y-16182025D02*
X12152683Y-16191548D01*
X12152683Y-16191548D02*
X12162206Y-16210596D01*
X12162206Y-16210596D02*
X12162206Y-16258215D01*
X12162206Y-16258215D02*
X12152683Y-16277263D01*
X12152683Y-16277263D02*
X12143159Y-16286787D01*
X12143159Y-16286787D02*
X12124111Y-16296310D01*
X12124111Y-16296310D02*
X12066968Y-16296310D01*
X12066968Y-16296310D02*
X12047921Y-16286787D01*
X12047921Y-16286787D02*
X12038397Y-16277263D01*
X12286016Y-16096310D02*
X12305064Y-16096310D01*
X12305064Y-16096310D02*
X12324111Y-16105834D01*
X12324111Y-16105834D02*
X12333635Y-16115358D01*
X12333635Y-16115358D02*
X12343159Y-16134406D01*
X12343159Y-16134406D02*
X12352683Y-16172501D01*
X12352683Y-16172501D02*
X12352683Y-16220120D01*
X12352683Y-16220120D02*
X12343159Y-16258215D01*
X12343159Y-16258215D02*
X12333635Y-16277263D01*
X12333635Y-16277263D02*
X12324111Y-16286787D01*
X12324111Y-16286787D02*
X12305064Y-16296310D01*
X12305064Y-16296310D02*
X12286016Y-16296310D01*
X12286016Y-16296310D02*
X12266968Y-16286787D01*
X12266968Y-16286787D02*
X12257444Y-16277263D01*
X12257444Y-16277263D02*
X12247921Y-16258215D01*
X12247921Y-16258215D02*
X12238397Y-16220120D01*
X12238397Y-16220120D02*
X12238397Y-16172501D01*
X12238397Y-16172501D02*
X12247921Y-16134406D01*
X12247921Y-16134406D02*
X12257444Y-16115358D01*
X12257444Y-16115358D02*
X12266968Y-16105834D01*
X12266968Y-16105834D02*
X12286016Y-16096310D01*
X12476492Y-16096310D02*
X12495540Y-16096310D01*
X12495540Y-16096310D02*
X12514587Y-16105834D01*
X12514587Y-16105834D02*
X12524111Y-16115358D01*
X12524111Y-16115358D02*
X12533635Y-16134406D01*
X12533635Y-16134406D02*
X12543159Y-16172501D01*
X12543159Y-16172501D02*
X12543159Y-16220120D01*
X12543159Y-16220120D02*
X12533635Y-16258215D01*
X12533635Y-16258215D02*
X12524111Y-16277263D01*
X12524111Y-16277263D02*
X12514587Y-16286787D01*
X12514587Y-16286787D02*
X12495540Y-16296310D01*
X12495540Y-16296310D02*
X12476492Y-16296310D01*
X12476492Y-16296310D02*
X12457444Y-16286787D01*
X12457444Y-16286787D02*
X12447921Y-16277263D01*
X12447921Y-16277263D02*
X12438397Y-16258215D01*
X12438397Y-16258215D02*
X12428873Y-16220120D01*
X12428873Y-16220120D02*
X12428873Y-16172501D01*
X12428873Y-16172501D02*
X12438397Y-16134406D01*
X12438397Y-16134406D02*
X12447921Y-16115358D01*
X12447921Y-16115358D02*
X12457444Y-16105834D01*
X12457444Y-16105834D02*
X12476492Y-16096310D01*
X12628873Y-16296310D02*
X12628873Y-16162977D01*
X12628873Y-16182025D02*
X12638397Y-16172501D01*
X12638397Y-16172501D02*
X12657444Y-16162977D01*
X12657444Y-16162977D02*
X12686016Y-16162977D01*
X12686016Y-16162977D02*
X12705064Y-16172501D01*
X12705064Y-16172501D02*
X12714587Y-16191548D01*
X12714587Y-16191548D02*
X12714587Y-16296310D01*
X12714587Y-16191548D02*
X12724111Y-16172501D01*
X12724111Y-16172501D02*
X12743159Y-16162977D01*
X12743159Y-16162977D02*
X12771730Y-16162977D01*
X12771730Y-16162977D02*
X12790778Y-16172501D01*
X12790778Y-16172501D02*
X12800302Y-16191548D01*
X12800302Y-16191548D02*
X12800302Y-16296310D01*
X12895540Y-16296310D02*
X12895540Y-16162977D01*
X12895540Y-16182025D02*
X12905064Y-16172501D01*
X12905064Y-16172501D02*
X12924111Y-16162977D01*
X12924111Y-16162977D02*
X12952683Y-16162977D01*
X12952683Y-16162977D02*
X12971730Y-16172501D01*
X12971730Y-16172501D02*
X12981254Y-16191548D01*
X12981254Y-16191548D02*
X12981254Y-16296310D01*
X12981254Y-16191548D02*
X12990778Y-16172501D01*
X12990778Y-16172501D02*
X13009825Y-16162977D01*
X13009825Y-16162977D02*
X13038397Y-16162977D01*
X13038397Y-16162977D02*
X13057445Y-16172501D01*
X13057445Y-16172501D02*
X13066968Y-16191548D01*
X13066968Y-16191548D02*
X13066968Y-16296310D01*
X13457445Y-16086787D02*
X13286016Y-16343929D01*
X13714587Y-16096310D02*
X13733635Y-16096310D01*
X13733635Y-16096310D02*
X13752683Y-16105834D01*
X13752683Y-16105834D02*
X13762207Y-16115358D01*
X13762207Y-16115358D02*
X13771730Y-16134406D01*
X13771730Y-16134406D02*
X13781254Y-16172501D01*
X13781254Y-16172501D02*
X13781254Y-16220120D01*
X13781254Y-16220120D02*
X13771730Y-16258215D01*
X13771730Y-16258215D02*
X13762207Y-16277263D01*
X13762207Y-16277263D02*
X13752683Y-16286787D01*
X13752683Y-16286787D02*
X13733635Y-16296310D01*
X13733635Y-16296310D02*
X13714587Y-16296310D01*
X13714587Y-16296310D02*
X13695540Y-16286787D01*
X13695540Y-16286787D02*
X13686016Y-16277263D01*
X13686016Y-16277263D02*
X13676492Y-16258215D01*
X13676492Y-16258215D02*
X13666968Y-16220120D01*
X13666968Y-16220120D02*
X13666968Y-16172501D01*
X13666968Y-16172501D02*
X13676492Y-16134406D01*
X13676492Y-16134406D02*
X13686016Y-16115358D01*
X13686016Y-16115358D02*
X13695540Y-16105834D01*
X13695540Y-16105834D02*
X13714587Y-16096310D01*
X13866968Y-16277263D02*
X13876492Y-16286787D01*
X13876492Y-16286787D02*
X13866968Y-16296310D01*
X13866968Y-16296310D02*
X13857445Y-16286787D01*
X13857445Y-16286787D02*
X13866968Y-16277263D01*
X13866968Y-16277263D02*
X13866968Y-16296310D01*
X14000302Y-16096310D02*
X14019349Y-16096310D01*
X14019349Y-16096310D02*
X14038397Y-16105834D01*
X14038397Y-16105834D02*
X14047921Y-16115358D01*
X14047921Y-16115358D02*
X14057445Y-16134406D01*
X14057445Y-16134406D02*
X14066968Y-16172501D01*
X14066968Y-16172501D02*
X14066968Y-16220120D01*
X14066968Y-16220120D02*
X14057445Y-16258215D01*
X14057445Y-16258215D02*
X14047921Y-16277263D01*
X14047921Y-16277263D02*
X14038397Y-16286787D01*
X14038397Y-16286787D02*
X14019349Y-16296310D01*
X14019349Y-16296310D02*
X14000302Y-16296310D01*
X14000302Y-16296310D02*
X13981254Y-16286787D01*
X13981254Y-16286787D02*
X13971730Y-16277263D01*
X13971730Y-16277263D02*
X13962207Y-16258215D01*
X13962207Y-16258215D02*
X13952683Y-16220120D01*
X13952683Y-16220120D02*
X13952683Y-16172501D01*
X13952683Y-16172501D02*
X13962207Y-16134406D01*
X13962207Y-16134406D02*
X13971730Y-16115358D01*
X13971730Y-16115358D02*
X13981254Y-16105834D01*
X13981254Y-16105834D02*
X14000302Y-16096310D01*
X14247921Y-16096310D02*
X14152683Y-16096310D01*
X14152683Y-16096310D02*
X14143159Y-16191548D01*
X14143159Y-16191548D02*
X14152683Y-16182025D01*
X14152683Y-16182025D02*
X14171730Y-16172501D01*
X14171730Y-16172501D02*
X14219349Y-16172501D01*
X14219349Y-16172501D02*
X14238397Y-16182025D01*
X14238397Y-16182025D02*
X14247921Y-16191548D01*
X14247921Y-16191548D02*
X14257445Y-16210596D01*
X14257445Y-16210596D02*
X14257445Y-16258215D01*
X14257445Y-16258215D02*
X14247921Y-16277263D01*
X14247921Y-16277263D02*
X14238397Y-16286787D01*
X14238397Y-16286787D02*
X14219349Y-16296310D01*
X14219349Y-16296310D02*
X14171730Y-16296310D01*
X14171730Y-16296310D02*
X14152683Y-16286787D01*
X14152683Y-16286787D02*
X14143159Y-16277263D01*
X14447921Y-16296310D02*
X14333635Y-16296310D01*
X14390778Y-16296310D02*
X14390778Y-16096310D01*
X14390778Y-16096310D02*
X14371730Y-16124882D01*
X14371730Y-16124882D02*
X14352683Y-16143929D01*
X14352683Y-16143929D02*
X14333635Y-16153453D01*
X14524111Y-16115358D02*
X14533635Y-16105834D01*
X14533635Y-16105834D02*
X14552683Y-16096310D01*
X14552683Y-16096310D02*
X14600302Y-16096310D01*
X14600302Y-16096310D02*
X14619349Y-16105834D01*
X14619349Y-16105834D02*
X14628873Y-16115358D01*
X14628873Y-16115358D02*
X14638397Y-16134406D01*
X14638397Y-16134406D02*
X14638397Y-16153453D01*
X14638397Y-16153453D02*
X14628873Y-16182025D01*
X14628873Y-16182025D02*
X14514588Y-16296310D01*
X14514588Y-16296310D02*
X14638397Y-16296310D01*
X14714588Y-16096310D02*
X14714588Y-16134406D01*
X14790778Y-16096310D02*
X14790778Y-16134406D01*
X15086016Y-16372501D02*
X15076492Y-16362977D01*
X15076492Y-16362977D02*
X15057445Y-16334406D01*
X15057445Y-16334406D02*
X15047921Y-16315358D01*
X15047921Y-16315358D02*
X15038397Y-16286787D01*
X15038397Y-16286787D02*
X15028873Y-16239167D01*
X15028873Y-16239167D02*
X15028873Y-16201072D01*
X15028873Y-16201072D02*
X15038397Y-16153453D01*
X15038397Y-16153453D02*
X15047921Y-16124882D01*
X15047921Y-16124882D02*
X15057445Y-16105834D01*
X15057445Y-16105834D02*
X15076492Y-16077263D01*
X15076492Y-16077263D02*
X15086016Y-16067739D01*
X15257445Y-16096310D02*
X15162207Y-16096310D01*
X15162207Y-16096310D02*
X15152683Y-16191548D01*
X15152683Y-16191548D02*
X15162207Y-16182025D01*
X15162207Y-16182025D02*
X15181254Y-16172501D01*
X15181254Y-16172501D02*
X15228873Y-16172501D01*
X15228873Y-16172501D02*
X15247921Y-16182025D01*
X15247921Y-16182025D02*
X15257445Y-16191548D01*
X15257445Y-16191548D02*
X15266969Y-16210596D01*
X15266969Y-16210596D02*
X15266969Y-16258215D01*
X15266969Y-16258215D02*
X15257445Y-16277263D01*
X15257445Y-16277263D02*
X15247921Y-16286787D01*
X15247921Y-16286787D02*
X15228873Y-16296310D01*
X15228873Y-16296310D02*
X15181254Y-16296310D01*
X15181254Y-16296310D02*
X15162207Y-16286787D01*
X15162207Y-16286787D02*
X15152683Y-16277263D01*
X15505064Y-16296310D02*
X15505064Y-16096310D01*
X15590778Y-16296310D02*
X15590778Y-16191548D01*
X15590778Y-16191548D02*
X15581254Y-16172501D01*
X15581254Y-16172501D02*
X15562207Y-16162977D01*
X15562207Y-16162977D02*
X15533635Y-16162977D01*
X15533635Y-16162977D02*
X15514588Y-16172501D01*
X15514588Y-16172501D02*
X15505064Y-16182025D01*
X15714588Y-16296310D02*
X15695540Y-16286787D01*
X15695540Y-16286787D02*
X15686016Y-16277263D01*
X15686016Y-16277263D02*
X15676492Y-16258215D01*
X15676492Y-16258215D02*
X15676492Y-16201072D01*
X15676492Y-16201072D02*
X15686016Y-16182025D01*
X15686016Y-16182025D02*
X15695540Y-16172501D01*
X15695540Y-16172501D02*
X15714588Y-16162977D01*
X15714588Y-16162977D02*
X15743159Y-16162977D01*
X15743159Y-16162977D02*
X15762207Y-16172501D01*
X15762207Y-16172501D02*
X15771731Y-16182025D01*
X15771731Y-16182025D02*
X15781254Y-16201072D01*
X15781254Y-16201072D02*
X15781254Y-16258215D01*
X15781254Y-16258215D02*
X15771731Y-16277263D01*
X15771731Y-16277263D02*
X15762207Y-16286787D01*
X15762207Y-16286787D02*
X15743159Y-16296310D01*
X15743159Y-16296310D02*
X15714588Y-16296310D01*
X15895540Y-16296310D02*
X15876492Y-16286787D01*
X15876492Y-16286787D02*
X15866969Y-16267739D01*
X15866969Y-16267739D02*
X15866969Y-16096310D01*
X16047921Y-16286787D02*
X16028873Y-16296310D01*
X16028873Y-16296310D02*
X15990778Y-16296310D01*
X15990778Y-16296310D02*
X15971731Y-16286787D01*
X15971731Y-16286787D02*
X15962207Y-16267739D01*
X15962207Y-16267739D02*
X15962207Y-16191548D01*
X15962207Y-16191548D02*
X15971731Y-16172501D01*
X15971731Y-16172501D02*
X15990778Y-16162977D01*
X15990778Y-16162977D02*
X16028873Y-16162977D01*
X16028873Y-16162977D02*
X16047921Y-16172501D01*
X16047921Y-16172501D02*
X16057445Y-16191548D01*
X16057445Y-16191548D02*
X16057445Y-16210596D01*
X16057445Y-16210596D02*
X15962207Y-16229644D01*
X16133635Y-16286787D02*
X16152683Y-16296310D01*
X16152683Y-16296310D02*
X16190778Y-16296310D01*
X16190778Y-16296310D02*
X16209826Y-16286787D01*
X16209826Y-16286787D02*
X16219350Y-16267739D01*
X16219350Y-16267739D02*
X16219350Y-16258215D01*
X16219350Y-16258215D02*
X16209826Y-16239167D01*
X16209826Y-16239167D02*
X16190778Y-16229644D01*
X16190778Y-16229644D02*
X16162207Y-16229644D01*
X16162207Y-16229644D02*
X16143159Y-16220120D01*
X16143159Y-16220120D02*
X16133635Y-16201072D01*
X16133635Y-16201072D02*
X16133635Y-16191548D01*
X16133635Y-16191548D02*
X16143159Y-16172501D01*
X16143159Y-16172501D02*
X16162207Y-16162977D01*
X16162207Y-16162977D02*
X16190778Y-16162977D01*
X16190778Y-16162977D02*
X16209826Y-16172501D01*
X16286016Y-16372501D02*
X16295540Y-16362977D01*
X16295540Y-16362977D02*
X16314588Y-16334406D01*
X16314588Y-16334406D02*
X16324112Y-16315358D01*
X16324112Y-16315358D02*
X16333635Y-16286787D01*
X16333635Y-16286787D02*
X16343159Y-16239167D01*
X16343159Y-16239167D02*
X16343159Y-16201072D01*
X16343159Y-16201072D02*
X16333635Y-16153453D01*
X16333635Y-16153453D02*
X16324112Y-16124882D01*
X16324112Y-16124882D02*
X16314588Y-16105834D01*
X16314588Y-16105834D02*
X16295540Y-16077263D01*
X16295540Y-16077263D02*
X16286016Y-16067739D01*
X11310953Y-16368827D02*
X11510953Y-16568827D01*
X11510953Y-16368827D02*
X11310953Y-16568827D01*
X11410953Y-16568827D02*
X11510953Y-16468827D01*
X11410953Y-16368827D01*
X11310953Y-16468827D01*
X11410953Y-16568827D01*
X11752683Y-16360310D02*
X11876492Y-16360310D01*
X11876492Y-16360310D02*
X11809825Y-16436501D01*
X11809825Y-16436501D02*
X11838397Y-16436501D01*
X11838397Y-16436501D02*
X11857444Y-16446025D01*
X11857444Y-16446025D02*
X11866968Y-16455548D01*
X11866968Y-16455548D02*
X11876492Y-16474596D01*
X11876492Y-16474596D02*
X11876492Y-16522215D01*
X11876492Y-16522215D02*
X11866968Y-16541263D01*
X11866968Y-16541263D02*
X11857444Y-16550787D01*
X11857444Y-16550787D02*
X11838397Y-16560310D01*
X11838397Y-16560310D02*
X11781254Y-16560310D01*
X11781254Y-16560310D02*
X11762206Y-16550787D01*
X11762206Y-16550787D02*
X11752683Y-16541263D01*
X11962206Y-16541263D02*
X11971730Y-16550787D01*
X11971730Y-16550787D02*
X11962206Y-16560310D01*
X11962206Y-16560310D02*
X11952683Y-16550787D01*
X11952683Y-16550787D02*
X11962206Y-16541263D01*
X11962206Y-16541263D02*
X11962206Y-16560310D01*
X12047921Y-16379358D02*
X12057444Y-16369834D01*
X12057444Y-16369834D02*
X12076492Y-16360310D01*
X12076492Y-16360310D02*
X12124111Y-16360310D01*
X12124111Y-16360310D02*
X12143159Y-16369834D01*
X12143159Y-16369834D02*
X12152683Y-16379358D01*
X12152683Y-16379358D02*
X12162206Y-16398406D01*
X12162206Y-16398406D02*
X12162206Y-16417453D01*
X12162206Y-16417453D02*
X12152683Y-16446025D01*
X12152683Y-16446025D02*
X12038397Y-16560310D01*
X12038397Y-16560310D02*
X12162206Y-16560310D01*
X12286016Y-16360310D02*
X12305064Y-16360310D01*
X12305064Y-16360310D02*
X12324111Y-16369834D01*
X12324111Y-16369834D02*
X12333635Y-16379358D01*
X12333635Y-16379358D02*
X12343159Y-16398406D01*
X12343159Y-16398406D02*
X12352683Y-16436501D01*
X12352683Y-16436501D02*
X12352683Y-16484120D01*
X12352683Y-16484120D02*
X12343159Y-16522215D01*
X12343159Y-16522215D02*
X12333635Y-16541263D01*
X12333635Y-16541263D02*
X12324111Y-16550787D01*
X12324111Y-16550787D02*
X12305064Y-16560310D01*
X12305064Y-16560310D02*
X12286016Y-16560310D01*
X12286016Y-16560310D02*
X12266968Y-16550787D01*
X12266968Y-16550787D02*
X12257444Y-16541263D01*
X12257444Y-16541263D02*
X12247921Y-16522215D01*
X12247921Y-16522215D02*
X12238397Y-16484120D01*
X12238397Y-16484120D02*
X12238397Y-16436501D01*
X12238397Y-16436501D02*
X12247921Y-16398406D01*
X12247921Y-16398406D02*
X12257444Y-16379358D01*
X12257444Y-16379358D02*
X12266968Y-16369834D01*
X12266968Y-16369834D02*
X12286016Y-16360310D01*
X12476492Y-16360310D02*
X12495540Y-16360310D01*
X12495540Y-16360310D02*
X12514587Y-16369834D01*
X12514587Y-16369834D02*
X12524111Y-16379358D01*
X12524111Y-16379358D02*
X12533635Y-16398406D01*
X12533635Y-16398406D02*
X12543159Y-16436501D01*
X12543159Y-16436501D02*
X12543159Y-16484120D01*
X12543159Y-16484120D02*
X12533635Y-16522215D01*
X12533635Y-16522215D02*
X12524111Y-16541263D01*
X12524111Y-16541263D02*
X12514587Y-16550787D01*
X12514587Y-16550787D02*
X12495540Y-16560310D01*
X12495540Y-16560310D02*
X12476492Y-16560310D01*
X12476492Y-16560310D02*
X12457444Y-16550787D01*
X12457444Y-16550787D02*
X12447921Y-16541263D01*
X12447921Y-16541263D02*
X12438397Y-16522215D01*
X12438397Y-16522215D02*
X12428873Y-16484120D01*
X12428873Y-16484120D02*
X12428873Y-16436501D01*
X12428873Y-16436501D02*
X12438397Y-16398406D01*
X12438397Y-16398406D02*
X12447921Y-16379358D01*
X12447921Y-16379358D02*
X12457444Y-16369834D01*
X12457444Y-16369834D02*
X12476492Y-16360310D01*
X12628873Y-16560310D02*
X12628873Y-16426977D01*
X12628873Y-16446025D02*
X12638397Y-16436501D01*
X12638397Y-16436501D02*
X12657444Y-16426977D01*
X12657444Y-16426977D02*
X12686016Y-16426977D01*
X12686016Y-16426977D02*
X12705064Y-16436501D01*
X12705064Y-16436501D02*
X12714587Y-16455548D01*
X12714587Y-16455548D02*
X12714587Y-16560310D01*
X12714587Y-16455548D02*
X12724111Y-16436501D01*
X12724111Y-16436501D02*
X12743159Y-16426977D01*
X12743159Y-16426977D02*
X12771730Y-16426977D01*
X12771730Y-16426977D02*
X12790778Y-16436501D01*
X12790778Y-16436501D02*
X12800302Y-16455548D01*
X12800302Y-16455548D02*
X12800302Y-16560310D01*
X12895540Y-16560310D02*
X12895540Y-16426977D01*
X12895540Y-16446025D02*
X12905064Y-16436501D01*
X12905064Y-16436501D02*
X12924111Y-16426977D01*
X12924111Y-16426977D02*
X12952683Y-16426977D01*
X12952683Y-16426977D02*
X12971730Y-16436501D01*
X12971730Y-16436501D02*
X12981254Y-16455548D01*
X12981254Y-16455548D02*
X12981254Y-16560310D01*
X12981254Y-16455548D02*
X12990778Y-16436501D01*
X12990778Y-16436501D02*
X13009825Y-16426977D01*
X13009825Y-16426977D02*
X13038397Y-16426977D01*
X13038397Y-16426977D02*
X13057445Y-16436501D01*
X13057445Y-16436501D02*
X13066968Y-16455548D01*
X13066968Y-16455548D02*
X13066968Y-16560310D01*
X13457445Y-16350787D02*
X13286016Y-16607929D01*
X13714587Y-16360310D02*
X13733635Y-16360310D01*
X13733635Y-16360310D02*
X13752683Y-16369834D01*
X13752683Y-16369834D02*
X13762207Y-16379358D01*
X13762207Y-16379358D02*
X13771730Y-16398406D01*
X13771730Y-16398406D02*
X13781254Y-16436501D01*
X13781254Y-16436501D02*
X13781254Y-16484120D01*
X13781254Y-16484120D02*
X13771730Y-16522215D01*
X13771730Y-16522215D02*
X13762207Y-16541263D01*
X13762207Y-16541263D02*
X13752683Y-16550787D01*
X13752683Y-16550787D02*
X13733635Y-16560310D01*
X13733635Y-16560310D02*
X13714587Y-16560310D01*
X13714587Y-16560310D02*
X13695540Y-16550787D01*
X13695540Y-16550787D02*
X13686016Y-16541263D01*
X13686016Y-16541263D02*
X13676492Y-16522215D01*
X13676492Y-16522215D02*
X13666968Y-16484120D01*
X13666968Y-16484120D02*
X13666968Y-16436501D01*
X13666968Y-16436501D02*
X13676492Y-16398406D01*
X13676492Y-16398406D02*
X13686016Y-16379358D01*
X13686016Y-16379358D02*
X13695540Y-16369834D01*
X13695540Y-16369834D02*
X13714587Y-16360310D01*
X13866968Y-16541263D02*
X13876492Y-16550787D01*
X13876492Y-16550787D02*
X13866968Y-16560310D01*
X13866968Y-16560310D02*
X13857445Y-16550787D01*
X13857445Y-16550787D02*
X13866968Y-16541263D01*
X13866968Y-16541263D02*
X13866968Y-16560310D01*
X14066968Y-16560310D02*
X13952683Y-16560310D01*
X14009826Y-16560310D02*
X14009826Y-16360310D01*
X14009826Y-16360310D02*
X13990778Y-16388882D01*
X13990778Y-16388882D02*
X13971730Y-16407929D01*
X13971730Y-16407929D02*
X13952683Y-16417453D01*
X14143159Y-16379358D02*
X14152683Y-16369834D01*
X14152683Y-16369834D02*
X14171730Y-16360310D01*
X14171730Y-16360310D02*
X14219349Y-16360310D01*
X14219349Y-16360310D02*
X14238397Y-16369834D01*
X14238397Y-16369834D02*
X14247921Y-16379358D01*
X14247921Y-16379358D02*
X14257445Y-16398406D01*
X14257445Y-16398406D02*
X14257445Y-16417453D01*
X14257445Y-16417453D02*
X14247921Y-16446025D01*
X14247921Y-16446025D02*
X14133635Y-16560310D01*
X14133635Y-16560310D02*
X14257445Y-16560310D01*
X14428873Y-16360310D02*
X14390778Y-16360310D01*
X14390778Y-16360310D02*
X14371730Y-16369834D01*
X14371730Y-16369834D02*
X14362207Y-16379358D01*
X14362207Y-16379358D02*
X14343159Y-16407929D01*
X14343159Y-16407929D02*
X14333635Y-16446025D01*
X14333635Y-16446025D02*
X14333635Y-16522215D01*
X14333635Y-16522215D02*
X14343159Y-16541263D01*
X14343159Y-16541263D02*
X14352683Y-16550787D01*
X14352683Y-16550787D02*
X14371730Y-16560310D01*
X14371730Y-16560310D02*
X14409826Y-16560310D01*
X14409826Y-16560310D02*
X14428873Y-16550787D01*
X14428873Y-16550787D02*
X14438397Y-16541263D01*
X14438397Y-16541263D02*
X14447921Y-16522215D01*
X14447921Y-16522215D02*
X14447921Y-16474596D01*
X14447921Y-16474596D02*
X14438397Y-16455548D01*
X14438397Y-16455548D02*
X14428873Y-16446025D01*
X14428873Y-16446025D02*
X14409826Y-16436501D01*
X14409826Y-16436501D02*
X14371730Y-16436501D01*
X14371730Y-16436501D02*
X14352683Y-16446025D01*
X14352683Y-16446025D02*
X14343159Y-16455548D01*
X14343159Y-16455548D02*
X14333635Y-16474596D01*
X14571730Y-16360310D02*
X14590778Y-16360310D01*
X14590778Y-16360310D02*
X14609826Y-16369834D01*
X14609826Y-16369834D02*
X14619349Y-16379358D01*
X14619349Y-16379358D02*
X14628873Y-16398406D01*
X14628873Y-16398406D02*
X14638397Y-16436501D01*
X14638397Y-16436501D02*
X14638397Y-16484120D01*
X14638397Y-16484120D02*
X14628873Y-16522215D01*
X14628873Y-16522215D02*
X14619349Y-16541263D01*
X14619349Y-16541263D02*
X14609826Y-16550787D01*
X14609826Y-16550787D02*
X14590778Y-16560310D01*
X14590778Y-16560310D02*
X14571730Y-16560310D01*
X14571730Y-16560310D02*
X14552683Y-16550787D01*
X14552683Y-16550787D02*
X14543159Y-16541263D01*
X14543159Y-16541263D02*
X14533635Y-16522215D01*
X14533635Y-16522215D02*
X14524111Y-16484120D01*
X14524111Y-16484120D02*
X14524111Y-16436501D01*
X14524111Y-16436501D02*
X14533635Y-16398406D01*
X14533635Y-16398406D02*
X14543159Y-16379358D01*
X14543159Y-16379358D02*
X14552683Y-16369834D01*
X14552683Y-16369834D02*
X14571730Y-16360310D01*
X14714588Y-16360310D02*
X14714588Y-16398406D01*
X14790778Y-16360310D02*
X14790778Y-16398406D01*
X15086016Y-16636501D02*
X15076492Y-16626977D01*
X15076492Y-16626977D02*
X15057445Y-16598406D01*
X15057445Y-16598406D02*
X15047921Y-16579358D01*
X15047921Y-16579358D02*
X15038397Y-16550787D01*
X15038397Y-16550787D02*
X15028873Y-16503167D01*
X15028873Y-16503167D02*
X15028873Y-16465072D01*
X15028873Y-16465072D02*
X15038397Y-16417453D01*
X15038397Y-16417453D02*
X15047921Y-16388882D01*
X15047921Y-16388882D02*
X15057445Y-16369834D01*
X15057445Y-16369834D02*
X15076492Y-16341263D01*
X15076492Y-16341263D02*
X15086016Y-16331739D01*
X15152683Y-16379358D02*
X15162207Y-16369834D01*
X15162207Y-16369834D02*
X15181254Y-16360310D01*
X15181254Y-16360310D02*
X15228873Y-16360310D01*
X15228873Y-16360310D02*
X15247921Y-16369834D01*
X15247921Y-16369834D02*
X15257445Y-16379358D01*
X15257445Y-16379358D02*
X15266969Y-16398406D01*
X15266969Y-16398406D02*
X15266969Y-16417453D01*
X15266969Y-16417453D02*
X15257445Y-16446025D01*
X15257445Y-16446025D02*
X15143159Y-16560310D01*
X15143159Y-16560310D02*
X15266969Y-16560310D01*
X15505064Y-16560310D02*
X15505064Y-16360310D01*
X15590778Y-16560310D02*
X15590778Y-16455548D01*
X15590778Y-16455548D02*
X15581254Y-16436501D01*
X15581254Y-16436501D02*
X15562207Y-16426977D01*
X15562207Y-16426977D02*
X15533635Y-16426977D01*
X15533635Y-16426977D02*
X15514588Y-16436501D01*
X15514588Y-16436501D02*
X15505064Y-16446025D01*
X15714588Y-16560310D02*
X15695540Y-16550787D01*
X15695540Y-16550787D02*
X15686016Y-16541263D01*
X15686016Y-16541263D02*
X15676492Y-16522215D01*
X15676492Y-16522215D02*
X15676492Y-16465072D01*
X15676492Y-16465072D02*
X15686016Y-16446025D01*
X15686016Y-16446025D02*
X15695540Y-16436501D01*
X15695540Y-16436501D02*
X15714588Y-16426977D01*
X15714588Y-16426977D02*
X15743159Y-16426977D01*
X15743159Y-16426977D02*
X15762207Y-16436501D01*
X15762207Y-16436501D02*
X15771731Y-16446025D01*
X15771731Y-16446025D02*
X15781254Y-16465072D01*
X15781254Y-16465072D02*
X15781254Y-16522215D01*
X15781254Y-16522215D02*
X15771731Y-16541263D01*
X15771731Y-16541263D02*
X15762207Y-16550787D01*
X15762207Y-16550787D02*
X15743159Y-16560310D01*
X15743159Y-16560310D02*
X15714588Y-16560310D01*
X15895540Y-16560310D02*
X15876492Y-16550787D01*
X15876492Y-16550787D02*
X15866969Y-16531739D01*
X15866969Y-16531739D02*
X15866969Y-16360310D01*
X16047921Y-16550787D02*
X16028873Y-16560310D01*
X16028873Y-16560310D02*
X15990778Y-16560310D01*
X15990778Y-16560310D02*
X15971731Y-16550787D01*
X15971731Y-16550787D02*
X15962207Y-16531739D01*
X15962207Y-16531739D02*
X15962207Y-16455548D01*
X15962207Y-16455548D02*
X15971731Y-16436501D01*
X15971731Y-16436501D02*
X15990778Y-16426977D01*
X15990778Y-16426977D02*
X16028873Y-16426977D01*
X16028873Y-16426977D02*
X16047921Y-16436501D01*
X16047921Y-16436501D02*
X16057445Y-16455548D01*
X16057445Y-16455548D02*
X16057445Y-16474596D01*
X16057445Y-16474596D02*
X15962207Y-16493644D01*
X16133635Y-16550787D02*
X16152683Y-16560310D01*
X16152683Y-16560310D02*
X16190778Y-16560310D01*
X16190778Y-16560310D02*
X16209826Y-16550787D01*
X16209826Y-16550787D02*
X16219350Y-16531739D01*
X16219350Y-16531739D02*
X16219350Y-16522215D01*
X16219350Y-16522215D02*
X16209826Y-16503167D01*
X16209826Y-16503167D02*
X16190778Y-16493644D01*
X16190778Y-16493644D02*
X16162207Y-16493644D01*
X16162207Y-16493644D02*
X16143159Y-16484120D01*
X16143159Y-16484120D02*
X16133635Y-16465072D01*
X16133635Y-16465072D02*
X16133635Y-16455548D01*
X16133635Y-16455548D02*
X16143159Y-16436501D01*
X16143159Y-16436501D02*
X16162207Y-16426977D01*
X16162207Y-16426977D02*
X16190778Y-16426977D01*
X16190778Y-16426977D02*
X16209826Y-16436501D01*
X16286016Y-16636501D02*
X16295540Y-16626977D01*
X16295540Y-16626977D02*
X16314588Y-16598406D01*
X16314588Y-16598406D02*
X16324112Y-16579358D01*
X16324112Y-16579358D02*
X16333635Y-16550787D01*
X16333635Y-16550787D02*
X16343159Y-16503167D01*
X16343159Y-16503167D02*
X16343159Y-16465072D01*
X16343159Y-16465072D02*
X16333635Y-16417453D01*
X16333635Y-16417453D02*
X16324112Y-16388882D01*
X16324112Y-16388882D02*
X16314588Y-16369834D01*
X16314588Y-16369834D02*
X16295540Y-16341263D01*
X16295540Y-16341263D02*
X16286016Y-16331739D01*
M02*
