%TF.GenerationSoftware,KiCad,Pcbnew,8.0.5*%
%TF.CreationDate,2025-11-07T08:13:22-03:00*%
%TF.ProjectId,sfp_moduloIC,7366705f-6d6f-4647-956c-6f49432e6b69,v1.0*%
%TF.SameCoordinates,Original*%
%TF.FileFunction,Legend,Bot*%
%TF.FilePolarity,Positive*%
%FSLAX46Y46*%
G04 Gerber Fmt 4.6, Leading zero omitted, Abs format (unit mm)*
G04 Created by KiCad (PCBNEW 8.0.5) date 2025-11-07 08:13:22*
%MOMM*%
%LPD*%
G01*
G04 APERTURE LIST*
%ADD10C,0.125000*%
G04 APERTURE END LIST*
D10*
X127878717Y-116417509D02*
X127878717Y-115917509D01*
X127640622Y-116417509D02*
X127640622Y-115917509D01*
X127640622Y-115917509D02*
X127354908Y-116417509D01*
X127354908Y-116417509D02*
X127354908Y-115917509D01*
X133408012Y-115890519D02*
X133455631Y-115866709D01*
X133455631Y-115866709D02*
X133527060Y-115866709D01*
X133527060Y-115866709D02*
X133598488Y-115890519D01*
X133598488Y-115890519D02*
X133646107Y-115938138D01*
X133646107Y-115938138D02*
X133669917Y-115985757D01*
X133669917Y-115985757D02*
X133693726Y-116080995D01*
X133693726Y-116080995D02*
X133693726Y-116152423D01*
X133693726Y-116152423D02*
X133669917Y-116247661D01*
X133669917Y-116247661D02*
X133646107Y-116295280D01*
X133646107Y-116295280D02*
X133598488Y-116342900D01*
X133598488Y-116342900D02*
X133527060Y-116366709D01*
X133527060Y-116366709D02*
X133479441Y-116366709D01*
X133479441Y-116366709D02*
X133408012Y-116342900D01*
X133408012Y-116342900D02*
X133384203Y-116319090D01*
X133384203Y-116319090D02*
X133384203Y-116152423D01*
X133384203Y-116152423D02*
X133479441Y-116152423D01*
X133169917Y-116366709D02*
X133169917Y-115866709D01*
X133169917Y-115866709D02*
X132884203Y-116366709D01*
X132884203Y-116366709D02*
X132884203Y-115866709D01*
X132646107Y-116366709D02*
X132646107Y-115866709D01*
X132646107Y-115866709D02*
X132527059Y-115866709D01*
X132527059Y-115866709D02*
X132455631Y-115890519D01*
X132455631Y-115890519D02*
X132408012Y-115938138D01*
X132408012Y-115938138D02*
X132384202Y-115985757D01*
X132384202Y-115985757D02*
X132360393Y-116080995D01*
X132360393Y-116080995D02*
X132360393Y-116152423D01*
X132360393Y-116152423D02*
X132384202Y-116247661D01*
X132384202Y-116247661D02*
X132408012Y-116295280D01*
X132408012Y-116295280D02*
X132455631Y-116342900D01*
X132455631Y-116342900D02*
X132527059Y-116366709D01*
X132527059Y-116366709D02*
X132646107Y-116366709D01*
M02*
