%TF.GenerationSoftware,KiCad,Pcbnew,8.0.5*%
%TF.CreationDate,2025-11-07T08:13:24-03:00*%
%TF.ProjectId,sfp_moduloIC,7366705f-6d6f-4647-956c-6f49432e6b69,v1.0*%
%TF.SameCoordinates,Original*%
%TF.FileFunction,Drillmap*%
%TF.FilePolarity,Positive*%
%FSLAX45Y45*%
G04 Gerber Fmt 4.5, Leading zero omitted, Abs format (unit mm)*
G04 Created by KiCad (PCBNEW 8.0.5) date 2025-11-07 08:13:24*
%MOMM*%
%LPD*%
G01*
G04 APERTURE LIST*
%ADD10C,0.400000*%
%ADD11C,0.200000*%
%ADD12C,0.155000*%
G04 APERTURE END LIST*
D10*
X12010553Y-11827447D02*
G75*
G02*
X11510553Y-11327447I-4J499997D01*
G01*
X11510554Y-5545627D02*
G75*
G02*
X12010553Y-5045627I500008J-8D01*
G01*
X17010554Y-11827447D02*
X12010553Y-11827447D01*
X17510554Y-11327447D02*
G75*
G02*
X17010554Y-11827447I-499992J-8D01*
G01*
X12010553Y-5045627D02*
X17510554Y-5046627D01*
X11510554Y-11327447D02*
X11510554Y-5545627D01*
X17510554Y-5046627D02*
X17510554Y-11327447D01*
D11*
D12*
X13904000Y-5569500D02*
X14059000Y-5724500D01*
X14059000Y-5569500D02*
X13904000Y-5724500D01*
X13904000Y-6529500D02*
X14059000Y-6684500D01*
X14059000Y-6529500D02*
X13904000Y-6684500D01*
D11*
X11751330Y-12158930D02*
X11751330Y-11958930D01*
X11751330Y-11958930D02*
X11798949Y-11958930D01*
X11798949Y-11958930D02*
X11827521Y-11968454D01*
X11827521Y-11968454D02*
X11846568Y-11987502D01*
X11846568Y-11987502D02*
X11856092Y-12006549D01*
X11856092Y-12006549D02*
X11865616Y-12044645D01*
X11865616Y-12044645D02*
X11865616Y-12073216D01*
X11865616Y-12073216D02*
X11856092Y-12111311D01*
X11856092Y-12111311D02*
X11846568Y-12130359D01*
X11846568Y-12130359D02*
X11827521Y-12149407D01*
X11827521Y-12149407D02*
X11798949Y-12158930D01*
X11798949Y-12158930D02*
X11751330Y-12158930D01*
X11951330Y-12158930D02*
X11951330Y-12025597D01*
X11951330Y-12063692D02*
X11960854Y-12044645D01*
X11960854Y-12044645D02*
X11970378Y-12035121D01*
X11970378Y-12035121D02*
X11989425Y-12025597D01*
X11989425Y-12025597D02*
X12008473Y-12025597D01*
X12075140Y-12158930D02*
X12075140Y-12025597D01*
X12075140Y-11958930D02*
X12065616Y-11968454D01*
X12065616Y-11968454D02*
X12075140Y-11977978D01*
X12075140Y-11977978D02*
X12084663Y-11968454D01*
X12084663Y-11968454D02*
X12075140Y-11958930D01*
X12075140Y-11958930D02*
X12075140Y-11977978D01*
X12198949Y-12158930D02*
X12179902Y-12149407D01*
X12179902Y-12149407D02*
X12170378Y-12130359D01*
X12170378Y-12130359D02*
X12170378Y-11958930D01*
X12303711Y-12158930D02*
X12284663Y-12149407D01*
X12284663Y-12149407D02*
X12275140Y-12130359D01*
X12275140Y-12130359D02*
X12275140Y-11958930D01*
X12532283Y-12158930D02*
X12532283Y-11958930D01*
X12532283Y-11958930D02*
X12598949Y-12101787D01*
X12598949Y-12101787D02*
X12665616Y-11958930D01*
X12665616Y-11958930D02*
X12665616Y-12158930D01*
X12846568Y-12158930D02*
X12846568Y-12054168D01*
X12846568Y-12054168D02*
X12837044Y-12035121D01*
X12837044Y-12035121D02*
X12817997Y-12025597D01*
X12817997Y-12025597D02*
X12779902Y-12025597D01*
X12779902Y-12025597D02*
X12760854Y-12035121D01*
X12846568Y-12149407D02*
X12827521Y-12158930D01*
X12827521Y-12158930D02*
X12779902Y-12158930D01*
X12779902Y-12158930D02*
X12760854Y-12149407D01*
X12760854Y-12149407D02*
X12751330Y-12130359D01*
X12751330Y-12130359D02*
X12751330Y-12111311D01*
X12751330Y-12111311D02*
X12760854Y-12092264D01*
X12760854Y-12092264D02*
X12779902Y-12082740D01*
X12779902Y-12082740D02*
X12827521Y-12082740D01*
X12827521Y-12082740D02*
X12846568Y-12073216D01*
X12941806Y-12025597D02*
X12941806Y-12225597D01*
X12941806Y-12035121D02*
X12960854Y-12025597D01*
X12960854Y-12025597D02*
X12998949Y-12025597D01*
X12998949Y-12025597D02*
X13017997Y-12035121D01*
X13017997Y-12035121D02*
X13027521Y-12044645D01*
X13027521Y-12044645D02*
X13037044Y-12063692D01*
X13037044Y-12063692D02*
X13037044Y-12120835D01*
X13037044Y-12120835D02*
X13027521Y-12139883D01*
X13027521Y-12139883D02*
X13017997Y-12149407D01*
X13017997Y-12149407D02*
X12998949Y-12158930D01*
X12998949Y-12158930D02*
X12960854Y-12158930D01*
X12960854Y-12158930D02*
X12941806Y-12149407D01*
X13122759Y-12139883D02*
X13132283Y-12149407D01*
X13132283Y-12149407D02*
X13122759Y-12158930D01*
X13122759Y-12158930D02*
X13113235Y-12149407D01*
X13113235Y-12149407D02*
X13122759Y-12139883D01*
X13122759Y-12139883D02*
X13122759Y-12158930D01*
X13122759Y-12035121D02*
X13132283Y-12044645D01*
X13132283Y-12044645D02*
X13122759Y-12054168D01*
X13122759Y-12054168D02*
X13113235Y-12044645D01*
X13113235Y-12044645D02*
X13122759Y-12035121D01*
X13122759Y-12035121D02*
X13122759Y-12054168D01*
D12*
X11335553Y-12409947D02*
X11490553Y-12564947D01*
X11490553Y-12409947D02*
X11335553Y-12564947D01*
D11*
X11856092Y-12578930D02*
X11741806Y-12578930D01*
X11798949Y-12578930D02*
X11798949Y-12378930D01*
X11798949Y-12378930D02*
X11779902Y-12407502D01*
X11779902Y-12407502D02*
X11760854Y-12426549D01*
X11760854Y-12426549D02*
X11741806Y-12436073D01*
X11941806Y-12559883D02*
X11951330Y-12569407D01*
X11951330Y-12569407D02*
X11941806Y-12578930D01*
X11941806Y-12578930D02*
X11932283Y-12569407D01*
X11932283Y-12569407D02*
X11941806Y-12559883D01*
X11941806Y-12559883D02*
X11941806Y-12578930D01*
X12132283Y-12378930D02*
X12037044Y-12378930D01*
X12037044Y-12378930D02*
X12027521Y-12474168D01*
X12027521Y-12474168D02*
X12037044Y-12464645D01*
X12037044Y-12464645D02*
X12056092Y-12455121D01*
X12056092Y-12455121D02*
X12103711Y-12455121D01*
X12103711Y-12455121D02*
X12122759Y-12464645D01*
X12122759Y-12464645D02*
X12132283Y-12474168D01*
X12132283Y-12474168D02*
X12141806Y-12493216D01*
X12141806Y-12493216D02*
X12141806Y-12540835D01*
X12141806Y-12540835D02*
X12132283Y-12559883D01*
X12132283Y-12559883D02*
X12122759Y-12569407D01*
X12122759Y-12569407D02*
X12103711Y-12578930D01*
X12103711Y-12578930D02*
X12056092Y-12578930D01*
X12056092Y-12578930D02*
X12037044Y-12569407D01*
X12037044Y-12569407D02*
X12027521Y-12559883D01*
X12322759Y-12378930D02*
X12227521Y-12378930D01*
X12227521Y-12378930D02*
X12217997Y-12474168D01*
X12217997Y-12474168D02*
X12227521Y-12464645D01*
X12227521Y-12464645D02*
X12246568Y-12455121D01*
X12246568Y-12455121D02*
X12294187Y-12455121D01*
X12294187Y-12455121D02*
X12313235Y-12464645D01*
X12313235Y-12464645D02*
X12322759Y-12474168D01*
X12322759Y-12474168D02*
X12332283Y-12493216D01*
X12332283Y-12493216D02*
X12332283Y-12540835D01*
X12332283Y-12540835D02*
X12322759Y-12559883D01*
X12322759Y-12559883D02*
X12313235Y-12569407D01*
X12313235Y-12569407D02*
X12294187Y-12578930D01*
X12294187Y-12578930D02*
X12246568Y-12578930D01*
X12246568Y-12578930D02*
X12227521Y-12569407D01*
X12227521Y-12569407D02*
X12217997Y-12559883D01*
X12456092Y-12378930D02*
X12475140Y-12378930D01*
X12475140Y-12378930D02*
X12494187Y-12388454D01*
X12494187Y-12388454D02*
X12503711Y-12397978D01*
X12503711Y-12397978D02*
X12513235Y-12417026D01*
X12513235Y-12417026D02*
X12522759Y-12455121D01*
X12522759Y-12455121D02*
X12522759Y-12502740D01*
X12522759Y-12502740D02*
X12513235Y-12540835D01*
X12513235Y-12540835D02*
X12503711Y-12559883D01*
X12503711Y-12559883D02*
X12494187Y-12569407D01*
X12494187Y-12569407D02*
X12475140Y-12578930D01*
X12475140Y-12578930D02*
X12456092Y-12578930D01*
X12456092Y-12578930D02*
X12437044Y-12569407D01*
X12437044Y-12569407D02*
X12427521Y-12559883D01*
X12427521Y-12559883D02*
X12417997Y-12540835D01*
X12417997Y-12540835D02*
X12408473Y-12502740D01*
X12408473Y-12502740D02*
X12408473Y-12455121D01*
X12408473Y-12455121D02*
X12417997Y-12417026D01*
X12417997Y-12417026D02*
X12427521Y-12397978D01*
X12427521Y-12397978D02*
X12437044Y-12388454D01*
X12437044Y-12388454D02*
X12456092Y-12378930D01*
X12608473Y-12578930D02*
X12608473Y-12445597D01*
X12608473Y-12464645D02*
X12617997Y-12455121D01*
X12617997Y-12455121D02*
X12637044Y-12445597D01*
X12637044Y-12445597D02*
X12665616Y-12445597D01*
X12665616Y-12445597D02*
X12684664Y-12455121D01*
X12684664Y-12455121D02*
X12694187Y-12474168D01*
X12694187Y-12474168D02*
X12694187Y-12578930D01*
X12694187Y-12474168D02*
X12703711Y-12455121D01*
X12703711Y-12455121D02*
X12722759Y-12445597D01*
X12722759Y-12445597D02*
X12751330Y-12445597D01*
X12751330Y-12445597D02*
X12770378Y-12455121D01*
X12770378Y-12455121D02*
X12779902Y-12474168D01*
X12779902Y-12474168D02*
X12779902Y-12578930D01*
X12875140Y-12578930D02*
X12875140Y-12445597D01*
X12875140Y-12464645D02*
X12884664Y-12455121D01*
X12884664Y-12455121D02*
X12903711Y-12445597D01*
X12903711Y-12445597D02*
X12932283Y-12445597D01*
X12932283Y-12445597D02*
X12951330Y-12455121D01*
X12951330Y-12455121D02*
X12960854Y-12474168D01*
X12960854Y-12474168D02*
X12960854Y-12578930D01*
X12960854Y-12474168D02*
X12970378Y-12455121D01*
X12970378Y-12455121D02*
X12989425Y-12445597D01*
X12989425Y-12445597D02*
X13017997Y-12445597D01*
X13017997Y-12445597D02*
X13037045Y-12455121D01*
X13037045Y-12455121D02*
X13046568Y-12474168D01*
X13046568Y-12474168D02*
X13046568Y-12578930D01*
X13437045Y-12369407D02*
X13265616Y-12626549D01*
X13694187Y-12378930D02*
X13713235Y-12378930D01*
X13713235Y-12378930D02*
X13732283Y-12388454D01*
X13732283Y-12388454D02*
X13741807Y-12397978D01*
X13741807Y-12397978D02*
X13751330Y-12417026D01*
X13751330Y-12417026D02*
X13760854Y-12455121D01*
X13760854Y-12455121D02*
X13760854Y-12502740D01*
X13760854Y-12502740D02*
X13751330Y-12540835D01*
X13751330Y-12540835D02*
X13741807Y-12559883D01*
X13741807Y-12559883D02*
X13732283Y-12569407D01*
X13732283Y-12569407D02*
X13713235Y-12578930D01*
X13713235Y-12578930D02*
X13694187Y-12578930D01*
X13694187Y-12578930D02*
X13675140Y-12569407D01*
X13675140Y-12569407D02*
X13665616Y-12559883D01*
X13665616Y-12559883D02*
X13656092Y-12540835D01*
X13656092Y-12540835D02*
X13646568Y-12502740D01*
X13646568Y-12502740D02*
X13646568Y-12455121D01*
X13646568Y-12455121D02*
X13656092Y-12417026D01*
X13656092Y-12417026D02*
X13665616Y-12397978D01*
X13665616Y-12397978D02*
X13675140Y-12388454D01*
X13675140Y-12388454D02*
X13694187Y-12378930D01*
X13846568Y-12559883D02*
X13856092Y-12569407D01*
X13856092Y-12569407D02*
X13846568Y-12578930D01*
X13846568Y-12578930D02*
X13837045Y-12569407D01*
X13837045Y-12569407D02*
X13846568Y-12559883D01*
X13846568Y-12559883D02*
X13846568Y-12578930D01*
X13979902Y-12378930D02*
X13998949Y-12378930D01*
X13998949Y-12378930D02*
X14017997Y-12388454D01*
X14017997Y-12388454D02*
X14027521Y-12397978D01*
X14027521Y-12397978D02*
X14037045Y-12417026D01*
X14037045Y-12417026D02*
X14046568Y-12455121D01*
X14046568Y-12455121D02*
X14046568Y-12502740D01*
X14046568Y-12502740D02*
X14037045Y-12540835D01*
X14037045Y-12540835D02*
X14027521Y-12559883D01*
X14027521Y-12559883D02*
X14017997Y-12569407D01*
X14017997Y-12569407D02*
X13998949Y-12578930D01*
X13998949Y-12578930D02*
X13979902Y-12578930D01*
X13979902Y-12578930D02*
X13960854Y-12569407D01*
X13960854Y-12569407D02*
X13951330Y-12559883D01*
X13951330Y-12559883D02*
X13941807Y-12540835D01*
X13941807Y-12540835D02*
X13932283Y-12502740D01*
X13932283Y-12502740D02*
X13932283Y-12455121D01*
X13932283Y-12455121D02*
X13941807Y-12417026D01*
X13941807Y-12417026D02*
X13951330Y-12397978D01*
X13951330Y-12397978D02*
X13960854Y-12388454D01*
X13960854Y-12388454D02*
X13979902Y-12378930D01*
X14217997Y-12378930D02*
X14179902Y-12378930D01*
X14179902Y-12378930D02*
X14160854Y-12388454D01*
X14160854Y-12388454D02*
X14151330Y-12397978D01*
X14151330Y-12397978D02*
X14132283Y-12426549D01*
X14132283Y-12426549D02*
X14122759Y-12464645D01*
X14122759Y-12464645D02*
X14122759Y-12540835D01*
X14122759Y-12540835D02*
X14132283Y-12559883D01*
X14132283Y-12559883D02*
X14141807Y-12569407D01*
X14141807Y-12569407D02*
X14160854Y-12578930D01*
X14160854Y-12578930D02*
X14198949Y-12578930D01*
X14198949Y-12578930D02*
X14217997Y-12569407D01*
X14217997Y-12569407D02*
X14227521Y-12559883D01*
X14227521Y-12559883D02*
X14237045Y-12540835D01*
X14237045Y-12540835D02*
X14237045Y-12493216D01*
X14237045Y-12493216D02*
X14227521Y-12474168D01*
X14227521Y-12474168D02*
X14217997Y-12464645D01*
X14217997Y-12464645D02*
X14198949Y-12455121D01*
X14198949Y-12455121D02*
X14160854Y-12455121D01*
X14160854Y-12455121D02*
X14141807Y-12464645D01*
X14141807Y-12464645D02*
X14132283Y-12474168D01*
X14132283Y-12474168D02*
X14122759Y-12493216D01*
X14427521Y-12578930D02*
X14313235Y-12578930D01*
X14370378Y-12578930D02*
X14370378Y-12378930D01*
X14370378Y-12378930D02*
X14351330Y-12407502D01*
X14351330Y-12407502D02*
X14332283Y-12426549D01*
X14332283Y-12426549D02*
X14313235Y-12436073D01*
X14551330Y-12378930D02*
X14570378Y-12378930D01*
X14570378Y-12378930D02*
X14589426Y-12388454D01*
X14589426Y-12388454D02*
X14598949Y-12397978D01*
X14598949Y-12397978D02*
X14608473Y-12417026D01*
X14608473Y-12417026D02*
X14617997Y-12455121D01*
X14617997Y-12455121D02*
X14617997Y-12502740D01*
X14617997Y-12502740D02*
X14608473Y-12540835D01*
X14608473Y-12540835D02*
X14598949Y-12559883D01*
X14598949Y-12559883D02*
X14589426Y-12569407D01*
X14589426Y-12569407D02*
X14570378Y-12578930D01*
X14570378Y-12578930D02*
X14551330Y-12578930D01*
X14551330Y-12578930D02*
X14532283Y-12569407D01*
X14532283Y-12569407D02*
X14522759Y-12559883D01*
X14522759Y-12559883D02*
X14513235Y-12540835D01*
X14513235Y-12540835D02*
X14503711Y-12502740D01*
X14503711Y-12502740D02*
X14503711Y-12455121D01*
X14503711Y-12455121D02*
X14513235Y-12417026D01*
X14513235Y-12417026D02*
X14522759Y-12397978D01*
X14522759Y-12397978D02*
X14532283Y-12388454D01*
X14532283Y-12388454D02*
X14551330Y-12378930D01*
X14694188Y-12378930D02*
X14694188Y-12417026D01*
X14770378Y-12378930D02*
X14770378Y-12417026D01*
X15065616Y-12655121D02*
X15056092Y-12645597D01*
X15056092Y-12645597D02*
X15037045Y-12617026D01*
X15037045Y-12617026D02*
X15027521Y-12597978D01*
X15027521Y-12597978D02*
X15017997Y-12569407D01*
X15017997Y-12569407D02*
X15008473Y-12521787D01*
X15008473Y-12521787D02*
X15008473Y-12483692D01*
X15008473Y-12483692D02*
X15017997Y-12436073D01*
X15017997Y-12436073D02*
X15027521Y-12407502D01*
X15027521Y-12407502D02*
X15037045Y-12388454D01*
X15037045Y-12388454D02*
X15056092Y-12359883D01*
X15056092Y-12359883D02*
X15065616Y-12350359D01*
X15132283Y-12397978D02*
X15141807Y-12388454D01*
X15141807Y-12388454D02*
X15160854Y-12378930D01*
X15160854Y-12378930D02*
X15208473Y-12378930D01*
X15208473Y-12378930D02*
X15227521Y-12388454D01*
X15227521Y-12388454D02*
X15237045Y-12397978D01*
X15237045Y-12397978D02*
X15246569Y-12417026D01*
X15246569Y-12417026D02*
X15246569Y-12436073D01*
X15246569Y-12436073D02*
X15237045Y-12464645D01*
X15237045Y-12464645D02*
X15122759Y-12578930D01*
X15122759Y-12578930D02*
X15246569Y-12578930D01*
X15484664Y-12578930D02*
X15484664Y-12378930D01*
X15570378Y-12578930D02*
X15570378Y-12474168D01*
X15570378Y-12474168D02*
X15560854Y-12455121D01*
X15560854Y-12455121D02*
X15541807Y-12445597D01*
X15541807Y-12445597D02*
X15513235Y-12445597D01*
X15513235Y-12445597D02*
X15494188Y-12455121D01*
X15494188Y-12455121D02*
X15484664Y-12464645D01*
X15694188Y-12578930D02*
X15675140Y-12569407D01*
X15675140Y-12569407D02*
X15665616Y-12559883D01*
X15665616Y-12559883D02*
X15656092Y-12540835D01*
X15656092Y-12540835D02*
X15656092Y-12483692D01*
X15656092Y-12483692D02*
X15665616Y-12464645D01*
X15665616Y-12464645D02*
X15675140Y-12455121D01*
X15675140Y-12455121D02*
X15694188Y-12445597D01*
X15694188Y-12445597D02*
X15722759Y-12445597D01*
X15722759Y-12445597D02*
X15741807Y-12455121D01*
X15741807Y-12455121D02*
X15751331Y-12464645D01*
X15751331Y-12464645D02*
X15760854Y-12483692D01*
X15760854Y-12483692D02*
X15760854Y-12540835D01*
X15760854Y-12540835D02*
X15751331Y-12559883D01*
X15751331Y-12559883D02*
X15741807Y-12569407D01*
X15741807Y-12569407D02*
X15722759Y-12578930D01*
X15722759Y-12578930D02*
X15694188Y-12578930D01*
X15875140Y-12578930D02*
X15856092Y-12569407D01*
X15856092Y-12569407D02*
X15846569Y-12550359D01*
X15846569Y-12550359D02*
X15846569Y-12378930D01*
X16027521Y-12569407D02*
X16008473Y-12578930D01*
X16008473Y-12578930D02*
X15970378Y-12578930D01*
X15970378Y-12578930D02*
X15951331Y-12569407D01*
X15951331Y-12569407D02*
X15941807Y-12550359D01*
X15941807Y-12550359D02*
X15941807Y-12474168D01*
X15941807Y-12474168D02*
X15951331Y-12455121D01*
X15951331Y-12455121D02*
X15970378Y-12445597D01*
X15970378Y-12445597D02*
X16008473Y-12445597D01*
X16008473Y-12445597D02*
X16027521Y-12455121D01*
X16027521Y-12455121D02*
X16037045Y-12474168D01*
X16037045Y-12474168D02*
X16037045Y-12493216D01*
X16037045Y-12493216D02*
X15941807Y-12512264D01*
X16113235Y-12569407D02*
X16132283Y-12578930D01*
X16132283Y-12578930D02*
X16170378Y-12578930D01*
X16170378Y-12578930D02*
X16189426Y-12569407D01*
X16189426Y-12569407D02*
X16198950Y-12550359D01*
X16198950Y-12550359D02*
X16198950Y-12540835D01*
X16198950Y-12540835D02*
X16189426Y-12521787D01*
X16189426Y-12521787D02*
X16170378Y-12512264D01*
X16170378Y-12512264D02*
X16141807Y-12512264D01*
X16141807Y-12512264D02*
X16122759Y-12502740D01*
X16122759Y-12502740D02*
X16113235Y-12483692D01*
X16113235Y-12483692D02*
X16113235Y-12474168D01*
X16113235Y-12474168D02*
X16122759Y-12455121D01*
X16122759Y-12455121D02*
X16141807Y-12445597D01*
X16141807Y-12445597D02*
X16170378Y-12445597D01*
X16170378Y-12445597D02*
X16189426Y-12455121D01*
X16265616Y-12655121D02*
X16275140Y-12645597D01*
X16275140Y-12645597D02*
X16294188Y-12617026D01*
X16294188Y-12617026D02*
X16303712Y-12597978D01*
X16303712Y-12597978D02*
X16313235Y-12569407D01*
X16313235Y-12569407D02*
X16322759Y-12521787D01*
X16322759Y-12521787D02*
X16322759Y-12483692D01*
X16322759Y-12483692D02*
X16313235Y-12436073D01*
X16313235Y-12436073D02*
X16303712Y-12407502D01*
X16303712Y-12407502D02*
X16294188Y-12388454D01*
X16294188Y-12388454D02*
X16275140Y-12359883D01*
X16275140Y-12359883D02*
X16265616Y-12350359D01*
X16627521Y-12655121D02*
X16617997Y-12645597D01*
X16617997Y-12645597D02*
X16598950Y-12617026D01*
X16598950Y-12617026D02*
X16589426Y-12597978D01*
X16589426Y-12597978D02*
X16579902Y-12569407D01*
X16579902Y-12569407D02*
X16570378Y-12521787D01*
X16570378Y-12521787D02*
X16570378Y-12483692D01*
X16570378Y-12483692D02*
X16579902Y-12436073D01*
X16579902Y-12436073D02*
X16589426Y-12407502D01*
X16589426Y-12407502D02*
X16598950Y-12388454D01*
X16598950Y-12388454D02*
X16617997Y-12359883D01*
X16617997Y-12359883D02*
X16627521Y-12350359D01*
X16703712Y-12445597D02*
X16703712Y-12578930D01*
X16703712Y-12464645D02*
X16713235Y-12455121D01*
X16713235Y-12455121D02*
X16732283Y-12445597D01*
X16732283Y-12445597D02*
X16760854Y-12445597D01*
X16760854Y-12445597D02*
X16779902Y-12455121D01*
X16779902Y-12455121D02*
X16789426Y-12474168D01*
X16789426Y-12474168D02*
X16789426Y-12578930D01*
X16913235Y-12578930D02*
X16894188Y-12569407D01*
X16894188Y-12569407D02*
X16884664Y-12559883D01*
X16884664Y-12559883D02*
X16875140Y-12540835D01*
X16875140Y-12540835D02*
X16875140Y-12483692D01*
X16875140Y-12483692D02*
X16884664Y-12464645D01*
X16884664Y-12464645D02*
X16894188Y-12455121D01*
X16894188Y-12455121D02*
X16913235Y-12445597D01*
X16913235Y-12445597D02*
X16941807Y-12445597D01*
X16941807Y-12445597D02*
X16960855Y-12455121D01*
X16960855Y-12455121D02*
X16970378Y-12464645D01*
X16970378Y-12464645D02*
X16979902Y-12483692D01*
X16979902Y-12483692D02*
X16979902Y-12540835D01*
X16979902Y-12540835D02*
X16970378Y-12559883D01*
X16970378Y-12559883D02*
X16960855Y-12569407D01*
X16960855Y-12569407D02*
X16941807Y-12578930D01*
X16941807Y-12578930D02*
X16913235Y-12578930D01*
X17037045Y-12445597D02*
X17113235Y-12445597D01*
X17065616Y-12378930D02*
X17065616Y-12550359D01*
X17065616Y-12550359D02*
X17075140Y-12569407D01*
X17075140Y-12569407D02*
X17094188Y-12578930D01*
X17094188Y-12578930D02*
X17113235Y-12578930D01*
X17332283Y-12445597D02*
X17332283Y-12645597D01*
X17332283Y-12455121D02*
X17351331Y-12445597D01*
X17351331Y-12445597D02*
X17389426Y-12445597D01*
X17389426Y-12445597D02*
X17408474Y-12455121D01*
X17408474Y-12455121D02*
X17417997Y-12464645D01*
X17417997Y-12464645D02*
X17427521Y-12483692D01*
X17427521Y-12483692D02*
X17427521Y-12540835D01*
X17427521Y-12540835D02*
X17417997Y-12559883D01*
X17417997Y-12559883D02*
X17408474Y-12569407D01*
X17408474Y-12569407D02*
X17389426Y-12578930D01*
X17389426Y-12578930D02*
X17351331Y-12578930D01*
X17351331Y-12578930D02*
X17332283Y-12569407D01*
X17541807Y-12578930D02*
X17522759Y-12569407D01*
X17522759Y-12569407D02*
X17513236Y-12550359D01*
X17513236Y-12550359D02*
X17513236Y-12378930D01*
X17703712Y-12578930D02*
X17703712Y-12474168D01*
X17703712Y-12474168D02*
X17694188Y-12455121D01*
X17694188Y-12455121D02*
X17675140Y-12445597D01*
X17675140Y-12445597D02*
X17637045Y-12445597D01*
X17637045Y-12445597D02*
X17617997Y-12455121D01*
X17703712Y-12569407D02*
X17684664Y-12578930D01*
X17684664Y-12578930D02*
X17637045Y-12578930D01*
X17637045Y-12578930D02*
X17617997Y-12569407D01*
X17617997Y-12569407D02*
X17608474Y-12550359D01*
X17608474Y-12550359D02*
X17608474Y-12531311D01*
X17608474Y-12531311D02*
X17617997Y-12512264D01*
X17617997Y-12512264D02*
X17637045Y-12502740D01*
X17637045Y-12502740D02*
X17684664Y-12502740D01*
X17684664Y-12502740D02*
X17703712Y-12493216D01*
X17770378Y-12445597D02*
X17846569Y-12445597D01*
X17798950Y-12378930D02*
X17798950Y-12550359D01*
X17798950Y-12550359D02*
X17808474Y-12569407D01*
X17808474Y-12569407D02*
X17827521Y-12578930D01*
X17827521Y-12578930D02*
X17846569Y-12578930D01*
X17989426Y-12569407D02*
X17970378Y-12578930D01*
X17970378Y-12578930D02*
X17932283Y-12578930D01*
X17932283Y-12578930D02*
X17913236Y-12569407D01*
X17913236Y-12569407D02*
X17903712Y-12550359D01*
X17903712Y-12550359D02*
X17903712Y-12474168D01*
X17903712Y-12474168D02*
X17913236Y-12455121D01*
X17913236Y-12455121D02*
X17932283Y-12445597D01*
X17932283Y-12445597D02*
X17970378Y-12445597D01*
X17970378Y-12445597D02*
X17989426Y-12455121D01*
X17989426Y-12455121D02*
X17998950Y-12474168D01*
X17998950Y-12474168D02*
X17998950Y-12493216D01*
X17998950Y-12493216D02*
X17903712Y-12512264D01*
X18170378Y-12578930D02*
X18170378Y-12378930D01*
X18170378Y-12569407D02*
X18151331Y-12578930D01*
X18151331Y-12578930D02*
X18113236Y-12578930D01*
X18113236Y-12578930D02*
X18094188Y-12569407D01*
X18094188Y-12569407D02*
X18084664Y-12559883D01*
X18084664Y-12559883D02*
X18075140Y-12540835D01*
X18075140Y-12540835D02*
X18075140Y-12483692D01*
X18075140Y-12483692D02*
X18084664Y-12464645D01*
X18084664Y-12464645D02*
X18094188Y-12455121D01*
X18094188Y-12455121D02*
X18113236Y-12445597D01*
X18113236Y-12445597D02*
X18151331Y-12445597D01*
X18151331Y-12445597D02*
X18170378Y-12455121D01*
X18246569Y-12655121D02*
X18256093Y-12645597D01*
X18256093Y-12645597D02*
X18275140Y-12617026D01*
X18275140Y-12617026D02*
X18284664Y-12597978D01*
X18284664Y-12597978D02*
X18294188Y-12569407D01*
X18294188Y-12569407D02*
X18303712Y-12521787D01*
X18303712Y-12521787D02*
X18303712Y-12483692D01*
X18303712Y-12483692D02*
X18294188Y-12436073D01*
X18294188Y-12436073D02*
X18284664Y-12407502D01*
X18284664Y-12407502D02*
X18275140Y-12388454D01*
X18275140Y-12388454D02*
X18256093Y-12359883D01*
X18256093Y-12359883D02*
X18246569Y-12350359D01*
M02*
