%TF.GenerationSoftware,KiCad,Pcbnew,8.0.5*%
%TF.CreationDate,2025-11-07T08:13:24-03:00*%
%TF.ProjectId,sfp_moduloIC,7366705f-6d6f-4647-956c-6f49432e6b69,v1.0*%
%TF.SameCoordinates,Original*%
%TF.FileFunction,Drillmap*%
%TF.FilePolarity,Positive*%
%FSLAX45Y45*%
G04 Gerber Fmt 4.5, Leading zero omitted, Abs format (unit mm)*
G04 Created by KiCad (PCBNEW 8.0.5) date 2025-11-07 08:13:24*
%MOMM*%
%LPD*%
G01*
G04 APERTURE LIST*
%ADD10C,0.400000*%
%ADD11C,0.200000*%
%ADD12C,0.100000*%
%ADD13C,0.105000*%
%ADD14C,0.130000*%
%ADD15C,0.320000*%
G04 APERTURE END LIST*
D10*
X12010553Y-11827447D02*
G75*
G02*
X11510553Y-11327447I-4J499997D01*
G01*
X11510554Y-5545627D02*
G75*
G02*
X12010553Y-5045627I500008J-8D01*
G01*
X17010554Y-11827447D02*
X12010553Y-11827447D01*
X17510554Y-11327447D02*
G75*
G02*
X17010554Y-11827447I-499992J-8D01*
G01*
X12010553Y-5045627D02*
X17510554Y-5046627D01*
X11510554Y-11327447D02*
X11510554Y-5545627D01*
X17510554Y-5046627D02*
X17510554Y-11327447D01*
D11*
D12*
X11720000Y-7672000D02*
X11750000Y-7702000D01*
X11750000Y-7672000D02*
X11720000Y-7702000D01*
X11746000Y-8178000D02*
X11776000Y-8208000D01*
X11776000Y-8178000D02*
X11746000Y-8208000D01*
X11827554Y-7733627D02*
X11857554Y-7763627D01*
X11857554Y-7733627D02*
X11827554Y-7763627D01*
X11957554Y-7946627D02*
X11987554Y-7976627D01*
X11987554Y-7946627D02*
X11957554Y-7976627D01*
X12086554Y-7833627D02*
X12116554Y-7863627D01*
X12116554Y-7833627D02*
X12086554Y-7863627D01*
X12091960Y-7422200D02*
X12121960Y-7452200D01*
X12121960Y-7422200D02*
X12091960Y-7452200D01*
X12131000Y-8117000D02*
X12161000Y-8147000D01*
X12161000Y-8117000D02*
X12131000Y-8147000D01*
X12200000Y-7611627D02*
X12230000Y-7641627D01*
X12230000Y-7611627D02*
X12200000Y-7641627D01*
X12272710Y-8255500D02*
X12302710Y-8285500D01*
X12302710Y-8255500D02*
X12272710Y-8285500D01*
X12289090Y-8546090D02*
X12319090Y-8576090D01*
X12319090Y-8546090D02*
X12289090Y-8576090D01*
X12337464Y-8386537D02*
X12367464Y-8416537D01*
X12367464Y-8386537D02*
X12337464Y-8416537D01*
X12355554Y-7425500D02*
X12385554Y-7455500D01*
X12385554Y-7425500D02*
X12355554Y-7455500D01*
X12362795Y-8438156D02*
X12392795Y-8468156D01*
X12392795Y-8438156D02*
X12362795Y-8468156D01*
X12392554Y-8490627D02*
X12422554Y-8520627D01*
X12422554Y-8490627D02*
X12392554Y-8520627D01*
X12397554Y-7532627D02*
X12427554Y-7562627D01*
X12427554Y-7532627D02*
X12397554Y-7562627D01*
X12449000Y-8508000D02*
X12479000Y-8538000D01*
X12479000Y-8508000D02*
X12449000Y-8538000D01*
X12500728Y-8533109D02*
X12530728Y-8563109D01*
X12530728Y-8533109D02*
X12500728Y-8563109D01*
X12544554Y-7426500D02*
X12574554Y-7456500D01*
X12574554Y-7426500D02*
X12544554Y-7456500D01*
X12551204Y-8265500D02*
X12581204Y-8295500D01*
X12581204Y-8265500D02*
X12551204Y-8295500D01*
X12558000Y-10090000D02*
X12588000Y-10120000D01*
X12588000Y-10090000D02*
X12558000Y-10120000D01*
X12569000Y-5501000D02*
X12599000Y-5531000D01*
X12599000Y-5501000D02*
X12569000Y-5531000D01*
X12569000Y-5648000D02*
X12599000Y-5678000D01*
X12599000Y-5648000D02*
X12569000Y-5678000D01*
X12666000Y-8614000D02*
X12696000Y-8644000D01*
X12696000Y-8614000D02*
X12666000Y-8644000D01*
X12719554Y-6961627D02*
X12749554Y-6991627D01*
X12749554Y-6961627D02*
X12719554Y-6991627D01*
X12730554Y-7426500D02*
X12760554Y-7456500D01*
X12760554Y-7426500D02*
X12730554Y-7456500D01*
X12743000Y-6611250D02*
X12773000Y-6641250D01*
X12773000Y-6611250D02*
X12743000Y-6641250D01*
X12788000Y-7896500D02*
X12818000Y-7926500D01*
X12818000Y-7896500D02*
X12788000Y-7926500D01*
X12809000Y-8995000D02*
X12839000Y-9025000D01*
X12839000Y-8995000D02*
X12809000Y-9025000D01*
X12884500Y-8045000D02*
X12914500Y-8075000D01*
X12914500Y-8045000D02*
X12884500Y-8075000D01*
X13035554Y-8234627D02*
X13065554Y-8264627D01*
X13065554Y-8234627D02*
X13035554Y-8264627D01*
X13046090Y-8119090D02*
X13076090Y-8149090D01*
X13076090Y-8119090D02*
X13046090Y-8149090D01*
X13060000Y-8838750D02*
X13090000Y-8868750D01*
X13090000Y-8838750D02*
X13060000Y-8868750D01*
X13101000Y-5641000D02*
X13131000Y-5671000D01*
X13131000Y-5641000D02*
X13101000Y-5671000D01*
X13150000Y-6841000D02*
X13180000Y-6871000D01*
X13180000Y-6841000D02*
X13150000Y-6871000D01*
X13151000Y-6653250D02*
X13181000Y-6683250D01*
X13181000Y-6653250D02*
X13151000Y-6683250D01*
X13189240Y-8026720D02*
X13219240Y-8056720D01*
X13219240Y-8026720D02*
X13189240Y-8056720D01*
X13206000Y-8837750D02*
X13236000Y-8867750D01*
X13236000Y-8837750D02*
X13206000Y-8867750D01*
X13256090Y-8463090D02*
X13286090Y-8493090D01*
X13286090Y-8463090D02*
X13256090Y-8493090D01*
X13259090Y-8364090D02*
X13289090Y-8394090D01*
X13289090Y-8364090D02*
X13259090Y-8394090D01*
X13259554Y-8275000D02*
X13289554Y-8305000D01*
X13289554Y-8275000D02*
X13259554Y-8305000D01*
X13259554Y-8558000D02*
X13289554Y-8588000D01*
X13289554Y-8558000D02*
X13259554Y-8588000D01*
X13262554Y-8654000D02*
X13292554Y-8684000D01*
X13292554Y-8654000D02*
X13262554Y-8684000D01*
X13278554Y-7705627D02*
X13308554Y-7735627D01*
X13308554Y-7705627D02*
X13278554Y-7735627D01*
X13352000Y-8840750D02*
X13382000Y-8870750D01*
X13382000Y-8840750D02*
X13352000Y-8870750D01*
X13423000Y-9638000D02*
X13453000Y-9668000D01*
X13453000Y-9638000D02*
X13423000Y-9668000D01*
X13497000Y-8842627D02*
X13527000Y-8872627D01*
X13527000Y-8842627D02*
X13497000Y-8872627D01*
X13499120Y-10079040D02*
X13529120Y-10109040D01*
X13529120Y-10079040D02*
X13499120Y-10109040D01*
X13519000Y-8015000D02*
X13549000Y-8045000D01*
X13549000Y-8015000D02*
X13519000Y-8045000D01*
X13520000Y-7357000D02*
X13550000Y-7387000D01*
X13550000Y-7357000D02*
X13520000Y-7387000D01*
X13521000Y-7758000D02*
X13551000Y-7788000D01*
X13551000Y-7758000D02*
X13521000Y-7788000D01*
X13585480Y-7015800D02*
X13615480Y-7045800D01*
X13615480Y-7015800D02*
X13585480Y-7045800D01*
X13614000Y-9651000D02*
X13644000Y-9681000D01*
X13644000Y-9651000D02*
X13614000Y-9681000D01*
X13644000Y-8833627D02*
X13674000Y-8863627D01*
X13674000Y-8833627D02*
X13644000Y-8863627D01*
X13668554Y-7667000D02*
X13698554Y-7697000D01*
X13698554Y-7667000D02*
X13668554Y-7697000D01*
X13692160Y-10856280D02*
X13722160Y-10886280D01*
X13722160Y-10856280D02*
X13692160Y-10886280D01*
X13692160Y-10932480D02*
X13722160Y-10962480D01*
X13722160Y-10932480D02*
X13692160Y-10962480D01*
X13692160Y-11008680D02*
X13722160Y-11038680D01*
X13722160Y-11008680D02*
X13692160Y-11038680D01*
X13692160Y-11084880D02*
X13722160Y-11114880D01*
X13722160Y-11084880D02*
X13692160Y-11114880D01*
X13692160Y-11161080D02*
X13722160Y-11191080D01*
X13722160Y-11161080D02*
X13692160Y-11191080D01*
X13692160Y-11237280D02*
X13722160Y-11267280D01*
X13722160Y-11237280D02*
X13692160Y-11267280D01*
X13692160Y-11313480D02*
X13722160Y-11343480D01*
X13722160Y-11313480D02*
X13692160Y-11343480D01*
X13692160Y-11389680D02*
X13722160Y-11419680D01*
X13722160Y-11389680D02*
X13692160Y-11419680D01*
X13692160Y-11465880D02*
X13722160Y-11495880D01*
X13722160Y-11465880D02*
X13692160Y-11495880D01*
X13731000Y-6049000D02*
X13761000Y-6079000D01*
X13761000Y-6049000D02*
X13731000Y-6079000D01*
X13736000Y-6197000D02*
X13766000Y-6227000D01*
X13766000Y-6197000D02*
X13736000Y-6227000D01*
X13785554Y-9699627D02*
X13815554Y-9729627D01*
X13815554Y-9699627D02*
X13785554Y-9729627D01*
X13807463Y-7276536D02*
X13837463Y-7306536D01*
X13837463Y-7276536D02*
X13807463Y-7306536D01*
X13840714Y-9673466D02*
X13870714Y-9703466D01*
X13870714Y-9673466D02*
X13840714Y-9703466D01*
X13859554Y-7034627D02*
X13889554Y-7064627D01*
X13889554Y-7034627D02*
X13859554Y-7064627D01*
X13874981Y-7271627D02*
X13904981Y-7301627D01*
X13904981Y-7271627D02*
X13874981Y-7301627D01*
X13880090Y-9627090D02*
X13910090Y-9657090D01*
X13910090Y-9627090D02*
X13880090Y-9657090D01*
X13896554Y-5174627D02*
X13926554Y-5204627D01*
X13926554Y-5174627D02*
X13896554Y-5204627D01*
X13980214Y-9593287D02*
X14010214Y-9623287D01*
X14010214Y-9593287D02*
X13980214Y-9623287D01*
X14010554Y-9393500D02*
X14040554Y-9423500D01*
X14040554Y-9393500D02*
X14010554Y-9423500D01*
X14051554Y-9346000D02*
X14081554Y-9376000D01*
X14081554Y-9346000D02*
X14051554Y-9376000D01*
X14087554Y-9298500D02*
X14117554Y-9328500D01*
X14117554Y-9298500D02*
X14087554Y-9328500D01*
X14132000Y-7448000D02*
X14162000Y-7478000D01*
X14162000Y-7448000D02*
X14132000Y-7478000D01*
X14134120Y-7340920D02*
X14164120Y-7370920D01*
X14164120Y-7340920D02*
X14134120Y-7370920D01*
X14144280Y-8438200D02*
X14174280Y-8468200D01*
X14174280Y-8438200D02*
X14144280Y-8468200D01*
X14154440Y-6020120D02*
X14184440Y-6050120D01*
X14184440Y-6020120D02*
X14154440Y-6050120D01*
X14208500Y-6327000D02*
X14238500Y-6357000D01*
X14238500Y-6327000D02*
X14208500Y-6357000D01*
X14218463Y-6218536D02*
X14248463Y-6248536D01*
X14248463Y-6218536D02*
X14218463Y-6248536D01*
X14239554Y-6278627D02*
X14269554Y-6308627D01*
X14269554Y-6278627D02*
X14239554Y-6308627D01*
X14250960Y-8041960D02*
X14280960Y-8071960D01*
X14280960Y-8041960D02*
X14250960Y-8071960D01*
X14262000Y-7892000D02*
X14292000Y-7922000D01*
X14292000Y-7892000D02*
X14262000Y-7922000D01*
X14264000Y-9494000D02*
X14294000Y-9524000D01*
X14294000Y-9494000D02*
X14264000Y-9524000D01*
X14267000Y-7759000D02*
X14297000Y-7789000D01*
X14297000Y-7759000D02*
X14267000Y-7789000D01*
X14296680Y-8128320D02*
X14326680Y-8158320D01*
X14326680Y-8128320D02*
X14296680Y-8158320D01*
X14340000Y-9471000D02*
X14370000Y-9501000D01*
X14370000Y-9471000D02*
X14340000Y-9501000D01*
X14357640Y-9779320D02*
X14387640Y-9809320D01*
X14387640Y-9779320D02*
X14357640Y-9809320D01*
X14367800Y-8773480D02*
X14397800Y-8803480D01*
X14397800Y-8773480D02*
X14367800Y-8803480D01*
X14388120Y-8966520D02*
X14418120Y-8996520D01*
X14418120Y-8966520D02*
X14388120Y-8996520D01*
X14393200Y-9951000D02*
X14423200Y-9981000D01*
X14423200Y-9951000D02*
X14393200Y-9981000D01*
X14404090Y-9416090D02*
X14434090Y-9446090D01*
X14434090Y-9416090D02*
X14404090Y-9446090D01*
X14491000Y-8106000D02*
X14521000Y-8136000D01*
X14521000Y-8106000D02*
X14491000Y-8136000D01*
X14531000Y-6372000D02*
X14561000Y-6402000D01*
X14561000Y-6372000D02*
X14531000Y-6402000D01*
X14535440Y-10861360D02*
X14565440Y-10891360D01*
X14565440Y-10861360D02*
X14535440Y-10891360D01*
X14535440Y-10937560D02*
X14565440Y-10967560D01*
X14565440Y-10937560D02*
X14535440Y-10967560D01*
X14535440Y-11013760D02*
X14565440Y-11043760D01*
X14565440Y-11013760D02*
X14535440Y-11043760D01*
X14535440Y-11089960D02*
X14565440Y-11119960D01*
X14565440Y-11089960D02*
X14535440Y-11119960D01*
X14535440Y-11168000D02*
X14565440Y-11198000D01*
X14565440Y-11168000D02*
X14535440Y-11198000D01*
X14535440Y-11247440D02*
X14565440Y-11277440D01*
X14565440Y-11247440D02*
X14535440Y-11277440D01*
X14535440Y-11323640D02*
X14565440Y-11353640D01*
X14565440Y-11323640D02*
X14535440Y-11353640D01*
X14535440Y-11399840D02*
X14565440Y-11429840D01*
X14565440Y-11399840D02*
X14535440Y-11429840D01*
X14536000Y-11472000D02*
X14566000Y-11502000D01*
X14566000Y-11472000D02*
X14536000Y-11502000D01*
X14540000Y-6293000D02*
X14570000Y-6323000D01*
X14570000Y-6293000D02*
X14540000Y-6323000D01*
X14546000Y-9409000D02*
X14576000Y-9439000D01*
X14576000Y-9409000D02*
X14546000Y-9439000D01*
X14547554Y-5968000D02*
X14577554Y-5998000D01*
X14577554Y-5968000D02*
X14547554Y-5998000D01*
X14549175Y-5900000D02*
X14579175Y-5930000D01*
X14579175Y-5900000D02*
X14549175Y-5930000D01*
X14550680Y-7691440D02*
X14580680Y-7721440D01*
X14580680Y-7691440D02*
X14550680Y-7721440D01*
X14575554Y-7931627D02*
X14605554Y-7961627D01*
X14605554Y-7931627D02*
X14575554Y-7961627D01*
X14576080Y-9977440D02*
X14606080Y-10007440D01*
X14606080Y-9977440D02*
X14576080Y-10007440D01*
X14611640Y-11089960D02*
X14641640Y-11119960D01*
X14641640Y-11089960D02*
X14611640Y-11119960D01*
X14611640Y-11168000D02*
X14641640Y-11198000D01*
X14641640Y-11168000D02*
X14611640Y-11198000D01*
X14611640Y-11247440D02*
X14641640Y-11277440D01*
X14641640Y-11247440D02*
X14611640Y-11277440D01*
X14615554Y-9414627D02*
X14645554Y-9444627D01*
X14645554Y-9414627D02*
X14615554Y-9444627D01*
X14637770Y-9104410D02*
X14667770Y-9134410D01*
X14667770Y-9104410D02*
X14637770Y-9134410D01*
X14664000Y-8097000D02*
X14694000Y-8127000D01*
X14694000Y-8097000D02*
X14664000Y-8127000D01*
X14672600Y-8915720D02*
X14702600Y-8945720D01*
X14702600Y-8915720D02*
X14672600Y-8945720D01*
X14692920Y-11089960D02*
X14722920Y-11119960D01*
X14722920Y-11089960D02*
X14692920Y-11119960D01*
X14692920Y-11168000D02*
X14722920Y-11198000D01*
X14722920Y-11168000D02*
X14692920Y-11198000D01*
X14692920Y-11242360D02*
X14722920Y-11272360D01*
X14722920Y-11242360D02*
X14692920Y-11272360D01*
X14703554Y-7854627D02*
X14733554Y-7884627D01*
X14733554Y-7854627D02*
X14703554Y-7884627D01*
X14748000Y-9422627D02*
X14778000Y-9452627D01*
X14778000Y-9422627D02*
X14748000Y-9452627D01*
X14751500Y-9968500D02*
X14781500Y-9998500D01*
X14781500Y-9968500D02*
X14751500Y-9998500D01*
X14769120Y-11089960D02*
X14799120Y-11119960D01*
X14799120Y-11089960D02*
X14769120Y-11119960D01*
X14769120Y-11168000D02*
X14799120Y-11198000D01*
X14799120Y-11168000D02*
X14769120Y-11198000D01*
X14769120Y-11242360D02*
X14799120Y-11272360D01*
X14799120Y-11242360D02*
X14769120Y-11272360D01*
X14784360Y-8021640D02*
X14814360Y-8051640D01*
X14814360Y-8021640D02*
X14784360Y-8051640D01*
X14793213Y-9517287D02*
X14823213Y-9547287D01*
X14823213Y-9517287D02*
X14793213Y-9547287D01*
X14843000Y-9969627D02*
X14873000Y-9999627D01*
X14873000Y-9969627D02*
X14843000Y-9999627D01*
X14845320Y-11089960D02*
X14875320Y-11119960D01*
X14875320Y-11089960D02*
X14845320Y-11119960D01*
X14845320Y-11168000D02*
X14875320Y-11198000D01*
X14875320Y-11168000D02*
X14845320Y-11198000D01*
X14845320Y-11242360D02*
X14875320Y-11272360D01*
X14875320Y-11242360D02*
X14845320Y-11272360D01*
X14870000Y-9441000D02*
X14900000Y-9471000D01*
X14900000Y-9441000D02*
X14870000Y-9471000D01*
X14921554Y-9261000D02*
X14951554Y-9291000D01*
X14951554Y-9261000D02*
X14921554Y-9291000D01*
X15109000Y-7777000D02*
X15139000Y-7807000D01*
X15139000Y-7777000D02*
X15109000Y-7807000D01*
X15156590Y-7741590D02*
X15186590Y-7771590D01*
X15186590Y-7741590D02*
X15156590Y-7771590D01*
X15198590Y-7694590D02*
X15228590Y-7724590D01*
X15228590Y-7694590D02*
X15198590Y-7724590D01*
X15210000Y-9936627D02*
X15240000Y-9966627D01*
X15240000Y-9936627D02*
X15210000Y-9966627D01*
X15246090Y-7645090D02*
X15276090Y-7675090D01*
X15276090Y-7645090D02*
X15246090Y-7675090D01*
X15261554Y-9888500D02*
X15291554Y-9918500D01*
X15291554Y-9888500D02*
X15261554Y-9918500D01*
X15291090Y-7602090D02*
X15321090Y-7632090D01*
X15321090Y-7602090D02*
X15291090Y-7632090D01*
X15298590Y-9839590D02*
X15328590Y-9869590D01*
X15328590Y-9839590D02*
X15298590Y-9869590D01*
X15327554Y-10191000D02*
X15357554Y-10221000D01*
X15357554Y-10191000D02*
X15327554Y-10221000D01*
X15338090Y-7552090D02*
X15368090Y-7582090D01*
X15368090Y-7552090D02*
X15338090Y-7582090D01*
X15340590Y-9792590D02*
X15370590Y-9822590D01*
X15370590Y-9792590D02*
X15340590Y-9822590D01*
X15377500Y-9098000D02*
X15407500Y-9128000D01*
X15407500Y-9098000D02*
X15377500Y-9128000D01*
X15390000Y-9555800D02*
X15420000Y-9585800D01*
X15420000Y-9555800D02*
X15390000Y-9585800D01*
X15417500Y-8991000D02*
X15447500Y-9021000D01*
X15447500Y-8991000D02*
X15417500Y-9021000D01*
X15627640Y-7884480D02*
X15657640Y-7914480D01*
X15657640Y-7884480D02*
X15627640Y-7914480D01*
X15740000Y-9800000D02*
X15770000Y-9830000D01*
X15770000Y-9800000D02*
X15740000Y-9830000D01*
X15749590Y-9624590D02*
X15779590Y-9654590D01*
X15779590Y-9624590D02*
X15749590Y-9654590D01*
X15758590Y-8270590D02*
X15788590Y-8300590D01*
X15788590Y-8270590D02*
X15758590Y-8300590D01*
X16130560Y-8158800D02*
X16160560Y-8188800D01*
X16160560Y-8158800D02*
X16130560Y-8188800D01*
X16353590Y-8268590D02*
X16383590Y-8298590D01*
X16383590Y-8268590D02*
X16353590Y-8298590D01*
X16504000Y-7569000D02*
X16534000Y-7599000D01*
X16534000Y-7569000D02*
X16504000Y-7599000D01*
X16571000Y-10511000D02*
X16601000Y-10541000D01*
X16601000Y-10511000D02*
X16571000Y-10541000D01*
X16704600Y-8168960D02*
X16734600Y-8198960D01*
X16734600Y-8168960D02*
X16704600Y-8198960D01*
X16798000Y-6996500D02*
X16828000Y-7026500D01*
X16828000Y-6996500D02*
X16798000Y-7026500D01*
X16817590Y-7134590D02*
X16847590Y-7164590D01*
X16847590Y-7134590D02*
X16817590Y-7164590D01*
X17060964Y-9595037D02*
X17090964Y-9625037D01*
X17090964Y-9595037D02*
X17060964Y-9625037D01*
X17064000Y-9817627D02*
X17094000Y-9847627D01*
X17094000Y-9817627D02*
X17064000Y-9847627D01*
X14114000Y-6839500D02*
G75*
G02*
X14029000Y-6839500I-42500J0D01*
G01*
X14029000Y-6839500D02*
G75*
G02*
X14114000Y-6839500I42500J0D01*
G01*
X13361500Y-5599500D02*
X13361500Y-5694500D01*
X13314000Y-5647000D02*
X13409000Y-5647000D01*
X13361500Y-6079500D02*
X13361500Y-6174500D01*
X13314000Y-6127000D02*
X13409000Y-6127000D01*
X13361500Y-6559500D02*
X13361500Y-6654500D01*
X13314000Y-6607000D02*
X13409000Y-6607000D01*
X13821500Y-5367000D02*
X13821500Y-5462000D01*
X13774000Y-5414500D02*
X13869000Y-5414500D01*
X13821500Y-6792000D02*
X13821500Y-6887000D01*
X13774000Y-6839500D02*
X13869000Y-6839500D01*
X14321500Y-5367000D02*
X14321500Y-5462000D01*
X14274000Y-5414500D02*
X14369000Y-5414500D01*
X14321500Y-6792000D02*
X14321500Y-6887000D01*
X14274000Y-6839500D02*
X14369000Y-6839500D01*
X14791500Y-5367000D02*
X14791500Y-5462000D01*
X14744000Y-5414500D02*
X14839000Y-5414500D01*
X14791500Y-6792000D02*
X14791500Y-6887000D01*
X14744000Y-6839500D02*
X14839000Y-6839500D01*
X11865856Y-10055856D02*
X11865856Y-9985144D01*
X11795144Y-9985144D01*
X11795144Y-10055856D01*
X11865856Y-10055856D01*
X11865856Y-10309856D02*
X11865856Y-10239144D01*
X11795144Y-10239144D01*
X11795144Y-10309856D01*
X11865856Y-10309856D01*
X11865856Y-10563856D02*
X11865856Y-10493144D01*
X11795144Y-10493144D01*
X11795144Y-10563856D01*
X11865856Y-10563856D01*
X11870356Y-9040356D02*
X11870356Y-8969644D01*
X11799644Y-8969644D01*
X11799644Y-9040356D01*
X11870356Y-9040356D01*
X11870356Y-9294356D02*
X11870356Y-9223644D01*
X11799644Y-9223644D01*
X11799644Y-9294356D01*
X11870356Y-9294356D01*
X11870356Y-9548356D02*
X11870356Y-9477644D01*
X11799644Y-9477644D01*
X11799644Y-9548356D01*
X11870356Y-9548356D01*
X15656356Y-7429356D02*
X15656356Y-7358644D01*
X15585644Y-7358644D01*
X15585644Y-7429356D01*
X15656356Y-7429356D01*
X15910356Y-7429356D02*
X15910356Y-7358644D01*
X15839644Y-7358644D01*
X15839644Y-7429356D01*
X15910356Y-7429356D01*
X15974356Y-10989356D02*
X15974356Y-10918644D01*
X15903644Y-10918644D01*
X15903644Y-10989356D01*
X15974356Y-10989356D01*
X15809000Y-11004000D02*
X16069000Y-11004000D01*
X16069000Y-10904000D02*
G75*
G02*
X16069000Y-11004000I0J-50000D01*
G01*
X16069000Y-10904000D02*
X15809000Y-10904000D01*
X15809000Y-10904000D02*
G75*
G03*
X15809000Y-11004000I0J-50000D01*
G01*
X15974356Y-11619356D02*
X15974356Y-11548644D01*
X15903644Y-11548644D01*
X15903644Y-11619356D01*
X15974356Y-11619356D01*
X15829000Y-11634000D02*
X16049000Y-11634000D01*
X16049000Y-11534000D02*
G75*
G02*
X16049000Y-11634000I0J-50000D01*
G01*
X16049000Y-11534000D02*
X15829000Y-11534000D01*
X15829000Y-11534000D02*
G75*
G03*
X15829000Y-11634000I0J-50000D01*
G01*
X16164356Y-7429356D02*
X16164356Y-7358644D01*
X16093644Y-7358644D01*
X16093644Y-7429356D01*
X16164356Y-7429356D01*
X16418356Y-7429356D02*
X16418356Y-7358644D01*
X16347644Y-7358644D01*
X16347644Y-7429356D01*
X16418356Y-7429356D01*
X16454356Y-11279356D02*
X16454356Y-11208644D01*
X16383644Y-11208644D01*
X16383644Y-11279356D01*
X16454356Y-11279356D01*
X16369000Y-11134000D02*
X16369000Y-11354000D01*
X16469000Y-11354000D02*
G75*
G02*
X16369000Y-11354000I-50000J0D01*
G01*
X16469000Y-11354000D02*
X16469000Y-11134000D01*
X16469000Y-11134000D02*
G75*
G03*
X16369000Y-11134000I-50000J0D01*
G01*
X16672356Y-7429356D02*
X16672356Y-7358644D01*
X16601644Y-7358644D01*
X16601644Y-7429356D01*
X16672356Y-7429356D01*
X17234356Y-7304856D02*
X17234356Y-7234144D01*
X17163644Y-7234144D01*
X17163644Y-7304856D01*
X17234356Y-7304856D01*
X17234356Y-7558856D02*
X17234356Y-7488144D01*
X17163644Y-7488144D01*
X17163644Y-7558856D01*
X17234356Y-7558856D01*
X17234356Y-7812856D02*
X17234356Y-7742144D01*
X17163644Y-7742144D01*
X17163644Y-7812856D01*
X17234356Y-7812856D01*
X17236356Y-8284856D02*
X17236356Y-8214144D01*
X17165644Y-8214144D01*
X17165644Y-8284856D01*
X17236356Y-8284856D01*
X17236356Y-8538856D02*
X17236356Y-8468144D01*
X17165644Y-8468144D01*
X17165644Y-8538856D01*
X17236356Y-8538856D01*
D13*
X13571500Y-5467000D02*
X13624000Y-5414500D01*
X13571500Y-5362000D01*
X13519000Y-5414500D01*
X13571500Y-5467000D01*
X14571500Y-5467000D02*
X14624000Y-5414500D01*
X14571500Y-5362000D01*
X14519000Y-5414500D01*
X14571500Y-5467000D01*
X15071500Y-5784500D02*
X15124000Y-5732000D01*
X15071500Y-5679500D01*
X15019000Y-5732000D01*
X15071500Y-5784500D01*
X15071500Y-6324500D02*
X15124000Y-6272000D01*
X15071500Y-6219500D01*
X15019000Y-6272000D01*
X15071500Y-6324500D01*
X15071500Y-6892000D02*
X15124000Y-6839500D01*
X15071500Y-6787000D01*
X15019000Y-6839500D01*
X15071500Y-6892000D01*
X15571500Y-5467000D02*
X15624000Y-5414500D01*
X15571500Y-5362000D01*
X15519000Y-5414500D01*
X15571500Y-5467000D01*
X16071500Y-6892000D02*
X16124000Y-6839500D01*
X16071500Y-6787000D01*
X16019000Y-6839500D01*
X16071500Y-6892000D01*
X16571500Y-5467000D02*
X16624000Y-5414500D01*
X16571500Y-5362000D01*
X16519000Y-5414500D01*
X16571500Y-5467000D01*
X17071500Y-6034500D02*
X17124000Y-5982000D01*
X17071500Y-5929500D01*
X17019000Y-5982000D01*
X17071500Y-6034500D01*
X17071500Y-6892000D02*
X17124000Y-6839500D01*
X17071500Y-6787000D01*
X17019000Y-6839500D01*
X17071500Y-6892000D01*
D14*
X12729000Y-11228000D02*
X12859000Y-11358000D01*
X12859000Y-11228000D02*
X12729000Y-11358000D01*
X12859000Y-11293000D02*
G75*
G02*
X12729000Y-11293000I-65000J0D01*
G01*
X12729000Y-11293000D02*
G75*
G02*
X12859000Y-11293000I65000J0D01*
G01*
X13229000Y-11228000D02*
X13359000Y-11358000D01*
X13359000Y-11228000D02*
X13229000Y-11358000D01*
X13359000Y-11293000D02*
G75*
G02*
X13229000Y-11293000I-65000J0D01*
G01*
X13229000Y-11293000D02*
G75*
G02*
X13359000Y-11293000I65000J0D01*
G01*
D15*
X11855000Y-11163000D02*
X12175000Y-11483000D01*
X12175000Y-11163000D02*
X11855000Y-11483000D01*
X12015000Y-11163000D02*
X12015000Y-11483000D01*
X11855000Y-11323000D02*
X12175000Y-11323000D01*
X11899000Y-5443000D02*
X12219000Y-5763000D01*
X12219000Y-5443000D02*
X11899000Y-5763000D01*
X12059000Y-5443000D02*
X12059000Y-5763000D01*
X11899000Y-5603000D02*
X12219000Y-5603000D01*
X16872000Y-11164000D02*
X17192000Y-11484000D01*
X17192000Y-11164000D02*
X16872000Y-11484000D01*
X17032000Y-11164000D02*
X17032000Y-11484000D01*
X16872000Y-11324000D02*
X17192000Y-11324000D01*
D11*
X11751330Y-12158930D02*
X11751330Y-11958930D01*
X11751330Y-11958930D02*
X11798949Y-11958930D01*
X11798949Y-11958930D02*
X11827521Y-11968454D01*
X11827521Y-11968454D02*
X11846568Y-11987502D01*
X11846568Y-11987502D02*
X11856092Y-12006549D01*
X11856092Y-12006549D02*
X11865616Y-12044645D01*
X11865616Y-12044645D02*
X11865616Y-12073216D01*
X11865616Y-12073216D02*
X11856092Y-12111311D01*
X11856092Y-12111311D02*
X11846568Y-12130359D01*
X11846568Y-12130359D02*
X11827521Y-12149407D01*
X11827521Y-12149407D02*
X11798949Y-12158930D01*
X11798949Y-12158930D02*
X11751330Y-12158930D01*
X11951330Y-12158930D02*
X11951330Y-12025597D01*
X11951330Y-12063692D02*
X11960854Y-12044645D01*
X11960854Y-12044645D02*
X11970378Y-12035121D01*
X11970378Y-12035121D02*
X11989425Y-12025597D01*
X11989425Y-12025597D02*
X12008473Y-12025597D01*
X12075140Y-12158930D02*
X12075140Y-12025597D01*
X12075140Y-11958930D02*
X12065616Y-11968454D01*
X12065616Y-11968454D02*
X12075140Y-11977978D01*
X12075140Y-11977978D02*
X12084663Y-11968454D01*
X12084663Y-11968454D02*
X12075140Y-11958930D01*
X12075140Y-11958930D02*
X12075140Y-11977978D01*
X12198949Y-12158930D02*
X12179902Y-12149407D01*
X12179902Y-12149407D02*
X12170378Y-12130359D01*
X12170378Y-12130359D02*
X12170378Y-11958930D01*
X12303711Y-12158930D02*
X12284663Y-12149407D01*
X12284663Y-12149407D02*
X12275140Y-12130359D01*
X12275140Y-12130359D02*
X12275140Y-11958930D01*
X12532283Y-12158930D02*
X12532283Y-11958930D01*
X12532283Y-11958930D02*
X12598949Y-12101787D01*
X12598949Y-12101787D02*
X12665616Y-11958930D01*
X12665616Y-11958930D02*
X12665616Y-12158930D01*
X12846568Y-12158930D02*
X12846568Y-12054168D01*
X12846568Y-12054168D02*
X12837044Y-12035121D01*
X12837044Y-12035121D02*
X12817997Y-12025597D01*
X12817997Y-12025597D02*
X12779902Y-12025597D01*
X12779902Y-12025597D02*
X12760854Y-12035121D01*
X12846568Y-12149407D02*
X12827521Y-12158930D01*
X12827521Y-12158930D02*
X12779902Y-12158930D01*
X12779902Y-12158930D02*
X12760854Y-12149407D01*
X12760854Y-12149407D02*
X12751330Y-12130359D01*
X12751330Y-12130359D02*
X12751330Y-12111311D01*
X12751330Y-12111311D02*
X12760854Y-12092264D01*
X12760854Y-12092264D02*
X12779902Y-12082740D01*
X12779902Y-12082740D02*
X12827521Y-12082740D01*
X12827521Y-12082740D02*
X12846568Y-12073216D01*
X12941806Y-12025597D02*
X12941806Y-12225597D01*
X12941806Y-12035121D02*
X12960854Y-12025597D01*
X12960854Y-12025597D02*
X12998949Y-12025597D01*
X12998949Y-12025597D02*
X13017997Y-12035121D01*
X13017997Y-12035121D02*
X13027521Y-12044645D01*
X13027521Y-12044645D02*
X13037044Y-12063692D01*
X13037044Y-12063692D02*
X13037044Y-12120835D01*
X13037044Y-12120835D02*
X13027521Y-12139883D01*
X13027521Y-12139883D02*
X13017997Y-12149407D01*
X13017997Y-12149407D02*
X12998949Y-12158930D01*
X12998949Y-12158930D02*
X12960854Y-12158930D01*
X12960854Y-12158930D02*
X12941806Y-12149407D01*
X13122759Y-12139883D02*
X13132283Y-12149407D01*
X13132283Y-12149407D02*
X13122759Y-12158930D01*
X13122759Y-12158930D02*
X13113235Y-12149407D01*
X13113235Y-12149407D02*
X13122759Y-12139883D01*
X13122759Y-12139883D02*
X13122759Y-12158930D01*
X13122759Y-12035121D02*
X13132283Y-12044645D01*
X13132283Y-12044645D02*
X13122759Y-12054168D01*
X13122759Y-12054168D02*
X13113235Y-12044645D01*
X13113235Y-12044645D02*
X13122759Y-12035121D01*
X13122759Y-12035121D02*
X13122759Y-12054168D01*
D12*
X11460553Y-12472447D02*
X11490553Y-12502447D01*
X11490553Y-12472447D02*
X11460553Y-12502447D01*
D11*
X11789425Y-12378930D02*
X11808473Y-12378930D01*
X11808473Y-12378930D02*
X11827521Y-12388454D01*
X11827521Y-12388454D02*
X11837044Y-12397978D01*
X11837044Y-12397978D02*
X11846568Y-12417026D01*
X11846568Y-12417026D02*
X11856092Y-12455121D01*
X11856092Y-12455121D02*
X11856092Y-12502740D01*
X11856092Y-12502740D02*
X11846568Y-12540835D01*
X11846568Y-12540835D02*
X11837044Y-12559883D01*
X11837044Y-12559883D02*
X11827521Y-12569407D01*
X11827521Y-12569407D02*
X11808473Y-12578930D01*
X11808473Y-12578930D02*
X11789425Y-12578930D01*
X11789425Y-12578930D02*
X11770378Y-12569407D01*
X11770378Y-12569407D02*
X11760854Y-12559883D01*
X11760854Y-12559883D02*
X11751330Y-12540835D01*
X11751330Y-12540835D02*
X11741806Y-12502740D01*
X11741806Y-12502740D02*
X11741806Y-12455121D01*
X11741806Y-12455121D02*
X11751330Y-12417026D01*
X11751330Y-12417026D02*
X11760854Y-12397978D01*
X11760854Y-12397978D02*
X11770378Y-12388454D01*
X11770378Y-12388454D02*
X11789425Y-12378930D01*
X11941806Y-12559883D02*
X11951330Y-12569407D01*
X11951330Y-12569407D02*
X11941806Y-12578930D01*
X11941806Y-12578930D02*
X11932283Y-12569407D01*
X11932283Y-12569407D02*
X11941806Y-12559883D01*
X11941806Y-12559883D02*
X11941806Y-12578930D01*
X12017997Y-12378930D02*
X12141806Y-12378930D01*
X12141806Y-12378930D02*
X12075140Y-12455121D01*
X12075140Y-12455121D02*
X12103711Y-12455121D01*
X12103711Y-12455121D02*
X12122759Y-12464645D01*
X12122759Y-12464645D02*
X12132283Y-12474168D01*
X12132283Y-12474168D02*
X12141806Y-12493216D01*
X12141806Y-12493216D02*
X12141806Y-12540835D01*
X12141806Y-12540835D02*
X12132283Y-12559883D01*
X12132283Y-12559883D02*
X12122759Y-12569407D01*
X12122759Y-12569407D02*
X12103711Y-12578930D01*
X12103711Y-12578930D02*
X12046568Y-12578930D01*
X12046568Y-12578930D02*
X12027521Y-12569407D01*
X12027521Y-12569407D02*
X12017997Y-12559883D01*
X12265616Y-12378930D02*
X12284664Y-12378930D01*
X12284664Y-12378930D02*
X12303711Y-12388454D01*
X12303711Y-12388454D02*
X12313235Y-12397978D01*
X12313235Y-12397978D02*
X12322759Y-12417026D01*
X12322759Y-12417026D02*
X12332283Y-12455121D01*
X12332283Y-12455121D02*
X12332283Y-12502740D01*
X12332283Y-12502740D02*
X12322759Y-12540835D01*
X12322759Y-12540835D02*
X12313235Y-12559883D01*
X12313235Y-12559883D02*
X12303711Y-12569407D01*
X12303711Y-12569407D02*
X12284664Y-12578930D01*
X12284664Y-12578930D02*
X12265616Y-12578930D01*
X12265616Y-12578930D02*
X12246568Y-12569407D01*
X12246568Y-12569407D02*
X12237044Y-12559883D01*
X12237044Y-12559883D02*
X12227521Y-12540835D01*
X12227521Y-12540835D02*
X12217997Y-12502740D01*
X12217997Y-12502740D02*
X12217997Y-12455121D01*
X12217997Y-12455121D02*
X12227521Y-12417026D01*
X12227521Y-12417026D02*
X12237044Y-12397978D01*
X12237044Y-12397978D02*
X12246568Y-12388454D01*
X12246568Y-12388454D02*
X12265616Y-12378930D01*
X12456092Y-12378930D02*
X12475140Y-12378930D01*
X12475140Y-12378930D02*
X12494187Y-12388454D01*
X12494187Y-12388454D02*
X12503711Y-12397978D01*
X12503711Y-12397978D02*
X12513235Y-12417026D01*
X12513235Y-12417026D02*
X12522759Y-12455121D01*
X12522759Y-12455121D02*
X12522759Y-12502740D01*
X12522759Y-12502740D02*
X12513235Y-12540835D01*
X12513235Y-12540835D02*
X12503711Y-12559883D01*
X12503711Y-12559883D02*
X12494187Y-12569407D01*
X12494187Y-12569407D02*
X12475140Y-12578930D01*
X12475140Y-12578930D02*
X12456092Y-12578930D01*
X12456092Y-12578930D02*
X12437044Y-12569407D01*
X12437044Y-12569407D02*
X12427521Y-12559883D01*
X12427521Y-12559883D02*
X12417997Y-12540835D01*
X12417997Y-12540835D02*
X12408473Y-12502740D01*
X12408473Y-12502740D02*
X12408473Y-12455121D01*
X12408473Y-12455121D02*
X12417997Y-12417026D01*
X12417997Y-12417026D02*
X12427521Y-12397978D01*
X12427521Y-12397978D02*
X12437044Y-12388454D01*
X12437044Y-12388454D02*
X12456092Y-12378930D01*
X12608473Y-12578930D02*
X12608473Y-12445597D01*
X12608473Y-12464645D02*
X12617997Y-12455121D01*
X12617997Y-12455121D02*
X12637044Y-12445597D01*
X12637044Y-12445597D02*
X12665616Y-12445597D01*
X12665616Y-12445597D02*
X12684664Y-12455121D01*
X12684664Y-12455121D02*
X12694187Y-12474168D01*
X12694187Y-12474168D02*
X12694187Y-12578930D01*
X12694187Y-12474168D02*
X12703711Y-12455121D01*
X12703711Y-12455121D02*
X12722759Y-12445597D01*
X12722759Y-12445597D02*
X12751330Y-12445597D01*
X12751330Y-12445597D02*
X12770378Y-12455121D01*
X12770378Y-12455121D02*
X12779902Y-12474168D01*
X12779902Y-12474168D02*
X12779902Y-12578930D01*
X12875140Y-12578930D02*
X12875140Y-12445597D01*
X12875140Y-12464645D02*
X12884664Y-12455121D01*
X12884664Y-12455121D02*
X12903711Y-12445597D01*
X12903711Y-12445597D02*
X12932283Y-12445597D01*
X12932283Y-12445597D02*
X12951330Y-12455121D01*
X12951330Y-12455121D02*
X12960854Y-12474168D01*
X12960854Y-12474168D02*
X12960854Y-12578930D01*
X12960854Y-12474168D02*
X12970378Y-12455121D01*
X12970378Y-12455121D02*
X12989425Y-12445597D01*
X12989425Y-12445597D02*
X13017997Y-12445597D01*
X13017997Y-12445597D02*
X13037045Y-12455121D01*
X13037045Y-12455121D02*
X13046568Y-12474168D01*
X13046568Y-12474168D02*
X13046568Y-12578930D01*
X13437045Y-12369407D02*
X13265616Y-12626549D01*
X13694187Y-12378930D02*
X13713235Y-12378930D01*
X13713235Y-12378930D02*
X13732283Y-12388454D01*
X13732283Y-12388454D02*
X13741807Y-12397978D01*
X13741807Y-12397978D02*
X13751330Y-12417026D01*
X13751330Y-12417026D02*
X13760854Y-12455121D01*
X13760854Y-12455121D02*
X13760854Y-12502740D01*
X13760854Y-12502740D02*
X13751330Y-12540835D01*
X13751330Y-12540835D02*
X13741807Y-12559883D01*
X13741807Y-12559883D02*
X13732283Y-12569407D01*
X13732283Y-12569407D02*
X13713235Y-12578930D01*
X13713235Y-12578930D02*
X13694187Y-12578930D01*
X13694187Y-12578930D02*
X13675140Y-12569407D01*
X13675140Y-12569407D02*
X13665616Y-12559883D01*
X13665616Y-12559883D02*
X13656092Y-12540835D01*
X13656092Y-12540835D02*
X13646568Y-12502740D01*
X13646568Y-12502740D02*
X13646568Y-12455121D01*
X13646568Y-12455121D02*
X13656092Y-12417026D01*
X13656092Y-12417026D02*
X13665616Y-12397978D01*
X13665616Y-12397978D02*
X13675140Y-12388454D01*
X13675140Y-12388454D02*
X13694187Y-12378930D01*
X13846568Y-12559883D02*
X13856092Y-12569407D01*
X13856092Y-12569407D02*
X13846568Y-12578930D01*
X13846568Y-12578930D02*
X13837045Y-12569407D01*
X13837045Y-12569407D02*
X13846568Y-12559883D01*
X13846568Y-12559883D02*
X13846568Y-12578930D01*
X13979902Y-12378930D02*
X13998949Y-12378930D01*
X13998949Y-12378930D02*
X14017997Y-12388454D01*
X14017997Y-12388454D02*
X14027521Y-12397978D01*
X14027521Y-12397978D02*
X14037045Y-12417026D01*
X14037045Y-12417026D02*
X14046568Y-12455121D01*
X14046568Y-12455121D02*
X14046568Y-12502740D01*
X14046568Y-12502740D02*
X14037045Y-12540835D01*
X14037045Y-12540835D02*
X14027521Y-12559883D01*
X14027521Y-12559883D02*
X14017997Y-12569407D01*
X14017997Y-12569407D02*
X13998949Y-12578930D01*
X13998949Y-12578930D02*
X13979902Y-12578930D01*
X13979902Y-12578930D02*
X13960854Y-12569407D01*
X13960854Y-12569407D02*
X13951330Y-12559883D01*
X13951330Y-12559883D02*
X13941807Y-12540835D01*
X13941807Y-12540835D02*
X13932283Y-12502740D01*
X13932283Y-12502740D02*
X13932283Y-12455121D01*
X13932283Y-12455121D02*
X13941807Y-12417026D01*
X13941807Y-12417026D02*
X13951330Y-12397978D01*
X13951330Y-12397978D02*
X13960854Y-12388454D01*
X13960854Y-12388454D02*
X13979902Y-12378930D01*
X14237045Y-12578930D02*
X14122759Y-12578930D01*
X14179902Y-12578930D02*
X14179902Y-12378930D01*
X14179902Y-12378930D02*
X14160854Y-12407502D01*
X14160854Y-12407502D02*
X14141807Y-12426549D01*
X14141807Y-12426549D02*
X14122759Y-12436073D01*
X14427521Y-12578930D02*
X14313235Y-12578930D01*
X14370378Y-12578930D02*
X14370378Y-12378930D01*
X14370378Y-12378930D02*
X14351330Y-12407502D01*
X14351330Y-12407502D02*
X14332283Y-12426549D01*
X14332283Y-12426549D02*
X14313235Y-12436073D01*
X14541807Y-12464645D02*
X14522759Y-12455121D01*
X14522759Y-12455121D02*
X14513235Y-12445597D01*
X14513235Y-12445597D02*
X14503711Y-12426549D01*
X14503711Y-12426549D02*
X14503711Y-12417026D01*
X14503711Y-12417026D02*
X14513235Y-12397978D01*
X14513235Y-12397978D02*
X14522759Y-12388454D01*
X14522759Y-12388454D02*
X14541807Y-12378930D01*
X14541807Y-12378930D02*
X14579902Y-12378930D01*
X14579902Y-12378930D02*
X14598949Y-12388454D01*
X14598949Y-12388454D02*
X14608473Y-12397978D01*
X14608473Y-12397978D02*
X14617997Y-12417026D01*
X14617997Y-12417026D02*
X14617997Y-12426549D01*
X14617997Y-12426549D02*
X14608473Y-12445597D01*
X14608473Y-12445597D02*
X14598949Y-12455121D01*
X14598949Y-12455121D02*
X14579902Y-12464645D01*
X14579902Y-12464645D02*
X14541807Y-12464645D01*
X14541807Y-12464645D02*
X14522759Y-12474168D01*
X14522759Y-12474168D02*
X14513235Y-12483692D01*
X14513235Y-12483692D02*
X14503711Y-12502740D01*
X14503711Y-12502740D02*
X14503711Y-12540835D01*
X14503711Y-12540835D02*
X14513235Y-12559883D01*
X14513235Y-12559883D02*
X14522759Y-12569407D01*
X14522759Y-12569407D02*
X14541807Y-12578930D01*
X14541807Y-12578930D02*
X14579902Y-12578930D01*
X14579902Y-12578930D02*
X14598949Y-12569407D01*
X14598949Y-12569407D02*
X14608473Y-12559883D01*
X14608473Y-12559883D02*
X14617997Y-12540835D01*
X14617997Y-12540835D02*
X14617997Y-12502740D01*
X14617997Y-12502740D02*
X14608473Y-12483692D01*
X14608473Y-12483692D02*
X14598949Y-12474168D01*
X14598949Y-12474168D02*
X14579902Y-12464645D01*
X14694188Y-12378930D02*
X14694188Y-12417026D01*
X14770378Y-12378930D02*
X14770378Y-12417026D01*
X15065616Y-12655121D02*
X15056092Y-12645597D01*
X15056092Y-12645597D02*
X15037045Y-12617026D01*
X15037045Y-12617026D02*
X15027521Y-12597978D01*
X15027521Y-12597978D02*
X15017997Y-12569407D01*
X15017997Y-12569407D02*
X15008473Y-12521787D01*
X15008473Y-12521787D02*
X15008473Y-12483692D01*
X15008473Y-12483692D02*
X15017997Y-12436073D01*
X15017997Y-12436073D02*
X15027521Y-12407502D01*
X15027521Y-12407502D02*
X15037045Y-12388454D01*
X15037045Y-12388454D02*
X15056092Y-12359883D01*
X15056092Y-12359883D02*
X15065616Y-12350359D01*
X15246569Y-12578930D02*
X15132283Y-12578930D01*
X15189426Y-12578930D02*
X15189426Y-12378930D01*
X15189426Y-12378930D02*
X15170378Y-12407502D01*
X15170378Y-12407502D02*
X15151330Y-12426549D01*
X15151330Y-12426549D02*
X15132283Y-12436073D01*
X15417997Y-12378930D02*
X15379902Y-12378930D01*
X15379902Y-12378930D02*
X15360854Y-12388454D01*
X15360854Y-12388454D02*
X15351330Y-12397978D01*
X15351330Y-12397978D02*
X15332283Y-12426549D01*
X15332283Y-12426549D02*
X15322759Y-12464645D01*
X15322759Y-12464645D02*
X15322759Y-12540835D01*
X15322759Y-12540835D02*
X15332283Y-12559883D01*
X15332283Y-12559883D02*
X15341807Y-12569407D01*
X15341807Y-12569407D02*
X15360854Y-12578930D01*
X15360854Y-12578930D02*
X15398950Y-12578930D01*
X15398950Y-12578930D02*
X15417997Y-12569407D01*
X15417997Y-12569407D02*
X15427521Y-12559883D01*
X15427521Y-12559883D02*
X15437045Y-12540835D01*
X15437045Y-12540835D02*
X15437045Y-12493216D01*
X15437045Y-12493216D02*
X15427521Y-12474168D01*
X15427521Y-12474168D02*
X15417997Y-12464645D01*
X15417997Y-12464645D02*
X15398950Y-12455121D01*
X15398950Y-12455121D02*
X15360854Y-12455121D01*
X15360854Y-12455121D02*
X15341807Y-12464645D01*
X15341807Y-12464645D02*
X15332283Y-12474168D01*
X15332283Y-12474168D02*
X15322759Y-12493216D01*
X15503711Y-12378930D02*
X15627521Y-12378930D01*
X15627521Y-12378930D02*
X15560854Y-12455121D01*
X15560854Y-12455121D02*
X15589426Y-12455121D01*
X15589426Y-12455121D02*
X15608473Y-12464645D01*
X15608473Y-12464645D02*
X15617997Y-12474168D01*
X15617997Y-12474168D02*
X15627521Y-12493216D01*
X15627521Y-12493216D02*
X15627521Y-12540835D01*
X15627521Y-12540835D02*
X15617997Y-12559883D01*
X15617997Y-12559883D02*
X15608473Y-12569407D01*
X15608473Y-12569407D02*
X15589426Y-12578930D01*
X15589426Y-12578930D02*
X15532283Y-12578930D01*
X15532283Y-12578930D02*
X15513235Y-12569407D01*
X15513235Y-12569407D02*
X15503711Y-12559883D01*
X15865616Y-12578930D02*
X15865616Y-12378930D01*
X15951331Y-12578930D02*
X15951331Y-12474168D01*
X15951331Y-12474168D02*
X15941807Y-12455121D01*
X15941807Y-12455121D02*
X15922759Y-12445597D01*
X15922759Y-12445597D02*
X15894188Y-12445597D01*
X15894188Y-12445597D02*
X15875140Y-12455121D01*
X15875140Y-12455121D02*
X15865616Y-12464645D01*
X16075140Y-12578930D02*
X16056092Y-12569407D01*
X16056092Y-12569407D02*
X16046569Y-12559883D01*
X16046569Y-12559883D02*
X16037045Y-12540835D01*
X16037045Y-12540835D02*
X16037045Y-12483692D01*
X16037045Y-12483692D02*
X16046569Y-12464645D01*
X16046569Y-12464645D02*
X16056092Y-12455121D01*
X16056092Y-12455121D02*
X16075140Y-12445597D01*
X16075140Y-12445597D02*
X16103712Y-12445597D01*
X16103712Y-12445597D02*
X16122759Y-12455121D01*
X16122759Y-12455121D02*
X16132283Y-12464645D01*
X16132283Y-12464645D02*
X16141807Y-12483692D01*
X16141807Y-12483692D02*
X16141807Y-12540835D01*
X16141807Y-12540835D02*
X16132283Y-12559883D01*
X16132283Y-12559883D02*
X16122759Y-12569407D01*
X16122759Y-12569407D02*
X16103712Y-12578930D01*
X16103712Y-12578930D02*
X16075140Y-12578930D01*
X16256092Y-12578930D02*
X16237045Y-12569407D01*
X16237045Y-12569407D02*
X16227521Y-12550359D01*
X16227521Y-12550359D02*
X16227521Y-12378930D01*
X16408473Y-12569407D02*
X16389426Y-12578930D01*
X16389426Y-12578930D02*
X16351331Y-12578930D01*
X16351331Y-12578930D02*
X16332283Y-12569407D01*
X16332283Y-12569407D02*
X16322759Y-12550359D01*
X16322759Y-12550359D02*
X16322759Y-12474168D01*
X16322759Y-12474168D02*
X16332283Y-12455121D01*
X16332283Y-12455121D02*
X16351331Y-12445597D01*
X16351331Y-12445597D02*
X16389426Y-12445597D01*
X16389426Y-12445597D02*
X16408473Y-12455121D01*
X16408473Y-12455121D02*
X16417997Y-12474168D01*
X16417997Y-12474168D02*
X16417997Y-12493216D01*
X16417997Y-12493216D02*
X16322759Y-12512264D01*
X16494188Y-12569407D02*
X16513235Y-12578930D01*
X16513235Y-12578930D02*
X16551331Y-12578930D01*
X16551331Y-12578930D02*
X16570378Y-12569407D01*
X16570378Y-12569407D02*
X16579902Y-12550359D01*
X16579902Y-12550359D02*
X16579902Y-12540835D01*
X16579902Y-12540835D02*
X16570378Y-12521787D01*
X16570378Y-12521787D02*
X16551331Y-12512264D01*
X16551331Y-12512264D02*
X16522759Y-12512264D01*
X16522759Y-12512264D02*
X16503712Y-12502740D01*
X16503712Y-12502740D02*
X16494188Y-12483692D01*
X16494188Y-12483692D02*
X16494188Y-12474168D01*
X16494188Y-12474168D02*
X16503712Y-12455121D01*
X16503712Y-12455121D02*
X16522759Y-12445597D01*
X16522759Y-12445597D02*
X16551331Y-12445597D01*
X16551331Y-12445597D02*
X16570378Y-12455121D01*
X16646569Y-12655121D02*
X16656093Y-12645597D01*
X16656093Y-12645597D02*
X16675140Y-12617026D01*
X16675140Y-12617026D02*
X16684664Y-12597978D01*
X16684664Y-12597978D02*
X16694188Y-12569407D01*
X16694188Y-12569407D02*
X16703712Y-12521787D01*
X16703712Y-12521787D02*
X16703712Y-12483692D01*
X16703712Y-12483692D02*
X16694188Y-12436073D01*
X16694188Y-12436073D02*
X16684664Y-12407502D01*
X16684664Y-12407502D02*
X16675140Y-12388454D01*
X16675140Y-12388454D02*
X16656093Y-12359883D01*
X16656093Y-12359883D02*
X16646569Y-12350359D01*
D12*
X11490553Y-12751447D02*
G75*
G02*
X11405553Y-12751447I-42500J0D01*
G01*
X11405553Y-12751447D02*
G75*
G02*
X11490553Y-12751447I42500J0D01*
G01*
D11*
X11789425Y-12642930D02*
X11808473Y-12642930D01*
X11808473Y-12642930D02*
X11827521Y-12652454D01*
X11827521Y-12652454D02*
X11837044Y-12661978D01*
X11837044Y-12661978D02*
X11846568Y-12681026D01*
X11846568Y-12681026D02*
X11856092Y-12719121D01*
X11856092Y-12719121D02*
X11856092Y-12766740D01*
X11856092Y-12766740D02*
X11846568Y-12804835D01*
X11846568Y-12804835D02*
X11837044Y-12823883D01*
X11837044Y-12823883D02*
X11827521Y-12833407D01*
X11827521Y-12833407D02*
X11808473Y-12842930D01*
X11808473Y-12842930D02*
X11789425Y-12842930D01*
X11789425Y-12842930D02*
X11770378Y-12833407D01*
X11770378Y-12833407D02*
X11760854Y-12823883D01*
X11760854Y-12823883D02*
X11751330Y-12804835D01*
X11751330Y-12804835D02*
X11741806Y-12766740D01*
X11741806Y-12766740D02*
X11741806Y-12719121D01*
X11741806Y-12719121D02*
X11751330Y-12681026D01*
X11751330Y-12681026D02*
X11760854Y-12661978D01*
X11760854Y-12661978D02*
X11770378Y-12652454D01*
X11770378Y-12652454D02*
X11789425Y-12642930D01*
X11941806Y-12823883D02*
X11951330Y-12833407D01*
X11951330Y-12833407D02*
X11941806Y-12842930D01*
X11941806Y-12842930D02*
X11932283Y-12833407D01*
X11932283Y-12833407D02*
X11941806Y-12823883D01*
X11941806Y-12823883D02*
X11941806Y-12842930D01*
X12065616Y-12728645D02*
X12046568Y-12719121D01*
X12046568Y-12719121D02*
X12037044Y-12709597D01*
X12037044Y-12709597D02*
X12027521Y-12690549D01*
X12027521Y-12690549D02*
X12027521Y-12681026D01*
X12027521Y-12681026D02*
X12037044Y-12661978D01*
X12037044Y-12661978D02*
X12046568Y-12652454D01*
X12046568Y-12652454D02*
X12065616Y-12642930D01*
X12065616Y-12642930D02*
X12103711Y-12642930D01*
X12103711Y-12642930D02*
X12122759Y-12652454D01*
X12122759Y-12652454D02*
X12132283Y-12661978D01*
X12132283Y-12661978D02*
X12141806Y-12681026D01*
X12141806Y-12681026D02*
X12141806Y-12690549D01*
X12141806Y-12690549D02*
X12132283Y-12709597D01*
X12132283Y-12709597D02*
X12122759Y-12719121D01*
X12122759Y-12719121D02*
X12103711Y-12728645D01*
X12103711Y-12728645D02*
X12065616Y-12728645D01*
X12065616Y-12728645D02*
X12046568Y-12738168D01*
X12046568Y-12738168D02*
X12037044Y-12747692D01*
X12037044Y-12747692D02*
X12027521Y-12766740D01*
X12027521Y-12766740D02*
X12027521Y-12804835D01*
X12027521Y-12804835D02*
X12037044Y-12823883D01*
X12037044Y-12823883D02*
X12046568Y-12833407D01*
X12046568Y-12833407D02*
X12065616Y-12842930D01*
X12065616Y-12842930D02*
X12103711Y-12842930D01*
X12103711Y-12842930D02*
X12122759Y-12833407D01*
X12122759Y-12833407D02*
X12132283Y-12823883D01*
X12132283Y-12823883D02*
X12141806Y-12804835D01*
X12141806Y-12804835D02*
X12141806Y-12766740D01*
X12141806Y-12766740D02*
X12132283Y-12747692D01*
X12132283Y-12747692D02*
X12122759Y-12738168D01*
X12122759Y-12738168D02*
X12103711Y-12728645D01*
X12322759Y-12642930D02*
X12227521Y-12642930D01*
X12227521Y-12642930D02*
X12217997Y-12738168D01*
X12217997Y-12738168D02*
X12227521Y-12728645D01*
X12227521Y-12728645D02*
X12246568Y-12719121D01*
X12246568Y-12719121D02*
X12294187Y-12719121D01*
X12294187Y-12719121D02*
X12313235Y-12728645D01*
X12313235Y-12728645D02*
X12322759Y-12738168D01*
X12322759Y-12738168D02*
X12332283Y-12757216D01*
X12332283Y-12757216D02*
X12332283Y-12804835D01*
X12332283Y-12804835D02*
X12322759Y-12823883D01*
X12322759Y-12823883D02*
X12313235Y-12833407D01*
X12313235Y-12833407D02*
X12294187Y-12842930D01*
X12294187Y-12842930D02*
X12246568Y-12842930D01*
X12246568Y-12842930D02*
X12227521Y-12833407D01*
X12227521Y-12833407D02*
X12217997Y-12823883D01*
X12456092Y-12642930D02*
X12475140Y-12642930D01*
X12475140Y-12642930D02*
X12494187Y-12652454D01*
X12494187Y-12652454D02*
X12503711Y-12661978D01*
X12503711Y-12661978D02*
X12513235Y-12681026D01*
X12513235Y-12681026D02*
X12522759Y-12719121D01*
X12522759Y-12719121D02*
X12522759Y-12766740D01*
X12522759Y-12766740D02*
X12513235Y-12804835D01*
X12513235Y-12804835D02*
X12503711Y-12823883D01*
X12503711Y-12823883D02*
X12494187Y-12833407D01*
X12494187Y-12833407D02*
X12475140Y-12842930D01*
X12475140Y-12842930D02*
X12456092Y-12842930D01*
X12456092Y-12842930D02*
X12437044Y-12833407D01*
X12437044Y-12833407D02*
X12427521Y-12823883D01*
X12427521Y-12823883D02*
X12417997Y-12804835D01*
X12417997Y-12804835D02*
X12408473Y-12766740D01*
X12408473Y-12766740D02*
X12408473Y-12719121D01*
X12408473Y-12719121D02*
X12417997Y-12681026D01*
X12417997Y-12681026D02*
X12427521Y-12661978D01*
X12427521Y-12661978D02*
X12437044Y-12652454D01*
X12437044Y-12652454D02*
X12456092Y-12642930D01*
X12608473Y-12842930D02*
X12608473Y-12709597D01*
X12608473Y-12728645D02*
X12617997Y-12719121D01*
X12617997Y-12719121D02*
X12637044Y-12709597D01*
X12637044Y-12709597D02*
X12665616Y-12709597D01*
X12665616Y-12709597D02*
X12684664Y-12719121D01*
X12684664Y-12719121D02*
X12694187Y-12738168D01*
X12694187Y-12738168D02*
X12694187Y-12842930D01*
X12694187Y-12738168D02*
X12703711Y-12719121D01*
X12703711Y-12719121D02*
X12722759Y-12709597D01*
X12722759Y-12709597D02*
X12751330Y-12709597D01*
X12751330Y-12709597D02*
X12770378Y-12719121D01*
X12770378Y-12719121D02*
X12779902Y-12738168D01*
X12779902Y-12738168D02*
X12779902Y-12842930D01*
X12875140Y-12842930D02*
X12875140Y-12709597D01*
X12875140Y-12728645D02*
X12884664Y-12719121D01*
X12884664Y-12719121D02*
X12903711Y-12709597D01*
X12903711Y-12709597D02*
X12932283Y-12709597D01*
X12932283Y-12709597D02*
X12951330Y-12719121D01*
X12951330Y-12719121D02*
X12960854Y-12738168D01*
X12960854Y-12738168D02*
X12960854Y-12842930D01*
X12960854Y-12738168D02*
X12970378Y-12719121D01*
X12970378Y-12719121D02*
X12989425Y-12709597D01*
X12989425Y-12709597D02*
X13017997Y-12709597D01*
X13017997Y-12709597D02*
X13037045Y-12719121D01*
X13037045Y-12719121D02*
X13046568Y-12738168D01*
X13046568Y-12738168D02*
X13046568Y-12842930D01*
X13437045Y-12633407D02*
X13265616Y-12890549D01*
X13694187Y-12642930D02*
X13713235Y-12642930D01*
X13713235Y-12642930D02*
X13732283Y-12652454D01*
X13732283Y-12652454D02*
X13741807Y-12661978D01*
X13741807Y-12661978D02*
X13751330Y-12681026D01*
X13751330Y-12681026D02*
X13760854Y-12719121D01*
X13760854Y-12719121D02*
X13760854Y-12766740D01*
X13760854Y-12766740D02*
X13751330Y-12804835D01*
X13751330Y-12804835D02*
X13741807Y-12823883D01*
X13741807Y-12823883D02*
X13732283Y-12833407D01*
X13732283Y-12833407D02*
X13713235Y-12842930D01*
X13713235Y-12842930D02*
X13694187Y-12842930D01*
X13694187Y-12842930D02*
X13675140Y-12833407D01*
X13675140Y-12833407D02*
X13665616Y-12823883D01*
X13665616Y-12823883D02*
X13656092Y-12804835D01*
X13656092Y-12804835D02*
X13646568Y-12766740D01*
X13646568Y-12766740D02*
X13646568Y-12719121D01*
X13646568Y-12719121D02*
X13656092Y-12681026D01*
X13656092Y-12681026D02*
X13665616Y-12661978D01*
X13665616Y-12661978D02*
X13675140Y-12652454D01*
X13675140Y-12652454D02*
X13694187Y-12642930D01*
X13846568Y-12823883D02*
X13856092Y-12833407D01*
X13856092Y-12833407D02*
X13846568Y-12842930D01*
X13846568Y-12842930D02*
X13837045Y-12833407D01*
X13837045Y-12833407D02*
X13846568Y-12823883D01*
X13846568Y-12823883D02*
X13846568Y-12842930D01*
X13979902Y-12642930D02*
X13998949Y-12642930D01*
X13998949Y-12642930D02*
X14017997Y-12652454D01*
X14017997Y-12652454D02*
X14027521Y-12661978D01*
X14027521Y-12661978D02*
X14037045Y-12681026D01*
X14037045Y-12681026D02*
X14046568Y-12719121D01*
X14046568Y-12719121D02*
X14046568Y-12766740D01*
X14046568Y-12766740D02*
X14037045Y-12804835D01*
X14037045Y-12804835D02*
X14027521Y-12823883D01*
X14027521Y-12823883D02*
X14017997Y-12833407D01*
X14017997Y-12833407D02*
X13998949Y-12842930D01*
X13998949Y-12842930D02*
X13979902Y-12842930D01*
X13979902Y-12842930D02*
X13960854Y-12833407D01*
X13960854Y-12833407D02*
X13951330Y-12823883D01*
X13951330Y-12823883D02*
X13941807Y-12804835D01*
X13941807Y-12804835D02*
X13932283Y-12766740D01*
X13932283Y-12766740D02*
X13932283Y-12719121D01*
X13932283Y-12719121D02*
X13941807Y-12681026D01*
X13941807Y-12681026D02*
X13951330Y-12661978D01*
X13951330Y-12661978D02*
X13960854Y-12652454D01*
X13960854Y-12652454D02*
X13979902Y-12642930D01*
X14113235Y-12642930D02*
X14237045Y-12642930D01*
X14237045Y-12642930D02*
X14170378Y-12719121D01*
X14170378Y-12719121D02*
X14198949Y-12719121D01*
X14198949Y-12719121D02*
X14217997Y-12728645D01*
X14217997Y-12728645D02*
X14227521Y-12738168D01*
X14227521Y-12738168D02*
X14237045Y-12757216D01*
X14237045Y-12757216D02*
X14237045Y-12804835D01*
X14237045Y-12804835D02*
X14227521Y-12823883D01*
X14227521Y-12823883D02*
X14217997Y-12833407D01*
X14217997Y-12833407D02*
X14198949Y-12842930D01*
X14198949Y-12842930D02*
X14141807Y-12842930D01*
X14141807Y-12842930D02*
X14122759Y-12833407D01*
X14122759Y-12833407D02*
X14113235Y-12823883D01*
X14303711Y-12642930D02*
X14427521Y-12642930D01*
X14427521Y-12642930D02*
X14360854Y-12719121D01*
X14360854Y-12719121D02*
X14389426Y-12719121D01*
X14389426Y-12719121D02*
X14408473Y-12728645D01*
X14408473Y-12728645D02*
X14417997Y-12738168D01*
X14417997Y-12738168D02*
X14427521Y-12757216D01*
X14427521Y-12757216D02*
X14427521Y-12804835D01*
X14427521Y-12804835D02*
X14417997Y-12823883D01*
X14417997Y-12823883D02*
X14408473Y-12833407D01*
X14408473Y-12833407D02*
X14389426Y-12842930D01*
X14389426Y-12842930D02*
X14332283Y-12842930D01*
X14332283Y-12842930D02*
X14313235Y-12833407D01*
X14313235Y-12833407D02*
X14303711Y-12823883D01*
X14608473Y-12642930D02*
X14513235Y-12642930D01*
X14513235Y-12642930D02*
X14503711Y-12738168D01*
X14503711Y-12738168D02*
X14513235Y-12728645D01*
X14513235Y-12728645D02*
X14532283Y-12719121D01*
X14532283Y-12719121D02*
X14579902Y-12719121D01*
X14579902Y-12719121D02*
X14598949Y-12728645D01*
X14598949Y-12728645D02*
X14608473Y-12738168D01*
X14608473Y-12738168D02*
X14617997Y-12757216D01*
X14617997Y-12757216D02*
X14617997Y-12804835D01*
X14617997Y-12804835D02*
X14608473Y-12823883D01*
X14608473Y-12823883D02*
X14598949Y-12833407D01*
X14598949Y-12833407D02*
X14579902Y-12842930D01*
X14579902Y-12842930D02*
X14532283Y-12842930D01*
X14532283Y-12842930D02*
X14513235Y-12833407D01*
X14513235Y-12833407D02*
X14503711Y-12823883D01*
X14694188Y-12642930D02*
X14694188Y-12681026D01*
X14770378Y-12642930D02*
X14770378Y-12681026D01*
X15065616Y-12919121D02*
X15056092Y-12909597D01*
X15056092Y-12909597D02*
X15037045Y-12881026D01*
X15037045Y-12881026D02*
X15027521Y-12861978D01*
X15027521Y-12861978D02*
X15017997Y-12833407D01*
X15017997Y-12833407D02*
X15008473Y-12785787D01*
X15008473Y-12785787D02*
X15008473Y-12747692D01*
X15008473Y-12747692D02*
X15017997Y-12700073D01*
X15017997Y-12700073D02*
X15027521Y-12671502D01*
X15027521Y-12671502D02*
X15037045Y-12652454D01*
X15037045Y-12652454D02*
X15056092Y-12623883D01*
X15056092Y-12623883D02*
X15065616Y-12614359D01*
X15246569Y-12842930D02*
X15132283Y-12842930D01*
X15189426Y-12842930D02*
X15189426Y-12642930D01*
X15189426Y-12642930D02*
X15170378Y-12671502D01*
X15170378Y-12671502D02*
X15151330Y-12690549D01*
X15151330Y-12690549D02*
X15132283Y-12700073D01*
X15484664Y-12842930D02*
X15484664Y-12642930D01*
X15570378Y-12842930D02*
X15570378Y-12738168D01*
X15570378Y-12738168D02*
X15560854Y-12719121D01*
X15560854Y-12719121D02*
X15541807Y-12709597D01*
X15541807Y-12709597D02*
X15513235Y-12709597D01*
X15513235Y-12709597D02*
X15494188Y-12719121D01*
X15494188Y-12719121D02*
X15484664Y-12728645D01*
X15694188Y-12842930D02*
X15675140Y-12833407D01*
X15675140Y-12833407D02*
X15665616Y-12823883D01*
X15665616Y-12823883D02*
X15656092Y-12804835D01*
X15656092Y-12804835D02*
X15656092Y-12747692D01*
X15656092Y-12747692D02*
X15665616Y-12728645D01*
X15665616Y-12728645D02*
X15675140Y-12719121D01*
X15675140Y-12719121D02*
X15694188Y-12709597D01*
X15694188Y-12709597D02*
X15722759Y-12709597D01*
X15722759Y-12709597D02*
X15741807Y-12719121D01*
X15741807Y-12719121D02*
X15751331Y-12728645D01*
X15751331Y-12728645D02*
X15760854Y-12747692D01*
X15760854Y-12747692D02*
X15760854Y-12804835D01*
X15760854Y-12804835D02*
X15751331Y-12823883D01*
X15751331Y-12823883D02*
X15741807Y-12833407D01*
X15741807Y-12833407D02*
X15722759Y-12842930D01*
X15722759Y-12842930D02*
X15694188Y-12842930D01*
X15875140Y-12842930D02*
X15856092Y-12833407D01*
X15856092Y-12833407D02*
X15846569Y-12814359D01*
X15846569Y-12814359D02*
X15846569Y-12642930D01*
X16027521Y-12833407D02*
X16008473Y-12842930D01*
X16008473Y-12842930D02*
X15970378Y-12842930D01*
X15970378Y-12842930D02*
X15951331Y-12833407D01*
X15951331Y-12833407D02*
X15941807Y-12814359D01*
X15941807Y-12814359D02*
X15941807Y-12738168D01*
X15941807Y-12738168D02*
X15951331Y-12719121D01*
X15951331Y-12719121D02*
X15970378Y-12709597D01*
X15970378Y-12709597D02*
X16008473Y-12709597D01*
X16008473Y-12709597D02*
X16027521Y-12719121D01*
X16027521Y-12719121D02*
X16037045Y-12738168D01*
X16037045Y-12738168D02*
X16037045Y-12757216D01*
X16037045Y-12757216D02*
X15941807Y-12776264D01*
X16103712Y-12919121D02*
X16113235Y-12909597D01*
X16113235Y-12909597D02*
X16132283Y-12881026D01*
X16132283Y-12881026D02*
X16141807Y-12861978D01*
X16141807Y-12861978D02*
X16151331Y-12833407D01*
X16151331Y-12833407D02*
X16160854Y-12785787D01*
X16160854Y-12785787D02*
X16160854Y-12747692D01*
X16160854Y-12747692D02*
X16151331Y-12700073D01*
X16151331Y-12700073D02*
X16141807Y-12671502D01*
X16141807Y-12671502D02*
X16132283Y-12652454D01*
X16132283Y-12652454D02*
X16113235Y-12623883D01*
X16113235Y-12623883D02*
X16103712Y-12614359D01*
D12*
X11443053Y-12967947D02*
X11443053Y-13062947D01*
X11395553Y-13015447D02*
X11490553Y-13015447D01*
D11*
X11789425Y-12906930D02*
X11808473Y-12906930D01*
X11808473Y-12906930D02*
X11827521Y-12916454D01*
X11827521Y-12916454D02*
X11837044Y-12925978D01*
X11837044Y-12925978D02*
X11846568Y-12945026D01*
X11846568Y-12945026D02*
X11856092Y-12983121D01*
X11856092Y-12983121D02*
X11856092Y-13030740D01*
X11856092Y-13030740D02*
X11846568Y-13068835D01*
X11846568Y-13068835D02*
X11837044Y-13087883D01*
X11837044Y-13087883D02*
X11827521Y-13097407D01*
X11827521Y-13097407D02*
X11808473Y-13106930D01*
X11808473Y-13106930D02*
X11789425Y-13106930D01*
X11789425Y-13106930D02*
X11770378Y-13097407D01*
X11770378Y-13097407D02*
X11760854Y-13087883D01*
X11760854Y-13087883D02*
X11751330Y-13068835D01*
X11751330Y-13068835D02*
X11741806Y-13030740D01*
X11741806Y-13030740D02*
X11741806Y-12983121D01*
X11741806Y-12983121D02*
X11751330Y-12945026D01*
X11751330Y-12945026D02*
X11760854Y-12925978D01*
X11760854Y-12925978D02*
X11770378Y-12916454D01*
X11770378Y-12916454D02*
X11789425Y-12906930D01*
X11941806Y-13087883D02*
X11951330Y-13097407D01*
X11951330Y-13097407D02*
X11941806Y-13106930D01*
X11941806Y-13106930D02*
X11932283Y-13097407D01*
X11932283Y-13097407D02*
X11941806Y-13087883D01*
X11941806Y-13087883D02*
X11941806Y-13106930D01*
X12046568Y-13106930D02*
X12084663Y-13106930D01*
X12084663Y-13106930D02*
X12103711Y-13097407D01*
X12103711Y-13097407D02*
X12113235Y-13087883D01*
X12113235Y-13087883D02*
X12132283Y-13059311D01*
X12132283Y-13059311D02*
X12141806Y-13021216D01*
X12141806Y-13021216D02*
X12141806Y-12945026D01*
X12141806Y-12945026D02*
X12132283Y-12925978D01*
X12132283Y-12925978D02*
X12122759Y-12916454D01*
X12122759Y-12916454D02*
X12103711Y-12906930D01*
X12103711Y-12906930D02*
X12065616Y-12906930D01*
X12065616Y-12906930D02*
X12046568Y-12916454D01*
X12046568Y-12916454D02*
X12037044Y-12925978D01*
X12037044Y-12925978D02*
X12027521Y-12945026D01*
X12027521Y-12945026D02*
X12027521Y-12992645D01*
X12027521Y-12992645D02*
X12037044Y-13011692D01*
X12037044Y-13011692D02*
X12046568Y-13021216D01*
X12046568Y-13021216D02*
X12065616Y-13030740D01*
X12065616Y-13030740D02*
X12103711Y-13030740D01*
X12103711Y-13030740D02*
X12122759Y-13021216D01*
X12122759Y-13021216D02*
X12132283Y-13011692D01*
X12132283Y-13011692D02*
X12141806Y-12992645D01*
X12322759Y-12906930D02*
X12227521Y-12906930D01*
X12227521Y-12906930D02*
X12217997Y-13002168D01*
X12217997Y-13002168D02*
X12227521Y-12992645D01*
X12227521Y-12992645D02*
X12246568Y-12983121D01*
X12246568Y-12983121D02*
X12294187Y-12983121D01*
X12294187Y-12983121D02*
X12313235Y-12992645D01*
X12313235Y-12992645D02*
X12322759Y-13002168D01*
X12322759Y-13002168D02*
X12332283Y-13021216D01*
X12332283Y-13021216D02*
X12332283Y-13068835D01*
X12332283Y-13068835D02*
X12322759Y-13087883D01*
X12322759Y-13087883D02*
X12313235Y-13097407D01*
X12313235Y-13097407D02*
X12294187Y-13106930D01*
X12294187Y-13106930D02*
X12246568Y-13106930D01*
X12246568Y-13106930D02*
X12227521Y-13097407D01*
X12227521Y-13097407D02*
X12217997Y-13087883D01*
X12456092Y-12906930D02*
X12475140Y-12906930D01*
X12475140Y-12906930D02*
X12494187Y-12916454D01*
X12494187Y-12916454D02*
X12503711Y-12925978D01*
X12503711Y-12925978D02*
X12513235Y-12945026D01*
X12513235Y-12945026D02*
X12522759Y-12983121D01*
X12522759Y-12983121D02*
X12522759Y-13030740D01*
X12522759Y-13030740D02*
X12513235Y-13068835D01*
X12513235Y-13068835D02*
X12503711Y-13087883D01*
X12503711Y-13087883D02*
X12494187Y-13097407D01*
X12494187Y-13097407D02*
X12475140Y-13106930D01*
X12475140Y-13106930D02*
X12456092Y-13106930D01*
X12456092Y-13106930D02*
X12437044Y-13097407D01*
X12437044Y-13097407D02*
X12427521Y-13087883D01*
X12427521Y-13087883D02*
X12417997Y-13068835D01*
X12417997Y-13068835D02*
X12408473Y-13030740D01*
X12408473Y-13030740D02*
X12408473Y-12983121D01*
X12408473Y-12983121D02*
X12417997Y-12945026D01*
X12417997Y-12945026D02*
X12427521Y-12925978D01*
X12427521Y-12925978D02*
X12437044Y-12916454D01*
X12437044Y-12916454D02*
X12456092Y-12906930D01*
X12608473Y-13106930D02*
X12608473Y-12973597D01*
X12608473Y-12992645D02*
X12617997Y-12983121D01*
X12617997Y-12983121D02*
X12637044Y-12973597D01*
X12637044Y-12973597D02*
X12665616Y-12973597D01*
X12665616Y-12973597D02*
X12684664Y-12983121D01*
X12684664Y-12983121D02*
X12694187Y-13002168D01*
X12694187Y-13002168D02*
X12694187Y-13106930D01*
X12694187Y-13002168D02*
X12703711Y-12983121D01*
X12703711Y-12983121D02*
X12722759Y-12973597D01*
X12722759Y-12973597D02*
X12751330Y-12973597D01*
X12751330Y-12973597D02*
X12770378Y-12983121D01*
X12770378Y-12983121D02*
X12779902Y-13002168D01*
X12779902Y-13002168D02*
X12779902Y-13106930D01*
X12875140Y-13106930D02*
X12875140Y-12973597D01*
X12875140Y-12992645D02*
X12884664Y-12983121D01*
X12884664Y-12983121D02*
X12903711Y-12973597D01*
X12903711Y-12973597D02*
X12932283Y-12973597D01*
X12932283Y-12973597D02*
X12951330Y-12983121D01*
X12951330Y-12983121D02*
X12960854Y-13002168D01*
X12960854Y-13002168D02*
X12960854Y-13106930D01*
X12960854Y-13002168D02*
X12970378Y-12983121D01*
X12970378Y-12983121D02*
X12989425Y-12973597D01*
X12989425Y-12973597D02*
X13017997Y-12973597D01*
X13017997Y-12973597D02*
X13037045Y-12983121D01*
X13037045Y-12983121D02*
X13046568Y-13002168D01*
X13046568Y-13002168D02*
X13046568Y-13106930D01*
X13437045Y-12897407D02*
X13265616Y-13154549D01*
X13694187Y-12906930D02*
X13713235Y-12906930D01*
X13713235Y-12906930D02*
X13732283Y-12916454D01*
X13732283Y-12916454D02*
X13741807Y-12925978D01*
X13741807Y-12925978D02*
X13751330Y-12945026D01*
X13751330Y-12945026D02*
X13760854Y-12983121D01*
X13760854Y-12983121D02*
X13760854Y-13030740D01*
X13760854Y-13030740D02*
X13751330Y-13068835D01*
X13751330Y-13068835D02*
X13741807Y-13087883D01*
X13741807Y-13087883D02*
X13732283Y-13097407D01*
X13732283Y-13097407D02*
X13713235Y-13106930D01*
X13713235Y-13106930D02*
X13694187Y-13106930D01*
X13694187Y-13106930D02*
X13675140Y-13097407D01*
X13675140Y-13097407D02*
X13665616Y-13087883D01*
X13665616Y-13087883D02*
X13656092Y-13068835D01*
X13656092Y-13068835D02*
X13646568Y-13030740D01*
X13646568Y-13030740D02*
X13646568Y-12983121D01*
X13646568Y-12983121D02*
X13656092Y-12945026D01*
X13656092Y-12945026D02*
X13665616Y-12925978D01*
X13665616Y-12925978D02*
X13675140Y-12916454D01*
X13675140Y-12916454D02*
X13694187Y-12906930D01*
X13846568Y-13087883D02*
X13856092Y-13097407D01*
X13856092Y-13097407D02*
X13846568Y-13106930D01*
X13846568Y-13106930D02*
X13837045Y-13097407D01*
X13837045Y-13097407D02*
X13846568Y-13087883D01*
X13846568Y-13087883D02*
X13846568Y-13106930D01*
X13979902Y-12906930D02*
X13998949Y-12906930D01*
X13998949Y-12906930D02*
X14017997Y-12916454D01*
X14017997Y-12916454D02*
X14027521Y-12925978D01*
X14027521Y-12925978D02*
X14037045Y-12945026D01*
X14037045Y-12945026D02*
X14046568Y-12983121D01*
X14046568Y-12983121D02*
X14046568Y-13030740D01*
X14046568Y-13030740D02*
X14037045Y-13068835D01*
X14037045Y-13068835D02*
X14027521Y-13087883D01*
X14027521Y-13087883D02*
X14017997Y-13097407D01*
X14017997Y-13097407D02*
X13998949Y-13106930D01*
X13998949Y-13106930D02*
X13979902Y-13106930D01*
X13979902Y-13106930D02*
X13960854Y-13097407D01*
X13960854Y-13097407D02*
X13951330Y-13087883D01*
X13951330Y-13087883D02*
X13941807Y-13068835D01*
X13941807Y-13068835D02*
X13932283Y-13030740D01*
X13932283Y-13030740D02*
X13932283Y-12983121D01*
X13932283Y-12983121D02*
X13941807Y-12945026D01*
X13941807Y-12945026D02*
X13951330Y-12925978D01*
X13951330Y-12925978D02*
X13960854Y-12916454D01*
X13960854Y-12916454D02*
X13979902Y-12906930D01*
X14113235Y-12906930D02*
X14237045Y-12906930D01*
X14237045Y-12906930D02*
X14170378Y-12983121D01*
X14170378Y-12983121D02*
X14198949Y-12983121D01*
X14198949Y-12983121D02*
X14217997Y-12992645D01*
X14217997Y-12992645D02*
X14227521Y-13002168D01*
X14227521Y-13002168D02*
X14237045Y-13021216D01*
X14237045Y-13021216D02*
X14237045Y-13068835D01*
X14237045Y-13068835D02*
X14227521Y-13087883D01*
X14227521Y-13087883D02*
X14217997Y-13097407D01*
X14217997Y-13097407D02*
X14198949Y-13106930D01*
X14198949Y-13106930D02*
X14141807Y-13106930D01*
X14141807Y-13106930D02*
X14122759Y-13097407D01*
X14122759Y-13097407D02*
X14113235Y-13087883D01*
X14303711Y-12906930D02*
X14437045Y-12906930D01*
X14437045Y-12906930D02*
X14351330Y-13106930D01*
X14598949Y-12973597D02*
X14598949Y-13106930D01*
X14551330Y-12897407D02*
X14503711Y-13040264D01*
X14503711Y-13040264D02*
X14627521Y-13040264D01*
X14694188Y-12906930D02*
X14694188Y-12945026D01*
X14770378Y-12906930D02*
X14770378Y-12945026D01*
X15065616Y-13183121D02*
X15056092Y-13173597D01*
X15056092Y-13173597D02*
X15037045Y-13145026D01*
X15037045Y-13145026D02*
X15027521Y-13125978D01*
X15027521Y-13125978D02*
X15017997Y-13097407D01*
X15017997Y-13097407D02*
X15008473Y-13049787D01*
X15008473Y-13049787D02*
X15008473Y-13011692D01*
X15008473Y-13011692D02*
X15017997Y-12964073D01*
X15017997Y-12964073D02*
X15027521Y-12935502D01*
X15027521Y-12935502D02*
X15037045Y-12916454D01*
X15037045Y-12916454D02*
X15056092Y-12887883D01*
X15056092Y-12887883D02*
X15065616Y-12878359D01*
X15151330Y-13106930D02*
X15189426Y-13106930D01*
X15189426Y-13106930D02*
X15208473Y-13097407D01*
X15208473Y-13097407D02*
X15217997Y-13087883D01*
X15217997Y-13087883D02*
X15237045Y-13059311D01*
X15237045Y-13059311D02*
X15246569Y-13021216D01*
X15246569Y-13021216D02*
X15246569Y-12945026D01*
X15246569Y-12945026D02*
X15237045Y-12925978D01*
X15237045Y-12925978D02*
X15227521Y-12916454D01*
X15227521Y-12916454D02*
X15208473Y-12906930D01*
X15208473Y-12906930D02*
X15170378Y-12906930D01*
X15170378Y-12906930D02*
X15151330Y-12916454D01*
X15151330Y-12916454D02*
X15141807Y-12925978D01*
X15141807Y-12925978D02*
X15132283Y-12945026D01*
X15132283Y-12945026D02*
X15132283Y-12992645D01*
X15132283Y-12992645D02*
X15141807Y-13011692D01*
X15141807Y-13011692D02*
X15151330Y-13021216D01*
X15151330Y-13021216D02*
X15170378Y-13030740D01*
X15170378Y-13030740D02*
X15208473Y-13030740D01*
X15208473Y-13030740D02*
X15227521Y-13021216D01*
X15227521Y-13021216D02*
X15237045Y-13011692D01*
X15237045Y-13011692D02*
X15246569Y-12992645D01*
X15484664Y-13106930D02*
X15484664Y-12906930D01*
X15570378Y-13106930D02*
X15570378Y-13002168D01*
X15570378Y-13002168D02*
X15560854Y-12983121D01*
X15560854Y-12983121D02*
X15541807Y-12973597D01*
X15541807Y-12973597D02*
X15513235Y-12973597D01*
X15513235Y-12973597D02*
X15494188Y-12983121D01*
X15494188Y-12983121D02*
X15484664Y-12992645D01*
X15694188Y-13106930D02*
X15675140Y-13097407D01*
X15675140Y-13097407D02*
X15665616Y-13087883D01*
X15665616Y-13087883D02*
X15656092Y-13068835D01*
X15656092Y-13068835D02*
X15656092Y-13011692D01*
X15656092Y-13011692D02*
X15665616Y-12992645D01*
X15665616Y-12992645D02*
X15675140Y-12983121D01*
X15675140Y-12983121D02*
X15694188Y-12973597D01*
X15694188Y-12973597D02*
X15722759Y-12973597D01*
X15722759Y-12973597D02*
X15741807Y-12983121D01*
X15741807Y-12983121D02*
X15751331Y-12992645D01*
X15751331Y-12992645D02*
X15760854Y-13011692D01*
X15760854Y-13011692D02*
X15760854Y-13068835D01*
X15760854Y-13068835D02*
X15751331Y-13087883D01*
X15751331Y-13087883D02*
X15741807Y-13097407D01*
X15741807Y-13097407D02*
X15722759Y-13106930D01*
X15722759Y-13106930D02*
X15694188Y-13106930D01*
X15875140Y-13106930D02*
X15856092Y-13097407D01*
X15856092Y-13097407D02*
X15846569Y-13078359D01*
X15846569Y-13078359D02*
X15846569Y-12906930D01*
X16027521Y-13097407D02*
X16008473Y-13106930D01*
X16008473Y-13106930D02*
X15970378Y-13106930D01*
X15970378Y-13106930D02*
X15951331Y-13097407D01*
X15951331Y-13097407D02*
X15941807Y-13078359D01*
X15941807Y-13078359D02*
X15941807Y-13002168D01*
X15941807Y-13002168D02*
X15951331Y-12983121D01*
X15951331Y-12983121D02*
X15970378Y-12973597D01*
X15970378Y-12973597D02*
X16008473Y-12973597D01*
X16008473Y-12973597D02*
X16027521Y-12983121D01*
X16027521Y-12983121D02*
X16037045Y-13002168D01*
X16037045Y-13002168D02*
X16037045Y-13021216D01*
X16037045Y-13021216D02*
X15941807Y-13040264D01*
X16113235Y-13097407D02*
X16132283Y-13106930D01*
X16132283Y-13106930D02*
X16170378Y-13106930D01*
X16170378Y-13106930D02*
X16189426Y-13097407D01*
X16189426Y-13097407D02*
X16198950Y-13078359D01*
X16198950Y-13078359D02*
X16198950Y-13068835D01*
X16198950Y-13068835D02*
X16189426Y-13049787D01*
X16189426Y-13049787D02*
X16170378Y-13040264D01*
X16170378Y-13040264D02*
X16141807Y-13040264D01*
X16141807Y-13040264D02*
X16122759Y-13030740D01*
X16122759Y-13030740D02*
X16113235Y-13011692D01*
X16113235Y-13011692D02*
X16113235Y-13002168D01*
X16113235Y-13002168D02*
X16122759Y-12983121D01*
X16122759Y-12983121D02*
X16141807Y-12973597D01*
X16141807Y-12973597D02*
X16170378Y-12973597D01*
X16170378Y-12973597D02*
X16189426Y-12983121D01*
X16265616Y-13183121D02*
X16275140Y-13173597D01*
X16275140Y-13173597D02*
X16294188Y-13145026D01*
X16294188Y-13145026D02*
X16303712Y-13125978D01*
X16303712Y-13125978D02*
X16313235Y-13097407D01*
X16313235Y-13097407D02*
X16322759Y-13049787D01*
X16322759Y-13049787D02*
X16322759Y-13011692D01*
X16322759Y-13011692D02*
X16313235Y-12964073D01*
X16313235Y-12964073D02*
X16303712Y-12935502D01*
X16303712Y-12935502D02*
X16294188Y-12916454D01*
X16294188Y-12916454D02*
X16275140Y-12887883D01*
X16275140Y-12887883D02*
X16265616Y-12878359D01*
D12*
X11475909Y-13314802D02*
X11475909Y-13244091D01*
X11405198Y-13244091D01*
X11405198Y-13314802D01*
X11475909Y-13314802D01*
D11*
X11856092Y-13370930D02*
X11741806Y-13370930D01*
X11798949Y-13370930D02*
X11798949Y-13170930D01*
X11798949Y-13170930D02*
X11779902Y-13199502D01*
X11779902Y-13199502D02*
X11760854Y-13218549D01*
X11760854Y-13218549D02*
X11741806Y-13228073D01*
X11941806Y-13351883D02*
X11951330Y-13361407D01*
X11951330Y-13361407D02*
X11941806Y-13370930D01*
X11941806Y-13370930D02*
X11932283Y-13361407D01*
X11932283Y-13361407D02*
X11941806Y-13351883D01*
X11941806Y-13351883D02*
X11941806Y-13370930D01*
X12075140Y-13170930D02*
X12094187Y-13170930D01*
X12094187Y-13170930D02*
X12113235Y-13180454D01*
X12113235Y-13180454D02*
X12122759Y-13189978D01*
X12122759Y-13189978D02*
X12132283Y-13209026D01*
X12132283Y-13209026D02*
X12141806Y-13247121D01*
X12141806Y-13247121D02*
X12141806Y-13294740D01*
X12141806Y-13294740D02*
X12132283Y-13332835D01*
X12132283Y-13332835D02*
X12122759Y-13351883D01*
X12122759Y-13351883D02*
X12113235Y-13361407D01*
X12113235Y-13361407D02*
X12094187Y-13370930D01*
X12094187Y-13370930D02*
X12075140Y-13370930D01*
X12075140Y-13370930D02*
X12056092Y-13361407D01*
X12056092Y-13361407D02*
X12046568Y-13351883D01*
X12046568Y-13351883D02*
X12037044Y-13332835D01*
X12037044Y-13332835D02*
X12027521Y-13294740D01*
X12027521Y-13294740D02*
X12027521Y-13247121D01*
X12027521Y-13247121D02*
X12037044Y-13209026D01*
X12037044Y-13209026D02*
X12046568Y-13189978D01*
X12046568Y-13189978D02*
X12056092Y-13180454D01*
X12056092Y-13180454D02*
X12075140Y-13170930D01*
X12265616Y-13170930D02*
X12284664Y-13170930D01*
X12284664Y-13170930D02*
X12303711Y-13180454D01*
X12303711Y-13180454D02*
X12313235Y-13189978D01*
X12313235Y-13189978D02*
X12322759Y-13209026D01*
X12322759Y-13209026D02*
X12332283Y-13247121D01*
X12332283Y-13247121D02*
X12332283Y-13294740D01*
X12332283Y-13294740D02*
X12322759Y-13332835D01*
X12322759Y-13332835D02*
X12313235Y-13351883D01*
X12313235Y-13351883D02*
X12303711Y-13361407D01*
X12303711Y-13361407D02*
X12284664Y-13370930D01*
X12284664Y-13370930D02*
X12265616Y-13370930D01*
X12265616Y-13370930D02*
X12246568Y-13361407D01*
X12246568Y-13361407D02*
X12237044Y-13351883D01*
X12237044Y-13351883D02*
X12227521Y-13332835D01*
X12227521Y-13332835D02*
X12217997Y-13294740D01*
X12217997Y-13294740D02*
X12217997Y-13247121D01*
X12217997Y-13247121D02*
X12227521Y-13209026D01*
X12227521Y-13209026D02*
X12237044Y-13189978D01*
X12237044Y-13189978D02*
X12246568Y-13180454D01*
X12246568Y-13180454D02*
X12265616Y-13170930D01*
X12456092Y-13170930D02*
X12475140Y-13170930D01*
X12475140Y-13170930D02*
X12494187Y-13180454D01*
X12494187Y-13180454D02*
X12503711Y-13189978D01*
X12503711Y-13189978D02*
X12513235Y-13209026D01*
X12513235Y-13209026D02*
X12522759Y-13247121D01*
X12522759Y-13247121D02*
X12522759Y-13294740D01*
X12522759Y-13294740D02*
X12513235Y-13332835D01*
X12513235Y-13332835D02*
X12503711Y-13351883D01*
X12503711Y-13351883D02*
X12494187Y-13361407D01*
X12494187Y-13361407D02*
X12475140Y-13370930D01*
X12475140Y-13370930D02*
X12456092Y-13370930D01*
X12456092Y-13370930D02*
X12437044Y-13361407D01*
X12437044Y-13361407D02*
X12427521Y-13351883D01*
X12427521Y-13351883D02*
X12417997Y-13332835D01*
X12417997Y-13332835D02*
X12408473Y-13294740D01*
X12408473Y-13294740D02*
X12408473Y-13247121D01*
X12408473Y-13247121D02*
X12417997Y-13209026D01*
X12417997Y-13209026D02*
X12427521Y-13189978D01*
X12427521Y-13189978D02*
X12437044Y-13180454D01*
X12437044Y-13180454D02*
X12456092Y-13170930D01*
X12608473Y-13370930D02*
X12608473Y-13237597D01*
X12608473Y-13256645D02*
X12617997Y-13247121D01*
X12617997Y-13247121D02*
X12637044Y-13237597D01*
X12637044Y-13237597D02*
X12665616Y-13237597D01*
X12665616Y-13237597D02*
X12684664Y-13247121D01*
X12684664Y-13247121D02*
X12694187Y-13266168D01*
X12694187Y-13266168D02*
X12694187Y-13370930D01*
X12694187Y-13266168D02*
X12703711Y-13247121D01*
X12703711Y-13247121D02*
X12722759Y-13237597D01*
X12722759Y-13237597D02*
X12751330Y-13237597D01*
X12751330Y-13237597D02*
X12770378Y-13247121D01*
X12770378Y-13247121D02*
X12779902Y-13266168D01*
X12779902Y-13266168D02*
X12779902Y-13370930D01*
X12875140Y-13370930D02*
X12875140Y-13237597D01*
X12875140Y-13256645D02*
X12884664Y-13247121D01*
X12884664Y-13247121D02*
X12903711Y-13237597D01*
X12903711Y-13237597D02*
X12932283Y-13237597D01*
X12932283Y-13237597D02*
X12951330Y-13247121D01*
X12951330Y-13247121D02*
X12960854Y-13266168D01*
X12960854Y-13266168D02*
X12960854Y-13370930D01*
X12960854Y-13266168D02*
X12970378Y-13247121D01*
X12970378Y-13247121D02*
X12989425Y-13237597D01*
X12989425Y-13237597D02*
X13017997Y-13237597D01*
X13017997Y-13237597D02*
X13037045Y-13247121D01*
X13037045Y-13247121D02*
X13046568Y-13266168D01*
X13046568Y-13266168D02*
X13046568Y-13370930D01*
X13437045Y-13161407D02*
X13265616Y-13418549D01*
X13694187Y-13170930D02*
X13713235Y-13170930D01*
X13713235Y-13170930D02*
X13732283Y-13180454D01*
X13732283Y-13180454D02*
X13741807Y-13189978D01*
X13741807Y-13189978D02*
X13751330Y-13209026D01*
X13751330Y-13209026D02*
X13760854Y-13247121D01*
X13760854Y-13247121D02*
X13760854Y-13294740D01*
X13760854Y-13294740D02*
X13751330Y-13332835D01*
X13751330Y-13332835D02*
X13741807Y-13351883D01*
X13741807Y-13351883D02*
X13732283Y-13361407D01*
X13732283Y-13361407D02*
X13713235Y-13370930D01*
X13713235Y-13370930D02*
X13694187Y-13370930D01*
X13694187Y-13370930D02*
X13675140Y-13361407D01*
X13675140Y-13361407D02*
X13665616Y-13351883D01*
X13665616Y-13351883D02*
X13656092Y-13332835D01*
X13656092Y-13332835D02*
X13646568Y-13294740D01*
X13646568Y-13294740D02*
X13646568Y-13247121D01*
X13646568Y-13247121D02*
X13656092Y-13209026D01*
X13656092Y-13209026D02*
X13665616Y-13189978D01*
X13665616Y-13189978D02*
X13675140Y-13180454D01*
X13675140Y-13180454D02*
X13694187Y-13170930D01*
X13846568Y-13351883D02*
X13856092Y-13361407D01*
X13856092Y-13361407D02*
X13846568Y-13370930D01*
X13846568Y-13370930D02*
X13837045Y-13361407D01*
X13837045Y-13361407D02*
X13846568Y-13351883D01*
X13846568Y-13351883D02*
X13846568Y-13370930D01*
X13979902Y-13170930D02*
X13998949Y-13170930D01*
X13998949Y-13170930D02*
X14017997Y-13180454D01*
X14017997Y-13180454D02*
X14027521Y-13189978D01*
X14027521Y-13189978D02*
X14037045Y-13209026D01*
X14037045Y-13209026D02*
X14046568Y-13247121D01*
X14046568Y-13247121D02*
X14046568Y-13294740D01*
X14046568Y-13294740D02*
X14037045Y-13332835D01*
X14037045Y-13332835D02*
X14027521Y-13351883D01*
X14027521Y-13351883D02*
X14017997Y-13361407D01*
X14017997Y-13361407D02*
X13998949Y-13370930D01*
X13998949Y-13370930D02*
X13979902Y-13370930D01*
X13979902Y-13370930D02*
X13960854Y-13361407D01*
X13960854Y-13361407D02*
X13951330Y-13351883D01*
X13951330Y-13351883D02*
X13941807Y-13332835D01*
X13941807Y-13332835D02*
X13932283Y-13294740D01*
X13932283Y-13294740D02*
X13932283Y-13247121D01*
X13932283Y-13247121D02*
X13941807Y-13209026D01*
X13941807Y-13209026D02*
X13951330Y-13189978D01*
X13951330Y-13189978D02*
X13960854Y-13180454D01*
X13960854Y-13180454D02*
X13979902Y-13170930D01*
X14113235Y-13170930D02*
X14237045Y-13170930D01*
X14237045Y-13170930D02*
X14170378Y-13247121D01*
X14170378Y-13247121D02*
X14198949Y-13247121D01*
X14198949Y-13247121D02*
X14217997Y-13256645D01*
X14217997Y-13256645D02*
X14227521Y-13266168D01*
X14227521Y-13266168D02*
X14237045Y-13285216D01*
X14237045Y-13285216D02*
X14237045Y-13332835D01*
X14237045Y-13332835D02*
X14227521Y-13351883D01*
X14227521Y-13351883D02*
X14217997Y-13361407D01*
X14217997Y-13361407D02*
X14198949Y-13370930D01*
X14198949Y-13370930D02*
X14141807Y-13370930D01*
X14141807Y-13370930D02*
X14122759Y-13361407D01*
X14122759Y-13361407D02*
X14113235Y-13351883D01*
X14332283Y-13370930D02*
X14370378Y-13370930D01*
X14370378Y-13370930D02*
X14389426Y-13361407D01*
X14389426Y-13361407D02*
X14398949Y-13351883D01*
X14398949Y-13351883D02*
X14417997Y-13323311D01*
X14417997Y-13323311D02*
X14427521Y-13285216D01*
X14427521Y-13285216D02*
X14427521Y-13209026D01*
X14427521Y-13209026D02*
X14417997Y-13189978D01*
X14417997Y-13189978D02*
X14408473Y-13180454D01*
X14408473Y-13180454D02*
X14389426Y-13170930D01*
X14389426Y-13170930D02*
X14351330Y-13170930D01*
X14351330Y-13170930D02*
X14332283Y-13180454D01*
X14332283Y-13180454D02*
X14322759Y-13189978D01*
X14322759Y-13189978D02*
X14313235Y-13209026D01*
X14313235Y-13209026D02*
X14313235Y-13256645D01*
X14313235Y-13256645D02*
X14322759Y-13275692D01*
X14322759Y-13275692D02*
X14332283Y-13285216D01*
X14332283Y-13285216D02*
X14351330Y-13294740D01*
X14351330Y-13294740D02*
X14389426Y-13294740D01*
X14389426Y-13294740D02*
X14408473Y-13285216D01*
X14408473Y-13285216D02*
X14417997Y-13275692D01*
X14417997Y-13275692D02*
X14427521Y-13256645D01*
X14598949Y-13237597D02*
X14598949Y-13370930D01*
X14551330Y-13161407D02*
X14503711Y-13304264D01*
X14503711Y-13304264D02*
X14627521Y-13304264D01*
X14694188Y-13170930D02*
X14694188Y-13209026D01*
X14770378Y-13170930D02*
X14770378Y-13209026D01*
X15065616Y-13447121D02*
X15056092Y-13437597D01*
X15056092Y-13437597D02*
X15037045Y-13409026D01*
X15037045Y-13409026D02*
X15027521Y-13389978D01*
X15027521Y-13389978D02*
X15017997Y-13361407D01*
X15017997Y-13361407D02*
X15008473Y-13313787D01*
X15008473Y-13313787D02*
X15008473Y-13275692D01*
X15008473Y-13275692D02*
X15017997Y-13228073D01*
X15017997Y-13228073D02*
X15027521Y-13199502D01*
X15027521Y-13199502D02*
X15037045Y-13180454D01*
X15037045Y-13180454D02*
X15056092Y-13151883D01*
X15056092Y-13151883D02*
X15065616Y-13142359D01*
X15246569Y-13370930D02*
X15132283Y-13370930D01*
X15189426Y-13370930D02*
X15189426Y-13170930D01*
X15189426Y-13170930D02*
X15170378Y-13199502D01*
X15170378Y-13199502D02*
X15151330Y-13218549D01*
X15151330Y-13218549D02*
X15132283Y-13228073D01*
X15417997Y-13170930D02*
X15379902Y-13170930D01*
X15379902Y-13170930D02*
X15360854Y-13180454D01*
X15360854Y-13180454D02*
X15351330Y-13189978D01*
X15351330Y-13189978D02*
X15332283Y-13218549D01*
X15332283Y-13218549D02*
X15322759Y-13256645D01*
X15322759Y-13256645D02*
X15322759Y-13332835D01*
X15322759Y-13332835D02*
X15332283Y-13351883D01*
X15332283Y-13351883D02*
X15341807Y-13361407D01*
X15341807Y-13361407D02*
X15360854Y-13370930D01*
X15360854Y-13370930D02*
X15398950Y-13370930D01*
X15398950Y-13370930D02*
X15417997Y-13361407D01*
X15417997Y-13361407D02*
X15427521Y-13351883D01*
X15427521Y-13351883D02*
X15437045Y-13332835D01*
X15437045Y-13332835D02*
X15437045Y-13285216D01*
X15437045Y-13285216D02*
X15427521Y-13266168D01*
X15427521Y-13266168D02*
X15417997Y-13256645D01*
X15417997Y-13256645D02*
X15398950Y-13247121D01*
X15398950Y-13247121D02*
X15360854Y-13247121D01*
X15360854Y-13247121D02*
X15341807Y-13256645D01*
X15341807Y-13256645D02*
X15332283Y-13266168D01*
X15332283Y-13266168D02*
X15322759Y-13285216D01*
X15675140Y-13370930D02*
X15675140Y-13170930D01*
X15760854Y-13370930D02*
X15760854Y-13266168D01*
X15760854Y-13266168D02*
X15751331Y-13247121D01*
X15751331Y-13247121D02*
X15732283Y-13237597D01*
X15732283Y-13237597D02*
X15703711Y-13237597D01*
X15703711Y-13237597D02*
X15684664Y-13247121D01*
X15684664Y-13247121D02*
X15675140Y-13256645D01*
X15884664Y-13370930D02*
X15865616Y-13361407D01*
X15865616Y-13361407D02*
X15856092Y-13351883D01*
X15856092Y-13351883D02*
X15846569Y-13332835D01*
X15846569Y-13332835D02*
X15846569Y-13275692D01*
X15846569Y-13275692D02*
X15856092Y-13256645D01*
X15856092Y-13256645D02*
X15865616Y-13247121D01*
X15865616Y-13247121D02*
X15884664Y-13237597D01*
X15884664Y-13237597D02*
X15913235Y-13237597D01*
X15913235Y-13237597D02*
X15932283Y-13247121D01*
X15932283Y-13247121D02*
X15941807Y-13256645D01*
X15941807Y-13256645D02*
X15951331Y-13275692D01*
X15951331Y-13275692D02*
X15951331Y-13332835D01*
X15951331Y-13332835D02*
X15941807Y-13351883D01*
X15941807Y-13351883D02*
X15932283Y-13361407D01*
X15932283Y-13361407D02*
X15913235Y-13370930D01*
X15913235Y-13370930D02*
X15884664Y-13370930D01*
X16065616Y-13370930D02*
X16046569Y-13361407D01*
X16046569Y-13361407D02*
X16037045Y-13342359D01*
X16037045Y-13342359D02*
X16037045Y-13170930D01*
X16217997Y-13361407D02*
X16198950Y-13370930D01*
X16198950Y-13370930D02*
X16160854Y-13370930D01*
X16160854Y-13370930D02*
X16141807Y-13361407D01*
X16141807Y-13361407D02*
X16132283Y-13342359D01*
X16132283Y-13342359D02*
X16132283Y-13266168D01*
X16132283Y-13266168D02*
X16141807Y-13247121D01*
X16141807Y-13247121D02*
X16160854Y-13237597D01*
X16160854Y-13237597D02*
X16198950Y-13237597D01*
X16198950Y-13237597D02*
X16217997Y-13247121D01*
X16217997Y-13247121D02*
X16227521Y-13266168D01*
X16227521Y-13266168D02*
X16227521Y-13285216D01*
X16227521Y-13285216D02*
X16132283Y-13304264D01*
X16303712Y-13361407D02*
X16322759Y-13370930D01*
X16322759Y-13370930D02*
X16360854Y-13370930D01*
X16360854Y-13370930D02*
X16379902Y-13361407D01*
X16379902Y-13361407D02*
X16389426Y-13342359D01*
X16389426Y-13342359D02*
X16389426Y-13332835D01*
X16389426Y-13332835D02*
X16379902Y-13313787D01*
X16379902Y-13313787D02*
X16360854Y-13304264D01*
X16360854Y-13304264D02*
X16332283Y-13304264D01*
X16332283Y-13304264D02*
X16313235Y-13294740D01*
X16313235Y-13294740D02*
X16303712Y-13275692D01*
X16303712Y-13275692D02*
X16303712Y-13266168D01*
X16303712Y-13266168D02*
X16313235Y-13247121D01*
X16313235Y-13247121D02*
X16332283Y-13237597D01*
X16332283Y-13237597D02*
X16360854Y-13237597D01*
X16360854Y-13237597D02*
X16379902Y-13247121D01*
X16627521Y-13294740D02*
X16779902Y-13294740D01*
X16703712Y-13370930D02*
X16703712Y-13218549D01*
X17008474Y-13170930D02*
X17132283Y-13170930D01*
X17132283Y-13170930D02*
X17065616Y-13247121D01*
X17065616Y-13247121D02*
X17094188Y-13247121D01*
X17094188Y-13247121D02*
X17113236Y-13256645D01*
X17113236Y-13256645D02*
X17122759Y-13266168D01*
X17122759Y-13266168D02*
X17132283Y-13285216D01*
X17132283Y-13285216D02*
X17132283Y-13332835D01*
X17132283Y-13332835D02*
X17122759Y-13351883D01*
X17122759Y-13351883D02*
X17113236Y-13361407D01*
X17113236Y-13361407D02*
X17094188Y-13370930D01*
X17094188Y-13370930D02*
X17037045Y-13370930D01*
X17037045Y-13370930D02*
X17017997Y-13361407D01*
X17017997Y-13361407D02*
X17008474Y-13351883D01*
X17360855Y-13361407D02*
X17379902Y-13370930D01*
X17379902Y-13370930D02*
X17417997Y-13370930D01*
X17417997Y-13370930D02*
X17437045Y-13361407D01*
X17437045Y-13361407D02*
X17446569Y-13342359D01*
X17446569Y-13342359D02*
X17446569Y-13332835D01*
X17446569Y-13332835D02*
X17437045Y-13313787D01*
X17437045Y-13313787D02*
X17417997Y-13304264D01*
X17417997Y-13304264D02*
X17389426Y-13304264D01*
X17389426Y-13304264D02*
X17370378Y-13294740D01*
X17370378Y-13294740D02*
X17360855Y-13275692D01*
X17360855Y-13275692D02*
X17360855Y-13266168D01*
X17360855Y-13266168D02*
X17370378Y-13247121D01*
X17370378Y-13247121D02*
X17389426Y-13237597D01*
X17389426Y-13237597D02*
X17417997Y-13237597D01*
X17417997Y-13237597D02*
X17437045Y-13247121D01*
X17560855Y-13370930D02*
X17541807Y-13361407D01*
X17541807Y-13361407D02*
X17532283Y-13342359D01*
X17532283Y-13342359D02*
X17532283Y-13170930D01*
X17665617Y-13370930D02*
X17646569Y-13361407D01*
X17646569Y-13361407D02*
X17637045Y-13351883D01*
X17637045Y-13351883D02*
X17627521Y-13332835D01*
X17627521Y-13332835D02*
X17627521Y-13275692D01*
X17627521Y-13275692D02*
X17637045Y-13256645D01*
X17637045Y-13256645D02*
X17646569Y-13247121D01*
X17646569Y-13247121D02*
X17665617Y-13237597D01*
X17665617Y-13237597D02*
X17694188Y-13237597D01*
X17694188Y-13237597D02*
X17713236Y-13247121D01*
X17713236Y-13247121D02*
X17722759Y-13256645D01*
X17722759Y-13256645D02*
X17732283Y-13275692D01*
X17732283Y-13275692D02*
X17732283Y-13332835D01*
X17732283Y-13332835D02*
X17722759Y-13351883D01*
X17722759Y-13351883D02*
X17713236Y-13361407D01*
X17713236Y-13361407D02*
X17694188Y-13370930D01*
X17694188Y-13370930D02*
X17665617Y-13370930D01*
X17789426Y-13237597D02*
X17865617Y-13237597D01*
X17817998Y-13170930D02*
X17817998Y-13342359D01*
X17817998Y-13342359D02*
X17827521Y-13361407D01*
X17827521Y-13361407D02*
X17846569Y-13370930D01*
X17846569Y-13370930D02*
X17865617Y-13370930D01*
X17922759Y-13361407D02*
X17941807Y-13370930D01*
X17941807Y-13370930D02*
X17979902Y-13370930D01*
X17979902Y-13370930D02*
X17998950Y-13361407D01*
X17998950Y-13361407D02*
X18008474Y-13342359D01*
X18008474Y-13342359D02*
X18008474Y-13332835D01*
X18008474Y-13332835D02*
X17998950Y-13313787D01*
X17998950Y-13313787D02*
X17979902Y-13304264D01*
X17979902Y-13304264D02*
X17951331Y-13304264D01*
X17951331Y-13304264D02*
X17932283Y-13294740D01*
X17932283Y-13294740D02*
X17922759Y-13275692D01*
X17922759Y-13275692D02*
X17922759Y-13266168D01*
X17922759Y-13266168D02*
X17932283Y-13247121D01*
X17932283Y-13247121D02*
X17951331Y-13237597D01*
X17951331Y-13237597D02*
X17979902Y-13237597D01*
X17979902Y-13237597D02*
X17998950Y-13247121D01*
X18075140Y-13447121D02*
X18084664Y-13437597D01*
X18084664Y-13437597D02*
X18103712Y-13409026D01*
X18103712Y-13409026D02*
X18113236Y-13389978D01*
X18113236Y-13389978D02*
X18122759Y-13361407D01*
X18122759Y-13361407D02*
X18132283Y-13313787D01*
X18132283Y-13313787D02*
X18132283Y-13275692D01*
X18132283Y-13275692D02*
X18122759Y-13228073D01*
X18122759Y-13228073D02*
X18113236Y-13199502D01*
X18113236Y-13199502D02*
X18103712Y-13180454D01*
X18103712Y-13180454D02*
X18084664Y-13151883D01*
X18084664Y-13151883D02*
X18075140Y-13142359D01*
D13*
X11438053Y-13595947D02*
X11490553Y-13543447D01*
X11438053Y-13490947D01*
X11385553Y-13543447D01*
X11438053Y-13595947D01*
D11*
X11856092Y-13634930D02*
X11741806Y-13634930D01*
X11798949Y-13634930D02*
X11798949Y-13434930D01*
X11798949Y-13434930D02*
X11779902Y-13463502D01*
X11779902Y-13463502D02*
X11760854Y-13482549D01*
X11760854Y-13482549D02*
X11741806Y-13492073D01*
X11941806Y-13615883D02*
X11951330Y-13625407D01*
X11951330Y-13625407D02*
X11941806Y-13634930D01*
X11941806Y-13634930D02*
X11932283Y-13625407D01*
X11932283Y-13625407D02*
X11941806Y-13615883D01*
X11941806Y-13615883D02*
X11941806Y-13634930D01*
X12075140Y-13434930D02*
X12094187Y-13434930D01*
X12094187Y-13434930D02*
X12113235Y-13444454D01*
X12113235Y-13444454D02*
X12122759Y-13453978D01*
X12122759Y-13453978D02*
X12132283Y-13473026D01*
X12132283Y-13473026D02*
X12141806Y-13511121D01*
X12141806Y-13511121D02*
X12141806Y-13558740D01*
X12141806Y-13558740D02*
X12132283Y-13596835D01*
X12132283Y-13596835D02*
X12122759Y-13615883D01*
X12122759Y-13615883D02*
X12113235Y-13625407D01*
X12113235Y-13625407D02*
X12094187Y-13634930D01*
X12094187Y-13634930D02*
X12075140Y-13634930D01*
X12075140Y-13634930D02*
X12056092Y-13625407D01*
X12056092Y-13625407D02*
X12046568Y-13615883D01*
X12046568Y-13615883D02*
X12037044Y-13596835D01*
X12037044Y-13596835D02*
X12027521Y-13558740D01*
X12027521Y-13558740D02*
X12027521Y-13511121D01*
X12027521Y-13511121D02*
X12037044Y-13473026D01*
X12037044Y-13473026D02*
X12046568Y-13453978D01*
X12046568Y-13453978D02*
X12056092Y-13444454D01*
X12056092Y-13444454D02*
X12075140Y-13434930D01*
X12322759Y-13434930D02*
X12227521Y-13434930D01*
X12227521Y-13434930D02*
X12217997Y-13530168D01*
X12217997Y-13530168D02*
X12227521Y-13520645D01*
X12227521Y-13520645D02*
X12246568Y-13511121D01*
X12246568Y-13511121D02*
X12294187Y-13511121D01*
X12294187Y-13511121D02*
X12313235Y-13520645D01*
X12313235Y-13520645D02*
X12322759Y-13530168D01*
X12322759Y-13530168D02*
X12332283Y-13549216D01*
X12332283Y-13549216D02*
X12332283Y-13596835D01*
X12332283Y-13596835D02*
X12322759Y-13615883D01*
X12322759Y-13615883D02*
X12313235Y-13625407D01*
X12313235Y-13625407D02*
X12294187Y-13634930D01*
X12294187Y-13634930D02*
X12246568Y-13634930D01*
X12246568Y-13634930D02*
X12227521Y-13625407D01*
X12227521Y-13625407D02*
X12217997Y-13615883D01*
X12456092Y-13434930D02*
X12475140Y-13434930D01*
X12475140Y-13434930D02*
X12494187Y-13444454D01*
X12494187Y-13444454D02*
X12503711Y-13453978D01*
X12503711Y-13453978D02*
X12513235Y-13473026D01*
X12513235Y-13473026D02*
X12522759Y-13511121D01*
X12522759Y-13511121D02*
X12522759Y-13558740D01*
X12522759Y-13558740D02*
X12513235Y-13596835D01*
X12513235Y-13596835D02*
X12503711Y-13615883D01*
X12503711Y-13615883D02*
X12494187Y-13625407D01*
X12494187Y-13625407D02*
X12475140Y-13634930D01*
X12475140Y-13634930D02*
X12456092Y-13634930D01*
X12456092Y-13634930D02*
X12437044Y-13625407D01*
X12437044Y-13625407D02*
X12427521Y-13615883D01*
X12427521Y-13615883D02*
X12417997Y-13596835D01*
X12417997Y-13596835D02*
X12408473Y-13558740D01*
X12408473Y-13558740D02*
X12408473Y-13511121D01*
X12408473Y-13511121D02*
X12417997Y-13473026D01*
X12417997Y-13473026D02*
X12427521Y-13453978D01*
X12427521Y-13453978D02*
X12437044Y-13444454D01*
X12437044Y-13444454D02*
X12456092Y-13434930D01*
X12608473Y-13634930D02*
X12608473Y-13501597D01*
X12608473Y-13520645D02*
X12617997Y-13511121D01*
X12617997Y-13511121D02*
X12637044Y-13501597D01*
X12637044Y-13501597D02*
X12665616Y-13501597D01*
X12665616Y-13501597D02*
X12684664Y-13511121D01*
X12684664Y-13511121D02*
X12694187Y-13530168D01*
X12694187Y-13530168D02*
X12694187Y-13634930D01*
X12694187Y-13530168D02*
X12703711Y-13511121D01*
X12703711Y-13511121D02*
X12722759Y-13501597D01*
X12722759Y-13501597D02*
X12751330Y-13501597D01*
X12751330Y-13501597D02*
X12770378Y-13511121D01*
X12770378Y-13511121D02*
X12779902Y-13530168D01*
X12779902Y-13530168D02*
X12779902Y-13634930D01*
X12875140Y-13634930D02*
X12875140Y-13501597D01*
X12875140Y-13520645D02*
X12884664Y-13511121D01*
X12884664Y-13511121D02*
X12903711Y-13501597D01*
X12903711Y-13501597D02*
X12932283Y-13501597D01*
X12932283Y-13501597D02*
X12951330Y-13511121D01*
X12951330Y-13511121D02*
X12960854Y-13530168D01*
X12960854Y-13530168D02*
X12960854Y-13634930D01*
X12960854Y-13530168D02*
X12970378Y-13511121D01*
X12970378Y-13511121D02*
X12989425Y-13501597D01*
X12989425Y-13501597D02*
X13017997Y-13501597D01*
X13017997Y-13501597D02*
X13037045Y-13511121D01*
X13037045Y-13511121D02*
X13046568Y-13530168D01*
X13046568Y-13530168D02*
X13046568Y-13634930D01*
X13437045Y-13425407D02*
X13265616Y-13682549D01*
X13694187Y-13434930D02*
X13713235Y-13434930D01*
X13713235Y-13434930D02*
X13732283Y-13444454D01*
X13732283Y-13444454D02*
X13741807Y-13453978D01*
X13741807Y-13453978D02*
X13751330Y-13473026D01*
X13751330Y-13473026D02*
X13760854Y-13511121D01*
X13760854Y-13511121D02*
X13760854Y-13558740D01*
X13760854Y-13558740D02*
X13751330Y-13596835D01*
X13751330Y-13596835D02*
X13741807Y-13615883D01*
X13741807Y-13615883D02*
X13732283Y-13625407D01*
X13732283Y-13625407D02*
X13713235Y-13634930D01*
X13713235Y-13634930D02*
X13694187Y-13634930D01*
X13694187Y-13634930D02*
X13675140Y-13625407D01*
X13675140Y-13625407D02*
X13665616Y-13615883D01*
X13665616Y-13615883D02*
X13656092Y-13596835D01*
X13656092Y-13596835D02*
X13646568Y-13558740D01*
X13646568Y-13558740D02*
X13646568Y-13511121D01*
X13646568Y-13511121D02*
X13656092Y-13473026D01*
X13656092Y-13473026D02*
X13665616Y-13453978D01*
X13665616Y-13453978D02*
X13675140Y-13444454D01*
X13675140Y-13444454D02*
X13694187Y-13434930D01*
X13846568Y-13615883D02*
X13856092Y-13625407D01*
X13856092Y-13625407D02*
X13846568Y-13634930D01*
X13846568Y-13634930D02*
X13837045Y-13625407D01*
X13837045Y-13625407D02*
X13846568Y-13615883D01*
X13846568Y-13615883D02*
X13846568Y-13634930D01*
X13979902Y-13434930D02*
X13998949Y-13434930D01*
X13998949Y-13434930D02*
X14017997Y-13444454D01*
X14017997Y-13444454D02*
X14027521Y-13453978D01*
X14027521Y-13453978D02*
X14037045Y-13473026D01*
X14037045Y-13473026D02*
X14046568Y-13511121D01*
X14046568Y-13511121D02*
X14046568Y-13558740D01*
X14046568Y-13558740D02*
X14037045Y-13596835D01*
X14037045Y-13596835D02*
X14027521Y-13615883D01*
X14027521Y-13615883D02*
X14017997Y-13625407D01*
X14017997Y-13625407D02*
X13998949Y-13634930D01*
X13998949Y-13634930D02*
X13979902Y-13634930D01*
X13979902Y-13634930D02*
X13960854Y-13625407D01*
X13960854Y-13625407D02*
X13951330Y-13615883D01*
X13951330Y-13615883D02*
X13941807Y-13596835D01*
X13941807Y-13596835D02*
X13932283Y-13558740D01*
X13932283Y-13558740D02*
X13932283Y-13511121D01*
X13932283Y-13511121D02*
X13941807Y-13473026D01*
X13941807Y-13473026D02*
X13951330Y-13453978D01*
X13951330Y-13453978D02*
X13960854Y-13444454D01*
X13960854Y-13444454D02*
X13979902Y-13434930D01*
X14217997Y-13501597D02*
X14217997Y-13634930D01*
X14170378Y-13425407D02*
X14122759Y-13568264D01*
X14122759Y-13568264D02*
X14246568Y-13568264D01*
X14427521Y-13634930D02*
X14313235Y-13634930D01*
X14370378Y-13634930D02*
X14370378Y-13434930D01*
X14370378Y-13434930D02*
X14351330Y-13463502D01*
X14351330Y-13463502D02*
X14332283Y-13482549D01*
X14332283Y-13482549D02*
X14313235Y-13492073D01*
X14494188Y-13434930D02*
X14617997Y-13434930D01*
X14617997Y-13434930D02*
X14551330Y-13511121D01*
X14551330Y-13511121D02*
X14579902Y-13511121D01*
X14579902Y-13511121D02*
X14598949Y-13520645D01*
X14598949Y-13520645D02*
X14608473Y-13530168D01*
X14608473Y-13530168D02*
X14617997Y-13549216D01*
X14617997Y-13549216D02*
X14617997Y-13596835D01*
X14617997Y-13596835D02*
X14608473Y-13615883D01*
X14608473Y-13615883D02*
X14598949Y-13625407D01*
X14598949Y-13625407D02*
X14579902Y-13634930D01*
X14579902Y-13634930D02*
X14522759Y-13634930D01*
X14522759Y-13634930D02*
X14503711Y-13625407D01*
X14503711Y-13625407D02*
X14494188Y-13615883D01*
X14694188Y-13434930D02*
X14694188Y-13473026D01*
X14770378Y-13434930D02*
X14770378Y-13473026D01*
X15065616Y-13711121D02*
X15056092Y-13701597D01*
X15056092Y-13701597D02*
X15037045Y-13673026D01*
X15037045Y-13673026D02*
X15027521Y-13653978D01*
X15027521Y-13653978D02*
X15017997Y-13625407D01*
X15017997Y-13625407D02*
X15008473Y-13577787D01*
X15008473Y-13577787D02*
X15008473Y-13539692D01*
X15008473Y-13539692D02*
X15017997Y-13492073D01*
X15017997Y-13492073D02*
X15027521Y-13463502D01*
X15027521Y-13463502D02*
X15037045Y-13444454D01*
X15037045Y-13444454D02*
X15056092Y-13415883D01*
X15056092Y-13415883D02*
X15065616Y-13406359D01*
X15246569Y-13634930D02*
X15132283Y-13634930D01*
X15189426Y-13634930D02*
X15189426Y-13434930D01*
X15189426Y-13434930D02*
X15170378Y-13463502D01*
X15170378Y-13463502D02*
X15151330Y-13482549D01*
X15151330Y-13482549D02*
X15132283Y-13492073D01*
X15370378Y-13434930D02*
X15389426Y-13434930D01*
X15389426Y-13434930D02*
X15408473Y-13444454D01*
X15408473Y-13444454D02*
X15417997Y-13453978D01*
X15417997Y-13453978D02*
X15427521Y-13473026D01*
X15427521Y-13473026D02*
X15437045Y-13511121D01*
X15437045Y-13511121D02*
X15437045Y-13558740D01*
X15437045Y-13558740D02*
X15427521Y-13596835D01*
X15427521Y-13596835D02*
X15417997Y-13615883D01*
X15417997Y-13615883D02*
X15408473Y-13625407D01*
X15408473Y-13625407D02*
X15389426Y-13634930D01*
X15389426Y-13634930D02*
X15370378Y-13634930D01*
X15370378Y-13634930D02*
X15351330Y-13625407D01*
X15351330Y-13625407D02*
X15341807Y-13615883D01*
X15341807Y-13615883D02*
X15332283Y-13596835D01*
X15332283Y-13596835D02*
X15322759Y-13558740D01*
X15322759Y-13558740D02*
X15322759Y-13511121D01*
X15322759Y-13511121D02*
X15332283Y-13473026D01*
X15332283Y-13473026D02*
X15341807Y-13453978D01*
X15341807Y-13453978D02*
X15351330Y-13444454D01*
X15351330Y-13444454D02*
X15370378Y-13434930D01*
X15675140Y-13634930D02*
X15675140Y-13434930D01*
X15760854Y-13634930D02*
X15760854Y-13530168D01*
X15760854Y-13530168D02*
X15751331Y-13511121D01*
X15751331Y-13511121D02*
X15732283Y-13501597D01*
X15732283Y-13501597D02*
X15703711Y-13501597D01*
X15703711Y-13501597D02*
X15684664Y-13511121D01*
X15684664Y-13511121D02*
X15675140Y-13520645D01*
X15884664Y-13634930D02*
X15865616Y-13625407D01*
X15865616Y-13625407D02*
X15856092Y-13615883D01*
X15856092Y-13615883D02*
X15846569Y-13596835D01*
X15846569Y-13596835D02*
X15846569Y-13539692D01*
X15846569Y-13539692D02*
X15856092Y-13520645D01*
X15856092Y-13520645D02*
X15865616Y-13511121D01*
X15865616Y-13511121D02*
X15884664Y-13501597D01*
X15884664Y-13501597D02*
X15913235Y-13501597D01*
X15913235Y-13501597D02*
X15932283Y-13511121D01*
X15932283Y-13511121D02*
X15941807Y-13520645D01*
X15941807Y-13520645D02*
X15951331Y-13539692D01*
X15951331Y-13539692D02*
X15951331Y-13596835D01*
X15951331Y-13596835D02*
X15941807Y-13615883D01*
X15941807Y-13615883D02*
X15932283Y-13625407D01*
X15932283Y-13625407D02*
X15913235Y-13634930D01*
X15913235Y-13634930D02*
X15884664Y-13634930D01*
X16065616Y-13634930D02*
X16046569Y-13625407D01*
X16046569Y-13625407D02*
X16037045Y-13606359D01*
X16037045Y-13606359D02*
X16037045Y-13434930D01*
X16217997Y-13625407D02*
X16198950Y-13634930D01*
X16198950Y-13634930D02*
X16160854Y-13634930D01*
X16160854Y-13634930D02*
X16141807Y-13625407D01*
X16141807Y-13625407D02*
X16132283Y-13606359D01*
X16132283Y-13606359D02*
X16132283Y-13530168D01*
X16132283Y-13530168D02*
X16141807Y-13511121D01*
X16141807Y-13511121D02*
X16160854Y-13501597D01*
X16160854Y-13501597D02*
X16198950Y-13501597D01*
X16198950Y-13501597D02*
X16217997Y-13511121D01*
X16217997Y-13511121D02*
X16227521Y-13530168D01*
X16227521Y-13530168D02*
X16227521Y-13549216D01*
X16227521Y-13549216D02*
X16132283Y-13568264D01*
X16303712Y-13625407D02*
X16322759Y-13634930D01*
X16322759Y-13634930D02*
X16360854Y-13634930D01*
X16360854Y-13634930D02*
X16379902Y-13625407D01*
X16379902Y-13625407D02*
X16389426Y-13606359D01*
X16389426Y-13606359D02*
X16389426Y-13596835D01*
X16389426Y-13596835D02*
X16379902Y-13577787D01*
X16379902Y-13577787D02*
X16360854Y-13568264D01*
X16360854Y-13568264D02*
X16332283Y-13568264D01*
X16332283Y-13568264D02*
X16313235Y-13558740D01*
X16313235Y-13558740D02*
X16303712Y-13539692D01*
X16303712Y-13539692D02*
X16303712Y-13530168D01*
X16303712Y-13530168D02*
X16313235Y-13511121D01*
X16313235Y-13511121D02*
X16332283Y-13501597D01*
X16332283Y-13501597D02*
X16360854Y-13501597D01*
X16360854Y-13501597D02*
X16379902Y-13511121D01*
X16456093Y-13711121D02*
X16465616Y-13701597D01*
X16465616Y-13701597D02*
X16484664Y-13673026D01*
X16484664Y-13673026D02*
X16494188Y-13653978D01*
X16494188Y-13653978D02*
X16503712Y-13625407D01*
X16503712Y-13625407D02*
X16513235Y-13577787D01*
X16513235Y-13577787D02*
X16513235Y-13539692D01*
X16513235Y-13539692D02*
X16503712Y-13492073D01*
X16503712Y-13492073D02*
X16494188Y-13463502D01*
X16494188Y-13463502D02*
X16484664Y-13444454D01*
X16484664Y-13444454D02*
X16465616Y-13415883D01*
X16465616Y-13415883D02*
X16456093Y-13406359D01*
D14*
X11360553Y-13742447D02*
X11490553Y-13872447D01*
X11490553Y-13742447D02*
X11360553Y-13872447D01*
X11490553Y-13807447D02*
G75*
G02*
X11360553Y-13807447I-65000J0D01*
G01*
X11360553Y-13807447D02*
G75*
G02*
X11490553Y-13807447I65000J0D01*
G01*
D11*
X11856092Y-13898930D02*
X11741806Y-13898930D01*
X11798949Y-13898930D02*
X11798949Y-13698930D01*
X11798949Y-13698930D02*
X11779902Y-13727502D01*
X11779902Y-13727502D02*
X11760854Y-13746549D01*
X11760854Y-13746549D02*
X11741806Y-13756073D01*
X11941806Y-13879883D02*
X11951330Y-13889407D01*
X11951330Y-13889407D02*
X11941806Y-13898930D01*
X11941806Y-13898930D02*
X11932283Y-13889407D01*
X11932283Y-13889407D02*
X11941806Y-13879883D01*
X11941806Y-13879883D02*
X11941806Y-13898930D01*
X12017997Y-13698930D02*
X12141806Y-13698930D01*
X12141806Y-13698930D02*
X12075140Y-13775121D01*
X12075140Y-13775121D02*
X12103711Y-13775121D01*
X12103711Y-13775121D02*
X12122759Y-13784645D01*
X12122759Y-13784645D02*
X12132283Y-13794168D01*
X12132283Y-13794168D02*
X12141806Y-13813216D01*
X12141806Y-13813216D02*
X12141806Y-13860835D01*
X12141806Y-13860835D02*
X12132283Y-13879883D01*
X12132283Y-13879883D02*
X12122759Y-13889407D01*
X12122759Y-13889407D02*
X12103711Y-13898930D01*
X12103711Y-13898930D02*
X12046568Y-13898930D01*
X12046568Y-13898930D02*
X12027521Y-13889407D01*
X12027521Y-13889407D02*
X12017997Y-13879883D01*
X12265616Y-13698930D02*
X12284664Y-13698930D01*
X12284664Y-13698930D02*
X12303711Y-13708454D01*
X12303711Y-13708454D02*
X12313235Y-13717978D01*
X12313235Y-13717978D02*
X12322759Y-13737026D01*
X12322759Y-13737026D02*
X12332283Y-13775121D01*
X12332283Y-13775121D02*
X12332283Y-13822740D01*
X12332283Y-13822740D02*
X12322759Y-13860835D01*
X12322759Y-13860835D02*
X12313235Y-13879883D01*
X12313235Y-13879883D02*
X12303711Y-13889407D01*
X12303711Y-13889407D02*
X12284664Y-13898930D01*
X12284664Y-13898930D02*
X12265616Y-13898930D01*
X12265616Y-13898930D02*
X12246568Y-13889407D01*
X12246568Y-13889407D02*
X12237044Y-13879883D01*
X12237044Y-13879883D02*
X12227521Y-13860835D01*
X12227521Y-13860835D02*
X12217997Y-13822740D01*
X12217997Y-13822740D02*
X12217997Y-13775121D01*
X12217997Y-13775121D02*
X12227521Y-13737026D01*
X12227521Y-13737026D02*
X12237044Y-13717978D01*
X12237044Y-13717978D02*
X12246568Y-13708454D01*
X12246568Y-13708454D02*
X12265616Y-13698930D01*
X12456092Y-13698930D02*
X12475140Y-13698930D01*
X12475140Y-13698930D02*
X12494187Y-13708454D01*
X12494187Y-13708454D02*
X12503711Y-13717978D01*
X12503711Y-13717978D02*
X12513235Y-13737026D01*
X12513235Y-13737026D02*
X12522759Y-13775121D01*
X12522759Y-13775121D02*
X12522759Y-13822740D01*
X12522759Y-13822740D02*
X12513235Y-13860835D01*
X12513235Y-13860835D02*
X12503711Y-13879883D01*
X12503711Y-13879883D02*
X12494187Y-13889407D01*
X12494187Y-13889407D02*
X12475140Y-13898930D01*
X12475140Y-13898930D02*
X12456092Y-13898930D01*
X12456092Y-13898930D02*
X12437044Y-13889407D01*
X12437044Y-13889407D02*
X12427521Y-13879883D01*
X12427521Y-13879883D02*
X12417997Y-13860835D01*
X12417997Y-13860835D02*
X12408473Y-13822740D01*
X12408473Y-13822740D02*
X12408473Y-13775121D01*
X12408473Y-13775121D02*
X12417997Y-13737026D01*
X12417997Y-13737026D02*
X12427521Y-13717978D01*
X12427521Y-13717978D02*
X12437044Y-13708454D01*
X12437044Y-13708454D02*
X12456092Y-13698930D01*
X12608473Y-13898930D02*
X12608473Y-13765597D01*
X12608473Y-13784645D02*
X12617997Y-13775121D01*
X12617997Y-13775121D02*
X12637044Y-13765597D01*
X12637044Y-13765597D02*
X12665616Y-13765597D01*
X12665616Y-13765597D02*
X12684664Y-13775121D01*
X12684664Y-13775121D02*
X12694187Y-13794168D01*
X12694187Y-13794168D02*
X12694187Y-13898930D01*
X12694187Y-13794168D02*
X12703711Y-13775121D01*
X12703711Y-13775121D02*
X12722759Y-13765597D01*
X12722759Y-13765597D02*
X12751330Y-13765597D01*
X12751330Y-13765597D02*
X12770378Y-13775121D01*
X12770378Y-13775121D02*
X12779902Y-13794168D01*
X12779902Y-13794168D02*
X12779902Y-13898930D01*
X12875140Y-13898930D02*
X12875140Y-13765597D01*
X12875140Y-13784645D02*
X12884664Y-13775121D01*
X12884664Y-13775121D02*
X12903711Y-13765597D01*
X12903711Y-13765597D02*
X12932283Y-13765597D01*
X12932283Y-13765597D02*
X12951330Y-13775121D01*
X12951330Y-13775121D02*
X12960854Y-13794168D01*
X12960854Y-13794168D02*
X12960854Y-13898930D01*
X12960854Y-13794168D02*
X12970378Y-13775121D01*
X12970378Y-13775121D02*
X12989425Y-13765597D01*
X12989425Y-13765597D02*
X13017997Y-13765597D01*
X13017997Y-13765597D02*
X13037045Y-13775121D01*
X13037045Y-13775121D02*
X13046568Y-13794168D01*
X13046568Y-13794168D02*
X13046568Y-13898930D01*
X13437045Y-13689407D02*
X13265616Y-13946549D01*
X13694187Y-13698930D02*
X13713235Y-13698930D01*
X13713235Y-13698930D02*
X13732283Y-13708454D01*
X13732283Y-13708454D02*
X13741807Y-13717978D01*
X13741807Y-13717978D02*
X13751330Y-13737026D01*
X13751330Y-13737026D02*
X13760854Y-13775121D01*
X13760854Y-13775121D02*
X13760854Y-13822740D01*
X13760854Y-13822740D02*
X13751330Y-13860835D01*
X13751330Y-13860835D02*
X13741807Y-13879883D01*
X13741807Y-13879883D02*
X13732283Y-13889407D01*
X13732283Y-13889407D02*
X13713235Y-13898930D01*
X13713235Y-13898930D02*
X13694187Y-13898930D01*
X13694187Y-13898930D02*
X13675140Y-13889407D01*
X13675140Y-13889407D02*
X13665616Y-13879883D01*
X13665616Y-13879883D02*
X13656092Y-13860835D01*
X13656092Y-13860835D02*
X13646568Y-13822740D01*
X13646568Y-13822740D02*
X13646568Y-13775121D01*
X13646568Y-13775121D02*
X13656092Y-13737026D01*
X13656092Y-13737026D02*
X13665616Y-13717978D01*
X13665616Y-13717978D02*
X13675140Y-13708454D01*
X13675140Y-13708454D02*
X13694187Y-13698930D01*
X13846568Y-13879883D02*
X13856092Y-13889407D01*
X13856092Y-13889407D02*
X13846568Y-13898930D01*
X13846568Y-13898930D02*
X13837045Y-13889407D01*
X13837045Y-13889407D02*
X13846568Y-13879883D01*
X13846568Y-13879883D02*
X13846568Y-13898930D01*
X13979902Y-13698930D02*
X13998949Y-13698930D01*
X13998949Y-13698930D02*
X14017997Y-13708454D01*
X14017997Y-13708454D02*
X14027521Y-13717978D01*
X14027521Y-13717978D02*
X14037045Y-13737026D01*
X14037045Y-13737026D02*
X14046568Y-13775121D01*
X14046568Y-13775121D02*
X14046568Y-13822740D01*
X14046568Y-13822740D02*
X14037045Y-13860835D01*
X14037045Y-13860835D02*
X14027521Y-13879883D01*
X14027521Y-13879883D02*
X14017997Y-13889407D01*
X14017997Y-13889407D02*
X13998949Y-13898930D01*
X13998949Y-13898930D02*
X13979902Y-13898930D01*
X13979902Y-13898930D02*
X13960854Y-13889407D01*
X13960854Y-13889407D02*
X13951330Y-13879883D01*
X13951330Y-13879883D02*
X13941807Y-13860835D01*
X13941807Y-13860835D02*
X13932283Y-13822740D01*
X13932283Y-13822740D02*
X13932283Y-13775121D01*
X13932283Y-13775121D02*
X13941807Y-13737026D01*
X13941807Y-13737026D02*
X13951330Y-13717978D01*
X13951330Y-13717978D02*
X13960854Y-13708454D01*
X13960854Y-13708454D02*
X13979902Y-13698930D01*
X14227521Y-13698930D02*
X14132283Y-13698930D01*
X14132283Y-13698930D02*
X14122759Y-13794168D01*
X14122759Y-13794168D02*
X14132283Y-13784645D01*
X14132283Y-13784645D02*
X14151330Y-13775121D01*
X14151330Y-13775121D02*
X14198949Y-13775121D01*
X14198949Y-13775121D02*
X14217997Y-13784645D01*
X14217997Y-13784645D02*
X14227521Y-13794168D01*
X14227521Y-13794168D02*
X14237045Y-13813216D01*
X14237045Y-13813216D02*
X14237045Y-13860835D01*
X14237045Y-13860835D02*
X14227521Y-13879883D01*
X14227521Y-13879883D02*
X14217997Y-13889407D01*
X14217997Y-13889407D02*
X14198949Y-13898930D01*
X14198949Y-13898930D02*
X14151330Y-13898930D01*
X14151330Y-13898930D02*
X14132283Y-13889407D01*
X14132283Y-13889407D02*
X14122759Y-13879883D01*
X14427521Y-13898930D02*
X14313235Y-13898930D01*
X14370378Y-13898930D02*
X14370378Y-13698930D01*
X14370378Y-13698930D02*
X14351330Y-13727502D01*
X14351330Y-13727502D02*
X14332283Y-13746549D01*
X14332283Y-13746549D02*
X14313235Y-13756073D01*
X14503711Y-13717978D02*
X14513235Y-13708454D01*
X14513235Y-13708454D02*
X14532283Y-13698930D01*
X14532283Y-13698930D02*
X14579902Y-13698930D01*
X14579902Y-13698930D02*
X14598949Y-13708454D01*
X14598949Y-13708454D02*
X14608473Y-13717978D01*
X14608473Y-13717978D02*
X14617997Y-13737026D01*
X14617997Y-13737026D02*
X14617997Y-13756073D01*
X14617997Y-13756073D02*
X14608473Y-13784645D01*
X14608473Y-13784645D02*
X14494188Y-13898930D01*
X14494188Y-13898930D02*
X14617997Y-13898930D01*
X14694188Y-13698930D02*
X14694188Y-13737026D01*
X14770378Y-13698930D02*
X14770378Y-13737026D01*
X15065616Y-13975121D02*
X15056092Y-13965597D01*
X15056092Y-13965597D02*
X15037045Y-13937026D01*
X15037045Y-13937026D02*
X15027521Y-13917978D01*
X15027521Y-13917978D02*
X15017997Y-13889407D01*
X15017997Y-13889407D02*
X15008473Y-13841787D01*
X15008473Y-13841787D02*
X15008473Y-13803692D01*
X15008473Y-13803692D02*
X15017997Y-13756073D01*
X15017997Y-13756073D02*
X15027521Y-13727502D01*
X15027521Y-13727502D02*
X15037045Y-13708454D01*
X15037045Y-13708454D02*
X15056092Y-13679883D01*
X15056092Y-13679883D02*
X15065616Y-13670359D01*
X15132283Y-13717978D02*
X15141807Y-13708454D01*
X15141807Y-13708454D02*
X15160854Y-13698930D01*
X15160854Y-13698930D02*
X15208473Y-13698930D01*
X15208473Y-13698930D02*
X15227521Y-13708454D01*
X15227521Y-13708454D02*
X15237045Y-13717978D01*
X15237045Y-13717978D02*
X15246569Y-13737026D01*
X15246569Y-13737026D02*
X15246569Y-13756073D01*
X15246569Y-13756073D02*
X15237045Y-13784645D01*
X15237045Y-13784645D02*
X15122759Y-13898930D01*
X15122759Y-13898930D02*
X15246569Y-13898930D01*
X15484664Y-13898930D02*
X15484664Y-13698930D01*
X15570378Y-13898930D02*
X15570378Y-13794168D01*
X15570378Y-13794168D02*
X15560854Y-13775121D01*
X15560854Y-13775121D02*
X15541807Y-13765597D01*
X15541807Y-13765597D02*
X15513235Y-13765597D01*
X15513235Y-13765597D02*
X15494188Y-13775121D01*
X15494188Y-13775121D02*
X15484664Y-13784645D01*
X15694188Y-13898930D02*
X15675140Y-13889407D01*
X15675140Y-13889407D02*
X15665616Y-13879883D01*
X15665616Y-13879883D02*
X15656092Y-13860835D01*
X15656092Y-13860835D02*
X15656092Y-13803692D01*
X15656092Y-13803692D02*
X15665616Y-13784645D01*
X15665616Y-13784645D02*
X15675140Y-13775121D01*
X15675140Y-13775121D02*
X15694188Y-13765597D01*
X15694188Y-13765597D02*
X15722759Y-13765597D01*
X15722759Y-13765597D02*
X15741807Y-13775121D01*
X15741807Y-13775121D02*
X15751331Y-13784645D01*
X15751331Y-13784645D02*
X15760854Y-13803692D01*
X15760854Y-13803692D02*
X15760854Y-13860835D01*
X15760854Y-13860835D02*
X15751331Y-13879883D01*
X15751331Y-13879883D02*
X15741807Y-13889407D01*
X15741807Y-13889407D02*
X15722759Y-13898930D01*
X15722759Y-13898930D02*
X15694188Y-13898930D01*
X15875140Y-13898930D02*
X15856092Y-13889407D01*
X15856092Y-13889407D02*
X15846569Y-13870359D01*
X15846569Y-13870359D02*
X15846569Y-13698930D01*
X16027521Y-13889407D02*
X16008473Y-13898930D01*
X16008473Y-13898930D02*
X15970378Y-13898930D01*
X15970378Y-13898930D02*
X15951331Y-13889407D01*
X15951331Y-13889407D02*
X15941807Y-13870359D01*
X15941807Y-13870359D02*
X15941807Y-13794168D01*
X15941807Y-13794168D02*
X15951331Y-13775121D01*
X15951331Y-13775121D02*
X15970378Y-13765597D01*
X15970378Y-13765597D02*
X16008473Y-13765597D01*
X16008473Y-13765597D02*
X16027521Y-13775121D01*
X16027521Y-13775121D02*
X16037045Y-13794168D01*
X16037045Y-13794168D02*
X16037045Y-13813216D01*
X16037045Y-13813216D02*
X15941807Y-13832264D01*
X16113235Y-13889407D02*
X16132283Y-13898930D01*
X16132283Y-13898930D02*
X16170378Y-13898930D01*
X16170378Y-13898930D02*
X16189426Y-13889407D01*
X16189426Y-13889407D02*
X16198950Y-13870359D01*
X16198950Y-13870359D02*
X16198950Y-13860835D01*
X16198950Y-13860835D02*
X16189426Y-13841787D01*
X16189426Y-13841787D02*
X16170378Y-13832264D01*
X16170378Y-13832264D02*
X16141807Y-13832264D01*
X16141807Y-13832264D02*
X16122759Y-13822740D01*
X16122759Y-13822740D02*
X16113235Y-13803692D01*
X16113235Y-13803692D02*
X16113235Y-13794168D01*
X16113235Y-13794168D02*
X16122759Y-13775121D01*
X16122759Y-13775121D02*
X16141807Y-13765597D01*
X16141807Y-13765597D02*
X16170378Y-13765597D01*
X16170378Y-13765597D02*
X16189426Y-13775121D01*
X16265616Y-13975121D02*
X16275140Y-13965597D01*
X16275140Y-13965597D02*
X16294188Y-13937026D01*
X16294188Y-13937026D02*
X16303712Y-13917978D01*
X16303712Y-13917978D02*
X16313235Y-13889407D01*
X16313235Y-13889407D02*
X16322759Y-13841787D01*
X16322759Y-13841787D02*
X16322759Y-13803692D01*
X16322759Y-13803692D02*
X16313235Y-13756073D01*
X16313235Y-13756073D02*
X16303712Y-13727502D01*
X16303712Y-13727502D02*
X16294188Y-13708454D01*
X16294188Y-13708454D02*
X16275140Y-13679883D01*
X16275140Y-13679883D02*
X16265616Y-13670359D01*
X11290553Y-13971447D02*
X11490553Y-14171447D01*
X11490553Y-13971447D02*
X11290553Y-14171447D01*
X11390553Y-13971447D02*
X11390553Y-14171447D01*
X11290553Y-14071447D02*
X11490553Y-14071447D01*
X11732283Y-13962930D02*
X11856092Y-13962930D01*
X11856092Y-13962930D02*
X11789425Y-14039121D01*
X11789425Y-14039121D02*
X11817997Y-14039121D01*
X11817997Y-14039121D02*
X11837044Y-14048645D01*
X11837044Y-14048645D02*
X11846568Y-14058168D01*
X11846568Y-14058168D02*
X11856092Y-14077216D01*
X11856092Y-14077216D02*
X11856092Y-14124835D01*
X11856092Y-14124835D02*
X11846568Y-14143883D01*
X11846568Y-14143883D02*
X11837044Y-14153407D01*
X11837044Y-14153407D02*
X11817997Y-14162930D01*
X11817997Y-14162930D02*
X11760854Y-14162930D01*
X11760854Y-14162930D02*
X11741806Y-14153407D01*
X11741806Y-14153407D02*
X11732283Y-14143883D01*
X11941806Y-14143883D02*
X11951330Y-14153407D01*
X11951330Y-14153407D02*
X11941806Y-14162930D01*
X11941806Y-14162930D02*
X11932283Y-14153407D01*
X11932283Y-14153407D02*
X11941806Y-14143883D01*
X11941806Y-14143883D02*
X11941806Y-14162930D01*
X12027521Y-13981978D02*
X12037044Y-13972454D01*
X12037044Y-13972454D02*
X12056092Y-13962930D01*
X12056092Y-13962930D02*
X12103711Y-13962930D01*
X12103711Y-13962930D02*
X12122759Y-13972454D01*
X12122759Y-13972454D02*
X12132283Y-13981978D01*
X12132283Y-13981978D02*
X12141806Y-14001026D01*
X12141806Y-14001026D02*
X12141806Y-14020073D01*
X12141806Y-14020073D02*
X12132283Y-14048645D01*
X12132283Y-14048645D02*
X12017997Y-14162930D01*
X12017997Y-14162930D02*
X12141806Y-14162930D01*
X12265616Y-13962930D02*
X12284664Y-13962930D01*
X12284664Y-13962930D02*
X12303711Y-13972454D01*
X12303711Y-13972454D02*
X12313235Y-13981978D01*
X12313235Y-13981978D02*
X12322759Y-14001026D01*
X12322759Y-14001026D02*
X12332283Y-14039121D01*
X12332283Y-14039121D02*
X12332283Y-14086740D01*
X12332283Y-14086740D02*
X12322759Y-14124835D01*
X12322759Y-14124835D02*
X12313235Y-14143883D01*
X12313235Y-14143883D02*
X12303711Y-14153407D01*
X12303711Y-14153407D02*
X12284664Y-14162930D01*
X12284664Y-14162930D02*
X12265616Y-14162930D01*
X12265616Y-14162930D02*
X12246568Y-14153407D01*
X12246568Y-14153407D02*
X12237044Y-14143883D01*
X12237044Y-14143883D02*
X12227521Y-14124835D01*
X12227521Y-14124835D02*
X12217997Y-14086740D01*
X12217997Y-14086740D02*
X12217997Y-14039121D01*
X12217997Y-14039121D02*
X12227521Y-14001026D01*
X12227521Y-14001026D02*
X12237044Y-13981978D01*
X12237044Y-13981978D02*
X12246568Y-13972454D01*
X12246568Y-13972454D02*
X12265616Y-13962930D01*
X12456092Y-13962930D02*
X12475140Y-13962930D01*
X12475140Y-13962930D02*
X12494187Y-13972454D01*
X12494187Y-13972454D02*
X12503711Y-13981978D01*
X12503711Y-13981978D02*
X12513235Y-14001026D01*
X12513235Y-14001026D02*
X12522759Y-14039121D01*
X12522759Y-14039121D02*
X12522759Y-14086740D01*
X12522759Y-14086740D02*
X12513235Y-14124835D01*
X12513235Y-14124835D02*
X12503711Y-14143883D01*
X12503711Y-14143883D02*
X12494187Y-14153407D01*
X12494187Y-14153407D02*
X12475140Y-14162930D01*
X12475140Y-14162930D02*
X12456092Y-14162930D01*
X12456092Y-14162930D02*
X12437044Y-14153407D01*
X12437044Y-14153407D02*
X12427521Y-14143883D01*
X12427521Y-14143883D02*
X12417997Y-14124835D01*
X12417997Y-14124835D02*
X12408473Y-14086740D01*
X12408473Y-14086740D02*
X12408473Y-14039121D01*
X12408473Y-14039121D02*
X12417997Y-14001026D01*
X12417997Y-14001026D02*
X12427521Y-13981978D01*
X12427521Y-13981978D02*
X12437044Y-13972454D01*
X12437044Y-13972454D02*
X12456092Y-13962930D01*
X12608473Y-14162930D02*
X12608473Y-14029597D01*
X12608473Y-14048645D02*
X12617997Y-14039121D01*
X12617997Y-14039121D02*
X12637044Y-14029597D01*
X12637044Y-14029597D02*
X12665616Y-14029597D01*
X12665616Y-14029597D02*
X12684664Y-14039121D01*
X12684664Y-14039121D02*
X12694187Y-14058168D01*
X12694187Y-14058168D02*
X12694187Y-14162930D01*
X12694187Y-14058168D02*
X12703711Y-14039121D01*
X12703711Y-14039121D02*
X12722759Y-14029597D01*
X12722759Y-14029597D02*
X12751330Y-14029597D01*
X12751330Y-14029597D02*
X12770378Y-14039121D01*
X12770378Y-14039121D02*
X12779902Y-14058168D01*
X12779902Y-14058168D02*
X12779902Y-14162930D01*
X12875140Y-14162930D02*
X12875140Y-14029597D01*
X12875140Y-14048645D02*
X12884664Y-14039121D01*
X12884664Y-14039121D02*
X12903711Y-14029597D01*
X12903711Y-14029597D02*
X12932283Y-14029597D01*
X12932283Y-14029597D02*
X12951330Y-14039121D01*
X12951330Y-14039121D02*
X12960854Y-14058168D01*
X12960854Y-14058168D02*
X12960854Y-14162930D01*
X12960854Y-14058168D02*
X12970378Y-14039121D01*
X12970378Y-14039121D02*
X12989425Y-14029597D01*
X12989425Y-14029597D02*
X13017997Y-14029597D01*
X13017997Y-14029597D02*
X13037045Y-14039121D01*
X13037045Y-14039121D02*
X13046568Y-14058168D01*
X13046568Y-14058168D02*
X13046568Y-14162930D01*
X13437045Y-13953407D02*
X13265616Y-14210549D01*
X13694187Y-13962930D02*
X13713235Y-13962930D01*
X13713235Y-13962930D02*
X13732283Y-13972454D01*
X13732283Y-13972454D02*
X13741807Y-13981978D01*
X13741807Y-13981978D02*
X13751330Y-14001026D01*
X13751330Y-14001026D02*
X13760854Y-14039121D01*
X13760854Y-14039121D02*
X13760854Y-14086740D01*
X13760854Y-14086740D02*
X13751330Y-14124835D01*
X13751330Y-14124835D02*
X13741807Y-14143883D01*
X13741807Y-14143883D02*
X13732283Y-14153407D01*
X13732283Y-14153407D02*
X13713235Y-14162930D01*
X13713235Y-14162930D02*
X13694187Y-14162930D01*
X13694187Y-14162930D02*
X13675140Y-14153407D01*
X13675140Y-14153407D02*
X13665616Y-14143883D01*
X13665616Y-14143883D02*
X13656092Y-14124835D01*
X13656092Y-14124835D02*
X13646568Y-14086740D01*
X13646568Y-14086740D02*
X13646568Y-14039121D01*
X13646568Y-14039121D02*
X13656092Y-14001026D01*
X13656092Y-14001026D02*
X13665616Y-13981978D01*
X13665616Y-13981978D02*
X13675140Y-13972454D01*
X13675140Y-13972454D02*
X13694187Y-13962930D01*
X13846568Y-14143883D02*
X13856092Y-14153407D01*
X13856092Y-14153407D02*
X13846568Y-14162930D01*
X13846568Y-14162930D02*
X13837045Y-14153407D01*
X13837045Y-14153407D02*
X13846568Y-14143883D01*
X13846568Y-14143883D02*
X13846568Y-14162930D01*
X14046568Y-14162930D02*
X13932283Y-14162930D01*
X13989426Y-14162930D02*
X13989426Y-13962930D01*
X13989426Y-13962930D02*
X13970378Y-13991502D01*
X13970378Y-13991502D02*
X13951330Y-14010549D01*
X13951330Y-14010549D02*
X13932283Y-14020073D01*
X14122759Y-13981978D02*
X14132283Y-13972454D01*
X14132283Y-13972454D02*
X14151330Y-13962930D01*
X14151330Y-13962930D02*
X14198949Y-13962930D01*
X14198949Y-13962930D02*
X14217997Y-13972454D01*
X14217997Y-13972454D02*
X14227521Y-13981978D01*
X14227521Y-13981978D02*
X14237045Y-14001026D01*
X14237045Y-14001026D02*
X14237045Y-14020073D01*
X14237045Y-14020073D02*
X14227521Y-14048645D01*
X14227521Y-14048645D02*
X14113235Y-14162930D01*
X14113235Y-14162930D02*
X14237045Y-14162930D01*
X14408473Y-13962930D02*
X14370378Y-13962930D01*
X14370378Y-13962930D02*
X14351330Y-13972454D01*
X14351330Y-13972454D02*
X14341807Y-13981978D01*
X14341807Y-13981978D02*
X14322759Y-14010549D01*
X14322759Y-14010549D02*
X14313235Y-14048645D01*
X14313235Y-14048645D02*
X14313235Y-14124835D01*
X14313235Y-14124835D02*
X14322759Y-14143883D01*
X14322759Y-14143883D02*
X14332283Y-14153407D01*
X14332283Y-14153407D02*
X14351330Y-14162930D01*
X14351330Y-14162930D02*
X14389426Y-14162930D01*
X14389426Y-14162930D02*
X14408473Y-14153407D01*
X14408473Y-14153407D02*
X14417997Y-14143883D01*
X14417997Y-14143883D02*
X14427521Y-14124835D01*
X14427521Y-14124835D02*
X14427521Y-14077216D01*
X14427521Y-14077216D02*
X14417997Y-14058168D01*
X14417997Y-14058168D02*
X14408473Y-14048645D01*
X14408473Y-14048645D02*
X14389426Y-14039121D01*
X14389426Y-14039121D02*
X14351330Y-14039121D01*
X14351330Y-14039121D02*
X14332283Y-14048645D01*
X14332283Y-14048645D02*
X14322759Y-14058168D01*
X14322759Y-14058168D02*
X14313235Y-14077216D01*
X14551330Y-13962930D02*
X14570378Y-13962930D01*
X14570378Y-13962930D02*
X14589426Y-13972454D01*
X14589426Y-13972454D02*
X14598949Y-13981978D01*
X14598949Y-13981978D02*
X14608473Y-14001026D01*
X14608473Y-14001026D02*
X14617997Y-14039121D01*
X14617997Y-14039121D02*
X14617997Y-14086740D01*
X14617997Y-14086740D02*
X14608473Y-14124835D01*
X14608473Y-14124835D02*
X14598949Y-14143883D01*
X14598949Y-14143883D02*
X14589426Y-14153407D01*
X14589426Y-14153407D02*
X14570378Y-14162930D01*
X14570378Y-14162930D02*
X14551330Y-14162930D01*
X14551330Y-14162930D02*
X14532283Y-14153407D01*
X14532283Y-14153407D02*
X14522759Y-14143883D01*
X14522759Y-14143883D02*
X14513235Y-14124835D01*
X14513235Y-14124835D02*
X14503711Y-14086740D01*
X14503711Y-14086740D02*
X14503711Y-14039121D01*
X14503711Y-14039121D02*
X14513235Y-14001026D01*
X14513235Y-14001026D02*
X14522759Y-13981978D01*
X14522759Y-13981978D02*
X14532283Y-13972454D01*
X14532283Y-13972454D02*
X14551330Y-13962930D01*
X14694188Y-13962930D02*
X14694188Y-14001026D01*
X14770378Y-13962930D02*
X14770378Y-14001026D01*
X15065616Y-14239121D02*
X15056092Y-14229597D01*
X15056092Y-14229597D02*
X15037045Y-14201026D01*
X15037045Y-14201026D02*
X15027521Y-14181978D01*
X15027521Y-14181978D02*
X15017997Y-14153407D01*
X15017997Y-14153407D02*
X15008473Y-14105787D01*
X15008473Y-14105787D02*
X15008473Y-14067692D01*
X15008473Y-14067692D02*
X15017997Y-14020073D01*
X15017997Y-14020073D02*
X15027521Y-13991502D01*
X15027521Y-13991502D02*
X15037045Y-13972454D01*
X15037045Y-13972454D02*
X15056092Y-13943883D01*
X15056092Y-13943883D02*
X15065616Y-13934359D01*
X15122759Y-13962930D02*
X15246569Y-13962930D01*
X15246569Y-13962930D02*
X15179902Y-14039121D01*
X15179902Y-14039121D02*
X15208473Y-14039121D01*
X15208473Y-14039121D02*
X15227521Y-14048645D01*
X15227521Y-14048645D02*
X15237045Y-14058168D01*
X15237045Y-14058168D02*
X15246569Y-14077216D01*
X15246569Y-14077216D02*
X15246569Y-14124835D01*
X15246569Y-14124835D02*
X15237045Y-14143883D01*
X15237045Y-14143883D02*
X15227521Y-14153407D01*
X15227521Y-14153407D02*
X15208473Y-14162930D01*
X15208473Y-14162930D02*
X15151330Y-14162930D01*
X15151330Y-14162930D02*
X15132283Y-14153407D01*
X15132283Y-14153407D02*
X15122759Y-14143883D01*
X15484664Y-14162930D02*
X15484664Y-13962930D01*
X15570378Y-14162930D02*
X15570378Y-14058168D01*
X15570378Y-14058168D02*
X15560854Y-14039121D01*
X15560854Y-14039121D02*
X15541807Y-14029597D01*
X15541807Y-14029597D02*
X15513235Y-14029597D01*
X15513235Y-14029597D02*
X15494188Y-14039121D01*
X15494188Y-14039121D02*
X15484664Y-14048645D01*
X15694188Y-14162930D02*
X15675140Y-14153407D01*
X15675140Y-14153407D02*
X15665616Y-14143883D01*
X15665616Y-14143883D02*
X15656092Y-14124835D01*
X15656092Y-14124835D02*
X15656092Y-14067692D01*
X15656092Y-14067692D02*
X15665616Y-14048645D01*
X15665616Y-14048645D02*
X15675140Y-14039121D01*
X15675140Y-14039121D02*
X15694188Y-14029597D01*
X15694188Y-14029597D02*
X15722759Y-14029597D01*
X15722759Y-14029597D02*
X15741807Y-14039121D01*
X15741807Y-14039121D02*
X15751331Y-14048645D01*
X15751331Y-14048645D02*
X15760854Y-14067692D01*
X15760854Y-14067692D02*
X15760854Y-14124835D01*
X15760854Y-14124835D02*
X15751331Y-14143883D01*
X15751331Y-14143883D02*
X15741807Y-14153407D01*
X15741807Y-14153407D02*
X15722759Y-14162930D01*
X15722759Y-14162930D02*
X15694188Y-14162930D01*
X15875140Y-14162930D02*
X15856092Y-14153407D01*
X15856092Y-14153407D02*
X15846569Y-14134359D01*
X15846569Y-14134359D02*
X15846569Y-13962930D01*
X16027521Y-14153407D02*
X16008473Y-14162930D01*
X16008473Y-14162930D02*
X15970378Y-14162930D01*
X15970378Y-14162930D02*
X15951331Y-14153407D01*
X15951331Y-14153407D02*
X15941807Y-14134359D01*
X15941807Y-14134359D02*
X15941807Y-14058168D01*
X15941807Y-14058168D02*
X15951331Y-14039121D01*
X15951331Y-14039121D02*
X15970378Y-14029597D01*
X15970378Y-14029597D02*
X16008473Y-14029597D01*
X16008473Y-14029597D02*
X16027521Y-14039121D01*
X16027521Y-14039121D02*
X16037045Y-14058168D01*
X16037045Y-14058168D02*
X16037045Y-14077216D01*
X16037045Y-14077216D02*
X15941807Y-14096264D01*
X16113235Y-14153407D02*
X16132283Y-14162930D01*
X16132283Y-14162930D02*
X16170378Y-14162930D01*
X16170378Y-14162930D02*
X16189426Y-14153407D01*
X16189426Y-14153407D02*
X16198950Y-14134359D01*
X16198950Y-14134359D02*
X16198950Y-14124835D01*
X16198950Y-14124835D02*
X16189426Y-14105787D01*
X16189426Y-14105787D02*
X16170378Y-14096264D01*
X16170378Y-14096264D02*
X16141807Y-14096264D01*
X16141807Y-14096264D02*
X16122759Y-14086740D01*
X16122759Y-14086740D02*
X16113235Y-14067692D01*
X16113235Y-14067692D02*
X16113235Y-14058168D01*
X16113235Y-14058168D02*
X16122759Y-14039121D01*
X16122759Y-14039121D02*
X16141807Y-14029597D01*
X16141807Y-14029597D02*
X16170378Y-14029597D01*
X16170378Y-14029597D02*
X16189426Y-14039121D01*
X16265616Y-14239121D02*
X16275140Y-14229597D01*
X16275140Y-14229597D02*
X16294188Y-14201026D01*
X16294188Y-14201026D02*
X16303712Y-14181978D01*
X16303712Y-14181978D02*
X16313235Y-14153407D01*
X16313235Y-14153407D02*
X16322759Y-14105787D01*
X16322759Y-14105787D02*
X16322759Y-14067692D01*
X16322759Y-14067692D02*
X16313235Y-14020073D01*
X16313235Y-14020073D02*
X16303712Y-13991502D01*
X16303712Y-13991502D02*
X16294188Y-13972454D01*
X16294188Y-13972454D02*
X16275140Y-13943883D01*
X16275140Y-13943883D02*
X16265616Y-13934359D01*
M02*
