%TF.GenerationSoftware,KiCad,Pcbnew,8.0.5*%
%TF.CreationDate,2025-11-07T08:13:22-03:00*%
%TF.ProjectId,sfp_moduloIC,7366705f-6d6f-4647-956c-6f49432e6b69,v1.0*%
%TF.SameCoordinates,Original*%
%TF.FileFunction,Copper,L4,Bot*%
%TF.FilePolarity,Positive*%
%FSLAX46Y46*%
G04 Gerber Fmt 4.6, Leading zero omitted, Abs format (unit mm)*
G04 Created by KiCad (PCBNEW 8.0.5) date 2025-11-07 08:13:22*
%MOMM*%
%LPD*%
G01*
G04 APERTURE LIST*
%TA.AperFunction,ComponentPad*%
%ADD10R,2.500000X2.500000*%
%TD*%
%TA.AperFunction,ComponentPad*%
%ADD11C,2.500000*%
%TD*%
%TA.AperFunction,ComponentPad*%
%ADD12C,6.400000*%
%TD*%
%TA.AperFunction,ComponentPad*%
%ADD13R,4.600000X2.000000*%
%TD*%
%TA.AperFunction,ComponentPad*%
%ADD14O,4.200000X2.000000*%
%TD*%
%TA.AperFunction,ComponentPad*%
%ADD15O,2.000000X4.200000*%
%TD*%
%TA.AperFunction,ComponentPad*%
%ADD16R,1.700000X1.700000*%
%TD*%
%TA.AperFunction,ComponentPad*%
%ADD17O,1.700000X1.700000*%
%TD*%
%TA.AperFunction,WasherPad*%
%ADD18C,2.000000*%
%TD*%
%TA.AperFunction,ComponentPad*%
%ADD19R,2.000000X2.000000*%
%TD*%
%TA.AperFunction,ComponentPad*%
%ADD20C,1.500000*%
%TD*%
%TA.AperFunction,ViaPad*%
%ADD21C,0.600000*%
%TD*%
%TA.AperFunction,ViaPad*%
%ADD22C,0.450000*%
%TD*%
%TA.AperFunction,Conductor*%
%ADD23C,0.300000*%
%TD*%
%TA.AperFunction,Conductor*%
%ADD24C,0.200000*%
%TD*%
%TA.AperFunction,Conductor*%
%ADD25C,0.150000*%
%TD*%
%TA.AperFunction,Conductor*%
%ADD26C,0.400000*%
%TD*%
G04 APERTURE END LIST*
D10*
%TO.P,J8,1,Pin_1*%
%TO.N,/IN*%
X127940001Y-112930000D03*
D11*
%TO.P,J8,2,Pin_2*%
%TO.N,GND*%
X132940001Y-112930000D03*
%TD*%
D12*
%TO.P,H1,1,1*%
%TO.N,GND*%
X120590001Y-56030000D03*
%TD*%
D13*
%TO.P,J7,1*%
%TO.N,/VIN*%
X159390001Y-109540000D03*
D14*
%TO.P,J7,2*%
%TO.N,GND*%
X159390001Y-115840000D03*
D15*
%TO.P,J7,3*%
X164190001Y-112440000D03*
%TD*%
D16*
%TO.P,J1,1,Pin_1*%
%TO.N,/CS3*%
X156210001Y-73940000D03*
D17*
%TO.P,J1,2,Pin_2*%
%TO.N,/MOSI*%
X158750001Y-73940000D03*
%TO.P,J1,3,Pin_3*%
%TO.N,/MISO*%
X161290001Y-73940000D03*
%TO.P,J1,4,Pin_4*%
%TO.N,/SCK*%
X163830001Y-73940000D03*
%TO.P,J1,5,Pin_5*%
%TO.N,GND*%
X166370001Y-73940000D03*
%TD*%
D16*
%TO.P,J4,1,Pin_1*%
%TO.N,+3V3*%
X171990001Y-77775000D03*
D17*
%TO.P,J4,2,Pin_2*%
%TO.N,Net-(J4-Pin_2)*%
X171990001Y-75235000D03*
%TO.P,J4,3,Pin_3*%
%TO.N,GND*%
X171990001Y-72695000D03*
%TD*%
D18*
%TO.P,J6,*%
%TO.N,*%
X139815001Y-66070000D03*
X139815001Y-56470000D03*
D19*
%TO.P,J6,CAGE,CAGE*%
%TO.N,GND*%
X170715001Y-68395000D03*
X170715001Y-59820000D03*
X165715001Y-54145000D03*
X160715001Y-68395000D03*
X155715001Y-54145000D03*
X150715001Y-68395000D03*
X150715001Y-62720000D03*
X150715001Y-57320000D03*
D20*
X147915001Y-68395000D03*
X147915001Y-54145000D03*
D19*
X145715001Y-54145000D03*
D20*
X143215001Y-68395000D03*
X143215001Y-54145000D03*
D19*
X140715001Y-68395000D03*
D20*
X138215001Y-68395000D03*
X138215001Y-54145000D03*
D19*
X135715001Y-54145000D03*
D20*
X133615001Y-66070000D03*
X133615001Y-61270000D03*
X133615001Y-56470000D03*
%TD*%
D16*
%TO.P,J3,1,Pin_1*%
%TO.N,/SWCLK*%
X118305001Y-105285000D03*
D17*
%TO.P,J3,2,Pin_2*%
%TO.N,/SWDIO*%
X118305001Y-102745000D03*
%TO.P,J3,3,Pin_3*%
%TO.N,GND*%
X118305001Y-100205000D03*
%TD*%
D16*
%TO.P,J2,1,Pin_1*%
%TO.N,/TX1*%
X118350001Y-90050000D03*
D17*
%TO.P,J2,2,Pin_2*%
%TO.N,/RX1*%
X118350001Y-92590000D03*
%TO.P,J2,3,Pin_3*%
%TO.N,GND*%
X118350001Y-95130000D03*
%TD*%
D12*
%TO.P,H2,1,1*%
%TO.N,GND*%
X170320002Y-113240001D03*
%TD*%
D16*
%TO.P,J5,1,Pin_1*%
%TO.N,/CTRL*%
X172010001Y-85035000D03*
D17*
%TO.P,J5,2,Pin_2*%
%TO.N,GND*%
X172010001Y-82495000D03*
%TD*%
D12*
%TO.P,H3,1,1*%
%TO.N,GND*%
X120150001Y-113230000D03*
%TD*%
D21*
%TO.N,GND*%
X141592801Y-84532000D03*
D22*
X130505536Y-82496266D03*
D21*
X141694401Y-60351200D03*
X156426401Y-78994800D03*
X138745536Y-70496266D03*
D22*
X119725536Y-79616266D03*
D21*
X143726401Y-97943200D03*
D22*
X118425536Y-77486266D03*
X136290001Y-96660000D03*
D21*
X154050001Y-95708000D03*
D22*
X165190001Y-75840000D03*
D21*
X136835536Y-76820000D03*
X145656801Y-77064400D03*
X127345536Y-69766266D03*
X167196001Y-81839600D03*
X125840001Y-55160000D03*
X132042401Y-80417200D03*
X145910801Y-99924400D03*
X147185536Y-78696266D03*
X126810001Y-86290000D03*
D22*
X141470001Y-74630000D03*
D21*
X121069601Y-74372000D03*
X139115536Y-51896266D03*
X145905536Y-79466266D03*
X161455601Y-81738000D03*
%TO.N,+3V3*%
X142659601Y-80569600D03*
X148850001Y-94560000D03*
X143116801Y-81433200D03*
X147993601Y-80366400D03*
X148603201Y-112573600D03*
X121460001Y-81320000D03*
D22*
X124125536Y-75476266D03*
D21*
X146266401Y-111049600D03*
X144082001Y-99660000D03*
X147079201Y-111830000D03*
X147841201Y-112573600D03*
X136004801Y-70308000D03*
X145060001Y-81210000D03*
X137071601Y-114046800D03*
X145510001Y-114870000D03*
X145504401Y-111830000D03*
X145504401Y-109525600D03*
X137071601Y-113284800D03*
X127580001Y-66262500D03*
X142820001Y-77740000D03*
X147665001Y-99835000D03*
X137071601Y-111760800D03*
X137071601Y-114808800D03*
X146266401Y-112624400D03*
D22*
X165860001Y-105260000D03*
X134380001Y-96530000D03*
X128240001Y-90100000D03*
D21*
X137071601Y-110998800D03*
D22*
X121015536Y-78486266D03*
D21*
X147079201Y-111049600D03*
X145504401Y-114148400D03*
D22*
X128030001Y-79115000D03*
X135350001Y-73720000D03*
D21*
X141491201Y-73559200D03*
X147841201Y-111049600D03*
D22*
X125662040Y-82805001D03*
D21*
X125840001Y-56630000D03*
X145504401Y-111049600D03*
D22*
X157735901Y-82855901D03*
X117350001Y-76870000D03*
D21*
X143828001Y-87884800D03*
X147841201Y-111830000D03*
X145504401Y-110287600D03*
X146876001Y-89307200D03*
X137071601Y-108712800D03*
X146790001Y-81120000D03*
X137071601Y-109474800D03*
X147079201Y-112573600D03*
X143550001Y-94860000D03*
X148603201Y-111049600D03*
X131660001Y-66682500D03*
X135141201Y-100940400D03*
X123040901Y-85610901D03*
D22*
X163685901Y-82835901D03*
D21*
X145504401Y-113386400D03*
X137071601Y-110236800D03*
X145504401Y-108763600D03*
X137071601Y-112522800D03*
X144031201Y-89815200D03*
X142770001Y-79070000D03*
X148603201Y-111830000D03*
D22*
X132935536Y-77206266D03*
D21*
X145504401Y-112624400D03*
X146266401Y-111830000D03*
D22*
%TO.N,/OUT*%
X148580001Y-99846266D03*
X125730001Y-101050000D03*
%TO.N,/RC*%
X135360001Y-77730000D03*
X135340001Y-80300000D03*
%TO.N,/RST3*%
X130610901Y-81340901D03*
X139952136Y-96082866D03*
%TO.N,+1V0*%
X125595536Y-74415000D03*
X122877096Y-82705001D03*
X128995001Y-80600000D03*
X127455536Y-74415000D03*
D21*
X117610001Y-81930000D03*
D22*
X122150001Y-76266266D03*
X123705536Y-74404999D03*
%TO.N,/RST1*%
X153530901Y-75670901D03*
X154325001Y-90060000D03*
%TO.N,Net-(D7-K)*%
X123524636Y-84015366D03*
X136590001Y-88486266D03*
X132745536Y-82900000D03*
%TO.N,Net-(D8-K)*%
X123777950Y-84531563D03*
X135120001Y-88576266D03*
X132740902Y-83790900D03*
%TO.N,Net-(D9-K)*%
X133670001Y-88557500D03*
X124075536Y-85056266D03*
X132710901Y-84780901D03*
%TO.N,Net-(D10-K)*%
X124640001Y-85230000D03*
X132745536Y-85730000D03*
X132210001Y-88527500D03*
%TO.N,Net-(D11-K)*%
X130750001Y-88537500D03*
X132775536Y-86690000D03*
X125157283Y-85481093D03*
%TO.N,/TX1*%
X141025536Y-93135000D03*
X146305536Y-94296266D03*
%TO.N,/RX1*%
X145610001Y-94240000D03*
X140665536Y-93610000D03*
%TO.N,/SWDIO*%
X140255536Y-94085000D03*
X144190901Y-94310901D03*
%TO.N,/CTRL*%
X142545536Y-62936266D03*
X138950901Y-96420901D03*
X145550001Y-63080000D03*
%TO.N,/SDA*%
X142334635Y-62335365D03*
X138005536Y-97146266D03*
X138224635Y-72915365D03*
%TO.N,/SCL*%
X142235001Y-63420000D03*
X138557139Y-96884663D03*
X138899811Y-72866266D03*
%TO.N,/LOS*%
X168130001Y-70115000D03*
X145641753Y-59150000D03*
%TO.N,/FAULT*%
X168325901Y-71495901D03*
X145460001Y-63870000D03*
%TO.N,/INT1*%
X153060902Y-76170900D03*
X153925001Y-91130000D03*
%TO.N,/CS1*%
X152250001Y-99516266D03*
X151240001Y-77920000D03*
%TO.N,/CS2*%
X153425536Y-102060000D03*
X142790001Y-95090000D03*
%TO.N,/RST2*%
X170790001Y-98326266D03*
X146527702Y-91194100D03*
X147630001Y-94376266D03*
%TO.N,/MOSI*%
X152610901Y-76600901D03*
X153555901Y-98075901D03*
%TO.N,/SCK*%
X151715902Y-77565900D03*
X157645901Y-96395901D03*
X152765536Y-99035000D03*
%TO.N,/MISO*%
X157550001Y-98150000D03*
X153135902Y-98545900D03*
X152135901Y-77095901D03*
%TO.N,/INT2*%
X148082135Y-95322865D03*
X170759636Y-96100366D03*
D21*
%TO.N,/VccR*%
X131160001Y-56560000D03*
X137460001Y-60640000D03*
%TO.N,/VccT*%
X137510001Y-62120000D03*
X131650001Y-68560000D03*
D22*
%TO.N,/CS3*%
X149365536Y-92760000D03*
%TO.N,Net-(J4-Pin_2)*%
X145625536Y-59830000D03*
%TD*%
D23*
%TO.N,GND*%
X140715001Y-68395000D02*
X140715001Y-69566801D01*
X139785536Y-70496266D02*
X138745536Y-70496266D01*
X140715001Y-68395000D02*
X138215001Y-68395000D01*
X138215001Y-54145000D02*
X143215001Y-54145000D01*
X140115536Y-70166266D02*
X139785536Y-70496266D01*
X138215001Y-52796801D02*
X139115536Y-51896266D01*
X140715001Y-68395000D02*
X143215001Y-68395000D01*
X140715001Y-69566801D02*
X140115536Y-70166266D01*
X147915001Y-68395000D02*
X150715001Y-68395000D01*
X138215001Y-54145000D02*
X135715001Y-54145000D01*
X133615001Y-55006801D02*
X134476802Y-54145000D01*
X134476802Y-54145000D02*
X135715001Y-54145000D01*
X138215001Y-54145000D02*
X138215001Y-52796801D01*
X133615001Y-56470000D02*
X133615001Y-55006801D01*
%TO.N,+3V3*%
X121460001Y-84030000D02*
X121460001Y-81320000D01*
X123040901Y-85610901D02*
X123040901Y-85610900D01*
X123040902Y-85610901D02*
X123040901Y-85610901D01*
X123065001Y-85635000D02*
X123040902Y-85610901D01*
X123040901Y-85610900D02*
X121460001Y-84030000D01*
D24*
%TO.N,/OUT*%
X147884315Y-98630000D02*
X147380001Y-98630000D01*
X147380001Y-98630000D02*
X128150001Y-98630000D01*
X148580001Y-99325686D02*
X148422158Y-99167843D01*
X128150001Y-98630000D02*
X125730001Y-101050000D01*
X148580001Y-99846266D02*
X148580001Y-99325686D01*
X148422158Y-99167843D02*
X147884315Y-98630000D01*
X148580001Y-99880000D02*
X148580001Y-99846266D01*
%TO.N,/RC*%
X135340001Y-77750000D02*
X135360001Y-77730000D01*
X135340001Y-80300000D02*
X135340001Y-77750000D01*
%TO.N,/RST3*%
X139950001Y-96211752D02*
X138515487Y-97646266D01*
X131060001Y-81790000D02*
X130610902Y-81340901D01*
X130610901Y-81340901D02*
X130610901Y-81340900D01*
X137835536Y-97646266D02*
X137525536Y-97336266D01*
X137525536Y-97336266D02*
X137525536Y-82685535D01*
X137525536Y-82685535D02*
X136630001Y-81790000D01*
X130610902Y-81340901D02*
X130610901Y-81340901D01*
X139950001Y-96085000D02*
X139950001Y-96211752D01*
X138515487Y-97646266D02*
X137835536Y-97646266D01*
X130610901Y-81340900D02*
X130610001Y-81340000D01*
X136630001Y-81790000D02*
X131060001Y-81790000D01*
D23*
%TO.N,+1V0*%
X123705536Y-74404999D02*
X123755101Y-74404999D01*
X128215001Y-74415000D02*
X128995001Y-75195000D01*
X122150001Y-80530000D02*
X122150001Y-82450000D01*
X122150001Y-76266266D02*
X122150001Y-75220000D01*
X125577696Y-74415000D02*
X125595536Y-74415000D01*
X123755101Y-74404999D02*
X125567695Y-74404999D01*
X128995001Y-75195000D02*
X128995001Y-80600000D01*
X122150001Y-75220000D02*
X122965002Y-74404999D01*
X125567695Y-74404999D02*
X125577696Y-74415000D01*
X127450001Y-74415000D02*
X127455536Y-74415000D01*
X125595536Y-74415000D02*
X127450001Y-74415000D01*
X127455536Y-74415000D02*
X128215001Y-74415000D01*
X119010001Y-80530000D02*
X122150001Y-80530000D01*
X122150001Y-82450000D02*
X122405002Y-82705001D01*
X122150001Y-80530000D02*
X122150001Y-76310000D01*
X122150001Y-76310000D02*
X122150001Y-76266266D01*
X122965002Y-74404999D02*
X123705536Y-74404999D01*
X122405002Y-82705001D02*
X122877096Y-82705001D01*
X117610001Y-81930000D02*
X119010001Y-80530000D01*
D24*
%TO.N,/RST1*%
X154325001Y-90060000D02*
X154250001Y-89985000D01*
X154250001Y-89985000D02*
X154250001Y-76390000D01*
X154250001Y-76390000D02*
X153540001Y-75680000D01*
%TO.N,Net-(D7-K)*%
X136590001Y-88477500D02*
X136600001Y-88467500D01*
X136600001Y-83480000D02*
X136020001Y-82900000D01*
X132340000Y-83280001D02*
X132720001Y-82900000D01*
X124260001Y-83280001D02*
X132340000Y-83280001D01*
X123524636Y-84015366D02*
X124260001Y-83280001D01*
X136600001Y-88467500D02*
X136600001Y-83480000D01*
D25*
X132720001Y-82900000D02*
X132690001Y-82870000D01*
D24*
X136020001Y-82900000D02*
X132720001Y-82900000D01*
%TO.N,Net-(D8-K)*%
X124629512Y-83680001D02*
X132630002Y-83680001D01*
X123777950Y-84531563D02*
X124629512Y-83680001D01*
X132630002Y-83680001D02*
X132730001Y-83780000D01*
X132730001Y-83780000D02*
X135800001Y-83780000D01*
X135800001Y-83780000D02*
X136200001Y-84180000D01*
X136200001Y-84180000D02*
X136200001Y-87401434D01*
X135120001Y-88587500D02*
X135120001Y-88576266D01*
X135120001Y-88481434D02*
X135120001Y-88576266D01*
X136200001Y-87401434D02*
X135120001Y-88481434D01*
D25*
%TO.N,Net-(D9-K)*%
X132710901Y-84780900D02*
X132660001Y-84730000D01*
D24*
X132545687Y-84790000D02*
X132720001Y-84790000D01*
X131835688Y-84080001D02*
X132545687Y-84790000D01*
X135800001Y-85050000D02*
X135540001Y-84790000D01*
X124075536Y-85056266D02*
X125051801Y-84080001D01*
X135540001Y-84790000D02*
X132720001Y-84790000D01*
X135800001Y-87235748D02*
X135800001Y-85050000D01*
D25*
X132710902Y-84780901D02*
X132710901Y-84780901D01*
D24*
X133670001Y-88557500D02*
X134478249Y-88557500D01*
D25*
X132710901Y-84780901D02*
X132710901Y-84780900D01*
D24*
X134478249Y-88557500D02*
X135800001Y-87235748D01*
D25*
X132720001Y-84790000D02*
X132710902Y-84780901D01*
D24*
X125051801Y-84080001D02*
X131835688Y-84080001D01*
%TO.N,Net-(D10-K)*%
X135400001Y-87070062D02*
X135400001Y-86000000D01*
X133535718Y-88020031D02*
X134450032Y-88020031D01*
X132745536Y-85730000D02*
X132620001Y-85730000D01*
X135400001Y-86000000D02*
X135130001Y-85730000D01*
X124640001Y-85020000D02*
X125180000Y-84480001D01*
X134450032Y-88020031D02*
X135400001Y-87070062D01*
X132620001Y-85730000D02*
X132730001Y-85730000D01*
X135130001Y-85730000D02*
X132745536Y-85730000D01*
X124640001Y-85230000D02*
X124640001Y-85020000D01*
X131370002Y-84480001D02*
X132620001Y-85730000D01*
X132210001Y-88527500D02*
X133028249Y-88527500D01*
X133028249Y-88527500D02*
X133535718Y-88020031D01*
X125180000Y-84480001D02*
X131370002Y-84480001D01*
%TO.N,Net-(D11-K)*%
X130920002Y-84880001D02*
X132720001Y-86680000D01*
X132750001Y-87190000D02*
X131402501Y-88537500D01*
X125758375Y-84880001D02*
X130920002Y-84880001D01*
X125157283Y-85481093D02*
X125758375Y-84880001D01*
X132720001Y-86680000D02*
X132750001Y-86680000D01*
X132750001Y-86680000D02*
X132750001Y-87190000D01*
X131402501Y-88537500D02*
X130750001Y-88537500D01*
%TO.N,/TX1*%
X146305536Y-94296266D02*
X146305536Y-94263783D01*
X146305536Y-94263783D02*
X145176753Y-93135000D01*
X145176753Y-93135000D02*
X141039392Y-93135000D01*
%TO.N,/RX1*%
X145610001Y-94240000D02*
X144980001Y-93610000D01*
X144980001Y-93610000D02*
X140675065Y-93610000D01*
%TO.N,/SWDIO*%
X144200001Y-94320000D02*
X143858530Y-94320000D01*
X143858530Y-94320000D02*
X143623530Y-94085000D01*
X143623530Y-94085000D02*
X140280001Y-94085000D01*
%TO.N,/CTRL*%
X142710001Y-64978629D02*
X142710001Y-63130000D01*
X172010001Y-85035000D02*
X170735001Y-85035000D01*
X144611373Y-71940000D02*
X145180001Y-71371372D01*
X138840001Y-73591372D02*
X140491373Y-71940000D01*
X169020001Y-70990000D02*
X147350001Y-70990000D01*
X138840001Y-96310000D02*
X138840001Y-73591372D01*
X145180001Y-67448629D02*
X142710001Y-64978629D01*
X169450001Y-83750000D02*
X169450001Y-71420000D01*
X145980001Y-69620000D02*
X145980001Y-63510000D01*
X169450001Y-71420000D02*
X169020001Y-70990000D01*
X139010001Y-96480000D02*
X138840001Y-96310000D01*
X142710001Y-63130000D02*
X142530001Y-62950000D01*
X140491373Y-71940000D02*
X144611373Y-71940000D01*
X147350001Y-70990000D02*
X145980001Y-69620000D01*
X170735001Y-85035000D02*
X169450001Y-83750000D01*
X145980001Y-63510000D02*
X145550001Y-63080000D01*
X145180001Y-71371372D02*
X145180001Y-67448629D01*
%TO.N,/SDA*%
X138240001Y-72900000D02*
X138240001Y-72847868D01*
X138703059Y-72384810D02*
X138915191Y-72384810D01*
X142334636Y-62335365D02*
X142340001Y-62330000D01*
X137965536Y-73174464D02*
X138224635Y-72915365D01*
X144280001Y-71140000D02*
X144380001Y-71040000D01*
X137965536Y-97126266D02*
X137965536Y-73174464D01*
X138240001Y-72847868D02*
X138703059Y-72384810D01*
X138224636Y-72915365D02*
X138240001Y-72900000D01*
X142334635Y-62335365D02*
X142334636Y-62335365D01*
X141760001Y-62910000D02*
X142334635Y-62335366D01*
X141760001Y-65160000D02*
X141760001Y-62910000D01*
X140160001Y-71140000D02*
X144280001Y-71140000D01*
X138224635Y-72915365D02*
X138224636Y-72915365D01*
X144380001Y-67780000D02*
X141760001Y-65160000D01*
X144380001Y-71040000D02*
X144380001Y-67780000D01*
X142334635Y-62335366D02*
X142334635Y-62335365D01*
X138915191Y-72384810D02*
X140160001Y-71140000D01*
%TO.N,/SCL*%
X138557139Y-96884663D02*
X138557139Y-96884662D01*
X144780001Y-71205686D02*
X144780001Y-67614315D01*
X138558221Y-96885744D02*
X138557140Y-96884663D01*
X144445687Y-71540000D02*
X144780001Y-71205686D01*
X142160001Y-64994315D02*
X142160001Y-63495000D01*
X142160001Y-63495000D02*
X142235001Y-63420000D01*
X138899811Y-72859810D02*
X139005877Y-72859810D01*
X138899811Y-72965876D02*
X138899811Y-72866266D01*
X144780001Y-67614315D02*
X142160001Y-64994315D01*
X140325687Y-71540000D02*
X144445687Y-71540000D01*
X138440001Y-73425686D02*
X138899811Y-72965876D01*
X138557139Y-96884662D02*
X138440001Y-96767524D01*
X138557140Y-96884663D02*
X138557139Y-96884663D01*
X138440001Y-96767524D02*
X138440001Y-73425686D01*
X139005877Y-72859810D02*
X140325687Y-71540000D01*
X138899811Y-72866266D02*
X138899811Y-72859810D01*
%TO.N,/LOS*%
X146780001Y-69280000D02*
X147145001Y-69645000D01*
X168055001Y-70190000D02*
X168130001Y-70115000D01*
X146780001Y-60288248D02*
X146780001Y-69280000D01*
X145641753Y-59150000D02*
X146780001Y-60288248D01*
X147145001Y-69645000D02*
X147690001Y-70190000D01*
X147690001Y-70190000D02*
X150230001Y-70190000D01*
X150230001Y-70190000D02*
X154170001Y-70190000D01*
X145640001Y-59150000D02*
X145641753Y-59150000D01*
X154170001Y-70190000D02*
X168055001Y-70190000D01*
%TO.N,/FAULT*%
X145580001Y-69785686D02*
X147184315Y-71390000D01*
X145580001Y-63990000D02*
X145580001Y-69785686D01*
X168220001Y-71390000D02*
X168320001Y-71490000D01*
X167850001Y-71390000D02*
X168220001Y-71390000D01*
X147184315Y-71390000D02*
X167850001Y-71390000D01*
X145460001Y-63870000D02*
X145580001Y-63990000D01*
%TO.N,/INT1*%
X153060901Y-76170900D02*
X153060902Y-76170900D01*
X153850001Y-91055000D02*
X153925001Y-91130000D01*
X153050001Y-76160000D02*
X153060901Y-76170900D01*
X153850001Y-76960000D02*
X153850001Y-90820000D01*
X153060902Y-76170900D02*
X153060902Y-76170901D01*
X153850001Y-90820000D02*
X153850001Y-91055000D01*
X153060902Y-76170901D02*
X153850001Y-76960000D01*
%TO.N,/CS1*%
X152250001Y-78860000D02*
X152250001Y-99470000D01*
X152250001Y-99490000D02*
X152250001Y-99516266D01*
X151240001Y-77920000D02*
X151310001Y-77920000D01*
X152250001Y-99516266D02*
X152250001Y-99535000D01*
X151310001Y-77920000D02*
X152250001Y-78860000D01*
X152240001Y-99480000D02*
X152250001Y-99490000D01*
X152250001Y-99470000D02*
X152240001Y-99480000D01*
%TO.N,/CS2*%
X153440001Y-102060000D02*
X153425536Y-102060000D01*
X153425536Y-102060000D02*
X151880001Y-102060000D01*
X142790001Y-95370000D02*
X142790001Y-95090000D01*
X145590001Y-95770000D02*
X143190001Y-95770000D01*
X151880001Y-102060000D02*
X147190001Y-97370000D01*
X147190001Y-97370000D02*
X145590001Y-95770000D01*
X143190001Y-95770000D02*
X142790001Y-95370000D01*
%TO.N,/RST2*%
X147630001Y-94370000D02*
X147630001Y-94376266D01*
X147630001Y-94376266D02*
X147630001Y-97244314D01*
X146527702Y-91194101D02*
X147630001Y-92296400D01*
X168010001Y-101530000D02*
X170790001Y-98750000D01*
X153588910Y-101537157D02*
X153596067Y-101530000D01*
X146520401Y-91186800D02*
X146527701Y-91194100D01*
X170790001Y-98750000D02*
X170790001Y-98326266D01*
X170790001Y-98326266D02*
X170790001Y-98310000D01*
X146527702Y-91194100D02*
X146527702Y-91194101D01*
X151922844Y-101537157D02*
X153588910Y-101537157D01*
X146527701Y-91194100D02*
X146527702Y-91194100D01*
X147630001Y-92296400D02*
X147630001Y-94370000D01*
X153596067Y-101530000D02*
X168010001Y-101530000D01*
X147630001Y-97244314D02*
X151922844Y-101537157D01*
%TO.N,/MOSI*%
X153450001Y-97970000D02*
X153450001Y-77440000D01*
X153450001Y-77440000D02*
X152590001Y-76580000D01*
X153560001Y-98080000D02*
X153450001Y-97970000D01*
%TO.N,/SCK*%
X157645902Y-96395901D02*
X157645901Y-96395901D01*
X158100001Y-96850000D02*
X157645902Y-96395901D01*
X158100001Y-96990000D02*
X158100001Y-96850000D01*
X157565001Y-99035000D02*
X157920001Y-98680000D01*
X152765536Y-99035000D02*
X157565001Y-99035000D01*
X152650001Y-98960000D02*
X152725001Y-99035000D01*
X157645901Y-96395900D02*
X157640001Y-96390000D01*
X158100001Y-98500000D02*
X158100001Y-96990000D01*
X157645901Y-96395901D02*
X157645901Y-96395900D01*
X152650001Y-78500000D02*
X152650001Y-98820000D01*
X152725001Y-99035000D02*
X152765536Y-99035000D01*
X151710001Y-77560000D02*
X152650001Y-78500000D01*
X152650001Y-98820000D02*
X152650001Y-98960000D01*
X157920001Y-98680000D02*
X158100001Y-98500000D01*
%TO.N,/MISO*%
X153135902Y-98545901D02*
X153145001Y-98555000D01*
X153125001Y-98535000D02*
X153050001Y-98460000D01*
X153135901Y-98545900D02*
X153135902Y-98545900D01*
X153050001Y-78010000D02*
X152150001Y-77110000D01*
X153050001Y-98460000D02*
X153050001Y-78010000D01*
X153145001Y-98555000D02*
X157395001Y-98555000D01*
X153135902Y-98545900D02*
X153135902Y-98545901D01*
X157395001Y-98555000D02*
X157550001Y-98400000D01*
X157550001Y-98400000D02*
X157550001Y-98150000D01*
X153125001Y-98535000D02*
X153135901Y-98545900D01*
%TO.N,/INT2*%
X148082135Y-95322865D02*
X148082136Y-95322865D01*
X170315001Y-98659314D02*
X167844315Y-101130000D01*
X148060001Y-95860000D02*
X148060001Y-95345000D01*
X152081373Y-101130000D02*
X150671373Y-99720000D01*
X148082136Y-95322865D02*
X148105001Y-95300000D01*
X148060001Y-95345000D02*
X148082135Y-95322866D01*
X167844315Y-101130000D02*
X159380001Y-101130000D01*
X170750001Y-96110000D02*
X170315001Y-96545000D01*
X148082135Y-95322866D02*
X148082135Y-95322865D01*
X170315001Y-98440000D02*
X170315001Y-98659314D01*
X170315001Y-96545000D02*
X170315001Y-98440000D01*
X159380001Y-101130000D02*
X152081373Y-101130000D01*
X148060001Y-97108628D02*
X148060001Y-95860000D01*
X150671373Y-99720000D02*
X148060001Y-97108628D01*
D26*
%TO.N,/VccR*%
X137070001Y-57790000D02*
X137460001Y-58180000D01*
X131160001Y-56560000D02*
X132390001Y-57790000D01*
X132390001Y-57790000D02*
X137070001Y-57790000D01*
X137460001Y-58180000D02*
X137460001Y-60640000D01*
%TO.N,/VccT*%
X137510001Y-62120000D02*
X137510001Y-65958000D01*
X134908001Y-68560000D02*
X131650001Y-68560000D01*
X137510001Y-65958000D02*
X134908001Y-68560000D01*
D24*
%TO.N,/CS3*%
X151850001Y-79360000D02*
X150600001Y-78110000D01*
X154100001Y-73940000D02*
X156210001Y-73940000D01*
X151090001Y-92760000D02*
X151850001Y-92000000D01*
X150600001Y-77440000D02*
X154100001Y-73940000D01*
X149330001Y-92760000D02*
X149365536Y-92760000D01*
X151850001Y-92000000D02*
X151850001Y-79360000D01*
X149365536Y-92760000D02*
X151090001Y-92760000D01*
X150600001Y-78110000D02*
X150600001Y-77440000D01*
%TO.N,Net-(J4-Pin_2)*%
X146380001Y-69454314D02*
X146380001Y-60560000D01*
X169850001Y-71254314D02*
X169185687Y-70590000D01*
X169185687Y-70590000D02*
X147515687Y-70590000D01*
X170285001Y-75235000D02*
X169850001Y-74800000D01*
X169850001Y-74800000D02*
X169850001Y-71254314D01*
X171990001Y-75235000D02*
X170285001Y-75235000D01*
X147515687Y-70590000D02*
X146380001Y-69454314D01*
X146380001Y-60560000D02*
X145650001Y-59830000D01*
%TD*%
%TA.AperFunction,Conductor*%
%TO.N,GND*%
G36*
X139645704Y-94488219D02*
G01*
X139669495Y-94515961D01*
X139684725Y-94540201D01*
X139684728Y-94540204D01*
X139800332Y-94655808D01*
X139938761Y-94742789D01*
X140093075Y-94796786D01*
X140093078Y-94796786D01*
X140093080Y-94796787D01*
X140255532Y-94815091D01*
X140255536Y-94815091D01*
X140255540Y-94815091D01*
X140417991Y-94796787D01*
X140417992Y-94796786D01*
X140417997Y-94796786D01*
X140572311Y-94742789D01*
X140633238Y-94704505D01*
X140699210Y-94685500D01*
X141988146Y-94685500D01*
X142055185Y-94705185D01*
X142100940Y-94757989D01*
X142110884Y-94827147D01*
X142105188Y-94850454D01*
X142078213Y-94927544D01*
X142059910Y-95089996D01*
X142059910Y-95090003D01*
X142078213Y-95252455D01*
X142132211Y-95406774D01*
X142202397Y-95518474D01*
X142217177Y-95552351D01*
X142230421Y-95601779D01*
X142230423Y-95601782D01*
X142230424Y-95601785D01*
X142252280Y-95639640D01*
X142307792Y-95735791D01*
X142309480Y-95738714D01*
X142309482Y-95738717D01*
X142428350Y-95857585D01*
X142428356Y-95857590D01*
X142705140Y-96134374D01*
X142705150Y-96134385D01*
X142709480Y-96138715D01*
X142709481Y-96138716D01*
X142821285Y-96250520D01*
X142821287Y-96250521D01*
X142821291Y-96250524D01*
X142913223Y-96303600D01*
X142958217Y-96329577D01*
X143070020Y-96359534D01*
X143110943Y-96370500D01*
X143110944Y-96370500D01*
X145289904Y-96370500D01*
X145356943Y-96390185D01*
X145377585Y-96406819D01*
X146788584Y-97817819D01*
X146822069Y-97879142D01*
X146817085Y-97948834D01*
X146775213Y-98004767D01*
X146709749Y-98029184D01*
X146700903Y-98029500D01*
X139280849Y-98029500D01*
X139213810Y-98009815D01*
X139168055Y-97957011D01*
X139158111Y-97887853D01*
X139187136Y-97824297D01*
X139193168Y-97817819D01*
X139696201Y-97314786D01*
X140262859Y-96748127D01*
X140284565Y-96730818D01*
X140407337Y-96653676D01*
X140407337Y-96653675D01*
X140407340Y-96653674D01*
X140522944Y-96538070D01*
X140609925Y-96399641D01*
X140663922Y-96245327D01*
X140665261Y-96233445D01*
X140682227Y-96082869D01*
X140682227Y-96082862D01*
X140663923Y-95920410D01*
X140663922Y-95920408D01*
X140663922Y-95920405D01*
X140609925Y-95766091D01*
X140522944Y-95627662D01*
X140407340Y-95512058D01*
X140364798Y-95485327D01*
X140268910Y-95425076D01*
X140114591Y-95371078D01*
X139952140Y-95352775D01*
X139952132Y-95352775D01*
X139789680Y-95371078D01*
X139635360Y-95425076D01*
X139630473Y-95428148D01*
X139563236Y-95447148D01*
X139496401Y-95426780D01*
X139451187Y-95373512D01*
X139440501Y-95323154D01*
X139440501Y-94581932D01*
X139460186Y-94514893D01*
X139512990Y-94469138D01*
X139582148Y-94459194D01*
X139645704Y-94488219D01*
G37*
%TD.AperFunction*%
%TA.AperFunction,Conductor*%
G36*
X148958125Y-69084570D02*
G01*
X148989427Y-69039869D01*
X149044004Y-68996245D01*
X149113503Y-68989053D01*
X149175857Y-69020576D01*
X149211270Y-69080806D01*
X149215001Y-69110994D01*
X149215001Y-69442834D01*
X149216013Y-69452240D01*
X149203610Y-69521000D01*
X149156002Y-69572139D01*
X149092724Y-69589500D01*
X148726651Y-69589500D01*
X148659612Y-69569815D01*
X148613857Y-69517011D01*
X148603123Y-69454694D01*
X148604572Y-69438125D01*
X148023997Y-68857550D01*
X148098344Y-68837630D01*
X148206658Y-68775095D01*
X148295096Y-68686657D01*
X148357631Y-68578343D01*
X148377551Y-68503997D01*
X148958125Y-69084570D01*
G37*
%TD.AperFunction*%
%TA.AperFunction,Conductor*%
G36*
X174831060Y-50616715D02*
G01*
X174898094Y-50636412D01*
X174943840Y-50689224D01*
X174955036Y-50740715D01*
X174955036Y-113271765D01*
X174954918Y-113277172D01*
X174936824Y-113691726D01*
X174935881Y-113702503D01*
X174882079Y-114111209D01*
X174880201Y-114121862D01*
X174790980Y-114524336D01*
X174788180Y-114534785D01*
X174664224Y-114927941D01*
X174660524Y-114938107D01*
X174502773Y-115318961D01*
X174498202Y-115328765D01*
X174307848Y-115694435D01*
X174302439Y-115703803D01*
X174080950Y-116051478D01*
X174074751Y-116060331D01*
X173974297Y-116191247D01*
X173823792Y-116387388D01*
X173816839Y-116395674D01*
X173538327Y-116699619D01*
X173530683Y-116707262D01*
X173410723Y-116817186D01*
X173226752Y-116985764D01*
X173218465Y-116992717D01*
X172891414Y-117243670D01*
X172882553Y-117249875D01*
X172534870Y-117471372D01*
X172525501Y-117476781D01*
X172159836Y-117667131D01*
X172150032Y-117671702D01*
X171769178Y-117829454D01*
X171759012Y-117833154D01*
X171365856Y-117957110D01*
X171355407Y-117959910D01*
X170952933Y-118049131D01*
X170942280Y-118051009D01*
X170533574Y-118104811D01*
X170522797Y-118105754D01*
X170108243Y-118123848D01*
X170102836Y-118123966D01*
X120108239Y-118123966D01*
X120102831Y-118123848D01*
X119688277Y-118105751D01*
X119677501Y-118104808D01*
X119464280Y-118076738D01*
X119268796Y-118051003D01*
X119258143Y-118049125D01*
X118855670Y-117959901D01*
X118845221Y-117957101D01*
X118681906Y-117905609D01*
X118452061Y-117833140D01*
X118441898Y-117829441D01*
X118061079Y-117671702D01*
X118061047Y-117671688D01*
X118051244Y-117667118D01*
X117685580Y-117476767D01*
X117676211Y-117471358D01*
X117328529Y-117249861D01*
X117319668Y-117243656D01*
X116992626Y-116992708D01*
X116984339Y-116985755D01*
X116939949Y-116945079D01*
X116680389Y-116707237D01*
X116672763Y-116699611D01*
X116394241Y-116395657D01*
X116387297Y-116387381D01*
X116136344Y-116060332D01*
X116130139Y-116051471D01*
X115908639Y-115703784D01*
X115903231Y-115694416D01*
X115893418Y-115675565D01*
X115712882Y-115328756D01*
X115708314Y-115318961D01*
X115550549Y-114938080D01*
X115546863Y-114927952D01*
X115422893Y-114534762D01*
X115420100Y-114524336D01*
X115330871Y-114121840D01*
X115328997Y-114111209D01*
X115275189Y-113702478D01*
X115274249Y-113691744D01*
X115256154Y-113277215D01*
X115256036Y-113271807D01*
X115256036Y-113229999D01*
X116444923Y-113229999D01*
X116444923Y-113230000D01*
X116465220Y-113617287D01*
X116525887Y-114000323D01*
X116525888Y-114000330D01*
X116626263Y-114374936D01*
X116765245Y-114736994D01*
X116941311Y-115082543D01*
X117152532Y-115407793D01*
X117361096Y-115665350D01*
X117361097Y-115665350D01*
X118855749Y-114170698D01*
X118929589Y-114272330D01*
X119107671Y-114450412D01*
X119209301Y-114524251D01*
X117714649Y-116018903D01*
X117714650Y-116018904D01*
X117972207Y-116227468D01*
X118297457Y-116438689D01*
X118643006Y-116614755D01*
X119005064Y-116753737D01*
X119379670Y-116854112D01*
X119379677Y-116854113D01*
X119762713Y-116914780D01*
X120150000Y-116935078D01*
X120150002Y-116935078D01*
X120537288Y-116914780D01*
X120920324Y-116854113D01*
X120920331Y-116854112D01*
X121294937Y-116753737D01*
X121656995Y-116614755D01*
X122002544Y-116438689D01*
X122327784Y-116227476D01*
X122327786Y-116227475D01*
X122585350Y-116018902D01*
X121090699Y-114524251D01*
X121192331Y-114450412D01*
X121370413Y-114272330D01*
X121444252Y-114170698D01*
X122938903Y-115665349D01*
X123147476Y-115407785D01*
X123147477Y-115407783D01*
X123358690Y-115082543D01*
X123534756Y-114736994D01*
X123673738Y-114374936D01*
X123774113Y-114000330D01*
X123774114Y-114000323D01*
X123834781Y-113617287D01*
X123855079Y-113230000D01*
X123855079Y-113229999D01*
X123834781Y-112842712D01*
X123774114Y-112459676D01*
X123774113Y-112459669D01*
X123673738Y-112085063D01*
X123534756Y-111723005D01*
X123488455Y-111632135D01*
X126189501Y-111632135D01*
X126189501Y-114227870D01*
X126189502Y-114227876D01*
X126195909Y-114287483D01*
X126246203Y-114422328D01*
X126246207Y-114422335D01*
X126332453Y-114537544D01*
X126332456Y-114537547D01*
X126447665Y-114623793D01*
X126447672Y-114623797D01*
X126582518Y-114674091D01*
X126582517Y-114674091D01*
X126589445Y-114674835D01*
X126642128Y-114680500D01*
X129237873Y-114680499D01*
X129297484Y-114674091D01*
X129432332Y-114623796D01*
X129547547Y-114537546D01*
X129633797Y-114422331D01*
X129684092Y-114287483D01*
X129690501Y-114227873D01*
X129690500Y-112929995D01*
X131185094Y-112929995D01*
X131185094Y-112930004D01*
X131204693Y-113191545D01*
X131204694Y-113191550D01*
X131263059Y-113447270D01*
X131358884Y-113691426D01*
X131358883Y-113691426D01*
X131490028Y-113918573D01*
X131537875Y-113978571D01*
X132338959Y-113177488D01*
X132363979Y-113237890D01*
X132435113Y-113344351D01*
X132525650Y-113434888D01*
X132632111Y-113506022D01*
X132692511Y-113531041D01*
X131890831Y-114332720D01*
X132062547Y-114449793D01*
X132062551Y-114449795D01*
X132298855Y-114563594D01*
X132298859Y-114563595D01*
X132549495Y-114640907D01*
X132549501Y-114640909D01*
X132808849Y-114679999D01*
X132808858Y-114680000D01*
X133071144Y-114680000D01*
X133071152Y-114679999D01*
X133330500Y-114640909D01*
X133330506Y-114640907D01*
X133581144Y-114563595D01*
X133817446Y-114449798D01*
X133817448Y-114449797D01*
X133989169Y-114332720D01*
X133187489Y-113531041D01*
X133247891Y-113506022D01*
X133354352Y-113434888D01*
X133444889Y-113344351D01*
X133516023Y-113237890D01*
X133541042Y-113177488D01*
X134342126Y-113978572D01*
X134389972Y-113918573D01*
X134521117Y-113691426D01*
X134616942Y-113447270D01*
X134675307Y-113191550D01*
X134675308Y-113191545D01*
X134694908Y-112930004D01*
X134694908Y-112929995D01*
X134675308Y-112668454D01*
X134675307Y-112668449D01*
X134616942Y-112412729D01*
X134521117Y-112168573D01*
X134521118Y-112168573D01*
X134389973Y-111941426D01*
X134342125Y-111881427D01*
X133541042Y-112682510D01*
X133516023Y-112622110D01*
X133444889Y-112515649D01*
X133354352Y-112425112D01*
X133247891Y-112353978D01*
X133187489Y-112328958D01*
X133989169Y-111527278D01*
X133817455Y-111410206D01*
X133817446Y-111410201D01*
X133581143Y-111296404D01*
X133581145Y-111296404D01*
X133330506Y-111219092D01*
X133330500Y-111219090D01*
X133071152Y-111180000D01*
X132808849Y-111180000D01*
X132549501Y-111219090D01*
X132549495Y-111219092D01*
X132298859Y-111296404D01*
X132298855Y-111296405D01*
X132062548Y-111410205D01*
X132062540Y-111410210D01*
X131890831Y-111527277D01*
X132692512Y-112328958D01*
X132632111Y-112353978D01*
X132525650Y-112425112D01*
X132435113Y-112515649D01*
X132363979Y-112622110D01*
X132338959Y-112682510D01*
X131537875Y-111881427D01*
X131490029Y-111941425D01*
X131358884Y-112168573D01*
X131263059Y-112412729D01*
X131204694Y-112668449D01*
X131204693Y-112668454D01*
X131185094Y-112929995D01*
X129690500Y-112929995D01*
X129690500Y-111632128D01*
X129685063Y-111581550D01*
X129684092Y-111572516D01*
X129633798Y-111437671D01*
X129633794Y-111437664D01*
X129547548Y-111322455D01*
X129547545Y-111322452D01*
X129432336Y-111236206D01*
X129432329Y-111236202D01*
X129297483Y-111185908D01*
X129297484Y-111185908D01*
X129237884Y-111179501D01*
X129237882Y-111179500D01*
X129237874Y-111179500D01*
X129237865Y-111179500D01*
X126642130Y-111179500D01*
X126642124Y-111179501D01*
X126582517Y-111185908D01*
X126447672Y-111236202D01*
X126447665Y-111236206D01*
X126332456Y-111322452D01*
X126332453Y-111322455D01*
X126246207Y-111437664D01*
X126246203Y-111437671D01*
X126195909Y-111572517D01*
X126189502Y-111632116D01*
X126189502Y-111632123D01*
X126189501Y-111632135D01*
X123488455Y-111632135D01*
X123358690Y-111377456D01*
X123147469Y-111052206D01*
X122938905Y-110794649D01*
X122938904Y-110794648D01*
X121444252Y-112289300D01*
X121370413Y-112187670D01*
X121192331Y-112009588D01*
X121090699Y-111935748D01*
X122585351Y-110441096D01*
X122585351Y-110441095D01*
X122327794Y-110232531D01*
X122002544Y-110021310D01*
X121656995Y-109845244D01*
X121294937Y-109706262D01*
X120920331Y-109605887D01*
X120920324Y-109605886D01*
X120537288Y-109545219D01*
X120150002Y-109524922D01*
X120150000Y-109524922D01*
X119762713Y-109545219D01*
X119379677Y-109605886D01*
X119379670Y-109605887D01*
X119005064Y-109706262D01*
X118643006Y-109845244D01*
X118297457Y-110021310D01*
X117972207Y-110232531D01*
X117714649Y-110441095D01*
X117714649Y-110441096D01*
X119209302Y-111935748D01*
X119107671Y-112009588D01*
X118929589Y-112187670D01*
X118855749Y-112289300D01*
X117361097Y-110794648D01*
X117361096Y-110794648D01*
X117152532Y-111052206D01*
X116941311Y-111377456D01*
X116765245Y-111723005D01*
X116626263Y-112085063D01*
X116525888Y-112459669D01*
X116525887Y-112459676D01*
X116465220Y-112842712D01*
X116444923Y-113229999D01*
X115256036Y-113229999D01*
X115256036Y-108712796D01*
X136266036Y-108712796D01*
X136266036Y-108712803D01*
X136286231Y-108892049D01*
X136286234Y-108892062D01*
X136342495Y-109052845D01*
X136346057Y-109122624D01*
X136342495Y-109134755D01*
X136286234Y-109295537D01*
X136286231Y-109295550D01*
X136266036Y-109474796D01*
X136266036Y-109474803D01*
X136286231Y-109654049D01*
X136286234Y-109654062D01*
X136342495Y-109814845D01*
X136346057Y-109884624D01*
X136342495Y-109896755D01*
X136286234Y-110057537D01*
X136286231Y-110057550D01*
X136266036Y-110236796D01*
X136266036Y-110236803D01*
X136286231Y-110416049D01*
X136286234Y-110416062D01*
X136342495Y-110576845D01*
X136346057Y-110646624D01*
X136342495Y-110658755D01*
X136286234Y-110819537D01*
X136286231Y-110819550D01*
X136266036Y-110998796D01*
X136266036Y-110998803D01*
X136286231Y-111178049D01*
X136286234Y-111178062D01*
X136342495Y-111338845D01*
X136346057Y-111408624D01*
X136342495Y-111420755D01*
X136286234Y-111581537D01*
X136286231Y-111581550D01*
X136266036Y-111760796D01*
X136266036Y-111760803D01*
X136286231Y-111940049D01*
X136286234Y-111940062D01*
X136342495Y-112100845D01*
X136346057Y-112170624D01*
X136342495Y-112182755D01*
X136286234Y-112343537D01*
X136286231Y-112343550D01*
X136266036Y-112522796D01*
X136266036Y-112522803D01*
X136286231Y-112702049D01*
X136286234Y-112702062D01*
X136342495Y-112862845D01*
X136346057Y-112932624D01*
X136342495Y-112944755D01*
X136286234Y-113105537D01*
X136286231Y-113105550D01*
X136266036Y-113284796D01*
X136266036Y-113284803D01*
X136286231Y-113464049D01*
X136286234Y-113464062D01*
X136342495Y-113624845D01*
X136346057Y-113694624D01*
X136342495Y-113706755D01*
X136286234Y-113867537D01*
X136286231Y-113867550D01*
X136266036Y-114046796D01*
X136266036Y-114046803D01*
X136286231Y-114226049D01*
X136286234Y-114226062D01*
X136342495Y-114386845D01*
X136346057Y-114456624D01*
X136342495Y-114468755D01*
X136286234Y-114629537D01*
X136286231Y-114629550D01*
X136266036Y-114808796D01*
X136266036Y-114808803D01*
X136286231Y-114988049D01*
X136286232Y-114988054D01*
X136345812Y-115158323D01*
X136384267Y-115219523D01*
X136441785Y-115311062D01*
X136569339Y-115438616D01*
X136722079Y-115534589D01*
X136733245Y-115538496D01*
X136892346Y-115594168D01*
X136892351Y-115594169D01*
X137071597Y-115614365D01*
X137071601Y-115614365D01*
X137071605Y-115614365D01*
X137250850Y-115594169D01*
X137250853Y-115594168D01*
X137250856Y-115594168D01*
X137421123Y-115534589D01*
X137573863Y-115438616D01*
X137701417Y-115311062D01*
X137797390Y-115158322D01*
X137856969Y-114988055D01*
X137862597Y-114938107D01*
X137877166Y-114808803D01*
X137877166Y-114808796D01*
X137856970Y-114629550D01*
X137856967Y-114629537D01*
X137800707Y-114468755D01*
X137797145Y-114398976D01*
X137800707Y-114386845D01*
X137856967Y-114226062D01*
X137856970Y-114226049D01*
X137877166Y-114046803D01*
X137877166Y-114046796D01*
X137856970Y-113867550D01*
X137856967Y-113867537D01*
X137800707Y-113706755D01*
X137797145Y-113636976D01*
X137800707Y-113624845D01*
X137856967Y-113464062D01*
X137856970Y-113464049D01*
X137877166Y-113284803D01*
X137877166Y-113284796D01*
X137856970Y-113105550D01*
X137856967Y-113105537D01*
X137800707Y-112944755D01*
X137797145Y-112874976D01*
X137800707Y-112862845D01*
X137856967Y-112702062D01*
X137856970Y-112702049D01*
X137877166Y-112522803D01*
X137877166Y-112522796D01*
X137856970Y-112343550D01*
X137856967Y-112343537D01*
X137800707Y-112182755D01*
X137797145Y-112112976D01*
X137800707Y-112100845D01*
X137856967Y-111940062D01*
X137856970Y-111940049D01*
X137877166Y-111760803D01*
X137877166Y-111760796D01*
X137856970Y-111581550D01*
X137856967Y-111581537D01*
X137800707Y-111420755D01*
X137797145Y-111350976D01*
X137800707Y-111338845D01*
X137856967Y-111178062D01*
X137856970Y-111178049D01*
X137877166Y-110998803D01*
X137877166Y-110998796D01*
X137856970Y-110819550D01*
X137856967Y-110819537D01*
X137800707Y-110658755D01*
X137797145Y-110588976D01*
X137800707Y-110576845D01*
X137856967Y-110416062D01*
X137856970Y-110416049D01*
X137877166Y-110236803D01*
X137877166Y-110236796D01*
X137856970Y-110057550D01*
X137856967Y-110057537D01*
X137800707Y-109896755D01*
X137797145Y-109826976D01*
X137800707Y-109814845D01*
X137856967Y-109654062D01*
X137856970Y-109654049D01*
X137877166Y-109474803D01*
X137877166Y-109474796D01*
X137856970Y-109295550D01*
X137856967Y-109295537D01*
X137800707Y-109134755D01*
X137797145Y-109064976D01*
X137800707Y-109052845D01*
X137856967Y-108892062D01*
X137856970Y-108892049D01*
X137871443Y-108763596D01*
X144698836Y-108763596D01*
X144698836Y-108763603D01*
X144719031Y-108942849D01*
X144719034Y-108942862D01*
X144775295Y-109103645D01*
X144778857Y-109173424D01*
X144775295Y-109185555D01*
X144719034Y-109346337D01*
X144719031Y-109346350D01*
X144698836Y-109525596D01*
X144698836Y-109525603D01*
X144719031Y-109704849D01*
X144719034Y-109704862D01*
X144775295Y-109865645D01*
X144778857Y-109935424D01*
X144775295Y-109947555D01*
X144719034Y-110108337D01*
X144719031Y-110108350D01*
X144698836Y-110287596D01*
X144698836Y-110287603D01*
X144719031Y-110466849D01*
X144719034Y-110466862D01*
X144775295Y-110627645D01*
X144778857Y-110697424D01*
X144775295Y-110709555D01*
X144719034Y-110870337D01*
X144719031Y-110870350D01*
X144698836Y-111049596D01*
X144698836Y-111049603D01*
X144719031Y-111228849D01*
X144719032Y-111228854D01*
X144778515Y-111398845D01*
X144782076Y-111468624D01*
X144778515Y-111480755D01*
X144719032Y-111650745D01*
X144719031Y-111650750D01*
X144698836Y-111829996D01*
X144698836Y-111830003D01*
X144719031Y-112009249D01*
X144719034Y-112009262D01*
X144780911Y-112186094D01*
X144778003Y-112187111D01*
X144786955Y-112242815D01*
X144779604Y-112267848D01*
X144780911Y-112268306D01*
X144719034Y-112445137D01*
X144719031Y-112445150D01*
X144698836Y-112624396D01*
X144698836Y-112624403D01*
X144719031Y-112803649D01*
X144719034Y-112803662D01*
X144775295Y-112964445D01*
X144778857Y-113034224D01*
X144775295Y-113046355D01*
X144719034Y-113207137D01*
X144719031Y-113207150D01*
X144698836Y-113386396D01*
X144698836Y-113386403D01*
X144719031Y-113565649D01*
X144719034Y-113565662D01*
X144775295Y-113726445D01*
X144778857Y-113796224D01*
X144775295Y-113808355D01*
X144719034Y-113969137D01*
X144719031Y-113969150D01*
X144698836Y-114148396D01*
X144698836Y-114148403D01*
X144719031Y-114327649D01*
X144719033Y-114327657D01*
X144771027Y-114476248D01*
X144774588Y-114546027D01*
X144771027Y-114558156D01*
X144724633Y-114690742D01*
X144724631Y-114690750D01*
X144704436Y-114869996D01*
X144704436Y-114870003D01*
X144724631Y-115049249D01*
X144724632Y-115049254D01*
X144784212Y-115219523D01*
X144812283Y-115264197D01*
X144880185Y-115372262D01*
X145007739Y-115499816D01*
X145060540Y-115532993D01*
X145157900Y-115594169D01*
X145160479Y-115595789D01*
X145306852Y-115647007D01*
X145330746Y-115655368D01*
X145330751Y-115655369D01*
X145509997Y-115675565D01*
X145510001Y-115675565D01*
X145510005Y-115675565D01*
X145689250Y-115655369D01*
X145689253Y-115655368D01*
X145689256Y-115655368D01*
X145859523Y-115595789D01*
X145868736Y-115590000D01*
X156810899Y-115590000D01*
X157856989Y-115590000D01*
X157824076Y-115647007D01*
X157790001Y-115774174D01*
X157790001Y-115905826D01*
X157824076Y-116032993D01*
X157856989Y-116090000D01*
X156810899Y-116090000D01*
X156826935Y-116191247D01*
X156899898Y-116415802D01*
X157007086Y-116626171D01*
X157145867Y-116817186D01*
X157312814Y-116984133D01*
X157503829Y-117122914D01*
X157714198Y-117230102D01*
X157938753Y-117303065D01*
X157938752Y-117303065D01*
X158171949Y-117340000D01*
X159140001Y-117340000D01*
X159140001Y-116340000D01*
X159640001Y-116340000D01*
X159640001Y-117340000D01*
X160608053Y-117340000D01*
X160841248Y-117303065D01*
X161065803Y-117230102D01*
X161276172Y-117122914D01*
X161467187Y-116984133D01*
X161634134Y-116817186D01*
X161772915Y-116626171D01*
X161880103Y-116415802D01*
X161953066Y-116191247D01*
X161969103Y-116090000D01*
X160923013Y-116090000D01*
X160955926Y-116032993D01*
X160990001Y-115905826D01*
X160990001Y-115774174D01*
X160955926Y-115647007D01*
X160923013Y-115590000D01*
X161969103Y-115590000D01*
X161953066Y-115488752D01*
X161880103Y-115264197D01*
X161772915Y-115053828D01*
X161634134Y-114862813D01*
X161467187Y-114695866D01*
X161276172Y-114557085D01*
X161065803Y-114449897D01*
X160841248Y-114376934D01*
X160841249Y-114376934D01*
X160608053Y-114340000D01*
X159640001Y-114340000D01*
X159640001Y-115340000D01*
X159140001Y-115340000D01*
X159140001Y-114340000D01*
X158171949Y-114340000D01*
X157938753Y-114376934D01*
X157714198Y-114449897D01*
X157503829Y-114557085D01*
X157312814Y-114695866D01*
X157145867Y-114862813D01*
X157007086Y-115053828D01*
X156899898Y-115264197D01*
X156826935Y-115488752D01*
X156810899Y-115590000D01*
X145868736Y-115590000D01*
X146012263Y-115499816D01*
X146139817Y-115372262D01*
X146235790Y-115219522D01*
X146295369Y-115049255D01*
X146298767Y-115019100D01*
X146315566Y-114870003D01*
X146315566Y-114869996D01*
X146295370Y-114690750D01*
X146295369Y-114690745D01*
X146243374Y-114542152D01*
X146239813Y-114472373D01*
X146243375Y-114460242D01*
X146289767Y-114327662D01*
X146289770Y-114327649D01*
X146309966Y-114148403D01*
X146309966Y-114148396D01*
X146289770Y-113969150D01*
X146289767Y-113969137D01*
X146233507Y-113808355D01*
X146229945Y-113738576D01*
X146233507Y-113726445D01*
X146289767Y-113565662D01*
X146289770Y-113565649D01*
X146294483Y-113523820D01*
X146321549Y-113459405D01*
X146379143Y-113419850D01*
X146403821Y-113414482D01*
X146445650Y-113409769D01*
X146445653Y-113409768D01*
X146445656Y-113409768D01*
X146615923Y-113350189D01*
X146657978Y-113323763D01*
X146725212Y-113304762D01*
X146764905Y-113311715D01*
X146899938Y-113358966D01*
X146899944Y-113358967D01*
X146899946Y-113358968D01*
X146899947Y-113358968D01*
X146899951Y-113358969D01*
X147079197Y-113379165D01*
X147079201Y-113379165D01*
X147079205Y-113379165D01*
X147258450Y-113358969D01*
X147258452Y-113358968D01*
X147258456Y-113358968D01*
X147258459Y-113358966D01*
X147258463Y-113358966D01*
X147419246Y-113302706D01*
X147489025Y-113299144D01*
X147501156Y-113302706D01*
X147661938Y-113358966D01*
X147661944Y-113358967D01*
X147661946Y-113358968D01*
X147661947Y-113358968D01*
X147661951Y-113358969D01*
X147841197Y-113379165D01*
X147841201Y-113379165D01*
X147841205Y-113379165D01*
X148020450Y-113358969D01*
X148020452Y-113358968D01*
X148020456Y-113358968D01*
X148020459Y-113358966D01*
X148020463Y-113358966D01*
X148181246Y-113302706D01*
X148251025Y-113299144D01*
X148263156Y-113302706D01*
X148423938Y-113358966D01*
X148423944Y-113358967D01*
X148423946Y-113358968D01*
X148423947Y-113358968D01*
X148423951Y-113358969D01*
X148603197Y-113379165D01*
X148603201Y-113379165D01*
X148603205Y-113379165D01*
X148782450Y-113358969D01*
X148782453Y-113358968D01*
X148782456Y-113358968D01*
X148952723Y-113299389D01*
X149105463Y-113203416D01*
X149233017Y-113075862D01*
X149328990Y-112923122D01*
X149388569Y-112752855D01*
X149394293Y-112702055D01*
X149408766Y-112573603D01*
X149408766Y-112573596D01*
X149388570Y-112394350D01*
X149388568Y-112394340D01*
X149348558Y-112280000D01*
X149335524Y-112242753D01*
X149331962Y-112172977D01*
X149335521Y-112160856D01*
X149384953Y-112019589D01*
X149388568Y-112009259D01*
X149388570Y-112009249D01*
X149408766Y-111830003D01*
X149408766Y-111829996D01*
X149388570Y-111650750D01*
X149388567Y-111650737D01*
X149329087Y-111480755D01*
X149325525Y-111410976D01*
X149329087Y-111398845D01*
X149388567Y-111228862D01*
X149388570Y-111228849D01*
X149389348Y-111221947D01*
X162690001Y-111221947D01*
X162690001Y-112190000D01*
X163690001Y-112190000D01*
X163690001Y-112690000D01*
X162690001Y-112690000D01*
X162690001Y-113658052D01*
X162726935Y-113891247D01*
X162799898Y-114115802D01*
X162907086Y-114326171D01*
X163045867Y-114517186D01*
X163212814Y-114684133D01*
X163403829Y-114822914D01*
X163614196Y-114930102D01*
X163838745Y-115003063D01*
X163838751Y-115003065D01*
X163940001Y-115019101D01*
X163940001Y-113973012D01*
X163997008Y-114005925D01*
X164124175Y-114040000D01*
X164255827Y-114040000D01*
X164382994Y-114005925D01*
X164440001Y-113973012D01*
X164440001Y-115019100D01*
X164541250Y-115003065D01*
X164541256Y-115003063D01*
X164765805Y-114930102D01*
X164976172Y-114822914D01*
X165167187Y-114684133D01*
X165334134Y-114517186D01*
X165472915Y-114326171D01*
X165580103Y-114115802D01*
X165653066Y-113891247D01*
X165690001Y-113658052D01*
X165690001Y-113240000D01*
X166614924Y-113240000D01*
X166614924Y-113240001D01*
X166635221Y-113627288D01*
X166695888Y-114010324D01*
X166695889Y-114010331D01*
X166796264Y-114384937D01*
X166935246Y-114746995D01*
X167111312Y-115092544D01*
X167322533Y-115417794D01*
X167531097Y-115675351D01*
X167531098Y-115675351D01*
X169025750Y-114180699D01*
X169099590Y-114282331D01*
X169277672Y-114460413D01*
X169379302Y-114534252D01*
X167884650Y-116028904D01*
X167884651Y-116028905D01*
X168142208Y-116237469D01*
X168467458Y-116448690D01*
X168813007Y-116624756D01*
X169175065Y-116763738D01*
X169549671Y-116864113D01*
X169549678Y-116864114D01*
X169932714Y-116924781D01*
X170320001Y-116945079D01*
X170320003Y-116945079D01*
X170707289Y-116924781D01*
X171090325Y-116864114D01*
X171090332Y-116864113D01*
X171464938Y-116763738D01*
X171826996Y-116624756D01*
X172172545Y-116448690D01*
X172497785Y-116237477D01*
X172497787Y-116237476D01*
X172755351Y-116028903D01*
X171260700Y-114534252D01*
X171362332Y-114460413D01*
X171540414Y-114282331D01*
X171614253Y-114180699D01*
X173108904Y-115675350D01*
X173317477Y-115417786D01*
X173317478Y-115417784D01*
X173528691Y-115092544D01*
X173704757Y-114746995D01*
X173843739Y-114384937D01*
X173944114Y-114010331D01*
X173944115Y-114010324D01*
X174004782Y-113627288D01*
X174025080Y-113240001D01*
X174025080Y-113240000D01*
X174004782Y-112852713D01*
X173944115Y-112469677D01*
X173944114Y-112469670D01*
X173843739Y-112095064D01*
X173704757Y-111733006D01*
X173528691Y-111387457D01*
X173317470Y-111062207D01*
X173108906Y-110804650D01*
X173108905Y-110804649D01*
X171614253Y-112299301D01*
X171540414Y-112197671D01*
X171362332Y-112019589D01*
X171260700Y-111945749D01*
X172755352Y-110451097D01*
X172755352Y-110451096D01*
X172497795Y-110242532D01*
X172172545Y-110031311D01*
X171826996Y-109855245D01*
X171464938Y-109716263D01*
X171090332Y-109615888D01*
X171090325Y-109615887D01*
X170707289Y-109555220D01*
X170320003Y-109534923D01*
X170320001Y-109534923D01*
X169932714Y-109555220D01*
X169549678Y-109615887D01*
X169549671Y-109615888D01*
X169175065Y-109716263D01*
X168813007Y-109855245D01*
X168467458Y-110031311D01*
X168142208Y-110242532D01*
X167884650Y-110451096D01*
X167884650Y-110451097D01*
X169379303Y-111945749D01*
X169277672Y-112019589D01*
X169099590Y-112197671D01*
X169025750Y-112299301D01*
X167531098Y-110804649D01*
X167531097Y-110804649D01*
X167322533Y-111062207D01*
X167111312Y-111387457D01*
X166935246Y-111733006D01*
X166796264Y-112095064D01*
X166695889Y-112469670D01*
X166695888Y-112469677D01*
X166635221Y-112852713D01*
X166614924Y-113240000D01*
X165690001Y-113240000D01*
X165690001Y-112690000D01*
X164690001Y-112690000D01*
X164690001Y-112190000D01*
X165690001Y-112190000D01*
X165690001Y-111221947D01*
X165653066Y-110988752D01*
X165580103Y-110764197D01*
X165472915Y-110553828D01*
X165334134Y-110362813D01*
X165167187Y-110195866D01*
X164976172Y-110057085D01*
X164765803Y-109949897D01*
X164541248Y-109876934D01*
X164440001Y-109860897D01*
X164440001Y-110906988D01*
X164382994Y-110874075D01*
X164255827Y-110840000D01*
X164124175Y-110840000D01*
X163997008Y-110874075D01*
X163940001Y-110906988D01*
X163940001Y-109860897D01*
X163838753Y-109876934D01*
X163614198Y-109949897D01*
X163403829Y-110057085D01*
X163212814Y-110195866D01*
X163045867Y-110362813D01*
X162907086Y-110553828D01*
X162799898Y-110764197D01*
X162726935Y-110988752D01*
X162690001Y-111221947D01*
X149389348Y-111221947D01*
X149408766Y-111049603D01*
X149408766Y-111049596D01*
X149388570Y-110870350D01*
X149388569Y-110870345D01*
X149370793Y-110819545D01*
X149328990Y-110700078D01*
X149327322Y-110697424D01*
X149233016Y-110547337D01*
X149105463Y-110419784D01*
X148952724Y-110323811D01*
X148782455Y-110264231D01*
X148782450Y-110264230D01*
X148603205Y-110244035D01*
X148603197Y-110244035D01*
X148423951Y-110264230D01*
X148423938Y-110264233D01*
X148263156Y-110320494D01*
X148193377Y-110324056D01*
X148181246Y-110320494D01*
X148020463Y-110264233D01*
X148020450Y-110264230D01*
X147841205Y-110244035D01*
X147841197Y-110244035D01*
X147661951Y-110264230D01*
X147661938Y-110264233D01*
X147501156Y-110320494D01*
X147431377Y-110324056D01*
X147419246Y-110320494D01*
X147258463Y-110264233D01*
X147258450Y-110264230D01*
X147079205Y-110244035D01*
X147079197Y-110244035D01*
X146899951Y-110264230D01*
X146899938Y-110264233D01*
X146729682Y-110323809D01*
X146726601Y-110325293D01*
X146724411Y-110325653D01*
X146723107Y-110326110D01*
X146723027Y-110325881D01*
X146657659Y-110336644D01*
X146619001Y-110325293D01*
X146615924Y-110323811D01*
X146445650Y-110264230D01*
X146403818Y-110259517D01*
X146339405Y-110232450D01*
X146299850Y-110174855D01*
X146294483Y-110150180D01*
X146289770Y-110108349D01*
X146289767Y-110108337D01*
X146233507Y-109947555D01*
X146229945Y-109877776D01*
X146233507Y-109865645D01*
X146289767Y-109704862D01*
X146289770Y-109704849D01*
X146309966Y-109525603D01*
X146309966Y-109525596D01*
X146289770Y-109346350D01*
X146289767Y-109346337D01*
X146233507Y-109185555D01*
X146229945Y-109115776D01*
X146233507Y-109103645D01*
X146289767Y-108942862D01*
X146289770Y-108942849D01*
X146309966Y-108763603D01*
X146309966Y-108763596D01*
X146289770Y-108584350D01*
X146289769Y-108584345D01*
X146257503Y-108492135D01*
X156589501Y-108492135D01*
X156589501Y-110587870D01*
X156589502Y-110587876D01*
X156595909Y-110647483D01*
X156646203Y-110782328D01*
X156646207Y-110782335D01*
X156732453Y-110897544D01*
X156732456Y-110897547D01*
X156847665Y-110983793D01*
X156847672Y-110983797D01*
X156982518Y-111034091D01*
X156982517Y-111034091D01*
X156989445Y-111034835D01*
X157042128Y-111040500D01*
X161737873Y-111040499D01*
X161797484Y-111034091D01*
X161932332Y-110983796D01*
X162047547Y-110897546D01*
X162133797Y-110782331D01*
X162184092Y-110647483D01*
X162190501Y-110587873D01*
X162190500Y-108492128D01*
X162184092Y-108432517D01*
X162133797Y-108297669D01*
X162133796Y-108297668D01*
X162133794Y-108297664D01*
X162047548Y-108182455D01*
X162047545Y-108182452D01*
X161932336Y-108096206D01*
X161932329Y-108096202D01*
X161797483Y-108045908D01*
X161797484Y-108045908D01*
X161737884Y-108039501D01*
X161737882Y-108039500D01*
X161737874Y-108039500D01*
X161737865Y-108039500D01*
X157042130Y-108039500D01*
X157042124Y-108039501D01*
X156982517Y-108045908D01*
X156847672Y-108096202D01*
X156847665Y-108096206D01*
X156732456Y-108182452D01*
X156732453Y-108182455D01*
X156646207Y-108297664D01*
X156646203Y-108297671D01*
X156595909Y-108432517D01*
X156589502Y-108492116D01*
X156589502Y-108492123D01*
X156589501Y-108492135D01*
X146257503Y-108492135D01*
X146257501Y-108492128D01*
X146230190Y-108414078D01*
X146134217Y-108261338D01*
X146006663Y-108133784D01*
X145946852Y-108096202D01*
X145853924Y-108037811D01*
X145683655Y-107978231D01*
X145683650Y-107978230D01*
X145504405Y-107958035D01*
X145504397Y-107958035D01*
X145325151Y-107978230D01*
X145325146Y-107978231D01*
X145154877Y-108037811D01*
X145002138Y-108133784D01*
X144874585Y-108261337D01*
X144778612Y-108414076D01*
X144719032Y-108584345D01*
X144719031Y-108584350D01*
X144698836Y-108763596D01*
X137871443Y-108763596D01*
X137877166Y-108712803D01*
X137877166Y-108712796D01*
X137856970Y-108533550D01*
X137856969Y-108533545D01*
X137842477Y-108492129D01*
X137797390Y-108363278D01*
X137701417Y-108210538D01*
X137573863Y-108082984D01*
X137514857Y-108045908D01*
X137421124Y-107987011D01*
X137250855Y-107927431D01*
X137250850Y-107927430D01*
X137071605Y-107907235D01*
X137071597Y-107907235D01*
X136892351Y-107927430D01*
X136892346Y-107927431D01*
X136722077Y-107987011D01*
X136569338Y-108082984D01*
X136441785Y-108210537D01*
X136345812Y-108363276D01*
X136286232Y-108533545D01*
X136286231Y-108533550D01*
X136266036Y-108712796D01*
X115256036Y-108712796D01*
X115256036Y-102744999D01*
X116949342Y-102744999D01*
X116949342Y-102745000D01*
X116969937Y-102980403D01*
X116969939Y-102980413D01*
X117031095Y-103208655D01*
X117031097Y-103208659D01*
X117031098Y-103208663D01*
X117130966Y-103422830D01*
X117130968Y-103422834D01*
X117239282Y-103577521D01*
X117266502Y-103616396D01*
X117266507Y-103616402D01*
X117388431Y-103738326D01*
X117421916Y-103799649D01*
X117416932Y-103869341D01*
X117375060Y-103925274D01*
X117344084Y-103942189D01*
X117212670Y-103991203D01*
X117212665Y-103991206D01*
X117097456Y-104077452D01*
X117097453Y-104077455D01*
X117011207Y-104192664D01*
X117011203Y-104192671D01*
X116960909Y-104327517D01*
X116954502Y-104387116D01*
X116954502Y-104387123D01*
X116954501Y-104387135D01*
X116954501Y-106182870D01*
X116954502Y-106182876D01*
X116960909Y-106242483D01*
X117011203Y-106377328D01*
X117011207Y-106377335D01*
X117097453Y-106492544D01*
X117097456Y-106492547D01*
X117212665Y-106578793D01*
X117212672Y-106578797D01*
X117347518Y-106629091D01*
X117347517Y-106629091D01*
X117354445Y-106629835D01*
X117407128Y-106635500D01*
X119202873Y-106635499D01*
X119262484Y-106629091D01*
X119397332Y-106578796D01*
X119512547Y-106492546D01*
X119598797Y-106377331D01*
X119649092Y-106242483D01*
X119655501Y-106182873D01*
X119655500Y-105259996D01*
X165129910Y-105259996D01*
X165129910Y-105260003D01*
X165148213Y-105422455D01*
X165202211Y-105576774D01*
X165202212Y-105576775D01*
X165289193Y-105715204D01*
X165404797Y-105830808D01*
X165543226Y-105917789D01*
X165697540Y-105971786D01*
X165697543Y-105971786D01*
X165697545Y-105971787D01*
X165859997Y-105990091D01*
X165860001Y-105990091D01*
X165860005Y-105990091D01*
X166022456Y-105971787D01*
X166022457Y-105971786D01*
X166022462Y-105971786D01*
X166176776Y-105917789D01*
X166315205Y-105830808D01*
X166430809Y-105715204D01*
X166517790Y-105576775D01*
X166571787Y-105422461D01*
X166590092Y-105260000D01*
X166571787Y-105097539D01*
X166517790Y-104943225D01*
X166430809Y-104804796D01*
X166315205Y-104689192D01*
X166176775Y-104602210D01*
X166022456Y-104548212D01*
X165860005Y-104529909D01*
X165859997Y-104529909D01*
X165697545Y-104548212D01*
X165543226Y-104602210D01*
X165404796Y-104689192D01*
X165289193Y-104804795D01*
X165202211Y-104943225D01*
X165148213Y-105097544D01*
X165129910Y-105259996D01*
X119655500Y-105259996D01*
X119655500Y-104387128D01*
X119649092Y-104327517D01*
X119598797Y-104192669D01*
X119598796Y-104192668D01*
X119598794Y-104192664D01*
X119512548Y-104077455D01*
X119512545Y-104077452D01*
X119397336Y-103991206D01*
X119397329Y-103991202D01*
X119265918Y-103942189D01*
X119209984Y-103900318D01*
X119185567Y-103834853D01*
X119200419Y-103766580D01*
X119221564Y-103738332D01*
X119343496Y-103616401D01*
X119479036Y-103422830D01*
X119578904Y-103208663D01*
X119640064Y-102980408D01*
X119660660Y-102745000D01*
X119640064Y-102509592D01*
X119578904Y-102281337D01*
X119479036Y-102067171D01*
X119474014Y-102059998D01*
X119343495Y-101873597D01*
X119176403Y-101706506D01*
X119176402Y-101706505D01*
X118990406Y-101576269D01*
X118946782Y-101521692D01*
X118939589Y-101452193D01*
X118971111Y-101389839D01*
X118990406Y-101373119D01*
X119176083Y-101243105D01*
X119343106Y-101076082D01*
X119478601Y-100882578D01*
X119578430Y-100668492D01*
X119578433Y-100668486D01*
X119635637Y-100455000D01*
X118738013Y-100455000D01*
X118770926Y-100397993D01*
X118805001Y-100270826D01*
X118805001Y-100139174D01*
X118770926Y-100012007D01*
X118738013Y-99955000D01*
X119635637Y-99955000D01*
X119635636Y-99954999D01*
X119578433Y-99741513D01*
X119578430Y-99741507D01*
X119478601Y-99527422D01*
X119478600Y-99527420D01*
X119343114Y-99333926D01*
X119343109Y-99333920D01*
X119176083Y-99166894D01*
X118982579Y-99031399D01*
X118768493Y-98931570D01*
X118768487Y-98931567D01*
X118555001Y-98874364D01*
X118555001Y-99771988D01*
X118497994Y-99739075D01*
X118370827Y-99705000D01*
X118239175Y-99705000D01*
X118112008Y-99739075D01*
X118055001Y-99771988D01*
X118055001Y-98874364D01*
X118055000Y-98874364D01*
X117841514Y-98931567D01*
X117841508Y-98931570D01*
X117627423Y-99031399D01*
X117627421Y-99031400D01*
X117433927Y-99166886D01*
X117433921Y-99166891D01*
X117266892Y-99333920D01*
X117266887Y-99333926D01*
X117131401Y-99527420D01*
X117131400Y-99527422D01*
X117031571Y-99741507D01*
X117031568Y-99741513D01*
X116974365Y-99954999D01*
X116974365Y-99955000D01*
X117871989Y-99955000D01*
X117839076Y-100012007D01*
X117805001Y-100139174D01*
X117805001Y-100270826D01*
X117839076Y-100397993D01*
X117871989Y-100455000D01*
X116974365Y-100455000D01*
X117031568Y-100668486D01*
X117031571Y-100668492D01*
X117131400Y-100882578D01*
X117266895Y-101076082D01*
X117433918Y-101243105D01*
X117619596Y-101373119D01*
X117663220Y-101427696D01*
X117670413Y-101497195D01*
X117638891Y-101559549D01*
X117619596Y-101576269D01*
X117433595Y-101706508D01*
X117266506Y-101873597D01*
X117130966Y-102067169D01*
X117130965Y-102067171D01*
X117031099Y-102281335D01*
X117031095Y-102281344D01*
X116969939Y-102509586D01*
X116969937Y-102509596D01*
X116949342Y-102744999D01*
X115256036Y-102744999D01*
X115256036Y-96529996D01*
X133649910Y-96529996D01*
X133649910Y-96530003D01*
X133668213Y-96692455D01*
X133722211Y-96846774D01*
X133773913Y-96929057D01*
X133809193Y-96985204D01*
X133924797Y-97100808D01*
X134063226Y-97187789D01*
X134217540Y-97241786D01*
X134217543Y-97241786D01*
X134217545Y-97241787D01*
X134379997Y-97260091D01*
X134380001Y-97260091D01*
X134380005Y-97260091D01*
X134542456Y-97241787D01*
X134542457Y-97241786D01*
X134542462Y-97241786D01*
X134696776Y-97187789D01*
X134835205Y-97100808D01*
X134950809Y-96985204D01*
X135037790Y-96846775D01*
X135091787Y-96692461D01*
X135091788Y-96692455D01*
X135110092Y-96530003D01*
X135110092Y-96529996D01*
X135091788Y-96367544D01*
X135091787Y-96367542D01*
X135091787Y-96367539D01*
X135037790Y-96213225D01*
X134950809Y-96074796D01*
X134835205Y-95959192D01*
X134810800Y-95943857D01*
X134696775Y-95872210D01*
X134542456Y-95818212D01*
X134380005Y-95799909D01*
X134379997Y-95799909D01*
X134217545Y-95818212D01*
X134063226Y-95872210D01*
X133924796Y-95959192D01*
X133809193Y-96074795D01*
X133722211Y-96213225D01*
X133668213Y-96367544D01*
X133649910Y-96529996D01*
X115256036Y-96529996D01*
X115256036Y-92589999D01*
X116994342Y-92589999D01*
X116994342Y-92590000D01*
X117014937Y-92825403D01*
X117014939Y-92825413D01*
X117076095Y-93053655D01*
X117076097Y-93053659D01*
X117076098Y-93053663D01*
X117151426Y-93215204D01*
X117175966Y-93267830D01*
X117175968Y-93267834D01*
X117311502Y-93461395D01*
X117311507Y-93461402D01*
X117478598Y-93628493D01*
X117478604Y-93628498D01*
X117480458Y-93629796D01*
X117617077Y-93725458D01*
X117664595Y-93758730D01*
X117708220Y-93813307D01*
X117715414Y-93882805D01*
X117683891Y-93945160D01*
X117664596Y-93961880D01*
X117478923Y-94091890D01*
X117478921Y-94091891D01*
X117311892Y-94258920D01*
X117311887Y-94258926D01*
X117176401Y-94452420D01*
X117176400Y-94452422D01*
X117076571Y-94666507D01*
X117076568Y-94666513D01*
X117019365Y-94879999D01*
X117019365Y-94880000D01*
X117916989Y-94880000D01*
X117884076Y-94937007D01*
X117850001Y-95064174D01*
X117850001Y-95195826D01*
X117884076Y-95322993D01*
X117916989Y-95380000D01*
X117019365Y-95380000D01*
X117076568Y-95593486D01*
X117076571Y-95593492D01*
X117176400Y-95807578D01*
X117311895Y-96001082D01*
X117478918Y-96168105D01*
X117672422Y-96303600D01*
X117886508Y-96403429D01*
X117886517Y-96403433D01*
X118100001Y-96460634D01*
X118100001Y-95563012D01*
X118157008Y-95595925D01*
X118284175Y-95630000D01*
X118415827Y-95630000D01*
X118542994Y-95595925D01*
X118600001Y-95563012D01*
X118600001Y-96460633D01*
X118813484Y-96403433D01*
X118813493Y-96403429D01*
X119027579Y-96303600D01*
X119221083Y-96168105D01*
X119388106Y-96001082D01*
X119523601Y-95807578D01*
X119623430Y-95593492D01*
X119623433Y-95593486D01*
X119680637Y-95380000D01*
X118783013Y-95380000D01*
X118815926Y-95322993D01*
X118850001Y-95195826D01*
X118850001Y-95064174D01*
X118815926Y-94937007D01*
X118783013Y-94880000D01*
X119680637Y-94880000D01*
X119680636Y-94879999D01*
X119623433Y-94666513D01*
X119623430Y-94666507D01*
X119523601Y-94452422D01*
X119523600Y-94452420D01*
X119388114Y-94258926D01*
X119388109Y-94258920D01*
X119221079Y-94091890D01*
X119035406Y-93961879D01*
X118991781Y-93907302D01*
X118984589Y-93837804D01*
X119016111Y-93775449D01*
X119035407Y-93758730D01*
X119041541Y-93754435D01*
X119221402Y-93628495D01*
X119388496Y-93461401D01*
X119524036Y-93267830D01*
X119623904Y-93053663D01*
X119685064Y-92825408D01*
X119705660Y-92590000D01*
X119685064Y-92354592D01*
X119623904Y-92126337D01*
X119524036Y-91912171D01*
X119522489Y-91909962D01*
X119388497Y-91718600D01*
X119369800Y-91699903D01*
X119266568Y-91596671D01*
X119233085Y-91535351D01*
X119238069Y-91465659D01*
X119279940Y-91409725D01*
X119310916Y-91392810D01*
X119442332Y-91343796D01*
X119557547Y-91257546D01*
X119643797Y-91142331D01*
X119694092Y-91007483D01*
X119700501Y-90947873D01*
X119700501Y-90099996D01*
X127509910Y-90099996D01*
X127509910Y-90100003D01*
X127528213Y-90262455D01*
X127582211Y-90416774D01*
X127582212Y-90416775D01*
X127669193Y-90555204D01*
X127784797Y-90670808D01*
X127923226Y-90757789D01*
X128077540Y-90811786D01*
X128077543Y-90811786D01*
X128077545Y-90811787D01*
X128239997Y-90830091D01*
X128240001Y-90830091D01*
X128240005Y-90830091D01*
X128402456Y-90811787D01*
X128402457Y-90811786D01*
X128402462Y-90811786D01*
X128556776Y-90757789D01*
X128695205Y-90670808D01*
X128810809Y-90555204D01*
X128897790Y-90416775D01*
X128951787Y-90262461D01*
X128956295Y-90222455D01*
X128970092Y-90100003D01*
X128970092Y-90099996D01*
X128951788Y-89937544D01*
X128951787Y-89937542D01*
X128951787Y-89937539D01*
X128897790Y-89783225D01*
X128810809Y-89644796D01*
X128695205Y-89529192D01*
X128627180Y-89486449D01*
X128556775Y-89442210D01*
X128402456Y-89388212D01*
X128240005Y-89369909D01*
X128239997Y-89369909D01*
X128077545Y-89388212D01*
X127923226Y-89442210D01*
X127784796Y-89529192D01*
X127669193Y-89644795D01*
X127582211Y-89783225D01*
X127528213Y-89937544D01*
X127509910Y-90099996D01*
X119700501Y-90099996D01*
X119700500Y-89152128D01*
X119694092Y-89092517D01*
X119690278Y-89082292D01*
X119643798Y-88957671D01*
X119643794Y-88957664D01*
X119557548Y-88842455D01*
X119557545Y-88842452D01*
X119442336Y-88756206D01*
X119442329Y-88756202D01*
X119307483Y-88705908D01*
X119307484Y-88705908D01*
X119247884Y-88699501D01*
X119247882Y-88699500D01*
X119247874Y-88699500D01*
X119247865Y-88699500D01*
X117452130Y-88699500D01*
X117452124Y-88699501D01*
X117392517Y-88705908D01*
X117257672Y-88756202D01*
X117257665Y-88756206D01*
X117142456Y-88842452D01*
X117142453Y-88842455D01*
X117056207Y-88957664D01*
X117056203Y-88957671D01*
X117005909Y-89092517D01*
X116999502Y-89152116D01*
X116999502Y-89152123D01*
X116999501Y-89152135D01*
X116999501Y-90947870D01*
X116999502Y-90947876D01*
X117005909Y-91007483D01*
X117056203Y-91142328D01*
X117056207Y-91142335D01*
X117142453Y-91257544D01*
X117142456Y-91257547D01*
X117257665Y-91343793D01*
X117257672Y-91343797D01*
X117389082Y-91392810D01*
X117445016Y-91434681D01*
X117469433Y-91500145D01*
X117454581Y-91568418D01*
X117433431Y-91596673D01*
X117311504Y-91718600D01*
X117175966Y-91912169D01*
X117175965Y-91912171D01*
X117076099Y-92126335D01*
X117076095Y-92126344D01*
X117014939Y-92354586D01*
X117014937Y-92354596D01*
X116994342Y-92589999D01*
X115256036Y-92589999D01*
X115256036Y-81929996D01*
X116804436Y-81929996D01*
X116804436Y-81930003D01*
X116824631Y-82109249D01*
X116824632Y-82109254D01*
X116884212Y-82279523D01*
X116978245Y-82429174D01*
X116980185Y-82432262D01*
X117107739Y-82559816D01*
X117260479Y-82655789D01*
X117401119Y-82705001D01*
X117430746Y-82715368D01*
X117430751Y-82715369D01*
X117609997Y-82735565D01*
X117610001Y-82735565D01*
X117610005Y-82735565D01*
X117789250Y-82715369D01*
X117789253Y-82715368D01*
X117789256Y-82715368D01*
X117959523Y-82655789D01*
X118112263Y-82559816D01*
X118239817Y-82432262D01*
X118335790Y-82279522D01*
X118395369Y-82109255D01*
X118396183Y-82102025D01*
X118423246Y-82037611D01*
X118431713Y-82028232D01*
X119243128Y-81216819D01*
X119304451Y-81183334D01*
X119330809Y-81180500D01*
X120531398Y-81180500D01*
X120598437Y-81200185D01*
X120644192Y-81252989D01*
X120653765Y-81313036D01*
X120654436Y-81313036D01*
X120654436Y-81317245D01*
X120654618Y-81318387D01*
X120654436Y-81320001D01*
X120654436Y-81320003D01*
X120674631Y-81499249D01*
X120674632Y-81499254D01*
X120734212Y-81669524D01*
X120790494Y-81759094D01*
X120809501Y-81825067D01*
X120809501Y-84094071D01*
X120826162Y-84177827D01*
X120826162Y-84177828D01*
X120834498Y-84219736D01*
X120834500Y-84219744D01*
X120883535Y-84338125D01*
X120954727Y-84444673D01*
X120954728Y-84444674D01*
X122219178Y-85709122D01*
X122252663Y-85770445D01*
X122254717Y-85782913D01*
X122255533Y-85790154D01*
X122255533Y-85790156D01*
X122315111Y-85960422D01*
X122372591Y-86051900D01*
X122411085Y-86113163D01*
X122538639Y-86240717D01*
X122628981Y-86297483D01*
X122685221Y-86332821D01*
X122691379Y-86336690D01*
X122772419Y-86365047D01*
X122861646Y-86396269D01*
X122861651Y-86396270D01*
X123040897Y-86416466D01*
X123040901Y-86416466D01*
X123040905Y-86416466D01*
X123220150Y-86396270D01*
X123220153Y-86396269D01*
X123220156Y-86396269D01*
X123390423Y-86336690D01*
X123543163Y-86240717D01*
X123670717Y-86113163D01*
X123766690Y-85960423D01*
X123804342Y-85852818D01*
X123845064Y-85796043D01*
X123910016Y-85770295D01*
X123935268Y-85770553D01*
X124075533Y-85786357D01*
X124075534Y-85786357D01*
X124075534Y-85786356D01*
X124075536Y-85786357D01*
X124105564Y-85782973D01*
X124174383Y-85795026D01*
X124185421Y-85801200D01*
X124323227Y-85887790D01*
X124477532Y-85941784D01*
X124477538Y-85941785D01*
X124477540Y-85941786D01*
X124477541Y-85941786D01*
X124477545Y-85941787D01*
X124563375Y-85951457D01*
X124627789Y-85978523D01*
X124637174Y-85986996D01*
X124702079Y-86051901D01*
X124840508Y-86138882D01*
X124994822Y-86192879D01*
X124994825Y-86192879D01*
X124994827Y-86192880D01*
X125157279Y-86211184D01*
X125157283Y-86211184D01*
X125157287Y-86211184D01*
X125319738Y-86192880D01*
X125319739Y-86192879D01*
X125319744Y-86192879D01*
X125474058Y-86138882D01*
X125612487Y-86051901D01*
X125728091Y-85936297D01*
X125815072Y-85797868D01*
X125820305Y-85782913D01*
X125871370Y-85636981D01*
X125873148Y-85637603D01*
X125901726Y-85585883D01*
X125970793Y-85516818D01*
X126032117Y-85483334D01*
X126058473Y-85480501D01*
X130619905Y-85480501D01*
X130686944Y-85500186D01*
X130707586Y-85516820D01*
X132053084Y-86862318D01*
X132086569Y-86923641D01*
X132081585Y-86993333D01*
X132053084Y-87037680D01*
X131225303Y-87865460D01*
X131163980Y-87898945D01*
X131094288Y-87893961D01*
X131071652Y-87882774D01*
X131066781Y-87879713D01*
X131066775Y-87879710D01*
X130912458Y-87825712D01*
X130750005Y-87807409D01*
X130749997Y-87807409D01*
X130587545Y-87825712D01*
X130433226Y-87879710D01*
X130294796Y-87966692D01*
X130179193Y-88082295D01*
X130092211Y-88220725D01*
X130038213Y-88375044D01*
X130019910Y-88537496D01*
X130019910Y-88537503D01*
X130038213Y-88699955D01*
X130092211Y-88854274D01*
X130147000Y-88941470D01*
X130179193Y-88992704D01*
X130294797Y-89108308D01*
X130433226Y-89195289D01*
X130587540Y-89249286D01*
X130587543Y-89249286D01*
X130587545Y-89249287D01*
X130749997Y-89267591D01*
X130750001Y-89267591D01*
X130750005Y-89267591D01*
X130912456Y-89249287D01*
X130912457Y-89249286D01*
X130912462Y-89249286D01*
X131066776Y-89195289D01*
X131127703Y-89157005D01*
X131193675Y-89138000D01*
X131315832Y-89138000D01*
X131315848Y-89138001D01*
X131323444Y-89138001D01*
X131481555Y-89138001D01*
X131481558Y-89138001D01*
X131634286Y-89097077D01*
X131634288Y-89097076D01*
X131641797Y-89093966D01*
X131642651Y-89096029D01*
X131699245Y-89082292D01*
X131759333Y-89101158D01*
X131837392Y-89150206D01*
X131880043Y-89177006D01*
X131893226Y-89185289D01*
X132047540Y-89239286D01*
X132047543Y-89239286D01*
X132047545Y-89239287D01*
X132209997Y-89257591D01*
X132210001Y-89257591D01*
X132210005Y-89257591D01*
X132372456Y-89239287D01*
X132372457Y-89239286D01*
X132372462Y-89239286D01*
X132526776Y-89185289D01*
X132587703Y-89147005D01*
X132653675Y-89128000D01*
X132941580Y-89128000D01*
X132941596Y-89128001D01*
X132949192Y-89128001D01*
X133107305Y-89128001D01*
X133107306Y-89128001D01*
X133130060Y-89121904D01*
X133199910Y-89123565D01*
X133228127Y-89136684D01*
X133292299Y-89177006D01*
X133353226Y-89215289D01*
X133507540Y-89269286D01*
X133507543Y-89269286D01*
X133507545Y-89269287D01*
X133669997Y-89287591D01*
X133670001Y-89287591D01*
X133670005Y-89287591D01*
X133832456Y-89269287D01*
X133832457Y-89269286D01*
X133832462Y-89269286D01*
X133986776Y-89215289D01*
X134047703Y-89177005D01*
X134113675Y-89158000D01*
X134391580Y-89158000D01*
X134391596Y-89158001D01*
X134399192Y-89158001D01*
X134557304Y-89158001D01*
X134557306Y-89158001D01*
X134592595Y-89148545D01*
X134662444Y-89150206D01*
X134690662Y-89163326D01*
X134791275Y-89226546D01*
X134803226Y-89234055D01*
X134957540Y-89288052D01*
X134957543Y-89288052D01*
X134957545Y-89288053D01*
X135119997Y-89306357D01*
X135120001Y-89306357D01*
X135120005Y-89306357D01*
X135282456Y-89288053D01*
X135282457Y-89288052D01*
X135282462Y-89288052D01*
X135436776Y-89234055D01*
X135575205Y-89147074D01*
X135690809Y-89031470D01*
X135777790Y-88893041D01*
X135777790Y-88893038D01*
X135778282Y-88892257D01*
X135830617Y-88845966D01*
X135899670Y-88835318D01*
X135963519Y-88863693D01*
X135988269Y-88892256D01*
X136019191Y-88941467D01*
X136019193Y-88941470D01*
X136134797Y-89057074D01*
X136273226Y-89144055D01*
X136427540Y-89198052D01*
X136427543Y-89198052D01*
X136427545Y-89198053D01*
X136589997Y-89216357D01*
X136590001Y-89216357D01*
X136590005Y-89216357D01*
X136752454Y-89198053D01*
X136752454Y-89198052D01*
X136752462Y-89198052D01*
X136760078Y-89195386D01*
X136829853Y-89191821D01*
X136890482Y-89226546D01*
X136922713Y-89288537D01*
X136925036Y-89312426D01*
X136925036Y-97249596D01*
X136925035Y-97249614D01*
X136925035Y-97415320D01*
X136925034Y-97415320D01*
X136930788Y-97436793D01*
X136965959Y-97568051D01*
X136991928Y-97613030D01*
X137023940Y-97668477D01*
X137045015Y-97704980D01*
X137045017Y-97704983D01*
X137157853Y-97817819D01*
X137191338Y-97879142D01*
X137186354Y-97948834D01*
X137144482Y-98004767D01*
X137079018Y-98029184D01*
X137070172Y-98029500D01*
X128236670Y-98029500D01*
X128236654Y-98029499D01*
X128229058Y-98029499D01*
X128070944Y-98029499D01*
X127918216Y-98070423D01*
X127883103Y-98090696D01*
X127832194Y-98120088D01*
X127781285Y-98149479D01*
X127781283Y-98149481D01*
X127669479Y-98261286D01*
X125625208Y-100305556D01*
X125573491Y-100334143D01*
X125574111Y-100335915D01*
X125567541Y-100338213D01*
X125567540Y-100338214D01*
X125536917Y-100348929D01*
X125413226Y-100392210D01*
X125274796Y-100479192D01*
X125159193Y-100594795D01*
X125072211Y-100733225D01*
X125018213Y-100887544D01*
X124999910Y-101049996D01*
X124999910Y-101050003D01*
X125018213Y-101212455D01*
X125072211Y-101366774D01*
X125110491Y-101427696D01*
X125159193Y-101505204D01*
X125274797Y-101620808D01*
X125413226Y-101707789D01*
X125567540Y-101761786D01*
X125567543Y-101761786D01*
X125567545Y-101761787D01*
X125729997Y-101780091D01*
X125730001Y-101780091D01*
X125730005Y-101780091D01*
X125892456Y-101761787D01*
X125892457Y-101761786D01*
X125892462Y-101761786D01*
X126046776Y-101707789D01*
X126185205Y-101620808D01*
X126300809Y-101505204D01*
X126387790Y-101366775D01*
X126414682Y-101289923D01*
X126444088Y-101205888D01*
X126445861Y-101206508D01*
X126474446Y-101154789D01*
X126688839Y-100940396D01*
X134335636Y-100940396D01*
X134335636Y-100940403D01*
X134355831Y-101119649D01*
X134355832Y-101119654D01*
X134415412Y-101289923D01*
X134463700Y-101366772D01*
X134511385Y-101442662D01*
X134638939Y-101570216D01*
X134791679Y-101666189D01*
X134906904Y-101706508D01*
X134961946Y-101725768D01*
X134961951Y-101725769D01*
X135141197Y-101745965D01*
X135141201Y-101745965D01*
X135141205Y-101745965D01*
X135320450Y-101725769D01*
X135320453Y-101725768D01*
X135320456Y-101725768D01*
X135490723Y-101666189D01*
X135643463Y-101570216D01*
X135771017Y-101442662D01*
X135866990Y-101289922D01*
X135926569Y-101119655D01*
X135926570Y-101119649D01*
X135946766Y-100940403D01*
X135946766Y-100940396D01*
X135926570Y-100761150D01*
X135926569Y-100761145D01*
X135906923Y-100705000D01*
X135866990Y-100590878D01*
X135771017Y-100438138D01*
X135643463Y-100310584D01*
X135628958Y-100301470D01*
X135490724Y-100214611D01*
X135320455Y-100155031D01*
X135320450Y-100155030D01*
X135141205Y-100134835D01*
X135141197Y-100134835D01*
X134961951Y-100155030D01*
X134961946Y-100155031D01*
X134791677Y-100214611D01*
X134638938Y-100310584D01*
X134511385Y-100438137D01*
X134415412Y-100590876D01*
X134355832Y-100761145D01*
X134355831Y-100761150D01*
X134335636Y-100940396D01*
X126688839Y-100940396D01*
X128362417Y-99266819D01*
X128423740Y-99233334D01*
X128450098Y-99230500D01*
X143209435Y-99230500D01*
X143276474Y-99250185D01*
X143322229Y-99302989D01*
X143332173Y-99372147D01*
X143326477Y-99395454D01*
X143296633Y-99480742D01*
X143296631Y-99480750D01*
X143276436Y-99659996D01*
X143276436Y-99660003D01*
X143296631Y-99839249D01*
X143296632Y-99839254D01*
X143356212Y-100009523D01*
X143404941Y-100087074D01*
X143452185Y-100162262D01*
X143579739Y-100289816D01*
X143732479Y-100385789D01*
X143882081Y-100438137D01*
X143902746Y-100445368D01*
X143902751Y-100445369D01*
X144081997Y-100465565D01*
X144082001Y-100465565D01*
X144082005Y-100465565D01*
X144261250Y-100445369D01*
X144261253Y-100445368D01*
X144261256Y-100445368D01*
X144431523Y-100385789D01*
X144584263Y-100289816D01*
X144711817Y-100162262D01*
X144807790Y-100009522D01*
X144867369Y-99839255D01*
X144867848Y-99835003D01*
X144887566Y-99660003D01*
X144887566Y-99659996D01*
X144867370Y-99480750D01*
X144867368Y-99480742D01*
X144837525Y-99395454D01*
X144833964Y-99325675D01*
X144868693Y-99265048D01*
X144930686Y-99232821D01*
X144954567Y-99230500D01*
X146875064Y-99230500D01*
X146942103Y-99250185D01*
X146987858Y-99302989D01*
X146997802Y-99372147D01*
X146980058Y-99420472D01*
X146939212Y-99485477D01*
X146879632Y-99655745D01*
X146879631Y-99655750D01*
X146859436Y-99834996D01*
X146859436Y-99835003D01*
X146879631Y-100014249D01*
X146879632Y-100014254D01*
X146939212Y-100184523D01*
X147033225Y-100334143D01*
X147035185Y-100337262D01*
X147162739Y-100464816D01*
X147237843Y-100512007D01*
X147311124Y-100558053D01*
X147315479Y-100560789D01*
X147442110Y-100605099D01*
X147485746Y-100620368D01*
X147485751Y-100620369D01*
X147664997Y-100640565D01*
X147665001Y-100640565D01*
X147665005Y-100640565D01*
X147844250Y-100620369D01*
X147844253Y-100620368D01*
X147844256Y-100620368D01*
X148014523Y-100560789D01*
X148018878Y-100558053D01*
X148033798Y-100548677D01*
X148118049Y-100495739D01*
X148185282Y-100476739D01*
X148249992Y-100495740D01*
X148263224Y-100504054D01*
X148263226Y-100504055D01*
X148417540Y-100558052D01*
X148417543Y-100558052D01*
X148417545Y-100558053D01*
X148579997Y-100576357D01*
X148580001Y-100576357D01*
X148580005Y-100576357D01*
X148742456Y-100558053D01*
X148742457Y-100558052D01*
X148742462Y-100558052D01*
X148896776Y-100504055D01*
X149035205Y-100417074D01*
X149123841Y-100328438D01*
X149185164Y-100294953D01*
X149254856Y-100299937D01*
X149299203Y-100328438D01*
X151511285Y-102540520D01*
X151511287Y-102540521D01*
X151511291Y-102540524D01*
X151648210Y-102619573D01*
X151648217Y-102619577D01*
X151800944Y-102660501D01*
X151800946Y-102660501D01*
X151966655Y-102660501D01*
X151966671Y-102660500D01*
X152981862Y-102660500D01*
X153047833Y-102679505D01*
X153108761Y-102717789D01*
X153263075Y-102771786D01*
X153263078Y-102771786D01*
X153263080Y-102771787D01*
X153425532Y-102790091D01*
X153425536Y-102790091D01*
X153425540Y-102790091D01*
X153587991Y-102771787D01*
X153587992Y-102771786D01*
X153587997Y-102771786D01*
X153742311Y-102717789D01*
X153880740Y-102630808D01*
X153996344Y-102515204D01*
X154083325Y-102376775D01*
X154137322Y-102222461D01*
X154137322Y-102222458D01*
X154139621Y-102215889D01*
X154142001Y-102216721D01*
X154170424Y-102165921D01*
X154232088Y-102133069D01*
X154257198Y-102130500D01*
X167923332Y-102130500D01*
X167923348Y-102130501D01*
X167930944Y-102130501D01*
X168089055Y-102130501D01*
X168089058Y-102130501D01*
X168241786Y-102089577D01*
X168293014Y-102060000D01*
X168378717Y-102010520D01*
X168490521Y-101898716D01*
X168490521Y-101898714D01*
X168500725Y-101888511D01*
X168500728Y-101888506D01*
X171270521Y-99118716D01*
X171349578Y-98981784D01*
X171390502Y-98829057D01*
X171390502Y-98769938D01*
X171409509Y-98703965D01*
X171447789Y-98643042D01*
X171447790Y-98643041D01*
X171501787Y-98488727D01*
X171508826Y-98426255D01*
X171520092Y-98326269D01*
X171520092Y-98326262D01*
X171501788Y-98163810D01*
X171501787Y-98163808D01*
X171501787Y-98163805D01*
X171447790Y-98009491D01*
X171360809Y-97871062D01*
X171245205Y-97755458D01*
X171164875Y-97704983D01*
X171106775Y-97668476D01*
X170998547Y-97630606D01*
X170941771Y-97589884D01*
X170916023Y-97524931D01*
X170915501Y-97513564D01*
X170915501Y-96902443D01*
X170935186Y-96835404D01*
X170987990Y-96789649D01*
X170998547Y-96785401D01*
X171039865Y-96770943D01*
X171076411Y-96758155D01*
X171214840Y-96671174D01*
X171330444Y-96555570D01*
X171417425Y-96417141D01*
X171471422Y-96262827D01*
X171471423Y-96262821D01*
X171489727Y-96100369D01*
X171489727Y-96100362D01*
X171471423Y-95937910D01*
X171471422Y-95937908D01*
X171471422Y-95937905D01*
X171417425Y-95783591D01*
X171330444Y-95645162D01*
X171214840Y-95529558D01*
X171144447Y-95485327D01*
X171076410Y-95442576D01*
X170922091Y-95388578D01*
X170759640Y-95370275D01*
X170759632Y-95370275D01*
X170597180Y-95388578D01*
X170442861Y-95442576D01*
X170304431Y-95529558D01*
X170188828Y-95645161D01*
X170101846Y-95783591D01*
X170070838Y-95872210D01*
X170047850Y-95937905D01*
X170047849Y-95937907D01*
X170045551Y-95944477D01*
X170043781Y-95943857D01*
X170015193Y-95995572D01*
X169946287Y-96064478D01*
X169834482Y-96176282D01*
X169834481Y-96176284D01*
X169792952Y-96248215D01*
X169755424Y-96313215D01*
X169714500Y-96465943D01*
X169714500Y-96465945D01*
X169714500Y-96634046D01*
X169714501Y-96634059D01*
X169714501Y-98359216D01*
X169694816Y-98426255D01*
X169678182Y-98446897D01*
X167631899Y-100493181D01*
X167570576Y-100526666D01*
X167544218Y-100529500D01*
X152381470Y-100529500D01*
X152314431Y-100509815D01*
X152293789Y-100493181D01*
X152249597Y-100448989D01*
X152216112Y-100387666D01*
X152221096Y-100317974D01*
X152262968Y-100262041D01*
X152323395Y-100238088D01*
X152412456Y-100228053D01*
X152412457Y-100228052D01*
X152412462Y-100228052D01*
X152566776Y-100174055D01*
X152705205Y-100087074D01*
X152820809Y-99971470D01*
X152907790Y-99833041D01*
X152919640Y-99799175D01*
X152960360Y-99742398D01*
X152995726Y-99723085D01*
X153082311Y-99692789D01*
X153143238Y-99654505D01*
X153209210Y-99635500D01*
X157478332Y-99635500D01*
X157478348Y-99635501D01*
X157485944Y-99635501D01*
X157644055Y-99635501D01*
X157644058Y-99635501D01*
X157796786Y-99594577D01*
X157846905Y-99565639D01*
X157933717Y-99515520D01*
X158045521Y-99403716D01*
X158045522Y-99403713D01*
X158400520Y-99048716D01*
X158458507Y-98990728D01*
X158458510Y-98990726D01*
X158468715Y-98980520D01*
X158468717Y-98980520D01*
X158580521Y-98868716D01*
X158659578Y-98731784D01*
X158691123Y-98614057D01*
X158700501Y-98579058D01*
X158700501Y-98420943D01*
X158700501Y-96939059D01*
X158700502Y-96939046D01*
X158700502Y-96770945D01*
X158700502Y-96770943D01*
X158659578Y-96618215D01*
X158625423Y-96559057D01*
X158580521Y-96481284D01*
X158468717Y-96369480D01*
X158468716Y-96369479D01*
X158464386Y-96365149D01*
X158464375Y-96365139D01*
X158390345Y-96291109D01*
X158361763Y-96239392D01*
X158359987Y-96240014D01*
X158340261Y-96183640D01*
X158303690Y-96079126D01*
X158216709Y-95940697D01*
X158101105Y-95825093D01*
X158030841Y-95780943D01*
X157962675Y-95738111D01*
X157808356Y-95684113D01*
X157645905Y-95665810D01*
X157645897Y-95665810D01*
X157483445Y-95684113D01*
X157329126Y-95738111D01*
X157190696Y-95825093D01*
X157075093Y-95940696D01*
X156988111Y-96079126D01*
X156934113Y-96233445D01*
X156915810Y-96395897D01*
X156915810Y-96395904D01*
X156934113Y-96558356D01*
X156988111Y-96712675D01*
X157048341Y-96808530D01*
X157075093Y-96851105D01*
X157190697Y-96966709D01*
X157329126Y-97053690D01*
X157416456Y-97084248D01*
X157473232Y-97124970D01*
X157498979Y-97189923D01*
X157499501Y-97201290D01*
X157499501Y-97314786D01*
X157479816Y-97381825D01*
X157427012Y-97427580D01*
X157394322Y-97436639D01*
X157394328Y-97436665D01*
X157393766Y-97436793D01*
X157389392Y-97438005D01*
X157387540Y-97438214D01*
X157233226Y-97492210D01*
X157094796Y-97579192D01*
X156979193Y-97694795D01*
X156892211Y-97833225D01*
X156878835Y-97871454D01*
X156838113Y-97928230D01*
X156773161Y-97953978D01*
X156761793Y-97954500D01*
X154370038Y-97954500D01*
X154302999Y-97934815D01*
X154257244Y-97882011D01*
X154252997Y-97871455D01*
X154213691Y-97759128D01*
X154211385Y-97755458D01*
X154126709Y-97620697D01*
X154086820Y-97580808D01*
X154053335Y-97519485D01*
X154050501Y-97493127D01*
X154050501Y-91942702D01*
X154070186Y-91875663D01*
X154122990Y-91829908D01*
X154133547Y-91825660D01*
X154241776Y-91787789D01*
X154380205Y-91700808D01*
X154495809Y-91585204D01*
X154582790Y-91446775D01*
X154636787Y-91292461D01*
X154640721Y-91257546D01*
X154655092Y-91130003D01*
X154655092Y-91129996D01*
X154636788Y-90967544D01*
X154636787Y-90967542D01*
X154636787Y-90967539D01*
X154598706Y-90858710D01*
X154595145Y-90788931D01*
X154629874Y-90728304D01*
X154649776Y-90712762D01*
X154780205Y-90630808D01*
X154895809Y-90515204D01*
X154982790Y-90376775D01*
X155036787Y-90222461D01*
X155050586Y-90099996D01*
X155055092Y-90060003D01*
X155055092Y-90059996D01*
X155036788Y-89897544D01*
X155036787Y-89897542D01*
X155036787Y-89897539D01*
X154982790Y-89743225D01*
X154895809Y-89604796D01*
X154886820Y-89595807D01*
X154853335Y-89534484D01*
X154850501Y-89508126D01*
X154850501Y-82855897D01*
X157005810Y-82855897D01*
X157005810Y-82855904D01*
X157024113Y-83018356D01*
X157078111Y-83172675D01*
X157078112Y-83172676D01*
X157165093Y-83311105D01*
X157280697Y-83426709D01*
X157419126Y-83513690D01*
X157573440Y-83567687D01*
X157573443Y-83567687D01*
X157573445Y-83567688D01*
X157735897Y-83585992D01*
X157735901Y-83585992D01*
X157735905Y-83585992D01*
X157898356Y-83567688D01*
X157898357Y-83567687D01*
X157898362Y-83567687D01*
X158052676Y-83513690D01*
X158191105Y-83426709D01*
X158306709Y-83311105D01*
X158393690Y-83172676D01*
X158447687Y-83018362D01*
X158447688Y-83018356D01*
X158465992Y-82855904D01*
X158465992Y-82855897D01*
X158463739Y-82835897D01*
X162955810Y-82835897D01*
X162955810Y-82835904D01*
X162974113Y-82998356D01*
X163028111Y-83152675D01*
X163040617Y-83172578D01*
X163115093Y-83291105D01*
X163230697Y-83406709D01*
X163369126Y-83493690D01*
X163523440Y-83547687D01*
X163523443Y-83547687D01*
X163523445Y-83547688D01*
X163685897Y-83565992D01*
X163685901Y-83565992D01*
X163685905Y-83565992D01*
X163848356Y-83547688D01*
X163848357Y-83547687D01*
X163848362Y-83547687D01*
X164002676Y-83493690D01*
X164141105Y-83406709D01*
X164256709Y-83291105D01*
X164343690Y-83152676D01*
X164397687Y-82998362D01*
X164401905Y-82960925D01*
X164415992Y-82835904D01*
X164415992Y-82835897D01*
X164397688Y-82673445D01*
X164397687Y-82673443D01*
X164397687Y-82673440D01*
X164343690Y-82519126D01*
X164256709Y-82380697D01*
X164141105Y-82265093D01*
X164109126Y-82244999D01*
X164002675Y-82178111D01*
X163848356Y-82124113D01*
X163685905Y-82105810D01*
X163685897Y-82105810D01*
X163523445Y-82124113D01*
X163369126Y-82178111D01*
X163230696Y-82265093D01*
X163115093Y-82380696D01*
X163028111Y-82519126D01*
X162974113Y-82673445D01*
X162955810Y-82835897D01*
X158463739Y-82835897D01*
X158447688Y-82693445D01*
X158447687Y-82693443D01*
X158447687Y-82693440D01*
X158393690Y-82539126D01*
X158306709Y-82400697D01*
X158191105Y-82285093D01*
X158134932Y-82249797D01*
X158052675Y-82198111D01*
X157898356Y-82144113D01*
X157735905Y-82125810D01*
X157735897Y-82125810D01*
X157573445Y-82144113D01*
X157419126Y-82198111D01*
X157280696Y-82285093D01*
X157165093Y-82400696D01*
X157078111Y-82539126D01*
X157024113Y-82693445D01*
X157005810Y-82855897D01*
X154850501Y-82855897D01*
X154850501Y-76479060D01*
X154850502Y-76479047D01*
X154850502Y-76310944D01*
X154844796Y-76289649D01*
X154809578Y-76158216D01*
X154795629Y-76134055D01*
X154730525Y-76021290D01*
X154730519Y-76021282D01*
X154275345Y-75566108D01*
X154246762Y-75514392D01*
X154244987Y-75515014D01*
X154236042Y-75489450D01*
X154188690Y-75354126D01*
X154101709Y-75215697D01*
X153986105Y-75100093D01*
X153986101Y-75100090D01*
X153985007Y-75099218D01*
X153984482Y-75098470D01*
X153981181Y-75095169D01*
X153981759Y-75094590D01*
X153944869Y-75042028D01*
X153942021Y-74972217D01*
X153974639Y-74914596D01*
X154312419Y-74576816D01*
X154373740Y-74543334D01*
X154400098Y-74540500D01*
X154735502Y-74540500D01*
X154802541Y-74560185D01*
X154848296Y-74612989D01*
X154859502Y-74664500D01*
X154859502Y-74837876D01*
X154865909Y-74897483D01*
X154916203Y-75032328D01*
X154916207Y-75032335D01*
X155002453Y-75147544D01*
X155002456Y-75147547D01*
X155117665Y-75233793D01*
X155117672Y-75233797D01*
X155252518Y-75284091D01*
X155252517Y-75284091D01*
X155259445Y-75284835D01*
X155312128Y-75290500D01*
X157107873Y-75290499D01*
X157167484Y-75284091D01*
X157302332Y-75233796D01*
X157417547Y-75147546D01*
X157503797Y-75032331D01*
X157552811Y-74900916D01*
X157594682Y-74844984D01*
X157660146Y-74820566D01*
X157728419Y-74835417D01*
X157756674Y-74856569D01*
X157878600Y-74978495D01*
X157969334Y-75042028D01*
X158072166Y-75114032D01*
X158072168Y-75114033D01*
X158072171Y-75114035D01*
X158286338Y-75213903D01*
X158286344Y-75213904D01*
X158286345Y-75213905D01*
X158293033Y-75215697D01*
X158514593Y-75275063D01*
X158691035Y-75290500D01*
X158750000Y-75295659D01*
X158750001Y-75295659D01*
X158750002Y-75295659D01*
X158808967Y-75290500D01*
X158985409Y-75275063D01*
X159213664Y-75213903D01*
X159427831Y-75114035D01*
X159621402Y-74978495D01*
X159788496Y-74811401D01*
X159918426Y-74625842D01*
X159973003Y-74582217D01*
X160042501Y-74575023D01*
X160104856Y-74606546D01*
X160121576Y-74625842D01*
X160251282Y-74811082D01*
X160251506Y-74811401D01*
X160418600Y-74978495D01*
X160509334Y-75042028D01*
X160612166Y-75114032D01*
X160612168Y-75114033D01*
X160612171Y-75114035D01*
X160826338Y-75213903D01*
X160826344Y-75213904D01*
X160826345Y-75213905D01*
X160833033Y-75215697D01*
X161054593Y-75275063D01*
X161231035Y-75290500D01*
X161290000Y-75295659D01*
X161290001Y-75295659D01*
X161290002Y-75295659D01*
X161348967Y-75290500D01*
X161525409Y-75275063D01*
X161753664Y-75213903D01*
X161967831Y-75114035D01*
X162161402Y-74978495D01*
X162328496Y-74811401D01*
X162458426Y-74625842D01*
X162513003Y-74582217D01*
X162582501Y-74575023D01*
X162644856Y-74606546D01*
X162661576Y-74625842D01*
X162791282Y-74811082D01*
X162791506Y-74811401D01*
X162958600Y-74978495D01*
X163049334Y-75042028D01*
X163152166Y-75114032D01*
X163152168Y-75114033D01*
X163152171Y-75114035D01*
X163366338Y-75213903D01*
X163366344Y-75213904D01*
X163366345Y-75213905D01*
X163373033Y-75215697D01*
X163594593Y-75275063D01*
X163771035Y-75290500D01*
X163830000Y-75295659D01*
X163830001Y-75295659D01*
X163830002Y-75295659D01*
X163888967Y-75290500D01*
X164065409Y-75275063D01*
X164293664Y-75213903D01*
X164507831Y-75114035D01*
X164701402Y-74978495D01*
X164868496Y-74811401D01*
X164998731Y-74625405D01*
X165053308Y-74581781D01*
X165122806Y-74574587D01*
X165185161Y-74606110D01*
X165201880Y-74625405D01*
X165331891Y-74811078D01*
X165498918Y-74978105D01*
X165692422Y-75113600D01*
X165906508Y-75213429D01*
X165906517Y-75213433D01*
X166120001Y-75270634D01*
X166120001Y-74373012D01*
X166177008Y-74405925D01*
X166304175Y-74440000D01*
X166435827Y-74440000D01*
X166562994Y-74405925D01*
X166620001Y-74373012D01*
X166620001Y-75270633D01*
X166833484Y-75213433D01*
X166833493Y-75213429D01*
X167047579Y-75113600D01*
X167241083Y-74978105D01*
X167408106Y-74811082D01*
X167543601Y-74617578D01*
X167643430Y-74403492D01*
X167643433Y-74403486D01*
X167700637Y-74190000D01*
X166803013Y-74190000D01*
X166835926Y-74132993D01*
X166870001Y-74005826D01*
X166870001Y-73874174D01*
X166835926Y-73747007D01*
X166803013Y-73690000D01*
X167700637Y-73690000D01*
X167700636Y-73689999D01*
X167643433Y-73476513D01*
X167643430Y-73476507D01*
X167543601Y-73262422D01*
X167543600Y-73262420D01*
X167408114Y-73068926D01*
X167408109Y-73068920D01*
X167241083Y-72901894D01*
X167047579Y-72766399D01*
X166833493Y-72666570D01*
X166833487Y-72666567D01*
X166620001Y-72609364D01*
X166620001Y-73506988D01*
X166562994Y-73474075D01*
X166435827Y-73440000D01*
X166304175Y-73440000D01*
X166177008Y-73474075D01*
X166120001Y-73506988D01*
X166120001Y-72609364D01*
X166120000Y-72609364D01*
X165906514Y-72666567D01*
X165906508Y-72666570D01*
X165692423Y-72766399D01*
X165692421Y-72766400D01*
X165498927Y-72901886D01*
X165498921Y-72901891D01*
X165331892Y-73068920D01*
X165331891Y-73068922D01*
X165201881Y-73254595D01*
X165147304Y-73298219D01*
X165077805Y-73305412D01*
X165015451Y-73273890D01*
X164998731Y-73254594D01*
X164868495Y-73068597D01*
X164701403Y-72901506D01*
X164701396Y-72901501D01*
X164507835Y-72765967D01*
X164507831Y-72765965D01*
X164464379Y-72745703D01*
X164293664Y-72666097D01*
X164293660Y-72666096D01*
X164293656Y-72666094D01*
X164065414Y-72604938D01*
X164065404Y-72604936D01*
X163830002Y-72584341D01*
X163830000Y-72584341D01*
X163594597Y-72604936D01*
X163594587Y-72604938D01*
X163366345Y-72666094D01*
X163366336Y-72666098D01*
X163152172Y-72765964D01*
X163152170Y-72765965D01*
X162958598Y-72901505D01*
X162791506Y-73068597D01*
X162661576Y-73254158D01*
X162606999Y-73297783D01*
X162537501Y-73304977D01*
X162475146Y-73273454D01*
X162458426Y-73254158D01*
X162328495Y-73068597D01*
X162161403Y-72901506D01*
X162161396Y-72901501D01*
X161967835Y-72765967D01*
X161967831Y-72765965D01*
X161924379Y-72745703D01*
X161753664Y-72666097D01*
X161753660Y-72666096D01*
X161753656Y-72666094D01*
X161525414Y-72604938D01*
X161525404Y-72604936D01*
X161290002Y-72584341D01*
X161290000Y-72584341D01*
X161054597Y-72604936D01*
X161054587Y-72604938D01*
X160826345Y-72666094D01*
X160826336Y-72666098D01*
X160612172Y-72765964D01*
X160612170Y-72765965D01*
X160418598Y-72901505D01*
X160251506Y-73068597D01*
X160121576Y-73254158D01*
X160066999Y-73297783D01*
X159997501Y-73304977D01*
X159935146Y-73273454D01*
X159918426Y-73254158D01*
X159788495Y-73068597D01*
X159621403Y-72901506D01*
X159621396Y-72901501D01*
X159427835Y-72765967D01*
X159427831Y-72765965D01*
X159384379Y-72745703D01*
X159213664Y-72666097D01*
X159213660Y-72666096D01*
X159213656Y-72666094D01*
X158985414Y-72604938D01*
X158985404Y-72604936D01*
X158750002Y-72584341D01*
X158750000Y-72584341D01*
X158514597Y-72604936D01*
X158514587Y-72604938D01*
X158286345Y-72666094D01*
X158286336Y-72666098D01*
X158072172Y-72765964D01*
X158072170Y-72765965D01*
X157878601Y-72901503D01*
X157756674Y-73023430D01*
X157695351Y-73056914D01*
X157625659Y-73051930D01*
X157569726Y-73010058D01*
X157552811Y-72979081D01*
X157503798Y-72847671D01*
X157503794Y-72847664D01*
X157417548Y-72732455D01*
X157417545Y-72732452D01*
X157302336Y-72646206D01*
X157302329Y-72646202D01*
X157167483Y-72595908D01*
X157167484Y-72595908D01*
X157107884Y-72589501D01*
X157107882Y-72589500D01*
X157107874Y-72589500D01*
X157107865Y-72589500D01*
X155312130Y-72589500D01*
X155312124Y-72589501D01*
X155252517Y-72595908D01*
X155117672Y-72646202D01*
X155117665Y-72646206D01*
X155002456Y-72732452D01*
X155002453Y-72732455D01*
X154916207Y-72847664D01*
X154916203Y-72847671D01*
X154865909Y-72982517D01*
X154859502Y-73042116D01*
X154859501Y-73042135D01*
X154859501Y-73215500D01*
X154839816Y-73282539D01*
X154787012Y-73328294D01*
X154735501Y-73339500D01*
X154020942Y-73339500D01*
X153994337Y-73346628D01*
X153994338Y-73346629D01*
X153868215Y-73380423D01*
X153868210Y-73380426D01*
X153731291Y-73459475D01*
X153731283Y-73459481D01*
X150119482Y-77071282D01*
X150119480Y-77071285D01*
X150099591Y-77105734D01*
X150079702Y-77140184D01*
X150048725Y-77193836D01*
X150041548Y-77206269D01*
X150040424Y-77208215D01*
X149999500Y-77360943D01*
X149999500Y-77360945D01*
X149999500Y-77529046D01*
X149999501Y-77529059D01*
X149999501Y-78023330D01*
X149999500Y-78023348D01*
X149999500Y-78189054D01*
X149999499Y-78189054D01*
X150040424Y-78341786D01*
X150040425Y-78341787D01*
X150056608Y-78369816D01*
X150062776Y-78380500D01*
X150119481Y-78478716D01*
X150119483Y-78478718D01*
X150238350Y-78597585D01*
X150238356Y-78597590D01*
X151213182Y-79572416D01*
X151246667Y-79633739D01*
X151249501Y-79660097D01*
X151249501Y-91699903D01*
X151229816Y-91766942D01*
X151213182Y-91787584D01*
X150877585Y-92123181D01*
X150816262Y-92156666D01*
X150789904Y-92159500D01*
X149809210Y-92159500D01*
X149743238Y-92140494D01*
X149682310Y-92102210D01*
X149527991Y-92048212D01*
X149365540Y-92029909D01*
X149365532Y-92029909D01*
X149203080Y-92048212D01*
X149048761Y-92102210D01*
X148910331Y-92189192D01*
X148794728Y-92304795D01*
X148707746Y-92443225D01*
X148653748Y-92597544D01*
X148635445Y-92759996D01*
X148635445Y-92760003D01*
X148653748Y-92922455D01*
X148707746Y-93076774D01*
X148707747Y-93076775D01*
X148794728Y-93215204D01*
X148910332Y-93330808D01*
X149048761Y-93417789D01*
X149203075Y-93471786D01*
X149203078Y-93471786D01*
X149203080Y-93471787D01*
X149365532Y-93490091D01*
X149365536Y-93490091D01*
X149365540Y-93490091D01*
X149527991Y-93471787D01*
X149527992Y-93471786D01*
X149527997Y-93471786D01*
X149682311Y-93417789D01*
X149743238Y-93379505D01*
X149809210Y-93360500D01*
X151003332Y-93360500D01*
X151003348Y-93360501D01*
X151010944Y-93360501D01*
X151169055Y-93360501D01*
X151169058Y-93360501D01*
X151321786Y-93319577D01*
X151371905Y-93290639D01*
X151458717Y-93240520D01*
X151458720Y-93240516D01*
X151463502Y-93237756D01*
X151531402Y-93221285D01*
X151597429Y-93244137D01*
X151640619Y-93299059D01*
X151649501Y-93345144D01*
X151649501Y-99072591D01*
X151630495Y-99138563D01*
X151592211Y-99199490D01*
X151538213Y-99353810D01*
X151528178Y-99442873D01*
X151501111Y-99507286D01*
X151443516Y-99546841D01*
X151373679Y-99548978D01*
X151317277Y-99516669D01*
X151158963Y-99358355D01*
X151158961Y-99358352D01*
X148696820Y-96896211D01*
X148663335Y-96834888D01*
X148660501Y-96808530D01*
X148660501Y-95801764D01*
X148679508Y-95735791D01*
X148739923Y-95639642D01*
X148739923Y-95639641D01*
X148739924Y-95639640D01*
X148778254Y-95530099D01*
X148793919Y-95485333D01*
X148793919Y-95485330D01*
X148793921Y-95485326D01*
X148795795Y-95468692D01*
X148822858Y-95404280D01*
X148880451Y-95364722D01*
X148905129Y-95359353D01*
X148954246Y-95353819D01*
X149029251Y-95345369D01*
X149029254Y-95345368D01*
X149029256Y-95345368D01*
X149199523Y-95285789D01*
X149352263Y-95189816D01*
X149479817Y-95062262D01*
X149575790Y-94909522D01*
X149635369Y-94739255D01*
X149639208Y-94705185D01*
X149655566Y-94560003D01*
X149655566Y-94559996D01*
X149635370Y-94380750D01*
X149635369Y-94380745D01*
X149575790Y-94210478D01*
X149479817Y-94057738D01*
X149352263Y-93930184D01*
X149276860Y-93882805D01*
X149199524Y-93834211D01*
X149029255Y-93774631D01*
X149029250Y-93774630D01*
X148850005Y-93754435D01*
X148849997Y-93754435D01*
X148670751Y-93774630D01*
X148670746Y-93774631D01*
X148500477Y-93834211D01*
X148420473Y-93884482D01*
X148353236Y-93903482D01*
X148286401Y-93883114D01*
X148241187Y-93829846D01*
X148230501Y-93779488D01*
X148230501Y-92217345D01*
X148230500Y-92217338D01*
X148228742Y-92210777D01*
X148225968Y-92200423D01*
X148189578Y-92064615D01*
X148160640Y-92014495D01*
X148110521Y-91927684D01*
X147998717Y-91815880D01*
X147998716Y-91815879D01*
X147994386Y-91811549D01*
X147994375Y-91811539D01*
X147272147Y-91089311D01*
X147243562Y-91037591D01*
X147241789Y-91038212D01*
X147185492Y-90877327D01*
X147145214Y-90813225D01*
X147098510Y-90738896D01*
X146982906Y-90623292D01*
X146874545Y-90555204D01*
X146844476Y-90536310D01*
X146690157Y-90482312D01*
X146527706Y-90464009D01*
X146527698Y-90464009D01*
X146365246Y-90482312D01*
X146210927Y-90536310D01*
X146072497Y-90623292D01*
X145956894Y-90738895D01*
X145869912Y-90877325D01*
X145815914Y-91031644D01*
X145797611Y-91194096D01*
X145797611Y-91194103D01*
X145815914Y-91356555D01*
X145869912Y-91510874D01*
X145923824Y-91596674D01*
X145956894Y-91649304D01*
X146072498Y-91764908D01*
X146210927Y-91851889D01*
X146365241Y-91905886D01*
X146365242Y-91905886D01*
X146371815Y-91908186D01*
X146371193Y-91909962D01*
X146422910Y-91938544D01*
X146993182Y-92508816D01*
X147026667Y-92570139D01*
X147029501Y-92596497D01*
X147029501Y-93694857D01*
X147009816Y-93761896D01*
X146957012Y-93807651D01*
X146887854Y-93817595D01*
X146824298Y-93788570D01*
X146817820Y-93782538D01*
X146760740Y-93725458D01*
X146622313Y-93638478D01*
X146622309Y-93638476D01*
X146506202Y-93597848D01*
X146459476Y-93568488D01*
X145664343Y-92773355D01*
X145664341Y-92773352D01*
X145545470Y-92654481D01*
X145545469Y-92654480D01*
X145451972Y-92600500D01*
X145408538Y-92575423D01*
X145255810Y-92534499D01*
X145097696Y-92534499D01*
X145090100Y-92534499D01*
X145090084Y-92534500D01*
X141469210Y-92534500D01*
X141403238Y-92515494D01*
X141342310Y-92477210D01*
X141187991Y-92423212D01*
X141025540Y-92404909D01*
X141025532Y-92404909D01*
X140863080Y-92423212D01*
X140708761Y-92477210D01*
X140570331Y-92564192D01*
X140454728Y-92679795D01*
X140367745Y-92818227D01*
X140327330Y-92933726D01*
X140286609Y-92990502D01*
X140276262Y-92997764D01*
X140210335Y-93039189D01*
X140210333Y-93039190D01*
X140094728Y-93154795D01*
X140007748Y-93293222D01*
X139981421Y-93368457D01*
X139940698Y-93425232D01*
X139930353Y-93432493D01*
X139800333Y-93514190D01*
X139684728Y-93629795D01*
X139684726Y-93629798D01*
X139669494Y-93654040D01*
X139617159Y-93700331D01*
X139548106Y-93710978D01*
X139484257Y-93682603D01*
X139445886Y-93624212D01*
X139440501Y-93588067D01*
X139440501Y-89815196D01*
X143225636Y-89815196D01*
X143225636Y-89815203D01*
X143245831Y-89994449D01*
X143245832Y-89994454D01*
X143305412Y-90164723D01*
X143401385Y-90317462D01*
X143528939Y-90445016D01*
X143681679Y-90540989D01*
X143851946Y-90600568D01*
X143851951Y-90600569D01*
X144031197Y-90620765D01*
X144031201Y-90620765D01*
X144031205Y-90620765D01*
X144210450Y-90600569D01*
X144210453Y-90600568D01*
X144210456Y-90600568D01*
X144380723Y-90540989D01*
X144533463Y-90445016D01*
X144661017Y-90317462D01*
X144756990Y-90164722D01*
X144816569Y-89994455D01*
X144816570Y-89994449D01*
X144836766Y-89815203D01*
X144836766Y-89815196D01*
X144816570Y-89635950D01*
X144816569Y-89635945D01*
X144802524Y-89595807D01*
X144756990Y-89465678D01*
X144661017Y-89312938D01*
X144655275Y-89307196D01*
X146070436Y-89307196D01*
X146070436Y-89307203D01*
X146090631Y-89486449D01*
X146090632Y-89486454D01*
X146150212Y-89656723D01*
X146204565Y-89743225D01*
X146246185Y-89809462D01*
X146373739Y-89937016D01*
X146526479Y-90032989D01*
X146603661Y-90059996D01*
X146696746Y-90092568D01*
X146696751Y-90092569D01*
X146875997Y-90112765D01*
X146876001Y-90112765D01*
X146876005Y-90112765D01*
X147055250Y-90092569D01*
X147055253Y-90092568D01*
X147055256Y-90092568D01*
X147225523Y-90032989D01*
X147378263Y-89937016D01*
X147505817Y-89809462D01*
X147601790Y-89656722D01*
X147661369Y-89486455D01*
X147663710Y-89465678D01*
X147681566Y-89307203D01*
X147681566Y-89307196D01*
X147661370Y-89127950D01*
X147661369Y-89127945D01*
X147636570Y-89057073D01*
X147601790Y-88957678D01*
X147601784Y-88957669D01*
X147542735Y-88863693D01*
X147505817Y-88804938D01*
X147378263Y-88677384D01*
X147332656Y-88648727D01*
X147225524Y-88581411D01*
X147055255Y-88521831D01*
X147055250Y-88521830D01*
X146876005Y-88501635D01*
X146875997Y-88501635D01*
X146696751Y-88521830D01*
X146696746Y-88521831D01*
X146526477Y-88581411D01*
X146373738Y-88677384D01*
X146246185Y-88804937D01*
X146150212Y-88957676D01*
X146090632Y-89127945D01*
X146090631Y-89127950D01*
X146070436Y-89307196D01*
X144655275Y-89307196D01*
X144533463Y-89185384D01*
X144498358Y-89163326D01*
X144380724Y-89089411D01*
X144210455Y-89029831D01*
X144210450Y-89029830D01*
X144031205Y-89009635D01*
X144031197Y-89009635D01*
X143851951Y-89029830D01*
X143851946Y-89029831D01*
X143681677Y-89089411D01*
X143528938Y-89185384D01*
X143401385Y-89312937D01*
X143305412Y-89465676D01*
X143245832Y-89635945D01*
X143245831Y-89635950D01*
X143225636Y-89815196D01*
X139440501Y-89815196D01*
X139440501Y-87884796D01*
X143022436Y-87884796D01*
X143022436Y-87884803D01*
X143042631Y-88064049D01*
X143042632Y-88064054D01*
X143102212Y-88234323D01*
X143190630Y-88375039D01*
X143198185Y-88387062D01*
X143325739Y-88514616D01*
X143416081Y-88571382D01*
X143467459Y-88603665D01*
X143478479Y-88610589D01*
X143587471Y-88648727D01*
X143648746Y-88670168D01*
X143648751Y-88670169D01*
X143827997Y-88690365D01*
X143828001Y-88690365D01*
X143828005Y-88690365D01*
X144007250Y-88670169D01*
X144007253Y-88670168D01*
X144007256Y-88670168D01*
X144177523Y-88610589D01*
X144330263Y-88514616D01*
X144457817Y-88387062D01*
X144553790Y-88234322D01*
X144613369Y-88064055D01*
X144624339Y-87966692D01*
X144633566Y-87884803D01*
X144633566Y-87884796D01*
X144613370Y-87705550D01*
X144613369Y-87705545D01*
X144553789Y-87535276D01*
X144481061Y-87419531D01*
X144457817Y-87382538D01*
X144330263Y-87254984D01*
X144177524Y-87159011D01*
X144007255Y-87099431D01*
X144007250Y-87099430D01*
X143828005Y-87079235D01*
X143827997Y-87079235D01*
X143648751Y-87099430D01*
X143648746Y-87099431D01*
X143478477Y-87159011D01*
X143325738Y-87254984D01*
X143198185Y-87382537D01*
X143102212Y-87535276D01*
X143042632Y-87705545D01*
X143042631Y-87705550D01*
X143022436Y-87884796D01*
X139440501Y-87884796D01*
X139440501Y-80569596D01*
X141854036Y-80569596D01*
X141854036Y-80569603D01*
X141874231Y-80748849D01*
X141874232Y-80748854D01*
X141933812Y-80919123D01*
X142014699Y-81047853D01*
X142029785Y-81071862D01*
X142157339Y-81199416D01*
X142250239Y-81257789D01*
X142259688Y-81263726D01*
X142305979Y-81316061D01*
X142316936Y-81382602D01*
X142311236Y-81433195D01*
X142311236Y-81433203D01*
X142331431Y-81612449D01*
X142331432Y-81612454D01*
X142391012Y-81782723D01*
X142436720Y-81855466D01*
X142486985Y-81935462D01*
X142614539Y-82063016D01*
X142665284Y-82094901D01*
X142766844Y-82158716D01*
X142767279Y-82158989D01*
X142879086Y-82198112D01*
X142937546Y-82218568D01*
X142937551Y-82218569D01*
X143116797Y-82238765D01*
X143116801Y-82238765D01*
X143116805Y-82238765D01*
X143296050Y-82218569D01*
X143296053Y-82218568D01*
X143296056Y-82218568D01*
X143466323Y-82158989D01*
X143619063Y-82063016D01*
X143746617Y-81935462D01*
X143842590Y-81782722D01*
X143902169Y-81612455D01*
X143908133Y-81559522D01*
X143922366Y-81433203D01*
X143922366Y-81433196D01*
X143902170Y-81253950D01*
X143902169Y-81253945D01*
X143886791Y-81209996D01*
X144254436Y-81209996D01*
X144254436Y-81210003D01*
X144274631Y-81389249D01*
X144274632Y-81389254D01*
X144334212Y-81559523D01*
X144403331Y-81669524D01*
X144430185Y-81712262D01*
X144557739Y-81839816D01*
X144567245Y-81845789D01*
X144709958Y-81935462D01*
X144710479Y-81935789D01*
X144833072Y-81978686D01*
X144880746Y-81995368D01*
X144880751Y-81995369D01*
X145059997Y-82015565D01*
X145060001Y-82015565D01*
X145060005Y-82015565D01*
X145239250Y-81995369D01*
X145239253Y-81995368D01*
X145239256Y-81995368D01*
X145409523Y-81935789D01*
X145562263Y-81839816D01*
X145689817Y-81712262D01*
X145785790Y-81559522D01*
X145823705Y-81451166D01*
X145864427Y-81394391D01*
X145929379Y-81368643D01*
X145997941Y-81382099D01*
X146048344Y-81430486D01*
X146057789Y-81451167D01*
X146064211Y-81469521D01*
X146085471Y-81503356D01*
X146160185Y-81622262D01*
X146287739Y-81749816D01*
X146440479Y-81845789D01*
X146578327Y-81894024D01*
X146610746Y-81905368D01*
X146610751Y-81905369D01*
X146789997Y-81925565D01*
X146790001Y-81925565D01*
X146790005Y-81925565D01*
X146969250Y-81905369D01*
X146969253Y-81905368D01*
X146969256Y-81905368D01*
X147139523Y-81845789D01*
X147292263Y-81749816D01*
X147419817Y-81622262D01*
X147515790Y-81469522D01*
X147575369Y-81299255D01*
X147583011Y-81231422D01*
X147610076Y-81167013D01*
X147667671Y-81127457D01*
X147737507Y-81125318D01*
X147747187Y-81128268D01*
X147814341Y-81151767D01*
X147814351Y-81151769D01*
X147993597Y-81171965D01*
X147993601Y-81171965D01*
X147993605Y-81171965D01*
X148172850Y-81151769D01*
X148172853Y-81151768D01*
X148172856Y-81151768D01*
X148343123Y-81092189D01*
X148495863Y-80996216D01*
X148623417Y-80868662D01*
X148719390Y-80715922D01*
X148778969Y-80545655D01*
X148788343Y-80462461D01*
X148799166Y-80366403D01*
X148799166Y-80366396D01*
X148778970Y-80187150D01*
X148778969Y-80187145D01*
X148719389Y-80016876D01*
X148659961Y-79922297D01*
X148623417Y-79864138D01*
X148495863Y-79736584D01*
X148343124Y-79640611D01*
X148172855Y-79581031D01*
X148172850Y-79581030D01*
X147993605Y-79560835D01*
X147993597Y-79560835D01*
X147814351Y-79581030D01*
X147814346Y-79581031D01*
X147644077Y-79640611D01*
X147491338Y-79736584D01*
X147363785Y-79864137D01*
X147267812Y-80016876D01*
X147208232Y-80187145D01*
X147208231Y-80187149D01*
X147200590Y-80254973D01*
X147173523Y-80319387D01*
X147115929Y-80358942D01*
X147046092Y-80361079D01*
X147036417Y-80358131D01*
X146969261Y-80334633D01*
X146969250Y-80334630D01*
X146790005Y-80314435D01*
X146789997Y-80314435D01*
X146610751Y-80334630D01*
X146610746Y-80334631D01*
X146440477Y-80394211D01*
X146287738Y-80490184D01*
X146160185Y-80617737D01*
X146064209Y-80770480D01*
X146026295Y-80878833D01*
X145985573Y-80935609D01*
X145920620Y-80961356D01*
X145852059Y-80947899D01*
X145801656Y-80899512D01*
X145792213Y-80878836D01*
X145785790Y-80860478D01*
X145689817Y-80707738D01*
X145562263Y-80580184D01*
X145409524Y-80484211D01*
X145239255Y-80424631D01*
X145239250Y-80424630D01*
X145060005Y-80404435D01*
X145059997Y-80404435D01*
X144880751Y-80424630D01*
X144880746Y-80424631D01*
X144710477Y-80484211D01*
X144557738Y-80580184D01*
X144430185Y-80707737D01*
X144334212Y-80860476D01*
X144274632Y-81030745D01*
X144274631Y-81030750D01*
X144254436Y-81209996D01*
X143886791Y-81209996D01*
X143884766Y-81204210D01*
X143842590Y-81083678D01*
X143746617Y-80930938D01*
X143619063Y-80803384D01*
X143566697Y-80770480D01*
X143516713Y-80739073D01*
X143470422Y-80686738D01*
X143459465Y-80620194D01*
X143459851Y-80616775D01*
X143465166Y-80569600D01*
X143462468Y-80545655D01*
X143444970Y-80390350D01*
X143444969Y-80390345D01*
X143433697Y-80358131D01*
X143385390Y-80220078D01*
X143289417Y-80067338D01*
X143167043Y-79944964D01*
X143133558Y-79883641D01*
X143138542Y-79813949D01*
X143180414Y-79758016D01*
X143188743Y-79752294D01*
X143272263Y-79699816D01*
X143399817Y-79572262D01*
X143495790Y-79419522D01*
X143555369Y-79249255D01*
X143567222Y-79144055D01*
X143575566Y-79070003D01*
X143575566Y-79069996D01*
X143555370Y-78890750D01*
X143555369Y-78890745D01*
X143522995Y-78798225D01*
X143495790Y-78720478D01*
X143399817Y-78567738D01*
X143349760Y-78517681D01*
X143316275Y-78456358D01*
X143321259Y-78386666D01*
X143349760Y-78342319D01*
X143399760Y-78292319D01*
X143449817Y-78242262D01*
X143545790Y-78089522D01*
X143605369Y-77919255D01*
X143605370Y-77919249D01*
X143625566Y-77740003D01*
X143625566Y-77739996D01*
X143605370Y-77560750D01*
X143605369Y-77560745D01*
X143563401Y-77440807D01*
X143545790Y-77390478D01*
X143449817Y-77237738D01*
X143322263Y-77110184D01*
X143169524Y-77014211D01*
X142999255Y-76954631D01*
X142999250Y-76954630D01*
X142820005Y-76934435D01*
X142819997Y-76934435D01*
X142640751Y-76954630D01*
X142640746Y-76954631D01*
X142470477Y-77014211D01*
X142317738Y-77110184D01*
X142190185Y-77237737D01*
X142094212Y-77390476D01*
X142034632Y-77560745D01*
X142034631Y-77560750D01*
X142014436Y-77739996D01*
X142014436Y-77740003D01*
X142034631Y-77919249D01*
X142034632Y-77919254D01*
X142094212Y-78089523D01*
X142190185Y-78242262D01*
X142240242Y-78292319D01*
X142273727Y-78353642D01*
X142268743Y-78423334D01*
X142240242Y-78467681D01*
X142140185Y-78567737D01*
X142044212Y-78720476D01*
X141984632Y-78890745D01*
X141984631Y-78890750D01*
X141964436Y-79069996D01*
X141964436Y-79070003D01*
X141984631Y-79249249D01*
X141984632Y-79249254D01*
X142044212Y-79419523D01*
X142140185Y-79572262D01*
X142262558Y-79694635D01*
X142296043Y-79755958D01*
X142291059Y-79825650D01*
X142249187Y-79881583D01*
X142240850Y-79887309D01*
X142157341Y-79939782D01*
X142157338Y-79939784D01*
X142029785Y-80067337D01*
X141933812Y-80220076D01*
X141874232Y-80390345D01*
X141874231Y-80390350D01*
X141854036Y-80569596D01*
X139440501Y-80569596D01*
X139440501Y-73891469D01*
X139460186Y-73824430D01*
X139476820Y-73803788D01*
X140703790Y-72576819D01*
X140765113Y-72543334D01*
X140791471Y-72540500D01*
X141248957Y-72540500D01*
X141315996Y-72560185D01*
X141361751Y-72612989D01*
X141371695Y-72682147D01*
X141342670Y-72745703D01*
X141289912Y-72781542D01*
X141141677Y-72833411D01*
X140988938Y-72929384D01*
X140861385Y-73056937D01*
X140765412Y-73209676D01*
X140705832Y-73379945D01*
X140705831Y-73379950D01*
X140685636Y-73559196D01*
X140685636Y-73559203D01*
X140705831Y-73738449D01*
X140705832Y-73738454D01*
X140765412Y-73908723D01*
X140830112Y-74011692D01*
X140861385Y-74061462D01*
X140988939Y-74189016D01*
X141141679Y-74284989D01*
X141299174Y-74340099D01*
X141311946Y-74344568D01*
X141311951Y-74344569D01*
X141491197Y-74364765D01*
X141491201Y-74364765D01*
X141491205Y-74364765D01*
X141670450Y-74344569D01*
X141670453Y-74344568D01*
X141670456Y-74344568D01*
X141840723Y-74284989D01*
X141993463Y-74189016D01*
X142121017Y-74061462D01*
X142216990Y-73908722D01*
X142276569Y-73738455D01*
X142278648Y-73720003D01*
X142296766Y-73559203D01*
X142296766Y-73559196D01*
X142276570Y-73379950D01*
X142276569Y-73379945D01*
X142262417Y-73339500D01*
X142216990Y-73209678D01*
X142121017Y-73056938D01*
X141993463Y-72929384D01*
X141949708Y-72901891D01*
X141840724Y-72833411D01*
X141692490Y-72781542D01*
X141635714Y-72740820D01*
X141609967Y-72675867D01*
X141623423Y-72607305D01*
X141671810Y-72556903D01*
X141733445Y-72540500D01*
X144524704Y-72540500D01*
X144524720Y-72540501D01*
X144532316Y-72540501D01*
X144690427Y-72540501D01*
X144690430Y-72540501D01*
X144843158Y-72499577D01*
X144911428Y-72460161D01*
X144980089Y-72420520D01*
X145091893Y-72308716D01*
X145091893Y-72308714D01*
X145102097Y-72298511D01*
X145102101Y-72298506D01*
X145538507Y-71862100D01*
X145538512Y-71862096D01*
X145548715Y-71851892D01*
X145548717Y-71851892D01*
X145660521Y-71740088D01*
X145739578Y-71603156D01*
X145775118Y-71470520D01*
X145780501Y-71450430D01*
X145780501Y-71292315D01*
X145780501Y-71134783D01*
X145800186Y-71067744D01*
X145852990Y-71021989D01*
X145922148Y-71012045D01*
X145985704Y-71041070D01*
X145992179Y-71047099D01*
X146815599Y-71870520D01*
X146815601Y-71870521D01*
X146815605Y-71870524D01*
X146952524Y-71949573D01*
X146952531Y-71949577D01*
X147105258Y-71990501D01*
X147105260Y-71990501D01*
X147270969Y-71990501D01*
X147270985Y-71990500D01*
X167743126Y-71990500D01*
X167810165Y-72010185D01*
X167830807Y-72026819D01*
X167870697Y-72066709D01*
X168009126Y-72153690D01*
X168163440Y-72207687D01*
X168163443Y-72207687D01*
X168163445Y-72207688D01*
X168325897Y-72225992D01*
X168325901Y-72225992D01*
X168325905Y-72225992D01*
X168488356Y-72207688D01*
X168488357Y-72207687D01*
X168488362Y-72207687D01*
X168642676Y-72153690D01*
X168659527Y-72143101D01*
X168726762Y-72124100D01*
X168793598Y-72144466D01*
X168838814Y-72197733D01*
X168849501Y-72248094D01*
X168849501Y-83663330D01*
X168849500Y-83663348D01*
X168849500Y-83829054D01*
X168849499Y-83829054D01*
X168890424Y-83981785D01*
X168901486Y-84000944D01*
X168901487Y-84000947D01*
X168969476Y-84118709D01*
X168969482Y-84118717D01*
X169088350Y-84237585D01*
X169088356Y-84237590D01*
X170250140Y-85399374D01*
X170250150Y-85399385D01*
X170254480Y-85403715D01*
X170254481Y-85403716D01*
X170366285Y-85515520D01*
X170366287Y-85515521D01*
X170366291Y-85515524D01*
X170488155Y-85585881D01*
X170503217Y-85594577D01*
X170567596Y-85611827D01*
X170627255Y-85648190D01*
X170657785Y-85711037D01*
X170659502Y-85731601D01*
X170659502Y-85932876D01*
X170665909Y-85992483D01*
X170716203Y-86127328D01*
X170716207Y-86127335D01*
X170802453Y-86242544D01*
X170802456Y-86242547D01*
X170917665Y-86328793D01*
X170917672Y-86328797D01*
X171052518Y-86379091D01*
X171052517Y-86379091D01*
X171059445Y-86379835D01*
X171112128Y-86385500D01*
X172907873Y-86385499D01*
X172967484Y-86379091D01*
X173102332Y-86328796D01*
X173217547Y-86242546D01*
X173303797Y-86127331D01*
X173354092Y-85992483D01*
X173360501Y-85932873D01*
X173360500Y-84137128D01*
X173354092Y-84077517D01*
X173330912Y-84015369D01*
X173303798Y-83942671D01*
X173303794Y-83942664D01*
X173217548Y-83827455D01*
X173217545Y-83827452D01*
X173102336Y-83741206D01*
X173102329Y-83741202D01*
X172970402Y-83691997D01*
X172914468Y-83650126D01*
X172890051Y-83584662D01*
X172904903Y-83516389D01*
X172926054Y-83488133D01*
X173048109Y-83366078D01*
X173183601Y-83172578D01*
X173283430Y-82958492D01*
X173283433Y-82958486D01*
X173340637Y-82745000D01*
X172443013Y-82745000D01*
X172475926Y-82687993D01*
X172510001Y-82560826D01*
X172510001Y-82429174D01*
X172475926Y-82302007D01*
X172443013Y-82245000D01*
X173340637Y-82245000D01*
X173340636Y-82244999D01*
X173283433Y-82031513D01*
X173283430Y-82031507D01*
X173183601Y-81817422D01*
X173183600Y-81817420D01*
X173048114Y-81623926D01*
X173048109Y-81623920D01*
X172881083Y-81456894D01*
X172687579Y-81321399D01*
X172473493Y-81221570D01*
X172473487Y-81221567D01*
X172260001Y-81164364D01*
X172260001Y-82061988D01*
X172202994Y-82029075D01*
X172075827Y-81995000D01*
X171944175Y-81995000D01*
X171817008Y-82029075D01*
X171760001Y-82061988D01*
X171760001Y-81164364D01*
X171760000Y-81164364D01*
X171546514Y-81221567D01*
X171546508Y-81221570D01*
X171332423Y-81321399D01*
X171332421Y-81321400D01*
X171138927Y-81456886D01*
X171138921Y-81456891D01*
X170971892Y-81623920D01*
X170971887Y-81623926D01*
X170836401Y-81817420D01*
X170836400Y-81817422D01*
X170736571Y-82031507D01*
X170736568Y-82031513D01*
X170679365Y-82244999D01*
X170679365Y-82245000D01*
X171576989Y-82245000D01*
X171544076Y-82302007D01*
X171510001Y-82429174D01*
X171510001Y-82560826D01*
X171544076Y-82687993D01*
X171576989Y-82745000D01*
X170679365Y-82745000D01*
X170736568Y-82958486D01*
X170736571Y-82958492D01*
X170836400Y-83172578D01*
X170971895Y-83366082D01*
X171093947Y-83488134D01*
X171127432Y-83549457D01*
X171122448Y-83619149D01*
X171080576Y-83675082D01*
X171049599Y-83691997D01*
X170917672Y-83741202D01*
X170917665Y-83741206D01*
X170802456Y-83827452D01*
X170802453Y-83827455D01*
X170710889Y-83949769D01*
X170709791Y-83948947D01*
X170666952Y-83991778D01*
X170598677Y-84006622D01*
X170533216Y-83982198D01*
X170519856Y-83970620D01*
X170086820Y-83537584D01*
X170053335Y-83476261D01*
X170050501Y-83449903D01*
X170050501Y-75955449D01*
X170070186Y-75888410D01*
X170122990Y-75842655D01*
X170192148Y-75832711D01*
X170205392Y-75835428D01*
X170205942Y-75835500D01*
X170205944Y-75835501D01*
X170205946Y-75835501D01*
X170371654Y-75835501D01*
X170371670Y-75835500D01*
X170700910Y-75835500D01*
X170767949Y-75855185D01*
X170813293Y-75907097D01*
X170815966Y-75912830D01*
X170951502Y-76106396D01*
X170951507Y-76106402D01*
X171073431Y-76228326D01*
X171106916Y-76289649D01*
X171101932Y-76359341D01*
X171060060Y-76415274D01*
X171029084Y-76432189D01*
X170897670Y-76481203D01*
X170897665Y-76481206D01*
X170782456Y-76567452D01*
X170782453Y-76567455D01*
X170696207Y-76682664D01*
X170696203Y-76682671D01*
X170645909Y-76817517D01*
X170640267Y-76870000D01*
X170639502Y-76877123D01*
X170639501Y-76877135D01*
X170639501Y-78672870D01*
X170639502Y-78672876D01*
X170645909Y-78732483D01*
X170696203Y-78867328D01*
X170696207Y-78867335D01*
X170782453Y-78982544D01*
X170782456Y-78982547D01*
X170897665Y-79068793D01*
X170897672Y-79068797D01*
X171032518Y-79119091D01*
X171032517Y-79119091D01*
X171039445Y-79119835D01*
X171092128Y-79125500D01*
X172887873Y-79125499D01*
X172947484Y-79119091D01*
X173082332Y-79068796D01*
X173197547Y-78982546D01*
X173283797Y-78867331D01*
X173334092Y-78732483D01*
X173340501Y-78672873D01*
X173340500Y-76877128D01*
X173334092Y-76817517D01*
X173283797Y-76682669D01*
X173283796Y-76682668D01*
X173283794Y-76682664D01*
X173197548Y-76567455D01*
X173197545Y-76567452D01*
X173082336Y-76481206D01*
X173082329Y-76481202D01*
X172950918Y-76432189D01*
X172894984Y-76390318D01*
X172870567Y-76324853D01*
X172885419Y-76256580D01*
X172906564Y-76228332D01*
X173028496Y-76106401D01*
X173164036Y-75912830D01*
X173263904Y-75698663D01*
X173325064Y-75470408D01*
X173345660Y-75235000D01*
X173325064Y-74999592D01*
X173263904Y-74771337D01*
X173164036Y-74557171D01*
X173164035Y-74557169D01*
X173028495Y-74363597D01*
X172861403Y-74196506D01*
X172861402Y-74196505D01*
X172675406Y-74066269D01*
X172631782Y-74011692D01*
X172624589Y-73942193D01*
X172656111Y-73879839D01*
X172675406Y-73863119D01*
X172861083Y-73733105D01*
X173028106Y-73566082D01*
X173163601Y-73372578D01*
X173263430Y-73158492D01*
X173263433Y-73158486D01*
X173320637Y-72945000D01*
X172423013Y-72945000D01*
X172455926Y-72887993D01*
X172490001Y-72760826D01*
X172490001Y-72629174D01*
X172455926Y-72502007D01*
X172423013Y-72445000D01*
X173320637Y-72445000D01*
X173320636Y-72444999D01*
X173263433Y-72231513D01*
X173263430Y-72231507D01*
X173163601Y-72017422D01*
X173163600Y-72017420D01*
X173028114Y-71823926D01*
X173028109Y-71823920D01*
X172861083Y-71656894D01*
X172667579Y-71521399D01*
X172453493Y-71421570D01*
X172453487Y-71421567D01*
X172240001Y-71364364D01*
X172240001Y-72261988D01*
X172182994Y-72229075D01*
X172055827Y-72195000D01*
X171924175Y-72195000D01*
X171797008Y-72229075D01*
X171740001Y-72261988D01*
X171740001Y-71364364D01*
X171740000Y-71364364D01*
X171526514Y-71421567D01*
X171526508Y-71421570D01*
X171312423Y-71521399D01*
X171312421Y-71521400D01*
X171118927Y-71656886D01*
X171118921Y-71656891D01*
X170951892Y-71823920D01*
X170951887Y-71823926D01*
X170816401Y-72017420D01*
X170816400Y-72017422D01*
X170716571Y-72231507D01*
X170716568Y-72231513D01*
X170694276Y-72314711D01*
X170657911Y-72374371D01*
X170595064Y-72404900D01*
X170525688Y-72396605D01*
X170471811Y-72352120D01*
X170450536Y-72285568D01*
X170450501Y-72282617D01*
X170450501Y-71343373D01*
X170450502Y-71343360D01*
X170450502Y-71175259D01*
X170450502Y-71175257D01*
X170409578Y-71022529D01*
X170372735Y-70958716D01*
X170372735Y-70958714D01*
X170330525Y-70885604D01*
X170330522Y-70885600D01*
X170330521Y-70885598D01*
X170218717Y-70773794D01*
X170218716Y-70773793D01*
X170214386Y-70769463D01*
X170214375Y-70769453D01*
X169673277Y-70228355D01*
X169673275Y-70228352D01*
X169549045Y-70104122D01*
X169515560Y-70042799D01*
X169520544Y-69973107D01*
X169562416Y-69917174D01*
X169627880Y-69892757D01*
X169649985Y-69893152D01*
X169667164Y-69894999D01*
X169667173Y-69895000D01*
X170465001Y-69895000D01*
X170465001Y-68856879D01*
X170512359Y-68884222D01*
X170645883Y-68920000D01*
X170784119Y-68920000D01*
X170917643Y-68884222D01*
X170965001Y-68856879D01*
X170965001Y-69895000D01*
X171762829Y-69895000D01*
X171762845Y-69894999D01*
X171822373Y-69888598D01*
X171822380Y-69888596D01*
X171957087Y-69838354D01*
X171957094Y-69838350D01*
X172072188Y-69752190D01*
X172072191Y-69752187D01*
X172158351Y-69637093D01*
X172158355Y-69637086D01*
X172208597Y-69502379D01*
X172208599Y-69502372D01*
X172215000Y-69442844D01*
X172215001Y-69442827D01*
X172215001Y-68645000D01*
X171176881Y-68645000D01*
X171204223Y-68597642D01*
X171240001Y-68464118D01*
X171240001Y-68325882D01*
X171204223Y-68192358D01*
X171176881Y-68145000D01*
X172215001Y-68145000D01*
X172215001Y-67347172D01*
X172215000Y-67347155D01*
X172208599Y-67287627D01*
X172208597Y-67287620D01*
X172158355Y-67152913D01*
X172158351Y-67152906D01*
X172072191Y-67037812D01*
X172072188Y-67037809D01*
X171957094Y-66951649D01*
X171957087Y-66951645D01*
X171822380Y-66901403D01*
X171822373Y-66901401D01*
X171762845Y-66895000D01*
X170965001Y-66895000D01*
X170965001Y-67933120D01*
X170917643Y-67905778D01*
X170784119Y-67870000D01*
X170645883Y-67870000D01*
X170512359Y-67905778D01*
X170465001Y-67933120D01*
X170465001Y-66895000D01*
X169667156Y-66895000D01*
X169607628Y-66901401D01*
X169607621Y-66901403D01*
X169472914Y-66951645D01*
X169472907Y-66951649D01*
X169357813Y-67037809D01*
X169357810Y-67037812D01*
X169271650Y-67152906D01*
X169271646Y-67152913D01*
X169221404Y-67287620D01*
X169221402Y-67287627D01*
X169215001Y-67347155D01*
X169215001Y-68145000D01*
X170253121Y-68145000D01*
X170225779Y-68192358D01*
X170190001Y-68325882D01*
X170190001Y-68464118D01*
X170225779Y-68597642D01*
X170253121Y-68645000D01*
X169215001Y-68645000D01*
X169215001Y-69442844D01*
X169221402Y-69502372D01*
X169221404Y-69502379D01*
X169271646Y-69637086D01*
X169271650Y-69637093D01*
X169357810Y-69752186D01*
X169388386Y-69775076D01*
X169430257Y-69831010D01*
X169435241Y-69900702D01*
X169401756Y-69962025D01*
X169340432Y-69995509D01*
X169281983Y-69994118D01*
X169264746Y-69989499D01*
X169264744Y-69989499D01*
X169106630Y-69989499D01*
X169099034Y-69989499D01*
X169099018Y-69989500D01*
X168942703Y-69989500D01*
X168875664Y-69969815D01*
X168829909Y-69917011D01*
X168825661Y-69906454D01*
X168821006Y-69893152D01*
X168787790Y-69798225D01*
X168700809Y-69659796D01*
X168585205Y-69544192D01*
X168550891Y-69522631D01*
X168446775Y-69457210D01*
X168292456Y-69403212D01*
X168130005Y-69384909D01*
X168129997Y-69384909D01*
X167967545Y-69403212D01*
X167813226Y-69457210D01*
X167674796Y-69544192D01*
X167665808Y-69553181D01*
X167604485Y-69586666D01*
X167578127Y-69589500D01*
X162337278Y-69589500D01*
X162270239Y-69569815D01*
X162224484Y-69517011D01*
X162213989Y-69452240D01*
X162215000Y-69442834D01*
X162215001Y-69442827D01*
X162215001Y-68645000D01*
X161176881Y-68645000D01*
X161204223Y-68597642D01*
X161240001Y-68464118D01*
X161240001Y-68325882D01*
X161204223Y-68192358D01*
X161176881Y-68145000D01*
X162215001Y-68145000D01*
X162215001Y-67347172D01*
X162215000Y-67347155D01*
X162208599Y-67287627D01*
X162208597Y-67287620D01*
X162158355Y-67152913D01*
X162158351Y-67152906D01*
X162072191Y-67037812D01*
X162072188Y-67037809D01*
X161957094Y-66951649D01*
X161957087Y-66951645D01*
X161822380Y-66901403D01*
X161822373Y-66901401D01*
X161762845Y-66895000D01*
X160965001Y-66895000D01*
X160965001Y-67933120D01*
X160917643Y-67905778D01*
X160784119Y-67870000D01*
X160645883Y-67870000D01*
X160512359Y-67905778D01*
X160465001Y-67933120D01*
X160465001Y-66895000D01*
X159667156Y-66895000D01*
X159607628Y-66901401D01*
X159607621Y-66901403D01*
X159472914Y-66951645D01*
X159472907Y-66951649D01*
X159357813Y-67037809D01*
X159357810Y-67037812D01*
X159271650Y-67152906D01*
X159271646Y-67152913D01*
X159221404Y-67287620D01*
X159221402Y-67287627D01*
X159215001Y-67347155D01*
X159215001Y-68145000D01*
X160253121Y-68145000D01*
X160225779Y-68192358D01*
X160190001Y-68325882D01*
X160190001Y-68464118D01*
X160225779Y-68597642D01*
X160253121Y-68645000D01*
X159215001Y-68645000D01*
X159215001Y-69442834D01*
X159216013Y-69452240D01*
X159203610Y-69521000D01*
X159156002Y-69572139D01*
X159092724Y-69589500D01*
X152337278Y-69589500D01*
X152270239Y-69569815D01*
X152224484Y-69517011D01*
X152213989Y-69452240D01*
X152215000Y-69442834D01*
X152215001Y-69442827D01*
X152215001Y-68645000D01*
X151176881Y-68645000D01*
X151204223Y-68597642D01*
X151240001Y-68464118D01*
X151240001Y-68325882D01*
X151204223Y-68192358D01*
X151176881Y-68145000D01*
X152215001Y-68145000D01*
X152215001Y-67347172D01*
X152215000Y-67347155D01*
X152208599Y-67287627D01*
X152208597Y-67287620D01*
X152158355Y-67152913D01*
X152158351Y-67152906D01*
X152072191Y-67037812D01*
X152072188Y-67037809D01*
X151957094Y-66951649D01*
X151957087Y-66951645D01*
X151822380Y-66901403D01*
X151822373Y-66901401D01*
X151762845Y-66895000D01*
X150965001Y-66895000D01*
X150965001Y-67933120D01*
X150917643Y-67905778D01*
X150784119Y-67870000D01*
X150645883Y-67870000D01*
X150512359Y-67905778D01*
X150465001Y-67933120D01*
X150465001Y-66895000D01*
X149667156Y-66895000D01*
X149607628Y-66901401D01*
X149607621Y-66901403D01*
X149472914Y-66951645D01*
X149472907Y-66951649D01*
X149357813Y-67037809D01*
X149357810Y-67037812D01*
X149271650Y-67152906D01*
X149271646Y-67152913D01*
X149221404Y-67287620D01*
X149221402Y-67287627D01*
X149215001Y-67347155D01*
X149215001Y-67679006D01*
X149195316Y-67746045D01*
X149142512Y-67791800D01*
X149073354Y-67801744D01*
X149009798Y-67772719D01*
X148989426Y-67750129D01*
X148958126Y-67705428D01*
X148958125Y-67705427D01*
X148377551Y-68286001D01*
X148357631Y-68211657D01*
X148295096Y-68103343D01*
X148206658Y-68014905D01*
X148098344Y-67952370D01*
X148023998Y-67932449D01*
X148604572Y-67351874D01*
X148542388Y-67308333D01*
X148344160Y-67215898D01*
X148344151Y-67215894D01*
X148132895Y-67159289D01*
X148132885Y-67159287D01*
X147915002Y-67140225D01*
X147915000Y-67140225D01*
X147697116Y-67159287D01*
X147697106Y-67159289D01*
X147536594Y-67202298D01*
X147466744Y-67200635D01*
X147408882Y-67161472D01*
X147381378Y-67097244D01*
X147380501Y-67082523D01*
X147380501Y-61672155D01*
X149215001Y-61672155D01*
X149215001Y-62470000D01*
X150253121Y-62470000D01*
X150225779Y-62517358D01*
X150190001Y-62650882D01*
X150190001Y-62789118D01*
X150225779Y-62922642D01*
X150253121Y-62970000D01*
X149215001Y-62970000D01*
X149215001Y-63767844D01*
X149221402Y-63827372D01*
X149221404Y-63827379D01*
X149271646Y-63962086D01*
X149271650Y-63962093D01*
X149357810Y-64077187D01*
X149357813Y-64077190D01*
X149472907Y-64163350D01*
X149472914Y-64163354D01*
X149607621Y-64213596D01*
X149607628Y-64213598D01*
X149667156Y-64219999D01*
X149667173Y-64220000D01*
X150465001Y-64220000D01*
X150465001Y-63181879D01*
X150512359Y-63209222D01*
X150645883Y-63245000D01*
X150784119Y-63245000D01*
X150917643Y-63209222D01*
X150965001Y-63181879D01*
X150965001Y-64220000D01*
X151762829Y-64220000D01*
X151762845Y-64219999D01*
X151822373Y-64213598D01*
X151822380Y-64213596D01*
X151957087Y-64163354D01*
X151957094Y-64163350D01*
X152072188Y-64077190D01*
X152072191Y-64077187D01*
X152158351Y-63962093D01*
X152158355Y-63962086D01*
X152208597Y-63827379D01*
X152208599Y-63827372D01*
X152215000Y-63767844D01*
X152215001Y-63767827D01*
X152215001Y-62970000D01*
X151176881Y-62970000D01*
X151204223Y-62922642D01*
X151240001Y-62789118D01*
X151240001Y-62650882D01*
X151204223Y-62517358D01*
X151176881Y-62470000D01*
X152215001Y-62470000D01*
X152215001Y-61672172D01*
X152215000Y-61672155D01*
X152208599Y-61612627D01*
X152208597Y-61612620D01*
X152158355Y-61477913D01*
X152158351Y-61477906D01*
X152072191Y-61362812D01*
X152072188Y-61362809D01*
X151957094Y-61276649D01*
X151957087Y-61276645D01*
X151822380Y-61226403D01*
X151822373Y-61226401D01*
X151762845Y-61220000D01*
X150965001Y-61220000D01*
X150965001Y-62258120D01*
X150917643Y-62230778D01*
X150784119Y-62195000D01*
X150645883Y-62195000D01*
X150512359Y-62230778D01*
X150465001Y-62258120D01*
X150465001Y-61220000D01*
X149667156Y-61220000D01*
X149607628Y-61226401D01*
X149607621Y-61226403D01*
X149472914Y-61276645D01*
X149472907Y-61276649D01*
X149357813Y-61362809D01*
X149357810Y-61362812D01*
X149271650Y-61477906D01*
X149271646Y-61477913D01*
X149221404Y-61612620D01*
X149221402Y-61612627D01*
X149215001Y-61672155D01*
X147380501Y-61672155D01*
X147380501Y-60377308D01*
X147380502Y-60377295D01*
X147380502Y-60209192D01*
X147362593Y-60142357D01*
X147339578Y-60056464D01*
X147302623Y-59992455D01*
X147260525Y-59919538D01*
X147260519Y-59919530D01*
X146386196Y-59045207D01*
X146357614Y-58993489D01*
X146355838Y-58994111D01*
X146353539Y-58987541D01*
X146353539Y-58987539D01*
X146299542Y-58833225D01*
X146212561Y-58694796D01*
X146096957Y-58579192D01*
X146069733Y-58562086D01*
X145958527Y-58492210D01*
X145804208Y-58438212D01*
X145641757Y-58419909D01*
X145641749Y-58419909D01*
X145479297Y-58438212D01*
X145324978Y-58492210D01*
X145186548Y-58579192D01*
X145070945Y-58694795D01*
X144983963Y-58833225D01*
X144929965Y-58987544D01*
X144911662Y-59149996D01*
X144911662Y-59150003D01*
X144929965Y-59312455D01*
X144969651Y-59425873D01*
X144973212Y-59495652D01*
X144969651Y-59507781D01*
X144913748Y-59667544D01*
X144895445Y-59829996D01*
X144895445Y-59830003D01*
X144913748Y-59992455D01*
X144967746Y-60146774D01*
X144967747Y-60146775D01*
X145054728Y-60285204D01*
X145170332Y-60400808D01*
X145265721Y-60460745D01*
X145308763Y-60487790D01*
X145463067Y-60541784D01*
X145463070Y-60541784D01*
X145463075Y-60541786D01*
X145475713Y-60543209D01*
X145540126Y-60570272D01*
X145549515Y-60578749D01*
X145743182Y-60772416D01*
X145776667Y-60833739D01*
X145779501Y-60860097D01*
X145779501Y-62237011D01*
X145759816Y-62304050D01*
X145707012Y-62349805D01*
X145641618Y-62360231D01*
X145550005Y-62349909D01*
X145549997Y-62349909D01*
X145387545Y-62368212D01*
X145233226Y-62422210D01*
X145094796Y-62509192D01*
X144979193Y-62624795D01*
X144892211Y-62763225D01*
X144838213Y-62917544D01*
X144819910Y-63079996D01*
X144819910Y-63080003D01*
X144838213Y-63242453D01*
X144838214Y-63242457D01*
X144838215Y-63242461D01*
X144875460Y-63348901D01*
X144879021Y-63418677D01*
X144863412Y-63455825D01*
X144802211Y-63553225D01*
X144748213Y-63707544D01*
X144729910Y-63869996D01*
X144729910Y-63870003D01*
X144748213Y-64032455D01*
X144802211Y-64186774D01*
X144889193Y-64325204D01*
X144943182Y-64379193D01*
X144976667Y-64440516D01*
X144979501Y-64466874D01*
X144979501Y-66099532D01*
X144959816Y-66166571D01*
X144907012Y-66212326D01*
X144837854Y-66222270D01*
X144774298Y-66193245D01*
X144767820Y-66187213D01*
X143346820Y-64766213D01*
X143313335Y-64704890D01*
X143310501Y-64678532D01*
X143310501Y-63050945D01*
X143310501Y-63050943D01*
X143275022Y-62918533D01*
X143271577Y-62900323D01*
X143257323Y-62773812D01*
X143257322Y-62773807D01*
X143257322Y-62773805D01*
X143214309Y-62650882D01*
X143203325Y-62619490D01*
X143134019Y-62509192D01*
X143116344Y-62481062D01*
X143097424Y-62462142D01*
X143063939Y-62400819D01*
X143061885Y-62360575D01*
X143062326Y-62356669D01*
X143064726Y-62335365D01*
X143060657Y-62299255D01*
X143046422Y-62172909D01*
X143046421Y-62172907D01*
X143046421Y-62172904D01*
X142992424Y-62018590D01*
X142905443Y-61880161D01*
X142789839Y-61764557D01*
X142685745Y-61699150D01*
X142651409Y-61677575D01*
X142497090Y-61623577D01*
X142334639Y-61605274D01*
X142334631Y-61605274D01*
X142172179Y-61623577D01*
X142017860Y-61677575D01*
X141879430Y-61764557D01*
X141763827Y-61880160D01*
X141676845Y-62018590D01*
X141620550Y-62179475D01*
X141618777Y-62178854D01*
X141590191Y-62230573D01*
X141391287Y-62429478D01*
X141279482Y-62541282D01*
X141279480Y-62541285D01*
X141234330Y-62619489D01*
X141234329Y-62619490D01*
X141200424Y-62678214D01*
X141200424Y-62678215D01*
X141159500Y-62830943D01*
X141159500Y-62830945D01*
X141159500Y-62999046D01*
X141159501Y-62999059D01*
X141159501Y-64997256D01*
X141139816Y-65064295D01*
X141087012Y-65110050D01*
X141017854Y-65119994D01*
X140954298Y-65090969D01*
X140944271Y-65081239D01*
X140928673Y-65064295D01*
X140834745Y-64962262D01*
X140638510Y-64809526D01*
X140638508Y-64809525D01*
X140638507Y-64809524D01*
X140419812Y-64691172D01*
X140419803Y-64691169D01*
X140184617Y-64610429D01*
X139939336Y-64569500D01*
X139690666Y-64569500D01*
X139445384Y-64610429D01*
X139210198Y-64691169D01*
X139210189Y-64691172D01*
X138991494Y-64809524D01*
X138795258Y-64962261D01*
X138626834Y-65145217D01*
X138490827Y-65353393D01*
X138448057Y-65450900D01*
X138403101Y-65504386D01*
X138336365Y-65525076D01*
X138269037Y-65506401D01*
X138222494Y-65454291D01*
X138210501Y-65401090D01*
X138210501Y-62545493D01*
X138229509Y-62479519D01*
X138235788Y-62469525D01*
X138235787Y-62469525D01*
X138235790Y-62469522D01*
X138295369Y-62299255D01*
X138302382Y-62237011D01*
X138315566Y-62120003D01*
X138315566Y-62119996D01*
X138295370Y-61940750D01*
X138295369Y-61940745D01*
X138235789Y-61770476D01*
X138174020Y-61672172D01*
X138139817Y-61617738D01*
X138012263Y-61490184D01*
X137977715Y-61468476D01*
X137931425Y-61416142D01*
X137920777Y-61347089D01*
X137949152Y-61283240D01*
X137957623Y-61275024D01*
X137957339Y-61274740D01*
X138012079Y-61220000D01*
X138089817Y-61142262D01*
X138185790Y-60989522D01*
X138245369Y-60819255D01*
X138245370Y-60819249D01*
X138265566Y-60640003D01*
X138265566Y-60639996D01*
X138245370Y-60460750D01*
X138245367Y-60460737D01*
X138185791Y-60290479D01*
X138179507Y-60280478D01*
X138160501Y-60214507D01*
X138160501Y-58111004D01*
X138133582Y-57975677D01*
X138133581Y-57975676D01*
X138133581Y-57975672D01*
X138131439Y-57970500D01*
X138080778Y-57848193D01*
X138080777Y-57848192D01*
X138080776Y-57848189D01*
X138034820Y-57779412D01*
X138034818Y-57779409D01*
X138004117Y-57733459D01*
X138004115Y-57733457D01*
X137516547Y-57245888D01*
X137516546Y-57245887D01*
X137401808Y-57169222D01*
X137274333Y-57116421D01*
X137274323Y-57116418D01*
X137138997Y-57089500D01*
X137138995Y-57089500D01*
X137138994Y-57089500D01*
X134899987Y-57089500D01*
X134832948Y-57069815D01*
X134787193Y-57017011D01*
X134777249Y-56947853D01*
X134787605Y-56913096D01*
X134794101Y-56899164D01*
X134794106Y-56899150D01*
X134850711Y-56687894D01*
X134850713Y-56687884D01*
X134869776Y-56470000D01*
X134869776Y-56469999D01*
X134850713Y-56252115D01*
X134850711Y-56252105D01*
X134794106Y-56040849D01*
X134794102Y-56040840D01*
X134701667Y-55842612D01*
X134701662Y-55842604D01*
X134699924Y-55840121D01*
X134699495Y-55838850D01*
X134698959Y-55837921D01*
X134699145Y-55837813D01*
X134677597Y-55773915D01*
X134694610Y-55706148D01*
X134745559Y-55658336D01*
X134801500Y-55645000D01*
X135465001Y-55645000D01*
X135465001Y-54606879D01*
X135512359Y-54634222D01*
X135645883Y-54670000D01*
X135784119Y-54670000D01*
X135917643Y-54634222D01*
X135965001Y-54606879D01*
X135965001Y-55645000D01*
X136762829Y-55645000D01*
X136762845Y-55644999D01*
X136822373Y-55638598D01*
X136822380Y-55638596D01*
X136957087Y-55588354D01*
X136957094Y-55588350D01*
X137072188Y-55502190D01*
X137072191Y-55502187D01*
X137158351Y-55387093D01*
X137158355Y-55387086D01*
X137208597Y-55252380D01*
X137214762Y-55195043D01*
X137241500Y-55130492D01*
X137298893Y-55090644D01*
X137368718Y-55088150D01*
X137409176Y-55106723D01*
X137587613Y-55231666D01*
X137785841Y-55324101D01*
X137785850Y-55324105D01*
X137997106Y-55380710D01*
X137997116Y-55380712D01*
X138215000Y-55399775D01*
X138215002Y-55399775D01*
X138432885Y-55380712D01*
X138432892Y-55380711D01*
X138484962Y-55366759D01*
X138554812Y-55368422D01*
X138612675Y-55407584D01*
X138640179Y-55471813D01*
X138628593Y-55540715D01*
X138620865Y-55554355D01*
X138490827Y-55753393D01*
X138390937Y-55981118D01*
X138329893Y-56222175D01*
X138329891Y-56222187D01*
X138309358Y-56469994D01*
X138309358Y-56470005D01*
X138329891Y-56717812D01*
X138329893Y-56717824D01*
X138390937Y-56958881D01*
X138490827Y-57186606D01*
X138626834Y-57394782D01*
X138626837Y-57394785D01*
X138795257Y-57577738D01*
X138991492Y-57730474D01*
X139100841Y-57789651D01*
X139209017Y-57848193D01*
X139210191Y-57848828D01*
X139445387Y-57929571D01*
X139690666Y-57970500D01*
X139939336Y-57970500D01*
X140184615Y-57929571D01*
X140419811Y-57848828D01*
X140638510Y-57730474D01*
X140834745Y-57577738D01*
X141003165Y-57394785D01*
X141139174Y-57186607D01*
X141239064Y-56958881D01*
X141300109Y-56717821D01*
X141305452Y-56653343D01*
X141320644Y-56470005D01*
X141320644Y-56469994D01*
X141304250Y-56272155D01*
X149215001Y-56272155D01*
X149215001Y-57070000D01*
X150253121Y-57070000D01*
X150225779Y-57117358D01*
X150190001Y-57250882D01*
X150190001Y-57389118D01*
X150225779Y-57522642D01*
X150253121Y-57570000D01*
X149215001Y-57570000D01*
X149215001Y-58367844D01*
X149221402Y-58427372D01*
X149221404Y-58427379D01*
X149271646Y-58562086D01*
X149271650Y-58562093D01*
X149357810Y-58677187D01*
X149357813Y-58677190D01*
X149472907Y-58763350D01*
X149472914Y-58763354D01*
X149607621Y-58813596D01*
X149607628Y-58813598D01*
X149667156Y-58819999D01*
X149667173Y-58820000D01*
X150465001Y-58820000D01*
X150465001Y-57781879D01*
X150512359Y-57809222D01*
X150645883Y-57845000D01*
X150784119Y-57845000D01*
X150917643Y-57809222D01*
X150965001Y-57781879D01*
X150965001Y-58820000D01*
X151762829Y-58820000D01*
X151762845Y-58819999D01*
X151822373Y-58813598D01*
X151822380Y-58813596D01*
X151933490Y-58772155D01*
X169215001Y-58772155D01*
X169215001Y-59570000D01*
X170253121Y-59570000D01*
X170225779Y-59617358D01*
X170190001Y-59750882D01*
X170190001Y-59889118D01*
X170225779Y-60022642D01*
X170253121Y-60070000D01*
X169215001Y-60070000D01*
X169215001Y-60867844D01*
X169221402Y-60927372D01*
X169221404Y-60927379D01*
X169271646Y-61062086D01*
X169271650Y-61062093D01*
X169357810Y-61177187D01*
X169357813Y-61177190D01*
X169472907Y-61263350D01*
X169472914Y-61263354D01*
X169607621Y-61313596D01*
X169607628Y-61313598D01*
X169667156Y-61319999D01*
X169667173Y-61320000D01*
X170465001Y-61320000D01*
X170465001Y-60281879D01*
X170512359Y-60309222D01*
X170645883Y-60345000D01*
X170784119Y-60345000D01*
X170917643Y-60309222D01*
X170965001Y-60281879D01*
X170965001Y-61320000D01*
X171762829Y-61320000D01*
X171762845Y-61319999D01*
X171822373Y-61313598D01*
X171822380Y-61313596D01*
X171957087Y-61263354D01*
X171957094Y-61263350D01*
X172072188Y-61177190D01*
X172072191Y-61177187D01*
X172158351Y-61062093D01*
X172158355Y-61062086D01*
X172208597Y-60927379D01*
X172208599Y-60927372D01*
X172215000Y-60867844D01*
X172215001Y-60867827D01*
X172215001Y-60070000D01*
X171176881Y-60070000D01*
X171204223Y-60022642D01*
X171240001Y-59889118D01*
X171240001Y-59750882D01*
X171204223Y-59617358D01*
X171176881Y-59570000D01*
X172215001Y-59570000D01*
X172215001Y-58772172D01*
X172215000Y-58772155D01*
X172208599Y-58712627D01*
X172208597Y-58712620D01*
X172158355Y-58577913D01*
X172158351Y-58577906D01*
X172072191Y-58462812D01*
X172072188Y-58462809D01*
X171957094Y-58376649D01*
X171957087Y-58376645D01*
X171822380Y-58326403D01*
X171822373Y-58326401D01*
X171762845Y-58320000D01*
X170965001Y-58320000D01*
X170965001Y-59358120D01*
X170917643Y-59330778D01*
X170784119Y-59295000D01*
X170645883Y-59295000D01*
X170512359Y-59330778D01*
X170465001Y-59358120D01*
X170465001Y-58320000D01*
X169667156Y-58320000D01*
X169607628Y-58326401D01*
X169607621Y-58326403D01*
X169472914Y-58376645D01*
X169472907Y-58376649D01*
X169357813Y-58462809D01*
X169357810Y-58462812D01*
X169271650Y-58577906D01*
X169271646Y-58577913D01*
X169221404Y-58712620D01*
X169221402Y-58712627D01*
X169215001Y-58772155D01*
X151933490Y-58772155D01*
X151957087Y-58763354D01*
X151957094Y-58763350D01*
X152072188Y-58677190D01*
X152072191Y-58677187D01*
X152158351Y-58562093D01*
X152158355Y-58562086D01*
X152208597Y-58427379D01*
X152208599Y-58427372D01*
X152215000Y-58367844D01*
X152215001Y-58367827D01*
X152215001Y-57570000D01*
X151176881Y-57570000D01*
X151204223Y-57522642D01*
X151240001Y-57389118D01*
X151240001Y-57250882D01*
X151204223Y-57117358D01*
X151176881Y-57070000D01*
X152215001Y-57070000D01*
X152215001Y-56272172D01*
X152215000Y-56272155D01*
X152208599Y-56212627D01*
X152208597Y-56212620D01*
X152158355Y-56077913D01*
X152158351Y-56077906D01*
X152072191Y-55962812D01*
X152072188Y-55962809D01*
X151957094Y-55876649D01*
X151957087Y-55876645D01*
X151822380Y-55826403D01*
X151822373Y-55826401D01*
X151762845Y-55820000D01*
X150965001Y-55820000D01*
X150965001Y-56858120D01*
X150917643Y-56830778D01*
X150784119Y-56795000D01*
X150645883Y-56795000D01*
X150512359Y-56830778D01*
X150465001Y-56858120D01*
X150465001Y-55820000D01*
X149667156Y-55820000D01*
X149607628Y-55826401D01*
X149607621Y-55826403D01*
X149472914Y-55876645D01*
X149472907Y-55876649D01*
X149357813Y-55962809D01*
X149357810Y-55962812D01*
X149271650Y-56077906D01*
X149271646Y-56077913D01*
X149221404Y-56212620D01*
X149221402Y-56212627D01*
X149215001Y-56272155D01*
X141304250Y-56272155D01*
X141300110Y-56222187D01*
X141300108Y-56222175D01*
X141239064Y-55981118D01*
X141139174Y-55753393D01*
X141003167Y-55545217D01*
X140963555Y-55502187D01*
X140834745Y-55362262D01*
X140638510Y-55209526D01*
X140638508Y-55209525D01*
X140638507Y-55209524D01*
X140419812Y-55091172D01*
X140419803Y-55091169D01*
X140184617Y-55010429D01*
X139939336Y-54969500D01*
X139690666Y-54969500D01*
X139445384Y-55010429D01*
X139397156Y-55026986D01*
X139327357Y-55030136D01*
X139266936Y-54995050D01*
X139235075Y-54932867D01*
X139241891Y-54863330D01*
X139255319Y-54838581D01*
X139301663Y-54772394D01*
X139301667Y-54772388D01*
X139394102Y-54574159D01*
X139394106Y-54574150D01*
X139450711Y-54362894D01*
X139450713Y-54362884D01*
X139469776Y-54145000D01*
X139469776Y-54144999D01*
X141960226Y-54144999D01*
X141960226Y-54145000D01*
X141979288Y-54362884D01*
X141979290Y-54362894D01*
X142035895Y-54574150D01*
X142035899Y-54574159D01*
X142128334Y-54772387D01*
X142171875Y-54834571D01*
X142752450Y-54253996D01*
X142772371Y-54328343D01*
X142834906Y-54436657D01*
X142923344Y-54525095D01*
X143031658Y-54587630D01*
X143106001Y-54607550D01*
X142525428Y-55188124D01*
X142587613Y-55231666D01*
X142785841Y-55324101D01*
X142785850Y-55324105D01*
X142997106Y-55380710D01*
X142997116Y-55380712D01*
X143215000Y-55399775D01*
X143215002Y-55399775D01*
X143432885Y-55380712D01*
X143432895Y-55380710D01*
X143644151Y-55324105D01*
X143644160Y-55324101D01*
X143842388Y-55231667D01*
X144020825Y-55106723D01*
X144087031Y-55084396D01*
X144154798Y-55101406D01*
X144202612Y-55152354D01*
X144215238Y-55195041D01*
X144221402Y-55252373D01*
X144221404Y-55252379D01*
X144271646Y-55387086D01*
X144271650Y-55387093D01*
X144357810Y-55502187D01*
X144357813Y-55502190D01*
X144472907Y-55588350D01*
X144472914Y-55588354D01*
X144607621Y-55638596D01*
X144607628Y-55638598D01*
X144667156Y-55644999D01*
X144667173Y-55645000D01*
X145465001Y-55645000D01*
X145465001Y-54606879D01*
X145512359Y-54634222D01*
X145645883Y-54670000D01*
X145784119Y-54670000D01*
X145917643Y-54634222D01*
X145965001Y-54606879D01*
X145965001Y-55645000D01*
X146762829Y-55645000D01*
X146762845Y-55644999D01*
X146822373Y-55638598D01*
X146822380Y-55638596D01*
X146957087Y-55588354D01*
X146957094Y-55588350D01*
X147072188Y-55502190D01*
X147072191Y-55502187D01*
X147158351Y-55387093D01*
X147158355Y-55387086D01*
X147179970Y-55329134D01*
X147221841Y-55273200D01*
X147287305Y-55248783D01*
X147348557Y-55260085D01*
X147485841Y-55324101D01*
X147485850Y-55324105D01*
X147697106Y-55380710D01*
X147697116Y-55380712D01*
X147915000Y-55399775D01*
X147915002Y-55399775D01*
X148132885Y-55380712D01*
X148132895Y-55380710D01*
X148344151Y-55324105D01*
X148344165Y-55324100D01*
X148542384Y-55231669D01*
X148542386Y-55231668D01*
X148604571Y-55188124D01*
X148023997Y-54607550D01*
X148098344Y-54587630D01*
X148206658Y-54525095D01*
X148295096Y-54436657D01*
X148357631Y-54328343D01*
X148377551Y-54253997D01*
X148958125Y-54834570D01*
X149001669Y-54772385D01*
X149001670Y-54772383D01*
X149094101Y-54574164D01*
X149094106Y-54574150D01*
X149150711Y-54362894D01*
X149150713Y-54362884D01*
X149169776Y-54145000D01*
X149169776Y-54144999D01*
X149150713Y-53927115D01*
X149150711Y-53927105D01*
X149094106Y-53715849D01*
X149094102Y-53715840D01*
X149001668Y-53517614D01*
X149001667Y-53517612D01*
X148958125Y-53455428D01*
X148958125Y-53455427D01*
X148377551Y-54036001D01*
X148357631Y-53961657D01*
X148295096Y-53853343D01*
X148206658Y-53764905D01*
X148098344Y-53702370D01*
X148023998Y-53682449D01*
X148604572Y-53101874D01*
X148597832Y-53097155D01*
X154215001Y-53097155D01*
X154215001Y-53895000D01*
X155253121Y-53895000D01*
X155225779Y-53942358D01*
X155190001Y-54075882D01*
X155190001Y-54214118D01*
X155225779Y-54347642D01*
X155253121Y-54395000D01*
X154215001Y-54395000D01*
X154215001Y-55192844D01*
X154221402Y-55252372D01*
X154221404Y-55252379D01*
X154271646Y-55387086D01*
X154271650Y-55387093D01*
X154357810Y-55502187D01*
X154357813Y-55502190D01*
X154472907Y-55588350D01*
X154472914Y-55588354D01*
X154607621Y-55638596D01*
X154607628Y-55638598D01*
X154667156Y-55644999D01*
X154667173Y-55645000D01*
X155465001Y-55645000D01*
X155465001Y-54606879D01*
X155512359Y-54634222D01*
X155645883Y-54670000D01*
X155784119Y-54670000D01*
X155917643Y-54634222D01*
X155965001Y-54606879D01*
X155965001Y-55645000D01*
X156762829Y-55645000D01*
X156762845Y-55644999D01*
X156822373Y-55638598D01*
X156822380Y-55638596D01*
X156957087Y-55588354D01*
X156957094Y-55588350D01*
X157072188Y-55502190D01*
X157072191Y-55502187D01*
X157158351Y-55387093D01*
X157158355Y-55387086D01*
X157208597Y-55252379D01*
X157208599Y-55252372D01*
X157215000Y-55192844D01*
X157215001Y-55192827D01*
X157215001Y-54395000D01*
X156176881Y-54395000D01*
X156204223Y-54347642D01*
X156240001Y-54214118D01*
X156240001Y-54075882D01*
X156204223Y-53942358D01*
X156176881Y-53895000D01*
X157215001Y-53895000D01*
X157215001Y-53097172D01*
X157215000Y-53097155D01*
X164215001Y-53097155D01*
X164215001Y-53895000D01*
X165253121Y-53895000D01*
X165225779Y-53942358D01*
X165190001Y-54075882D01*
X165190001Y-54214118D01*
X165225779Y-54347642D01*
X165253121Y-54395000D01*
X164215001Y-54395000D01*
X164215001Y-55192844D01*
X164221402Y-55252372D01*
X164221404Y-55252379D01*
X164271646Y-55387086D01*
X164271650Y-55387093D01*
X164357810Y-55502187D01*
X164357813Y-55502190D01*
X164472907Y-55588350D01*
X164472914Y-55588354D01*
X164607621Y-55638596D01*
X164607628Y-55638598D01*
X164667156Y-55644999D01*
X164667173Y-55645000D01*
X165465001Y-55645000D01*
X165465001Y-54606879D01*
X165512359Y-54634222D01*
X165645883Y-54670000D01*
X165784119Y-54670000D01*
X165917643Y-54634222D01*
X165965001Y-54606879D01*
X165965001Y-55645000D01*
X166762829Y-55645000D01*
X166762845Y-55644999D01*
X166822373Y-55638598D01*
X166822380Y-55638596D01*
X166957087Y-55588354D01*
X166957094Y-55588350D01*
X167072188Y-55502190D01*
X167072191Y-55502187D01*
X167158351Y-55387093D01*
X167158355Y-55387086D01*
X167208597Y-55252379D01*
X167208599Y-55252372D01*
X167215000Y-55192844D01*
X167215001Y-55192827D01*
X167215001Y-54395000D01*
X166176881Y-54395000D01*
X166204223Y-54347642D01*
X166240001Y-54214118D01*
X166240001Y-54075882D01*
X166204223Y-53942358D01*
X166176881Y-53895000D01*
X167215001Y-53895000D01*
X167215001Y-53097172D01*
X167215000Y-53097155D01*
X167208599Y-53037627D01*
X167208597Y-53037620D01*
X167158355Y-52902913D01*
X167158351Y-52902906D01*
X167072191Y-52787812D01*
X167072188Y-52787809D01*
X166957094Y-52701649D01*
X166957087Y-52701645D01*
X166822380Y-52651403D01*
X166822373Y-52651401D01*
X166762845Y-52645000D01*
X165965001Y-52645000D01*
X165965001Y-53683120D01*
X165917643Y-53655778D01*
X165784119Y-53620000D01*
X165645883Y-53620000D01*
X165512359Y-53655778D01*
X165465001Y-53683120D01*
X165465001Y-52645000D01*
X164667156Y-52645000D01*
X164607628Y-52651401D01*
X164607621Y-52651403D01*
X164472914Y-52701645D01*
X164472907Y-52701649D01*
X164357813Y-52787809D01*
X164357810Y-52787812D01*
X164271650Y-52902906D01*
X164271646Y-52902913D01*
X164221404Y-53037620D01*
X164221402Y-53037627D01*
X164215001Y-53097155D01*
X157215000Y-53097155D01*
X157208599Y-53037627D01*
X157208597Y-53037620D01*
X157158355Y-52902913D01*
X157158351Y-52902906D01*
X157072191Y-52787812D01*
X157072188Y-52787809D01*
X156957094Y-52701649D01*
X156957087Y-52701645D01*
X156822380Y-52651403D01*
X156822373Y-52651401D01*
X156762845Y-52645000D01*
X155965001Y-52645000D01*
X155965001Y-53683120D01*
X155917643Y-53655778D01*
X155784119Y-53620000D01*
X155645883Y-53620000D01*
X155512359Y-53655778D01*
X155465001Y-53683120D01*
X155465001Y-52645000D01*
X154667156Y-52645000D01*
X154607628Y-52651401D01*
X154607621Y-52651403D01*
X154472914Y-52701645D01*
X154472907Y-52701649D01*
X154357813Y-52787809D01*
X154357810Y-52787812D01*
X154271650Y-52902906D01*
X154271646Y-52902913D01*
X154221404Y-53037620D01*
X154221402Y-53037627D01*
X154215001Y-53097155D01*
X148597832Y-53097155D01*
X148542388Y-53058333D01*
X148344160Y-52965898D01*
X148344151Y-52965894D01*
X148132895Y-52909289D01*
X148132885Y-52909287D01*
X147915002Y-52890225D01*
X147915000Y-52890225D01*
X147697116Y-52909287D01*
X147697106Y-52909289D01*
X147485850Y-52965894D01*
X147485836Y-52965899D01*
X147348556Y-53029914D01*
X147279479Y-53040406D01*
X147215695Y-53011886D01*
X147179970Y-52960865D01*
X147158355Y-52902913D01*
X147158351Y-52902906D01*
X147072191Y-52787812D01*
X147072188Y-52787809D01*
X146957094Y-52701649D01*
X146957087Y-52701645D01*
X146822380Y-52651403D01*
X146822373Y-52651401D01*
X146762845Y-52645000D01*
X145965001Y-52645000D01*
X145965001Y-53683120D01*
X145917643Y-53655778D01*
X145784119Y-53620000D01*
X145645883Y-53620000D01*
X145512359Y-53655778D01*
X145465001Y-53683120D01*
X145465001Y-52645000D01*
X144667156Y-52645000D01*
X144607628Y-52651401D01*
X144607621Y-52651403D01*
X144472914Y-52701645D01*
X144472907Y-52701649D01*
X144357813Y-52787809D01*
X144357810Y-52787812D01*
X144271650Y-52902906D01*
X144271646Y-52902913D01*
X144221404Y-53037620D01*
X144221402Y-53037626D01*
X144215238Y-53094958D01*
X144188499Y-53159509D01*
X144131106Y-53199356D01*
X144061281Y-53201849D01*
X144020825Y-53183276D01*
X143842388Y-53058333D01*
X143644160Y-52965898D01*
X143644151Y-52965894D01*
X143432895Y-52909289D01*
X143432885Y-52909287D01*
X143215002Y-52890225D01*
X143215000Y-52890225D01*
X142997116Y-52909287D01*
X142997106Y-52909289D01*
X142785850Y-52965894D01*
X142785841Y-52965898D01*
X142587614Y-53058333D01*
X142525428Y-53101874D01*
X143106003Y-53682449D01*
X143031658Y-53702370D01*
X142923344Y-53764905D01*
X142834906Y-53853343D01*
X142772371Y-53961657D01*
X142752450Y-54036003D01*
X142171875Y-53455428D01*
X142128334Y-53517613D01*
X142035899Y-53715840D01*
X142035895Y-53715849D01*
X141979290Y-53927105D01*
X141979288Y-53927115D01*
X141960226Y-54144999D01*
X139469776Y-54144999D01*
X139450713Y-53927115D01*
X139450711Y-53927105D01*
X139394106Y-53715849D01*
X139394102Y-53715840D01*
X139301668Y-53517614D01*
X139301667Y-53517612D01*
X139258125Y-53455428D01*
X139258125Y-53455427D01*
X138677551Y-54036000D01*
X138657631Y-53961657D01*
X138595096Y-53853343D01*
X138506658Y-53764905D01*
X138398344Y-53702370D01*
X138323996Y-53682449D01*
X138904572Y-53101874D01*
X138842388Y-53058333D01*
X138644160Y-52965898D01*
X138644151Y-52965894D01*
X138432895Y-52909289D01*
X138432885Y-52909287D01*
X138215002Y-52890225D01*
X138215000Y-52890225D01*
X137997116Y-52909287D01*
X137997106Y-52909289D01*
X137785850Y-52965894D01*
X137785841Y-52965898D01*
X137587613Y-53058333D01*
X137587609Y-53058335D01*
X137409175Y-53183276D01*
X137342969Y-53205603D01*
X137275202Y-53188593D01*
X137227389Y-53137645D01*
X137214762Y-53094956D01*
X137208597Y-53037619D01*
X137158355Y-52902913D01*
X137158351Y-52902906D01*
X137072191Y-52787812D01*
X137072188Y-52787809D01*
X136957094Y-52701649D01*
X136957087Y-52701645D01*
X136822380Y-52651403D01*
X136822373Y-52651401D01*
X136762845Y-52645000D01*
X135965001Y-52645000D01*
X135965001Y-53683120D01*
X135917643Y-53655778D01*
X135784119Y-53620000D01*
X135645883Y-53620000D01*
X135512359Y-53655778D01*
X135465001Y-53683120D01*
X135465001Y-52645000D01*
X134667156Y-52645000D01*
X134607628Y-52651401D01*
X134607621Y-52651403D01*
X134472914Y-52701645D01*
X134472907Y-52701649D01*
X134357813Y-52787809D01*
X134357810Y-52787812D01*
X134271650Y-52902906D01*
X134271646Y-52902913D01*
X134221404Y-53037620D01*
X134221402Y-53037627D01*
X134215001Y-53097155D01*
X134215001Y-53895000D01*
X135253121Y-53895000D01*
X135225779Y-53942358D01*
X135190001Y-54075882D01*
X135190001Y-54214118D01*
X135225779Y-54347642D01*
X135253121Y-54395000D01*
X134215001Y-54395000D01*
X134215001Y-55175988D01*
X134195316Y-55243027D01*
X134142512Y-55288782D01*
X134073354Y-55298726D01*
X134048587Y-55292508D01*
X134044163Y-55290897D01*
X133832895Y-55234289D01*
X133832885Y-55234287D01*
X133615002Y-55215225D01*
X133615000Y-55215225D01*
X133397116Y-55234287D01*
X133397106Y-55234289D01*
X133185850Y-55290894D01*
X133185841Y-55290898D01*
X132987614Y-55383333D01*
X132925429Y-55426874D01*
X133506004Y-56007449D01*
X133431658Y-56027370D01*
X133323344Y-56089905D01*
X133234906Y-56178343D01*
X133172371Y-56286657D01*
X133152450Y-56361003D01*
X132571875Y-55780428D01*
X132528334Y-55842613D01*
X132435899Y-56040840D01*
X132435895Y-56040849D01*
X132379290Y-56252105D01*
X132379288Y-56252115D01*
X132360226Y-56469999D01*
X132360226Y-56470206D01*
X132360200Y-56470293D01*
X132359754Y-56475394D01*
X132358728Y-56475304D01*
X132340541Y-56537245D01*
X132287737Y-56583000D01*
X132218579Y-56592944D01*
X132155023Y-56563919D01*
X132148545Y-56557887D01*
X131951368Y-56360710D01*
X131922007Y-56313983D01*
X131912445Y-56286657D01*
X131885790Y-56210478D01*
X131789817Y-56057738D01*
X131662263Y-55930184D01*
X131509524Y-55834211D01*
X131339255Y-55774631D01*
X131339250Y-55774630D01*
X131160005Y-55754435D01*
X131159997Y-55754435D01*
X130980751Y-55774630D01*
X130980746Y-55774631D01*
X130810477Y-55834211D01*
X130657738Y-55930184D01*
X130530185Y-56057737D01*
X130434212Y-56210476D01*
X130374632Y-56380745D01*
X130374631Y-56380750D01*
X130354436Y-56559996D01*
X130354436Y-56560003D01*
X130374631Y-56739249D01*
X130374632Y-56739254D01*
X130434212Y-56909523D01*
X130489582Y-56997643D01*
X130530185Y-57062262D01*
X130657739Y-57189816D01*
X130810479Y-57285789D01*
X130913985Y-57322007D01*
X130960711Y-57351367D01*
X131943454Y-58334111D01*
X131943455Y-58334112D01*
X132058193Y-58410777D01*
X132183819Y-58462812D01*
X132185673Y-58463580D01*
X132185677Y-58463580D01*
X132185678Y-58463581D01*
X132321004Y-58490500D01*
X132321007Y-58490500D01*
X132321008Y-58490500D01*
X136635501Y-58490500D01*
X136702540Y-58510185D01*
X136748295Y-58562989D01*
X136759501Y-58614500D01*
X136759501Y-60214507D01*
X136740495Y-60280478D01*
X136734210Y-60290479D01*
X136674634Y-60460737D01*
X136674631Y-60460750D01*
X136654436Y-60639996D01*
X136654436Y-60640003D01*
X136674631Y-60819249D01*
X136674632Y-60819254D01*
X136734212Y-60989523D01*
X136830185Y-61142262D01*
X136957741Y-61269818D01*
X136992284Y-61291522D01*
X137038576Y-61343856D01*
X137049225Y-61412909D01*
X137020850Y-61476758D01*
X137012380Y-61484977D01*
X137012663Y-61485260D01*
X136880185Y-61617737D01*
X136784212Y-61770476D01*
X136724632Y-61940745D01*
X136724631Y-61940750D01*
X136704436Y-62119996D01*
X136704436Y-62120003D01*
X136724631Y-62299249D01*
X136724632Y-62299254D01*
X136784213Y-62469525D01*
X136790493Y-62479519D01*
X136809501Y-62545493D01*
X136809501Y-65616481D01*
X136789816Y-65683520D01*
X136773182Y-65704162D01*
X134654163Y-67823181D01*
X134592840Y-67856666D01*
X134566482Y-67859500D01*
X132075495Y-67859500D01*
X132009524Y-67840494D01*
X131999526Y-67834212D01*
X131829255Y-67774631D01*
X131829250Y-67774630D01*
X131650005Y-67754435D01*
X131649997Y-67754435D01*
X131470751Y-67774630D01*
X131470746Y-67774631D01*
X131300477Y-67834211D01*
X131147738Y-67930184D01*
X131020185Y-68057737D01*
X130924212Y-68210476D01*
X130864632Y-68380745D01*
X130864631Y-68380750D01*
X130844436Y-68559996D01*
X130844436Y-68560003D01*
X130864631Y-68739249D01*
X130864632Y-68739254D01*
X130924212Y-68909523D01*
X131020185Y-69062262D01*
X131147739Y-69189816D01*
X131217386Y-69233578D01*
X131300475Y-69285787D01*
X131300479Y-69285789D01*
X131439390Y-69334396D01*
X131470746Y-69345368D01*
X131470751Y-69345369D01*
X131649997Y-69365565D01*
X131650001Y-69365565D01*
X131650005Y-69365565D01*
X131829250Y-69345369D01*
X131829253Y-69345368D01*
X131829256Y-69345368D01*
X131999523Y-69285789D01*
X132000489Y-69285181D01*
X132009524Y-69279506D01*
X132075495Y-69260500D01*
X134976997Y-69260500D01*
X135068041Y-69242389D01*
X135112329Y-69233580D01*
X135176070Y-69207177D01*
X135239808Y-69180777D01*
X135239809Y-69180776D01*
X135239812Y-69180775D01*
X135354544Y-69104114D01*
X138054115Y-66404543D01*
X138115151Y-66313194D01*
X138168761Y-66268392D01*
X138238086Y-66259683D01*
X138301114Y-66289838D01*
X138337833Y-66349280D01*
X138338457Y-66351646D01*
X138390936Y-66558876D01*
X138390936Y-66558877D01*
X138451692Y-66697385D01*
X138490828Y-66786607D01*
X138620865Y-66985645D01*
X138641052Y-67052533D01*
X138621872Y-67119719D01*
X138569414Y-67165869D01*
X138500332Y-67176332D01*
X138484964Y-67173240D01*
X138432898Y-67159290D01*
X138432885Y-67159287D01*
X138215002Y-67140225D01*
X138215000Y-67140225D01*
X137997116Y-67159287D01*
X137997106Y-67159289D01*
X137785850Y-67215894D01*
X137785841Y-67215898D01*
X137587614Y-67308333D01*
X137525428Y-67351874D01*
X138106003Y-67932449D01*
X138031658Y-67952370D01*
X137923344Y-68014905D01*
X137834906Y-68103343D01*
X137772371Y-68211657D01*
X137752450Y-68286003D01*
X137171875Y-67705428D01*
X137128334Y-67767613D01*
X137035899Y-67965840D01*
X137035895Y-67965849D01*
X136979290Y-68177105D01*
X136979288Y-68177115D01*
X136960226Y-68394999D01*
X136960226Y-68395000D01*
X136979288Y-68612884D01*
X136979290Y-68612894D01*
X137035895Y-68824150D01*
X137035899Y-68824159D01*
X137128334Y-69022387D01*
X137171875Y-69084571D01*
X137752450Y-68503996D01*
X137772371Y-68578343D01*
X137834906Y-68686657D01*
X137923344Y-68775095D01*
X138031658Y-68837630D01*
X138106001Y-68857550D01*
X137525428Y-69438124D01*
X137587613Y-69481666D01*
X137785841Y-69574101D01*
X137785850Y-69574105D01*
X137997106Y-69630710D01*
X137997116Y-69630712D01*
X138215000Y-69649775D01*
X138215002Y-69649775D01*
X138432885Y-69630712D01*
X138432895Y-69630710D01*
X138644151Y-69574105D01*
X138644160Y-69574101D01*
X138842388Y-69481667D01*
X139020825Y-69356723D01*
X139087031Y-69334396D01*
X139154798Y-69351406D01*
X139202612Y-69402354D01*
X139215238Y-69445041D01*
X139221402Y-69502373D01*
X139221404Y-69502379D01*
X139271646Y-69637086D01*
X139271650Y-69637093D01*
X139357810Y-69752187D01*
X139357813Y-69752190D01*
X139472907Y-69838350D01*
X139472914Y-69838354D01*
X139607621Y-69888596D01*
X139607628Y-69888598D01*
X139667156Y-69894999D01*
X139667173Y-69895000D01*
X140465001Y-69895000D01*
X140465001Y-68741409D01*
X140550957Y-68791037D01*
X140659049Y-68820000D01*
X140770953Y-68820000D01*
X140879045Y-68791037D01*
X140965001Y-68741409D01*
X140965001Y-69895000D01*
X141762829Y-69895000D01*
X141762845Y-69894999D01*
X141822373Y-69888598D01*
X141822380Y-69888596D01*
X141957087Y-69838354D01*
X141957094Y-69838350D01*
X142072188Y-69752190D01*
X142072191Y-69752187D01*
X142158351Y-69637093D01*
X142158355Y-69637086D01*
X142208597Y-69502380D01*
X142214762Y-69445043D01*
X142241500Y-69380492D01*
X142298893Y-69340644D01*
X142368718Y-69338150D01*
X142409176Y-69356723D01*
X142587613Y-69481666D01*
X142785841Y-69574101D01*
X142785850Y-69574105D01*
X142997106Y-69630710D01*
X142997116Y-69630712D01*
X143215000Y-69649775D01*
X143215002Y-69649775D01*
X143432885Y-69630712D01*
X143432895Y-69630710D01*
X143623408Y-69579663D01*
X143693257Y-69581326D01*
X143751120Y-69620489D01*
X143778624Y-69684717D01*
X143779501Y-69699438D01*
X143779501Y-70415500D01*
X143759816Y-70482539D01*
X143707012Y-70528294D01*
X143655501Y-70539500D01*
X140080944Y-70539500D01*
X139928214Y-70580423D01*
X139885326Y-70605186D01*
X139885325Y-70605186D01*
X139791288Y-70659477D01*
X139791283Y-70659481D01*
X138702657Y-71748108D01*
X138641334Y-71781593D01*
X138631166Y-71783365D01*
X138624010Y-71784307D01*
X138624003Y-71784309D01*
X138624002Y-71784309D01*
X138570709Y-71798588D01*
X138471273Y-71825233D01*
X138425100Y-71851892D01*
X138425099Y-71851892D01*
X138334346Y-71904287D01*
X138334341Y-71904291D01*
X138222537Y-72016096D01*
X138040469Y-72198163D01*
X137993744Y-72227523D01*
X137907858Y-72257576D01*
X137907857Y-72257577D01*
X137769430Y-72344557D01*
X137653830Y-72460158D01*
X137653827Y-72460160D01*
X137566845Y-72598590D01*
X137537608Y-72682147D01*
X137512849Y-72752904D01*
X137512848Y-72752906D01*
X137510550Y-72759476D01*
X137508783Y-72758857D01*
X137487492Y-72797395D01*
X137489967Y-72799294D01*
X137485018Y-72805743D01*
X137438211Y-72886817D01*
X137405959Y-72942678D01*
X137405959Y-72942679D01*
X137365035Y-73095407D01*
X137365035Y-73095409D01*
X137365035Y-73263510D01*
X137365036Y-73263523D01*
X137365036Y-81376437D01*
X137345351Y-81443476D01*
X137292547Y-81489231D01*
X137223389Y-81499175D01*
X137159833Y-81470150D01*
X137153356Y-81464119D01*
X137117592Y-81428356D01*
X137117589Y-81428352D01*
X136998718Y-81309481D01*
X136998710Y-81309475D01*
X136896561Y-81250500D01*
X136861789Y-81230424D01*
X136861788Y-81230423D01*
X136800694Y-81214053D01*
X136709058Y-81189499D01*
X136550944Y-81189499D01*
X136543348Y-81189499D01*
X136543332Y-81189500D01*
X135718424Y-81189500D01*
X135651385Y-81169815D01*
X135605630Y-81117011D01*
X135595686Y-81047853D01*
X135624711Y-80984297D01*
X135652452Y-80960506D01*
X135692075Y-80935609D01*
X135795205Y-80870808D01*
X135910809Y-80755204D01*
X135997790Y-80616775D01*
X136051787Y-80462461D01*
X136051788Y-80462455D01*
X136070092Y-80300003D01*
X136070092Y-80299996D01*
X136051788Y-80137544D01*
X136051787Y-80137542D01*
X136051787Y-80137539D01*
X135997790Y-79983225D01*
X135997790Y-79983224D01*
X135959507Y-79922297D01*
X135940501Y-79856325D01*
X135940501Y-78205503D01*
X135959508Y-78139530D01*
X136017789Y-78046776D01*
X136017790Y-78046775D01*
X136071787Y-77892461D01*
X136074988Y-77864055D01*
X136090092Y-77730003D01*
X136090092Y-77729996D01*
X136071788Y-77567544D01*
X136071787Y-77567542D01*
X136071787Y-77567539D01*
X136017790Y-77413225D01*
X135930809Y-77274796D01*
X135815205Y-77159192D01*
X135784954Y-77140184D01*
X135676775Y-77072210D01*
X135522456Y-77018212D01*
X135360005Y-76999909D01*
X135359997Y-76999909D01*
X135197545Y-77018212D01*
X135043226Y-77072210D01*
X134904796Y-77159192D01*
X134789193Y-77274795D01*
X134702211Y-77413225D01*
X134648213Y-77567544D01*
X134629910Y-77729996D01*
X134629910Y-77730003D01*
X134648213Y-77892457D01*
X134702211Y-78046773D01*
X134702212Y-78046775D01*
X134720494Y-78075871D01*
X134739501Y-78141842D01*
X134739501Y-79856325D01*
X134720495Y-79922297D01*
X134682211Y-79983224D01*
X134628213Y-80137544D01*
X134609910Y-80299996D01*
X134609910Y-80300003D01*
X134628213Y-80462455D01*
X134682211Y-80616774D01*
X134739367Y-80707737D01*
X134769193Y-80755204D01*
X134884797Y-80870808D01*
X134980493Y-80930938D01*
X135027550Y-80960506D01*
X135073841Y-81012841D01*
X135084489Y-81081895D01*
X135056114Y-81145743D01*
X134997724Y-81184115D01*
X134961578Y-81189500D01*
X131414540Y-81189500D01*
X131347501Y-81169815D01*
X131301746Y-81117011D01*
X131297498Y-81106454D01*
X131268690Y-81024126D01*
X131228715Y-80960506D01*
X131181709Y-80885697D01*
X131066105Y-80770093D01*
X131032305Y-80748855D01*
X130927675Y-80683111D01*
X130773356Y-80629113D01*
X130610905Y-80610810D01*
X130610897Y-80610810D01*
X130448445Y-80629113D01*
X130294126Y-80683111D01*
X130155696Y-80770093D01*
X130040093Y-80885696D01*
X129953111Y-81024126D01*
X129899113Y-81178445D01*
X129880810Y-81340897D01*
X129880810Y-81340904D01*
X129899113Y-81503356D01*
X129953111Y-81657675D01*
X130035844Y-81789343D01*
X130040093Y-81796105D01*
X130155697Y-81911709D01*
X130288841Y-81995369D01*
X130294128Y-81998691D01*
X130455013Y-82054988D01*
X130454392Y-82056761D01*
X130506112Y-82085346D01*
X130575140Y-82154374D01*
X130575150Y-82154385D01*
X130579480Y-82158715D01*
X130579481Y-82158716D01*
X130691285Y-82270520D01*
X130771130Y-82316618D01*
X130828216Y-82349577D01*
X130980944Y-82390501D01*
X130980947Y-82390501D01*
X131146654Y-82390501D01*
X131146670Y-82390500D01*
X131984483Y-82390500D01*
X132051522Y-82410185D01*
X132097277Y-82462989D01*
X132107221Y-82532147D01*
X132089474Y-82580476D01*
X132087748Y-82583221D01*
X132087747Y-82583223D01*
X132083117Y-82596457D01*
X132042395Y-82653233D01*
X131977442Y-82678979D01*
X131966076Y-82679501D01*
X126474742Y-82679501D01*
X126407703Y-82659816D01*
X126361948Y-82607012D01*
X126357700Y-82596455D01*
X126344879Y-82559816D01*
X126319829Y-82488226D01*
X126232848Y-82349797D01*
X126117244Y-82234193D01*
X126059820Y-82198111D01*
X125978814Y-82147211D01*
X125824495Y-82093213D01*
X125662044Y-82074910D01*
X125662036Y-82074910D01*
X125499584Y-82093213D01*
X125345265Y-82147211D01*
X125206835Y-82234193D01*
X125091232Y-82349796D01*
X125004250Y-82488226D01*
X124966380Y-82596455D01*
X124925658Y-82653231D01*
X124860705Y-82678979D01*
X124849338Y-82679501D01*
X124339058Y-82679501D01*
X124180944Y-82679501D01*
X124028216Y-82720424D01*
X124028215Y-82720424D01*
X124028213Y-82720425D01*
X124028210Y-82720426D01*
X123978097Y-82749360D01*
X123978096Y-82749361D01*
X123949159Y-82766067D01*
X123891287Y-82799479D01*
X123809693Y-82881073D01*
X123748369Y-82914557D01*
X123678678Y-82909573D01*
X123622744Y-82867701D01*
X123598328Y-82802236D01*
X123598792Y-82779507D01*
X123607187Y-82705003D01*
X123607187Y-82704997D01*
X123588883Y-82542545D01*
X123588882Y-82542543D01*
X123588882Y-82542540D01*
X123534885Y-82388226D01*
X123447904Y-82249797D01*
X123332300Y-82134193D01*
X123281108Y-82102027D01*
X123193870Y-82047211D01*
X123039551Y-81993213D01*
X122910617Y-81978686D01*
X122846203Y-81951619D01*
X122806648Y-81894024D01*
X122800501Y-81855466D01*
X122800501Y-76624939D01*
X122807460Y-76583984D01*
X122818223Y-76553225D01*
X122861787Y-76428727D01*
X122861787Y-76428725D01*
X122861788Y-76428723D01*
X122880092Y-76266269D01*
X122880092Y-76266262D01*
X122861788Y-76103810D01*
X122861787Y-76103808D01*
X122861787Y-76103805D01*
X122807790Y-75949491D01*
X122807459Y-75948545D01*
X122800501Y-75907591D01*
X122800501Y-75540808D01*
X122820186Y-75473769D01*
X122836820Y-75453127D01*
X123198129Y-75091818D01*
X123259452Y-75058333D01*
X123285810Y-75055499D01*
X123329374Y-75055499D01*
X123396413Y-75075184D01*
X123442168Y-75127988D01*
X123452112Y-75197146D01*
X123446418Y-75220444D01*
X123421905Y-75290500D01*
X123413748Y-75313812D01*
X123395445Y-75476262D01*
X123395445Y-75476269D01*
X123413748Y-75638721D01*
X123467746Y-75793040D01*
X123539415Y-75907099D01*
X123554728Y-75931470D01*
X123670332Y-76047074D01*
X123808761Y-76134055D01*
X123963075Y-76188052D01*
X123963078Y-76188052D01*
X123963080Y-76188053D01*
X124125532Y-76206357D01*
X124125536Y-76206357D01*
X124125540Y-76206357D01*
X124287991Y-76188053D01*
X124287992Y-76188052D01*
X124287997Y-76188052D01*
X124442311Y-76134055D01*
X124580740Y-76047074D01*
X124696344Y-75931470D01*
X124783325Y-75793041D01*
X124837322Y-75638727D01*
X124837323Y-75638721D01*
X124855627Y-75476269D01*
X124855627Y-75476262D01*
X124837323Y-75313812D01*
X124837322Y-75313811D01*
X124837322Y-75313805D01*
X124804655Y-75220450D01*
X124801095Y-75150675D01*
X124835824Y-75090047D01*
X124897817Y-75057820D01*
X124921698Y-75055499D01*
X125215520Y-75055499D01*
X125271581Y-75071652D01*
X125272488Y-75069769D01*
X125278755Y-75072787D01*
X125278761Y-75072789D01*
X125433075Y-75126786D01*
X125433078Y-75126786D01*
X125433080Y-75126787D01*
X125595532Y-75145091D01*
X125595536Y-75145091D01*
X125595540Y-75145091D01*
X125757993Y-75126787D01*
X125757995Y-75126786D01*
X125757997Y-75126786D01*
X125912311Y-75072789D01*
X125912311Y-75072788D01*
X125913254Y-75072459D01*
X125954209Y-75065500D01*
X127096863Y-75065500D01*
X127137818Y-75072459D01*
X127138760Y-75072788D01*
X127138761Y-75072789D01*
X127214290Y-75099218D01*
X127293078Y-75126787D01*
X127455532Y-75145091D01*
X127455536Y-75145091D01*
X127455540Y-75145091D01*
X127617993Y-75126787D01*
X127617995Y-75126786D01*
X127617997Y-75126786D01*
X127772311Y-75072789D01*
X127772311Y-75072788D01*
X127773254Y-75072459D01*
X127814209Y-75065500D01*
X127894193Y-75065500D01*
X127961232Y-75085185D01*
X127981874Y-75101819D01*
X128308182Y-75428127D01*
X128341667Y-75489450D01*
X128344501Y-75515808D01*
X128344501Y-78282424D01*
X128324816Y-78349463D01*
X128272012Y-78395218D01*
X128202854Y-78405162D01*
X128192917Y-78403317D01*
X128192463Y-78403213D01*
X128030005Y-78384909D01*
X128029997Y-78384909D01*
X127867545Y-78403212D01*
X127713226Y-78457210D01*
X127574796Y-78544192D01*
X127459193Y-78659795D01*
X127372211Y-78798225D01*
X127318213Y-78952544D01*
X127299910Y-79114996D01*
X127299910Y-79115003D01*
X127318213Y-79277455D01*
X127372211Y-79431774D01*
X127372212Y-79431775D01*
X127459193Y-79570204D01*
X127574797Y-79685808D01*
X127713226Y-79772789D01*
X127867540Y-79826786D01*
X127867543Y-79826786D01*
X127867545Y-79826787D01*
X128029997Y-79845091D01*
X128030001Y-79845091D01*
X128030005Y-79845091D01*
X128192451Y-79826788D01*
X128192457Y-79826786D01*
X128192462Y-79826786D01*
X128192466Y-79826784D01*
X128192898Y-79826686D01*
X128193195Y-79826704D01*
X128199383Y-79826007D01*
X128199505Y-79827090D01*
X128262637Y-79830954D01*
X128318998Y-79872247D01*
X128344088Y-79937457D01*
X128344501Y-79947575D01*
X128344501Y-80241325D01*
X128337543Y-80282279D01*
X128283213Y-80437544D01*
X128264910Y-80599996D01*
X128264910Y-80600003D01*
X128283213Y-80762455D01*
X128337211Y-80916774D01*
X128397574Y-81012841D01*
X128424193Y-81055204D01*
X128539797Y-81170808D01*
X128678226Y-81257789D01*
X128832540Y-81311786D01*
X128832543Y-81311786D01*
X128832545Y-81311787D01*
X128994997Y-81330091D01*
X128995001Y-81330091D01*
X128995005Y-81330091D01*
X129157456Y-81311787D01*
X129157457Y-81311786D01*
X129157462Y-81311786D01*
X129311776Y-81257789D01*
X129450205Y-81170808D01*
X129565809Y-81055204D01*
X129652790Y-80916775D01*
X129706787Y-80762461D01*
X129708321Y-80748849D01*
X129725092Y-80600003D01*
X129725092Y-80599996D01*
X129706788Y-80437544D01*
X129706787Y-80437542D01*
X129706787Y-80437539D01*
X129652790Y-80283225D01*
X129652459Y-80282279D01*
X129645501Y-80241325D01*
X129645501Y-77206262D01*
X132205445Y-77206262D01*
X132205445Y-77206269D01*
X132223748Y-77368721D01*
X132277746Y-77523040D01*
X132326161Y-77600091D01*
X132364728Y-77661470D01*
X132480332Y-77777074D01*
X132618761Y-77864055D01*
X132773075Y-77918052D01*
X132773078Y-77918052D01*
X132773080Y-77918053D01*
X132935532Y-77936357D01*
X132935536Y-77936357D01*
X132935540Y-77936357D01*
X133097991Y-77918053D01*
X133097992Y-77918052D01*
X133097997Y-77918052D01*
X133252311Y-77864055D01*
X133390740Y-77777074D01*
X133506344Y-77661470D01*
X133593325Y-77523041D01*
X133647322Y-77368727D01*
X133662081Y-77237737D01*
X133665627Y-77206269D01*
X133665627Y-77206262D01*
X133647323Y-77043810D01*
X133647322Y-77043808D01*
X133647322Y-77043805D01*
X133593325Y-76889491D01*
X133506344Y-76751062D01*
X133390740Y-76635458D01*
X133373999Y-76624939D01*
X133252310Y-76548476D01*
X133097991Y-76494478D01*
X132935540Y-76476175D01*
X132935532Y-76476175D01*
X132773080Y-76494478D01*
X132618761Y-76548476D01*
X132480331Y-76635458D01*
X132364728Y-76751061D01*
X132277746Y-76889491D01*
X132223748Y-77043810D01*
X132205445Y-77206262D01*
X129645501Y-77206262D01*
X129645501Y-75130928D01*
X129620503Y-75005261D01*
X129620502Y-75005257D01*
X129618157Y-74999596D01*
X129592222Y-74936983D01*
X129571467Y-74886874D01*
X129543477Y-74844984D01*
X129500279Y-74780332D01*
X129500273Y-74780325D01*
X128629674Y-73909726D01*
X128628173Y-73908723D01*
X128523128Y-73838535D01*
X128404745Y-73789499D01*
X128404739Y-73789497D01*
X128279072Y-73764500D01*
X128279070Y-73764500D01*
X127814209Y-73764500D01*
X127773254Y-73757541D01*
X127665958Y-73719996D01*
X134619910Y-73719996D01*
X134619910Y-73720003D01*
X134638213Y-73882455D01*
X134692211Y-74036774D01*
X134707724Y-74061462D01*
X134779193Y-74175204D01*
X134894797Y-74290808D01*
X135033226Y-74377789D01*
X135187540Y-74431786D01*
X135187543Y-74431786D01*
X135187545Y-74431787D01*
X135349997Y-74450091D01*
X135350001Y-74450091D01*
X135350005Y-74450091D01*
X135512456Y-74431787D01*
X135512457Y-74431786D01*
X135512462Y-74431786D01*
X135666776Y-74377789D01*
X135805205Y-74290808D01*
X135920809Y-74175204D01*
X136007790Y-74036775D01*
X136061787Y-73882461D01*
X136061788Y-73882455D01*
X136080092Y-73720003D01*
X136080092Y-73719996D01*
X136061788Y-73557544D01*
X136061787Y-73557542D01*
X136061787Y-73557539D01*
X136007790Y-73403225D01*
X135920809Y-73264796D01*
X135805205Y-73149192D01*
X135738665Y-73107382D01*
X135666775Y-73062210D01*
X135512456Y-73008212D01*
X135350005Y-72989909D01*
X135349997Y-72989909D01*
X135187545Y-73008212D01*
X135033226Y-73062210D01*
X134894796Y-73149192D01*
X134779193Y-73264795D01*
X134692211Y-73403225D01*
X134638213Y-73557544D01*
X134619910Y-73719996D01*
X127665958Y-73719996D01*
X127617993Y-73703212D01*
X127455540Y-73684909D01*
X127455532Y-73684909D01*
X127293078Y-73703212D01*
X127137818Y-73757541D01*
X127096863Y-73764500D01*
X125954209Y-73764500D01*
X125913254Y-73757541D01*
X125757993Y-73703212D01*
X125595540Y-73684909D01*
X125595532Y-73684909D01*
X125433080Y-73703212D01*
X125306395Y-73747541D01*
X125265441Y-73754499D01*
X124064209Y-73754499D01*
X124023254Y-73747540D01*
X123867993Y-73693211D01*
X123705540Y-73674908D01*
X123705532Y-73674908D01*
X123543078Y-73693211D01*
X123387818Y-73747540D01*
X123346863Y-73754499D01*
X122900931Y-73754499D01*
X122775263Y-73779496D01*
X122775257Y-73779498D01*
X122656872Y-73828534D01*
X122550333Y-73899721D01*
X122550326Y-73899727D01*
X121644725Y-74805328D01*
X121601377Y-74870203D01*
X121601378Y-74870204D01*
X121573535Y-74911874D01*
X121524500Y-75030255D01*
X121524498Y-75030261D01*
X121499501Y-75155928D01*
X121499501Y-75907591D01*
X121492543Y-75948545D01*
X121438213Y-76103810D01*
X121419910Y-76266262D01*
X121419910Y-76266269D01*
X121438213Y-76428723D01*
X121492542Y-76583984D01*
X121499501Y-76624939D01*
X121499501Y-77712217D01*
X121479816Y-77779256D01*
X121427012Y-77825011D01*
X121357854Y-77834955D01*
X121334547Y-77829259D01*
X121177991Y-77774478D01*
X121015540Y-77756175D01*
X121015532Y-77756175D01*
X120853080Y-77774478D01*
X120698761Y-77828476D01*
X120560331Y-77915458D01*
X120444728Y-78031061D01*
X120357746Y-78169491D01*
X120303748Y-78323810D01*
X120285445Y-78486262D01*
X120285445Y-78486269D01*
X120303748Y-78648721D01*
X120357746Y-78803040D01*
X120357747Y-78803041D01*
X120444728Y-78941470D01*
X120560332Y-79057074D01*
X120698761Y-79144055D01*
X120853075Y-79198052D01*
X120853078Y-79198052D01*
X120853080Y-79198053D01*
X121015532Y-79216357D01*
X121015536Y-79216357D01*
X121015540Y-79216357D01*
X121177989Y-79198053D01*
X121177989Y-79198052D01*
X121177997Y-79198052D01*
X121332311Y-79144055D01*
X121332314Y-79144052D01*
X121334546Y-79143272D01*
X121404325Y-79139711D01*
X121464952Y-79174440D01*
X121497180Y-79236433D01*
X121499501Y-79260314D01*
X121499501Y-79755500D01*
X121479816Y-79822539D01*
X121427012Y-79868294D01*
X121375501Y-79879500D01*
X118945930Y-79879500D01*
X118820262Y-79904497D01*
X118820256Y-79904499D01*
X118701875Y-79953534D01*
X118595327Y-80024726D01*
X117511776Y-81108277D01*
X117450453Y-81141762D01*
X117437989Y-81143815D01*
X117430753Y-81144630D01*
X117430745Y-81144632D01*
X117260479Y-81204210D01*
X117107738Y-81300184D01*
X116980185Y-81427737D01*
X116884212Y-81580476D01*
X116824632Y-81750745D01*
X116824631Y-81750750D01*
X116804436Y-81929996D01*
X115256036Y-81929996D01*
X115256036Y-76869996D01*
X116619910Y-76869996D01*
X116619910Y-76870003D01*
X116638213Y-77032455D01*
X116692211Y-77186774D01*
X116724234Y-77237738D01*
X116779193Y-77325204D01*
X116894797Y-77440808D01*
X117033226Y-77527789D01*
X117187540Y-77581786D01*
X117187543Y-77581786D01*
X117187545Y-77581787D01*
X117349997Y-77600091D01*
X117350001Y-77600091D01*
X117350005Y-77600091D01*
X117512456Y-77581787D01*
X117512457Y-77581786D01*
X117512462Y-77581786D01*
X117666776Y-77527789D01*
X117805205Y-77440808D01*
X117920809Y-77325204D01*
X118007790Y-77186775D01*
X118061787Y-77032461D01*
X118061788Y-77032455D01*
X118080092Y-76870003D01*
X118080092Y-76869996D01*
X118061788Y-76707544D01*
X118061787Y-76707542D01*
X118061787Y-76707539D01*
X118007790Y-76553225D01*
X117920809Y-76414796D01*
X117805205Y-76299192D01*
X117666775Y-76212210D01*
X117532940Y-76165379D01*
X117512462Y-76158214D01*
X117512461Y-76158213D01*
X117512456Y-76158212D01*
X117350005Y-76139909D01*
X117349997Y-76139909D01*
X117187545Y-76158212D01*
X117033226Y-76212210D01*
X116894796Y-76299192D01*
X116779193Y-76414795D01*
X116692211Y-76553225D01*
X116638213Y-76707544D01*
X116619910Y-76869996D01*
X115256036Y-76869996D01*
X115256036Y-70307996D01*
X135199236Y-70307996D01*
X135199236Y-70308003D01*
X135219431Y-70487249D01*
X135219432Y-70487254D01*
X135279012Y-70657523D01*
X135374985Y-70810262D01*
X135502539Y-70937816D01*
X135535798Y-70958714D01*
X135620673Y-71012045D01*
X135655279Y-71033789D01*
X135752317Y-71067744D01*
X135825546Y-71093368D01*
X135825551Y-71093369D01*
X136004797Y-71113565D01*
X136004801Y-71113565D01*
X136004805Y-71113565D01*
X136184050Y-71093369D01*
X136184053Y-71093368D01*
X136184056Y-71093368D01*
X136354323Y-71033789D01*
X136507063Y-70937816D01*
X136634617Y-70810262D01*
X136730590Y-70657522D01*
X136790169Y-70487255D01*
X136790170Y-70487249D01*
X136810366Y-70308003D01*
X136810366Y-70307996D01*
X136790170Y-70128750D01*
X136790169Y-70128745D01*
X136760095Y-70042799D01*
X136730590Y-69958478D01*
X136726858Y-69952539D01*
X136634616Y-69805737D01*
X136507063Y-69678184D01*
X136354324Y-69582211D01*
X136184055Y-69522631D01*
X136184050Y-69522630D01*
X136004805Y-69502435D01*
X136004797Y-69502435D01*
X135825551Y-69522630D01*
X135825546Y-69522631D01*
X135655277Y-69582211D01*
X135502538Y-69678184D01*
X135374985Y-69805737D01*
X135279012Y-69958476D01*
X135219432Y-70128745D01*
X135219431Y-70128750D01*
X135199236Y-70307996D01*
X115256036Y-70307996D01*
X115256036Y-66262496D01*
X126774436Y-66262496D01*
X126774436Y-66262503D01*
X126794631Y-66441749D01*
X126794632Y-66441754D01*
X126854212Y-66612023D01*
X126898496Y-66682500D01*
X126950185Y-66764762D01*
X127077739Y-66892316D01*
X127230479Y-66988289D01*
X127249044Y-66994785D01*
X127400746Y-67047868D01*
X127400751Y-67047869D01*
X127579997Y-67068065D01*
X127580001Y-67068065D01*
X127580005Y-67068065D01*
X127759250Y-67047869D01*
X127759253Y-67047868D01*
X127759256Y-67047868D01*
X127929523Y-66988289D01*
X128082263Y-66892316D01*
X128209817Y-66764762D01*
X128261508Y-66682496D01*
X130854436Y-66682496D01*
X130854436Y-66682503D01*
X130874631Y-66861749D01*
X130874632Y-66861754D01*
X130934212Y-67032023D01*
X131030185Y-67184762D01*
X131157739Y-67312316D01*
X131310479Y-67408289D01*
X131381888Y-67433276D01*
X131480746Y-67467868D01*
X131480751Y-67467869D01*
X131659997Y-67488065D01*
X131660001Y-67488065D01*
X131660005Y-67488065D01*
X131839250Y-67467869D01*
X131839253Y-67467868D01*
X131839256Y-67467868D01*
X132009523Y-67408289D01*
X132162263Y-67312316D01*
X132289817Y-67184762D01*
X132385790Y-67032022D01*
X132445369Y-66861755D01*
X132445370Y-66861745D01*
X132446662Y-66856085D01*
X132480766Y-66795104D01*
X132542424Y-66762241D01*
X132570869Y-66760577D01*
X133152450Y-66178996D01*
X133172371Y-66253343D01*
X133234906Y-66361657D01*
X133323344Y-66450095D01*
X133431658Y-66512630D01*
X133506003Y-66532550D01*
X132925428Y-67113124D01*
X132987613Y-67156666D01*
X133185841Y-67249101D01*
X133185850Y-67249105D01*
X133397106Y-67305710D01*
X133397116Y-67305712D01*
X133615000Y-67324775D01*
X133615002Y-67324775D01*
X133832885Y-67305712D01*
X133832895Y-67305710D01*
X134044151Y-67249105D01*
X134044165Y-67249100D01*
X134242384Y-67156669D01*
X134242386Y-67156668D01*
X134304572Y-67113124D01*
X133723999Y-66532550D01*
X133798344Y-66512630D01*
X133906658Y-66450095D01*
X133995096Y-66361657D01*
X134057631Y-66253343D01*
X134077551Y-66178997D01*
X134658125Y-66759570D01*
X134701669Y-66697385D01*
X134701670Y-66697383D01*
X134794101Y-66499164D01*
X134794106Y-66499150D01*
X134850711Y-66287894D01*
X134850713Y-66287884D01*
X134869776Y-66070000D01*
X134869776Y-66069999D01*
X134850713Y-65852115D01*
X134850711Y-65852105D01*
X134794106Y-65640849D01*
X134794102Y-65640840D01*
X134701668Y-65442614D01*
X134701667Y-65442612D01*
X134658125Y-65380428D01*
X134658125Y-65380427D01*
X134077551Y-65961001D01*
X134057631Y-65886657D01*
X133995096Y-65778343D01*
X133906658Y-65689905D01*
X133798344Y-65627370D01*
X133723998Y-65607449D01*
X134304572Y-65026874D01*
X134242388Y-64983333D01*
X134044160Y-64890898D01*
X134044151Y-64890894D01*
X133832895Y-64834289D01*
X133832885Y-64834287D01*
X133615002Y-64815225D01*
X133615000Y-64815225D01*
X133397116Y-64834287D01*
X133397106Y-64834289D01*
X133185850Y-64890894D01*
X133185841Y-64890898D01*
X132987614Y-64983333D01*
X132925429Y-65026874D01*
X133506004Y-65607449D01*
X133431658Y-65627370D01*
X133323344Y-65689905D01*
X133234906Y-65778343D01*
X133172371Y-65886657D01*
X133152450Y-65961003D01*
X132571875Y-65380428D01*
X132528334Y-65442613D01*
X132435899Y-65640840D01*
X132435895Y-65640849D01*
X132379290Y-65852105D01*
X132379288Y-65852115D01*
X132368869Y-65971208D01*
X132343416Y-66036276D01*
X132286825Y-66077255D01*
X132217063Y-66081133D01*
X132169558Y-66054701D01*
X132167706Y-66057025D01*
X132162263Y-66052684D01*
X132009524Y-65956711D01*
X131839255Y-65897131D01*
X131839250Y-65897130D01*
X131660005Y-65876935D01*
X131659997Y-65876935D01*
X131480751Y-65897130D01*
X131480746Y-65897131D01*
X131310477Y-65956711D01*
X131157738Y-66052684D01*
X131030185Y-66180237D01*
X130934212Y-66332976D01*
X130874632Y-66503245D01*
X130874631Y-66503250D01*
X130854436Y-66682496D01*
X128261508Y-66682496D01*
X128305790Y-66612022D01*
X128365369Y-66441755D01*
X128369562Y-66404543D01*
X128385566Y-66262503D01*
X128385566Y-66262496D01*
X128365370Y-66083250D01*
X128365369Y-66083245D01*
X128338852Y-66007465D01*
X128305790Y-65912978D01*
X128290727Y-65889006D01*
X128248737Y-65822179D01*
X128209817Y-65760238D01*
X128082263Y-65632684D01*
X128056476Y-65616481D01*
X127929524Y-65536711D01*
X127759255Y-65477131D01*
X127759250Y-65477130D01*
X127580005Y-65456935D01*
X127579997Y-65456935D01*
X127400751Y-65477130D01*
X127400746Y-65477131D01*
X127230477Y-65536711D01*
X127077738Y-65632684D01*
X126950185Y-65760237D01*
X126854212Y-65912976D01*
X126794632Y-66083245D01*
X126794631Y-66083250D01*
X126774436Y-66262496D01*
X115256036Y-66262496D01*
X115256036Y-61269999D01*
X132360226Y-61269999D01*
X132360226Y-61270000D01*
X132379288Y-61487884D01*
X132379290Y-61487894D01*
X132435895Y-61699150D01*
X132435899Y-61699159D01*
X132528334Y-61897387D01*
X132571875Y-61959571D01*
X133152450Y-61378996D01*
X133172371Y-61453343D01*
X133234906Y-61561657D01*
X133323344Y-61650095D01*
X133431658Y-61712630D01*
X133506003Y-61732550D01*
X132925428Y-62313124D01*
X132987613Y-62356666D01*
X133185841Y-62449101D01*
X133185850Y-62449105D01*
X133397106Y-62505710D01*
X133397116Y-62505712D01*
X133615000Y-62524775D01*
X133615002Y-62524775D01*
X133832885Y-62505712D01*
X133832895Y-62505710D01*
X134044151Y-62449105D01*
X134044165Y-62449100D01*
X134242384Y-62356669D01*
X134242386Y-62356668D01*
X134304572Y-62313124D01*
X133723999Y-61732550D01*
X133798344Y-61712630D01*
X133906658Y-61650095D01*
X133995096Y-61561657D01*
X134057631Y-61453343D01*
X134077551Y-61378997D01*
X134658125Y-61959570D01*
X134701669Y-61897385D01*
X134701670Y-61897383D01*
X134794101Y-61699164D01*
X134794106Y-61699150D01*
X134850711Y-61487894D01*
X134850713Y-61487884D01*
X134869776Y-61270000D01*
X134869776Y-61269999D01*
X134850713Y-61052115D01*
X134850711Y-61052105D01*
X134794106Y-60840849D01*
X134794102Y-60840840D01*
X134701668Y-60642614D01*
X134701667Y-60642612D01*
X134658125Y-60580428D01*
X134658125Y-60580427D01*
X134077551Y-61161001D01*
X134057631Y-61086657D01*
X133995096Y-60978343D01*
X133906658Y-60889905D01*
X133798344Y-60827370D01*
X133723998Y-60807449D01*
X134304572Y-60226874D01*
X134242388Y-60183333D01*
X134044160Y-60090898D01*
X134044151Y-60090894D01*
X133832895Y-60034289D01*
X133832885Y-60034287D01*
X133615002Y-60015225D01*
X133615000Y-60015225D01*
X133397116Y-60034287D01*
X133397106Y-60034289D01*
X133185850Y-60090894D01*
X133185841Y-60090898D01*
X132987614Y-60183333D01*
X132925429Y-60226874D01*
X133506004Y-60807449D01*
X133431658Y-60827370D01*
X133323344Y-60889905D01*
X133234906Y-60978343D01*
X133172371Y-61086657D01*
X133152450Y-61161003D01*
X132571875Y-60580428D01*
X132528334Y-60642613D01*
X132435899Y-60840840D01*
X132435895Y-60840849D01*
X132379290Y-61052105D01*
X132379288Y-61052115D01*
X132360226Y-61269999D01*
X115256036Y-61269999D01*
X115256036Y-56029999D01*
X116884923Y-56029999D01*
X116884923Y-56030000D01*
X116905220Y-56417287D01*
X116965887Y-56800323D01*
X116965888Y-56800330D01*
X117066263Y-57174936D01*
X117205245Y-57536994D01*
X117381311Y-57882543D01*
X117592532Y-58207793D01*
X117801096Y-58465350D01*
X117801097Y-58465350D01*
X119295749Y-56970698D01*
X119369589Y-57072330D01*
X119547671Y-57250412D01*
X119649301Y-57324251D01*
X118154649Y-58818903D01*
X118154650Y-58818904D01*
X118412207Y-59027468D01*
X118737457Y-59238689D01*
X119083006Y-59414755D01*
X119445064Y-59553737D01*
X119819670Y-59654112D01*
X119819677Y-59654113D01*
X120202713Y-59714780D01*
X120590000Y-59735078D01*
X120590002Y-59735078D01*
X120977288Y-59714780D01*
X121360324Y-59654113D01*
X121360331Y-59654112D01*
X121734937Y-59553737D01*
X122096995Y-59414755D01*
X122442544Y-59238689D01*
X122767784Y-59027476D01*
X122767786Y-59027475D01*
X123025350Y-58818902D01*
X121530699Y-57324251D01*
X121632331Y-57250412D01*
X121810413Y-57072330D01*
X121884252Y-56970698D01*
X123378903Y-58465349D01*
X123587476Y-58207785D01*
X123587477Y-58207783D01*
X123798690Y-57882543D01*
X123974756Y-57536994D01*
X124113738Y-57174936D01*
X124214113Y-56800330D01*
X124214114Y-56800323D01*
X124241091Y-56629996D01*
X125034436Y-56629996D01*
X125034436Y-56630003D01*
X125054631Y-56809249D01*
X125054632Y-56809254D01*
X125114212Y-56979523D01*
X125200231Y-57116420D01*
X125210185Y-57132262D01*
X125337739Y-57259816D01*
X125490479Y-57355789D01*
X125585728Y-57389118D01*
X125660746Y-57415368D01*
X125660751Y-57415369D01*
X125839997Y-57435565D01*
X125840001Y-57435565D01*
X125840005Y-57435565D01*
X126019250Y-57415369D01*
X126019253Y-57415368D01*
X126019256Y-57415368D01*
X126189523Y-57355789D01*
X126342263Y-57259816D01*
X126469817Y-57132262D01*
X126565790Y-56979522D01*
X126625369Y-56809255D01*
X126626375Y-56800330D01*
X126645566Y-56630003D01*
X126645566Y-56629996D01*
X126625370Y-56450750D01*
X126625369Y-56450745D01*
X126622883Y-56443641D01*
X126565790Y-56280478D01*
X126560560Y-56272155D01*
X126469816Y-56127737D01*
X126342263Y-56000184D01*
X126189524Y-55904211D01*
X126019255Y-55844631D01*
X126019250Y-55844630D01*
X125840005Y-55824435D01*
X125839997Y-55824435D01*
X125660751Y-55844630D01*
X125660746Y-55844631D01*
X125490477Y-55904211D01*
X125337738Y-56000184D01*
X125210185Y-56127737D01*
X125114212Y-56280476D01*
X125054632Y-56450745D01*
X125054631Y-56450750D01*
X125034436Y-56629996D01*
X124241091Y-56629996D01*
X124274781Y-56417287D01*
X124295079Y-56030000D01*
X124295079Y-56029999D01*
X124274781Y-55642712D01*
X124214114Y-55259676D01*
X124214113Y-55259669D01*
X124113738Y-54885063D01*
X123974756Y-54523005D01*
X123798690Y-54177456D01*
X123587469Y-53852206D01*
X123378905Y-53594649D01*
X123378904Y-53594648D01*
X121884252Y-55089300D01*
X121810413Y-54987670D01*
X121632331Y-54809588D01*
X121530699Y-54735748D01*
X123025351Y-53241096D01*
X123025351Y-53241095D01*
X122767794Y-53032531D01*
X122442544Y-52821310D01*
X122096995Y-52645244D01*
X121734937Y-52506262D01*
X121360331Y-52405887D01*
X121360324Y-52405886D01*
X120977288Y-52345219D01*
X120590002Y-52324922D01*
X120590000Y-52324922D01*
X120202713Y-52345219D01*
X119819677Y-52405886D01*
X119819670Y-52405887D01*
X119445064Y-52506262D01*
X119083006Y-52645244D01*
X118737457Y-52821310D01*
X118412207Y-53032531D01*
X118154649Y-53241095D01*
X118154649Y-53241096D01*
X119649302Y-54735748D01*
X119547671Y-54809588D01*
X119369589Y-54987670D01*
X119295749Y-55089300D01*
X117801097Y-53594648D01*
X117801096Y-53594648D01*
X117592532Y-53852206D01*
X117381311Y-54177456D01*
X117205245Y-54523005D01*
X117066263Y-54885063D01*
X116965888Y-55259669D01*
X116965887Y-55259676D01*
X116905220Y-55642712D01*
X116884923Y-56029999D01*
X115256036Y-56029999D01*
X115256036Y-55458972D01*
X115256154Y-55453562D01*
X115259336Y-55380710D01*
X115274260Y-55038998D01*
X115275200Y-55028260D01*
X115329019Y-54619505D01*
X115330890Y-54608898D01*
X115420127Y-54206405D01*
X115422913Y-54196002D01*
X115546894Y-53802798D01*
X115550583Y-53792663D01*
X115708350Y-53411788D01*
X115712920Y-53401991D01*
X115796678Y-53241095D01*
X115903273Y-53036330D01*
X115908672Y-53026979D01*
X116130178Y-52679289D01*
X116136369Y-52670446D01*
X116387353Y-52343360D01*
X116394278Y-52335108D01*
X116672798Y-52031157D01*
X116680426Y-52023529D01*
X116984377Y-51745008D01*
X116992640Y-51738074D01*
X117319708Y-51487106D01*
X117328559Y-51480908D01*
X117676248Y-51259403D01*
X117685589Y-51254009D01*
X118051284Y-51063638D01*
X118061038Y-51059089D01*
X118441932Y-50901313D01*
X118452067Y-50897624D01*
X118845271Y-50773643D01*
X118855674Y-50770857D01*
X119258167Y-50681620D01*
X119268774Y-50679749D01*
X119677529Y-50625931D01*
X119688266Y-50624991D01*
X120102836Y-50606883D01*
X120108225Y-50606766D01*
X174831060Y-50616715D01*
G37*
%TD.AperFunction*%
%TD*%
M02*
