M48
; DRILL file {KiCad 8.0.5} date 2025-11-07T08:13:23-0300
; FORMAT={-:-/ absolute / metric / decimal}
; #@! TF.CreationDate,2025-11-07T08:13:23-03:00
; #@! TF.GenerationSoftware,Kicad,Pcbnew,8.0.5
; #@! TF.FileFunction,Plated,1,4,PTH
FMAT,2
METRIC
; #@! TA.AperFunction,Plated,PTH,ViaDrill
T1C0.300
; #@! TA.AperFunction,Plated,PTH,ComponentDrill
T2C0.850
; #@! TA.AperFunction,Plated,PTH,ComponentDrill
T3C0.950
; #@! TA.AperFunction,Plated,PTH,ComponentDrill
T4C1.000
; #@! TA.AperFunction,Plated,PTH,ComponentDrill
T5C1.050
; #@! TA.AperFunction,Plated,PTH,ComponentDrill
T6C1.300
; #@! TA.AperFunction,Plated,PTH,ComponentDrill
T7C3.200
%
G90
G05
T1
X117.35Y-76.87
X117.61Y-81.93
X118.426Y-77.486
X119.726Y-79.616
X121.016Y-78.486
X121.07Y-74.372
X121.46Y-81.32
X122.15Y-76.266
X122.877Y-82.705
X123.041Y-85.611
X123.525Y-84.015
X123.706Y-74.405
X123.778Y-84.532
X124.076Y-85.056
X124.126Y-75.476
X124.64Y-85.23
X125.157Y-85.481
X125.596Y-74.415
X125.662Y-82.805
X125.73Y-101.05
X125.84Y-55.16
X125.84Y-56.63
X126.81Y-86.29
X127.346Y-69.766
X127.456Y-74.415
X127.58Y-66.263
X128.03Y-79.115
X128.24Y-90.1
X128.995Y-80.6
X130.506Y-82.496
X130.611Y-81.341
X130.75Y-88.537
X131.16Y-56.56
X131.65Y-68.56
X131.66Y-66.682
X132.042Y-80.417
X132.21Y-88.527
X132.711Y-84.781
X132.741Y-83.791
X132.746Y-82.9
X132.746Y-85.73
X132.776Y-86.69
X132.936Y-77.206
X133.67Y-88.557
X134.38Y-96.53
X135.12Y-88.576
X135.141Y-100.94
X135.34Y-80.3
X135.35Y-73.72
X135.36Y-77.73
X136.005Y-70.308
X136.29Y-96.66
X136.59Y-88.486
X136.836Y-76.82
X137.072Y-108.713
X137.072Y-109.475
X137.072Y-110.237
X137.072Y-110.999
X137.072Y-111.761
X137.072Y-112.523
X137.072Y-113.285
X137.072Y-114.047
X137.072Y-114.809
X137.46Y-60.64
X137.51Y-62.12
X138.006Y-97.146
X138.225Y-72.915
X138.557Y-96.885
X138.746Y-70.496
X138.9Y-72.866
X138.951Y-96.421
X139.116Y-51.896
X139.952Y-96.083
X140.256Y-94.085
X140.666Y-93.61
X141.026Y-93.135
X141.47Y-74.63
X141.491Y-73.559
X141.593Y-84.532
X141.694Y-60.351
X142.235Y-63.42
X142.335Y-62.335
X142.546Y-62.936
X142.66Y-80.57
X142.77Y-79.07
X142.79Y-95.09
X142.82Y-77.74
X143.117Y-81.433
X143.55Y-94.86
X143.726Y-97.943
X143.828Y-87.885
X144.031Y-89.815
X144.082Y-99.66
X144.191Y-94.311
X145.06Y-81.21
X145.46Y-63.87
X145.504Y-108.764
X145.504Y-109.526
X145.504Y-110.288
X145.504Y-111.05
X145.504Y-111.83
X145.504Y-112.624
X145.504Y-113.386
X145.504Y-114.148
X145.51Y-114.87
X145.55Y-63.08
X145.61Y-94.24
X145.626Y-59.83
X145.642Y-59.15
X145.657Y-77.064
X145.906Y-79.466
X145.911Y-99.924
X146.266Y-111.05
X146.266Y-111.83
X146.266Y-112.624
X146.306Y-94.296
X146.528Y-91.194
X146.79Y-81.12
X146.876Y-89.307
X147.079Y-111.05
X147.079Y-111.83
X147.079Y-112.574
X147.186Y-78.696
X147.63Y-94.376
X147.665Y-99.835
X147.841Y-111.05
X147.841Y-111.83
X147.841Y-112.574
X147.994Y-80.366
X148.082Y-95.323
X148.58Y-99.846
X148.603Y-111.05
X148.603Y-111.83
X148.603Y-112.574
X148.85Y-94.56
X149.366Y-92.76
X151.24Y-77.92
X151.716Y-77.566
X152.136Y-77.096
X152.25Y-99.516
X152.611Y-76.601
X152.766Y-99.035
X153.061Y-76.171
X153.136Y-98.546
X153.426Y-102.06
X153.531Y-75.671
X153.556Y-98.076
X153.925Y-91.13
X154.05Y-95.708
X154.325Y-90.06
X156.426Y-78.995
X157.55Y-98.15
X157.646Y-96.396
X157.736Y-82.856
X161.456Y-81.738
X163.686Y-82.836
X165.19Y-75.84
X165.86Y-105.26
X167.196Y-81.84
X168.13Y-70.115
X168.326Y-71.496
X170.76Y-96.1
X170.79Y-98.326
T2
X140.715Y-68.395
T3
X133.615Y-56.47
X133.615Y-61.27
X133.615Y-66.07
X138.215Y-54.145
X138.215Y-68.395
X143.215Y-54.145
X143.215Y-68.395
X147.915Y-54.145
X147.915Y-68.395
T4
X118.305Y-100.205
X118.305Y-102.745
X118.305Y-105.285
X118.35Y-90.05
X118.35Y-92.59
X118.35Y-95.13
X156.21Y-73.94
X158.75Y-73.94
X161.29Y-73.94
X163.83Y-73.94
X166.37Y-73.94
X171.99Y-72.695
X171.99Y-75.235
X171.99Y-77.775
X172.01Y-82.495
X172.01Y-85.035
T5
X135.715Y-54.145
X145.715Y-54.145
X150.715Y-57.32
X150.715Y-62.72
X150.715Y-68.395
X155.715Y-54.145
X160.715Y-68.395
X165.715Y-54.145
X170.715Y-59.82
X170.715Y-68.395
T6
X127.94Y-112.93
X132.94Y-112.93
T7
X120.15Y-113.23
X120.59Y-56.03
X170.32Y-113.24
T4
G00X158.09Y-109.54
M15
G01X160.69Y-109.54
M16
G05
G00X158.29Y-115.84
M15
G01X160.49Y-115.84
M16
G05
G00X164.19Y-111.34
M15
G01X164.19Y-113.54
M16
G05
M30
